G04 ================== begin FILE IDENTIFICATION RECORD ==================*
G04 Layout Name:  HW-FMC-XM500_Rev1_0_1281021_FINAL.brd*
G04 Film Name:    1281021_HW-FMC-XM500-REV-1_0_L05_SIG*
G04 File Format:  Gerber RS274X*
G04 File Origin:  Cadence Allegro 17.2-S040*
G04 Origin Date:  Thu Jun 14 11:23:17 2018*
G04 *
G04 Layer:  BOARD GEOMETRY/OUTLINE*
G04 Layer:  BOARD GEOMETRY/DESIGN_OUTLINE*
G04 Layer:  BOARD GEOMETRY/ALL*
G04 Layer:  ETCH/L05_SIG*
G04 Layer:  PIN/L05_SIG*
G04 Layer:  VIA CLASS/L05_SIG*
G04 *
G04 Offset:    (0.0000 0.0000)*
G04 Mirror:    No*
G04 Mode:      Positive*
G04 Rotation:  0*
G04 FullContactRelief:  No*
G04 UndefLineWidth:     5.0000*
G04 ================== end FILE IDENTIFICATION RECORD ====================*
%FSLAX35Y35*MOIN*%
%IR0*IPPOS*OFA0.00000B0.00000*MIA0B0*SFA1.00000B1.00000*%
%ADD15C,.06*%
%ADD10C,.018*%
%ADD14C,.019*%
%ADD12C,.082*%
%ADD11C,.057*%
%ADD13O,.083X.052*%
%ADD16C,.01*%
%ADD17C,.015*%
%ADD18C,.005*%
%ADD19C,.008*%
%ADD25C,.043*%
%ADD23C,.027*%
%ADD24C,.02824*%
%ADD22C,.086001*%
%ADD26C,.09618*%
%ADD21C,.085999*%
%ADD20C,.32*%
G75*
%LPD*%
G75*
G36*
G01X62225Y647500D02*
X400000D01*
Y612775D01*
X432500D01*
Y432775D01*
X400000D01*
Y397775D01*
X432500D01*
Y192775D01*
X400000D01*
Y157775D01*
X432500D01*
Y-24725D01*
X400000D01*
Y-54725D01*
X60000D01*
X52500Y-47225D01*
Y-15000D01*
X22500D01*
X15000Y-7500D01*
Y-5568D01*
X15012Y-5534D01*
G03X16000Y0I-15012J5534D01*
G03X15012Y5534I-16000J0D01*
G01X15000Y5568D01*
Y7500D01*
X12449Y10051D01*
X12442Y10059D01*
G03X10059Y12442I-12442J-10059D01*
G01X10051Y12449D01*
X10000Y12500D01*
X9988D01*
X9933Y12543D01*
G03X0Y16000I-9933J-12543D01*
G03X-9988Y12500I0J-16000D01*
G01X-24725D01*
X-37500Y25275D01*
Y524307D01*
G02X-37100Y524707I400J0D01*
G02X-36817Y524590I0J-400D01*
G01X-23282Y511054D01*
X-19733D01*
G02X-19333Y510654I0J-400D01*
G02X-19337Y510599I-400J0D01*
G03X-19350Y510412I1337J-186D01*
G03X-16650I1350J0D01*
G03X-16663Y510599I-1350J0D01*
G02X-16667Y510654I396J55D01*
G02X-16267Y511054I400J0D01*
G01X-14733D01*
G02X-14333Y510654I0J-400D01*
G02X-14337Y510599I-400J0D01*
G03X-14350Y510412I1337J-186D01*
G03X-11650I1350J0D01*
G03X-11663Y510599I-1350J0D01*
G02X-11667Y510654I396J55D01*
G02X-11267Y511054I400J0D01*
G01X-10961D01*
X-10115Y511900D01*
X-9371D01*
G02X-8971Y511500I0J-400D01*
G02X-9058Y511251I-400J0D01*
G03X-9350Y510412I1058J-839D01*
G03X-6650I1350J0D01*
G03X-6942Y511251I-1350J0D01*
G02X-7029Y511500I313J249D01*
G02X-6629Y511900I400J0D01*
G01X-4371D01*
G02X-3971Y511500I0J-400D01*
G02X-4058Y511251I-400J0D01*
G03X-4350Y510412I1058J-839D01*
G03X-1650I1350J0D01*
G03X-1942Y511251I-1350J0D01*
G02X-2029Y511500I313J249D01*
G02X-1629Y511900I400J0D01*
G01X629D01*
G02X1029Y511500I0J-400D01*
G02X942Y511251I-400J0D01*
G03X650Y510412I1058J-839D01*
G03X3350I1350J0D01*
G03X3058Y511251I-1350J0D01*
G02X2971Y511500I313J249D01*
G02X3371Y511900I400J0D01*
G01X4055D01*
X4839Y511117D01*
X5277D01*
G02X5677Y510717I0J-400D01*
G02X5671Y510647I-400J0D01*
G03X5650Y510412I1329J-235D01*
G03X8350I1350J0D01*
G03X8329Y510647I-1350J0D01*
G02X8323Y510717I394J69D01*
G02X8723Y511117I400J0D01*
G01X10277D01*
X10307Y511117D01*
X10312Y511117D01*
X10734D01*
Y510883D01*
X10723Y510851D01*
G03X10650Y510412I1277J-439D01*
G03X13350I1350J0D01*
G03X13329Y510647I-1350J0D01*
G02X13323Y510717I394J69D01*
G02X13723Y511117I400J0D01*
G01X15277D01*
X15307Y511117D01*
X15312Y511117D01*
X15734D01*
Y510883D01*
X15723Y510851D01*
G03X15650Y510412I1277J-439D01*
G03X18350I1350J0D01*
G03X18329Y510647I-1350J0D01*
G02X18323Y510717I394J69D01*
G02X18723Y511117I400J0D01*
G01X20767D01*
X21234Y510650D01*
X32748D01*
X34776Y512678D01*
X62268D01*
X62579Y512367D01*
X85150D01*
G02X85550Y511967I0J-400D01*
G02X85506Y511785I-400J0D01*
G03X85141Y510275I2944J-1510D01*
G03X88450Y506966I3309J0D01*
G01X91550D01*
G03X94859Y510275I0J3309D01*
G03X94494Y511785I-3309J0D01*
G02X94450Y511967I356J183D01*
G02X94850Y512367I400J0D01*
G01X135150D01*
G02X135550Y511967I0J-400D01*
G02X135506Y511785I-400J0D01*
G03X135141Y510275I2944J-1510D01*
G03X138450Y506966I3309J0D01*
G01X141550D01*
G03X144859Y510275I0J3309D01*
G03X144849Y510537I-3309J0D01*
G01X144841Y510629D01*
X145048Y510836D01*
X145261Y510622D01*
X198829D01*
X227118Y538912D01*
X264028D01*
X321822Y596706D01*
X332722D01*
X346977Y610961D01*
G02X347260Y611078I283J-283D01*
G02X347541Y610962I0J-400D01*
G03X348536Y610552I994J1003D01*
G03X349948Y611964I0J1412D01*
G03X349538Y612959I-1412J0D01*
G02X349422Y613240I284J282D01*
G02X349539Y613523I400J0D01*
G01X351850Y615834D01*
Y619335D01*
G03X353906Y622775I-1850J3440D01*
G03X352400Y625857I-3906J0D01*
G01Y629693D01*
G03X353906Y632775I-2400J3082D01*
G03X350000Y636681I-3906J0D01*
G03X346448Y634400I0J-3906D01*
G01X342402D01*
G03X337598I-2402J-1625D01*
G01X332402D01*
G03X327598I-2402J-1625D01*
G01X323552D01*
G03X316448I-3552J-1625D01*
G01X313552D01*
G03X310000Y636681I-3552J-1625D01*
G03X308986Y636547I0J-3906D01*
G01X308874Y636517D01*
X301541Y643850D01*
X80734D01*
X55150Y618266D01*
Y606266D01*
X53509Y604625D01*
X40509D01*
X11212Y575329D01*
X7020D01*
G02X6620Y575729I0J400D01*
G02X6849Y576090I400J0D01*
G03X9206Y577464I-6849J14460D01*
G01X9258Y577500D01*
X10000D01*
X15000Y582500D01*
Y584982D01*
X15012Y585016D01*
G03X16000Y590550I-15012J5534D01*
G03X15012Y596084I-16000J0D01*
G01X15000Y596118D01*
Y600000D01*
X20275Y605275D01*
X52500D01*
Y637775D01*
X62225Y647500D01*
G37*
G36*
G01X198829Y624650D02*
X239734D01*
X250839Y613544D01*
G02X250957Y613261I-283J-283D01*
G02X250557Y612861I-400J0D01*
G01X199720D01*
X183709Y596850D01*
X178493D01*
G02X178093Y597250I0J400D01*
G02X178214Y597536I400J0D01*
G03X179666Y600980I-3357J3444D01*
G03X170048I-4809J0D01*
G03X171501Y597536I4809J0D01*
G02X171622Y597250I-279J-286D01*
G02X171222Y596850I-400J0D01*
G01X148766D01*
X143766Y601850D01*
X105334D01*
X104830Y601346D01*
X82324D01*
X81827Y600849D01*
G02X81544Y600732I-283J283D01*
G02X81144Y601132I0J400D01*
G01Y602028D01*
X88260Y609144D01*
X90760D01*
X106266Y624650D01*
X191456D01*
G02X191856Y624250I0J-400D01*
G02X191739Y623967I-400J0D01*
G03X190334Y620570I3403J-3398D01*
G03X199952I4809J0D01*
G03X198546Y623967I-4809J0D01*
G02X198429Y624250I283J283D01*
G02X198829Y624650I400J0D01*
G37*
G36*
G01X199114Y549848D02*
X211766D01*
G02X212166Y549448I0J-400D01*
G02X212049Y549166I-400J0D01*
G01X185474Y522590D01*
X178577D01*
X178551Y522589D01*
X178545Y522590D01*
X177883D01*
Y522881D01*
X177951Y522940D01*
G03X179592Y526558I-3168J3618D01*
G03X169974I-4809J0D01*
G03X170265Y524909I4809J0D01*
G02X170290Y524772I-376J-137D01*
G02X169890Y524372I-400J0D01*
G02X169607Y524489I0J400D01*
G01X167747Y526348D01*
X136479D01*
X133945Y523815D01*
X133807Y523916D01*
G03X132975Y524187I-832J-1141D01*
G03X131567Y522878I0J-1412D01*
G01X131553Y522692D01*
X114397D01*
X114383Y522878D01*
G03X111567I-1408J-103D01*
G01X111553Y522692D01*
X98447D01*
X98433Y522878D01*
G03X97025Y524187I-1408J-103D01*
G03X96058Y523804I0J-1412D01*
G01X95916Y523671D01*
X93239Y526348D01*
X90215D01*
Y532650D01*
X93266D01*
X93866Y533250D01*
X141057D01*
X141089Y533090D01*
G03X142473Y531958I1384J281D01*
G03X143885Y533370I0J1412D01*
G03X143551Y534283I-1412J0D01*
G02X143503Y534412I153J129D01*
G02X143562Y534553I200J0D01*
G01X150493Y541484D01*
X179101D01*
X187465Y549848D01*
X191320D01*
G02X191720Y549448I0J-400D01*
G02X191620Y549183I-400J0D01*
G03X190408Y545992I3598J-3191D01*
G03X200026I4809J0D01*
G03X198815Y549183I-4809J0D01*
G02X198714Y549448I299J265D01*
G02X199114Y549848I400J0D01*
G37*
G36*
G01X227666Y587650D02*
X257068D01*
G02X257468Y587250I0J-400D01*
G02X257351Y586967I-400J0D01*
G01X227593Y557209D01*
X224144D01*
G02X223744Y557609I0J400D01*
G02X223828Y557855I400J0D01*
G03X224839Y560805I-3798J2950D01*
G03X215221I-4809J0D01*
G03X216232Y557855I4809J0D01*
G02X216316Y557609I-316J-245D01*
G02X215916Y557209I-400J0D01*
G01X197700D01*
Y557830D01*
X227520Y587650D01*
X227666D01*
G37*
%LPC*%
G75*
G36*
G01X141550Y481966D02*
X138450D01*
G02Y488584I0J3309D01*
G01X141550D01*
G02Y481966I0J-3309D01*
G37*
G36*
G01Y164466D02*
X138450D01*
G02Y171084I0J3309D01*
G01X141550D01*
G02Y164466I0J-3309D01*
G37*
G36*
G01Y139466D02*
X138450D01*
G02Y146084I0J3309D01*
G01X141550D01*
G02Y139466I0J-3309D01*
G37*
G36*
G01Y129466D02*
X138450D01*
G02Y136084I0J3309D01*
G01X141550D01*
G02Y129466I0J-3309D01*
G37*
G36*
G01Y104466D02*
X138450D01*
G02Y111084I0J3309D01*
G01X141550D01*
G02Y104466I0J-3309D01*
G37*
G36*
G01Y94466D02*
X138450D01*
G02Y101084I0J3309D01*
G01X141550D01*
G02Y94466I0J-3309D01*
G37*
G36*
G01Y69466D02*
X138450D01*
G02Y76084I0J3309D01*
G01X141550D01*
G02Y69466I0J-3309D01*
G37*
G36*
G01Y54466D02*
X138450D01*
G02Y61084I0J3309D01*
G01X141550D01*
G02Y54466I0J-3309D01*
G37*
G36*
G01X91550Y481966D02*
X88450D01*
G02Y488584I0J3309D01*
G01X91550D01*
G02Y481966I0J-3309D01*
G37*
G36*
G01Y164466D02*
X88450D01*
G02Y171084I0J3309D01*
G01X91550D01*
G02Y164466I0J-3309D01*
G37*
G36*
G01Y139466D02*
X88450D01*
G02Y146084I0J3309D01*
G01X91550D01*
G02Y139466I0J-3309D01*
G37*
G36*
G01Y129466D02*
X88450D01*
G02Y136084I0J3309D01*
G01X91550D01*
G02Y129466I0J-3309D01*
G37*
G36*
G01Y104466D02*
X88450D01*
G02Y111084I0J3309D01*
G01X91550D01*
G02Y104466I0J-3309D01*
G37*
G36*
G01Y94466D02*
X88450D01*
G02Y101084I0J3309D01*
G01X91550D01*
G02Y94466I0J-3309D01*
G37*
G36*
G01Y69466D02*
X88450D01*
G02Y76084I0J3309D01*
G01X91550D01*
G02Y69466I0J-3309D01*
G37*
G36*
G01X15684Y79837D02*
G02X18350Y80138I1316J301D01*
G02X18316Y79837I-1350J0D01*
G03X18306Y79748I390J-89D01*
G03X18706Y79348I400J0D01*
G01X21269D01*
X23766Y76850D01*
X30734D01*
X31551Y77667D01*
X47956D01*
X59635Y65988D01*
X119128D01*
X141266Y43850D01*
X159860D01*
X162270Y41440D01*
Y39967D01*
X169387Y32850D01*
X306766D01*
X357350Y-17734D01*
Y-42666D01*
X354666Y-45350D01*
X334259D01*
X331126Y-42217D01*
X331014Y-42247D01*
G02X330000Y-42381I-1014J3772D01*
G02X326094Y-38475I0J3906D01*
G02X326105Y-38176I3906J0D01*
G03X326107Y-38145I-399J31D01*
G03X325707Y-37745I-400J0D01*
G01X323283D01*
G03X322883Y-38145I0J-400D01*
G03X322885Y-38185I400J0D01*
G02X322900Y-38475I-2885J-290D01*
G02X317100I-2900J0D01*
G02X318362Y-36082I2900J0D01*
G03X318536Y-35752I-226J330D01*
G03X318136Y-35352I-400J0D01*
G01X311864D01*
G03X311464Y-35752I0J-400D01*
G03X311638Y-36082I400J0D01*
G02X312900Y-38475I-1638J-2393D01*
G02X307100I-2900J0D01*
G02X308362Y-36082I2900J0D01*
G03X308536Y-35752I-226J330D01*
G03X308136Y-35352I-400J0D01*
G01X301864D01*
G03X301464Y-35752I0J-400D01*
G03X301638Y-36082I400J0D01*
G02X302900Y-38475I-1638J-2393D01*
G02X297100I-2900J0D01*
G02X298362Y-36082I2900J0D01*
G03X298536Y-35752I-226J330D01*
G03X298136Y-35352I-400J0D01*
G01X291864D01*
G03X291464Y-35752I0J-400D01*
G03X291638Y-36082I400J0D01*
G02X292900Y-38475I-1638J-2393D01*
G02X290000Y-41375I-2900J0D01*
G02X287674Y-40206I0J2900D01*
G03X287353Y-40045I-321J-239D01*
G03X286953Y-40445I0J-400D01*
G01Y-40874D01*
X282977Y-44850D01*
X88234D01*
X57459Y-14075D01*
X42542D01*
X11817Y16650D01*
X-21266D01*
X-35810Y31194D01*
Y67306D01*
X-28582Y74535D01*
X-19801D01*
G03X-19401Y74935I0J400D01*
G03X-19403Y74979I-400J0D01*
G02X-19412Y75138I1403J158D01*
G02X-16588I1412J0D01*
G02X-16597Y74979I-1412J0D01*
G03X-16599Y74935I397J-45D01*
G03X-16199Y74535I400J0D01*
G01X-9801D01*
G03X-9401Y74935I0J400D01*
G03X-9403Y74979I-400J0D01*
G02X-9412Y75138I1403J158D01*
G02X-6588I1412J0D01*
G02X-6678Y74641I-1412J0D01*
G03X-6704Y74500I374J-141D01*
G03X-6304Y74100I400J0D01*
G01X304D01*
G03X704Y74500I0J400D01*
G03X678Y74641I-400J0D01*
G02X588Y75138I1322J497D01*
G02X2000Y76550I1412J0D01*
G02X2708Y76359I0J-1412D01*
G01X2841Y76282D01*
X5900Y79341D01*
X5825Y79473D01*
G02X5650Y80138I1175J665D01*
G02X8350I1350J0D01*
G02X8316Y79837I-1350J0D01*
G03X8306Y79748I390J-89D01*
G03X8706Y79348I400J0D01*
G01X10294D01*
G03X10694Y79748I0J400D01*
G03X10684Y79837I-400J0D01*
G02X10650Y80138I1316J301D01*
G02X13350I1350J0D01*
G02X13316Y79837I-1350J0D01*
G03X13306Y79748I390J-89D01*
G03X13706Y79348I400J0D01*
G01X15294D01*
G03X15694Y79748I0J400D01*
G03X15684Y79837I-400J0D01*
G37*
G36*
G01X141550Y616966D02*
X138450D01*
G02Y623584I0J3309D01*
G01X141550D01*
G02Y616966I0J-3309D01*
G37*
G54D25*
X-13000Y150138D03*
X-8000D03*
X-13000Y165138D03*
X-8000D03*
Y180138D03*
X-13000D03*
X-8000Y195138D03*
X-13000D03*
Y210138D03*
X-8000D03*
Y225138D03*
X-13000D03*
X-8000Y355412D03*
X-13000D03*
X-8000Y370412D03*
X-13000D03*
X-8000Y455412D03*
X-13000D03*
X-8000Y470413D03*
X-13000D03*
X-8000Y485412D03*
X-13000D03*
X-8000Y500412D03*
X-13000D03*
X12000Y155138D03*
X7000D03*
Y170138D03*
X12000D03*
Y185138D03*
X7000D03*
X12000Y200138D03*
X7000D03*
Y215138D03*
X12000D03*
Y230138D03*
X7000D03*
X12000Y350412D03*
X7000D03*
X12000Y365412D03*
X7000D03*
X12000Y450412D03*
X7000D03*
Y465413D03*
X12000D03*
X7000Y480412D03*
X12000D03*
Y495413D03*
X7000D03*
G54D23*
X-33000Y78600D03*
X-31600Y512600D03*
X-18000Y80138D03*
Y245138D03*
Y240138D03*
Y440413D03*
X-3000Y80138D03*
X-8000D03*
X-13000D03*
Y240138D03*
Y245138D03*
X-3000D03*
Y440413D03*
X-8000D03*
X-13000D03*
X2000Y80138D03*
X12000Y245138D03*
X7000D03*
X2000D03*
Y440413D03*
X7000D03*
X12000D03*
X17000Y245138D03*
Y440413D03*
G54D24*
X-18000Y85138D03*
Y100138D03*
Y95138D03*
Y90138D03*
Y115138D03*
Y110138D03*
Y105138D03*
Y130138D03*
Y125138D03*
Y120138D03*
Y140138D03*
Y135138D03*
Y385412D03*
Y380412D03*
Y400412D03*
Y395412D03*
Y390412D03*
Y415413D03*
Y410412D03*
Y405412D03*
Y430412D03*
Y425412D03*
Y420413D03*
Y435412D03*
X-13000Y85138D03*
X-8000D03*
X-3000D03*
X-13000Y100138D03*
X-8000D03*
X-3000D03*
X-13000Y95138D03*
X-8000D03*
X-3000D03*
Y90138D03*
X-13000Y115138D03*
X-8000D03*
X-3000D03*
X-13000Y110138D03*
X-8000D03*
X-3000D03*
Y105138D03*
X-13000Y130138D03*
X-8000D03*
X-3000D03*
X-13000Y125138D03*
X-8000D03*
X-3000D03*
Y120138D03*
X-13000Y140138D03*
X-8000D03*
X-3000D03*
Y135138D03*
Y240138D03*
X-8000D03*
Y245138D03*
X-3000Y385412D03*
X-13000Y380412D03*
X-8000D03*
X-3000D03*
Y400412D03*
X-13000Y395412D03*
X-8000D03*
X-3000D03*
X-13000Y390412D03*
X-8000D03*
X-3000D03*
Y415413D03*
X-13000Y410412D03*
X-8000D03*
X-3000D03*
X-13000Y405412D03*
X-8000D03*
X-3000D03*
Y430412D03*
X-13000Y425412D03*
X-8000D03*
X-3000D03*
X-13000Y420413D03*
X-8000D03*
X-3000D03*
X-13000Y435412D03*
X-8000D03*
X-3000D03*
X2000Y85138D03*
X7000D03*
X12000D03*
X2000Y100138D03*
X7000D03*
X12000D03*
X2000Y95138D03*
Y90138D03*
X7000D03*
X12000D03*
X2000Y115138D03*
X7000D03*
X12000D03*
X2000Y110138D03*
Y105138D03*
X7000D03*
X12000D03*
X2000Y130138D03*
X7000D03*
X12000D03*
X2000Y125138D03*
Y120138D03*
X7000D03*
X12000D03*
X2000Y140138D03*
Y135138D03*
X7000D03*
X12000D03*
X7000Y240138D03*
X2000D03*
X12000D03*
X2000Y385412D03*
X7000D03*
X12000D03*
X2000Y380412D03*
Y400412D03*
X7000D03*
X12000D03*
X2000Y395412D03*
Y390412D03*
X7000D03*
X12000D03*
X2000Y415413D03*
X7000D03*
X12000D03*
X2000Y410412D03*
Y405412D03*
X7000D03*
X12000D03*
X2000Y430412D03*
X7000D03*
X12000D03*
X2000Y425412D03*
Y420413D03*
X7000D03*
X12000D03*
X2000Y435412D03*
X7000D03*
X12000D03*
X17000Y85138D03*
Y100138D03*
Y95138D03*
Y90138D03*
Y115138D03*
Y110138D03*
Y105138D03*
Y130138D03*
Y125138D03*
Y120138D03*
Y140138D03*
Y135138D03*
Y240138D03*
Y385412D03*
Y380412D03*
Y400412D03*
Y395412D03*
Y390412D03*
Y415413D03*
Y410412D03*
Y405412D03*
Y430412D03*
Y425412D03*
Y420413D03*
Y435412D03*
G54D22*
X8000Y253737D03*
G54D26*
X75030Y200305D03*
Y257805D03*
Y392745D03*
Y450245D03*
X94970Y220245D03*
Y277745D03*
Y372805D03*
Y430305D03*
X132530Y220245D03*
Y277745D03*
Y372805D03*
Y430305D03*
X152470Y200305D03*
Y257805D03*
Y392745D03*
Y450245D03*
X175050Y38285D03*
X175030Y133745D03*
X194950Y58265D03*
X194970Y113805D03*
X190030Y200305D03*
Y277745D03*
X185900Y325275D03*
X190123Y392837D03*
X190030Y450245D03*
X209970Y220245D03*
Y257805D03*
X209877Y372713D03*
X209970Y430305D03*
X219950Y78386D03*
X219699Y149147D03*
X214100Y325275D03*
X220384Y511587D03*
X240050Y98164D03*
X240301Y168403D03*
X243400Y325275D03*
X239616Y490963D03*
X247713Y220426D03*
X247530Y257805D03*
Y372805D03*
Y430305D03*
X267287Y200124D03*
X267470Y277745D03*
X271600Y325275D03*
X267470Y392745D03*
Y450245D03*
X305030Y162745D03*
Y220245D03*
Y277745D03*
Y335245D03*
Y372805D03*
Y430305D03*
X305530Y487274D03*
X324970Y142805D03*
Y200305D03*
Y257805D03*
Y315305D03*
Y392745D03*
Y450245D03*
X325470Y507214D03*
X362530Y142805D03*
Y200305D03*
Y257805D03*
Y315305D03*
Y392745D03*
Y450245D03*
X363030Y507214D03*
X382470Y162745D03*
Y220245D03*
Y277745D03*
Y335245D03*
Y372805D03*
Y430305D03*
X382970Y487274D03*
X239970Y580745D03*
G54D21*
X0Y336812D03*
G54D20*
X0Y295275D03*
%LPD*%
G75*
G36*
G01X28156Y69426D02*
X38021D01*
X63797Y43650D01*
X80234D01*
X82734Y41150D01*
X123234D01*
X129234Y35150D01*
X135311D01*
G02X135711Y34750I0J-400D01*
G02X135649Y34537I-400J0D01*
G03X135141Y32775I2801J-1762D01*
G03X138450Y29466I3309J0D01*
G01X141550D01*
G03X144859Y32775I0J3309D01*
G03X144351Y34537I-3309J0D01*
G02X144289Y34750I339J213D01*
G02X144689Y35150I400J0D01*
G01X152621D01*
X158805Y28966D01*
Y25928D01*
X161032Y23700D01*
G02X161150Y23418I-283J-283D01*
G02X160750Y23018I-400J0D01*
G01X159382D01*
X157550Y24850D01*
X131766D01*
X117766Y38850D01*
X57766D01*
X27873Y68743D01*
G02X27756Y69026I283J283D01*
G02X28156Y69426I400J0D01*
G37*
G36*
G01X33084Y73967D02*
X46424D01*
X58102Y62288D01*
X117595D01*
X139734Y40150D01*
X158327D01*
X158570Y39907D01*
Y38435D01*
X167855Y29150D01*
X305234D01*
X353650Y-19266D01*
Y-25650D01*
G02X353250Y-26050I-400J0D01*
G02X352948Y-25913I0J400D01*
G03X350817Y-24655I-2948J-2562D01*
G01X350759Y-24643D01*
X319574Y6542D01*
X306986D01*
G02X306586Y6942I0J400D01*
G02X306633Y7130I400J0D01*
G03X306850Y8000I-1633J870D01*
G03X306308Y9308I-1850J0D01*
G01X298619Y16998D01*
X277107D01*
G02X276707Y17398I0J400D01*
G02X276733Y17538I400J0D01*
G03X276850Y18187I-1733J649D01*
G03X276308Y19495I-1850J0D01*
G01X269953Y25850D01*
X164115D01*
X162505Y27460D01*
Y30499D01*
X154154Y38850D01*
X130766D01*
X124766Y44850D01*
X84266D01*
X81766Y47350D01*
X65329D01*
X39553Y73126D01*
X33208D01*
G02X32808Y73526I0J400D01*
G02X32925Y73809I400J0D01*
G01X33084Y73967D01*
G37*
%LPC*%
G75*
G36*
G01X91550Y54466D02*
X88450D01*
G02Y61084I0J3309D01*
G01X91550D01*
G02Y54466I0J-3309D01*
G37*
%LPD*%
G75*
G54D10*
X-34700Y225365D03*
Y237157D03*
Y248894D03*
X-18000Y50138D03*
Y60138D03*
Y70138D03*
Y85138D03*
Y75138D03*
Y100138D03*
Y95138D03*
Y90138D03*
Y115138D03*
Y110138D03*
Y105138D03*
Y130138D03*
Y125138D03*
Y120138D03*
Y145138D03*
Y140138D03*
Y135138D03*
Y160138D03*
Y155138D03*
Y150138D03*
X-16000D03*
X-18000Y175138D03*
Y170138D03*
Y165138D03*
X-16000D03*
X-18000Y190138D03*
Y185138D03*
Y180138D03*
X-16000D03*
X-18000Y205138D03*
Y200138D03*
Y195138D03*
X-16000D03*
X-18000Y220138D03*
Y215138D03*
Y210138D03*
X-16000D03*
X-24425Y219443D03*
X-29701Y214112D03*
X-18000Y235138D03*
Y230138D03*
Y225138D03*
X-16000D03*
X-26947Y225566D03*
X-20600Y237185D03*
X-27700Y237150D03*
X-27650Y248900D03*
X-18002Y250430D03*
X-15979Y261979D03*
X-20734Y266805D03*
X-29070Y258469D03*
X-24321Y253721D03*
X-18000Y355412D03*
Y350412D03*
Y345412D03*
X-16000Y355412D03*
X-18000Y370412D03*
Y365412D03*
Y360412D03*
X-16000Y370412D03*
X-18000Y385412D03*
Y380412D03*
Y375412D03*
Y400412D03*
Y395412D03*
Y390412D03*
Y415413D03*
Y410412D03*
Y405412D03*
Y430412D03*
Y425412D03*
Y420413D03*
Y445413D03*
Y435412D03*
X-16000Y455412D03*
X-18000Y460412D03*
Y455412D03*
Y450412D03*
X-16000Y470413D03*
X-18000Y475412D03*
Y470413D03*
Y465413D03*
X-16000Y485412D03*
X-18000Y490413D03*
Y485412D03*
Y480412D03*
X-16000Y500412D03*
X-18000Y505412D03*
Y500412D03*
Y495413D03*
Y520413D03*
Y530412D03*
Y540412D03*
X-13000Y55138D03*
X-8000Y50138D03*
X-3000Y55138D03*
Y65138D03*
X-8000Y60138D03*
X-13000Y65138D03*
X-8000Y70138D03*
X-13000Y85138D03*
X-8000D03*
X-3000D03*
X-8000Y75138D03*
X-13000Y100138D03*
X-8000D03*
X-3000D03*
X-13000Y95138D03*
X-8000D03*
X-3000D03*
Y90138D03*
X-13000Y115138D03*
X-8000D03*
X-3000D03*
X-13000Y110138D03*
X-8000D03*
X-3000D03*
Y105138D03*
X-13000Y130138D03*
X-8000D03*
X-3000D03*
X-13000Y125138D03*
X-8000D03*
X-3000D03*
Y120138D03*
X-13000Y145138D03*
X-8000D03*
X-3000D03*
X-13000Y140138D03*
X-8000D03*
X-3000D03*
Y135138D03*
X-500Y145138D03*
X-5500D03*
X-10500D03*
X-15500D03*
X-13000Y160138D03*
X-8000D03*
X-3000D03*
X-13000Y155138D03*
X-8000D03*
X-3000D03*
Y150138D03*
X-500Y160138D03*
X-5500D03*
X-10500D03*
X-15500D03*
X-500Y155138D03*
X-5500D03*
X-10500D03*
X-15500D03*
X-500Y150138D03*
X-5000D03*
X-13000Y175138D03*
X-8000D03*
X-3000D03*
X-13000Y170138D03*
X-8000D03*
X-3000D03*
Y165138D03*
X-10500Y175138D03*
X-15500D03*
X-500D03*
X-5500D03*
X-500Y165138D03*
Y170138D03*
X-5500D03*
X-10500D03*
X-15500D03*
X-5000Y165138D03*
X-13000Y190138D03*
X-8000D03*
X-3000D03*
X-13000Y185138D03*
X-8000D03*
X-3000D03*
Y180138D03*
X-500Y190138D03*
X-5500D03*
X-10500D03*
X-500Y185138D03*
X-5500D03*
X-10500D03*
X-15500D03*
X-500Y180138D03*
X-5000D03*
X-15500Y190138D03*
X-13000Y205138D03*
X-8000D03*
X-3000D03*
X-13000Y200138D03*
X-8000D03*
X-3000D03*
Y195138D03*
X-500D03*
Y200138D03*
X-5500D03*
X-15500D03*
X-10500D03*
X-500Y205138D03*
X-5500D03*
X-10500D03*
X-15500D03*
X-5000Y195138D03*
X-13000Y220138D03*
X-8000D03*
X-3000D03*
X-13000Y215138D03*
X-8000D03*
X-3000D03*
Y210138D03*
X-5000D03*
X-15500Y220138D03*
X-10500D03*
X-5500D03*
X-500D03*
Y215138D03*
X-5500D03*
X-10500D03*
X-15500D03*
X-500Y210138D03*
X-13000Y235138D03*
X-8000D03*
X-13000Y230138D03*
X-8000D03*
X-3000D03*
Y225138D03*
Y235138D03*
X-5000Y225138D03*
X-500Y230138D03*
X-5500D03*
X-10500D03*
X-15500D03*
X-500Y235138D03*
X-5500D03*
X-10500D03*
X-15500D03*
X-500Y225138D03*
X-3000Y240138D03*
X-8000D03*
Y245138D03*
X-2864Y265775D03*
X-11255Y257178D03*
X-9014Y278525D03*
X-3711Y273221D03*
X-3000Y345412D03*
Y350412D03*
Y355412D03*
X-8000Y345412D03*
Y350412D03*
X-13000Y345412D03*
Y350412D03*
X-5000Y355412D03*
X-500D03*
Y350412D03*
X-5500D03*
X-10500D03*
X-15500D03*
X-500Y345412D03*
X-5500D03*
X-10500D03*
X-15500D03*
X-3000Y370412D03*
X-13000Y365412D03*
X-8000D03*
X-3000D03*
X-13000Y360412D03*
X-8000D03*
X-3000D03*
X-5000Y370412D03*
X-500D03*
X-15500Y365412D03*
X-10500D03*
X-5500D03*
X-500D03*
Y360412D03*
X-5500D03*
X-10500D03*
X-15500D03*
X-3000Y385412D03*
X-13000Y380412D03*
X-8000D03*
X-3000D03*
X-13000Y375412D03*
X-8000D03*
X-3000D03*
X-15500D03*
X-10500D03*
X-5500D03*
X-500D03*
X-3000Y400412D03*
X-13000Y395412D03*
X-8000D03*
X-3000D03*
X-13000Y390412D03*
X-8000D03*
X-3000D03*
Y415413D03*
X-13000Y410412D03*
X-8000D03*
X-3000D03*
X-13000Y405412D03*
X-8000D03*
X-3000D03*
Y430412D03*
X-13000Y425412D03*
X-8000D03*
X-3000D03*
X-13000Y420413D03*
X-8000D03*
X-3000D03*
X-13000Y445413D03*
X-8000D03*
X-3000D03*
X-13000Y435412D03*
X-8000D03*
X-3000D03*
X-15500Y445413D03*
X-10500D03*
X-5500D03*
X-500D03*
X-5000Y455412D03*
X-500D03*
Y450412D03*
X-5500D03*
X-10500D03*
X-15500D03*
Y460412D03*
X-10500D03*
X-5500D03*
X-500D03*
X-13000D03*
X-8000D03*
X-3000D03*
Y455412D03*
X-13000Y450412D03*
X-8000D03*
X-3000D03*
X-500Y465413D03*
X-5500D03*
X-10500D03*
X-15500D03*
Y475412D03*
X-10500D03*
X-5500D03*
X-500D03*
X-5000Y470413D03*
X-500D03*
X-13000Y475412D03*
X-8000D03*
X-3000D03*
Y470413D03*
X-13000Y465413D03*
X-8000D03*
X-3000D03*
X-5000Y485412D03*
X-500Y480412D03*
X-5500D03*
X-10500D03*
X-15500D03*
Y490413D03*
X-10500D03*
X-5500D03*
X-500D03*
Y485412D03*
X-13000Y490413D03*
X-8000D03*
X-3000D03*
Y485412D03*
X-13000Y480412D03*
X-8000D03*
X-3000D03*
X-5000Y500412D03*
X-500D03*
Y495413D03*
X-5500D03*
X-10500D03*
X-15500D03*
X-500Y505412D03*
X-5500D03*
X-10500D03*
X-15500D03*
X-13000D03*
X-8000D03*
X-3000D03*
Y500412D03*
X-13000Y495413D03*
X-8000D03*
X-3000D03*
X-8000Y520413D03*
X-13000Y535412D03*
Y525412D03*
X-3000D03*
Y535412D03*
X-8000Y530412D03*
Y540412D03*
X2000Y50138D03*
X7000Y55138D03*
X12000Y50138D03*
X7000Y65138D03*
X12000Y60138D03*
X2000Y70138D03*
X12000D03*
X2000Y60138D03*
Y85138D03*
X7000D03*
X12000D03*
X2000Y100138D03*
X7000D03*
X12000D03*
X2000Y95138D03*
Y90138D03*
X7000D03*
X12000D03*
X2000Y115138D03*
X7000D03*
X12000D03*
X2000Y110138D03*
Y105138D03*
X7000D03*
X12000D03*
X2000Y130138D03*
X7000D03*
X12000D03*
X2000Y125138D03*
Y120138D03*
X7000D03*
X12000D03*
X2000Y145138D03*
X7000D03*
X12000D03*
X2000Y140138D03*
Y135138D03*
X7000D03*
X12000D03*
X14500Y145138D03*
X9500D03*
X4500D03*
X2000Y160138D03*
X7000D03*
X12000D03*
X2000Y155138D03*
Y150138D03*
X7000D03*
X12000D03*
X14500Y160138D03*
X9500D03*
X4500D03*
Y150138D03*
X9500D03*
X14500D03*
X4000Y155138D03*
X2000Y175138D03*
X7000D03*
X12000D03*
X2000Y170138D03*
Y165138D03*
X7000D03*
X12000D03*
X14500Y175138D03*
X9500D03*
X4500D03*
X14500Y165138D03*
X9500D03*
X4500D03*
X4000Y170138D03*
X2000Y190138D03*
X7000D03*
X12000D03*
X2000Y185138D03*
Y180138D03*
X7000D03*
X12000D03*
X14500Y190138D03*
X9500D03*
X4500D03*
X14500Y180138D03*
X9500D03*
X4500D03*
X4000Y185138D03*
X2000Y205138D03*
X7000D03*
X12000D03*
X2000Y200138D03*
Y195138D03*
X7000D03*
X12000D03*
X4500D03*
X9500D03*
X14500D03*
Y205138D03*
X9500D03*
X4500D03*
X4000Y200138D03*
X2000Y220138D03*
X7000D03*
X12000D03*
X2000Y215138D03*
Y210138D03*
X7000D03*
X12000D03*
X4000Y215138D03*
X4500Y220138D03*
X9500D03*
X14500D03*
X4500Y210138D03*
X9500D03*
X14500D03*
X2000Y235138D03*
X7000D03*
X12000D03*
X2000Y230138D03*
Y225138D03*
X7000D03*
X12000D03*
X4000Y230138D03*
X14500Y235138D03*
X9500D03*
X4500D03*
Y225138D03*
X9500D03*
X14500D03*
X7000Y240138D03*
X2000D03*
X12000D03*
X3630Y265775D03*
X12879Y275721D03*
X8279Y280421D03*
X3737Y273275D03*
X12000Y345412D03*
X7000D03*
X2000D03*
Y350412D03*
Y355412D03*
X7000D03*
X12000D03*
X4000Y350412D03*
X4500Y355412D03*
X9500D03*
X14500D03*
Y345412D03*
X9500D03*
X4500D03*
X2000Y370412D03*
X7000D03*
X12000D03*
X2000Y365412D03*
Y360412D03*
X7000D03*
X12000D03*
X4000Y365412D03*
X14500Y370412D03*
X9500D03*
X4500D03*
X14500Y360412D03*
X9500D03*
X4500D03*
X2000Y385412D03*
X7000D03*
X12000D03*
X2000Y380412D03*
Y375412D03*
X7000D03*
X12000D03*
X4500D03*
X9500D03*
X14500D03*
X2000Y400412D03*
X7000D03*
X12000D03*
X2000Y395412D03*
Y390412D03*
X7000D03*
X12000D03*
X2000Y415413D03*
X7000D03*
X12000D03*
X2000Y410412D03*
Y405412D03*
X7000D03*
X12000D03*
X2000Y430412D03*
X7000D03*
X12000D03*
X2000Y425412D03*
Y420413D03*
X7000D03*
X12000D03*
X2000Y445413D03*
X7000D03*
X12000D03*
X2000Y435412D03*
X7000D03*
X12000D03*
X4500Y445413D03*
X9500D03*
X14500D03*
X4000Y450412D03*
X4500Y455412D03*
X14500D03*
X9500D03*
X4500Y460412D03*
X9500D03*
X14500D03*
X2000D03*
X7000D03*
X12000D03*
X2000Y455412D03*
X7000D03*
X12000D03*
X2000Y450412D03*
X14500Y470413D03*
X9500D03*
X4000Y465413D03*
X4500Y475412D03*
X9500D03*
X14500D03*
X4500Y470413D03*
X2000Y475412D03*
X7000D03*
X12000D03*
X2000Y470413D03*
X7000D03*
X12000D03*
X2000Y465413D03*
X4000Y480412D03*
X14500Y485412D03*
X4500Y490413D03*
X9500D03*
X14500D03*
X4500Y485412D03*
X9500D03*
X2000Y490413D03*
X7000D03*
X12000D03*
X2000Y485412D03*
X7000D03*
X12000D03*
X2000Y480412D03*
X9500Y500412D03*
X4000Y495413D03*
X4500Y500412D03*
X14500D03*
Y505412D03*
X9500D03*
X4500D03*
X2000D03*
X7000D03*
X12000D03*
X2000Y500412D03*
X7000D03*
X12000D03*
X2000Y495413D03*
Y520413D03*
X12000D03*
Y530412D03*
X2000D03*
X7000Y535412D03*
Y525412D03*
X2000Y540412D03*
X12000D03*
X17000Y55138D03*
Y65138D03*
Y85138D03*
X26670Y77977D03*
X17000Y100138D03*
Y95138D03*
Y90138D03*
X25276Y99241D03*
X25196Y87675D03*
X17000Y115138D03*
Y110138D03*
Y105138D03*
X25304Y110995D03*
X17000Y130138D03*
Y125138D03*
Y120138D03*
X25304Y122749D03*
X17000Y145138D03*
Y140138D03*
Y135138D03*
X25276Y134638D03*
X29100Y145180D03*
X20500Y141138D03*
X17000Y160138D03*
Y155138D03*
Y150138D03*
X15000Y155138D03*
X24700Y156438D03*
Y148738D03*
X17000Y175138D03*
Y170138D03*
Y165138D03*
X15000Y170138D03*
X22700Y171438D03*
X23300Y163938D03*
X17000Y190138D03*
Y185138D03*
Y180138D03*
X26517Y186434D03*
Y178934D03*
X15000Y185138D03*
X17000Y205138D03*
Y200138D03*
Y195138D03*
X27003Y201369D03*
Y193870D03*
X15000Y200138D03*
X17000Y220138D03*
Y215138D03*
Y210138D03*
X15000Y215138D03*
X25187Y219410D03*
X17000Y235138D03*
Y230138D03*
Y225138D03*
X15000Y230138D03*
X25287Y232410D03*
X17000Y240138D03*
X25700Y241400D03*
X18506Y250297D03*
X25506Y249555D03*
X29113Y254952D03*
X26000Y259666D03*
X18506Y259712D03*
X24379Y278021D03*
X18500Y269940D03*
X26006Y270055D03*
X28379Y288121D03*
X22179Y291021D03*
X19679Y282621D03*
X14979Y287121D03*
X27324Y310163D03*
X26379Y299721D03*
X21749Y304588D03*
X22233Y342178D03*
X17000Y355412D03*
Y350412D03*
Y345412D03*
X15000Y350412D03*
X27033Y346910D03*
X17000Y370412D03*
Y365412D03*
Y360412D03*
X15000Y365412D03*
X27845Y364021D03*
X23517Y359422D03*
X24740Y376966D03*
X28543Y384283D03*
X21043D03*
X17000Y385412D03*
Y380412D03*
Y375412D03*
X28515Y392966D03*
X21015D03*
X28543Y401563D03*
X21043D03*
X17000Y400412D03*
Y395412D03*
Y390412D03*
Y415413D03*
Y410412D03*
Y405412D03*
X28684Y429386D03*
X21184D03*
X17000Y430412D03*
Y425412D03*
Y420413D03*
X23261Y420427D03*
X28656Y438012D03*
X21156D03*
X28656Y447061D03*
X21156D03*
X17000Y445413D03*
Y435412D03*
X27189Y461666D03*
Y454166D03*
X15000Y450412D03*
X17000Y460412D03*
Y455412D03*
Y450412D03*
X15000Y465413D03*
X17000Y475412D03*
Y470413D03*
Y465413D03*
X24200Y471812D03*
Y464313D03*
X15000Y480412D03*
X17000Y490413D03*
Y485412D03*
Y480412D03*
X23900Y486712D03*
Y479312D03*
X25756Y502773D03*
X20453Y508076D03*
X28008Y502297D03*
X15000Y495413D03*
X17000Y505412D03*
Y500412D03*
Y495413D03*
X24000Y494113D03*
X17000Y525412D03*
Y535412D03*
X35988Y68764D03*
X44332Y60394D03*
X32948Y82344D03*
X42203Y72857D03*
X32776Y99241D03*
X32696Y87675D03*
X40428Y92231D03*
X32804Y110995D03*
X40617Y121347D03*
X32804Y122749D03*
X40562Y133128D03*
X32776Y134638D03*
X42465Y142368D03*
X37161Y137065D03*
X31931Y155559D03*
X37235Y160862D03*
X40261Y147148D03*
X34404Y150483D03*
X32987Y171336D03*
Y163836D03*
X33473Y186434D03*
Y178934D03*
X40975Y188685D03*
X35672Y193989D03*
X43894Y202320D03*
X38913Y202965D03*
X31413D03*
X40913Y212965D03*
X32687Y219410D03*
X40913Y223065D03*
X32787Y232410D03*
X40187Y250610D03*
X34510Y249743D03*
X32800Y241435D03*
X38300Y259823D03*
X30800Y259904D03*
X38300Y271698D03*
X30800Y271644D03*
X41700Y283260D03*
X34768Y283486D03*
X35572Y290747D03*
X41754Y287565D03*
X41021Y296579D03*
X30879Y295321D03*
X36521Y300979D03*
X32221Y305279D03*
X39068Y325635D03*
X43987Y315781D03*
X39971Y313179D03*
X35152Y317991D03*
X30653Y333758D03*
X44318Y340270D03*
X35893Y355973D03*
X31429Y351374D03*
X44388Y347770D03*
X32732Y368988D03*
X40724Y361025D03*
X38035Y374291D03*
X30044Y382269D03*
X39423Y411038D03*
Y403539D03*
X30064Y411010D03*
Y403510D03*
X39113Y425950D03*
Y418451D03*
X29923Y425923D03*
Y418423D03*
X34603Y461666D03*
Y454166D03*
X43426Y471702D03*
Y464202D03*
X31671Y471674D03*
Y464174D03*
X37060Y489171D03*
X43172Y486684D03*
Y479184D03*
X31445Y486670D03*
Y479170D03*
X39512Y503167D03*
X33311Y496994D03*
X42782Y506437D03*
X31757Y494474D03*
X43163Y495274D03*
X37860Y500577D03*
X34209Y508470D03*
X32409Y509369D03*
X37479Y511740D03*
X58728Y46025D03*
X51584Y53196D03*
X49636Y65697D03*
X56888Y58499D03*
X49702Y81450D03*
X49891Y95576D03*
X49702Y88950D03*
X47928Y92231D03*
X49648Y111590D03*
X49891Y103077D03*
X49648Y119091D03*
X48116Y121347D03*
X57003Y130460D03*
X48062Y133128D03*
X48645Y138817D03*
X53949Y144120D03*
X45565Y152451D03*
X57400Y158538D03*
X57600Y151738D03*
X45335Y171196D03*
X57197D03*
X57400Y164738D03*
X45500Y164238D03*
X45335Y178696D03*
X57197D03*
X57035Y186860D03*
X52944Y183509D03*
X47641Y188813D03*
X49197Y197016D03*
X57527Y205265D03*
X57035Y194360D03*
X52224Y210569D03*
X48413Y212965D03*
X51427Y234124D03*
Y226624D03*
X48413Y223065D03*
X48732Y248412D03*
Y240912D03*
X55903Y248412D03*
Y240912D03*
X49783Y251911D03*
X47687Y250610D03*
X49783Y259412D03*
X55444Y263154D03*
Y270653D03*
X46818Y276657D03*
X54317D03*
X46868Y270128D03*
X55929Y290280D03*
Y282780D03*
X55504Y292121D03*
X46082Y291453D03*
X48982Y288287D03*
X55367Y308166D03*
X55504Y299621D03*
X45500Y307516D03*
X45733Y299601D03*
X55367Y315666D03*
X55549Y324211D03*
X55720Y331711D03*
X55793Y339733D03*
X48472Y357336D03*
X55941Y347756D03*
X46027Y366328D03*
X48472Y364836D03*
X50642Y411010D03*
Y403510D03*
X50389Y425923D03*
Y418423D03*
X56510Y443126D03*
X48166Y451526D03*
X53469Y456829D03*
X59353Y458986D03*
X45776Y454160D03*
Y461660D03*
X59353Y466486D03*
X55018Y472085D03*
X54842Y486642D03*
Y479142D03*
X51450Y503562D03*
X48223Y511821D03*
X46147Y508865D03*
X59724Y511835D03*
X67360Y48998D03*
Y41498D03*
X64032Y51328D03*
X62319Y81450D03*
X60566Y95604D03*
X62319Y88950D03*
X60863Y111644D03*
X60566Y103104D03*
X71248Y107436D03*
X63748D03*
X60863Y119144D03*
X74653Y124038D03*
Y116538D03*
X65252Y122237D03*
X70556Y127540D03*
X62307Y135763D03*
X71781Y159098D03*
Y151597D03*
X68951Y171224D03*
X64500Y164738D03*
X70500Y164838D03*
X68951Y178724D03*
X68897Y186806D03*
Y194306D03*
X65911Y213595D03*
X60608Y218899D03*
X62696Y234070D03*
Y226570D03*
X74323Y222033D03*
X69020Y227337D03*
X62912Y248412D03*
Y240912D03*
X61402Y251966D03*
X63487Y237510D03*
X70987D03*
X61402Y259466D03*
X62939Y263180D03*
Y270680D03*
X65257Y290280D03*
Y282780D03*
X67206Y292121D03*
X67137Y308166D03*
X67206Y299621D03*
X67137Y315666D03*
X67249Y324211D03*
X67092Y331561D03*
X67429Y339733D03*
X71840Y357280D03*
X60170Y357308D03*
X67503Y347756D03*
X71840Y365154D03*
X60029D03*
X69896Y414925D03*
X62396D03*
X61805Y411038D03*
Y403539D03*
X73112Y426607D03*
X61861Y425950D03*
Y418451D03*
X64796Y434866D03*
X70100Y440169D03*
X61813Y448429D03*
X71051Y459015D03*
X72348Y471840D03*
X71051Y466515D03*
X60969Y471980D03*
X69530Y490613D03*
X62030D03*
X72348Y479340D03*
X60579Y486656D03*
Y479156D03*
X69502Y498985D03*
X62002D03*
X71051Y504369D03*
X69530Y506878D03*
X62030D03*
X70234Y509840D03*
X82024Y39320D03*
X89000Y39212D03*
X82024Y51130D03*
X89000Y45275D03*
X77335Y48998D03*
Y41498D03*
X89100Y51713D03*
X89000Y85275D03*
X82024Y79320D03*
X76014Y81504D03*
X89000Y79212D03*
X82024Y91130D03*
X76014Y89004D03*
X89100Y91712D03*
X88474Y114369D03*
Y126180D03*
X84358Y124010D03*
Y116510D03*
X88474Y149370D03*
Y161181D03*
X83859Y159044D03*
Y151544D03*
X80786Y171224D03*
Y178724D03*
X80705Y186780D03*
X89950Y205325D03*
X80050D03*
X85000Y203204D03*
X80705Y194280D03*
X80050Y215225D03*
X89950D03*
X85000Y217346D03*
X77929Y210275D03*
X82678Y230416D03*
X77375Y235720D03*
X86164Y244508D03*
X89950Y262825D03*
X80050D03*
X85000Y260704D03*
X80050Y272725D03*
X89950D03*
X77929Y267775D03*
X85000Y274846D03*
X86717Y290306D03*
Y282806D03*
X74935Y290306D03*
Y282806D03*
X79010Y292121D03*
X78942Y308166D03*
X79010Y299621D03*
X78942Y315666D03*
X78723Y323964D03*
X78517Y331610D03*
X78549Y339733D03*
X83511Y357308D03*
X78623Y347756D03*
X78754Y355778D03*
X83511Y364808D03*
X80050Y377825D03*
X89950D03*
X85000Y375704D03*
X77929Y382775D03*
X89950Y387725D03*
X80050D03*
X85000Y389846D03*
X87714Y412033D03*
X81400Y418291D03*
X86704Y423594D03*
X78416Y431910D03*
X80050Y435325D03*
X89950Y445225D03*
Y435325D03*
X80050Y445225D03*
X85000Y447346D03*
X77929Y440275D03*
X85000Y433204D03*
X82736Y459001D03*
Y466500D03*
X84046Y471812D03*
Y479312D03*
X88574Y491869D03*
X78551Y504369D03*
X81819Y501526D03*
Y494026D03*
X88574Y503680D03*
X82124Y601820D03*
X89000Y607775D03*
Y601712D03*
X104300Y39212D03*
X97000D03*
X93000Y45275D03*
X100000D03*
X104000D03*
X96900Y51713D03*
X103900D03*
X97025Y60275D03*
Y70275D03*
X93000Y85275D03*
X100000D03*
X104000D03*
X104300Y79212D03*
X97000D03*
X97025Y100275D03*
X96900Y91712D03*
X103900D03*
X97025Y110275D03*
X95400Y114112D03*
X97025Y130275D03*
X95500Y120275D03*
X99500D03*
X95600Y126512D03*
X105000D03*
X97025Y145275D03*
X99500Y155275D03*
X95500D03*
X95700Y161512D03*
X105000Y161612D03*
Y149112D03*
X95600D03*
X97025Y165275D03*
X104186Y171224D03*
X92513Y178724D03*
X104186D03*
X92513Y186834D03*
X104267Y186780D03*
X92513Y194334D03*
X104267Y194280D03*
X102276Y207457D03*
X102195Y213226D03*
X94080Y207431D03*
X93999Y213200D03*
X95209Y248682D03*
Y241182D03*
X91467Y239204D03*
X97235Y264880D03*
X97154Y270649D03*
X98390Y290280D03*
Y282780D03*
X102551Y292121D03*
X90712D03*
X102483Y308166D03*
X90609D03*
X102551Y299621D03*
X90712D03*
X102483Y315666D03*
X90609D03*
X90514Y324211D03*
X102349D03*
X90700Y331711D03*
X102335D03*
X102483Y339733D03*
X91128Y339521D03*
X91742Y357308D03*
X100001Y357322D03*
X91215Y347756D03*
X102554Y347490D03*
X91278Y355778D03*
X102744D03*
X91742Y364808D03*
X100001Y364822D03*
X101777Y402382D03*
X93018Y417336D03*
X93972Y405775D03*
X99276Y411078D03*
X101777Y409882D03*
X94448Y459001D03*
Y466500D03*
X95745Y471827D03*
Y479327D03*
X97025Y487775D03*
X104700Y491713D03*
X95100Y491612D03*
X97025Y507775D03*
X95500Y497775D03*
X99500D03*
X95500Y504012D03*
X104900D03*
X99500Y532775D03*
X95500D03*
Y526312D03*
X104800Y526712D03*
X93000Y607775D03*
X100000D03*
X104000D03*
X97000Y601712D03*
X104300D03*
X96900Y614212D03*
X103900D03*
X112500Y45275D03*
X117500D03*
X106200Y55712D03*
X117025Y60275D03*
X112975D03*
X117025Y70275D03*
X112975D03*
X115000Y56275D03*
Y74275D03*
X112500Y85275D03*
X117500D03*
X106400Y75212D03*
X117025Y100275D03*
X112975D03*
X115000Y96275D03*
X106200Y95712D03*
X112975Y110275D03*
X117025D03*
X118000Y116176D03*
X114500Y114212D03*
X105100Y114112D03*
X117025Y130275D03*
X112975D03*
X118000Y124374D03*
X106500Y120275D03*
X110500D03*
X114400Y126612D03*
X117025Y145275D03*
X112975D03*
X118000Y151176D03*
Y159374D03*
X106500Y155275D03*
X110500D03*
X114400Y161612D03*
X114600Y149012D03*
X112975Y165275D03*
X117025D03*
X115940Y171251D03*
Y178750D03*
X116021Y186860D03*
Y194360D03*
X113249Y214921D03*
X105749D03*
X117885Y213200D03*
X117966Y207431D03*
X113999Y234960D03*
Y227461D03*
X113222Y223198D03*
X105722D03*
X119067Y248682D03*
Y241182D03*
X107286Y248682D03*
Y241182D03*
X108342Y264907D03*
X108261Y270676D03*
X110468Y277116D03*
X117968D03*
X110279Y290252D03*
Y282752D03*
X114253Y292121D03*
X114184Y308166D03*
X114253Y299621D03*
X114184Y315666D03*
X114117Y324211D03*
X113897Y331711D03*
X113971Y339733D03*
X105830Y357322D03*
X114072Y347925D03*
X114098Y355778D03*
X110488Y365043D03*
X117988D03*
X110506Y372465D03*
X118006D03*
X105830Y364822D03*
X110471Y379765D03*
X117971D03*
X113462Y402355D03*
Y409855D03*
X105727Y422548D03*
X113227D03*
X105744Y430005D03*
X113244D03*
X105744Y437322D03*
X113244D03*
X117831Y458986D03*
X106147Y458973D03*
X117831Y466486D03*
X106147Y466473D03*
X119170Y471840D03*
X107472Y471854D03*
X119170Y479340D03*
X107472Y479354D03*
X112975Y487775D03*
X114000Y491612D03*
X112975Y507775D03*
X117025D03*
X118000Y493676D03*
Y501874D03*
X106500Y497775D03*
X110500D03*
X114100Y504012D03*
X118000Y528676D03*
X110500Y532775D03*
X106500D03*
X114600Y526612D03*
X112500Y607775D03*
X117500D03*
X112975Y622775D03*
X117025D03*
X115000Y618775D03*
X106200Y618212D03*
X132975Y30275D03*
X134000Y44306D03*
X130000D03*
X132975Y60275D03*
Y70275D03*
X130000Y84306D03*
X134000D03*
X132975Y100275D03*
Y110275D03*
Y130275D03*
X133500Y119775D03*
X129000D03*
X132975Y145275D03*
X133500Y154806D03*
X129500D03*
X132975Y165275D03*
X127748Y171224D03*
Y178724D03*
X127829Y186834D03*
Y194334D03*
X129424Y207431D03*
X129343Y213200D03*
X125861Y234960D03*
Y227461D03*
X130848Y248682D03*
Y241182D03*
X120958Y264934D03*
X131419Y264907D03*
X120877Y270703D03*
X131338Y270676D03*
X126092Y292121D03*
X133090Y284914D03*
X126126Y308166D03*
X126092Y299621D03*
X131038Y297570D03*
X126126Y315666D03*
X126223Y324211D03*
X125974Y331711D03*
X125901Y339733D03*
X125974Y347756D03*
X125926Y355778D03*
X125146Y402341D03*
X134322Y414644D03*
X125146Y409840D03*
X121858Y414750D03*
X134322Y422144D03*
X121858Y422250D03*
X129515Y458986D03*
Y466486D03*
X130854Y471827D03*
Y479327D03*
X132975Y507775D03*
X133500Y497306D03*
X129500D03*
X133500Y532275D03*
X129500D03*
X130000Y606806D03*
X134000D03*
X132975Y622775D03*
X146983Y28631D03*
X147038Y39319D03*
X147581Y51229D03*
X147352Y45200D03*
X143506Y85312D03*
X143481Y91430D03*
X142981Y126830D03*
X142968Y120765D03*
X142475Y155796D03*
X142481Y161830D03*
X139502Y178750D03*
X139610Y186834D03*
X137550Y205325D03*
X147450D03*
X142500Y203204D03*
X139610Y194334D03*
X147450Y215225D03*
X137550D03*
X142500Y217346D03*
X149571Y210275D03*
X137588Y234934D03*
Y227434D03*
X149396Y234960D03*
Y227461D03*
X142575Y248682D03*
Y241182D03*
X147450Y262825D03*
X137640Y263065D03*
X142500Y260704D03*
X147450Y272725D03*
X137550D03*
X142500Y274846D03*
X149571Y267775D03*
X140102Y282744D03*
X140175Y290244D03*
X149667Y308166D03*
X137828D03*
X140776Y300024D03*
X149667Y315666D03*
X137828D03*
X137788Y324211D03*
X149556D03*
X137684Y331711D03*
X149466D03*
X149614Y339733D03*
X137684D03*
Y347756D03*
X146792Y349078D03*
X135314Y356965D03*
X140694Y351273D03*
X149105Y366926D03*
X143674Y364859D03*
X148978Y359556D03*
X147450Y377825D03*
X137550D03*
X149571Y382775D03*
X142500Y375704D03*
X148543Y402355D03*
X136845D03*
X137550Y387725D03*
X147450D03*
X142500Y389846D03*
X146838Y414631D03*
X148543Y409855D03*
X136845D03*
X146838Y422130D03*
X137550Y445225D03*
X147450Y435325D03*
X137550D03*
X147450Y445225D03*
X149571Y440275D03*
X142500Y447346D03*
Y433204D03*
X140960Y458973D03*
Y466473D03*
X142539Y471827D03*
Y479327D03*
X143081Y504330D03*
X143080Y498314D03*
X149369Y533288D03*
X148936Y526872D03*
X149381Y539230D03*
X143382Y607824D03*
X149893Y607769D03*
X143381Y613830D03*
X149908Y613794D03*
X155281Y26930D03*
X163527Y27806D03*
X163504Y39329D03*
X153010Y39302D03*
Y28614D03*
X157532Y27917D03*
X157478Y39374D03*
X163281Y51229D03*
X163342Y45310D03*
X155690Y85285D03*
X155681Y91430D03*
X159381Y102230D03*
X150940Y104818D03*
X161490Y105807D03*
X156938Y104800D03*
X151681Y126730D03*
X150832Y119050D03*
X161490Y119379D03*
X156910Y119031D03*
X154289Y155796D03*
X151229Y171251D03*
X163037Y171224D03*
X154281Y161730D03*
X151229Y178750D03*
X163037Y178724D03*
X151445Y186780D03*
X160638Y186834D03*
X151445Y194280D03*
X160638Y194334D03*
X161177Y234934D03*
Y227434D03*
X154303Y248656D03*
Y241156D03*
X163546Y291344D03*
X151809Y291418D03*
X163758Y282744D03*
X151923D03*
X163531Y306344D03*
Y298844D03*
X154036Y304566D03*
X159339Y309869D03*
X161048Y323886D03*
X161256Y316189D03*
X160833Y331543D03*
X160805Y339736D03*
X153419Y355706D03*
X159282Y350526D03*
X159442Y358330D03*
X159482Y367044D03*
X160242Y402341D03*
X159297Y414660D03*
X160242Y409840D03*
X161707Y427131D03*
X159297Y422160D03*
X161679Y438914D03*
X161707Y458252D03*
X161678Y450612D03*
X153659Y458973D03*
Y466473D03*
X154237Y471827D03*
Y479327D03*
X154781Y504330D03*
X154784Y498314D03*
X156295Y508809D03*
X164482Y533288D03*
X157974Y527202D03*
X163974Y527185D03*
X154934Y526856D03*
X164471Y539396D03*
X150534Y597829D03*
X156248D03*
X160534D03*
X180040Y53215D03*
X180060Y43315D03*
X176581Y51329D03*
X176749Y45364D03*
X167722Y85242D03*
X179812Y85298D03*
X167681Y91430D03*
X179781Y91330D03*
X167600Y105790D03*
X180050Y118825D03*
Y128725D03*
X167581Y126830D03*
X177081D03*
X167406Y119471D03*
X177173Y120820D03*
X165964Y155794D03*
X177695D03*
X174764Y171196D03*
X165981Y161830D03*
X177681D03*
X174764Y178696D03*
X173772Y194513D03*
X166272D03*
X173798Y204515D03*
X166298D03*
X173798Y214571D03*
X166298D03*
X173798Y226352D03*
X166298D03*
X177730Y248628D03*
Y241128D03*
X166030Y248682D03*
Y241182D03*
X175329Y291344D03*
X175391Y282744D03*
X175164Y306344D03*
Y298844D03*
X176383Y310175D03*
X166528Y316337D03*
X171821Y321650D03*
X176362Y317675D03*
X171580Y335829D03*
X176897Y330540D03*
X179070Y350989D03*
X167288Y350768D03*
X179079Y344001D03*
X179451Y358384D03*
X179512Y367044D03*
X168128Y366939D03*
X168093Y358543D03*
X171940Y402355D03*
Y409855D03*
X169207Y427131D03*
X169179Y438914D03*
X169207Y458252D03*
X169178Y450612D03*
X177634Y471827D03*
X165922Y471840D03*
X177634Y479327D03*
X165922Y479340D03*
X166581Y504330D03*
X178481D03*
X166568Y498312D03*
X178547Y498338D03*
X179928Y531451D03*
X175334Y533342D03*
X180176Y541347D03*
X175281Y539330D03*
X166221Y597788D03*
X179964Y605912D03*
X167477Y607852D03*
X175664Y607743D03*
X180138Y615810D03*
X175681Y613830D03*
X167494Y613796D03*
X180413Y27642D03*
X189960Y43335D03*
X189940Y53235D03*
X185014Y41204D03*
X184986Y55346D03*
X192071Y48289D03*
X191597Y85270D03*
X191581Y91330D03*
X189950Y128725D03*
Y118825D03*
X185000Y130846D03*
X192071Y123775D03*
X185000Y116704D03*
X189262Y155850D03*
X186545Y171196D03*
X189281Y161830D03*
X186545Y178696D03*
X195050Y205325D03*
X192929Y210275D03*
X195180Y215025D03*
X189511Y248656D03*
Y241156D03*
X195050Y262825D03*
Y272725D03*
X192929Y267775D03*
X187084Y291544D03*
X187158Y282744D03*
X187072Y306344D03*
Y298844D03*
X187074Y310175D03*
X195000Y320275D03*
X193000Y325275D03*
X195000Y330275D03*
X190780Y350915D03*
X191074Y344054D03*
X191021Y358596D03*
X191148Y367044D03*
X195004Y377871D03*
X192929Y382841D03*
X195281Y402355D03*
X183610D03*
X195096Y387770D03*
X195281Y409855D03*
X183610D03*
X195050Y435325D03*
Y445225D03*
X192929Y440275D03*
X189319Y471827D03*
Y479327D03*
X190181Y504330D03*
X190223Y498312D03*
X189824Y531203D03*
X184822Y529206D03*
X192069Y536098D03*
X190072Y541099D03*
X185178Y543344D03*
X189862Y605740D03*
X184877Y603705D03*
X192070Y610652D03*
X190036Y615638D03*
X185123Y617845D03*
X203385Y85298D03*
X203381Y91330D03*
X200773Y155658D03*
X198300Y171251D03*
X210081Y171196D03*
X200781Y161730D03*
X198300Y178750D03*
X210081Y178696D03*
X204950Y205325D03*
X200000Y203204D03*
X204950Y215225D03*
X200000Y217346D03*
X201238Y248668D03*
Y241168D03*
X204950Y262825D03*
X200000Y260704D03*
X204950Y272725D03*
X200000Y274846D03*
X198839Y291344D03*
X198926Y282744D03*
X210435Y282351D03*
X198773Y306344D03*
Y298844D03*
X198780Y310175D03*
X205000Y320275D03*
X207000Y325275D03*
X200000Y318275D03*
Y332275D03*
X205633Y334996D03*
X208652Y336074D03*
X209358Y330075D03*
X202636Y350915D03*
X202803Y343895D03*
X202697Y358755D03*
X202783Y366950D03*
X204995Y387679D03*
X204904Y377780D03*
X199934Y375704D03*
X204259Y402369D03*
X200066Y389846D03*
X204259Y409869D03*
X204950Y445225D03*
Y435325D03*
X200000Y447346D03*
Y433204D03*
X201017Y471827D03*
Y479327D03*
X201981Y504330D03*
X201943Y498300D03*
X216176Y27539D03*
X225010Y83365D03*
X214373Y85352D03*
X222697Y85324D03*
X225090Y93264D03*
X214381Y91330D03*
X222681D03*
X224886Y153995D03*
X211763Y155794D03*
X222065D03*
X225220Y163889D03*
X221889Y171170D03*
X211781Y161830D03*
X222081D03*
X221889Y178670D03*
X222755Y207565D03*
X222674Y213334D03*
X210678Y207511D03*
X210597Y213280D03*
X212979Y248682D03*
Y241182D03*
X222245Y246890D03*
X211810Y264907D03*
X222674Y264934D03*
X216941Y252193D03*
X223541Y258793D03*
X211729Y270676D03*
X222593Y270703D03*
X222404Y291344D03*
X210594D03*
X222529Y282744D03*
X222383Y306344D03*
Y298844D03*
X210613Y306344D03*
Y298844D03*
X210582Y310175D03*
X222362D03*
X224502Y317586D03*
X224300Y323284D03*
X220362Y336075D03*
X224463Y330204D03*
X220362Y330075D03*
X214419Y350768D03*
X214426Y344001D03*
X214373Y358702D03*
X214271Y367044D03*
X213767Y402136D03*
X220279Y395607D03*
X225582Y400910D03*
X219070Y407439D03*
X221511Y471827D03*
X211659Y471756D03*
X221511Y479327D03*
X211659Y479256D03*
X224881Y496501D03*
X225226Y506394D03*
X213681Y504330D03*
X223381D03*
X213729Y498328D03*
X223357Y498338D03*
X225050Y565825D03*
X213933Y567796D03*
X225050Y575725D03*
X215481Y573830D03*
X234910Y83286D03*
X229943Y81204D03*
X234990Y93185D03*
X230057Y95346D03*
X237071Y88218D03*
X234780Y153661D03*
X229762Y151708D03*
X237067Y158536D03*
X235114Y163555D03*
X230238Y165842D03*
X228035Y171224D03*
Y178724D03*
X239066Y182517D03*
X231566D03*
X239039Y193651D03*
X231540D03*
X234349Y205863D03*
X226848D03*
X238284Y207404D03*
X238203Y213173D03*
X236909Y264934D03*
X228845Y253490D03*
X236828Y270703D03*
X234159Y291344D03*
X234094Y282744D03*
X234153Y306344D03*
Y298844D03*
X229804Y312280D03*
X231800Y323363D03*
X235439Y336275D03*
X231750Y330513D03*
X238058Y351024D03*
X226054Y350842D03*
X237937Y343948D03*
X226049Y344001D03*
X237850Y358662D03*
X238350Y367337D03*
X226102Y358649D03*
X226128Y367044D03*
X232164Y394345D03*
X226861Y389042D03*
X226863Y447213D03*
X234363D03*
X226863Y459309D03*
X234363D03*
X226839Y471268D03*
X234339D03*
X235119Y506049D03*
X234774Y496156D03*
X229753Y494208D03*
X237067Y501028D03*
X230247Y508342D03*
X234950Y565825D03*
X230000Y563704D03*
X234950Y575725D03*
X230000Y577846D03*
X237071Y570775D03*
X255000Y8000D03*
X252812Y205480D03*
X252642Y215314D03*
X246641Y207457D03*
X246560Y213226D03*
X252550Y262825D03*
X245778Y264880D03*
X252550Y272725D03*
X245697Y270649D03*
X245969Y291344D03*
X246132Y282744D03*
X245958Y306344D03*
Y298844D03*
X250500Y325275D03*
X252500Y320275D03*
X251717Y334882D03*
X247305Y336275D03*
X247657Y330265D03*
X249717Y350803D03*
X249841Y344075D03*
X249711Y358703D03*
X249836Y367044D03*
X252550Y377825D03*
Y387725D03*
Y445225D03*
Y435325D03*
X270000Y-18000D03*
X260000Y-12500D03*
X265000Y14000D03*
X261212Y27567D03*
X262358Y205236D03*
X257371Y203205D03*
X262539Y215134D03*
X257629Y217345D03*
X264570Y210146D03*
X262450Y262825D03*
X257500Y260704D03*
X262450Y272725D03*
X257500Y274846D03*
X264571Y267775D03*
X269573Y291344D03*
X257736D03*
X257620Y282443D03*
X269499Y306344D03*
Y298844D03*
X257660Y306344D03*
Y298844D03*
X257500Y318275D03*
X264500Y325275D03*
X262500Y320275D03*
X257500Y332275D03*
X262500Y330275D03*
X262147Y336277D03*
X261803Y344006D03*
X261833Y351073D03*
X270417Y367051D03*
X261531Y359158D03*
X265335Y372322D03*
X259164Y367347D03*
X262450Y377825D03*
X257500Y375704D03*
X264571Y382775D03*
X262450Y387725D03*
X257500Y389846D03*
X262450Y435325D03*
Y445225D03*
X264571Y440275D03*
X257500Y447346D03*
Y433204D03*
X270000Y583000D03*
X260000Y592000D03*
X285000Y8000D03*
X275000Y23187D03*
Y18187D03*
X277532Y179112D03*
X282983Y184277D03*
X275500Y206140D03*
X283000D03*
X275500Y194337D03*
X283000D03*
X275500Y217943D03*
X283000D03*
X275500Y229711D03*
X283000D03*
X275500Y241514D03*
X283000D03*
X275500Y265053D03*
X283000D03*
X275500Y253282D03*
X283000D03*
X275500Y276822D03*
X283000D03*
X281246Y291344D03*
X270818Y282744D03*
X275724Y282809D03*
X281086Y288051D03*
X281166Y306344D03*
Y298844D03*
X273660Y336575D03*
X277917Y349228D03*
X272614Y354532D03*
X281854Y346072D03*
X273582Y344075D03*
X280998Y362916D03*
X284084Y370140D03*
X278848Y375358D03*
X273654Y380640D03*
X284154Y394774D03*
X281939Y388925D03*
X284154Y406434D03*
Y430180D03*
Y418245D03*
Y441990D03*
Y453650D03*
Y465461D03*
X280000Y597200D03*
X285000Y616000D03*
X275000Y620500D03*
X290000Y-15500D03*
X295000Y5500D03*
X290968Y177044D03*
Y184544D03*
X288404Y237941D03*
X293744Y243212D03*
X286300Y247415D03*
X293800D03*
X286300Y259184D03*
X293800D03*
X286300Y270952D03*
X293800D03*
X291940Y296590D03*
X286627Y291289D03*
X286300Y282755D03*
X293800D03*
X293040Y306344D03*
Y298844D03*
X287158Y340769D03*
X298122Y345075D03*
Y352575D03*
X293293Y365644D03*
Y358144D03*
X286302Y357613D03*
X287369Y383685D03*
X292402Y378459D03*
X298986Y385266D03*
X292028Y394774D03*
X300414Y397301D03*
X291999Y406575D03*
Y430320D03*
X292028Y418245D03*
Y441990D03*
X291999Y453791D03*
X292028Y465461D03*
X290000Y595000D03*
X300000Y588500D03*
X310000Y-15500D03*
X315000Y-7500D03*
X305000Y8000D03*
Y13000D03*
X304543Y24933D03*
X315000Y145704D03*
Y159846D03*
X307929Y152775D03*
X310050Y157725D03*
Y147825D03*
X314460Y177044D03*
Y184544D03*
X302808Y177044D03*
Y184544D03*
X310050Y205325D03*
X314900Y203744D03*
X310050Y215225D03*
X307929Y210275D03*
X315000Y217346D03*
X303000Y235944D03*
X314734D03*
X303000Y243444D03*
X314734D03*
X310050Y262825D03*
X315000Y260704D03*
X310050Y272725D03*
X307929Y267775D03*
X315000Y274846D03*
X304700Y306344D03*
Y298844D03*
X315000Y318204D03*
X307929Y325275D03*
X310050Y320325D03*
X315000Y332346D03*
X310050Y330225D03*
X309905Y345075D03*
Y352575D03*
X305171Y365644D03*
Y358144D03*
X315000Y375704D03*
X307929Y382775D03*
X310050Y377825D03*
X315000Y389846D03*
X310050Y387725D03*
X314232Y400512D03*
X305717Y391997D03*
X308929Y405815D03*
X310050Y445225D03*
Y435325D03*
X307929Y440275D03*
X315000Y433204D03*
X315200Y446944D03*
X302360Y466845D03*
X314030Y466816D03*
X302219Y474690D03*
X314030D03*
X310550Y492294D03*
X315500Y490173D03*
X310550Y502194D03*
X315500Y504315D03*
X308429Y497244D03*
X310000Y603500D03*
X305000Y616000D03*
X318094Y11382D03*
X319950Y147825D03*
Y157725D03*
X326373Y177044D03*
Y184544D03*
X319950Y205325D03*
Y215225D03*
X326571Y235944D03*
Y243444D03*
X319950Y262825D03*
Y272725D03*
X328237Y306344D03*
Y298844D03*
X316471Y306344D03*
Y298844D03*
X319950Y320325D03*
Y330225D03*
X321743Y345075D03*
Y352575D03*
X328763Y365644D03*
Y358144D03*
X316885Y365644D03*
Y358144D03*
X319950Y377825D03*
Y387725D03*
X319414Y402444D03*
X328510Y416027D03*
X319414Y409944D03*
X319950Y435325D03*
Y445225D03*
X325762Y466845D03*
X325621Y474690D03*
X320450Y492294D03*
Y502194D03*
X330000Y609500D03*
X320000Y602000D03*
X333657Y-3705D03*
X340007Y158781D03*
Y170877D03*
X338162Y184544D03*
X338090Y177044D03*
X345847Y182031D03*
X340487Y218838D03*
X338683Y235944D03*
X340487Y229605D03*
X338683Y243444D03*
X340007Y273116D03*
Y285212D03*
X339983Y297171D03*
X345750Y303957D03*
X339980Y306310D03*
X340007Y330769D03*
Y342865D03*
X333520Y345075D03*
Y352575D03*
X345430Y350544D03*
X340007Y366231D03*
Y378327D03*
X333813Y410724D03*
X340000Y428195D03*
X336958Y424476D03*
X342262Y419173D03*
X340007Y434582D03*
X340507Y477986D03*
X337432Y466816D03*
Y474690D03*
X340507Y490082D03*
X335000Y615500D03*
X345000D03*
X349221Y-18845D03*
X347507Y158781D03*
Y170877D03*
X347987Y218838D03*
Y229605D03*
X347365Y242321D03*
X347507Y273116D03*
Y285212D03*
X347483Y297171D03*
X347507Y330769D03*
Y342865D03*
Y366231D03*
Y378327D03*
X347500Y428195D03*
X347507Y434582D03*
X348007Y477986D03*
Y490082D03*
X372500Y145704D03*
X367550Y157725D03*
Y147825D03*
X372500Y159846D03*
X367550Y205325D03*
X372500Y203204D03*
X367550Y215225D03*
X372700Y216944D03*
X372500Y260704D03*
X367550Y262825D03*
X372500Y274846D03*
X367550Y272725D03*
X372500Y318204D03*
X367550Y320325D03*
X372500Y332346D03*
X367550Y330225D03*
Y377825D03*
X372500Y375704D03*
X367550Y387725D03*
X372500Y389846D03*
X372400Y446844D03*
X372500Y433204D03*
X367550Y445225D03*
Y435325D03*
X373000Y490173D03*
X368050Y492294D03*
X373000Y504315D03*
X368050Y502194D03*
X377450Y147825D03*
Y157725D03*
X379571Y152775D03*
X377450Y205325D03*
Y215225D03*
X379571Y210275D03*
X377450Y262825D03*
X379571Y267775D03*
X377450Y272725D03*
X379571Y325275D03*
X377450Y320325D03*
Y330225D03*
Y377825D03*
X379571Y382775D03*
X377450Y387725D03*
X379571Y440275D03*
X377450Y435325D03*
Y445225D03*
X377950Y492294D03*
X380071Y497244D03*
X377950Y502194D03*
G54D11*
X0Y41538D03*
Y336812D03*
X8000Y253738D03*
Y549012D03*
G54D12*
X75030Y200305D03*
Y257805D03*
Y392745D03*
Y450245D03*
X94970Y220245D03*
Y277745D03*
Y372805D03*
Y430305D03*
X132530Y220245D03*
Y277745D03*
Y372805D03*
Y430305D03*
X152470Y200305D03*
Y257805D03*
Y392745D03*
Y450245D03*
X175050Y38285D03*
X175030Y133745D03*
X174783Y526558D03*
X174857Y600980D03*
X194950Y58265D03*
X194970Y113805D03*
X190030Y200305D03*
Y277745D03*
X185900Y325275D03*
X190123Y392837D03*
X190030Y450245D03*
X195217Y545992D03*
X195143Y620570D03*
X209970Y220245D03*
Y257805D03*
X209877Y372713D03*
X209970Y430305D03*
X219950Y78386D03*
X219699Y149147D03*
X214100Y325275D03*
X220384Y511587D03*
X220030Y560805D03*
X240050Y98164D03*
X240301Y168403D03*
X243400Y325275D03*
X239616Y490963D03*
X239970Y580745D03*
X247713Y220426D03*
X247530Y257805D03*
Y372805D03*
Y430305D03*
X267287Y200124D03*
X267470Y277745D03*
X271600Y325275D03*
X267470Y392745D03*
Y450245D03*
X305030Y162745D03*
Y220245D03*
Y277745D03*
Y335245D03*
Y372805D03*
Y430305D03*
X305530Y487274D03*
X324970Y142805D03*
Y200305D03*
Y257805D03*
Y315305D03*
Y392745D03*
Y450245D03*
X325470Y507214D03*
X362530Y142805D03*
Y200305D03*
Y257805D03*
Y315305D03*
Y392745D03*
Y450245D03*
X363030Y507214D03*
X382470Y162745D03*
Y220245D03*
Y277745D03*
Y335245D03*
Y372805D03*
Y430305D03*
X382970Y487274D03*
G54D13*
X90000Y57775D03*
Y72775D03*
Y97775D03*
Y107775D03*
Y132775D03*
Y142775D03*
Y167775D03*
Y485275D03*
Y510275D03*
X140000Y32775D03*
Y57775D03*
Y72775D03*
Y97775D03*
Y107775D03*
Y132775D03*
Y142775D03*
Y167775D03*
Y485275D03*
Y510275D03*
Y620275D03*
G54D14*
X96911Y379897D03*
X96852Y385511D03*
X100517Y437455D03*
X100458Y443069D03*
X93585Y437489D03*
X93526Y443103D03*
X106014Y380107D03*
X105955Y385721D03*
X119983Y437455D03*
X119924Y443069D03*
X120928Y380037D03*
X120869Y385651D03*
X131081Y379897D03*
X131022Y385511D03*
X128805Y437455D03*
X128746Y443069D03*
X223264Y380037D03*
X223205Y385651D03*
X213146Y379967D03*
X213087Y385581D03*
X213181Y437455D03*
X213122Y443069D03*
X221093Y437490D03*
X221034Y443104D03*
X236288Y380002D03*
X236229Y385616D03*
X238878Y437454D03*
X238819Y443068D03*
X246091Y380002D03*
X246032Y385616D03*
X246020Y437406D03*
X245877Y442977D03*
X326911Y149897D03*
X326852Y155511D03*
Y213011D03*
X326911Y207397D03*
Y264897D03*
X326852Y270511D03*
X326911Y322397D03*
X326852Y328011D03*
X326911Y379897D03*
X326852Y385511D03*
Y443011D03*
X326911Y437397D03*
X327352Y499980D03*
X327411Y494366D03*
X336014Y150107D03*
X335955Y155721D03*
X336014Y207607D03*
X335955Y213221D03*
X336014Y265107D03*
X335955Y270721D03*
X336014Y322607D03*
X335955Y328221D03*
X336014Y380107D03*
X335955Y385721D03*
X336014Y437607D03*
X335955Y443221D03*
X336514Y494576D03*
X336455Y500190D03*
X350928Y150037D03*
X361081Y149897D03*
X350869Y155651D03*
X361022Y155511D03*
X350928Y207537D03*
X350869Y213151D03*
X361081Y207397D03*
X361022Y213011D03*
X350928Y265037D03*
X361081Y264897D03*
X350869Y270651D03*
X361022Y270511D03*
X350928Y322537D03*
X361081Y322397D03*
X350869Y328151D03*
X361022Y328011D03*
X350928Y380037D03*
X361081Y379897D03*
X350869Y385651D03*
X361022Y385511D03*
X350928Y437537D03*
X350869Y443151D03*
X361081Y437397D03*
X361022Y443011D03*
X351428Y494506D03*
X351369Y500120D03*
X361581Y494366D03*
X361522Y499980D03*
G54D15*
X260000Y632775D03*
X280000Y-28475D03*
X300000D03*
X290000Y632775D03*
X310000D03*
X330000Y-38475D03*
X320000Y-28475D03*
X330000D03*
X320000Y632775D03*
X340000Y-38475D03*
Y-28475D03*
Y622775D03*
X350000Y-38475D03*
Y-28475D03*
Y622775D03*
Y632775D03*
G54D16*
G01X-33100Y-298588D02*
Y-237087D01*
G01X317000Y-298588D02*
X-33100D01*
G01X-33000Y-237087D02*
Y-149588D01*
G01X-33100Y-237087D02*
X317000D01*
G01X-33000Y-214588D02*
X317000D01*
G01X-33000Y-194588D02*
X317000D01*
G01X-33000Y-169588D02*
X317000D01*
G01X-33000Y-149588D02*
X317000D01*
G01X172000Y-298588D02*
Y-194588D01*
G01D02*
Y-169588D01*
G01X317000Y-237087D02*
Y-298588D01*
G01Y-149588D02*
Y-237087D01*
G54D17*
G01X-18000Y75138D02*
X-16660Y76477D01*
G01X-19340D02*
X-18000Y75138D01*
G01X-19340Y83798D02*
X-18000Y85138D01*
G01D02*
X-16660Y86477D01*
G01X-19340D02*
X-18000Y85138D01*
G01D02*
X-16660Y83798D01*
G01X-19340Y88798D02*
X-18000Y90138D01*
G01D02*
X-16660Y91477D01*
G01X-19340D02*
X-18000Y90138D01*
G01D02*
X-16660Y88798D01*
G01X-19340Y93798D02*
X-18000Y95138D01*
G01D02*
X-16660Y96477D01*
G01X-19340D02*
X-18000Y95138D01*
G01D02*
X-16660Y93798D01*
G01X-19340Y98798D02*
X-18000Y100138D01*
G01D02*
X-16660Y101477D01*
G01X-19340D02*
X-18000Y100138D01*
G01D02*
X-16660Y98798D01*
G01X-19340Y103798D02*
X-18000Y105138D01*
G01D02*
X-16660Y106477D01*
G01X-19340D02*
X-18000Y105138D01*
G01D02*
X-16660Y103798D01*
G01X-19340Y108798D02*
X-18000Y110138D01*
G01D02*
X-16660Y111477D01*
G01X-19340D02*
X-18000Y110138D01*
G01D02*
X-16660Y108798D01*
G01X-19340Y113798D02*
X-18000Y115138D01*
G01D02*
X-16660Y116477D01*
G01X-19340D02*
X-18000Y115138D01*
G01D02*
X-16660Y113798D01*
G01X-19340Y118798D02*
X-18000Y120138D01*
G01D02*
X-16660Y121477D01*
G01X-19340D02*
X-18000Y120138D01*
G01D02*
X-16660Y118798D01*
G01X-19340Y123798D02*
X-18000Y125138D01*
G01D02*
X-16660Y126477D01*
G01X-19340D02*
X-18000Y125138D01*
G01D02*
X-16660Y123798D01*
G01X-19340Y128798D02*
X-18000Y130138D01*
G01D02*
X-16660Y131477D01*
G01X-19340D02*
X-18000Y130138D01*
G01D02*
X-16660Y128798D01*
G01X-19340Y133798D02*
X-18000Y135138D01*
G01D02*
X-16660Y136477D01*
G01X-19340D02*
X-18000Y135138D01*
G01D02*
X-16660Y133798D01*
G01X-19340Y138798D02*
X-18000Y140138D01*
G01D02*
X-16660Y141477D01*
G01X-19340D02*
X-18000Y140138D01*
G01D02*
X-16660Y138798D01*
G01X-19340Y379073D02*
X-18000Y380412D01*
G01D02*
X-16660Y381752D01*
G01X-19340D02*
X-18000Y380412D01*
G01D02*
X-16660Y379073D01*
G01X-19340Y384073D02*
X-18000Y385412D01*
G01D02*
X-16660Y386752D01*
G01X-19340D02*
X-18000Y385412D01*
G01D02*
X-16660Y384073D01*
G01X-19340Y389073D02*
X-18000Y390412D01*
G01D02*
X-16660Y391752D01*
G01X-19340D02*
X-18000Y390412D01*
G01D02*
X-16660Y389073D01*
G01X-19340Y394073D02*
X-18000Y395412D01*
G01D02*
X-16660Y396752D01*
G01X-19340D02*
X-18000Y395412D01*
G01D02*
X-16660Y394073D01*
G01X-19340Y399073D02*
X-18000Y400412D01*
G01D02*
X-16660Y401752D01*
G01X-19340D02*
X-18000Y400412D01*
G01D02*
X-16660Y399073D01*
G01X-19340Y404073D02*
X-18000Y405412D01*
G01D02*
X-16660Y406752D01*
G01X-19340D02*
X-18000Y405412D01*
G01D02*
X-16660Y404073D01*
G01X-19340Y409073D02*
X-18000Y410412D01*
G01D02*
X-16660Y411752D01*
G01X-19340D02*
X-18000Y410412D01*
G01D02*
X-16660Y409073D01*
G01X-19340Y414073D02*
X-18000Y415413D01*
G01D02*
X-16660Y416752D01*
G01X-19340D02*
X-18000Y415413D01*
G01D02*
X-16660Y414073D01*
G01X-19340Y419073D02*
X-18000Y420413D01*
G01D02*
X-16660Y421752D01*
G01X-19340D02*
X-18000Y420413D01*
G01D02*
X-16660Y419073D01*
G01X-19340Y424073D02*
X-18000Y425412D01*
G01D02*
X-16660Y426752D01*
G01X-19340D02*
X-18000Y425412D01*
G01D02*
X-16660Y424073D01*
G01X-19340Y429073D02*
X-18000Y430412D01*
G01D02*
X-16660Y431752D01*
G01X-19340D02*
X-18000Y430412D01*
G01D02*
X-16660Y429073D01*
G01X-19340Y434073D02*
X-18000Y435412D01*
G01D02*
X-16660Y436752D01*
G01X-19340D02*
X-18000Y435412D01*
G01D02*
X-16660Y434073D01*
G01X-8000Y75138D02*
X-6660Y76477D01*
G01X-9340D02*
X-8000Y75138D01*
G01X-4340Y83798D02*
X-3000Y85138D01*
G01D02*
X-1660Y86477D01*
G01X-4340D02*
X-3000Y85138D01*
G01D02*
X-1660Y83798D01*
G01X-9340D02*
X-8000Y85138D01*
G01D02*
X-6660Y86477D01*
G01X-9340D02*
X-8000Y85138D01*
G01D02*
X-6660Y83798D01*
G01X-14340D02*
X-13000Y85138D01*
G01D02*
X-11660Y86477D01*
G01X-14340D02*
X-13000Y85138D01*
G01D02*
X-11660Y83798D01*
G01X-4340Y88798D02*
X-3000Y90138D01*
G01D02*
X-1660Y91477D01*
G01X-4340D02*
X-3000Y90138D01*
G01D02*
X-1660Y88798D01*
G01X-4340Y93798D02*
X-3000Y95138D01*
G01D02*
X-1660Y96477D01*
G01X-4340D02*
X-3000Y95138D01*
G01D02*
X-1660Y93798D01*
G01X-9340D02*
X-8000Y95138D01*
G01D02*
X-6660Y96477D01*
G01X-9340D02*
X-8000Y95138D01*
G01D02*
X-6660Y93798D01*
G01X-14340D02*
X-13000Y95138D01*
G01D02*
X-11660Y96477D01*
G01X-14340D02*
X-13000Y95138D01*
G01D02*
X-11660Y93798D01*
G01X-4340Y98798D02*
X-3000Y100138D01*
G01D02*
X-1660Y101477D01*
G01X-4340D02*
X-3000Y100138D01*
G01D02*
X-1660Y98798D01*
G01X-9340D02*
X-8000Y100138D01*
G01D02*
X-6660Y101477D01*
G01X-9340D02*
X-8000Y100138D01*
G01D02*
X-6660Y98798D01*
G01X-14340D02*
X-13000Y100138D01*
G01D02*
X-11660Y101477D01*
G01X-14340D02*
X-13000Y100138D01*
G01D02*
X-11660Y98798D01*
G01X-4340Y103798D02*
X-3000Y105138D01*
G01D02*
X-1660Y106477D01*
G01X-4340D02*
X-3000Y105138D01*
G01D02*
X-1660Y103798D01*
G01X-4340Y108798D02*
X-3000Y110138D01*
G01D02*
X-1660Y111477D01*
G01X-4340D02*
X-3000Y110138D01*
G01D02*
X-1660Y108798D01*
G01X-9340D02*
X-8000Y110138D01*
G01D02*
X-6660Y111477D01*
G01X-9340D02*
X-8000Y110138D01*
G01D02*
X-6660Y108798D01*
G01X-14340D02*
X-13000Y110138D01*
G01D02*
X-11660Y111477D01*
G01X-14340D02*
X-13000Y110138D01*
G01D02*
X-11660Y108798D01*
G01X-4340Y113798D02*
X-3000Y115138D01*
G01D02*
X-1660Y116477D01*
G01X-4340D02*
X-3000Y115138D01*
G01D02*
X-1660Y113798D01*
G01X-9340D02*
X-8000Y115138D01*
G01D02*
X-6660Y116477D01*
G01X-9340D02*
X-8000Y115138D01*
G01D02*
X-6660Y113798D01*
G01X-14340D02*
X-13000Y115138D01*
G01D02*
X-11660Y116477D01*
G01X-14340D02*
X-13000Y115138D01*
G01D02*
X-11660Y113798D01*
G01X-4340Y118798D02*
X-3000Y120138D01*
G01D02*
X-1660Y121477D01*
G01X-4340D02*
X-3000Y120138D01*
G01D02*
X-1660Y118798D01*
G01X-4340Y123798D02*
X-3000Y125138D01*
G01D02*
X-1660Y126477D01*
G01X-4340D02*
X-3000Y125138D01*
G01D02*
X-1660Y123798D01*
G01X-9340D02*
X-8000Y125138D01*
G01D02*
X-6660Y126477D01*
G01X-9340D02*
X-8000Y125138D01*
G01D02*
X-6660Y123798D01*
G01X-14340D02*
X-13000Y125138D01*
G01D02*
X-11660Y126477D01*
G01X-14340D02*
X-13000Y125138D01*
G01D02*
X-11660Y123798D01*
G01X-4340Y128798D02*
X-3000Y130138D01*
G01D02*
X-1660Y131477D01*
G01X-4340D02*
X-3000Y130138D01*
G01D02*
X-1660Y128798D01*
G01X-9340D02*
X-8000Y130138D01*
G01D02*
X-6660Y131477D01*
G01X-9340D02*
X-8000Y130138D01*
G01D02*
X-6660Y128798D01*
G01X-14340D02*
X-13000Y130138D01*
G01D02*
X-11660Y131477D01*
G01X-14340D02*
X-13000Y130138D01*
G01D02*
X-11660Y128798D01*
G01X-4340Y133798D02*
X-3000Y135138D01*
G01D02*
X-1660Y136477D01*
G01X-4340D02*
X-3000Y135138D01*
G01D02*
X-1660Y133798D01*
G01X-4340Y138798D02*
X-3000Y140138D01*
G01D02*
X-1660Y141477D01*
G01X-4340D02*
X-3000Y140138D01*
G01D02*
X-1660Y138798D01*
G01X-9340D02*
X-8000Y140138D01*
G01D02*
X-6660Y141477D01*
G01X-9340D02*
X-8000Y140138D01*
G01D02*
X-6660Y138798D01*
G01X-14340D02*
X-13000Y140138D01*
G01D02*
X-11660Y141477D01*
G01X-14340D02*
X-13000Y140138D01*
G01D02*
X-11660Y138798D01*
G01X-9340Y243798D02*
X-8000Y245138D01*
G01D02*
X-6660Y246477D01*
G01X-9340D02*
X-8000Y245138D01*
G01D02*
X-6660Y243798D01*
G01X-9340Y238798D02*
X-8000Y240138D01*
G01D02*
X-6660Y241477D01*
G01X-9340D02*
X-8000Y240138D01*
G01D02*
X-6660Y238798D01*
G01X-4340D02*
X-3000Y240138D01*
G01D02*
X-1660Y241477D01*
G01X-4340D02*
X-3000Y240138D01*
G01D02*
X-1660Y238798D01*
G01X-4340Y379073D02*
X-3000Y380412D01*
G01D02*
X-1660Y381752D01*
G01X-4340D02*
X-3000Y380412D01*
G01D02*
X-1660Y379073D01*
G01X-9340D02*
X-8000Y380412D01*
G01D02*
X-6660Y381752D01*
G01X-9340D02*
X-8000Y380412D01*
G01D02*
X-6660Y379073D01*
G01X-14340D02*
X-13000Y380412D01*
G01D02*
X-11660Y381752D01*
G01X-14340D02*
X-13000Y380412D01*
G01D02*
X-11660Y379073D01*
G01X-4340Y384073D02*
X-3000Y385412D01*
G01D02*
X-1660Y386752D01*
G01X-4340D02*
X-3000Y385412D01*
G01D02*
X-1660Y384073D01*
G01X-4340Y389073D02*
X-3000Y390412D01*
G01D02*
X-1660Y391752D01*
G01X-4340D02*
X-3000Y390412D01*
G01D02*
X-1660Y389073D01*
G01X-9340D02*
X-8000Y390412D01*
G01D02*
X-6660Y391752D01*
G01X-9340D02*
X-8000Y390412D01*
G01D02*
X-6660Y389073D01*
G01X-14340D02*
X-13000Y390412D01*
G01D02*
X-11660Y391752D01*
G01X-14340D02*
X-13000Y390412D01*
G01D02*
X-11660Y389073D01*
G01X-4340Y394073D02*
X-3000Y395412D01*
G01D02*
X-1660Y396752D01*
G01X-4340D02*
X-3000Y395412D01*
G01D02*
X-1660Y394073D01*
G01X-9340D02*
X-8000Y395412D01*
G01D02*
X-6660Y396752D01*
G01X-9340D02*
X-8000Y395412D01*
G01D02*
X-6660Y394073D01*
G01X-14340D02*
X-13000Y395412D01*
G01D02*
X-11660Y396752D01*
G01X-14340D02*
X-13000Y395412D01*
G01D02*
X-11660Y394073D01*
G01X-4340Y399073D02*
X-3000Y400412D01*
G01D02*
X-1660Y401752D01*
G01X-4340D02*
X-3000Y400412D01*
G01D02*
X-1660Y399073D01*
G01X-4340Y404073D02*
X-3000Y405412D01*
G01D02*
X-1660Y406752D01*
G01X-4340D02*
X-3000Y405412D01*
G01D02*
X-1660Y404073D01*
G01X-9340D02*
X-8000Y405412D01*
G01D02*
X-6660Y406752D01*
G01X-9340D02*
X-8000Y405412D01*
G01D02*
X-6660Y404073D01*
G01X-14340D02*
X-13000Y405412D01*
G01D02*
X-11660Y406752D01*
G01X-14340D02*
X-13000Y405412D01*
G01D02*
X-11660Y404073D01*
G01X-4340Y409073D02*
X-3000Y410412D01*
G01D02*
X-1660Y411752D01*
G01X-4340D02*
X-3000Y410412D01*
G01D02*
X-1660Y409073D01*
G01X-9340D02*
X-8000Y410412D01*
G01D02*
X-6660Y411752D01*
G01X-9340D02*
X-8000Y410412D01*
G01D02*
X-6660Y409073D01*
G01X-14340D02*
X-13000Y410412D01*
G01D02*
X-11660Y411752D01*
G01X-14340D02*
X-13000Y410412D01*
G01D02*
X-11660Y409073D01*
G01X-4340Y414073D02*
X-3000Y415413D01*
G01D02*
X-1660Y416752D01*
G01X-4340D02*
X-3000Y415413D01*
G01D02*
X-1660Y414073D01*
G01X-4340Y419073D02*
X-3000Y420413D01*
G01D02*
X-1660Y421752D01*
G01X-4340D02*
X-3000Y420413D01*
G01D02*
X-1660Y419073D01*
G01X-9340D02*
X-8000Y420413D01*
G01D02*
X-6660Y421752D01*
G01X-9340D02*
X-8000Y420413D01*
G01D02*
X-6660Y419073D01*
G01X-14340D02*
X-13000Y420413D01*
G01D02*
X-11660Y421752D01*
G01X-14340D02*
X-13000Y420413D01*
G01D02*
X-11660Y419073D01*
G01X-4340Y424073D02*
X-3000Y425412D01*
G01D02*
X-1660Y426752D01*
G01X-4340D02*
X-3000Y425412D01*
G01D02*
X-1660Y424073D01*
G01X-9340D02*
X-8000Y425412D01*
G01D02*
X-6660Y426752D01*
G01X-9340D02*
X-8000Y425412D01*
G01D02*
X-6660Y424073D01*
G01X-14340D02*
X-13000Y425412D01*
G01D02*
X-11660Y426752D01*
G01X-14340D02*
X-13000Y425412D01*
G01D02*
X-11660Y424073D01*
G01X-4340Y429073D02*
X-3000Y430412D01*
G01D02*
X-1660Y431752D01*
G01X-4340D02*
X-3000Y430412D01*
G01D02*
X-1660Y429073D01*
G01X-4340Y434073D02*
X-3000Y435412D01*
G01D02*
X-1660Y436752D01*
G01X-4340D02*
X-3000Y435412D01*
G01D02*
X-1660Y434073D01*
G01X-9340D02*
X-8000Y435412D01*
G01D02*
X-6660Y436752D01*
G01X-9340D02*
X-8000Y435412D01*
G01D02*
X-6660Y434073D01*
G01X-14340D02*
X-13000Y435412D01*
G01D02*
X-11660Y436752D01*
G01X-14340D02*
X-13000Y435412D01*
G01D02*
X-11660Y434073D01*
G01X10660Y83798D02*
X12000Y85138D01*
G01D02*
X13340Y86477D01*
G01X10660D02*
X12000Y85138D01*
G01D02*
X13340Y83798D01*
G01X5660D02*
X7000Y85138D01*
G01D02*
X8340Y86477D01*
G01X5660D02*
X7000Y85138D01*
G01D02*
X8340Y83798D01*
G01X660D02*
X2000Y85138D01*
G01D02*
X3340Y86477D01*
G01X660D02*
X2000Y85138D01*
G01D02*
X3340Y83798D01*
G01X10660Y88798D02*
X12000Y90138D01*
G01D02*
X13340Y91477D01*
G01X10660D02*
X12000Y90138D01*
G01D02*
X13340Y88798D01*
G01X5660D02*
X7000Y90138D01*
G01D02*
X8340Y91477D01*
G01X5660D02*
X7000Y90138D01*
G01D02*
X8340Y88798D01*
G01X660D02*
X2000Y90138D01*
G01D02*
X3340Y91477D01*
G01X660D02*
X2000Y90138D01*
G01D02*
X3340Y88798D01*
G01X660Y93798D02*
X2000Y95138D01*
G01D02*
X3340Y96477D01*
G01X660D02*
X2000Y95138D01*
G01D02*
X3340Y93798D01*
G01X10660Y98798D02*
X12000Y100138D01*
G01D02*
X13340Y101477D01*
G01X10660D02*
X12000Y100138D01*
G01D02*
X13340Y98798D01*
G01X5660D02*
X7000Y100138D01*
G01D02*
X8340Y101477D01*
G01X5660D02*
X7000Y100138D01*
G01D02*
X8340Y98798D01*
G01X660D02*
X2000Y100138D01*
G01D02*
X3340Y101477D01*
G01X660D02*
X2000Y100138D01*
G01D02*
X3340Y98798D01*
G01X10660Y103798D02*
X12000Y105138D01*
G01D02*
X13340Y106477D01*
G01X10660D02*
X12000Y105138D01*
G01D02*
X13340Y103798D01*
G01X5660D02*
X7000Y105138D01*
G01D02*
X8340Y106477D01*
G01X5660D02*
X7000Y105138D01*
G01D02*
X8340Y103798D01*
G01X660D02*
X2000Y105138D01*
G01D02*
X3340Y106477D01*
G01X660D02*
X2000Y105138D01*
G01D02*
X3340Y103798D01*
G01X660Y108798D02*
X2000Y110138D01*
G01D02*
X3340Y111477D01*
G01X660D02*
X2000Y110138D01*
G01D02*
X3340Y108798D01*
G01X10660Y113798D02*
X12000Y115138D01*
G01D02*
X13340Y116477D01*
G01X10660D02*
X12000Y115138D01*
G01D02*
X13340Y113798D01*
G01X5660D02*
X7000Y115138D01*
G01D02*
X8340Y116477D01*
G01X5660D02*
X7000Y115138D01*
G01D02*
X8340Y113798D01*
G01X660D02*
X2000Y115138D01*
G01D02*
X3340Y116477D01*
G01X660D02*
X2000Y115138D01*
G01D02*
X3340Y113798D01*
G01X10660Y118798D02*
X12000Y120138D01*
G01D02*
X13340Y121477D01*
G01X10660D02*
X12000Y120138D01*
G01D02*
X13340Y118798D01*
G01X5660D02*
X7000Y120138D01*
G01D02*
X8340Y121477D01*
G01X5660D02*
X7000Y120138D01*
G01D02*
X8340Y118798D01*
G01X660D02*
X2000Y120138D01*
G01D02*
X3340Y121477D01*
G01X660D02*
X2000Y120138D01*
G01D02*
X3340Y118798D01*
G01X660Y123798D02*
X2000Y125138D01*
G01D02*
X3340Y126477D01*
G01X660D02*
X2000Y125138D01*
G01D02*
X3340Y123798D01*
G01X10660Y128798D02*
X12000Y130138D01*
G01D02*
X13340Y131477D01*
G01X10660D02*
X12000Y130138D01*
G01D02*
X13340Y128798D01*
G01X5660D02*
X7000Y130138D01*
G01D02*
X8340Y131477D01*
G01X5660D02*
X7000Y130138D01*
G01D02*
X8340Y128798D01*
G01X660D02*
X2000Y130138D01*
G01D02*
X3340Y131477D01*
G01X660D02*
X2000Y130138D01*
G01D02*
X3340Y128798D01*
G01X10660Y133798D02*
X12000Y135138D01*
G01D02*
X13340Y136477D01*
G01X10660D02*
X12000Y135138D01*
G01D02*
X13340Y133798D01*
G01X5660D02*
X7000Y135138D01*
G01D02*
X8340Y136477D01*
G01X5660D02*
X7000Y135138D01*
G01D02*
X8340Y133798D01*
G01X660D02*
X2000Y135138D01*
G01D02*
X3340Y136477D01*
G01X660D02*
X2000Y135138D01*
G01D02*
X3340Y133798D01*
G01X660Y138798D02*
X2000Y140138D01*
G01D02*
X3340Y141477D01*
G01X660D02*
X2000Y140138D01*
G01D02*
X3340Y138798D01*
G01X10660Y238798D02*
X12000Y240138D01*
G01D02*
X13340Y241477D01*
G01X10660D02*
X12000Y240138D01*
G01D02*
X13340Y238798D01*
G01X660D02*
X2000Y240138D01*
G01D02*
X3340Y241477D01*
G01X660D02*
X2000Y240138D01*
G01D02*
X3340Y238798D01*
G01X5660D02*
X7000Y240138D01*
G01D02*
X8340Y241477D01*
G01X5660D02*
X7000Y240138D01*
G01D02*
X8340Y238798D01*
G01X660Y379073D02*
X2000Y380412D01*
G01D02*
X3340Y381752D01*
G01X660D02*
X2000Y380412D01*
G01D02*
X3340Y379073D01*
G01X10660Y384073D02*
X12000Y385412D01*
G01D02*
X13340Y386752D01*
G01X10660D02*
X12000Y385412D01*
G01D02*
X13340Y384073D01*
G01X5660D02*
X7000Y385412D01*
G01D02*
X8340Y386752D01*
G01X5660D02*
X7000Y385412D01*
G01D02*
X8340Y384073D01*
G01X660D02*
X2000Y385412D01*
G01D02*
X3340Y386752D01*
G01X660D02*
X2000Y385412D01*
G01D02*
X3340Y384073D01*
G01X10660Y389073D02*
X12000Y390412D01*
G01D02*
X13340Y391752D01*
G01X10660D02*
X12000Y390412D01*
G01D02*
X13340Y389073D01*
G01X5660D02*
X7000Y390412D01*
G01D02*
X8340Y391752D01*
G01X5660D02*
X7000Y390412D01*
G01D02*
X8340Y389073D01*
G01X660D02*
X2000Y390412D01*
G01D02*
X3340Y391752D01*
G01X660D02*
X2000Y390412D01*
G01D02*
X3340Y389073D01*
G01X660Y394073D02*
X2000Y395412D01*
G01D02*
X3340Y396752D01*
G01X660D02*
X2000Y395412D01*
G01D02*
X3340Y394073D01*
G01X10660Y399073D02*
X12000Y400412D01*
G01D02*
X13340Y401752D01*
G01X10660D02*
X12000Y400412D01*
G01D02*
X13340Y399073D01*
G01X5660D02*
X7000Y400412D01*
G01D02*
X8340Y401752D01*
G01X5660D02*
X7000Y400412D01*
G01D02*
X8340Y399073D01*
G01X660D02*
X2000Y400412D01*
G01D02*
X3340Y401752D01*
G01X660D02*
X2000Y400412D01*
G01D02*
X3340Y399073D01*
G01X10660Y404073D02*
X12000Y405412D01*
G01D02*
X13340Y406752D01*
G01X10660D02*
X12000Y405412D01*
G01D02*
X13340Y404073D01*
G01X5660D02*
X7000Y405412D01*
G01D02*
X8340Y406752D01*
G01X5660D02*
X7000Y405412D01*
G01D02*
X8340Y404073D01*
G01X660D02*
X2000Y405412D01*
G01D02*
X3340Y406752D01*
G01X660D02*
X2000Y405412D01*
G01D02*
X3340Y404073D01*
G01X660Y409073D02*
X2000Y410412D01*
G01D02*
X3340Y411752D01*
G01X660D02*
X2000Y410412D01*
G01D02*
X3340Y409073D01*
G01X10660Y414073D02*
X12000Y415413D01*
G01D02*
X13340Y416752D01*
G01X10660D02*
X12000Y415413D01*
G01D02*
X13340Y414073D01*
G01X5660D02*
X7000Y415413D01*
G01D02*
X8340Y416752D01*
G01X5660D02*
X7000Y415413D01*
G01D02*
X8340Y414073D01*
G01X660D02*
X2000Y415413D01*
G01D02*
X3340Y416752D01*
G01X660D02*
X2000Y415413D01*
G01D02*
X3340Y414073D01*
G01X10660Y419073D02*
X12000Y420413D01*
G01D02*
X13340Y421752D01*
G01X10660D02*
X12000Y420413D01*
G01D02*
X13340Y419073D01*
G01X5660D02*
X7000Y420413D01*
G01D02*
X8340Y421752D01*
G01X5660D02*
X7000Y420413D01*
G01D02*
X8340Y419073D01*
G01X660D02*
X2000Y420413D01*
G01D02*
X3340Y421752D01*
G01X660D02*
X2000Y420413D01*
G01D02*
X3340Y419073D01*
G01X660Y424073D02*
X2000Y425412D01*
G01D02*
X3340Y426752D01*
G01X660D02*
X2000Y425412D01*
G01D02*
X3340Y424073D01*
G01X10660Y429073D02*
X12000Y430412D01*
G01D02*
X13340Y431752D01*
G01X10660D02*
X12000Y430412D01*
G01D02*
X13340Y429073D01*
G01X5660D02*
X7000Y430412D01*
G01D02*
X8340Y431752D01*
G01X5660D02*
X7000Y430412D01*
G01D02*
X8340Y429073D01*
G01X660D02*
X2000Y430412D01*
G01D02*
X3340Y431752D01*
G01X660D02*
X2000Y430412D01*
G01D02*
X3340Y429073D01*
G01X10660Y434073D02*
X12000Y435412D01*
G01D02*
X13340Y436752D01*
G01X10660D02*
X12000Y435412D01*
G01D02*
X13340Y434073D01*
G01X5660D02*
X7000Y435412D01*
G01D02*
X8340Y436752D01*
G01X5660D02*
X7000Y435412D01*
G01D02*
X8340Y434073D01*
G01X660D02*
X2000Y435412D01*
G01D02*
X3340Y436752D01*
G01X660D02*
X2000Y435412D01*
G01D02*
X3340Y434073D01*
G01X15660Y83798D02*
X17000Y85138D01*
G01D02*
X18340Y86477D01*
G01X15660D02*
X17000Y85138D01*
G01D02*
X18340Y83798D01*
G01X15660Y88798D02*
X17000Y90138D01*
G01D02*
X18340Y91477D01*
G01X15660D02*
X17000Y90138D01*
G01D02*
X18340Y88798D01*
G01X15660Y93798D02*
X17000Y95138D01*
G01D02*
X18340Y96477D01*
G01X15660D02*
X17000Y95138D01*
G01D02*
X18340Y93798D01*
G01X15660Y98798D02*
X17000Y100138D01*
G01D02*
X18340Y101477D01*
G01X15660D02*
X17000Y100138D01*
G01D02*
X18340Y98798D01*
G01X15660Y103798D02*
X17000Y105138D01*
G01D02*
X18340Y106477D01*
G01X15660D02*
X17000Y105138D01*
G01D02*
X18340Y103798D01*
G01X15660Y108798D02*
X17000Y110138D01*
G01D02*
X18340Y111477D01*
G01X15660D02*
X17000Y110138D01*
G01D02*
X18340Y108798D01*
G01X15660Y113798D02*
X17000Y115138D01*
G01D02*
X18340Y116477D01*
G01X15660D02*
X17000Y115138D01*
G01D02*
X18340Y113798D01*
G01X15660Y118798D02*
X17000Y120138D01*
G01D02*
X18340Y121477D01*
G01X15660D02*
X17000Y120138D01*
G01D02*
X18340Y118798D01*
G01X15660Y123798D02*
X17000Y125138D01*
G01D02*
X18340Y126477D01*
G01X15660D02*
X17000Y125138D01*
G01D02*
X18340Y123798D01*
G01X15660Y128798D02*
X17000Y130138D01*
G01D02*
X18340Y131477D01*
G01X15660D02*
X17000Y130138D01*
G01D02*
X18340Y128798D01*
G01X15660Y133798D02*
X17000Y135138D01*
G01D02*
X18340Y136477D01*
G01X15660D02*
X17000Y135138D01*
G01D02*
X18340Y133798D01*
G01X15660Y138798D02*
X17000Y140138D01*
G01D02*
X18340Y141477D01*
G01X15660D02*
X17000Y140138D01*
G01D02*
X18340Y138798D01*
G01X15660Y238798D02*
X17000Y240138D01*
G01D02*
X18340Y241477D01*
G01X15660D02*
X17000Y240138D01*
G01D02*
X18340Y238798D01*
G01X15660Y379073D02*
X17000Y380412D01*
G01D02*
X18340Y381752D01*
G01X15660D02*
X17000Y380412D01*
G01D02*
X18340Y379073D01*
G01X15660Y384073D02*
X17000Y385412D01*
G01D02*
X18340Y386752D01*
G01X15660D02*
X17000Y385412D01*
G01D02*
X18340Y384073D01*
G01X15660Y389073D02*
X17000Y390412D01*
G01D02*
X18340Y391752D01*
G01X15660D02*
X17000Y390412D01*
G01D02*
X18340Y389073D01*
G01X15660Y394073D02*
X17000Y395412D01*
G01D02*
X18340Y396752D01*
G01X15660D02*
X17000Y395412D01*
G01D02*
X18340Y394073D01*
G01X15660Y399073D02*
X17000Y400412D01*
G01D02*
X18340Y401752D01*
G01X15660D02*
X17000Y400412D01*
G01D02*
X18340Y399073D01*
G01X15660Y404073D02*
X17000Y405412D01*
G01D02*
X18340Y406752D01*
G01X15660D02*
X17000Y405412D01*
G01D02*
X18340Y404073D01*
G01X15660Y409073D02*
X17000Y410412D01*
G01D02*
X18340Y411752D01*
G01X15660D02*
X17000Y410412D01*
G01D02*
X18340Y409073D01*
G01X15660Y414073D02*
X17000Y415413D01*
G01D02*
X18340Y416752D01*
G01X15660D02*
X17000Y415413D01*
G01D02*
X18340Y414073D01*
G01X15660Y419073D02*
X17000Y420413D01*
G01D02*
X18340Y421752D01*
G01X15660D02*
X17000Y420413D01*
G01D02*
X18340Y419073D01*
G01X15660Y424073D02*
X17000Y425412D01*
G01D02*
X18340Y426752D01*
G01X15660D02*
X17000Y425412D01*
G01D02*
X18340Y424073D01*
G01X15660Y429073D02*
X17000Y430412D01*
G01D02*
X18340Y431752D01*
G01X15660D02*
X17000Y430412D01*
G01D02*
X18340Y429073D01*
G01X15660Y434073D02*
X17000Y435412D01*
G01D02*
X18340Y436752D01*
G01X15660D02*
X17000Y435412D01*
G01D02*
X18340Y434073D01*
G01X71288Y196563D02*
X75030Y200305D01*
G01D02*
X78772Y204047D01*
G01X71288D02*
X75030Y200305D01*
G01D02*
X78772Y196563D01*
G01X71288Y254063D02*
X75030Y257805D01*
G01D02*
X78772Y261547D01*
G01X71288D02*
X75030Y257805D01*
G01D02*
X78772Y254063D01*
G01X71288Y389003D02*
X75030Y392745D01*
G01D02*
X78772Y396487D01*
G01X71288D02*
X75030Y392745D01*
G01D02*
X78772Y389003D01*
G01X71288Y446503D02*
X75030Y450245D01*
G01D02*
X78772Y453987D01*
G01X71288D02*
X75030Y450245D01*
G01D02*
X78772Y446503D01*
G01X84941Y54266D02*
X90000Y57775D01*
G01X84941Y69266D02*
X90000Y72775D01*
G01Y57775D02*
X95059Y61284D01*
G01X84941D02*
X90000Y57775D01*
G01D02*
X95059Y54266D01*
G01X90000Y72775D02*
X95059Y76284D01*
G01X84941D02*
X90000Y72775D01*
G01D02*
X95059Y69266D01*
G01X84941Y94266D02*
X90000Y97775D01*
G01D02*
X95059Y101284D01*
G01X84941D02*
X90000Y97775D01*
G01D02*
X95059Y94266D01*
G01X84941Y104266D02*
X90000Y107775D01*
G01D02*
X95059Y111284D01*
G01X84941D02*
X90000Y107775D01*
G01D02*
X95059Y104266D01*
G01X84941Y129266D02*
X90000Y132775D01*
G01X84941Y139266D02*
X90000Y142775D01*
G01D02*
X95059Y146284D01*
G01X84941D02*
X90000Y142775D01*
G01D02*
X95059Y139266D01*
G01X90000Y132775D02*
X95059Y136284D01*
G01X84941D02*
X90000Y132775D01*
G01D02*
X95059Y129266D01*
G01X84941Y164266D02*
X90000Y167775D01*
G01D02*
X95059Y171284D01*
G01X84941D02*
X90000Y167775D01*
G01D02*
X95059Y164266D01*
G01X84941Y481766D02*
X90000Y485275D01*
G01D02*
X95059Y488784D01*
G01X84941D02*
X90000Y485275D01*
G01D02*
X95059Y481766D01*
G01X84941Y506766D02*
X90000Y510275D01*
G01D02*
X95059Y506766D01*
G01X91228Y216503D02*
X94970Y220245D01*
G01D02*
X98712Y223987D01*
G01X91228D02*
X94970Y220245D01*
G01D02*
X98712Y216503D01*
G01X91228Y274003D02*
X94970Y277745D01*
G01D02*
X98712Y281487D01*
G01X91228D02*
X94970Y277745D01*
G01D02*
X98712Y274003D01*
G01X91228Y369063D02*
X94970Y372805D01*
G01D02*
X98712Y369063D01*
G01X94970Y372805D02*
X98712Y376547D01*
G01X91228D02*
X94970Y372805D01*
G01X91228Y426563D02*
X94970Y430305D01*
G01D02*
X98712Y434047D01*
G01X91228D02*
X94970Y430305D01*
G01D02*
X98712Y426563D01*
G01X134941Y29266D02*
X140000Y32775D01*
G01X134941Y54266D02*
X140000Y57775D01*
G01X134941Y69266D02*
X140000Y72775D01*
G01X134941Y61284D02*
X140000Y57775D01*
G01X134941Y76284D02*
X140000Y72775D01*
G01X134941Y94266D02*
X140000Y97775D01*
G01X134941Y104266D02*
X140000Y107775D01*
G01X134941Y111284D02*
X140000Y107775D01*
G01X134941Y101284D02*
X140000Y97775D01*
G01X134941Y129266D02*
X140000Y132775D01*
G01X134941Y139266D02*
X140000Y142775D01*
G01X134941Y136284D02*
X140000Y132775D01*
G01X134941Y146284D02*
X140000Y142775D01*
G01X134941Y164266D02*
X140000Y167775D01*
G01X134941Y171284D02*
X140000Y167775D01*
G01X128788Y216503D02*
X132530Y220245D01*
G01D02*
X136272Y223987D01*
G01X128788D02*
X132530Y220245D01*
G01D02*
X136272Y216503D01*
G01X128788Y274003D02*
X132530Y277745D01*
G01D02*
X136272Y281487D01*
G01X128788D02*
X132530Y277745D01*
G01D02*
X136272Y274003D01*
G01X128788Y369063D02*
X132530Y372805D01*
G01D02*
X136272Y369063D01*
G01X132530Y372805D02*
X136272Y376547D01*
G01X128788D02*
X132530Y372805D01*
G01X128788Y426563D02*
X132530Y430305D01*
G01D02*
X136272Y434047D01*
G01X128788D02*
X132530Y430305D01*
G01D02*
X136272Y426563D01*
G01X134941Y481766D02*
X140000Y485275D01*
G01X134941Y488784D02*
X140000Y485275D01*
G01X134941Y506766D02*
X140000Y510275D01*
G01X134941Y616766D02*
X140000Y620275D01*
G01X134941Y623784D02*
X140000Y620275D01*
G01Y32775D02*
X145059Y29266D01*
G01X140000Y57775D02*
X145059Y54266D01*
G01X140000Y72775D02*
X145059Y69266D01*
G01X140000Y57775D02*
X145059Y61284D01*
G01X140000Y72775D02*
X145059Y76284D01*
G01X140000Y97775D02*
X145059Y101284D01*
G01X140000Y97775D02*
X145059Y94266D01*
G01X140000Y107775D02*
X145059Y111284D01*
G01X140000Y107775D02*
X145059Y104266D01*
G01X140000Y132775D02*
X145059Y129266D01*
G01X140000Y142775D02*
X145059Y146284D01*
G01X140000Y142775D02*
X145059Y139266D01*
G01X140000Y132775D02*
X145059Y136284D01*
G01X140000Y167775D02*
X145059Y171284D01*
G01X140000Y167775D02*
X145059Y164266D01*
G01X148728Y196563D02*
X152470Y200305D01*
G01X148728Y204047D02*
X152470Y200305D01*
G01X148728Y254063D02*
X152470Y257805D01*
G01X148728Y261547D02*
X152470Y257805D01*
G01X148728Y389003D02*
X152470Y392745D01*
G01X148728Y396487D02*
X152470Y392745D01*
G01X148728Y446503D02*
X152470Y450245D01*
G01X148728Y453987D02*
X152470Y450245D01*
G01X140000Y485275D02*
X145059Y488784D01*
G01X140000Y485275D02*
X145059Y481766D01*
G01X140000Y510275D02*
X145059Y506766D01*
G01X140000Y620275D02*
X145059Y623784D01*
G01X140000Y620275D02*
X145059Y616766D01*
G01X152470Y200305D02*
X156212Y204047D01*
G01X152470Y200305D02*
X156212Y196563D01*
G01X152470Y257805D02*
X156212Y261547D01*
G01X152470Y257805D02*
X156212Y254063D01*
G01X152470Y392745D02*
X156212Y396487D01*
G01X152470Y392745D02*
X156212Y389003D01*
G01X152470Y450245D02*
X156212Y446503D01*
G01X152470Y450245D02*
X156212Y453987D01*
G01X171308Y34543D02*
X175050Y38285D01*
G01D02*
X178792Y42027D01*
G01X171308D02*
X175050Y38285D01*
G01D02*
X178792Y34543D01*
G01X171288Y130003D02*
X175030Y133745D01*
G01D02*
X178772Y130003D01*
G01X175030Y133745D02*
X178772Y137487D01*
G01X171288D02*
X175030Y133745D01*
G01X174783Y526558D02*
X178525Y530300D01*
G01X171041D02*
X174783Y526558D01*
G01X174857Y600980D02*
X178599Y604722D01*
G01X171115D02*
X174857Y600980D01*
G01X191208Y54523D02*
X194950Y58265D01*
G01D02*
X198692Y62007D01*
G01X191208D02*
X194950Y58265D01*
G01D02*
X198692Y54523D01*
G01X191228Y110063D02*
X194970Y113805D01*
G01D02*
X198712Y117547D01*
G01X191228D02*
X194970Y113805D01*
G01D02*
X198712Y110063D01*
G01X186288Y196563D02*
X190030Y200305D01*
G01D02*
X193772Y204047D01*
G01X186288D02*
X190030Y200305D01*
G01D02*
X193772Y196563D01*
G01X186288Y274003D02*
X190030Y277745D01*
G01D02*
X193772Y281487D01*
G01X186288D02*
X190030Y277745D01*
G01D02*
X193772Y274003D01*
G01X182158Y321533D02*
X185900Y325275D01*
G01D02*
X189642Y329017D01*
G01X182158D02*
X185900Y325275D01*
G01D02*
X189642Y321533D01*
G01X186381Y389095D02*
X190123Y392837D01*
G01D02*
X193865Y396579D01*
G01X186381D02*
X190123Y392837D01*
G01D02*
X193865Y389095D01*
G01X186288Y446503D02*
X190030Y450245D01*
G01D02*
X193772Y446503D01*
G01X190030Y450245D02*
X193772Y453987D01*
G01X186288D02*
X190030Y450245D01*
G01X191475Y542250D02*
X195217Y545992D01*
G01D02*
X198959Y542250D01*
G01X191401Y616828D02*
X195143Y620570D01*
G01D02*
X198885Y616828D01*
G01X206228Y216503D02*
X209970Y220245D01*
G01D02*
X213712Y223987D01*
G01X206228D02*
X209970Y220245D01*
G01D02*
X213712Y216503D01*
G01X206228Y254063D02*
X209970Y257805D01*
G01D02*
X213712Y261547D01*
G01X206228D02*
X209970Y257805D01*
G01D02*
X213712Y254063D01*
G01X210358Y321533D02*
X214100Y325275D01*
G01X210358Y329017D02*
X214100Y325275D01*
G01X206135Y368971D02*
X209877Y372713D01*
G01D02*
X213619Y376455D01*
G01X206135D02*
X209877Y372713D01*
G01D02*
X213619Y368971D01*
G01X206228Y426563D02*
X209970Y430305D01*
G01D02*
X213712Y434047D01*
G01X206228D02*
X209970Y430305D01*
G01D02*
X213712Y426563D01*
G01X216208Y74644D02*
X219950Y78386D01*
G01D02*
X223692Y82127D01*
G01X216208D02*
X219950Y78386D01*
G01D02*
X223692Y74644D01*
G01X215957Y145405D02*
X219699Y149147D01*
G01D02*
X223441Y145405D01*
G01X219699Y149147D02*
X223441Y152889D01*
G01X215957D02*
X219699Y149147D01*
G01X214100Y325275D02*
X217842Y329017D01*
G01X214100Y325275D02*
X217842Y321533D01*
G01X216642Y507845D02*
X220384Y511587D01*
G01D02*
X224126Y507845D01*
G01X220384Y511587D02*
X224126Y515329D01*
G01X216642D02*
X220384Y511587D01*
G01X220030Y560805D02*
X223772Y564547D01*
G01X216288D02*
X220030Y560805D01*
G01X236308Y94423D02*
X240050Y98164D01*
G01D02*
X243792Y101906D01*
G01X236308D02*
X240050Y98164D01*
G01D02*
X243792Y94423D01*
G01X236559Y164661D02*
X240301Y168403D01*
G01D02*
X244043Y172145D01*
G01X236559D02*
X240301Y168403D01*
G01D02*
X244043Y164661D01*
G01X239658Y321533D02*
X243400Y325275D01*
G01X239658Y329017D02*
X243400Y325275D01*
G01X235874Y487221D02*
X239616Y490963D01*
G01D02*
X243358Y494705D01*
G01X235874D02*
X239616Y490963D01*
G01D02*
X243358Y487221D01*
G01X236228Y577003D02*
X239970Y580745D01*
G01D02*
X243712Y584487D01*
G01X236228D02*
X239970Y580745D01*
G01D02*
X243712Y577003D01*
G01X243972Y216684D02*
X247713Y220426D01*
G01D02*
X251455Y224167D01*
G01X243972D02*
X247713Y220426D01*
G01D02*
X251455Y216684D01*
G01X243788Y254063D02*
X247530Y257805D01*
G01D02*
X251272Y261547D01*
G01X243788D02*
X247530Y257805D01*
G01D02*
X251272Y254063D01*
G01X243400Y325275D02*
X247142Y329017D01*
G01X243400Y325275D02*
X247142Y321533D01*
G01X243788Y369063D02*
X247530Y372805D01*
G01D02*
X251272Y369063D01*
G01X247530Y372805D02*
X251272Y376547D01*
G01X243788D02*
X247530Y372805D01*
G01X243788Y426563D02*
X247530Y430305D01*
G01D02*
X251272Y434047D01*
G01X243788D02*
X247530Y430305D01*
G01D02*
X251272Y426563D01*
G01X263545Y196383D02*
X267287Y200124D01*
G01D02*
X271028Y203866D01*
G01X263545D02*
X267287Y200124D01*
G01D02*
X271028Y196383D01*
G01X263728Y274003D02*
X267470Y277745D01*
G01D02*
X271212Y281487D01*
G01X263728D02*
X267470Y277745D01*
G01D02*
X271212Y274003D01*
G01X267858Y321533D02*
X271600Y325275D01*
G01X267858Y329017D02*
X271600Y325275D01*
G01X263728Y389003D02*
X267470Y392745D01*
G01D02*
X271212Y396487D01*
G01X263728D02*
X267470Y392745D01*
G01D02*
X271212Y389003D01*
G01X263728Y446503D02*
X267470Y450245D01*
G01D02*
X271212Y446503D01*
G01X267470Y450245D02*
X271212Y453987D01*
G01X263728D02*
X267470Y450245D01*
G01X271600Y325275D02*
X275342Y329017D01*
G01X271600Y325275D02*
X275342Y321533D01*
G01X301288Y159003D02*
X305030Y162745D01*
G01D02*
X308772Y159003D01*
G01X305030Y162745D02*
X308772Y166487D01*
G01X301288D02*
X305030Y162745D01*
G01X301288Y216503D02*
X305030Y220245D01*
G01D02*
X308772Y223987D01*
G01X301288D02*
X305030Y220245D01*
G01D02*
X308772Y216503D01*
G01X301288Y274003D02*
X305030Y277745D01*
G01D02*
X308772Y281487D01*
G01X301288D02*
X305030Y277745D01*
G01D02*
X308772Y274003D01*
G01X301288Y331503D02*
X305030Y335245D01*
G01D02*
X308772Y338987D01*
G01X301288D02*
X305030Y335245D01*
G01D02*
X308772Y331503D01*
G01X301288Y369063D02*
X305030Y372805D01*
G01D02*
X308772Y369063D01*
G01X305030Y372805D02*
X308772Y376547D01*
G01X301288D02*
X305030Y372805D01*
G01X301288Y426563D02*
X305030Y430305D01*
G01D02*
X308772Y434047D01*
G01X301288D02*
X305030Y430305D01*
G01D02*
X308772Y426563D01*
G01X301788Y483532D02*
X305530Y487274D01*
G01D02*
X309272Y491016D01*
G01X301788D02*
X305530Y487274D01*
G01D02*
X309272Y483532D01*
G01X321228Y139063D02*
X324970Y142805D01*
G01D02*
X328712Y146547D01*
G01X321228D02*
X324970Y142805D01*
G01D02*
X328712Y139063D01*
G01X321228Y196563D02*
X324970Y200305D01*
G01D02*
X328712Y204047D01*
G01X321228D02*
X324970Y200305D01*
G01D02*
X328712Y196563D01*
G01X321228Y254063D02*
X324970Y257805D01*
G01D02*
X328712Y261547D01*
G01X321228D02*
X324970Y257805D01*
G01D02*
X328712Y254063D01*
G01X321228Y311563D02*
X324970Y315305D01*
G01D02*
X328712Y311563D01*
G01X324970Y315305D02*
X328712Y319047D01*
G01X321228D02*
X324970Y315305D01*
G01X321228Y389003D02*
X324970Y392745D01*
G01D02*
X328712Y396487D01*
G01X321228D02*
X324970Y392745D01*
G01D02*
X328712Y389003D01*
G01X321228Y446503D02*
X324970Y450245D01*
G01D02*
X328712Y446503D01*
G01X324970Y450245D02*
X328712Y453987D01*
G01X321228D02*
X324970Y450245D01*
G01X321728Y503472D02*
X325470Y507214D01*
G01D02*
X329212Y510956D01*
G01X321728D02*
X325470Y507214D01*
G01D02*
X329212Y503472D01*
G01X358788Y139063D02*
X362530Y142805D01*
G01X358788Y146547D02*
X362530Y142805D01*
G01X358788Y196563D02*
X362530Y200305D01*
G01X358788Y204047D02*
X362530Y200305D01*
G01X358788Y254063D02*
X362530Y257805D01*
G01X358788Y261547D02*
X362530Y257805D01*
G01X358788Y311563D02*
X362530Y315305D01*
G01X358788Y319047D02*
X362530Y315305D01*
G01X358788Y389003D02*
X362530Y392745D01*
G01X358788Y396487D02*
X362530Y392745D01*
G01X358788Y446503D02*
X362530Y450245D01*
G01X358788Y453987D02*
X362530Y450245D01*
G01X359288Y503472D02*
X363030Y507214D01*
G01X359288Y510956D02*
X363030Y507214D01*
G01X362530Y142805D02*
X366272Y146547D01*
G01X362530Y142805D02*
X366272Y139063D01*
G01X362530Y200305D02*
X366272Y204047D01*
G01X362530Y200305D02*
X366272Y196563D01*
G01X362530Y257805D02*
X366272Y261547D01*
G01X362530Y257805D02*
X366272Y254063D01*
G01X362530Y315305D02*
X366272Y311563D01*
G01X362530Y315305D02*
X366272Y319047D01*
G01X362530Y392745D02*
X366272Y396487D01*
G01X362530Y392745D02*
X366272Y389003D01*
G01X362530Y450245D02*
X366272Y446503D01*
G01X362530Y450245D02*
X366272Y453987D01*
G01X363030Y507214D02*
X366772Y510956D01*
G01X363030Y507214D02*
X366772Y503472D01*
G01X378728Y159003D02*
X382470Y162745D01*
G01D02*
X386212Y159003D01*
G01X382470Y162745D02*
X386212Y166487D01*
G01X378728D02*
X382470Y162745D01*
G01X378728Y216503D02*
X382470Y220245D01*
G01D02*
X386212Y223987D01*
G01X378728D02*
X382470Y220245D01*
G01D02*
X386212Y216503D01*
G01X378728Y274003D02*
X382470Y277745D01*
G01D02*
X386212Y281487D01*
G01X378728D02*
X382470Y277745D01*
G01D02*
X386212Y274003D01*
G01X378728Y331503D02*
X382470Y335245D01*
G01D02*
X386212Y338987D01*
G01X378728D02*
X382470Y335245D01*
G01D02*
X386212Y331503D01*
G01X378728Y369063D02*
X382470Y372805D01*
G01D02*
X386212Y369063D01*
G01X382470Y372805D02*
X386212Y376547D01*
G01X378728D02*
X382470Y372805D01*
G01X378728Y426563D02*
X382470Y430305D01*
G01D02*
X386212Y434047D01*
G01X378728D02*
X382470Y430305D01*
G01D02*
X386212Y426563D01*
G01X379228Y483532D02*
X382970Y487274D01*
G01D02*
X386712Y491016D01*
G01X379228D02*
X382970Y487274D01*
G01D02*
X386712Y483532D01*
G54D18*
G01X280000Y-28475D02*
X276898Y-31577D01*
X276657Y-31769D01*
X276604Y-31871D01*
X274975Y-33500D01*
X85000D01*
X61225Y-9725D01*
X44186D01*
X13960Y20500D01*
X-18500D01*
X-31550Y33550D01*
Y63950D01*
X-25362Y70138D01*
X-18000D01*
G01X-8000D02*
Y70284D01*
X-10400Y72685D01*
X-27816D01*
X-33960Y66540D01*
Y31960D01*
X-20500Y18500D01*
X12584D01*
X43308Y-12225D01*
X58225D01*
X89000Y-43000D01*
X282210D01*
X285103Y-40108D01*
Y-35941D01*
X287543Y-33502D01*
X324973D01*
X330000Y-28475D01*
G01X310000Y632775D02*
X300775Y642000D01*
X81500D01*
X57000Y617500D01*
Y605500D01*
X54275Y602775D01*
X41275D01*
X11978Y573478D01*
X-16276D01*
X-35758Y553996D01*
Y526147D01*
X-22515Y512904D01*
X-11727D01*
X-10471Y514160D01*
Y517794D01*
X-8000Y520266D01*
Y520413D01*
G01X290000Y632775D02*
X289818D01*
X284093Y638500D01*
X83000D01*
X60500Y616000D01*
Y605100D01*
X55675Y600275D01*
X42775D01*
X13500Y571000D01*
X-14418D01*
X-32827Y552592D01*
Y527672D01*
X-23037Y517883D01*
X-16742D01*
X-15473Y519151D01*
Y522939D01*
X-13000Y525412D01*
G01Y65138D02*
Y65162D01*
X-15400Y67562D01*
X-22438D01*
X-28812Y61188D01*
Y35312D01*
X-16000Y22500D01*
X15376D01*
X45100Y-7225D01*
X65225D01*
X81500Y-23500D01*
X295025D01*
X300000Y-28475D01*
G01X-18000Y60138D02*
X-21362D01*
X-23883Y57617D01*
Y38383D01*
X-12000Y26500D01*
X18187D01*
X46912Y-2225D01*
X72725D01*
X88500Y-18000D01*
X270000D01*
G01X320000Y-28475D02*
X312525Y-21000D01*
X85000D01*
X68725Y-4725D01*
X45996D01*
X16772Y24500D01*
X-14000D01*
X-26293Y36793D01*
Y58707D01*
X-22406Y62595D01*
X-10457D01*
X-8000Y60138D01*
G01X2000D02*
X-472Y57666D01*
X-20202D01*
X-21802Y56066D01*
Y40302D01*
X-10000Y28500D01*
X19622D01*
X47846Y275D01*
X76725D01*
X92500Y-15500D01*
X282771D01*
X285271Y-18000D01*
X326500D01*
X335000Y-26500D01*
Y-33475D01*
X340000Y-38475D01*
G01X-18000Y50138D02*
Y40500D01*
X-8000Y30500D01*
X21037D01*
X48762Y2775D01*
X79725D01*
X95000Y-12500D01*
X260000D01*
G01X-18000Y520413D02*
X-20655D01*
X-29712Y529470D01*
Y551492D01*
X-12704Y568500D01*
X15000D01*
X41544Y595044D01*
X56774D01*
X64000Y602270D01*
Y615000D01*
X84000Y635000D01*
X251147D01*
X253372Y632775D01*
X260000D01*
G01X340000Y622775D02*
X335725Y618500D01*
X281933D01*
X277033Y613600D01*
X253400D01*
X240500Y626500D01*
X105500D01*
X89994Y610994D01*
X87494D01*
X79294Y602794D01*
Y600830D01*
X57385Y578921D01*
X51889D01*
X45968Y573000D01*
X36768D01*
X33494Y569725D01*
X27297D01*
X19572Y562000D01*
X-5829D01*
X-21162Y546667D01*
Y535064D01*
X-18956Y532858D01*
X-446D01*
X2000Y530412D01*
G01X-18000D02*
X-20736D01*
X-23971Y533647D01*
Y548622D01*
X-8593Y564000D01*
X18137D01*
X32636Y578500D01*
X42240D01*
X45928Y582188D01*
X55828D01*
X74300Y600660D01*
Y613996D01*
X89304Y629000D01*
X245000D01*
X256141Y617859D01*
X272359D01*
X275000Y620500D01*
G01X-8000Y530412D02*
X-10457Y527956D01*
X-22881D01*
X-26903Y531977D01*
Y550088D01*
X-10990Y566000D01*
X16500D01*
X37964Y587464D01*
X53103D01*
X70500Y604861D01*
Y617000D01*
X85500Y632000D01*
X247500D01*
X251635Y627865D01*
X315090D01*
X320000Y632775D01*
G01X-18000Y540412D02*
Y545065D01*
X-3065Y560000D01*
X20987D01*
X24388Y563401D01*
X37328D01*
X43510Y569584D01*
X48584D01*
X54372Y575372D01*
X58966D01*
X83091Y599496D01*
X105596D01*
X106100Y600000D01*
X143000D01*
X148000Y595000D01*
X184475D01*
X200486Y611011D01*
X280011D01*
X285000Y616000D01*
G01X290000Y-15500D02*
X284000Y-9500D01*
X97500D01*
X82725Y5275D01*
X49600D01*
X22374Y32500D01*
X-6000D01*
X-15300Y41800D01*
Y52838D01*
X-13000Y55138D01*
G01X-8000Y50138D02*
Y38000D01*
X-4500Y34500D01*
X23732D01*
X50232Y8000D01*
X86000D01*
X99600Y-5600D01*
X288646D01*
X298546Y-15500D01*
X310000D01*
G01X340000Y-28475D02*
Y-27000D01*
X326172Y-13172D01*
X302577D01*
X292404Y-3000D01*
X103000D01*
X89500Y10500D01*
X51070D01*
X20570Y41000D01*
X7800D01*
X2100Y46700D01*
X-3000D01*
X-5300Y49000D01*
Y52838D01*
X-3000Y55138D01*
G01X350000Y-28475D02*
Y-26500D01*
X318808Y4692D01*
X302419D01*
X296111Y11000D01*
X261445D01*
X257245Y15200D01*
X122800D01*
X112500Y25500D01*
X58500D01*
X21162Y62838D01*
X-700D01*
X-3000Y65138D01*
G01X305000Y616000D02*
X297000Y608000D01*
X202500D01*
X186500Y592000D01*
X154500D01*
X152500Y590000D01*
X78725D01*
X55725Y567000D01*
X49202D01*
X43038Y560836D01*
X25161D01*
X22324Y558000D01*
X-546D01*
X-10584Y547962D01*
Y537828D01*
X-13000Y535412D01*
G01X345000Y615500D02*
X335500Y606000D01*
X318500D01*
X307000Y594500D01*
X295000D01*
X286500Y586000D01*
X259000D01*
X228359Y555359D01*
X184359D01*
X179088Y550088D01*
X135455D01*
X130636Y545270D01*
X97065D01*
X96816Y545270D01*
X95000Y543454D01*
Y541880D01*
X93720Y540600D01*
X74100D01*
X66781Y533281D01*
X52982D01*
X50432Y535831D01*
X45341D01*
X42905Y533395D01*
X28895D01*
X23420Y527920D01*
X-493D01*
X-3000Y525412D01*
G01Y535412D02*
X-553Y537859D01*
Y548007D01*
X5440Y554000D01*
X25944D01*
X27957Y556014D01*
X50014D01*
X53000Y559000D01*
X64581D01*
X73196Y567616D01*
Y568896D01*
X76414Y572114D01*
Y572125D01*
X77351Y573062D01*
X77362D01*
X80300Y576000D01*
X145085D01*
X149585Y580500D01*
X185000D01*
X207000Y602500D01*
X300500D01*
X310500Y612500D01*
X335806D01*
X345000Y621694D01*
Y627775D01*
X350000Y632775D01*
G01X-8000Y540412D02*
Y544988D01*
X3012Y556000D01*
X23682D01*
X26197Y558516D01*
X47016D01*
X50200Y561700D01*
X59952D01*
X84752Y586500D01*
X186000D01*
X204500Y605000D01*
X298500D01*
X309000Y615500D01*
X335000D01*
G01X2000Y50138D02*
X3362D01*
X8900Y44600D01*
X20307D01*
X51907Y13000D01*
X93000D01*
X106000Y0D01*
X295265D01*
X302458Y-7193D01*
X310169Y-7141D01*
X312804Y-9776D01*
X328276D01*
X345000Y-26500D01*
Y-33475D01*
X350000Y-38475D01*
G01X315000Y-7500D02*
X309000Y-1500D01*
X303293D01*
X298793Y3000D01*
X109500D01*
X97000Y15500D01*
X52726D01*
X20826Y47400D01*
X11100D01*
X9300Y49200D01*
Y52838D01*
X7000Y55138D01*
G01X12000Y50138D02*
X14462Y52600D01*
X18964D01*
X53564Y18000D01*
X100000D01*
X112500Y5500D01*
X295000D01*
G01X305000Y8000D02*
X297852Y15148D01*
X272992D01*
X266972Y21168D01*
X158616D01*
X156783Y23000D01*
X131000D01*
X117000Y37000D01*
X57000D01*
X26562Y67438D01*
X9300D01*
X7000Y65138D01*
G01X12000Y60138D02*
X14300Y57838D01*
X21662D01*
X56500Y23000D01*
X107000D01*
X119138Y10862D01*
X256638D01*
X259500Y8000D01*
X285000D01*
G01X330000Y-38475D02*
X335025Y-43500D01*
X353900D01*
X355500Y-41900D01*
Y-18500D01*
X306000Y31000D01*
X168621D01*
X160420Y39201D01*
Y40673D01*
X159093Y42000D01*
X140500D01*
X118362Y64138D01*
X58869D01*
X47190Y75817D01*
X32317D01*
X31500Y75000D01*
X23000D01*
X20503Y77498D01*
X6673D01*
X4300Y75125D01*
Y72438D01*
X2000Y70138D01*
G01X275000Y18187D02*
X269187Y24000D01*
X163349D01*
X160655Y26694D01*
Y29732D01*
X153387Y37000D01*
X130000D01*
X124000Y43000D01*
X83500D01*
X81000Y45500D01*
X64563D01*
X38787Y71276D01*
X20528D01*
X19313Y72490D01*
X14353D01*
X12000Y70138D01*
G01X350000Y622775D02*
Y616600D01*
X331956Y598556D01*
X321056D01*
X263262Y540762D01*
X226351D01*
X198062Y512473D01*
X146027D01*
X144283Y514217D01*
X63345D01*
X63035Y514528D01*
X34009D01*
X31981Y512500D01*
X22000D01*
X21533Y512967D01*
X15473D01*
X15446Y512971D01*
X15254Y512967D01*
X10473D01*
X10446Y512971D01*
X10254Y512967D01*
X5605D01*
X4442Y514129D01*
Y517970D01*
X2000Y520413D01*
G01X300000Y588500D02*
X256500Y545000D01*
X219172D01*
X192298Y518125D01*
X167375D01*
X165329Y520171D01*
X146930D01*
X143359Y516600D01*
X75815D01*
X70055Y522360D01*
X42360D01*
X40300Y520300D01*
X23300D01*
X20943Y517943D01*
X14469D01*
X12000Y520413D01*
G01X290000Y595000D02*
X284500Y589500D01*
X226900D01*
X226754Y589500D01*
X196830Y559576D01*
X130350D01*
X121143Y550370D01*
X83756D01*
X76886Y543500D01*
X69000D01*
X62884Y537384D01*
X59522D01*
X57693Y539213D01*
X43050D01*
X39750Y535912D01*
X26412D01*
X23415Y532915D01*
X14502D01*
X12000Y530412D01*
G01X310000Y603500D02*
X304000Y597500D01*
X288728D01*
X285908Y594680D01*
X220180D01*
X190500Y565000D01*
X120874D01*
X119365Y563491D01*
X86291D01*
X74957Y552157D01*
X66211D01*
X60721Y546667D01*
X28667D01*
X19938Y537938D01*
X9525D01*
X7000Y535412D01*
G01X320000Y602000D02*
X309500Y591500D01*
X296500D01*
X253500Y548500D01*
X214000D01*
X186240Y520740D01*
X178612D01*
X178432Y520733D01*
X178391Y520740D01*
X170740D01*
X166981Y524498D01*
X137245D01*
X133589Y520842D01*
X96128D01*
X95871Y521100D01*
X92472Y524498D01*
X74724D01*
X71723Y527500D01*
X60380D01*
X57655Y524775D01*
X31394D01*
X29585Y522966D01*
X9446D01*
X7000Y525412D01*
G01X330000Y609500D02*
X311500D01*
X302000Y600000D01*
X209500D01*
X186000Y576500D01*
X150500D01*
X145800Y571800D01*
X108315D01*
X107515Y571000D01*
X81500D01*
X67015Y556515D01*
X55927D01*
X50812Y551400D01*
X18900D01*
X11500Y544000D01*
X5588D01*
X2000Y540412D01*
G01X280000Y597200D02*
X217056D01*
X191356Y571500D01*
X154291D01*
X152316Y569525D01*
X109785D01*
X106060Y565800D01*
X83300D01*
X71852Y554352D01*
X62856D01*
X57310Y548805D01*
X24805D01*
X19083Y543083D01*
X14670D01*
X12000Y540412D01*
G01X255000Y8000D02*
X116000D01*
X103656Y20344D01*
X54600D01*
X19806Y55138D01*
X17000D01*
G01X265000Y14000D02*
X261000Y18000D01*
X126500D01*
X116000Y28500D01*
X60500D01*
X23862Y65138D01*
X17000D01*
G01X270000Y583000D02*
X238698Y551698D01*
X186698D01*
X178334Y543334D01*
X149727D01*
X141492Y535100D01*
X93100D01*
X92500Y534500D01*
X75259D01*
X71120Y530361D01*
X42146D01*
X40192Y528407D01*
X29346D01*
X26352Y525412D01*
X17000D01*
G01X260000Y592000D02*
X224500D01*
X204100Y571600D01*
X202249D01*
X192959Y562310D01*
X124118D01*
X121495Y559687D01*
X87587D01*
X74400Y546500D01*
X67230D01*
X63030Y542300D01*
X40801D01*
X37413Y538912D01*
X25123D01*
X21623Y535412D01*
X17000D01*
G01X49500Y-263788D02*
X49073Y-263937D01*
X48753Y-264313D01*
X48540Y-264762D01*
X48380Y-265363D01*
X48327Y-266038D01*
X48380Y-266713D01*
X48540Y-267313D01*
X48753Y-267763D01*
X49073Y-268138D01*
X49500Y-268288D01*
X49927Y-268138D01*
X50247Y-267763D01*
X50460Y-267313D01*
X50620Y-266713D01*
X50673Y-266038D01*
X50620Y-265363D01*
X50460Y-264762D01*
X50247Y-264313D01*
X49927Y-263937D01*
X49500Y-263788D01*
G01X52427Y-267613D02*
X52747Y-267988D01*
X53120Y-268213D01*
X53600Y-268288D01*
X54080Y-268138D01*
X54453Y-267838D01*
X54720Y-267313D01*
X54773Y-266713D01*
X54667Y-266113D01*
X54400Y-265738D01*
X54027Y-265438D01*
X53653Y-265363D01*
X53280Y-265438D01*
X52800Y-265738D01*
X52960Y-263788D01*
X54400D01*
G01X221433Y-182788D02*
Y-187288D01*
X223567D01*
G01X226600Y-182788D02*
X226173Y-182937D01*
X225853Y-183313D01*
X225640Y-183762D01*
X225480Y-184363D01*
X225427Y-185038D01*
X225480Y-185713D01*
X225640Y-186313D01*
X225853Y-186763D01*
X226173Y-187138D01*
X226600Y-187288D01*
X227027Y-187138D01*
X227347Y-186763D01*
X227560Y-186313D01*
X227720Y-185713D01*
X227773Y-185038D01*
X227720Y-184363D01*
X227560Y-183762D01*
X227347Y-183313D01*
X227027Y-182937D01*
X226600Y-182788D01*
G01X229527Y-186613D02*
X229847Y-186988D01*
X230220Y-187213D01*
X230700Y-187288D01*
X231180Y-187138D01*
X231553Y-186838D01*
X231820Y-186313D01*
X231873Y-185713D01*
X231767Y-185113D01*
X231500Y-184738D01*
X231127Y-184438D01*
X230753Y-184363D01*
X230380Y-184438D01*
X229900Y-184738D01*
X230060Y-182788D01*
X231500D01*
G01X233200Y-188787D02*
X236400D01*
G01X237780Y-186688D02*
X238207Y-187063D01*
X238687Y-187288D01*
X239113D01*
X239540Y-187063D01*
X239860Y-186688D01*
X240020Y-186162D01*
X239913Y-185638D01*
X239647Y-185188D01*
X239167Y-184887D01*
X238527Y-184738D01*
X238153Y-184438D01*
X237993Y-183913D01*
X238100Y-183388D01*
X238367Y-183013D01*
X238740Y-182788D01*
X239113D01*
X239487Y-182937D01*
X239807Y-183313D01*
G01X242360Y-182788D02*
X243640D01*
G01X243000D02*
Y-187288D01*
G01X242360D02*
X243640D01*
G01X247420Y-185038D02*
X248487D01*
Y-186388D01*
X248167Y-186838D01*
X247793Y-187138D01*
X247260Y-187288D01*
X246727Y-187138D01*
X246353Y-186838D01*
X246033Y-186388D01*
X245820Y-185863D01*
X245713Y-185263D01*
Y-184738D01*
X245820Y-184288D01*
X246033Y-183762D01*
X246353Y-183313D01*
X246673Y-183013D01*
X247100Y-182788D01*
X247473D01*
X247900Y-182937D01*
X248220Y-183238D01*
G01X249973Y-187288D02*
Y-182788D01*
X252427Y-187288D01*
Y-182788D01*
G01X253967Y-187288D02*
X255300Y-182788D01*
X256633Y-187288D01*
G01X256153Y-185713D02*
X254447D01*
G01X258333Y-182788D02*
Y-187288D01*
X260467D01*
G01X-40000Y607775D02*
Y-19725D01*
X50000D01*
Y-59725D01*
X435000D01*
Y650275D01*
X50000D01*
Y607775D01*
X-40000D01*
G01D02*
X50000D01*
Y650275D01*
X435000D01*
Y-59725D01*
X50000D01*
Y-19725D01*
X-40000D01*
Y607775D01*
G54D19*
G01X-20833Y-226121D02*
X-20500Y-225796D01*
X-20250Y-225254D01*
X-20083Y-224496D01*
X-20250Y-223846D01*
X-20583Y-223413D01*
X-21167Y-223088D01*
X-23417D01*
Y-229588D01*
X-20667D01*
X-20083Y-229154D01*
X-19750Y-228504D01*
X-19583Y-227746D01*
X-19750Y-226988D01*
X-20250Y-226338D01*
X-20833Y-226121D01*
X-23417D01*
G01X-15100Y-229588D02*
X-15767Y-229479D01*
X-16350Y-229046D01*
X-16850Y-228396D01*
X-17183Y-227638D01*
X-17350Y-226771D01*
Y-225904D01*
X-17183Y-225037D01*
X-16850Y-224279D01*
X-16350Y-223629D01*
X-15767Y-223196D01*
X-15100Y-223088D01*
X-14433Y-223196D01*
X-13850Y-223629D01*
X-13350Y-224279D01*
X-13017Y-225037D01*
X-12850Y-225904D01*
Y-226771D01*
X-13017Y-227638D01*
X-13350Y-228396D01*
X-13850Y-229046D01*
X-14433Y-229479D01*
X-15100Y-229588D01*
G01X-10783D02*
X-8700Y-223088D01*
X-6617Y-229588D01*
G01X-7367Y-227313D02*
X-10033D01*
G01X-3967Y-229588D02*
Y-223088D01*
X-1883D01*
X-1217Y-223413D01*
X-800Y-223846D01*
X-633Y-224713D01*
X-800Y-225579D01*
X-1300Y-226121D01*
X-1883Y-226446D01*
X-3967D01*
G01X-1883D02*
X-633Y-229588D01*
G01X2267D02*
Y-223088D01*
X3933D01*
X4600Y-223413D01*
X5100Y-223846D01*
X5517Y-224496D01*
X5850Y-225254D01*
X5933Y-226338D01*
X5850Y-227421D01*
X5517Y-228179D01*
X5100Y-228829D01*
X4600Y-229263D01*
X3933Y-229588D01*
X2267D01*
G01X18400Y-223088D02*
Y-229588D01*
G01Y-228613D02*
X18067Y-229154D01*
X17567Y-229479D01*
X16983Y-229588D01*
X16317Y-229371D01*
X15817Y-228829D01*
X15483Y-228179D01*
X15400Y-227421D01*
X15483Y-226663D01*
X15817Y-226012D01*
X16317Y-225471D01*
X16983Y-225254D01*
X17567Y-225363D01*
X17983Y-225579D01*
X18400Y-226012D01*
G01X22050Y-226663D02*
X24717D01*
X24467Y-225904D01*
X24050Y-225471D01*
X23467Y-225254D01*
X22883Y-225363D01*
X22383Y-225688D01*
X22050Y-226446D01*
X21883Y-227096D01*
Y-227746D01*
X22050Y-228396D01*
X22467Y-229046D01*
X22967Y-229479D01*
X23550Y-229588D01*
X24133Y-229371D01*
X24717Y-228721D01*
G01X28450Y-228829D02*
X28867Y-229263D01*
X29450Y-229588D01*
X29950D01*
X30450Y-229371D01*
X30783Y-229046D01*
X30950Y-228613D01*
X30867Y-227962D01*
X30533Y-227638D01*
X29033Y-226988D01*
X28700Y-226229D01*
X28867Y-225688D01*
X29200Y-225363D01*
X29700Y-225254D01*
X30200Y-225363D01*
X30700Y-225688D01*
G01X36100Y-225254D02*
Y-229588D01*
G01Y-223521D02*
X35933Y-223413D01*
Y-223196D01*
X36100Y-223088D01*
X36267Y-223196D01*
Y-223413D01*
X36100Y-223521D01*
G01X41333Y-231213D02*
X41917Y-231646D01*
X42583Y-231754D01*
X43167Y-231646D01*
X43667Y-231104D01*
X44000Y-230346D01*
Y-225254D01*
G01Y-226121D02*
X43667Y-225688D01*
X43167Y-225363D01*
X42583Y-225254D01*
X41917Y-225471D01*
X41500Y-225904D01*
X41167Y-226663D01*
X41000Y-227421D01*
X41083Y-228071D01*
X41417Y-228829D01*
X41917Y-229371D01*
X42583Y-229588D01*
X43083Y-229479D01*
X43667Y-229046D01*
X44000Y-228613D01*
G01X47483Y-229588D02*
Y-225254D01*
G01Y-226338D02*
X47817Y-225796D01*
X48317Y-225363D01*
X48983Y-225254D01*
X49567Y-225363D01*
X50067Y-225796D01*
X50317Y-226554D01*
Y-229588D01*
G01X54050Y-226663D02*
X56717D01*
X56467Y-225904D01*
X56050Y-225471D01*
X55467Y-225254D01*
X54883Y-225363D01*
X54383Y-225688D01*
X54050Y-226446D01*
X53883Y-227096D01*
Y-227746D01*
X54050Y-228396D01*
X54467Y-229046D01*
X54967Y-229479D01*
X55550Y-229588D01*
X56133Y-229371D01*
X56717Y-228721D01*
G01X60533Y-229588D02*
Y-225254D01*
G01Y-226121D02*
X60950Y-225688D01*
X61367Y-225363D01*
X61950Y-225254D01*
X62367Y-225363D01*
X62867Y-225688D01*
G01X68100Y-229804D02*
X67933Y-229696D01*
Y-229479D01*
X68100Y-229371D01*
X68267Y-229479D01*
Y-229696D01*
X68100Y-229804D01*
G01Y-226879D02*
X67933Y-226771D01*
Y-226554D01*
X68100Y-226446D01*
X68267Y-226554D01*
Y-226771D01*
X68100Y-226879D01*
G01X-25833Y-207088D02*
Y-200588D01*
X-24167D01*
X-23500Y-200913D01*
X-23000Y-201346D01*
X-22583Y-201996D01*
X-22250Y-202754D01*
X-22167Y-203838D01*
X-22250Y-204921D01*
X-22583Y-205679D01*
X-23000Y-206329D01*
X-23500Y-206763D01*
X-24167Y-207088D01*
X-25833D01*
G01X-18850Y-204163D02*
X-16183D01*
X-16433Y-203404D01*
X-16850Y-202971D01*
X-17433Y-202754D01*
X-18017Y-202863D01*
X-18517Y-203188D01*
X-18850Y-203946D01*
X-19017Y-204596D01*
Y-205246D01*
X-18850Y-205896D01*
X-18433Y-206546D01*
X-17933Y-206979D01*
X-17350Y-207088D01*
X-16767Y-206871D01*
X-16183Y-206221D01*
G01X-12450Y-206329D02*
X-12033Y-206763D01*
X-11450Y-207088D01*
X-10950D01*
X-10450Y-206871D01*
X-10117Y-206546D01*
X-9950Y-206113D01*
X-10033Y-205462D01*
X-10367Y-205138D01*
X-11867Y-204488D01*
X-12200Y-203729D01*
X-12033Y-203188D01*
X-11700Y-202863D01*
X-11200Y-202754D01*
X-10700Y-202863D01*
X-10200Y-203188D01*
G01X-4800Y-202754D02*
Y-207088D01*
G01Y-201021D02*
X-4967Y-200913D01*
Y-200696D01*
X-4800Y-200588D01*
X-4633Y-200696D01*
Y-200913D01*
X-4800Y-201021D01*
G01X433Y-208713D02*
X1017Y-209146D01*
X1683Y-209254D01*
X2267Y-209146D01*
X2767Y-208604D01*
X3100Y-207846D01*
Y-202754D01*
G01Y-203621D02*
X2767Y-203188D01*
X2267Y-202863D01*
X1683Y-202754D01*
X1017Y-202971D01*
X600Y-203404D01*
X267Y-204163D01*
X100Y-204921D01*
X183Y-205571D01*
X517Y-206329D01*
X1017Y-206871D01*
X1683Y-207088D01*
X2183Y-206979D01*
X2767Y-206546D01*
X3100Y-206113D01*
G01X6583Y-207088D02*
Y-202754D01*
G01Y-203838D02*
X6917Y-203296D01*
X7417Y-202863D01*
X8083Y-202754D01*
X8667Y-202863D01*
X9167Y-203296D01*
X9417Y-204054D01*
Y-207088D01*
G01X13150Y-204163D02*
X15817D01*
X15567Y-203404D01*
X15150Y-202971D01*
X14567Y-202754D01*
X13983Y-202863D01*
X13483Y-203188D01*
X13150Y-203946D01*
X12983Y-204596D01*
Y-205246D01*
X13150Y-205896D01*
X13567Y-206546D01*
X14067Y-206979D01*
X14650Y-207088D01*
X15233Y-206871D01*
X15817Y-206221D01*
G01X22300Y-200588D02*
Y-207088D01*
G01Y-206113D02*
X21967Y-206654D01*
X21467Y-206979D01*
X20883Y-207088D01*
X20217Y-206871D01*
X19717Y-206329D01*
X19383Y-205679D01*
X19300Y-204921D01*
X19383Y-204163D01*
X19717Y-203512D01*
X20217Y-202971D01*
X20883Y-202754D01*
X21467Y-202863D01*
X21883Y-203079D01*
X22300Y-203512D01*
G01X32100Y-207088D02*
Y-200588D01*
G01Y-203838D02*
X32517Y-203188D01*
X33017Y-202863D01*
X33517Y-202754D01*
X34267Y-202971D01*
X34767Y-203404D01*
X35100Y-204163D01*
Y-205029D01*
X34933Y-205896D01*
X34600Y-206546D01*
X34017Y-206979D01*
X33517Y-207088D01*
X33017Y-206979D01*
X32517Y-206654D01*
X32100Y-206113D01*
G01X38250Y-209037D02*
X38750Y-209254D01*
X39417Y-209037D01*
X39833Y-208604D01*
X40167Y-208062D01*
X40667Y-206329D01*
X41750Y-202754D01*
G01X39083D02*
X40667Y-206329D01*
G01X51050Y-207088D02*
X54550Y-200588D01*
G01X51050D02*
X54550Y-207088D01*
G01X59200Y-202754D02*
Y-207088D01*
G01Y-201021D02*
X59033Y-200913D01*
Y-200696D01*
X59200Y-200588D01*
X59367Y-200696D01*
Y-200913D01*
X59200Y-201021D01*
G01X65600Y-207088D02*
Y-200588D01*
G01X72000Y-202754D02*
Y-207088D01*
G01Y-201021D02*
X71833Y-200913D01*
Y-200696D01*
X72000Y-200588D01*
X72167Y-200696D01*
Y-200913D01*
X72000Y-201021D01*
G01X76983Y-207088D02*
Y-202754D01*
G01Y-203838D02*
X77317Y-203296D01*
X77817Y-202863D01*
X78483Y-202754D01*
X79067Y-202863D01*
X79567Y-203296D01*
X79817Y-204054D01*
Y-207088D01*
G01X83550Y-202754D02*
X86050Y-207088D01*
G01Y-202754D02*
X83550Y-207088D01*
G01X-25667Y-184588D02*
Y-178088D01*
X-23667D01*
X-23000Y-178413D01*
X-22500Y-179171D01*
X-22333Y-180037D01*
X-22500Y-180904D01*
X-22917Y-181554D01*
X-23667Y-181879D01*
X-25667D01*
G01X-15767Y-178629D02*
X-16267Y-178304D01*
X-16850Y-178088D01*
X-17517D01*
X-18267Y-178413D01*
X-18850Y-178954D01*
X-19267Y-179604D01*
X-19600Y-180688D01*
X-19683Y-181663D01*
X-19517Y-182638D01*
X-19267Y-183288D01*
X-18767Y-183938D01*
X-18183Y-184371D01*
X-17600Y-184588D01*
X-17017D01*
X-16433Y-184371D01*
X-15933Y-184046D01*
X-15517Y-183613D01*
G01X-10533Y-181121D02*
X-10200Y-180796D01*
X-9950Y-180254D01*
X-9783Y-179496D01*
X-9950Y-178846D01*
X-10283Y-178413D01*
X-10867Y-178088D01*
X-13117D01*
Y-184588D01*
X-10367D01*
X-9783Y-184154D01*
X-9450Y-183504D01*
X-9283Y-182746D01*
X-9450Y-181988D01*
X-9950Y-181338D01*
X-10533Y-181121D01*
X-13117D01*
G01X-67Y-186754D02*
X1600Y-178088D01*
G01X3267D02*
X1600Y-186754D01*
G01X-900Y-183504D02*
X4100D01*
G01Y-181338D02*
X-900D01*
G01X33600Y-184588D02*
Y-178088D01*
X32600Y-179387D01*
G01Y-184588D02*
X34600D01*
G01X38417Y-179171D02*
X38917Y-178521D01*
X39500Y-178196D01*
X40167Y-178088D01*
X41000Y-178304D01*
X41583Y-178846D01*
X41750Y-179496D01*
X41667Y-180146D01*
X41333Y-180688D01*
X39667Y-181771D01*
X38917Y-182529D01*
X38417Y-183613D01*
X38250Y-184588D01*
X41750D01*
G01X46400D02*
X46983Y-184479D01*
X47650Y-184154D01*
X48067Y-183613D01*
X48233Y-182854D01*
X48067Y-182096D01*
X47567Y-181446D01*
X46817Y-181121D01*
X45983D01*
X45483Y-180904D01*
X45067Y-180363D01*
X44900Y-179604D01*
X45150Y-178846D01*
X45733Y-178304D01*
X46400Y-178088D01*
X47067Y-178304D01*
X47650Y-178846D01*
X47900Y-179604D01*
X47733Y-180363D01*
X47317Y-180904D01*
X46817Y-181121D01*
X45983D01*
X45233Y-181446D01*
X44733Y-182096D01*
X44567Y-182854D01*
X44733Y-183613D01*
X45150Y-184154D01*
X45817Y-184479D01*
X46400Y-184588D01*
G01X52800D02*
Y-178088D01*
X51800Y-179387D01*
G01Y-184588D02*
X53800D01*
G01X59200Y-178088D02*
X58533Y-178304D01*
X58033Y-178846D01*
X57700Y-179496D01*
X57450Y-180363D01*
X57367Y-181338D01*
X57450Y-182313D01*
X57700Y-183179D01*
X58033Y-183829D01*
X58533Y-184371D01*
X59200Y-184588D01*
X59867Y-184371D01*
X60367Y-183829D01*
X60700Y-183179D01*
X60950Y-182313D01*
X61033Y-181338D01*
X60950Y-180363D01*
X60700Y-179496D01*
X60367Y-178846D01*
X59867Y-178304D01*
X59200Y-178088D01*
G01X64017Y-179171D02*
X64517Y-178521D01*
X65100Y-178196D01*
X65767Y-178088D01*
X66600Y-178304D01*
X67183Y-178846D01*
X67350Y-179496D01*
X67267Y-180146D01*
X66933Y-180688D01*
X65267Y-181771D01*
X64517Y-182529D01*
X64017Y-183613D01*
X63850Y-184588D01*
X67350D01*
G01X72000D02*
Y-178088D01*
X71000Y-179387D01*
G01Y-184588D02*
X73000D01*
G01X-26083Y-164588D02*
X-24000Y-158088D01*
X-21917Y-164588D01*
G01X-22667Y-162313D02*
X-25333D01*
G01X-19267Y-164588D02*
Y-158088D01*
X-17183D01*
X-16517Y-158413D01*
X-16100Y-158846D01*
X-15933Y-159713D01*
X-16100Y-160579D01*
X-16600Y-161121D01*
X-17183Y-161446D01*
X-19267D01*
G01X-17183D02*
X-15933Y-164588D01*
G01X-11200Y-158088D02*
Y-164588D01*
G01X-13117Y-158088D02*
X-9283D01*
G01X-7300D02*
X-6133Y-164588D01*
X-4800Y-158088D01*
X-3467Y-164588D01*
X-2300Y-158088D01*
G01X1600Y-164588D02*
X933Y-164479D01*
X350Y-164046D01*
X-150Y-163396D01*
X-483Y-162638D01*
X-650Y-161771D01*
Y-160904D01*
X-483Y-160037D01*
X-150Y-159279D01*
X350Y-158629D01*
X933Y-158196D01*
X1600Y-158088D01*
X2267Y-158196D01*
X2850Y-158629D01*
X3350Y-159279D01*
X3683Y-160037D01*
X3850Y-160904D01*
Y-161771D01*
X3683Y-162638D01*
X3350Y-163396D01*
X2850Y-164046D01*
X2267Y-164479D01*
X1600Y-164588D01*
G01X6333D02*
Y-158088D01*
X8417D01*
X9083Y-158413D01*
X9500Y-158846D01*
X9667Y-159713D01*
X9500Y-160579D01*
X9000Y-161121D01*
X8417Y-161446D01*
X6333D01*
G01X8417D02*
X9667Y-164588D01*
G01X12567D02*
Y-158088D01*
G01X15733D02*
X12567Y-162096D01*
G01X16233Y-164588D02*
X13983Y-160254D01*
G01X20633Y-165779D02*
X20967Y-164371D01*
G01X31933Y-164588D02*
Y-158088D01*
X34017D01*
X34683Y-158413D01*
X35100Y-158846D01*
X35267Y-159713D01*
X35100Y-160579D01*
X34600Y-161121D01*
X34017Y-161446D01*
X31933D01*
G01X34017D02*
X35267Y-164588D01*
G01X40000D02*
X39333Y-164479D01*
X38750Y-164046D01*
X38250Y-163396D01*
X37917Y-162638D01*
X37750Y-161771D01*
Y-160904D01*
X37917Y-160037D01*
X38250Y-159279D01*
X38750Y-158629D01*
X39333Y-158196D01*
X40000Y-158088D01*
X40667Y-158196D01*
X41250Y-158629D01*
X41750Y-159279D01*
X42083Y-160037D01*
X42250Y-160904D01*
Y-161771D01*
X42083Y-162638D01*
X41750Y-163396D01*
X41250Y-164046D01*
X40667Y-164479D01*
X40000Y-164588D01*
G01X44650D02*
Y-158088D01*
G01X48150D02*
Y-164588D01*
G01Y-161338D02*
X44650D01*
G01X51050Y-163721D02*
X51717Y-164263D01*
X52467Y-164588D01*
X53133D01*
X53800Y-164263D01*
X54300Y-163721D01*
X54550Y-162962D01*
X54383Y-162204D01*
X53967Y-161554D01*
X53217Y-161121D01*
X52217Y-160904D01*
X51633Y-160471D01*
X51383Y-159713D01*
X51550Y-158954D01*
X51967Y-158413D01*
X52550Y-158088D01*
X53133D01*
X53717Y-158304D01*
X54217Y-158846D01*
G01X67433Y-158629D02*
X66933Y-158304D01*
X66350Y-158088D01*
X65683D01*
X64933Y-158413D01*
X64350Y-158954D01*
X63933Y-159604D01*
X63600Y-160688D01*
X63517Y-161663D01*
X63683Y-162638D01*
X63933Y-163288D01*
X64433Y-163938D01*
X65017Y-164371D01*
X65600Y-164588D01*
X66183D01*
X66767Y-164371D01*
X67267Y-164046D01*
X67683Y-163613D01*
G01X72000Y-164588D02*
X71333Y-164479D01*
X70750Y-164046D01*
X70250Y-163396D01*
X69917Y-162638D01*
X69750Y-161771D01*
Y-160904D01*
X69917Y-160037D01*
X70250Y-159279D01*
X70750Y-158629D01*
X71333Y-158196D01*
X72000Y-158088D01*
X72667Y-158196D01*
X73250Y-158629D01*
X73750Y-159279D01*
X74083Y-160037D01*
X74250Y-160904D01*
Y-161771D01*
X74083Y-162638D01*
X73750Y-163396D01*
X73250Y-164046D01*
X72667Y-164479D01*
X72000Y-164588D01*
G01X76233D02*
Y-158088D01*
X78400Y-163504D01*
X80567Y-158088D01*
Y-164588D01*
G01X83133D02*
Y-158088D01*
X85133D01*
X85800Y-158413D01*
X86300Y-159171D01*
X86467Y-160037D01*
X86300Y-160904D01*
X85883Y-161554D01*
X85133Y-161879D01*
X83133D01*
G01X89533Y-158088D02*
Y-164588D01*
X92867D01*
G01X96600Y-158088D02*
X98600D01*
G01X97600D02*
Y-164588D01*
G01X96600D02*
X98600D01*
G01X101917D02*
X104000Y-158088D01*
X106083Y-164588D01*
G01X105333Y-162313D02*
X102667D01*
G01X108483Y-164588D02*
Y-158088D01*
X112317Y-164588D01*
Y-158088D01*
G01X116800D02*
Y-164588D01*
G01X114883Y-158088D02*
X118717D01*
G01X123033Y-165779D02*
X123367Y-164371D01*
G01X134250Y-164588D02*
Y-158088D01*
G01X137750D02*
Y-164588D01*
G01Y-161338D02*
X134250D01*
G01X139900Y-158088D02*
X141067Y-164588D01*
X142400Y-158088D01*
X143733Y-164588D01*
X144900Y-158088D01*
G01X147717Y-162421D02*
X149883D01*
G01X153617Y-164588D02*
Y-158088D01*
X156783D01*
G01X155617Y-161229D02*
X153617D01*
G01X159433Y-164588D02*
Y-158088D01*
X161600Y-163504D01*
X163767Y-158088D01*
Y-164588D01*
G01X169833Y-158629D02*
X169333Y-158304D01*
X168750Y-158088D01*
X168083D01*
X167333Y-158413D01*
X166750Y-158954D01*
X166333Y-159604D01*
X166000Y-160688D01*
X165917Y-161663D01*
X166083Y-162638D01*
X166333Y-163288D01*
X166833Y-163938D01*
X167417Y-164371D01*
X168000Y-164588D01*
X168583D01*
X169167Y-164371D01*
X169667Y-164046D01*
X170083Y-163613D01*
G01X173317Y-162421D02*
X175483D01*
G01X179050Y-164588D02*
X182550Y-158088D01*
G01X179050D02*
X182550Y-164588D01*
G01X185033D02*
Y-158088D01*
X187200Y-163504D01*
X189367Y-158088D01*
Y-164588D01*
G01X191767Y-163613D02*
X192267Y-164154D01*
X192850Y-164479D01*
X193600Y-164588D01*
X194350Y-164371D01*
X194933Y-163938D01*
X195350Y-163179D01*
X195433Y-162313D01*
X195267Y-161446D01*
X194850Y-160904D01*
X194267Y-160471D01*
X193683Y-160363D01*
X193100Y-160471D01*
X192350Y-160904D01*
X192600Y-158088D01*
X194850D01*
G01X200000D02*
X199333Y-158304D01*
X198833Y-158846D01*
X198500Y-159496D01*
X198250Y-160363D01*
X198167Y-161338D01*
X198250Y-162313D01*
X198500Y-163179D01*
X198833Y-163829D01*
X199333Y-164371D01*
X200000Y-164588D01*
X200667Y-164371D01*
X201167Y-163829D01*
X201500Y-163179D01*
X201750Y-162313D01*
X201833Y-161338D01*
X201750Y-160363D01*
X201500Y-159496D01*
X201167Y-158846D01*
X200667Y-158304D01*
X200000Y-158088D01*
G01X206400D02*
X205733Y-158304D01*
X205233Y-158846D01*
X204900Y-159496D01*
X204650Y-160363D01*
X204567Y-161338D01*
X204650Y-162313D01*
X204900Y-163179D01*
X205233Y-163829D01*
X205733Y-164371D01*
X206400Y-164588D01*
X207067Y-164371D01*
X207567Y-163829D01*
X207900Y-163179D01*
X208150Y-162313D01*
X208233Y-161338D01*
X208150Y-160363D01*
X207900Y-159496D01*
X207567Y-158846D01*
X207067Y-158304D01*
X206400Y-158088D01*
G01X-13000Y525388D02*
Y525412D01*
G01X7650Y-267421D02*
X8317Y-267963D01*
X9067Y-268288D01*
X9733D01*
X10400Y-267963D01*
X10900Y-267421D01*
X11150Y-266662D01*
X10983Y-265904D01*
X10567Y-265254D01*
X9817Y-264821D01*
X8817Y-264604D01*
X8233Y-264171D01*
X7983Y-263413D01*
X8150Y-262654D01*
X8567Y-262113D01*
X9150Y-261788D01*
X9733D01*
X10317Y-262004D01*
X10817Y-262546D01*
G01X14050Y-268288D02*
Y-261788D01*
G01X17550D02*
Y-268288D01*
G01Y-265038D02*
X14050D01*
G01X23867Y-268288D02*
X20533D01*
Y-261788D01*
X23867D01*
G01X22533Y-264929D02*
X20533D01*
G01X30267Y-268288D02*
X26933D01*
Y-261788D01*
X30267D01*
G01X28933Y-264929D02*
X26933D01*
G01X35000Y-261788D02*
Y-268288D01*
G01X33083Y-261788D02*
X36917D01*
G01X73400Y-268288D02*
X72733Y-268179D01*
X72150Y-267746D01*
X71650Y-267096D01*
X71317Y-266338D01*
X71150Y-265471D01*
Y-264604D01*
X71317Y-263737D01*
X71650Y-262979D01*
X72150Y-262329D01*
X72733Y-261896D01*
X73400Y-261788D01*
X74067Y-261896D01*
X74650Y-262329D01*
X75150Y-262979D01*
X75483Y-263737D01*
X75650Y-264604D01*
Y-265471D01*
X75483Y-266338D01*
X75150Y-267096D01*
X74650Y-267746D01*
X74067Y-268179D01*
X73400Y-268288D01*
G01X78217D02*
Y-261788D01*
X81383D01*
G01X80217Y-264929D02*
X78217D01*
G01X92600Y-268288D02*
Y-261788D01*
X91600Y-263087D01*
G01Y-268288D02*
X93600D01*
G01X97417Y-262871D02*
X97917Y-262221D01*
X98500Y-261896D01*
X99167Y-261788D01*
X100000Y-262004D01*
X100583Y-262546D01*
X100750Y-263196D01*
X100667Y-263846D01*
X100333Y-264388D01*
X98667Y-265471D01*
X97917Y-266229D01*
X97417Y-267313D01*
X97250Y-268288D01*
X100750D01*
G01X110000Y-226338D02*
X111667D01*
Y-228288D01*
X111167Y-228938D01*
X110583Y-229371D01*
X109750Y-229588D01*
X108917Y-229371D01*
X108333Y-228938D01*
X107833Y-228288D01*
X107500Y-227529D01*
X107333Y-226663D01*
Y-225904D01*
X107500Y-225254D01*
X107833Y-224496D01*
X108333Y-223846D01*
X108833Y-223413D01*
X109500Y-223088D01*
X110083D01*
X110750Y-223304D01*
X111250Y-223738D01*
G01X114233Y-229588D02*
Y-223088D01*
X116317D01*
X116983Y-223413D01*
X117400Y-223846D01*
X117567Y-224713D01*
X117400Y-225579D01*
X116900Y-226121D01*
X116317Y-226446D01*
X114233D01*
G01X116317D02*
X117567Y-229588D01*
G01X123967D02*
X120633D01*
Y-223088D01*
X123967D01*
G01X122633Y-226229D02*
X120633D01*
G01X129200Y-226338D02*
X130867D01*
Y-228288D01*
X130367Y-228938D01*
X129783Y-229371D01*
X128950Y-229588D01*
X128117Y-229371D01*
X127533Y-228938D01*
X127033Y-228288D01*
X126700Y-227529D01*
X126533Y-226663D01*
Y-225904D01*
X126700Y-225254D01*
X127033Y-224496D01*
X127533Y-223846D01*
X128033Y-223413D01*
X128700Y-223088D01*
X129283D01*
X129950Y-223304D01*
X130450Y-223738D01*
G01X140500Y-223088D02*
X142500D01*
G01X141500D02*
Y-229588D01*
G01X140500D02*
X142500D01*
G01X147900Y-229804D02*
X147733Y-229696D01*
Y-229479D01*
X147900Y-229371D01*
X148067Y-229479D01*
Y-229696D01*
X147900Y-229804D01*
G01X179833Y-229588D02*
Y-223088D01*
X181833D01*
X182500Y-223413D01*
X183000Y-224171D01*
X183167Y-225037D01*
X183000Y-225904D01*
X182583Y-226554D01*
X181833Y-226879D01*
X179833D01*
G01X186150Y-229588D02*
Y-223088D01*
G01X189650D02*
Y-229588D01*
G01Y-226338D02*
X186150D01*
G01X194300Y-229588D02*
X193633Y-229479D01*
X193050Y-229046D01*
X192550Y-228396D01*
X192217Y-227638D01*
X192050Y-226771D01*
Y-225904D01*
X192217Y-225037D01*
X192550Y-224279D01*
X193050Y-223629D01*
X193633Y-223196D01*
X194300Y-223088D01*
X194967Y-223196D01*
X195550Y-223629D01*
X196050Y-224279D01*
X196383Y-225037D01*
X196550Y-225904D01*
Y-226771D01*
X196383Y-227638D01*
X196050Y-228396D01*
X195550Y-229046D01*
X194967Y-229479D01*
X194300Y-229588D01*
G01X198783D02*
Y-223088D01*
X202617Y-229588D01*
Y-223088D01*
G01X208767Y-229588D02*
X205433D01*
Y-223088D01*
X208767D01*
G01X207433Y-226229D02*
X205433D01*
G01X213500Y-229804D02*
X213333Y-229696D01*
Y-229479D01*
X213500Y-229371D01*
X213667Y-229479D01*
Y-229696D01*
X213500Y-229804D01*
G01Y-226879D02*
X213333Y-226771D01*
Y-226554D01*
X213500Y-226446D01*
X213667Y-226554D01*
Y-226771D01*
X213500Y-226879D01*
G01X177167Y-207088D02*
Y-200588D01*
X178833D01*
X179500Y-200913D01*
X180000Y-201346D01*
X180417Y-201996D01*
X180750Y-202754D01*
X180833Y-203838D01*
X180750Y-204921D01*
X180417Y-205679D01*
X180000Y-206329D01*
X179500Y-206763D01*
X178833Y-207088D01*
X177167D01*
G01X183317D02*
X185400Y-200588D01*
X187483Y-207088D01*
G01X186733Y-204813D02*
X184067D01*
G01X191800Y-200588D02*
Y-207088D01*
G01X189883Y-200588D02*
X193717D01*
G01X199867Y-207088D02*
X196533D01*
Y-200588D01*
X199867D01*
G01X198533Y-203729D02*
X196533D01*
G01X204600Y-207304D02*
X204433Y-207196D01*
Y-206979D01*
X204600Y-206871D01*
X204767Y-206979D01*
Y-207196D01*
X204600Y-207304D01*
G01Y-204379D02*
X204433Y-204271D01*
Y-204054D01*
X204600Y-203946D01*
X204767Y-204054D01*
Y-204271D01*
X204600Y-204379D01*
G01X179333Y-180588D02*
Y-187088D01*
X182667D01*
G01X185317D02*
X187400Y-180588D01*
X189483Y-187088D01*
G01X188733Y-184813D02*
X186067D01*
G01X193800Y-187088D02*
Y-184163D01*
X192133Y-180588D01*
G01X195467D02*
X193800Y-184163D01*
G01X201867Y-187088D02*
X198533D01*
Y-180588D01*
X201867D01*
G01X200533Y-183729D02*
X198533D01*
G01X204933Y-187088D02*
Y-180588D01*
X207017D01*
X207683Y-180913D01*
X208100Y-181346D01*
X208267Y-182213D01*
X208100Y-183079D01*
X207600Y-183621D01*
X207017Y-183946D01*
X204933D01*
G01X207017D02*
X208267Y-187088D01*
G01X213000Y-187304D02*
X212833Y-187196D01*
Y-186979D01*
X213000Y-186871D01*
X213167Y-186979D01*
Y-187196D01*
X213000Y-187304D01*
G01Y-184379D02*
X212833Y-184271D01*
Y-184054D01*
X213000Y-183946D01*
X213167Y-184054D01*
Y-184271D01*
X213000Y-184379D01*
G01X185333Y-281588D02*
Y-275088D01*
X187417D01*
X188083Y-275413D01*
X188500Y-275846D01*
X188667Y-276713D01*
X188500Y-277579D01*
X188000Y-278121D01*
X187417Y-278446D01*
X185333D01*
G01X187417D02*
X188667Y-281588D01*
G01X195067D02*
X191733D01*
Y-275088D01*
X195067D01*
G01X193733Y-278229D02*
X191733D01*
G01X197717Y-275088D02*
X199800Y-281588D01*
X201883Y-275088D01*
G01X205200D02*
X207200D01*
G01X206200D02*
Y-281588D01*
G01X205200D02*
X207200D01*
G01X210850Y-280721D02*
X211517Y-281263D01*
X212267Y-281588D01*
X212933D01*
X213600Y-281263D01*
X214100Y-280721D01*
X214350Y-279962D01*
X214183Y-279204D01*
X213767Y-278554D01*
X213017Y-278121D01*
X212017Y-277904D01*
X211433Y-277471D01*
X211183Y-276713D01*
X211350Y-275954D01*
X211767Y-275413D01*
X212350Y-275088D01*
X212933D01*
X213517Y-275304D01*
X214017Y-275846D01*
G01X218000Y-275088D02*
X220000D01*
G01X219000D02*
Y-281588D01*
G01X218000D02*
X220000D01*
G01X225400D02*
X224733Y-281479D01*
X224150Y-281046D01*
X223650Y-280396D01*
X223317Y-279638D01*
X223150Y-278771D01*
Y-277904D01*
X223317Y-277037D01*
X223650Y-276279D01*
X224150Y-275629D01*
X224733Y-275196D01*
X225400Y-275088D01*
X226067Y-275196D01*
X226650Y-275629D01*
X227150Y-276279D01*
X227483Y-277037D01*
X227650Y-277904D01*
Y-278771D01*
X227483Y-279638D01*
X227150Y-280396D01*
X226650Y-281046D01*
X226067Y-281479D01*
X225400Y-281588D01*
G01X229883D02*
Y-275088D01*
X233717Y-281588D01*
Y-275088D01*
G01X238200Y-281804D02*
X238033Y-281696D01*
Y-281479D01*
X238200Y-281371D01*
X238367Y-281479D01*
Y-281696D01*
X238200Y-281804D01*
G01Y-278879D02*
X238033Y-278771D01*
Y-278554D01*
X238200Y-278446D01*
X238367Y-278554D01*
Y-278771D01*
X238200Y-278879D01*
G01X251000Y-281588D02*
Y-275088D01*
X250000Y-276387D01*
G01Y-281588D02*
X252000D01*
G01X257400Y-281804D02*
X257233Y-281696D01*
Y-281479D01*
X257400Y-281371D01*
X257567Y-281479D01*
Y-281696D01*
X257400Y-281804D01*
G01X263800Y-275088D02*
X263133Y-275304D01*
X262633Y-275846D01*
X262300Y-276496D01*
X262050Y-277363D01*
X261967Y-278338D01*
X262050Y-279313D01*
X262300Y-280179D01*
X262633Y-280829D01*
X263133Y-281371D01*
X263800Y-281588D01*
X264467Y-281371D01*
X264967Y-280829D01*
X265300Y-280179D01*
X265550Y-279313D01*
X265633Y-278338D01*
X265550Y-277363D01*
X265300Y-276496D01*
X264967Y-275846D01*
X264467Y-275304D01*
X263800Y-275088D01*
G01X185150Y-265788D02*
X188650Y-259288D01*
G01X185150D02*
X188650Y-265788D01*
G01X192300Y-259288D02*
X194300D01*
G01X193300D02*
Y-265788D01*
G01X192300D02*
X194300D01*
G01X198033Y-259288D02*
Y-265788D01*
X201367D01*
G01X205100Y-259288D02*
X207100D01*
G01X206100D02*
Y-265788D01*
G01X205100D02*
X207100D01*
G01X210583D02*
Y-259288D01*
X214417Y-265788D01*
Y-259288D01*
G01X217150Y-265788D02*
X220650Y-259288D01*
G01X217150D02*
X220650Y-265788D01*
G01X229867D02*
Y-259288D01*
X231533D01*
X232200Y-259613D01*
X232700Y-260046D01*
X233117Y-260696D01*
X233450Y-261454D01*
X233533Y-262538D01*
X233450Y-263621D01*
X233117Y-264379D01*
X232700Y-265029D01*
X232200Y-265463D01*
X231533Y-265788D01*
X229867D01*
G01X238100D02*
X237433Y-265679D01*
X236850Y-265246D01*
X236350Y-264596D01*
X236017Y-263838D01*
X235850Y-262971D01*
Y-262104D01*
X236017Y-261237D01*
X236350Y-260479D01*
X236850Y-259829D01*
X237433Y-259396D01*
X238100Y-259288D01*
X238767Y-259396D01*
X239350Y-259829D01*
X239850Y-260479D01*
X240183Y-261237D01*
X240350Y-262104D01*
Y-262971D01*
X240183Y-263838D01*
X239850Y-264596D01*
X239350Y-265246D01*
X238767Y-265679D01*
X238100Y-265788D01*
G01X246333Y-259829D02*
X245833Y-259504D01*
X245250Y-259288D01*
X244583D01*
X243833Y-259613D01*
X243250Y-260154D01*
X242833Y-260804D01*
X242500Y-261888D01*
X242417Y-262863D01*
X242583Y-263838D01*
X242833Y-264488D01*
X243333Y-265138D01*
X243917Y-265571D01*
X244500Y-265788D01*
X245083D01*
X245667Y-265571D01*
X246167Y-265246D01*
X246583Y-264813D01*
G01X255467Y-259288D02*
Y-263946D01*
X255800Y-264921D01*
X256467Y-265571D01*
X257300Y-265788D01*
X258133Y-265571D01*
X258800Y-264921D01*
X259133Y-263946D01*
Y-259288D01*
G01X261950Y-264921D02*
X262617Y-265463D01*
X263367Y-265788D01*
X264033D01*
X264700Y-265463D01*
X265200Y-264921D01*
X265450Y-264162D01*
X265283Y-263404D01*
X264867Y-262754D01*
X264117Y-262321D01*
X263117Y-262104D01*
X262533Y-261671D01*
X262283Y-260913D01*
X262450Y-260154D01*
X262867Y-259613D01*
X263450Y-259288D01*
X264033D01*
X264617Y-259504D01*
X265117Y-260046D01*
G01X271767Y-265788D02*
X268433D01*
Y-259288D01*
X271767D01*
G01X270433Y-262429D02*
X268433D01*
G01X282900Y-265788D02*
X282233Y-265679D01*
X281650Y-265246D01*
X281150Y-264596D01*
X280817Y-263838D01*
X280650Y-262971D01*
Y-262104D01*
X280817Y-261237D01*
X281150Y-260479D01*
X281650Y-259829D01*
X282233Y-259396D01*
X282900Y-259288D01*
X283567Y-259396D01*
X284150Y-259829D01*
X284650Y-260479D01*
X284983Y-261237D01*
X285150Y-262104D01*
Y-262971D01*
X284983Y-263838D01*
X284650Y-264596D01*
X284150Y-265246D01*
X283567Y-265679D01*
X282900Y-265788D01*
G01X287383D02*
Y-259288D01*
X291217Y-265788D01*
Y-259288D01*
G01X294033D02*
Y-265788D01*
X297367D01*
G01X302100D02*
Y-262863D01*
X300433Y-259288D01*
G01X303767D02*
X302100Y-262863D01*
G01X233000Y-229588D02*
Y-223088D01*
X229917Y-227746D01*
X234083D01*
G01X238400Y-223088D02*
X237733Y-223304D01*
X237233Y-223846D01*
X236900Y-224496D01*
X236650Y-225363D01*
X236567Y-226338D01*
X236650Y-227313D01*
X236900Y-228179D01*
X237233Y-228829D01*
X237733Y-229371D01*
X238400Y-229588D01*
X239067Y-229371D01*
X239567Y-228829D01*
X239900Y-228179D01*
X240150Y-227313D01*
X240233Y-226338D01*
X240150Y-225363D01*
X239900Y-224496D01*
X239567Y-223846D01*
X239067Y-223304D01*
X238400Y-223088D01*
G01X244800Y-229588D02*
X245383Y-229479D01*
X246050Y-229154D01*
X246467Y-228613D01*
X246633Y-227854D01*
X246467Y-227096D01*
X245967Y-226446D01*
X245217Y-226121D01*
X244383D01*
X243883Y-225904D01*
X243467Y-225363D01*
X243300Y-224604D01*
X243550Y-223846D01*
X244133Y-223304D01*
X244800Y-223088D01*
X245467Y-223304D01*
X246050Y-223846D01*
X246300Y-224604D01*
X246133Y-225363D01*
X245717Y-225904D01*
X245217Y-226121D01*
X244383D01*
X243633Y-226446D01*
X243133Y-227096D01*
X242967Y-227854D01*
X243133Y-228613D01*
X243550Y-229154D01*
X244217Y-229479D01*
X244800Y-229588D01*
G01X250117Y-227421D02*
X252283D01*
G01X257600Y-229588D02*
X258183Y-229479D01*
X258850Y-229154D01*
X259267Y-228613D01*
X259433Y-227854D01*
X259267Y-227096D01*
X258767Y-226446D01*
X258017Y-226121D01*
X257183D01*
X256683Y-225904D01*
X256267Y-225363D01*
X256100Y-224604D01*
X256350Y-223846D01*
X256933Y-223304D01*
X257600Y-223088D01*
X258267Y-223304D01*
X258850Y-223846D01*
X259100Y-224604D01*
X258933Y-225363D01*
X258517Y-225904D01*
X258017Y-226121D01*
X257183D01*
X256433Y-226446D01*
X255933Y-227096D01*
X255767Y-227854D01*
X255933Y-228613D01*
X256350Y-229154D01*
X257017Y-229479D01*
X257600Y-229588D01*
G01X263833D02*
X264000Y-228179D01*
X264250Y-226988D01*
X264583Y-225904D01*
X265000Y-224713D01*
X265667Y-223088D01*
X262333D01*
G01X268983Y-228829D02*
X269567Y-229371D01*
X270233Y-229588D01*
X270900Y-229371D01*
X271483Y-228721D01*
X271900Y-227746D01*
X272067Y-226771D01*
Y-225579D01*
X271900Y-224604D01*
X271483Y-223738D01*
X270983Y-223304D01*
X270400Y-223088D01*
X269733Y-223304D01*
X269233Y-223738D01*
X268900Y-224387D01*
X268733Y-225254D01*
X268900Y-226012D01*
X269317Y-226771D01*
X269817Y-227204D01*
X270400Y-227313D01*
X271067Y-227096D01*
X271567Y-226554D01*
X272067Y-225579D01*
G01X275717Y-227421D02*
X277883D01*
G01X281617Y-226879D02*
X282200Y-226121D01*
X282700Y-225688D01*
X283367Y-225471D01*
X283950Y-225688D01*
X284367Y-226121D01*
X284700Y-226771D01*
X284783Y-227529D01*
X284700Y-228179D01*
X284367Y-228829D01*
X283867Y-229371D01*
X283283Y-229588D01*
X282617Y-229371D01*
X282033Y-228721D01*
X281700Y-227746D01*
X281617Y-226663D01*
X281783Y-225254D01*
X282033Y-224496D01*
X282450Y-223738D01*
X283033Y-223196D01*
X283617Y-223088D01*
X284200Y-223304D01*
X284617Y-223846D01*
G01X289600Y-229588D02*
X290183Y-229479D01*
X290850Y-229154D01*
X291267Y-228613D01*
X291433Y-227854D01*
X291267Y-227096D01*
X290767Y-226446D01*
X290017Y-226121D01*
X289183D01*
X288683Y-225904D01*
X288267Y-225363D01*
X288100Y-224604D01*
X288350Y-223846D01*
X288933Y-223304D01*
X289600Y-223088D01*
X290267Y-223304D01*
X290850Y-223846D01*
X291100Y-224604D01*
X290933Y-225363D01*
X290517Y-225904D01*
X290017Y-226121D01*
X289183D01*
X288433Y-226446D01*
X287933Y-227096D01*
X287767Y-227854D01*
X287933Y-228613D01*
X288350Y-229154D01*
X289017Y-229479D01*
X289600Y-229588D01*
G01X295833D02*
X296000Y-228179D01*
X296250Y-226988D01*
X296583Y-225904D01*
X297000Y-224713D01*
X297667Y-223088D01*
X294333D01*
G01X302400D02*
X301733Y-223304D01*
X301233Y-223846D01*
X300900Y-224496D01*
X300650Y-225363D01*
X300567Y-226338D01*
X300650Y-227313D01*
X300900Y-228179D01*
X301233Y-228829D01*
X301733Y-229371D01*
X302400Y-229588D01*
X303067Y-229371D01*
X303567Y-228829D01*
X303900Y-228179D01*
X304150Y-227313D01*
X304233Y-226338D01*
X304150Y-225363D01*
X303900Y-224496D01*
X303567Y-223846D01*
X303067Y-223304D01*
X302400Y-223088D01*
G01X229000Y-200588D02*
X228333Y-200804D01*
X227833Y-201346D01*
X227500Y-201996D01*
X227250Y-202863D01*
X227167Y-203838D01*
X227250Y-204813D01*
X227500Y-205679D01*
X227833Y-206329D01*
X228333Y-206871D01*
X229000Y-207088D01*
X229667Y-206871D01*
X230167Y-206329D01*
X230500Y-205679D01*
X230750Y-204813D01*
X230833Y-203838D01*
X230750Y-202863D01*
X230500Y-201996D01*
X230167Y-201346D01*
X229667Y-200804D01*
X229000Y-200588D01*
G01X233817Y-204379D02*
X234400Y-203621D01*
X234900Y-203188D01*
X235567Y-202971D01*
X236150Y-203188D01*
X236567Y-203621D01*
X236900Y-204271D01*
X236983Y-205029D01*
X236900Y-205679D01*
X236567Y-206329D01*
X236067Y-206871D01*
X235483Y-207088D01*
X234817Y-206871D01*
X234233Y-206221D01*
X233900Y-205246D01*
X233817Y-204163D01*
X233983Y-202754D01*
X234233Y-201996D01*
X234650Y-201238D01*
X235233Y-200696D01*
X235817Y-200588D01*
X236400Y-200804D01*
X236817Y-201346D01*
G01X240300Y-207304D02*
X243300Y-200588D01*
G01X248200Y-207088D02*
Y-200588D01*
X247200Y-201887D01*
G01Y-207088D02*
X249200D01*
G01X255600D02*
Y-200588D01*
X252517Y-205246D01*
X256683D01*
G01X259500Y-207304D02*
X262500Y-200588D01*
G01X265817Y-201671D02*
X266317Y-201021D01*
X266900Y-200696D01*
X267567Y-200588D01*
X268400Y-200804D01*
X268983Y-201346D01*
X269150Y-201996D01*
X269067Y-202646D01*
X268733Y-203188D01*
X267067Y-204271D01*
X266317Y-205029D01*
X265817Y-206113D01*
X265650Y-207088D01*
X269150D01*
G01X273800Y-200588D02*
X273133Y-200804D01*
X272633Y-201346D01*
X272300Y-201996D01*
X272050Y-202863D01*
X271967Y-203838D01*
X272050Y-204813D01*
X272300Y-205679D01*
X272633Y-206329D01*
X273133Y-206871D01*
X273800Y-207088D01*
X274467Y-206871D01*
X274967Y-206329D01*
X275300Y-205679D01*
X275550Y-204813D01*
X275633Y-203838D01*
X275550Y-202863D01*
X275300Y-201996D01*
X274967Y-201346D01*
X274467Y-200804D01*
X273800Y-200588D01*
G01X280200Y-207088D02*
Y-200588D01*
X279200Y-201887D01*
G01Y-207088D02*
X281200D01*
G01X286600D02*
X287183Y-206979D01*
X287850Y-206654D01*
X288267Y-206113D01*
X288433Y-205354D01*
X288267Y-204596D01*
X287767Y-203946D01*
X287017Y-203621D01*
X286183D01*
X285683Y-203404D01*
X285267Y-202863D01*
X285100Y-202104D01*
X285350Y-201346D01*
X285933Y-200804D01*
X286600Y-200588D01*
X287267Y-200804D01*
X287850Y-201346D01*
X288100Y-202104D01*
X287933Y-202863D01*
X287517Y-203404D01*
X287017Y-203621D01*
X286183D01*
X285433Y-203946D01*
X284933Y-204596D01*
X284767Y-205354D01*
X284933Y-206113D01*
X285350Y-206654D01*
X286017Y-206979D01*
X286600Y-207088D01*
M02*
