G04 ================== begin FILE IDENTIFICATION RECORD ==================*
G04 Layout Name:  HW-FMC-XM500_Rev1_0_1281021_FINAL.brd*
G04 Film Name:    1281021_HW-FMC-XM500-REV-1_0_L08_SILKSCREEN_BOTTOM*
G04 File Format:  Gerber RS274X*
G04 File Origin:  Cadence Allegro 17.2-S040*
G04 Origin Date:  Thu Jun 14 11:23:18 2018*
G04 *
G04 Layer:  BOARD GEOMETRY/OUTLINE*
G04 Layer:  BOARD GEOMETRY/DESIGN_OUTLINE*
G04 Layer:  REF DES/SILKSCREEN_BOTTOM*
G04 Layer:  PACKAGE GEOMETRY/SILKSCREEN_BOTTOM*
G04 Layer:  BOARD GEOMETRY/SILKSCREEN_BOTTOM*
G04 Layer:  DRAWING FORMAT/TITLE_DATA*
G04 Layer:  DRAWING FORMAT/REVISION_BLOCK*
G04 Layer:  DRAWING FORMAT/REVISION_DATA*
G04 Layer:  BOARD GEOMETRY/ALL*
G04 *
G04 Offset:    (0.0000 0.0000)*
G04 Mirror:    No*
G04 Mode:      Positive*
G04 Rotation:  0*
G04 FullContactRelief:  No*
G04 UndefLineWidth:     5.0000*
G04 ================== end FILE IDENTIFICATION RECORD ====================*
%FSLAX35Y35*MOIN*%
%IR0*IPPOS*OFA0.00000B0.00000*MIA0B0*SFA1.00000B1.00000*%
%ADD10C,.01*%
%ADD11C,.004*%
%ADD12C,.005*%
%ADD13C,.007*%
%ADD14C,.008*%
G75*
%LPD*%
G75*
G36*
G01X287028Y30660D02*
Y43660D01*
X338028D01*
Y30660D01*
X287028D01*
G37*
G54D10*
G01X-33100Y-298588D02*
Y-237087D01*
G01X317000Y-298588D02*
X-33100D01*
G01X-33000Y-237087D02*
Y-149588D01*
G01X-33100Y-237087D02*
X317000D01*
G01X-33000Y-214588D02*
X317000D01*
G01X-33000Y-194588D02*
X317000D01*
G01X-33000Y-169588D02*
X317000D01*
G01X-33000Y-149588D02*
X317000D01*
G01X26100Y34338D02*
Y251038D01*
X16200Y260938D01*
X-26100D01*
Y34338D01*
X26100D01*
G01Y329612D02*
Y546312D01*
X16200Y556212D01*
X-26100D01*
Y329612D01*
X26100D01*
G01X172000Y-298588D02*
Y-194588D01*
G01D02*
Y-169588D01*
G01X317000Y-237087D02*
Y-298588D01*
G01Y-149588D02*
Y-237087D01*
G54D11*
G01X361445Y3100D02*
G03I-6245J0D01*
G54D12*
G01X49500Y-263788D02*
X49073Y-263937D01*
X48753Y-264313D01*
X48540Y-264762D01*
X48380Y-265363D01*
X48327Y-266038D01*
X48380Y-266713D01*
X48540Y-267313D01*
X48753Y-267763D01*
X49073Y-268138D01*
X49500Y-268288D01*
X49927Y-268138D01*
X50247Y-267763D01*
X50460Y-267313D01*
X50620Y-266713D01*
X50673Y-266038D01*
X50620Y-265363D01*
X50460Y-264762D01*
X50247Y-264313D01*
X49927Y-263937D01*
X49500Y-263788D01*
G01X53600Y-268288D02*
X53973Y-268213D01*
X54400Y-267988D01*
X54667Y-267613D01*
X54773Y-267087D01*
X54667Y-266563D01*
X54347Y-266113D01*
X53867Y-265887D01*
X53333D01*
X53013Y-265738D01*
X52747Y-265363D01*
X52640Y-264838D01*
X52800Y-264313D01*
X53173Y-263937D01*
X53600Y-263788D01*
X54027Y-263937D01*
X54400Y-264313D01*
X54560Y-264838D01*
X54453Y-265363D01*
X54187Y-265738D01*
X53867Y-265887D01*
X53333D01*
X52853Y-266113D01*
X52533Y-266563D01*
X52427Y-267087D01*
X52533Y-267613D01*
X52800Y-267988D01*
X53227Y-268213D01*
X53600Y-268288D01*
G01X221433Y-182788D02*
Y-187288D01*
X223567D01*
G01X226600Y-182788D02*
X226173Y-182937D01*
X225853Y-183313D01*
X225640Y-183762D01*
X225480Y-184363D01*
X225427Y-185038D01*
X225480Y-185713D01*
X225640Y-186313D01*
X225853Y-186763D01*
X226173Y-187138D01*
X226600Y-187288D01*
X227027Y-187138D01*
X227347Y-186763D01*
X227560Y-186313D01*
X227720Y-185713D01*
X227773Y-185038D01*
X227720Y-184363D01*
X227560Y-183762D01*
X227347Y-183313D01*
X227027Y-182937D01*
X226600Y-182788D01*
G01X230700Y-187288D02*
X231073Y-187213D01*
X231500Y-186988D01*
X231767Y-186613D01*
X231873Y-186087D01*
X231767Y-185563D01*
X231447Y-185113D01*
X230967Y-184887D01*
X230433D01*
X230113Y-184738D01*
X229847Y-184363D01*
X229740Y-183838D01*
X229900Y-183313D01*
X230273Y-182937D01*
X230700Y-182788D01*
X231127Y-182937D01*
X231500Y-183313D01*
X231660Y-183838D01*
X231553Y-184363D01*
X231287Y-184738D01*
X230967Y-184887D01*
X230433D01*
X229953Y-185113D01*
X229633Y-185563D01*
X229527Y-186087D01*
X229633Y-186613D01*
X229900Y-186988D01*
X230327Y-187213D01*
X230700Y-187288D01*
G01X233200Y-188787D02*
X236400D01*
G01X239327Y-184887D02*
X239540Y-184663D01*
X239700Y-184288D01*
X239807Y-183762D01*
X239700Y-183313D01*
X239487Y-183013D01*
X239113Y-182788D01*
X237673D01*
Y-187288D01*
X239433D01*
X239807Y-186988D01*
X240020Y-186538D01*
X240127Y-186012D01*
X240020Y-185488D01*
X239700Y-185038D01*
X239327Y-184887D01*
X237673D01*
G01X243000Y-187288D02*
X242573Y-187213D01*
X242200Y-186913D01*
X241880Y-186463D01*
X241667Y-185938D01*
X241560Y-185338D01*
Y-184738D01*
X241667Y-184137D01*
X241880Y-183612D01*
X242200Y-183163D01*
X242573Y-182862D01*
X243000Y-182788D01*
X243427Y-182862D01*
X243800Y-183163D01*
X244120Y-183612D01*
X244333Y-184137D01*
X244440Y-184738D01*
Y-185338D01*
X244333Y-185938D01*
X244120Y-186463D01*
X243800Y-186913D01*
X243427Y-187213D01*
X243000Y-187288D01*
G01X247100Y-182788D02*
Y-187288D01*
G01X245873Y-182788D02*
X248327D01*
G01X249600Y-188787D02*
X252800D01*
G01X254180Y-186688D02*
X254607Y-187063D01*
X255087Y-187288D01*
X255513D01*
X255940Y-187063D01*
X256260Y-186688D01*
X256420Y-186162D01*
X256313Y-185638D01*
X256047Y-185188D01*
X255567Y-184887D01*
X254927Y-184738D01*
X254553Y-184438D01*
X254393Y-183913D01*
X254500Y-183388D01*
X254767Y-183013D01*
X255140Y-182788D01*
X255513D01*
X255887Y-182937D01*
X256207Y-183313D01*
G01X258760Y-182788D02*
X260040D01*
G01X259400D02*
Y-187288D01*
G01X258760D02*
X260040D01*
G01X262433Y-182788D02*
Y-187288D01*
X264567D01*
G01X266427D02*
Y-182788D01*
G01X268453D02*
X266427Y-185563D01*
G01X268773Y-187288D02*
X267333Y-184288D01*
G01X344505Y2933D02*
X344235Y3333D01*
X343920Y3533D01*
X343560Y3600D01*
X343110Y3467D01*
X342795Y3133D01*
X342705Y2733D01*
X342750Y2333D01*
X342930Y2000D01*
X343830Y1333D01*
X344235Y867D01*
X344505Y200D01*
X344595Y-400D01*
X342705D01*
G01X340150Y3600D02*
X340510Y3467D01*
X340780Y3133D01*
X340960Y2733D01*
X341095Y2200D01*
X341140Y1600D01*
X341095Y1000D01*
X340960Y467D01*
X340780Y67D01*
X340510Y-267D01*
X340150Y-400D01*
X339790Y-267D01*
X339520Y67D01*
X339340Y467D01*
X339205Y1000D01*
X339160Y1600D01*
X339205Y2200D01*
X339340Y2733D01*
X339520Y3133D01*
X339790Y3467D01*
X340150Y3600D01*
G01X336650Y-400D02*
Y3600D01*
X337190Y2800D01*
G01Y-400D02*
X336110D01*
G01X333150D02*
X332835Y-333D01*
X332475Y-133D01*
X332250Y200D01*
X332160Y667D01*
X332250Y1133D01*
X332520Y1533D01*
X332925Y1733D01*
X333375D01*
X333645Y1867D01*
X333870Y2200D01*
X333960Y2667D01*
X333825Y3133D01*
X333510Y3467D01*
X333150Y3600D01*
X332790Y3467D01*
X332475Y3133D01*
X332340Y2667D01*
X332430Y2200D01*
X332655Y1867D01*
X332925Y1733D01*
X333375D01*
X333780Y1533D01*
X334050Y1133D01*
X334140Y667D01*
X334050Y200D01*
X333825Y-133D01*
X333465Y-333D01*
X333150Y-400D01*
G01X327095D02*
X325205Y3600D01*
G01X327095D02*
X325205Y-400D01*
G01X322650Y2267D02*
Y-400D01*
G01Y3333D02*
X322740Y3400D01*
Y3533D01*
X322650Y3600D01*
X322560Y3533D01*
Y3400D01*
X322650Y3333D01*
G01X319150Y-400D02*
Y3600D01*
G01X315650Y2267D02*
Y-400D01*
G01Y3333D02*
X315740Y3400D01*
Y3533D01*
X315650Y3600D01*
X315560Y3533D01*
Y3400D01*
X315650Y3333D01*
G01X312915Y-400D02*
Y2267D01*
G01Y1600D02*
X312735Y1933D01*
X312465Y2200D01*
X312105Y2267D01*
X311790Y2200D01*
X311520Y1933D01*
X311385Y1467D01*
Y-400D01*
G01X309325Y2267D02*
X307975Y-400D01*
G01Y2267D02*
X309325Y-400D01*
G01X305240Y-1133D02*
X305060Y-267D01*
G01X298690Y3600D02*
X297610D01*
G01X298150D02*
Y-400D01*
G01X298690D02*
X297610D01*
G01X295415D02*
Y2267D01*
G01Y1600D02*
X295235Y1933D01*
X294965Y2200D01*
X294605Y2267D01*
X294290Y2200D01*
X294020Y1933D01*
X293885Y1467D01*
Y-400D01*
G01X290430Y1933D02*
X290745Y2200D01*
X291015Y2267D01*
X291375Y2133D01*
X291645Y1867D01*
X291825Y1400D01*
X291870Y933D01*
X291825Y467D01*
X291645Y67D01*
X291375Y-267D01*
X291015Y-400D01*
X290700Y-267D01*
X290430Y0D01*
G01X287650Y-400D02*
X287920Y-333D01*
X288190Y-67D01*
X288370Y400D01*
X288460Y933D01*
X288370Y1467D01*
X288190Y1933D01*
X287920Y2200D01*
X287650Y2267D01*
X287380Y2200D01*
X287110Y1933D01*
X286930Y1467D01*
X286885Y933D01*
X286930Y400D01*
X287110Y-67D01*
X287380Y-333D01*
X287650Y-400D01*
G01X284780D02*
Y2267D01*
G01Y1733D02*
X284555Y2000D01*
X284330Y2200D01*
X284015Y2267D01*
X283790Y2200D01*
X283520Y2000D01*
G01X281460Y-1733D02*
Y2267D01*
G01Y1667D02*
X281235Y2000D01*
X281010Y2200D01*
X280650Y2267D01*
X280335Y2200D01*
X280020Y1867D01*
X279885Y1400D01*
X279840Y933D01*
X279885Y467D01*
X280020Y0D01*
X280290Y-267D01*
X280650Y-400D01*
X280965Y-333D01*
X281280Y-133D01*
X281460Y133D01*
G01X277150Y-400D02*
X277420Y-333D01*
X277690Y-67D01*
X277870Y400D01*
X277960Y933D01*
X277870Y1467D01*
X277690Y1933D01*
X277420Y2200D01*
X277150Y2267D01*
X276880Y2200D01*
X276610Y1933D01*
X276430Y1467D01*
X276385Y933D01*
X276430Y400D01*
X276610Y-67D01*
X276880Y-333D01*
X277150Y-400D01*
G01X274280D02*
Y2267D01*
G01Y1733D02*
X274055Y2000D01*
X273830Y2200D01*
X273515Y2267D01*
X273290Y2200D01*
X273020Y2000D01*
G01X269340Y-400D02*
Y2267D01*
G01Y1800D02*
X269520Y2067D01*
X269790Y2200D01*
X270105Y2267D01*
X270420Y2133D01*
X270690Y1867D01*
X270870Y1467D01*
X270960Y933D01*
X270870Y400D01*
X270690Y0D01*
X270420Y-267D01*
X270105Y-400D01*
X269790Y-333D01*
X269520Y-133D01*
X269340Y133D01*
G01X266650Y3600D02*
Y-400D01*
G01X267280Y2267D02*
X266020D01*
G01X263825Y1400D02*
X262385D01*
X262520Y1867D01*
X262745Y2133D01*
X263060Y2267D01*
X263375Y2200D01*
X263645Y2000D01*
X263825Y1533D01*
X263915Y1133D01*
Y733D01*
X263825Y333D01*
X263600Y-67D01*
X263330Y-333D01*
X263015Y-400D01*
X262700Y-267D01*
X262385Y133D01*
G01X258840Y3600D02*
Y-400D01*
G01Y200D02*
X259020Y-133D01*
X259290Y-333D01*
X259605Y-400D01*
X259965Y-267D01*
X260235Y67D01*
X260415Y467D01*
X260460Y933D01*
X260415Y1400D01*
X260235Y1800D01*
X259965Y2133D01*
X259605Y2267D01*
X259290Y2200D01*
X259065Y2067D01*
X258840Y1800D01*
G01X362484Y78760D02*
X360234D01*
Y79060D01*
X364284Y83110D01*
X364734D01*
X368934Y79060D01*
Y78760D01*
X366834D01*
G01X375084Y70511D02*
G03X383184Y76211I220J8293D01*
G01X362484Y78761D02*
G03X371785Y66461I12680J-78D01*
G01X366835Y78761D02*
G03X375085Y70511I8115J-135D01*
G01X378684Y66460D02*
X371784D01*
G01X374484Y85060D02*
X375684D01*
G01X373134Y74710D02*
X375234D01*
G01Y74711D02*
G03X378234Y77561I-993J4049D01*
G01X375834Y72910D02*
X374334D01*
G01X374934Y82060D02*
X375534D01*
G01X378085Y80261D02*
G03X375535Y82061I-2831J-1304D01*
G01X366984Y81310D02*
X364509Y83860D01*
X362934Y82360D01*
X362784Y82510D01*
G01X367734Y89410D02*
G03X362784Y82510I9098J-11752D01*
G01X375234Y87311D02*
G03X367133Y81311I-18J-8444D01*
G01X367134Y81310D02*
X366984D01*
G01X369384Y77410D02*
X370284D01*
G01Y77411D02*
G03X373135Y74711I3996J1365D01*
G01X378234Y77560D02*
Y78010D01*
X369234D01*
X369084Y78160D01*
Y79660D01*
G01X374484Y85060D02*
G03X369085Y79661I750J-6149D01*
G01X369384Y76960D02*
G03X374334Y72909I5642J1845D01*
G01X369384Y77410D02*
G03Y76960I1024J-225D01*
G01X378084Y79810D02*
X372534D01*
X372234Y79960D01*
G01X374934Y82060D02*
G03X372234Y79960I422J-3328D01*
G01X383635Y79061D02*
G03X375234Y87311I-8191J62D01*
G01X373134Y91510D02*
G03X367734Y89410I2652J-14811D01*
G01X373134Y91510D02*
Y91660D01*
X371784D01*
Y91885D01*
X378684D01*
Y91660D01*
X377334D01*
Y91510D01*
G01X378684Y66461D02*
G03X387534Y75011I-3100J12064D01*
G01X381085Y80411D02*
G03X375685Y85061I-6308J-1865D01*
G01X381084Y80410D02*
Y77560D01*
G01X375834Y72911D02*
G03X381085Y77560I-603J5972D01*
G01X378084Y80260D02*
Y79810D01*
G01X383484Y76210D02*
X385809Y73960D01*
X387384Y75610D01*
X387534D01*
Y75010D01*
G01X383184Y76210D02*
X383484D01*
G01X387985Y79060D02*
G03X377335Y91510I-12537J56D01*
G01X387984Y79060D02*
X390084D01*
Y78760D01*
X386034Y74710D01*
X385584D01*
X381384Y78760D01*
Y79060D01*
X383634D01*
G01X-40000Y607775D02*
Y-19725D01*
X50000D01*
Y-59725D01*
X435000D01*
Y650275D01*
X50000D01*
Y607775D01*
X-40000D01*
G01D02*
X50000D01*
Y650275D01*
X435000D01*
Y-59725D01*
X50000D01*
Y-19725D01*
X-40000D01*
Y607775D01*
G01X284300Y104042D02*
X338712Y48122D01*
G01X306398Y55740D02*
G03I-4086J0D01*
G01X339810Y104032D02*
X285954Y48156D01*
G01X301394Y54478D02*
X297776Y96976D01*
G01X297718Y96838D02*
G03I-1538J0D01*
G01X298898Y86956D02*
Y91512D01*
G01X328054Y94992D02*
X295218D01*
G01X301826Y99414D02*
G03X297776Y96976I1516J-7100D01*
G01X294316Y91512D02*
Y86956D01*
G01D02*
X298898D01*
G01Y91512D02*
X294316D01*
G01X303308Y55750D02*
G03I-1056J0D01*
G01X321182Y54478D02*
X301394D01*
G01X314002Y84700D02*
X304336D01*
G01Y82652D02*
X314002D01*
G01D02*
Y84700D01*
G01X304336D02*
Y82652D01*
G01X306716Y99146D02*
X313780D01*
G01D02*
Y101554D01*
G01X306716D02*
Y99146D01*
G01X321190Y99217D02*
G03X301826Y99414I-10108J-41713D01*
G01X313780Y101554D02*
X306716D01*
G01X325144Y96840D02*
X321182Y54478D01*
G01X318740Y50758D02*
X320636D01*
G01D02*
Y54478D01*
G01D02*
X318740D01*
G01D02*
Y50758D01*
G01X319470Y97078D02*
X321690D01*
G01D02*
Y100658D01*
G01X319470D02*
Y97078D01*
G01X325144Y96840D02*
G03X321190Y99217I-5352J-4427D01*
G01X321690Y100658D02*
X319470D01*
G54D13*
G01X-35750Y37470D02*
X-30250D01*
G01Y40130D02*
X-35750D01*
G01X-33000D02*
Y37470D01*
G01X-35750Y44260D02*
X-30250D01*
X-34192Y41917D01*
Y45083D01*
G01X-30250Y48200D02*
X-30433Y47693D01*
X-30892Y47313D01*
X-31442Y47060D01*
X-32175Y46870D01*
X-33000Y46807D01*
X-33825Y46870D01*
X-34558Y47060D01*
X-35108Y47313D01*
X-35567Y47693D01*
X-35750Y48200D01*
X-35567Y48707D01*
X-35108Y49087D01*
X-34558Y49340D01*
X-33825Y49530D01*
X-33000Y49593D01*
X-32175Y49530D01*
X-31442Y49340D01*
X-30892Y49087D01*
X-30433Y48707D01*
X-30250Y48200D01*
G01X-35250Y254320D02*
X-29750D01*
G01Y256980D02*
X-35250D01*
G01X-32500D02*
Y254320D01*
G01X-35250Y260350D02*
X-29750D01*
X-30850Y259590D01*
G01X-35250D02*
Y261110D01*
G01X-34750Y330470D02*
X-29250D01*
G01Y333130D02*
X-34750D01*
G01X-32000D02*
Y330470D01*
G01X-34750Y337260D02*
X-29250D01*
X-33192Y334917D01*
Y338083D01*
G01X-29250Y341200D02*
X-29433Y340693D01*
X-29892Y340313D01*
X-30442Y340060D01*
X-31175Y339870D01*
X-32000Y339807D01*
X-32825Y339870D01*
X-33558Y340060D01*
X-34108Y340313D01*
X-34567Y340693D01*
X-34750Y341200D01*
X-34567Y341707D01*
X-34108Y342087D01*
X-33558Y342340D01*
X-32825Y342530D01*
X-32000Y342593D01*
X-31175Y342530D01*
X-30442Y342340D01*
X-29892Y342087D01*
X-29433Y341707D01*
X-29250Y341200D01*
G01X-34750Y550320D02*
X-29250D01*
G01Y552980D02*
X-34750D01*
G01X-32000D02*
Y550320D01*
G01X-34750Y556350D02*
X-29250D01*
X-30350Y555590D01*
G01X-34750D02*
Y557110D01*
G01X30250Y253067D02*
X35750Y254650D01*
X30250Y256233D01*
G01X32175Y255663D02*
Y253637D01*
G01X30250Y259350D02*
X35750D01*
X34650Y258590D01*
G01X30250D02*
Y260110D01*
G01X29750Y329717D02*
X35250Y331300D01*
X29750Y332883D01*
G01X31675Y332313D02*
Y330287D01*
G01X29750Y336760D02*
X35250D01*
X31308Y334417D01*
Y337583D01*
G01X35250Y340700D02*
X35067Y340193D01*
X34608Y339813D01*
X34058Y339560D01*
X33325Y339370D01*
X32500Y339307D01*
X31675Y339370D01*
X30942Y339560D01*
X30392Y339813D01*
X29933Y340193D01*
X29750Y340700D01*
X29933Y341207D01*
X30392Y341587D01*
X30942Y341840D01*
X31675Y342030D01*
X32500Y342093D01*
X33325Y342030D01*
X34058Y341840D01*
X34608Y341587D01*
X35067Y341207D01*
X35250Y340700D01*
G01X30250Y549067D02*
X35750Y550650D01*
X30250Y552233D01*
G01X32175Y551663D02*
Y549637D01*
G01X30250Y555350D02*
X35750D01*
X34650Y554590D01*
G01X30250D02*
Y556110D01*
G01X31250Y36217D02*
X36750Y37800D01*
X31250Y39383D01*
G01X33175Y38813D02*
Y36787D01*
G01X31250Y43260D02*
X36750D01*
X32808Y40917D01*
Y44083D01*
G01X36750Y47200D02*
X36567Y46693D01*
X36108Y46313D01*
X35558Y46060D01*
X34825Y45870D01*
X34000Y45807D01*
X33175Y45870D01*
X32442Y46060D01*
X31892Y46313D01*
X31433Y46693D01*
X31250Y47200D01*
X31433Y47707D01*
X31892Y48087D01*
X32442Y48340D01*
X33175Y48530D01*
X34000Y48593D01*
X34825Y48530D01*
X35558Y48340D01*
X36108Y48087D01*
X36567Y47707D01*
X36750Y47200D01*
G01X49817Y148350D02*
X49500Y147800D01*
X49120Y147433D01*
X48677Y147250D01*
X48170Y147433D01*
X47790Y147800D01*
X47410Y148350D01*
X47283Y149083D01*
Y152750D01*
G01X43850Y147250D02*
X43407Y147342D01*
X42900Y147617D01*
X42583Y148075D01*
X42457Y148717D01*
X42583Y149358D01*
X42963Y149908D01*
X43533Y150183D01*
X44167D01*
X44547Y150367D01*
X44863Y150825D01*
X44990Y151467D01*
X44800Y152108D01*
X44357Y152567D01*
X43850Y152750D01*
X43343Y152567D01*
X42900Y152108D01*
X42710Y151467D01*
X42837Y150825D01*
X43153Y150367D01*
X43533Y150183D01*
X44167D01*
X44737Y149908D01*
X45117Y149358D01*
X45243Y148717D01*
X45117Y148075D01*
X44800Y147617D01*
X44293Y147342D01*
X43850Y147250D01*
G01X39150D02*
X38707Y147342D01*
X38200Y147617D01*
X37883Y148075D01*
X37757Y148717D01*
X37883Y149358D01*
X38263Y149908D01*
X38833Y150183D01*
X39467D01*
X39847Y150367D01*
X40163Y150825D01*
X40290Y151467D01*
X40100Y152108D01*
X39657Y152567D01*
X39150Y152750D01*
X38643Y152567D01*
X38200Y152108D01*
X38010Y151467D01*
X38137Y150825D01*
X38453Y150367D01*
X38833Y150183D01*
X39467D01*
X40037Y149908D01*
X40417Y149358D01*
X40543Y148717D01*
X40417Y148075D01*
X40100Y147617D01*
X39593Y147342D01*
X39150Y147250D01*
G01X34450D02*
X34007Y147342D01*
X33500Y147617D01*
X33183Y148075D01*
X33057Y148717D01*
X33183Y149358D01*
X33563Y149908D01*
X34133Y150183D01*
X34767D01*
X35147Y150367D01*
X35463Y150825D01*
X35590Y151467D01*
X35400Y152108D01*
X34957Y152567D01*
X34450Y152750D01*
X33943Y152567D01*
X33500Y152108D01*
X33310Y151467D01*
X33437Y150825D01*
X33753Y150367D01*
X34133Y150183D01*
X34767D01*
X35337Y149908D01*
X35717Y149358D01*
X35843Y148717D01*
X35717Y148075D01*
X35400Y147617D01*
X34893Y147342D01*
X34450Y147250D01*
G01X47317Y444350D02*
X47000Y443800D01*
X46620Y443433D01*
X46177Y443250D01*
X45670Y443433D01*
X45290Y443800D01*
X44910Y444350D01*
X44783Y445083D01*
Y448750D01*
G01X42743Y444350D02*
X42363Y443708D01*
X41857Y443342D01*
X41287Y443250D01*
X40780Y443342D01*
X40273Y443800D01*
X39957Y444350D01*
X39893Y444900D01*
X40020Y445542D01*
X40463Y446000D01*
X40907Y446183D01*
X41477D01*
G01X40907D02*
X40527Y446458D01*
X40210Y446917D01*
X40083Y447467D01*
X40210Y448017D01*
X40527Y448475D01*
X41097Y448750D01*
X41667Y448658D01*
X42237Y448292D01*
G01X38043Y444350D02*
X37663Y443708D01*
X37157Y443342D01*
X36587Y443250D01*
X36080Y443342D01*
X35573Y443800D01*
X35257Y444350D01*
X35193Y444900D01*
X35320Y445542D01*
X35763Y446000D01*
X36207Y446183D01*
X36777D01*
G01X36207D02*
X35827Y446458D01*
X35510Y446917D01*
X35383Y447467D01*
X35510Y448017D01*
X35827Y448475D01*
X36397Y448750D01*
X36967Y448658D01*
X37537Y448292D01*
G01X33343Y444350D02*
X32963Y443708D01*
X32457Y443342D01*
X31887Y443250D01*
X31380Y443342D01*
X30873Y443800D01*
X30557Y444350D01*
X30493Y444900D01*
X30620Y445542D01*
X31063Y446000D01*
X31507Y446183D01*
X32077D01*
G01X31507D02*
X31127Y446458D01*
X30810Y446917D01*
X30683Y447467D01*
X30810Y448017D01*
X31127Y448475D01*
X31697Y448750D01*
X32267Y448658D01*
X32837Y448292D01*
G01X354087Y4542D02*
X354530Y4908D01*
X354910Y5000D01*
X355417Y4817D01*
X355797Y4450D01*
X356050Y3808D01*
X356113Y3167D01*
X356050Y2525D01*
X355797Y1975D01*
X355417Y1517D01*
X354910Y1333D01*
X354467Y1517D01*
X354087Y1883D01*
G54D14*
G01X-20833Y-226121D02*
X-20500Y-225796D01*
X-20250Y-225254D01*
X-20083Y-224496D01*
X-20250Y-223846D01*
X-20583Y-223413D01*
X-21167Y-223088D01*
X-23417D01*
Y-229588D01*
X-20667D01*
X-20083Y-229154D01*
X-19750Y-228504D01*
X-19583Y-227746D01*
X-19750Y-226988D01*
X-20250Y-226338D01*
X-20833Y-226121D01*
X-23417D01*
G01X-15100Y-229588D02*
X-15767Y-229479D01*
X-16350Y-229046D01*
X-16850Y-228396D01*
X-17183Y-227638D01*
X-17350Y-226771D01*
Y-225904D01*
X-17183Y-225037D01*
X-16850Y-224279D01*
X-16350Y-223629D01*
X-15767Y-223196D01*
X-15100Y-223088D01*
X-14433Y-223196D01*
X-13850Y-223629D01*
X-13350Y-224279D01*
X-13017Y-225037D01*
X-12850Y-225904D01*
Y-226771D01*
X-13017Y-227638D01*
X-13350Y-228396D01*
X-13850Y-229046D01*
X-14433Y-229479D01*
X-15100Y-229588D01*
G01X-10783D02*
X-8700Y-223088D01*
X-6617Y-229588D01*
G01X-7367Y-227313D02*
X-10033D01*
G01X-3967Y-229588D02*
Y-223088D01*
X-1883D01*
X-1217Y-223413D01*
X-800Y-223846D01*
X-633Y-224713D01*
X-800Y-225579D01*
X-1300Y-226121D01*
X-1883Y-226446D01*
X-3967D01*
G01X-1883D02*
X-633Y-229588D01*
G01X2267D02*
Y-223088D01*
X3933D01*
X4600Y-223413D01*
X5100Y-223846D01*
X5517Y-224496D01*
X5850Y-225254D01*
X5933Y-226338D01*
X5850Y-227421D01*
X5517Y-228179D01*
X5100Y-228829D01*
X4600Y-229263D01*
X3933Y-229588D01*
X2267D01*
G01X18400Y-223088D02*
Y-229588D01*
G01Y-228613D02*
X18067Y-229154D01*
X17567Y-229479D01*
X16983Y-229588D01*
X16317Y-229371D01*
X15817Y-228829D01*
X15483Y-228179D01*
X15400Y-227421D01*
X15483Y-226663D01*
X15817Y-226012D01*
X16317Y-225471D01*
X16983Y-225254D01*
X17567Y-225363D01*
X17983Y-225579D01*
X18400Y-226012D01*
G01X22050Y-226663D02*
X24717D01*
X24467Y-225904D01*
X24050Y-225471D01*
X23467Y-225254D01*
X22883Y-225363D01*
X22383Y-225688D01*
X22050Y-226446D01*
X21883Y-227096D01*
Y-227746D01*
X22050Y-228396D01*
X22467Y-229046D01*
X22967Y-229479D01*
X23550Y-229588D01*
X24133Y-229371D01*
X24717Y-228721D01*
G01X28450Y-228829D02*
X28867Y-229263D01*
X29450Y-229588D01*
X29950D01*
X30450Y-229371D01*
X30783Y-229046D01*
X30950Y-228613D01*
X30867Y-227962D01*
X30533Y-227638D01*
X29033Y-226988D01*
X28700Y-226229D01*
X28867Y-225688D01*
X29200Y-225363D01*
X29700Y-225254D01*
X30200Y-225363D01*
X30700Y-225688D01*
G01X36100Y-225254D02*
Y-229588D01*
G01Y-223521D02*
X35933Y-223413D01*
Y-223196D01*
X36100Y-223088D01*
X36267Y-223196D01*
Y-223413D01*
X36100Y-223521D01*
G01X41333Y-231213D02*
X41917Y-231646D01*
X42583Y-231754D01*
X43167Y-231646D01*
X43667Y-231104D01*
X44000Y-230346D01*
Y-225254D01*
G01Y-226121D02*
X43667Y-225688D01*
X43167Y-225363D01*
X42583Y-225254D01*
X41917Y-225471D01*
X41500Y-225904D01*
X41167Y-226663D01*
X41000Y-227421D01*
X41083Y-228071D01*
X41417Y-228829D01*
X41917Y-229371D01*
X42583Y-229588D01*
X43083Y-229479D01*
X43667Y-229046D01*
X44000Y-228613D01*
G01X47483Y-229588D02*
Y-225254D01*
G01Y-226338D02*
X47817Y-225796D01*
X48317Y-225363D01*
X48983Y-225254D01*
X49567Y-225363D01*
X50067Y-225796D01*
X50317Y-226554D01*
Y-229588D01*
G01X54050Y-226663D02*
X56717D01*
X56467Y-225904D01*
X56050Y-225471D01*
X55467Y-225254D01*
X54883Y-225363D01*
X54383Y-225688D01*
X54050Y-226446D01*
X53883Y-227096D01*
Y-227746D01*
X54050Y-228396D01*
X54467Y-229046D01*
X54967Y-229479D01*
X55550Y-229588D01*
X56133Y-229371D01*
X56717Y-228721D01*
G01X60533Y-229588D02*
Y-225254D01*
G01Y-226121D02*
X60950Y-225688D01*
X61367Y-225363D01*
X61950Y-225254D01*
X62367Y-225363D01*
X62867Y-225688D01*
G01X68100Y-229804D02*
X67933Y-229696D01*
Y-229479D01*
X68100Y-229371D01*
X68267Y-229479D01*
Y-229696D01*
X68100Y-229804D01*
G01Y-226879D02*
X67933Y-226771D01*
Y-226554D01*
X68100Y-226446D01*
X68267Y-226554D01*
Y-226771D01*
X68100Y-226879D01*
G01X-25833Y-207088D02*
Y-200588D01*
X-24167D01*
X-23500Y-200913D01*
X-23000Y-201346D01*
X-22583Y-201996D01*
X-22250Y-202754D01*
X-22167Y-203838D01*
X-22250Y-204921D01*
X-22583Y-205679D01*
X-23000Y-206329D01*
X-23500Y-206763D01*
X-24167Y-207088D01*
X-25833D01*
G01X-18850Y-204163D02*
X-16183D01*
X-16433Y-203404D01*
X-16850Y-202971D01*
X-17433Y-202754D01*
X-18017Y-202863D01*
X-18517Y-203188D01*
X-18850Y-203946D01*
X-19017Y-204596D01*
Y-205246D01*
X-18850Y-205896D01*
X-18433Y-206546D01*
X-17933Y-206979D01*
X-17350Y-207088D01*
X-16767Y-206871D01*
X-16183Y-206221D01*
G01X-12450Y-206329D02*
X-12033Y-206763D01*
X-11450Y-207088D01*
X-10950D01*
X-10450Y-206871D01*
X-10117Y-206546D01*
X-9950Y-206113D01*
X-10033Y-205462D01*
X-10367Y-205138D01*
X-11867Y-204488D01*
X-12200Y-203729D01*
X-12033Y-203188D01*
X-11700Y-202863D01*
X-11200Y-202754D01*
X-10700Y-202863D01*
X-10200Y-203188D01*
G01X-4800Y-202754D02*
Y-207088D01*
G01Y-201021D02*
X-4967Y-200913D01*
Y-200696D01*
X-4800Y-200588D01*
X-4633Y-200696D01*
Y-200913D01*
X-4800Y-201021D01*
G01X433Y-208713D02*
X1017Y-209146D01*
X1683Y-209254D01*
X2267Y-209146D01*
X2767Y-208604D01*
X3100Y-207846D01*
Y-202754D01*
G01Y-203621D02*
X2767Y-203188D01*
X2267Y-202863D01*
X1683Y-202754D01*
X1017Y-202971D01*
X600Y-203404D01*
X267Y-204163D01*
X100Y-204921D01*
X183Y-205571D01*
X517Y-206329D01*
X1017Y-206871D01*
X1683Y-207088D01*
X2183Y-206979D01*
X2767Y-206546D01*
X3100Y-206113D01*
G01X6583Y-207088D02*
Y-202754D01*
G01Y-203838D02*
X6917Y-203296D01*
X7417Y-202863D01*
X8083Y-202754D01*
X8667Y-202863D01*
X9167Y-203296D01*
X9417Y-204054D01*
Y-207088D01*
G01X13150Y-204163D02*
X15817D01*
X15567Y-203404D01*
X15150Y-202971D01*
X14567Y-202754D01*
X13983Y-202863D01*
X13483Y-203188D01*
X13150Y-203946D01*
X12983Y-204596D01*
Y-205246D01*
X13150Y-205896D01*
X13567Y-206546D01*
X14067Y-206979D01*
X14650Y-207088D01*
X15233Y-206871D01*
X15817Y-206221D01*
G01X22300Y-200588D02*
Y-207088D01*
G01Y-206113D02*
X21967Y-206654D01*
X21467Y-206979D01*
X20883Y-207088D01*
X20217Y-206871D01*
X19717Y-206329D01*
X19383Y-205679D01*
X19300Y-204921D01*
X19383Y-204163D01*
X19717Y-203512D01*
X20217Y-202971D01*
X20883Y-202754D01*
X21467Y-202863D01*
X21883Y-203079D01*
X22300Y-203512D01*
G01X32100Y-207088D02*
Y-200588D01*
G01Y-203838D02*
X32517Y-203188D01*
X33017Y-202863D01*
X33517Y-202754D01*
X34267Y-202971D01*
X34767Y-203404D01*
X35100Y-204163D01*
Y-205029D01*
X34933Y-205896D01*
X34600Y-206546D01*
X34017Y-206979D01*
X33517Y-207088D01*
X33017Y-206979D01*
X32517Y-206654D01*
X32100Y-206113D01*
G01X38250Y-209037D02*
X38750Y-209254D01*
X39417Y-209037D01*
X39833Y-208604D01*
X40167Y-208062D01*
X40667Y-206329D01*
X41750Y-202754D01*
G01X39083D02*
X40667Y-206329D01*
G01X51050Y-207088D02*
X54550Y-200588D01*
G01X51050D02*
X54550Y-207088D01*
G01X59200Y-202754D02*
Y-207088D01*
G01Y-201021D02*
X59033Y-200913D01*
Y-200696D01*
X59200Y-200588D01*
X59367Y-200696D01*
Y-200913D01*
X59200Y-201021D01*
G01X65600Y-207088D02*
Y-200588D01*
G01X72000Y-202754D02*
Y-207088D01*
G01Y-201021D02*
X71833Y-200913D01*
Y-200696D01*
X72000Y-200588D01*
X72167Y-200696D01*
Y-200913D01*
X72000Y-201021D01*
G01X76983Y-207088D02*
Y-202754D01*
G01Y-203838D02*
X77317Y-203296D01*
X77817Y-202863D01*
X78483Y-202754D01*
X79067Y-202863D01*
X79567Y-203296D01*
X79817Y-204054D01*
Y-207088D01*
G01X83550Y-202754D02*
X86050Y-207088D01*
G01Y-202754D02*
X83550Y-207088D01*
G01X-25667Y-184588D02*
Y-178088D01*
X-23667D01*
X-23000Y-178413D01*
X-22500Y-179171D01*
X-22333Y-180037D01*
X-22500Y-180904D01*
X-22917Y-181554D01*
X-23667Y-181879D01*
X-25667D01*
G01X-15767Y-178629D02*
X-16267Y-178304D01*
X-16850Y-178088D01*
X-17517D01*
X-18267Y-178413D01*
X-18850Y-178954D01*
X-19267Y-179604D01*
X-19600Y-180688D01*
X-19683Y-181663D01*
X-19517Y-182638D01*
X-19267Y-183288D01*
X-18767Y-183938D01*
X-18183Y-184371D01*
X-17600Y-184588D01*
X-17017D01*
X-16433Y-184371D01*
X-15933Y-184046D01*
X-15517Y-183613D01*
G01X-10533Y-181121D02*
X-10200Y-180796D01*
X-9950Y-180254D01*
X-9783Y-179496D01*
X-9950Y-178846D01*
X-10283Y-178413D01*
X-10867Y-178088D01*
X-13117D01*
Y-184588D01*
X-10367D01*
X-9783Y-184154D01*
X-9450Y-183504D01*
X-9283Y-182746D01*
X-9450Y-181988D01*
X-9950Y-181338D01*
X-10533Y-181121D01*
X-13117D01*
G01X-67Y-186754D02*
X1600Y-178088D01*
G01X3267D02*
X1600Y-186754D01*
G01X-900Y-183504D02*
X4100D01*
G01Y-181338D02*
X-900D01*
G01X33600Y-184588D02*
Y-178088D01*
X32600Y-179387D01*
G01Y-184588D02*
X34600D01*
G01X38417Y-179171D02*
X38917Y-178521D01*
X39500Y-178196D01*
X40167Y-178088D01*
X41000Y-178304D01*
X41583Y-178846D01*
X41750Y-179496D01*
X41667Y-180146D01*
X41333Y-180688D01*
X39667Y-181771D01*
X38917Y-182529D01*
X38417Y-183613D01*
X38250Y-184588D01*
X41750D01*
G01X46400D02*
X46983Y-184479D01*
X47650Y-184154D01*
X48067Y-183613D01*
X48233Y-182854D01*
X48067Y-182096D01*
X47567Y-181446D01*
X46817Y-181121D01*
X45983D01*
X45483Y-180904D01*
X45067Y-180363D01*
X44900Y-179604D01*
X45150Y-178846D01*
X45733Y-178304D01*
X46400Y-178088D01*
X47067Y-178304D01*
X47650Y-178846D01*
X47900Y-179604D01*
X47733Y-180363D01*
X47317Y-180904D01*
X46817Y-181121D01*
X45983D01*
X45233Y-181446D01*
X44733Y-182096D01*
X44567Y-182854D01*
X44733Y-183613D01*
X45150Y-184154D01*
X45817Y-184479D01*
X46400Y-184588D01*
G01X52800D02*
Y-178088D01*
X51800Y-179387D01*
G01Y-184588D02*
X53800D01*
G01X59200Y-178088D02*
X58533Y-178304D01*
X58033Y-178846D01*
X57700Y-179496D01*
X57450Y-180363D01*
X57367Y-181338D01*
X57450Y-182313D01*
X57700Y-183179D01*
X58033Y-183829D01*
X58533Y-184371D01*
X59200Y-184588D01*
X59867Y-184371D01*
X60367Y-183829D01*
X60700Y-183179D01*
X60950Y-182313D01*
X61033Y-181338D01*
X60950Y-180363D01*
X60700Y-179496D01*
X60367Y-178846D01*
X59867Y-178304D01*
X59200Y-178088D01*
G01X64017Y-179171D02*
X64517Y-178521D01*
X65100Y-178196D01*
X65767Y-178088D01*
X66600Y-178304D01*
X67183Y-178846D01*
X67350Y-179496D01*
X67267Y-180146D01*
X66933Y-180688D01*
X65267Y-181771D01*
X64517Y-182529D01*
X64017Y-183613D01*
X63850Y-184588D01*
X67350D01*
G01X72000D02*
Y-178088D01*
X71000Y-179387D01*
G01Y-184588D02*
X73000D01*
G01X-26083Y-164588D02*
X-24000Y-158088D01*
X-21917Y-164588D01*
G01X-22667Y-162313D02*
X-25333D01*
G01X-19267Y-164588D02*
Y-158088D01*
X-17183D01*
X-16517Y-158413D01*
X-16100Y-158846D01*
X-15933Y-159713D01*
X-16100Y-160579D01*
X-16600Y-161121D01*
X-17183Y-161446D01*
X-19267D01*
G01X-17183D02*
X-15933Y-164588D01*
G01X-11200Y-158088D02*
Y-164588D01*
G01X-13117Y-158088D02*
X-9283D01*
G01X-7300D02*
X-6133Y-164588D01*
X-4800Y-158088D01*
X-3467Y-164588D01*
X-2300Y-158088D01*
G01X1600Y-164588D02*
X933Y-164479D01*
X350Y-164046D01*
X-150Y-163396D01*
X-483Y-162638D01*
X-650Y-161771D01*
Y-160904D01*
X-483Y-160037D01*
X-150Y-159279D01*
X350Y-158629D01*
X933Y-158196D01*
X1600Y-158088D01*
X2267Y-158196D01*
X2850Y-158629D01*
X3350Y-159279D01*
X3683Y-160037D01*
X3850Y-160904D01*
Y-161771D01*
X3683Y-162638D01*
X3350Y-163396D01*
X2850Y-164046D01*
X2267Y-164479D01*
X1600Y-164588D01*
G01X6333D02*
Y-158088D01*
X8417D01*
X9083Y-158413D01*
X9500Y-158846D01*
X9667Y-159713D01*
X9500Y-160579D01*
X9000Y-161121D01*
X8417Y-161446D01*
X6333D01*
G01X8417D02*
X9667Y-164588D01*
G01X12567D02*
Y-158088D01*
G01X15733D02*
X12567Y-162096D01*
G01X16233Y-164588D02*
X13983Y-160254D01*
G01X20633Y-165779D02*
X20967Y-164371D01*
G01X31933Y-164588D02*
Y-158088D01*
X34017D01*
X34683Y-158413D01*
X35100Y-158846D01*
X35267Y-159713D01*
X35100Y-160579D01*
X34600Y-161121D01*
X34017Y-161446D01*
X31933D01*
G01X34017D02*
X35267Y-164588D01*
G01X40000D02*
X39333Y-164479D01*
X38750Y-164046D01*
X38250Y-163396D01*
X37917Y-162638D01*
X37750Y-161771D01*
Y-160904D01*
X37917Y-160037D01*
X38250Y-159279D01*
X38750Y-158629D01*
X39333Y-158196D01*
X40000Y-158088D01*
X40667Y-158196D01*
X41250Y-158629D01*
X41750Y-159279D01*
X42083Y-160037D01*
X42250Y-160904D01*
Y-161771D01*
X42083Y-162638D01*
X41750Y-163396D01*
X41250Y-164046D01*
X40667Y-164479D01*
X40000Y-164588D01*
G01X44650D02*
Y-158088D01*
G01X48150D02*
Y-164588D01*
G01Y-161338D02*
X44650D01*
G01X51050Y-163721D02*
X51717Y-164263D01*
X52467Y-164588D01*
X53133D01*
X53800Y-164263D01*
X54300Y-163721D01*
X54550Y-162962D01*
X54383Y-162204D01*
X53967Y-161554D01*
X53217Y-161121D01*
X52217Y-160904D01*
X51633Y-160471D01*
X51383Y-159713D01*
X51550Y-158954D01*
X51967Y-158413D01*
X52550Y-158088D01*
X53133D01*
X53717Y-158304D01*
X54217Y-158846D01*
G01X67433Y-158629D02*
X66933Y-158304D01*
X66350Y-158088D01*
X65683D01*
X64933Y-158413D01*
X64350Y-158954D01*
X63933Y-159604D01*
X63600Y-160688D01*
X63517Y-161663D01*
X63683Y-162638D01*
X63933Y-163288D01*
X64433Y-163938D01*
X65017Y-164371D01*
X65600Y-164588D01*
X66183D01*
X66767Y-164371D01*
X67267Y-164046D01*
X67683Y-163613D01*
G01X72000Y-164588D02*
X71333Y-164479D01*
X70750Y-164046D01*
X70250Y-163396D01*
X69917Y-162638D01*
X69750Y-161771D01*
Y-160904D01*
X69917Y-160037D01*
X70250Y-159279D01*
X70750Y-158629D01*
X71333Y-158196D01*
X72000Y-158088D01*
X72667Y-158196D01*
X73250Y-158629D01*
X73750Y-159279D01*
X74083Y-160037D01*
X74250Y-160904D01*
Y-161771D01*
X74083Y-162638D01*
X73750Y-163396D01*
X73250Y-164046D01*
X72667Y-164479D01*
X72000Y-164588D01*
G01X76233D02*
Y-158088D01*
X78400Y-163504D01*
X80567Y-158088D01*
Y-164588D01*
G01X83133D02*
Y-158088D01*
X85133D01*
X85800Y-158413D01*
X86300Y-159171D01*
X86467Y-160037D01*
X86300Y-160904D01*
X85883Y-161554D01*
X85133Y-161879D01*
X83133D01*
G01X89533Y-158088D02*
Y-164588D01*
X92867D01*
G01X96600Y-158088D02*
X98600D01*
G01X97600D02*
Y-164588D01*
G01X96600D02*
X98600D01*
G01X101917D02*
X104000Y-158088D01*
X106083Y-164588D01*
G01X105333Y-162313D02*
X102667D01*
G01X108483Y-164588D02*
Y-158088D01*
X112317Y-164588D01*
Y-158088D01*
G01X116800D02*
Y-164588D01*
G01X114883Y-158088D02*
X118717D01*
G01X123033Y-165779D02*
X123367Y-164371D01*
G01X134250Y-164588D02*
Y-158088D01*
G01X137750D02*
Y-164588D01*
G01Y-161338D02*
X134250D01*
G01X139900Y-158088D02*
X141067Y-164588D01*
X142400Y-158088D01*
X143733Y-164588D01*
X144900Y-158088D01*
G01X147717Y-162421D02*
X149883D01*
G01X153617Y-164588D02*
Y-158088D01*
X156783D01*
G01X155617Y-161229D02*
X153617D01*
G01X159433Y-164588D02*
Y-158088D01*
X161600Y-163504D01*
X163767Y-158088D01*
Y-164588D01*
G01X169833Y-158629D02*
X169333Y-158304D01*
X168750Y-158088D01*
X168083D01*
X167333Y-158413D01*
X166750Y-158954D01*
X166333Y-159604D01*
X166000Y-160688D01*
X165917Y-161663D01*
X166083Y-162638D01*
X166333Y-163288D01*
X166833Y-163938D01*
X167417Y-164371D01*
X168000Y-164588D01*
X168583D01*
X169167Y-164371D01*
X169667Y-164046D01*
X170083Y-163613D01*
G01X173317Y-162421D02*
X175483D01*
G01X179050Y-164588D02*
X182550Y-158088D01*
G01X179050D02*
X182550Y-164588D01*
G01X185033D02*
Y-158088D01*
X187200Y-163504D01*
X189367Y-158088D01*
Y-164588D01*
G01X191767Y-163613D02*
X192267Y-164154D01*
X192850Y-164479D01*
X193600Y-164588D01*
X194350Y-164371D01*
X194933Y-163938D01*
X195350Y-163179D01*
X195433Y-162313D01*
X195267Y-161446D01*
X194850Y-160904D01*
X194267Y-160471D01*
X193683Y-160363D01*
X193100Y-160471D01*
X192350Y-160904D01*
X192600Y-158088D01*
X194850D01*
G01X200000D02*
X199333Y-158304D01*
X198833Y-158846D01*
X198500Y-159496D01*
X198250Y-160363D01*
X198167Y-161338D01*
X198250Y-162313D01*
X198500Y-163179D01*
X198833Y-163829D01*
X199333Y-164371D01*
X200000Y-164588D01*
X200667Y-164371D01*
X201167Y-163829D01*
X201500Y-163179D01*
X201750Y-162313D01*
X201833Y-161338D01*
X201750Y-160363D01*
X201500Y-159496D01*
X201167Y-158846D01*
X200667Y-158304D01*
X200000Y-158088D01*
G01X206400D02*
X205733Y-158304D01*
X205233Y-158846D01*
X204900Y-159496D01*
X204650Y-160363D01*
X204567Y-161338D01*
X204650Y-162313D01*
X204900Y-163179D01*
X205233Y-163829D01*
X205733Y-164371D01*
X206400Y-164588D01*
X207067Y-164371D01*
X207567Y-163829D01*
X207900Y-163179D01*
X208150Y-162313D01*
X208233Y-161338D01*
X208150Y-160363D01*
X207900Y-159496D01*
X207567Y-158846D01*
X207067Y-158304D01*
X206400Y-158088D01*
G01X7650Y-267421D02*
X8317Y-267963D01*
X9067Y-268288D01*
X9733D01*
X10400Y-267963D01*
X10900Y-267421D01*
X11150Y-266662D01*
X10983Y-265904D01*
X10567Y-265254D01*
X9817Y-264821D01*
X8817Y-264604D01*
X8233Y-264171D01*
X7983Y-263413D01*
X8150Y-262654D01*
X8567Y-262113D01*
X9150Y-261788D01*
X9733D01*
X10317Y-262004D01*
X10817Y-262546D01*
G01X14050Y-268288D02*
Y-261788D01*
G01X17550D02*
Y-268288D01*
G01Y-265038D02*
X14050D01*
G01X23867Y-268288D02*
X20533D01*
Y-261788D01*
X23867D01*
G01X22533Y-264929D02*
X20533D01*
G01X30267Y-268288D02*
X26933D01*
Y-261788D01*
X30267D01*
G01X28933Y-264929D02*
X26933D01*
G01X35000Y-261788D02*
Y-268288D01*
G01X33083Y-261788D02*
X36917D01*
G01X73400Y-268288D02*
X72733Y-268179D01*
X72150Y-267746D01*
X71650Y-267096D01*
X71317Y-266338D01*
X71150Y-265471D01*
Y-264604D01*
X71317Y-263737D01*
X71650Y-262979D01*
X72150Y-262329D01*
X72733Y-261896D01*
X73400Y-261788D01*
X74067Y-261896D01*
X74650Y-262329D01*
X75150Y-262979D01*
X75483Y-263737D01*
X75650Y-264604D01*
Y-265471D01*
X75483Y-266338D01*
X75150Y-267096D01*
X74650Y-267746D01*
X74067Y-268179D01*
X73400Y-268288D01*
G01X78217D02*
Y-261788D01*
X81383D01*
G01X80217Y-264929D02*
X78217D01*
G01X92600Y-268288D02*
Y-261788D01*
X91600Y-263087D01*
G01Y-268288D02*
X93600D01*
G01X97417Y-262871D02*
X97917Y-262221D01*
X98500Y-261896D01*
X99167Y-261788D01*
X100000Y-262004D01*
X100583Y-262546D01*
X100750Y-263196D01*
X100667Y-263846D01*
X100333Y-264388D01*
X98667Y-265471D01*
X97917Y-266229D01*
X97417Y-267313D01*
X97250Y-268288D01*
X100750D01*
G01X110000Y-226338D02*
X111667D01*
Y-228288D01*
X111167Y-228938D01*
X110583Y-229371D01*
X109750Y-229588D01*
X108917Y-229371D01*
X108333Y-228938D01*
X107833Y-228288D01*
X107500Y-227529D01*
X107333Y-226663D01*
Y-225904D01*
X107500Y-225254D01*
X107833Y-224496D01*
X108333Y-223846D01*
X108833Y-223413D01*
X109500Y-223088D01*
X110083D01*
X110750Y-223304D01*
X111250Y-223738D01*
G01X114233Y-229588D02*
Y-223088D01*
X116317D01*
X116983Y-223413D01*
X117400Y-223846D01*
X117567Y-224713D01*
X117400Y-225579D01*
X116900Y-226121D01*
X116317Y-226446D01*
X114233D01*
G01X116317D02*
X117567Y-229588D01*
G01X123967D02*
X120633D01*
Y-223088D01*
X123967D01*
G01X122633Y-226229D02*
X120633D01*
G01X129200Y-226338D02*
X130867D01*
Y-228288D01*
X130367Y-228938D01*
X129783Y-229371D01*
X128950Y-229588D01*
X128117Y-229371D01*
X127533Y-228938D01*
X127033Y-228288D01*
X126700Y-227529D01*
X126533Y-226663D01*
Y-225904D01*
X126700Y-225254D01*
X127033Y-224496D01*
X127533Y-223846D01*
X128033Y-223413D01*
X128700Y-223088D01*
X129283D01*
X129950Y-223304D01*
X130450Y-223738D01*
G01X140500Y-223088D02*
X142500D01*
G01X141500D02*
Y-229588D01*
G01X140500D02*
X142500D01*
G01X147900Y-229804D02*
X147733Y-229696D01*
Y-229479D01*
X147900Y-229371D01*
X148067Y-229479D01*
Y-229696D01*
X147900Y-229804D01*
G01X179833Y-229588D02*
Y-223088D01*
X181833D01*
X182500Y-223413D01*
X183000Y-224171D01*
X183167Y-225037D01*
X183000Y-225904D01*
X182583Y-226554D01*
X181833Y-226879D01*
X179833D01*
G01X186150Y-229588D02*
Y-223088D01*
G01X189650D02*
Y-229588D01*
G01Y-226338D02*
X186150D01*
G01X194300Y-229588D02*
X193633Y-229479D01*
X193050Y-229046D01*
X192550Y-228396D01*
X192217Y-227638D01*
X192050Y-226771D01*
Y-225904D01*
X192217Y-225037D01*
X192550Y-224279D01*
X193050Y-223629D01*
X193633Y-223196D01*
X194300Y-223088D01*
X194967Y-223196D01*
X195550Y-223629D01*
X196050Y-224279D01*
X196383Y-225037D01*
X196550Y-225904D01*
Y-226771D01*
X196383Y-227638D01*
X196050Y-228396D01*
X195550Y-229046D01*
X194967Y-229479D01*
X194300Y-229588D01*
G01X198783D02*
Y-223088D01*
X202617Y-229588D01*
Y-223088D01*
G01X208767Y-229588D02*
X205433D01*
Y-223088D01*
X208767D01*
G01X207433Y-226229D02*
X205433D01*
G01X213500Y-229804D02*
X213333Y-229696D01*
Y-229479D01*
X213500Y-229371D01*
X213667Y-229479D01*
Y-229696D01*
X213500Y-229804D01*
G01Y-226879D02*
X213333Y-226771D01*
Y-226554D01*
X213500Y-226446D01*
X213667Y-226554D01*
Y-226771D01*
X213500Y-226879D01*
G01X177167Y-207088D02*
Y-200588D01*
X178833D01*
X179500Y-200913D01*
X180000Y-201346D01*
X180417Y-201996D01*
X180750Y-202754D01*
X180833Y-203838D01*
X180750Y-204921D01*
X180417Y-205679D01*
X180000Y-206329D01*
X179500Y-206763D01*
X178833Y-207088D01*
X177167D01*
G01X183317D02*
X185400Y-200588D01*
X187483Y-207088D01*
G01X186733Y-204813D02*
X184067D01*
G01X191800Y-200588D02*
Y-207088D01*
G01X189883Y-200588D02*
X193717D01*
G01X199867Y-207088D02*
X196533D01*
Y-200588D01*
X199867D01*
G01X198533Y-203729D02*
X196533D01*
G01X204600Y-207304D02*
X204433Y-207196D01*
Y-206979D01*
X204600Y-206871D01*
X204767Y-206979D01*
Y-207196D01*
X204600Y-207304D01*
G01Y-204379D02*
X204433Y-204271D01*
Y-204054D01*
X204600Y-203946D01*
X204767Y-204054D01*
Y-204271D01*
X204600Y-204379D01*
G01X179333Y-180588D02*
Y-187088D01*
X182667D01*
G01X185317D02*
X187400Y-180588D01*
X189483Y-187088D01*
G01X188733Y-184813D02*
X186067D01*
G01X193800Y-187088D02*
Y-184163D01*
X192133Y-180588D01*
G01X195467D02*
X193800Y-184163D01*
G01X201867Y-187088D02*
X198533D01*
Y-180588D01*
X201867D01*
G01X200533Y-183729D02*
X198533D01*
G01X204933Y-187088D02*
Y-180588D01*
X207017D01*
X207683Y-180913D01*
X208100Y-181346D01*
X208267Y-182213D01*
X208100Y-183079D01*
X207600Y-183621D01*
X207017Y-183946D01*
X204933D01*
G01X207017D02*
X208267Y-187088D01*
G01X213000Y-187304D02*
X212833Y-187196D01*
Y-186979D01*
X213000Y-186871D01*
X213167Y-186979D01*
Y-187196D01*
X213000Y-187304D01*
G01Y-184379D02*
X212833Y-184271D01*
Y-184054D01*
X213000Y-183946D01*
X213167Y-184054D01*
Y-184271D01*
X213000Y-184379D01*
G01X185333Y-281588D02*
Y-275088D01*
X187417D01*
X188083Y-275413D01*
X188500Y-275846D01*
X188667Y-276713D01*
X188500Y-277579D01*
X188000Y-278121D01*
X187417Y-278446D01*
X185333D01*
G01X187417D02*
X188667Y-281588D01*
G01X195067D02*
X191733D01*
Y-275088D01*
X195067D01*
G01X193733Y-278229D02*
X191733D01*
G01X197717Y-275088D02*
X199800Y-281588D01*
X201883Y-275088D01*
G01X205200D02*
X207200D01*
G01X206200D02*
Y-281588D01*
G01X205200D02*
X207200D01*
G01X210850Y-280721D02*
X211517Y-281263D01*
X212267Y-281588D01*
X212933D01*
X213600Y-281263D01*
X214100Y-280721D01*
X214350Y-279962D01*
X214183Y-279204D01*
X213767Y-278554D01*
X213017Y-278121D01*
X212017Y-277904D01*
X211433Y-277471D01*
X211183Y-276713D01*
X211350Y-275954D01*
X211767Y-275413D01*
X212350Y-275088D01*
X212933D01*
X213517Y-275304D01*
X214017Y-275846D01*
G01X218000Y-275088D02*
X220000D01*
G01X219000D02*
Y-281588D01*
G01X218000D02*
X220000D01*
G01X225400D02*
X224733Y-281479D01*
X224150Y-281046D01*
X223650Y-280396D01*
X223317Y-279638D01*
X223150Y-278771D01*
Y-277904D01*
X223317Y-277037D01*
X223650Y-276279D01*
X224150Y-275629D01*
X224733Y-275196D01*
X225400Y-275088D01*
X226067Y-275196D01*
X226650Y-275629D01*
X227150Y-276279D01*
X227483Y-277037D01*
X227650Y-277904D01*
Y-278771D01*
X227483Y-279638D01*
X227150Y-280396D01*
X226650Y-281046D01*
X226067Y-281479D01*
X225400Y-281588D01*
G01X229883D02*
Y-275088D01*
X233717Y-281588D01*
Y-275088D01*
G01X238200Y-281804D02*
X238033Y-281696D01*
Y-281479D01*
X238200Y-281371D01*
X238367Y-281479D01*
Y-281696D01*
X238200Y-281804D01*
G01Y-278879D02*
X238033Y-278771D01*
Y-278554D01*
X238200Y-278446D01*
X238367Y-278554D01*
Y-278771D01*
X238200Y-278879D01*
G01X251000Y-281588D02*
Y-275088D01*
X250000Y-276387D01*
G01Y-281588D02*
X252000D01*
G01X257400Y-281804D02*
X257233Y-281696D01*
Y-281479D01*
X257400Y-281371D01*
X257567Y-281479D01*
Y-281696D01*
X257400Y-281804D01*
G01X263800Y-275088D02*
X263133Y-275304D01*
X262633Y-275846D01*
X262300Y-276496D01*
X262050Y-277363D01*
X261967Y-278338D01*
X262050Y-279313D01*
X262300Y-280179D01*
X262633Y-280829D01*
X263133Y-281371D01*
X263800Y-281588D01*
X264467Y-281371D01*
X264967Y-280829D01*
X265300Y-280179D01*
X265550Y-279313D01*
X265633Y-278338D01*
X265550Y-277363D01*
X265300Y-276496D01*
X264967Y-275846D01*
X264467Y-275304D01*
X263800Y-275088D01*
G01X185150Y-265788D02*
X188650Y-259288D01*
G01X185150D02*
X188650Y-265788D01*
G01X192300Y-259288D02*
X194300D01*
G01X193300D02*
Y-265788D01*
G01X192300D02*
X194300D01*
G01X198033Y-259288D02*
Y-265788D01*
X201367D01*
G01X205100Y-259288D02*
X207100D01*
G01X206100D02*
Y-265788D01*
G01X205100D02*
X207100D01*
G01X210583D02*
Y-259288D01*
X214417Y-265788D01*
Y-259288D01*
G01X217150Y-265788D02*
X220650Y-259288D01*
G01X217150D02*
X220650Y-265788D01*
G01X229867D02*
Y-259288D01*
X231533D01*
X232200Y-259613D01*
X232700Y-260046D01*
X233117Y-260696D01*
X233450Y-261454D01*
X233533Y-262538D01*
X233450Y-263621D01*
X233117Y-264379D01*
X232700Y-265029D01*
X232200Y-265463D01*
X231533Y-265788D01*
X229867D01*
G01X238100D02*
X237433Y-265679D01*
X236850Y-265246D01*
X236350Y-264596D01*
X236017Y-263838D01*
X235850Y-262971D01*
Y-262104D01*
X236017Y-261237D01*
X236350Y-260479D01*
X236850Y-259829D01*
X237433Y-259396D01*
X238100Y-259288D01*
X238767Y-259396D01*
X239350Y-259829D01*
X239850Y-260479D01*
X240183Y-261237D01*
X240350Y-262104D01*
Y-262971D01*
X240183Y-263838D01*
X239850Y-264596D01*
X239350Y-265246D01*
X238767Y-265679D01*
X238100Y-265788D01*
G01X246333Y-259829D02*
X245833Y-259504D01*
X245250Y-259288D01*
X244583D01*
X243833Y-259613D01*
X243250Y-260154D01*
X242833Y-260804D01*
X242500Y-261888D01*
X242417Y-262863D01*
X242583Y-263838D01*
X242833Y-264488D01*
X243333Y-265138D01*
X243917Y-265571D01*
X244500Y-265788D01*
X245083D01*
X245667Y-265571D01*
X246167Y-265246D01*
X246583Y-264813D01*
G01X255467Y-259288D02*
Y-263946D01*
X255800Y-264921D01*
X256467Y-265571D01*
X257300Y-265788D01*
X258133Y-265571D01*
X258800Y-264921D01*
X259133Y-263946D01*
Y-259288D01*
G01X261950Y-264921D02*
X262617Y-265463D01*
X263367Y-265788D01*
X264033D01*
X264700Y-265463D01*
X265200Y-264921D01*
X265450Y-264162D01*
X265283Y-263404D01*
X264867Y-262754D01*
X264117Y-262321D01*
X263117Y-262104D01*
X262533Y-261671D01*
X262283Y-260913D01*
X262450Y-260154D01*
X262867Y-259613D01*
X263450Y-259288D01*
X264033D01*
X264617Y-259504D01*
X265117Y-260046D01*
G01X271767Y-265788D02*
X268433D01*
Y-259288D01*
X271767D01*
G01X270433Y-262429D02*
X268433D01*
G01X282900Y-265788D02*
X282233Y-265679D01*
X281650Y-265246D01*
X281150Y-264596D01*
X280817Y-263838D01*
X280650Y-262971D01*
Y-262104D01*
X280817Y-261237D01*
X281150Y-260479D01*
X281650Y-259829D01*
X282233Y-259396D01*
X282900Y-259288D01*
X283567Y-259396D01*
X284150Y-259829D01*
X284650Y-260479D01*
X284983Y-261237D01*
X285150Y-262104D01*
Y-262971D01*
X284983Y-263838D01*
X284650Y-264596D01*
X284150Y-265246D01*
X283567Y-265679D01*
X282900Y-265788D01*
G01X287383D02*
Y-259288D01*
X291217Y-265788D01*
Y-259288D01*
G01X294033D02*
Y-265788D01*
X297367D01*
G01X302100D02*
Y-262863D01*
X300433Y-259288D01*
G01X303767D02*
X302100Y-262863D01*
G01X233000Y-229588D02*
Y-223088D01*
X229917Y-227746D01*
X234083D01*
G01X238400Y-223088D02*
X237733Y-223304D01*
X237233Y-223846D01*
X236900Y-224496D01*
X236650Y-225363D01*
X236567Y-226338D01*
X236650Y-227313D01*
X236900Y-228179D01*
X237233Y-228829D01*
X237733Y-229371D01*
X238400Y-229588D01*
X239067Y-229371D01*
X239567Y-228829D01*
X239900Y-228179D01*
X240150Y-227313D01*
X240233Y-226338D01*
X240150Y-225363D01*
X239900Y-224496D01*
X239567Y-223846D01*
X239067Y-223304D01*
X238400Y-223088D01*
G01X244800Y-229588D02*
X245383Y-229479D01*
X246050Y-229154D01*
X246467Y-228613D01*
X246633Y-227854D01*
X246467Y-227096D01*
X245967Y-226446D01*
X245217Y-226121D01*
X244383D01*
X243883Y-225904D01*
X243467Y-225363D01*
X243300Y-224604D01*
X243550Y-223846D01*
X244133Y-223304D01*
X244800Y-223088D01*
X245467Y-223304D01*
X246050Y-223846D01*
X246300Y-224604D01*
X246133Y-225363D01*
X245717Y-225904D01*
X245217Y-226121D01*
X244383D01*
X243633Y-226446D01*
X243133Y-227096D01*
X242967Y-227854D01*
X243133Y-228613D01*
X243550Y-229154D01*
X244217Y-229479D01*
X244800Y-229588D01*
G01X250117Y-227421D02*
X252283D01*
G01X257600Y-229588D02*
X258183Y-229479D01*
X258850Y-229154D01*
X259267Y-228613D01*
X259433Y-227854D01*
X259267Y-227096D01*
X258767Y-226446D01*
X258017Y-226121D01*
X257183D01*
X256683Y-225904D01*
X256267Y-225363D01*
X256100Y-224604D01*
X256350Y-223846D01*
X256933Y-223304D01*
X257600Y-223088D01*
X258267Y-223304D01*
X258850Y-223846D01*
X259100Y-224604D01*
X258933Y-225363D01*
X258517Y-225904D01*
X258017Y-226121D01*
X257183D01*
X256433Y-226446D01*
X255933Y-227096D01*
X255767Y-227854D01*
X255933Y-228613D01*
X256350Y-229154D01*
X257017Y-229479D01*
X257600Y-229588D01*
G01X263833D02*
X264000Y-228179D01*
X264250Y-226988D01*
X264583Y-225904D01*
X265000Y-224713D01*
X265667Y-223088D01*
X262333D01*
G01X268983Y-228829D02*
X269567Y-229371D01*
X270233Y-229588D01*
X270900Y-229371D01*
X271483Y-228721D01*
X271900Y-227746D01*
X272067Y-226771D01*
Y-225579D01*
X271900Y-224604D01*
X271483Y-223738D01*
X270983Y-223304D01*
X270400Y-223088D01*
X269733Y-223304D01*
X269233Y-223738D01*
X268900Y-224387D01*
X268733Y-225254D01*
X268900Y-226012D01*
X269317Y-226771D01*
X269817Y-227204D01*
X270400Y-227313D01*
X271067Y-227096D01*
X271567Y-226554D01*
X272067Y-225579D01*
G01X275717Y-227421D02*
X277883D01*
G01X281617Y-226879D02*
X282200Y-226121D01*
X282700Y-225688D01*
X283367Y-225471D01*
X283950Y-225688D01*
X284367Y-226121D01*
X284700Y-226771D01*
X284783Y-227529D01*
X284700Y-228179D01*
X284367Y-228829D01*
X283867Y-229371D01*
X283283Y-229588D01*
X282617Y-229371D01*
X282033Y-228721D01*
X281700Y-227746D01*
X281617Y-226663D01*
X281783Y-225254D01*
X282033Y-224496D01*
X282450Y-223738D01*
X283033Y-223196D01*
X283617Y-223088D01*
X284200Y-223304D01*
X284617Y-223846D01*
G01X289600Y-229588D02*
X290183Y-229479D01*
X290850Y-229154D01*
X291267Y-228613D01*
X291433Y-227854D01*
X291267Y-227096D01*
X290767Y-226446D01*
X290017Y-226121D01*
X289183D01*
X288683Y-225904D01*
X288267Y-225363D01*
X288100Y-224604D01*
X288350Y-223846D01*
X288933Y-223304D01*
X289600Y-223088D01*
X290267Y-223304D01*
X290850Y-223846D01*
X291100Y-224604D01*
X290933Y-225363D01*
X290517Y-225904D01*
X290017Y-226121D01*
X289183D01*
X288433Y-226446D01*
X287933Y-227096D01*
X287767Y-227854D01*
X287933Y-228613D01*
X288350Y-229154D01*
X289017Y-229479D01*
X289600Y-229588D01*
G01X295833D02*
X296000Y-228179D01*
X296250Y-226988D01*
X296583Y-225904D01*
X297000Y-224713D01*
X297667Y-223088D01*
X294333D01*
G01X302400D02*
X301733Y-223304D01*
X301233Y-223846D01*
X300900Y-224496D01*
X300650Y-225363D01*
X300567Y-226338D01*
X300650Y-227313D01*
X300900Y-228179D01*
X301233Y-228829D01*
X301733Y-229371D01*
X302400Y-229588D01*
X303067Y-229371D01*
X303567Y-228829D01*
X303900Y-228179D01*
X304150Y-227313D01*
X304233Y-226338D01*
X304150Y-225363D01*
X303900Y-224496D01*
X303567Y-223846D01*
X303067Y-223304D01*
X302400Y-223088D01*
G01X229000Y-200588D02*
X228333Y-200804D01*
X227833Y-201346D01*
X227500Y-201996D01*
X227250Y-202863D01*
X227167Y-203838D01*
X227250Y-204813D01*
X227500Y-205679D01*
X227833Y-206329D01*
X228333Y-206871D01*
X229000Y-207088D01*
X229667Y-206871D01*
X230167Y-206329D01*
X230500Y-205679D01*
X230750Y-204813D01*
X230833Y-203838D01*
X230750Y-202863D01*
X230500Y-201996D01*
X230167Y-201346D01*
X229667Y-200804D01*
X229000Y-200588D01*
G01X233817Y-204379D02*
X234400Y-203621D01*
X234900Y-203188D01*
X235567Y-202971D01*
X236150Y-203188D01*
X236567Y-203621D01*
X236900Y-204271D01*
X236983Y-205029D01*
X236900Y-205679D01*
X236567Y-206329D01*
X236067Y-206871D01*
X235483Y-207088D01*
X234817Y-206871D01*
X234233Y-206221D01*
X233900Y-205246D01*
X233817Y-204163D01*
X233983Y-202754D01*
X234233Y-201996D01*
X234650Y-201238D01*
X235233Y-200696D01*
X235817Y-200588D01*
X236400Y-200804D01*
X236817Y-201346D01*
G01X240300Y-207304D02*
X243300Y-200588D01*
G01X248200Y-207088D02*
Y-200588D01*
X247200Y-201887D01*
G01Y-207088D02*
X249200D01*
G01X255600D02*
Y-200588D01*
X252517Y-205246D01*
X256683D01*
G01X259500Y-207304D02*
X262500Y-200588D01*
G01X265817Y-201671D02*
X266317Y-201021D01*
X266900Y-200696D01*
X267567Y-200588D01*
X268400Y-200804D01*
X268983Y-201346D01*
X269150Y-201996D01*
X269067Y-202646D01*
X268733Y-203188D01*
X267067Y-204271D01*
X266317Y-205029D01*
X265817Y-206113D01*
X265650Y-207088D01*
X269150D01*
G01X273800Y-200588D02*
X273133Y-200804D01*
X272633Y-201346D01*
X272300Y-201996D01*
X272050Y-202863D01*
X271967Y-203838D01*
X272050Y-204813D01*
X272300Y-205679D01*
X272633Y-206329D01*
X273133Y-206871D01*
X273800Y-207088D01*
X274467Y-206871D01*
X274967Y-206329D01*
X275300Y-205679D01*
X275550Y-204813D01*
X275633Y-203838D01*
X275550Y-202863D01*
X275300Y-201996D01*
X274967Y-201346D01*
X274467Y-200804D01*
X273800Y-200588D01*
G01X280200Y-207088D02*
Y-200588D01*
X279200Y-201887D01*
G01Y-207088D02*
X281200D01*
G01X286600D02*
X287183Y-206979D01*
X287850Y-206654D01*
X288267Y-206113D01*
X288433Y-205354D01*
X288267Y-204596D01*
X287767Y-203946D01*
X287017Y-203621D01*
X286183D01*
X285683Y-203404D01*
X285267Y-202863D01*
X285100Y-202104D01*
X285350Y-201346D01*
X285933Y-200804D01*
X286600Y-200588D01*
X287267Y-200804D01*
X287850Y-201346D01*
X288100Y-202104D01*
X287933Y-202863D01*
X287517Y-203404D01*
X287017Y-203621D01*
X286183D01*
X285433Y-203946D01*
X284933Y-204596D01*
X284767Y-205354D01*
X284933Y-206113D01*
X285350Y-206654D01*
X286017Y-206979D01*
X286600Y-207088D01*
M02*
