G04*
G04 #@! TF.GenerationSoftware,Altium Limited,Altium Designer,22.9.1 (49)*
G04*
G04 Layer_Physical_Order=7*
G04 Layer_Color=65535*
%FSLAX24Y24*%
%MOIN*%
G70*
G04*
G04 #@! TF.SameCoordinates,1003F32D-41C8-4A49-8BB1-F60438683A21*
G04*
G04*
G04 #@! TF.FilePolarity,Positive*
G04*
G01*
G75*
%ADD10C,0.0060*%
%ADD11C,0.0100*%
%ADD16C,0.0080*%
%ADD253C,0.0250*%
%ADD256C,0.0070*%
%ADD260C,0.0620*%
%ADD265C,0.0180*%
%ADD266C,0.0350*%
%ADD268C,0.0500*%
%ADD278C,0.0070*%
G36*
X99982Y156043D02*
Y155793D01*
X99734Y155701D01*
Y156135D01*
X99982Y156043D01*
D02*
G37*
G36*
X-6499Y78601D02*
X-6599D01*
X-6612Y78666D01*
X-6486D01*
X-6499Y78601D01*
D02*
G37*
G36*
X-6999D02*
X-7099D01*
X-7112Y78666D01*
X-6986D01*
X-6999Y78601D01*
D02*
G37*
G36*
X-6486Y78295D02*
X-6612D01*
X-6599Y78359D01*
X-6499D01*
X-6486Y78295D01*
D02*
G37*
G36*
X-6986D02*
X-7112D01*
X-7099Y78359D01*
X-6999D01*
X-6986Y78295D01*
D02*
G37*
G36*
X-6613Y78167D02*
X-6678Y78180D01*
Y78280D01*
X-6613Y78293D01*
Y78167D01*
D02*
G37*
G36*
X-6920Y78280D02*
Y78180D01*
X-6985Y78167D01*
Y78293D01*
X-6920Y78280D01*
D02*
G37*
G36*
X112812Y15141D02*
Y14891D01*
X112564Y14799D01*
Y15233D01*
X112812Y15141D01*
D02*
G37*
D10*
X70009Y62108D02*
G03*
X70050Y62206I-98J98D01*
G01*
X77937Y128350D02*
X102715D01*
X104451Y126614D01*
X88944Y127763D02*
X102630D01*
X104187Y126206D02*
X107455D01*
X102630Y127763D02*
X104187Y126206D01*
X107616Y39970D02*
X107893D01*
X35779Y17212D02*
X35945Y17046D01*
X35765Y17226D02*
X35779Y17212D01*
X68399Y40660D02*
X68449D01*
X68399D02*
X68399D01*
X68349Y40680D02*
X68349Y40680D01*
X68349Y40680D02*
X68349Y40680D01*
X68337Y40692D02*
X68349Y40680D01*
X104834Y78130D02*
X107567D01*
X84950Y87600D02*
X99094D01*
X84805Y87476D02*
X84915Y87585D01*
X69950Y62049D02*
X70009Y62108D01*
X110369Y35813D02*
X110385Y35796D01*
X106969Y35813D02*
X110369D01*
X106546Y35390D02*
X106969Y35813D01*
X111860Y36274D02*
X111955Y36370D01*
X110951Y36274D02*
X111860D01*
X109002Y64160D02*
X109612Y63550D01*
X107240D02*
X107850Y64160D01*
X102300Y63550D02*
X107240D01*
X106802Y64110D02*
X107644D01*
X107920Y63990D02*
X108731Y63179D01*
X107644Y64110D02*
X107804Y64270D01*
X110817D02*
X110904Y64357D01*
X107804Y64270D02*
X110817D01*
X108731Y63179D02*
X109520D01*
X107850Y64160D02*
X109002D01*
X108592Y62025D02*
X108908D01*
X108420Y62197D02*
X108592Y62025D01*
X104601Y61881D02*
X108583D01*
X108935Y61530D01*
X104960D02*
X105465Y61025D01*
X108957D01*
X110170Y60110D02*
X112263D01*
X106103D02*
X108066D01*
X109946Y59886D02*
X110170Y60110D01*
X108290Y59886D02*
X109946D01*
X108066Y60110D02*
X108290Y59886D01*
X108699Y56079D02*
X109065Y55713D01*
X108253Y56079D02*
X108699D01*
X107715Y54839D02*
X108090Y55213D01*
X103931Y54839D02*
X107715D01*
X100330Y57750D02*
X100432Y57852D01*
X109733D02*
X110255Y57330D01*
X100432Y57852D02*
X109733D01*
X111010Y58520D02*
X112124D01*
X112255Y58390D01*
X110216Y55713D02*
X111889D01*
X112392Y56216D01*
X108343Y48887D02*
X108660D01*
X103279Y48960D02*
X108270D01*
X108343Y48887D01*
X106310Y48216D02*
X106884Y48790D01*
X102847Y48528D02*
X103279Y48960D01*
X106884Y48790D02*
X108200D01*
X107850Y48096D02*
X109881D01*
X110130Y47847D01*
X108889Y47405D02*
X109103Y47620D01*
X110442D02*
X110642Y47820D01*
X109103Y47620D02*
X110442D01*
X107289Y48187D02*
X107759D01*
X107850Y48096D01*
X107198D02*
X107289Y48187D01*
X107165Y48096D02*
X107198D01*
X104510Y47937D02*
X105962D01*
X106889Y47820D02*
X107165Y48096D01*
X105962Y47937D02*
X106079Y47820D01*
X106889D01*
X106110Y48216D02*
X106310D01*
X107330Y46300D02*
X108353D01*
X108660Y46607D01*
X106680Y46090D02*
X108253D01*
X108603Y45740D01*
X109187D01*
X109659Y46607D02*
X109806Y46754D01*
X111871D01*
X109656Y46607D02*
X109659D01*
X107972Y46437D02*
X108142Y46607D01*
X107539Y46437D02*
X107972D01*
X103864Y46749D02*
X107500D01*
X107397Y46579D02*
X107539Y46437D01*
X106437Y46579D02*
X107397D01*
X107500Y46749D02*
X107642Y46607D01*
X99656Y47117D02*
X100126Y46647D01*
X97033Y46447D02*
X97434D01*
X103762Y46647D02*
X103864Y46749D01*
X97522Y46535D02*
X104885D01*
X100126Y46647D02*
X103762D01*
X104885Y46535D02*
X105379Y46041D01*
X97434Y46447D02*
X97522Y46535D01*
X111871Y46754D02*
X112225Y46400D01*
X108209Y44749D02*
X109584D01*
X109991Y43894D02*
X110642Y44544D01*
X108007Y43894D02*
X109991D01*
X109584Y44749D02*
X109793Y44540D01*
X110142D01*
X106546Y44660D02*
X108120D01*
X108209Y44749D01*
X106384Y44822D02*
X106546Y44660D01*
X106849Y44993D02*
X107070Y45213D01*
X107876D02*
X108120Y45457D01*
X107070Y45213D02*
X107876D01*
X96971Y42600D02*
X106409D01*
X107146Y43337D01*
X107642D01*
X107330Y42865D02*
X108203D01*
X108642Y43303D01*
X101573Y43127D02*
X101953Y43507D01*
X105517Y43803D02*
X105703Y43617D01*
X101953Y43507D02*
X107939D01*
X107730Y43617D02*
X108007Y43894D01*
X105703Y43617D02*
X107730D01*
X107939Y43507D02*
X108142Y43304D01*
X109916Y41259D02*
X110116Y41060D01*
X108561Y41259D02*
X109916D01*
X105503Y40772D02*
X110342D01*
X110630Y41060D01*
X105215Y40484D02*
X105503Y40772D01*
X104701Y40883D02*
X107113D01*
X107289Y41060D01*
X104547Y40730D02*
X104701Y40883D01*
X102069Y42159D02*
X110665D01*
X110910Y41914D01*
X107346Y41984D02*
X108616D01*
X104410Y41830D02*
X107192D01*
X107346Y41984D01*
X108180Y41230D02*
X108271Y41139D01*
X107609Y41230D02*
X108180D01*
X105753Y41170D02*
X105907Y41324D01*
X107560Y41279D02*
X107609Y41230D01*
X94158Y41624D02*
X94613Y41170D01*
X107289Y41060D02*
X108093D01*
X108271Y41139D02*
X108841D01*
X94613Y41170D02*
X105753D01*
X107557Y39663D02*
X107754Y39860D01*
X102189Y39903D02*
X105391D01*
X105741Y39553D01*
X108190Y40030D02*
X108290Y39930D01*
X105741Y39553D02*
X108053D01*
X108290Y39790D02*
Y39930D01*
X108053Y39553D02*
X108290Y39790D01*
X107953Y40030D02*
X108190D01*
X105131Y40321D02*
X105789Y39663D01*
X101387Y39101D02*
X102189Y39903D01*
X107754Y39860D02*
X108120D01*
X107893Y39970D02*
X107953Y40030D01*
X105789Y39663D02*
X107557D01*
X97281Y38710D02*
X109130D01*
X96831Y38260D02*
X97281Y38710D01*
X93651Y38820D02*
X101770D01*
X102192Y39241D01*
X93469Y39002D02*
X93651Y38820D01*
X108121Y38900D02*
X108616D01*
X107780Y39241D02*
X108121Y38900D01*
X93441Y39002D02*
X93469D01*
X99551Y39480D02*
X99930Y39101D01*
X93400Y38960D02*
X93441Y39002D01*
X99930Y39101D02*
X101387D01*
X93370Y38960D02*
X93400D01*
X105854Y39241D02*
X107780D01*
X111714Y39783D02*
X112096Y39400D01*
X109616Y39783D02*
X111714D01*
X110960Y30823D02*
X110968Y30832D01*
X110028Y30823D02*
X110960D01*
X109995Y30790D02*
X110028Y30823D01*
X109069Y32110D02*
X109720Y31459D01*
Y31044D02*
Y31459D01*
X109559Y30790D02*
X109995D01*
X109249Y31100D02*
X109559Y30790D01*
X108260Y30440D02*
X108388Y30569D01*
X111747D01*
X112298Y31120D01*
X106945Y32965D02*
X109339D01*
X109718Y32586D01*
X110361Y37195D02*
X110956Y37790D01*
X117450D02*
X117710Y37530D01*
X110956Y37790D02*
X117450D01*
X98842Y34920D02*
X107963D01*
X108180Y35136D02*
X109789D01*
X107963Y34920D02*
X108180Y35136D01*
X109789D02*
X109802Y35124D01*
X104360Y37650D02*
X109630D01*
X104210Y37530D02*
X104240D01*
X104360Y37650D01*
X107663Y37447D02*
X108810D01*
X107634Y37475D02*
X107663Y37447D01*
X106519Y37475D02*
X107634D01*
X51112Y84646D02*
X52096D01*
X50645Y85114D02*
X51112Y84646D01*
X48770Y85114D02*
X50645D01*
X48390Y84734D02*
X48770Y85114D01*
X47308Y84734D02*
X48390D01*
X50485Y39076D02*
X50660Y39252D01*
X49970Y39076D02*
X50485D01*
X49775Y38882D02*
X49970Y39076D01*
X50660Y39252D02*
X51616D01*
X48845Y38882D02*
X49775D01*
X47662Y39252D02*
X48475D01*
X48845Y38882D01*
X47225Y16464D02*
X47585D01*
X50229Y16579D02*
X50699D01*
X47585Y16464D02*
X48083Y16962D01*
X49846D01*
X50229Y16579D01*
X102729Y105767D02*
X106756D01*
X64990Y105791D02*
X102706D01*
X102729Y105767D01*
X103260Y102960D02*
X103530Y102690D01*
X97780D02*
X98050Y102960D01*
X103260D01*
X92830Y103390D02*
X121150D01*
X92670Y103230D02*
X92830Y103390D01*
X45983Y116325D02*
X48546D01*
X49241Y115630D02*
X54432D01*
X48546Y116325D02*
X49241Y115630D01*
X110662Y76955D02*
X110782Y76835D01*
X111722D01*
X112064Y77177D01*
X109431Y76955D02*
X110662D01*
X107639Y77065D02*
X107924Y76780D01*
X109256D01*
X100831Y77526D02*
X101291Y77065D01*
X107639D01*
X107835Y78859D02*
X108049Y78645D01*
X106506Y79159D02*
X107105D01*
X106407Y79060D02*
X106506Y79159D01*
X107039Y78720D02*
X107178Y78859D01*
X106350Y78720D02*
X107039D01*
X107178Y78859D02*
X107835D01*
X107105Y79159D02*
X107204Y79060D01*
X105797D02*
X106407D01*
X107204D02*
X107804D01*
X107026Y83947D02*
Y84392D01*
X106653Y83574D02*
X107026Y83947D01*
X105907Y83574D02*
X106653D01*
X107550Y86917D02*
X108539D01*
X108540Y86917D01*
X49123Y114946D02*
X49464Y115286D01*
X76936D01*
X77406Y115757D01*
X69019Y124619D02*
X69755Y125355D01*
X65302Y124619D02*
X69019D01*
X64869Y124185D02*
X65302Y124619D01*
X48335Y126920D02*
X50081D01*
X50611Y127450D02*
X82910D01*
X83440Y126920D01*
X50081D02*
X50611Y127450D01*
X48094Y127187D02*
X48960Y128053D01*
X77834Y128248D02*
X77937Y128350D01*
X72532Y128248D02*
X77834D01*
X72487Y128293D02*
X72532Y128248D01*
X68769Y128293D02*
X72487D01*
X68724Y128248D02*
X68769Y128293D01*
X67663Y128248D02*
X68724D01*
X67618Y128293D02*
X67663Y128248D01*
X66369Y128293D02*
X67618D01*
X66324Y128248D02*
X66369Y128293D01*
X65267Y128248D02*
X66324D01*
X65222Y128293D02*
X65267Y128248D01*
X62434Y128293D02*
X65222D01*
X62388Y128248D02*
X62434Y128293D01*
X61378Y128248D02*
X62388D01*
X61333Y128293D02*
X61378Y128248D01*
X55137Y128293D02*
X61333D01*
X55092Y128248D02*
X55137Y128293D01*
X54121Y128248D02*
X55092D01*
X53881Y128488D02*
X54121Y128248D01*
X52183Y128488D02*
X53881D01*
X51943Y128248D02*
X52183Y128488D01*
X51421Y128248D02*
X51943D01*
X51375Y128293D02*
X51421Y128248D01*
X50926Y128293D02*
X51375D01*
X50881Y128248D02*
X50926Y128293D01*
X50221Y128248D02*
X50881D01*
X50175Y128293D02*
X50221Y128248D01*
X49488Y128293D02*
X50175D01*
X49248Y128053D02*
X49488Y128293D01*
X48960Y128053D02*
X49248D01*
X43000Y112690D02*
X66070D01*
X66660Y112100D01*
X67111Y113180D02*
X67192Y113261D01*
X67845Y113730D02*
X74690D01*
X67290Y113770D02*
X67805D01*
X67845Y113730D01*
X66880Y114180D02*
X67290Y113770D01*
X42367Y114180D02*
X66880D01*
X85228Y62954D02*
X86196D01*
X85133Y62859D02*
X85228Y62954D01*
X82555Y62429D02*
X83068Y62942D01*
X83371D01*
X79638Y61386D02*
X80426Y62175D01*
X86196Y62954D02*
X86260Y62890D01*
X86682D01*
X83454Y62859D02*
X85133D01*
X83371Y62942D02*
X83454Y62859D01*
X82555Y62385D02*
Y62429D01*
X82461Y62291D02*
X82555Y62385D01*
X82381Y62291D02*
X82461D01*
X82265Y62175D02*
X82381Y62291D01*
X80426Y62175D02*
X82265D01*
X81557Y59967D02*
X83840Y62250D01*
X87680D01*
X67940Y59967D02*
X81557D01*
X87680Y62250D02*
X87830Y62400D01*
X98595Y55410D02*
X101906D01*
X98335Y55150D02*
X98595Y55410D01*
X92760Y55150D02*
X98335D01*
X92300Y55610D02*
X92760Y55150D01*
X83840Y56670D02*
X91920D01*
Y56710D01*
X92490Y57280D01*
X96238D02*
X96358Y57160D01*
X102872D01*
X92490Y57280D02*
X96238D01*
X102872Y57160D02*
X103042Y56990D01*
X120561Y54034D02*
X120715Y53880D01*
X115750Y54034D02*
X120561D01*
X120560Y54760D02*
X121170Y54150D01*
X114263Y54760D02*
X120560D01*
X113665Y54162D02*
X114263Y54760D01*
X71561Y48703D02*
X91760D01*
X107330Y49109D02*
X107697Y49476D01*
X91760Y48703D02*
X92166Y49109D01*
X107330D01*
X70972Y27748D02*
X71584D01*
X63110Y27870D02*
X66117D01*
X66856Y27131D02*
X70354D01*
X70972Y27748D01*
X66117Y27870D02*
X66856Y27131D01*
X71214Y26383D02*
X71434Y26162D01*
X66617Y26383D02*
X71214D01*
X65540Y27460D02*
X66617Y26383D01*
X107600Y31605D02*
X108620D01*
X106885Y30890D02*
X107600Y31605D01*
X105581Y30890D02*
X106885D01*
X105503Y30969D02*
X105581Y30890D01*
X105495Y30440D02*
X108260D01*
X105408Y30528D02*
X105495Y30440D01*
X71647Y18917D02*
X82370D01*
X83047Y18240D01*
X76467Y18759D02*
X79737D01*
X80354Y18142D02*
X82293D01*
X79737Y18759D02*
X80354Y18142D01*
X82293D02*
X82503Y17932D01*
X84543D01*
X84651Y18039D01*
X85981D01*
X87011Y17010D01*
X88720D01*
X109543Y32290D02*
X110790D01*
X110790Y32290D01*
X73635Y83916D02*
X75934D01*
X73525Y84026D02*
X73635Y83916D01*
X72125Y84026D02*
X73525D01*
X71980Y83880D02*
X72125Y84026D01*
X69113Y75404D02*
X70165Y76456D01*
X83399D01*
X84285Y75570D01*
X81440Y16263D02*
X83385D01*
X81203Y16026D02*
X81440Y16263D01*
X80216Y16026D02*
X81203D01*
X79946Y16296D02*
X80216Y16026D01*
X82699Y84695D02*
X83037D01*
X80396D02*
X82165D01*
X82574Y84820D02*
X82699Y84695D01*
X82290Y84820D02*
X82574D01*
X82165Y84695D02*
X82290Y84820D01*
X61669Y40615D02*
X63538Y42484D01*
X67698D01*
X72216Y42687D02*
X72230Y42702D01*
X67698Y42484D02*
X67902Y42687D01*
X72216D01*
X84803Y143950D02*
X86201D01*
X88779Y143700D02*
X88779Y143700D01*
X86451Y143700D02*
X88779D01*
X86201Y143950D02*
X86451Y143700D01*
X88518Y142790D02*
X90008Y141300D01*
X83940Y143190D02*
X84340Y142790D01*
X88518D01*
X89134Y138783D02*
X92211D01*
X88672Y138321D02*
X89134Y138783D01*
X84091Y138321D02*
X88672D01*
X86350Y84695D02*
X98540D01*
X86062Y84408D02*
X86350Y84695D01*
X83037D02*
X83325Y84408D01*
X86062D01*
X86890Y83720D02*
X97834D01*
X86499Y84111D02*
X86890Y83720D01*
X84600Y84060D02*
X84652Y84111D01*
X86499D01*
X82699Y84060D02*
X84600D01*
X81789Y83150D02*
X82699Y84060D01*
X77438Y61386D02*
X79638D01*
X77214Y61162D02*
X77438Y61386D01*
X74552Y61162D02*
X77214D01*
X74398Y61317D02*
X74552Y61162D01*
X71248Y61317D02*
X74398D01*
X85134Y64970D02*
X110752D01*
X84749Y64585D02*
X85134Y64970D01*
X69665Y64585D02*
X84749D01*
X69320Y64930D02*
X69665Y64585D01*
X70465Y63923D02*
X76820D01*
X70388Y64000D02*
X70465Y63923D01*
X76820D02*
X76821Y63925D01*
X84090D02*
X84285Y63730D01*
X76821Y63925D02*
X84090D01*
X70053Y64000D02*
X70388D01*
X69520Y63467D02*
X70053Y64000D01*
X66329Y61578D02*
X67940Y59967D01*
X113950Y51360D02*
X118520D01*
X118800Y51640D01*
X119725D01*
X120005Y51360D01*
X80670Y50211D02*
X103306D01*
X72439D02*
X79209D01*
X80419Y49960D02*
X80670Y50211D01*
X79209D02*
X79460Y49960D01*
X80419D01*
X80960Y51102D02*
X103469D01*
X75688D02*
X78511D01*
X80402Y51660D02*
X80960Y51102D01*
X78511D02*
X79069Y51660D01*
X80402D01*
X78511Y52670D02*
X82644D01*
X69115D02*
X76670D01*
X78442Y52739D02*
X78511Y52670D01*
X77638Y52808D02*
X77707Y52739D01*
X78442D01*
X76808Y52808D02*
X77638D01*
X76670Y52670D02*
X76808Y52808D01*
X78140Y52153D02*
X86885D01*
X78093Y52200D02*
X78140Y52153D01*
X69340Y52200D02*
X78093D01*
X75017Y51773D02*
X75688Y51102D01*
X69602Y51773D02*
X75017D01*
X76483Y75338D02*
X81751D01*
X82359Y74730D01*
X76409Y75412D02*
X76483Y75338D01*
X70929Y74820D02*
X71521Y75412D01*
X76409D01*
X80510Y88950D02*
X97060D01*
X58509Y89661D02*
X58630Y89540D01*
X85240D01*
X105383Y88483D02*
X106218Y87647D01*
X100803Y88483D02*
X105383D01*
X99920Y87600D02*
X100803Y88483D01*
X97440Y152290D02*
X97889Y151841D01*
X100290D01*
X69463Y118728D02*
Y118900D01*
Y118728D02*
X69501Y118690D01*
X75670D01*
X72150Y74240D02*
X73102Y75192D01*
X75403D01*
X75448Y75147D01*
X73069Y67000D02*
X97354D01*
X72931Y66863D02*
X73069Y67000D01*
X97354D02*
X97661Y67308D01*
X75759Y73011D02*
X82832D01*
X83576Y73755D02*
X84970D01*
X85775Y72950D01*
X82832Y73011D02*
X83576Y73755D01*
X85775Y72950D02*
X90090D01*
X83179Y72174D02*
X84590Y73585D01*
X80768Y72174D02*
X83179D01*
X95882Y145565D02*
X96086Y145770D01*
X91420Y145565D02*
X95882D01*
X96086Y145770D02*
X107503D01*
X94998Y145118D02*
X95090Y145209D01*
X89884Y145118D02*
X94998D01*
X98409Y145209D02*
X98598Y145020D01*
X101950D01*
X95090Y145209D02*
X98409D01*
X96822Y144850D02*
X102020D01*
X102189Y145019D02*
X105893D01*
X102020Y144850D02*
X102189Y145019D01*
X105893D02*
X106062Y144850D01*
X109766D02*
X109791Y144825D01*
X96657Y144684D02*
X96822Y144850D01*
X106062D02*
X109766D01*
X86655Y122840D02*
X93628D01*
X95288Y124500D01*
X85980Y123515D02*
X86655Y122840D01*
X42500Y121450D02*
X72957D01*
X73835Y120571D01*
X104292D02*
X104488Y120768D01*
X113498D01*
X114077Y121346D01*
X73835Y120571D02*
X104292D01*
X114739Y78343D02*
X123338D01*
X114719Y78363D02*
X114739Y78343D01*
X90005Y146763D02*
X90088Y146680D01*
X89825Y146769D02*
X89831Y146763D01*
X90005D01*
X90088Y146680D02*
X96814D01*
X69360Y119070D02*
X75140D01*
X69237Y119193D02*
X69360Y119070D01*
X34992Y88695D02*
X64861D01*
X65068Y88488D01*
X92518D01*
X92610Y88580D01*
X34263Y87966D02*
X34992Y88695D01*
X92610Y88580D02*
X97870D01*
X98150Y88860D01*
X107233Y73490D02*
X107407Y73316D01*
Y73303D02*
Y73316D01*
X105240Y73490D02*
X107233D01*
X112147Y59285D02*
X112277Y59154D01*
X124536D01*
X124690Y59000D01*
X112771Y58939D02*
X113635D01*
X112392Y58560D02*
X112771Y58939D01*
X113636Y58940D02*
X114025D01*
X114105Y58860D01*
X113635Y58939D02*
X113636Y58940D01*
X121970Y105680D02*
X123110D01*
X106855Y105668D02*
X121958D01*
X106756Y105767D02*
X106855Y105668D01*
X121958D02*
X121970Y105680D01*
X32650Y105710D02*
X64910D01*
X64990Y105791D01*
X32648Y105708D02*
X32650Y105710D01*
X19288Y105170D02*
X19826Y105708D01*
X18933Y105170D02*
X19288D01*
X19826Y105708D02*
X32648D01*
X16427Y105398D02*
X18704D01*
X18933Y105170D01*
X16259Y105231D02*
X16427Y105398D01*
X17642Y111339D02*
X17730Y111427D01*
X18975D01*
X16397Y111339D02*
X17642D01*
X16287Y111449D02*
X16397Y111339D01*
X18975Y111427D02*
X19356D01*
X19957Y112029D01*
X26717D01*
X26746Y112000D01*
X37810D01*
X39150Y110660D01*
X66180D01*
X66849Y111329D01*
X107097D01*
X16180Y94450D02*
X24950D01*
X27100Y92300D01*
X14350Y92620D02*
X16180Y94450D01*
X11870Y99300D02*
X40459D01*
X17563Y98703D02*
X91567D01*
X92240Y98030D01*
X40459Y99300D02*
X41547Y100388D01*
X10530Y100640D02*
X11870Y99300D01*
X16890Y98030D02*
X17563Y98703D01*
X27100Y92300D02*
X41787D01*
X121983Y119403D02*
X122020Y119440D01*
X107762Y119403D02*
X121983D01*
X107614Y119551D02*
X107762Y119403D01*
X103108Y119551D02*
X107614D01*
X102908Y119350D02*
X103108Y119551D01*
X100568Y119350D02*
X102908D01*
X84512Y86549D02*
X92929D01*
X83806Y86750D02*
X84311D01*
X84512Y86549D01*
X80750D02*
X83604D01*
X83806Y86750D01*
X76480Y121430D02*
X80626D01*
X80716Y121340D01*
X89560D01*
X89820Y121600D01*
X120506Y100844D02*
X120786Y100564D01*
X121560D01*
X112255Y58390D02*
X113470D01*
X113850Y58770D01*
X114105Y58860D02*
X114350D01*
X114770Y58440D01*
X119189D01*
X119269Y58520D01*
X122840D01*
X112745Y100690D02*
X112899Y100844D01*
X120506D01*
X106530Y100690D02*
X112745D01*
X105950Y101270D02*
X106530Y100690D01*
X120590Y101570D02*
X120700Y101680D01*
X101813Y101570D02*
X120590D01*
X101718Y101475D02*
X101813Y101570D01*
X97661Y67308D02*
X108657D01*
X119787Y77153D02*
X120110Y76830D01*
X112064Y77177D02*
X113890D01*
X113984Y77083D01*
X118503D01*
X118573Y77153D01*
X113638Y65499D02*
X116614D01*
X115055Y64652D02*
X115083Y64680D01*
X116960D01*
X112409Y76630D02*
X116696D01*
X116830Y76495D02*
X119980D01*
X111167Y75388D02*
X112409Y76630D01*
X116696D02*
X116830Y76495D01*
X73501Y72761D02*
X73768Y72494D01*
X73067Y72761D02*
X73501D01*
X73036Y72792D02*
X73067Y72761D01*
X70892Y72425D02*
X71259Y72792D01*
X73036D01*
X68825Y72622D02*
X69023Y72425D01*
X70892D01*
X64980Y72780D02*
X66136D01*
X66742Y72174D01*
X68083Y72622D02*
X68825D01*
X68071Y72610D02*
X68083Y72622D01*
X64159Y73601D02*
X64980Y72780D01*
X60724Y90213D02*
X68115D01*
X68120Y90218D01*
X58570Y117360D02*
X64019D01*
X64098Y117281D01*
X54432Y115630D02*
X56152Y117350D01*
X58560D02*
X58570Y117360D01*
X56152Y117350D02*
X58560D01*
X66749Y51135D02*
X70764D01*
X70889Y51260D02*
X70894D01*
X70764Y51135D02*
X70889Y51260D01*
X62700Y51507D02*
X71143D01*
X62188Y52019D02*
X62700Y51507D01*
X71143D02*
X72439Y50211D01*
X69350Y34007D02*
Y34021D01*
Y34007D02*
X69502Y33855D01*
X73835D01*
X75291Y30300D02*
X75341Y30250D01*
X73910Y30300D02*
X75291D01*
X73273Y29663D02*
X73910Y30300D01*
X42130Y113180D02*
X67111D01*
X42010Y113060D02*
X42130Y113180D01*
X42910Y112770D02*
X42920D01*
X43000Y112690D01*
X66660Y112100D02*
X115222D01*
X67192Y113261D02*
X79891D01*
X109520Y43391D02*
X109552D01*
X112085D02*
X114190D01*
X112003Y43473D02*
X112085Y43391D01*
X109634Y43473D02*
X112003D01*
X109552Y43391D02*
X109634Y43473D01*
X87630Y144629D02*
X87669Y144591D01*
X87630Y144629D02*
Y145000D01*
X87669Y144591D02*
X89143D01*
X89231Y144679D01*
X89786D01*
X89791Y144684D02*
X96657D01*
X89786Y144679D02*
X89791Y144684D01*
X109791Y144825D02*
X116639D01*
X116704Y144890D01*
X121710D01*
X84202Y68633D02*
X99423D01*
X100480Y69690D01*
X83253Y69582D02*
X84202Y68633D01*
X113879Y28804D02*
X115858D01*
X113733Y28951D02*
X113879Y28804D01*
X115858D02*
X115974Y28920D01*
X73945Y24330D02*
X73955Y24320D01*
X73960D01*
X73970Y24310D01*
X82553D01*
X71434Y26162D02*
X78148D01*
X78185Y26200D02*
X81600D01*
X83220Y27820D01*
X78148Y26162D02*
X78185Y26200D01*
X82553Y24310D02*
X83303Y25060D01*
X114575D01*
X115115Y25600D02*
X116250D01*
X114575Y25060D02*
X115115Y25600D01*
X102543Y25965D02*
X102875Y25633D01*
X103009Y25514D02*
X111694D01*
X102889Y25633D02*
X103009Y25514D01*
X111694D02*
X111830Y25650D01*
X102875Y25633D02*
X102889D01*
X116250Y25600D02*
X116534Y25316D01*
X118470D01*
X115080Y75840D02*
X115157Y75763D01*
X115185D01*
X112163Y75587D02*
X115788D01*
X111666Y75090D02*
X112163Y75587D01*
X115788D02*
X115905Y75704D01*
X113755Y75840D02*
X115080D01*
X112780Y75892D02*
X113702D01*
X113755Y75840D01*
X115905Y75704D02*
X118319D01*
X87060Y85030D02*
X103010Y85030D01*
X86740Y84950D02*
X86980D01*
X87060Y85030D01*
X86730Y82920D02*
X86740Y82930D01*
X82850Y82920D02*
X86730D01*
X47303Y84728D02*
X47308Y84734D01*
X25990Y88364D02*
X26491Y87862D01*
X24530Y88364D02*
X25990D01*
X26491Y87862D02*
X28921D01*
X28952Y87831D01*
X31303D01*
X31438Y87966D01*
X34263D01*
X98150Y88860D02*
X109215D01*
X109775Y88300D01*
X115865D01*
X116345Y88780D01*
X119380D01*
X110563Y88860D02*
X116000D01*
X110365Y89058D02*
X110563Y88860D01*
X116000D02*
Y88985D01*
X115985Y89000D02*
X116000Y88985D01*
X118573Y77153D02*
X119787D01*
X109256Y76780D02*
X109431Y76955D01*
X100355D02*
X107069D01*
X107514Y76510D01*
X108509D01*
X108123Y77234D02*
Y77413D01*
X108347Y77010D02*
X108578D01*
X108123Y77234D02*
X108347Y77010D01*
X99758Y77526D02*
X100831D01*
X100000Y77310D02*
X100355Y76955D01*
X107846Y77691D02*
X108123Y77413D01*
X97044Y77691D02*
X107846D01*
X99465Y77232D02*
X99758Y77526D01*
X96080Y77232D02*
X99465D01*
X96002Y77310D02*
X96080Y77232D01*
X90660Y77310D02*
X96002D01*
X70540Y77225D02*
X90575D01*
X90660Y77310D01*
X70001Y76687D02*
X70540Y77225D01*
X67567Y76687D02*
X70001D01*
X67467Y76787D02*
X67567Y76687D01*
X64184Y76381D02*
X64589Y76787D01*
X67467D01*
X26329Y76381D02*
X64184D01*
X25005Y77101D02*
X25608D01*
X26329Y76381D01*
X24917Y77014D02*
X25005Y77101D01*
X24530Y77014D02*
X24917D01*
X107084Y63179D02*
X107097Y63191D01*
X102231Y63179D02*
X107084D01*
X94000Y63730D02*
X101680D01*
X102231Y63179D01*
X93714Y63444D02*
X94000Y63730D01*
X84834Y63444D02*
X93714D01*
X84694Y63305D02*
X84834Y63444D01*
X80895Y63305D02*
X84694D01*
X79310Y61719D02*
X80895Y63305D01*
X73570Y61719D02*
X79310D01*
X73361Y61510D02*
X73570Y61719D01*
X71458Y61510D02*
X73361D01*
X69963Y63005D02*
X71458Y61510D01*
X70101Y62464D02*
X71248Y61317D01*
X67060Y62464D02*
X70101D01*
X67013Y62416D02*
X67060Y62464D01*
X61529Y63005D02*
X69963D01*
X61296Y63238D02*
X61529Y63005D01*
X53359Y63238D02*
X61296D01*
X53239Y63118D02*
X53359Y63238D01*
X47732Y63118D02*
X53239D01*
X47100Y62486D02*
X47732Y63118D01*
X45061Y63076D02*
X45067Y63070D01*
X38110Y63076D02*
X45061D01*
X37870Y62836D02*
X38110Y63076D01*
X37262Y62836D02*
X37870D01*
X36863Y62437D02*
X37262Y62836D01*
X36149Y62437D02*
X36863D01*
X45067Y63070D02*
X46690D01*
X47094Y62666D01*
Y62493D02*
X47100Y62486D01*
X47094Y62493D02*
Y62666D01*
X43799Y62438D02*
X43898D01*
X36962Y62381D02*
X43741D01*
X44327D02*
X44632Y62686D01*
X43956Y62381D02*
X44327D01*
X43898Y62438D02*
X43956Y62381D01*
X43741D02*
X43799Y62438D01*
X91522Y76802D02*
X99310D01*
X91340Y76620D02*
X91522Y76802D01*
X101448Y76022D02*
X102443D01*
X103078Y75388D02*
X111167D01*
X102443Y76022D02*
X103078Y75388D01*
X107167Y74680D02*
X118137D01*
X107117Y74730D02*
X107167Y74680D01*
X98312Y76290D02*
X101180D01*
X101448Y76022D01*
X94162Y76264D02*
X98286D01*
X94045Y76148D02*
X94162Y76264D01*
X86112Y76148D02*
X94045D01*
X98286Y76264D02*
X98312Y76290D01*
X86245Y65803D02*
X86260Y65788D01*
X67475Y65803D02*
X86245D01*
X63941Y64811D02*
X64641Y65510D01*
X67182D01*
X67475Y65803D01*
X25362Y64811D02*
X63941D01*
X24560Y65613D02*
X25362Y64811D01*
X24560Y65613D02*
Y65618D01*
X29457Y53557D02*
X29575Y53675D01*
X24756Y54085D02*
X25284Y53557D01*
X29457D01*
X24756Y54085D02*
Y54091D01*
X24560Y54287D02*
X24756Y54091D01*
X29575Y53675D02*
X34456D01*
X36511Y55730D01*
X88670D01*
X89119Y56179D02*
X91260D01*
X88670Y55730D02*
X89119Y56179D01*
X86781Y56401D02*
X96117D01*
X86650Y56270D02*
X86781Y56401D01*
X96117D02*
X96355Y56162D01*
X91510Y74520D02*
X91520Y74510D01*
X98820D01*
X99160Y74850D01*
X101207D01*
X101327Y74730D01*
X107117D01*
X118137Y74680D02*
X119673Y76216D01*
X96777Y75090D02*
X111666D01*
X111519Y69690D02*
X112176Y70347D01*
X100480Y69690D02*
X111519D01*
X91980Y42680D02*
Y42712D01*
X91945Y42748D02*
X91980Y42712D01*
X91945Y42748D02*
Y42757D01*
X77343D02*
X91945D01*
X96560Y42750D02*
X96821D01*
X96971Y42600D01*
X98252Y42955D02*
X98839Y43542D01*
X97033Y42955D02*
X98252D01*
X76679Y43421D02*
X77343Y42757D01*
X63274Y43421D02*
X76679D01*
X62316Y42463D02*
X63274Y43421D01*
X62567Y41957D02*
X63630Y43020D01*
X37048Y41957D02*
X62567D01*
X63630Y43020D02*
X64535D01*
X60889Y40615D02*
X61669D01*
X36300Y42463D02*
X62316D01*
X25352Y42096D02*
X35932D01*
X36300Y42463D01*
X24746Y42702D02*
X25352Y42096D01*
X24550Y42904D02*
X24746Y42708D01*
Y42702D02*
Y42708D01*
X31237Y30808D02*
X31252Y30823D01*
X25274Y30808D02*
X31237D01*
X24746Y31337D02*
X25274Y30808D01*
X24746Y31337D02*
Y31343D01*
X24550Y31538D02*
X24746Y31343D01*
X31252Y30823D02*
X34738D01*
X35451Y31536D01*
X62610D01*
X64405Y33331D02*
X81773D01*
X62610Y31536D02*
X64405Y33331D01*
X81773D02*
X82450Y32653D01*
X93497D01*
X93884Y32266D01*
X93750Y74980D02*
X93770Y75000D01*
X96687D01*
X96777Y75090D01*
X25264Y19464D02*
X34369D01*
X24736Y19992D02*
X25264Y19464D01*
X24736Y19992D02*
Y19998D01*
X24540Y20194D02*
X24736Y19998D01*
X34772Y19867D02*
X62130D01*
X34369Y19464D02*
X34772Y19867D01*
X62130D02*
X63689Y21426D01*
X71684D01*
X72887Y20223D01*
X80197D01*
X80870Y19550D01*
X109940D01*
X67879Y19720D02*
X71138D01*
X71919Y20501D01*
X109940Y19550D02*
X109952Y19538D01*
X112993D01*
X113585Y20130D01*
X120160D01*
X121778Y53540D02*
X121810D01*
X121708Y53470D02*
X121778Y53540D01*
X115700Y53522D02*
X118694D01*
X118746Y53470D01*
X121708D01*
X118970Y10250D02*
X118990Y10270D01*
X89010Y10250D02*
X118970D01*
X88600Y9840D02*
X89010Y10250D01*
X62630Y9840D02*
X88600D01*
X61355Y8565D02*
X62630Y9840D01*
X35958Y8565D02*
X61355D01*
X35582Y8190D02*
X35958Y8565D01*
X26494Y8190D02*
X35582D01*
X25904Y8780D02*
X26494Y8190D01*
X24481Y8780D02*
X25904D01*
X96612Y154902D02*
X97850Y156140D01*
X95431Y154902D02*
X96612D01*
X95090Y154560D02*
X95431Y154902D01*
X90610Y142937D02*
X93520D01*
X99202Y138490D02*
X99980D01*
X95952Y138783D02*
X96404D01*
X98593Y139099D02*
X99202Y138490D01*
X96721Y139099D02*
X98593D01*
X96404Y138783D02*
X96721Y139099D01*
X95709Y138540D02*
X95952Y138783D01*
X92454Y138540D02*
X95709D01*
X92211Y138783D02*
X92454Y138540D01*
X77801Y29630D02*
X84870D01*
X77181Y30250D02*
X77801Y29630D01*
X75341Y30250D02*
X77181D01*
X71589Y30175D02*
X73428D01*
X78665Y30544D02*
X79279Y29930D01*
X73797Y30544D02*
X78665D01*
X73428Y30175D02*
X73797Y30544D01*
X107719Y79215D02*
X108120D01*
X107658Y79277D02*
X107719Y79215D01*
X74878Y27748D02*
X81889D01*
X74598Y28028D02*
X74878Y27748D01*
X81889D02*
X82450Y28310D01*
X76057Y28160D02*
X76216Y28318D01*
X79578D02*
X80060Y28801D01*
X75361Y28160D02*
X76057D01*
X76216Y28318D02*
X79578D01*
X65610Y119420D02*
X65730D01*
X65550Y119480D02*
X65610Y119420D01*
X46360Y119480D02*
X65550D01*
X45620Y118740D02*
X46360Y119480D01*
X24657Y112880D02*
X38830D01*
X39010Y113060D01*
X42010D01*
X21675Y113860D02*
X38830D01*
X39020Y113670D02*
X41857D01*
X38830Y113860D02*
X39020Y113670D01*
X42125Y113938D02*
X42367Y114180D01*
X73508Y38317D02*
X73558D01*
X90785Y40660D02*
X90800D01*
X83586Y40757D02*
X83609Y40780D01*
X76547Y40757D02*
X83586D01*
X90665Y40780D02*
X90785Y40660D01*
X83609Y40780D02*
X90665D01*
X90167Y40157D02*
X90494Y40484D01*
X81583Y40507D02*
X81933Y40157D01*
X90167D01*
X78520Y38228D02*
X83109D01*
X77276Y38664D02*
X78084D01*
X83109Y38228D02*
X83267Y38069D01*
X78084Y38664D02*
X78520Y38228D01*
X73558Y38317D02*
X77325Y38302D01*
X77621Y38005D01*
X82847D01*
X77174Y38562D02*
X77276Y38664D01*
X65879Y38334D02*
X73508Y38317D01*
X64909Y39304D02*
X65879Y38334D01*
X48184Y142640D02*
X78636D01*
X48164Y142660D02*
X48184Y142640D01*
X78636D02*
X78656Y142620D01*
X66240Y134930D02*
X84559D01*
X84789Y135160D01*
X48410Y134355D02*
Y134760D01*
X66172Y134998D02*
X66240Y134930D01*
X48410Y134355D02*
X48825Y133940D01*
X47821Y134998D02*
X66172D01*
X47819Y135000D02*
X47821Y134998D01*
X47780Y150591D02*
X47799Y150610D01*
X47780Y150070D02*
Y150591D01*
Y150070D02*
X47900Y149950D01*
X48610Y150610D02*
X81002D01*
X81262Y150350D01*
X84370D02*
X84430Y150410D01*
X87570D01*
X81262Y150350D02*
X84370D01*
X84256Y132150D02*
X84403Y132003D01*
X84250Y132150D02*
X84256D01*
X84403Y132003D02*
X86570D01*
X48825Y133940D02*
X87430D01*
X94430Y134751D02*
X114267D01*
X94091Y135090D02*
X94430Y134751D01*
X88445Y135090D02*
X94091D01*
X88375Y135160D02*
X88445Y135090D01*
X84789Y135160D02*
X88375D01*
X81820Y136860D02*
X84380D01*
X85120Y136120D01*
X94290D01*
X94830Y136660D01*
X88779Y143700D02*
X89847D01*
X84140D02*
X84553D01*
X84803Y143950D01*
X89847Y143700D02*
X90610Y142937D01*
X93520D02*
X93883Y143299D01*
X108442D01*
X90008Y141300D02*
X94610D01*
X97280Y152130D02*
X97440Y152290D01*
X49690Y152130D02*
X97280D01*
X88706Y154524D02*
X90781D01*
X90818Y154560D01*
X95090D01*
X88550Y154680D02*
X88706Y154524D01*
X84695Y154680D02*
X88550D01*
X84071Y154057D02*
X84695Y154680D01*
X68634Y68450D02*
X82034D01*
X68490Y68306D02*
X68634Y68450D01*
X82034D02*
X83041Y67442D01*
X69419Y86402D02*
X80603D01*
X75934Y83916D02*
X76550Y83300D01*
X71065Y83880D02*
X71980D01*
X70250Y84695D02*
X71065Y83880D01*
X79001Y83300D02*
X80396Y84695D01*
X76550Y83300D02*
X79001D01*
X70659Y83150D02*
X81789D01*
X75448Y75147D02*
X80453D01*
X65840Y74240D02*
X72150D01*
X69790Y74820D02*
X70929D01*
X80395Y71800D02*
X80768Y72174D01*
X78422Y81380D02*
X90790D01*
X78252Y81550D02*
X78422Y81380D01*
X80250Y143500D02*
X83940D01*
X84140Y143700D01*
X77442Y149216D02*
X83400D01*
X84134Y149950D01*
X67827Y84695D02*
X70250D01*
X65091Y83720D02*
X70089D01*
X70659Y83150D01*
X77429Y82089D02*
X97911D01*
X77130Y81790D02*
X77429Y82089D01*
X70680Y81790D02*
X77130D01*
X70390Y82080D02*
X70680Y81790D01*
X80603Y86402D02*
X80750Y86549D01*
Y87097D02*
X93355Y87097D01*
X69650Y87451D02*
X80396D01*
X80750Y87097D01*
X80453Y75147D02*
X81375Y74225D01*
X81440Y74240D02*
X92710D01*
X81375Y74225D02*
X81425D01*
X81440Y74240D01*
X82359Y74730D02*
X89090D01*
X84285Y75570D02*
X90530D01*
X72505Y71800D02*
X80395D01*
X72131Y72174D02*
X72505Y71800D01*
X66742Y72174D02*
X72131D01*
X78640Y144040D02*
X82878D01*
X82968Y143950D01*
X83000D01*
X69600Y87417D02*
X69617D01*
X69650Y87451D01*
X85440Y78390D02*
X85640Y78590D01*
X101040D02*
X101844Y79394D01*
X85640Y78590D02*
X101040D01*
X62312Y62049D02*
X69950D01*
X69537Y85384D02*
X69918Y85003D01*
X65457Y85384D02*
X69537D01*
X69980Y80154D02*
X99454D01*
X69600Y77900D02*
X72200D01*
X74506Y28275D02*
X74915Y27867D01*
X75157D01*
X66828Y28157D02*
X66947Y28275D01*
X75259Y27968D02*
Y28058D01*
X72964Y27757D02*
X73103Y27895D01*
X66947Y28275D02*
X74506D01*
X75157Y27867D02*
X75259Y27968D01*
X74265Y28028D02*
X74598D01*
X71584Y27748D02*
X71592Y27757D01*
X75259Y28058D02*
X75361Y28160D01*
X71592Y27757D02*
X72964D01*
X73103Y27895D02*
X74132D01*
X71335Y29922D02*
X71589Y30175D01*
X83893Y16770D02*
X88940D01*
X83385Y16263D02*
X83893Y16770D01*
X75509Y16296D02*
X79946D01*
X68678Y17461D02*
X70831D01*
X76213Y18506D02*
X76467Y18759D01*
X74571Y18506D02*
X76213D01*
X74401Y18336D02*
X74571Y18506D01*
X73548Y18336D02*
X74401D01*
X73400Y18187D02*
X73548Y18336D01*
X70831Y17461D02*
X71557Y18187D01*
X73400D01*
X83047Y18240D02*
X99120D01*
X70860Y18130D02*
X71647Y18917D01*
X88668Y19168D02*
X88790Y19290D01*
X69680Y19168D02*
X88668D01*
X69103Y18591D02*
X69680Y19168D01*
X93498Y16455D02*
X95104D01*
X92794Y15751D02*
X93498Y16455D01*
X95182Y15506D02*
Y15620D01*
X94013Y14337D02*
X95182Y15506D01*
X66601Y14337D02*
X94013D01*
X75306Y40310D02*
X78020D01*
X78217Y40507D02*
X81583D01*
X78020Y40310D02*
X78217Y40507D01*
X72226D02*
X75109D01*
X75306Y40310D01*
X72188Y40469D02*
X72226Y40507D01*
X69545Y40469D02*
X72188D01*
X69350Y40274D02*
X69545Y40469D01*
X68449Y40660D02*
X70601Y40628D01*
X71880D01*
X76211Y41093D02*
X76547Y40757D01*
X71880Y40628D02*
X72346Y41093D01*
X76211D01*
X80606Y41160D02*
X88180D01*
X80383Y41383D02*
X80606Y41160D01*
X70741Y41383D02*
X80383D01*
X70318Y40960D02*
X70741Y41383D01*
X80670Y41624D02*
X94158D01*
X80432Y41862D02*
X80670Y41624D01*
X70473Y41862D02*
X80432D01*
X69750Y41139D02*
X70473Y41862D01*
X80840Y41984D02*
X94560D01*
X80794Y42030D02*
X80840Y41984D01*
X80670Y42030D02*
X80794D01*
X80380Y42320D02*
X80670Y42030D01*
X71842Y42320D02*
X80380D01*
X71771Y42249D02*
X71842Y42320D01*
X69179Y41412D02*
X70015Y42249D01*
X71771D01*
X66517Y38562D02*
X77174D01*
X64992Y40087D02*
X66517Y38562D01*
X63061Y40087D02*
X64992D01*
X65828Y16296D02*
X70265D01*
X70411Y16151D01*
X75364D02*
X75509Y16296D01*
X70411Y16151D02*
X75364D01*
X73433Y15751D02*
X92794D01*
X65573Y15857D02*
X73326D01*
X73433Y15751D01*
X65202Y15735D02*
X66601Y14337D01*
X65170Y16260D02*
X65573Y15857D01*
X80060Y28801D02*
X86201D01*
X84870Y29630D02*
X85378Y29122D01*
X71560Y29663D02*
X73273D01*
X71029Y29131D02*
X71560Y29663D01*
X69316Y29131D02*
X71029D01*
X82450Y28310D02*
X90780D01*
X74132Y27895D02*
X74265Y28028D01*
X64514Y32663D02*
X80200D01*
X80953Y31910D02*
X82630D01*
X80200Y32663D02*
X80953Y31910D01*
X68625Y32493D02*
X73352D01*
X67610Y31478D02*
X68625Y32493D01*
X64544Y31478D02*
X67610D01*
X62733Y40415D02*
X63061Y40087D01*
X86201Y28801D02*
X87450Y30050D01*
X68835Y28650D02*
X69316Y29131D01*
X74804Y31430D02*
X74881Y31506D01*
X82040D01*
X82345Y31201D01*
X71973Y31430D02*
X74804D01*
X71643Y31100D02*
X71973Y31430D01*
X82345Y31201D02*
X95681D01*
X69350Y31100D02*
X71643D01*
X95681Y31201D02*
X96355Y30528D01*
X69960Y29922D02*
X71335D01*
X79279Y29930D02*
X86780D01*
X92929Y86549D02*
X93010Y86630D01*
X69073Y86747D02*
X69419Y86402D01*
X97911Y82089D02*
X97998Y82175D01*
X93355Y87097D02*
X93625Y86827D01*
X93010Y86630D02*
X93040D01*
X65208Y16916D02*
X65828Y16296D01*
X61326Y39654D02*
X61649D01*
X62610Y40615D01*
X63204D01*
X63262Y40557D02*
X64039D01*
X63204Y40615D02*
X63262Y40557D01*
X64174Y40692D02*
X68337D01*
X64039Y40557D02*
X64174Y40692D01*
X56135Y39894D02*
X61566D01*
X63230Y41557D02*
X64311D01*
X61566Y39894D02*
X63230Y41557D01*
X64311D02*
X64729Y41139D01*
X111701Y115050D02*
X120330D01*
X58474Y89661D02*
X58509D01*
X42047Y92560D02*
X42552D01*
X42702Y92410D02*
X43480D01*
X14350Y90480D02*
Y92620D01*
X41787Y92300D02*
X42047Y92560D01*
X42552D02*
X42702Y92410D01*
X97109Y48528D02*
X97422Y48215D01*
X70474Y49790D02*
X71561Y48703D01*
X101420Y48528D02*
X102847D01*
X96777D02*
X97109D01*
X79485Y116325D02*
X89389D01*
X90614Y117550D02*
X96620D01*
X89389Y116325D02*
X90614Y117550D01*
X90234Y113910D02*
X90240D01*
X74690Y113730D02*
X74960Y114000D01*
X90144D02*
X90234Y113910D01*
X74960Y114000D02*
X90144D01*
X42125Y113938D02*
Y113938D01*
X41857Y113670D02*
X42125Y113938D01*
X19932Y115996D02*
X21949Y113980D01*
X28190D02*
X29183Y114972D01*
X21325Y113510D02*
X21675Y113860D01*
X21949Y113980D02*
X28190D01*
X24322Y113215D02*
X24657Y112880D01*
X36723Y114972D02*
X37740Y115990D01*
X46103D01*
X29183Y114972D02*
X36723D01*
X96890Y117280D02*
X98730D01*
X96620Y117550D02*
X96890Y117280D01*
X78798Y54746D02*
X79209D01*
X78772Y54720D02*
X78798Y54746D01*
X63134Y53925D02*
X63929Y54720D01*
X78772D01*
X71100Y53000D02*
X93760D01*
X65840Y123290D02*
X66224Y122906D01*
X72315D01*
X74251Y116530D02*
X79280D01*
X73978Y116803D02*
X74251Y116530D01*
X89471Y51839D02*
X103034D01*
X89200Y52110D02*
X89471Y51839D01*
X103034D02*
X103375Y52180D01*
X66694Y51190D02*
X66749Y51135D01*
X66493Y49790D02*
X70474D01*
X103469Y51102D02*
X104222Y51856D01*
X90341Y52727D02*
X90386Y52682D01*
X82701Y52727D02*
X90341D01*
X82644Y52670D02*
X82701Y52727D01*
X93760Y53000D02*
X93862Y52898D01*
X72315Y122906D02*
X72694Y122527D01*
X82384D01*
X69755Y125355D02*
X74398D01*
X75581Y124172D01*
X83152Y69582D02*
X83253D01*
X90386Y52682D02*
X98025D01*
X83055Y69680D02*
X83152Y69582D01*
X83025Y69680D02*
X83055D01*
X79280Y116530D02*
X79485Y116325D01*
X72782Y116803D02*
X73978D01*
X72304Y117281D02*
X72782Y116803D01*
X64098Y117281D02*
X72304D01*
X80002Y113150D02*
X89100D01*
X79891Y113261D02*
X80002Y113150D01*
X90145Y55920D02*
X94200D01*
X92300Y61380D02*
Y61920D01*
Y61380D02*
X92475Y61205D01*
X103997Y32721D02*
X106217D01*
X102979Y33739D02*
X103997Y32721D01*
X96785Y33239D02*
X97285Y33739D01*
X102979D01*
X44751Y116911D02*
X45397D01*
X45983Y116325D01*
X84273Y125180D02*
X87587D01*
X87691Y125077D02*
X88193D01*
X87587Y125180D02*
X87691Y125077D01*
X84770Y87476D02*
X84805D01*
X84625Y87331D02*
X84770Y87476D01*
X82491Y124989D02*
X84083D01*
X84273Y125180D01*
X86768Y101970D02*
X86774Y101976D01*
X31129Y101970D02*
X86768D01*
X31060Y101901D02*
X31129Y101970D01*
X31030Y101901D02*
X31060D01*
X86608Y77678D02*
X86621Y77665D01*
X91810D01*
X91835Y77640D01*
X96993D01*
X97044Y77691D01*
X86977Y70281D02*
X87007D01*
X87116Y70390D02*
X97337D01*
X87007Y70281D02*
X87116Y70390D01*
X97337D02*
X97593Y70646D01*
X46967Y84728D02*
X47303D01*
X46886Y84810D02*
X46967Y84728D01*
X18898Y122895D02*
X19343D01*
X20761Y121436D02*
X21487D01*
X19343Y122895D02*
X19706Y122532D01*
Y122491D02*
X20761Y121436D01*
X19706Y122491D02*
Y122532D01*
X18442Y116770D02*
X18623Y116589D01*
X19364Y116593D02*
X19932Y116025D01*
X18996Y116593D02*
X19364D01*
X19932Y115996D02*
Y116025D01*
X18992Y116589D02*
X18996Y116593D01*
X18623Y116589D02*
X18992D01*
X20061Y109650D02*
X20289D01*
X19721Y109990D02*
X20061Y109650D01*
X19382Y110351D02*
X19721Y110011D01*
X19009Y110347D02*
X19013Y110351D01*
X18398Y110589D02*
X18641Y110347D01*
X19009D01*
X19721Y109990D02*
Y110011D01*
X19013Y110351D02*
X19382D01*
X97060Y88950D02*
X97232Y89122D01*
X103739D01*
X101080Y157360D02*
X101460Y157740D01*
X117430D02*
X117770Y157400D01*
X101460Y157740D02*
X117430D01*
X84134Y149950D02*
X102503D01*
X47900D02*
X76709D01*
X77442Y149216D01*
X22170Y120243D02*
X22362Y120050D01*
X29520D01*
X29860Y119710D01*
X49926Y124185D02*
X64869D01*
X60550Y123750D02*
X61010Y123290D01*
X47940Y123750D02*
X60550D01*
X47609Y124081D02*
X47940Y123750D01*
X49331Y124780D02*
X49926Y124185D01*
X46792Y124780D02*
X49331D01*
X45258Y124081D02*
X47609D01*
X94846Y125077D02*
X104725D01*
X94189Y124420D02*
X94846Y125077D01*
X88193D02*
X88850Y124420D01*
X94189D01*
X95288Y124500D02*
X107390D01*
X83372Y123515D02*
X85980D01*
X71109Y126169D02*
X87350D01*
X88944Y127763D01*
X104451Y126614D02*
X108740D01*
X81673Y124172D02*
X82491Y124989D01*
X75581Y124172D02*
X81673D01*
X61010Y123290D02*
X65840D01*
X82384Y122527D02*
X83372Y123515D01*
X77406Y115757D02*
X99590D01*
X47161Y114946D02*
X49123D01*
X17000Y113510D02*
X21325D01*
X38748Y101350D02*
X55252D01*
X38188Y100790D02*
X38748Y101350D01*
X19336Y100790D02*
X38188D01*
X17596Y102530D02*
X19336Y100790D01*
X39848Y100920D02*
X42860D01*
X39208Y100280D02*
X39848Y100920D01*
X18740Y100280D02*
X39208D01*
X41547Y100388D02*
Y100590D01*
X55518Y101617D02*
X58720D01*
X71102Y101211D02*
X71376Y101485D01*
X82678D01*
X82818Y101345D01*
X59125Y101211D02*
X71102D01*
X58720Y101617D02*
X59125Y101211D01*
X42860Y100920D02*
X43150Y100630D01*
X88168D02*
X88358Y100820D01*
X43150Y100630D02*
X88168D01*
X30011Y102830D02*
X66310D01*
X66710Y103230D01*
X30380Y103700D02*
X31080Y104400D01*
X63778D01*
X63968Y104210D01*
X91320D01*
X93625Y86827D02*
X97278D01*
X97501Y86605D01*
X99454Y87240D02*
X100190D01*
X99094Y87600D02*
X99454Y87240D01*
X106090D02*
X106889D01*
X100190D02*
X100817Y87867D01*
X105463D01*
X106090Y87240D01*
X65104Y84679D02*
X65743Y84040D01*
X70089D01*
X64899Y84679D02*
X65104D01*
X64627Y84951D02*
X64899Y84679D01*
X62466Y84951D02*
X64627D01*
X65384Y85310D02*
X65457Y85384D01*
X56159Y85310D02*
X65384D01*
X107120Y82845D02*
X109215D01*
X109569Y82492D01*
X111222D01*
X111560Y82830D01*
X102190Y83396D02*
X103010D01*
X98020Y83750D02*
X98197Y83573D01*
X102013D02*
X102190Y83396D01*
X98197Y83573D02*
X102013D01*
X105510Y83100D02*
X106880D01*
X103010Y83396D02*
X103158Y83248D01*
X105362D02*
X105510Y83100D01*
X103158Y83248D02*
X105362D01*
X106638Y82965D02*
X107472D01*
X102515D02*
X104993D01*
X106473Y82800D02*
X106638Y82965D01*
X105158Y82800D02*
X106473D01*
X104993Y82965D02*
X105158Y82800D01*
X100085Y82845D02*
X104599D01*
X104952Y82492D02*
X106767D01*
X107120Y82845D01*
X104599D02*
X104952Y82492D01*
X102380Y83100D02*
X102515Y82965D01*
X99706Y83100D02*
X102380D01*
X101642Y82630D02*
X104398D01*
X104853Y82175D02*
X106985D01*
X104398Y82630D02*
X104853Y82175D01*
X106985D02*
X107440Y82630D01*
X108730Y82375D02*
X108985Y82630D01*
X104398Y81899D02*
X108381D01*
X108730Y82248D01*
Y82375D01*
X104049Y81550D02*
X104398Y81899D01*
X91320Y81910D02*
X100250D01*
X100610Y81550D02*
X104049D01*
X100250Y81910D02*
X100610Y81550D01*
X90790Y81380D02*
X91320Y81910D01*
X92300Y81550D02*
X95583D01*
X66940D02*
X72420D01*
X73130Y80840D02*
X91590D01*
X72420Y81550D02*
X73130Y80840D01*
X91590D02*
X92300Y81550D01*
X100070Y80770D02*
X101360D01*
X99454Y80154D02*
X100070Y80770D01*
X64560Y74260D02*
X64750Y74070D01*
X65594Y73286D02*
X69296D01*
X69760Y73750D01*
X65365Y73011D02*
X68886D01*
X104460Y72470D02*
X106780D01*
X98197D02*
X98490D01*
X104261Y72271D02*
X104460Y72470D01*
X98689Y72271D02*
X104261D01*
X98490Y72470D02*
X98689Y72271D01*
X99255Y72793D02*
X100991D01*
X96960D02*
X97546D01*
X97709Y72957D02*
X99092D01*
X99255Y72793D01*
X97546D02*
X97709Y72957D01*
X106726Y70646D02*
X106982Y70902D01*
X97593Y70646D02*
X106726D01*
X108957Y69263D02*
X111206D01*
X101180Y68320D02*
X108014D01*
X108957Y69263D01*
X100470Y69030D02*
X101180Y68320D01*
X99601Y70030D02*
X108209D01*
X98883Y69311D02*
X99601Y70030D01*
X84984Y69311D02*
X98883D01*
X84285Y70010D02*
X84984Y69311D01*
X100832Y62580D02*
X105337D01*
X100449Y62197D02*
X100832Y62580D01*
X98662Y62197D02*
X100449D01*
X98640Y62175D02*
X98662Y62197D01*
X97155Y62175D02*
X98640D01*
X103100Y62197D02*
X108420D01*
X102823Y61920D02*
X103100Y62197D01*
X94132Y61920D02*
X102823D01*
X92475Y61205D02*
X103925D01*
X104601Y61881D01*
X110360Y58680D02*
X111110Y59430D01*
X103704Y58680D02*
X110360D01*
X103100Y59285D02*
X103704Y58680D01*
X97792Y56702D02*
X97931Y56563D01*
X100671D01*
X100900Y56334D01*
X97403Y56010D02*
X97554D01*
X97624Y55940D01*
X110255Y57330D02*
X112147D01*
X84950Y57420D02*
X91760D01*
X92090Y57750D01*
X100330D01*
X106311Y55433D02*
X106944D01*
X106216Y55337D02*
X106311Y55433D01*
X104960Y55337D02*
X106216D01*
X104865Y55433D02*
X104960Y55337D01*
X103385Y55433D02*
X104865D01*
X105931Y55000D02*
X105968Y54963D01*
X106737D01*
X105517Y55000D02*
X105931D01*
X105367Y55150D02*
X105517Y55000D01*
X104032Y55150D02*
X105367D01*
X103869Y55312D02*
X104032Y55150D01*
X103236Y55312D02*
X103869D01*
X106311Y52180D02*
X106490Y52001D01*
X103375Y52180D02*
X106311D01*
X104222Y51856D02*
X105169D01*
X108409Y51679D02*
X109065Y51023D01*
X113613D02*
X113950Y51360D01*
X109065Y51023D02*
X113613D01*
X114046Y48220D02*
X114527D01*
X114755Y48448D01*
X105835Y44822D02*
X106384D01*
X36192Y41101D02*
X37048Y41957D01*
X36192Y40991D02*
Y41101D01*
X69480Y40960D02*
X70318D01*
X88180Y41160D02*
X88360Y40980D01*
X64729Y41139D02*
X69750D01*
X105757Y41710D02*
X106246D01*
X108129Y41528D02*
X108152Y41506D01*
X106428Y41528D02*
X108129D01*
X106246Y41710D02*
X106428Y41528D01*
X105823D02*
X106082D01*
X106331Y41279D01*
X107560D01*
X96180Y40962D02*
X96306Y40835D01*
X97316D01*
X97422Y40730D01*
X96157Y40962D02*
X96180D01*
X97422Y40730D02*
X104547D01*
X100000Y40275D02*
X101752D01*
X96002Y40128D02*
X99853D01*
X100000Y40275D01*
X107044Y40309D02*
X107480D01*
X110554Y40484D02*
X110784Y40714D01*
X112662D01*
X112786Y40590D01*
X113630D01*
X113830Y40790D01*
X107655Y40484D02*
X110554D01*
X107480Y40309D02*
X107655Y40484D01*
X96387Y39480D02*
X99551D01*
X96157Y39250D02*
X96387Y39480D01*
X92470Y38890D02*
X93100Y38260D01*
X96831D01*
X102192Y39241D02*
X105393D01*
X105412Y39222D02*
X105835D01*
X105393Y39241D02*
X105412Y39222D01*
X105835D02*
X105854Y39241D01*
X100750Y32570D02*
X101469D01*
X97445Y32110D02*
X100290D01*
X100750Y32570D01*
X107445Y32110D02*
X109069D01*
X100998D02*
X102875D01*
X103055Y32290D01*
X107265D01*
X107445Y32110D01*
X104360Y31955D02*
X108867D01*
X104185Y31780D02*
X104360Y31955D01*
X96920Y31780D02*
X104185D01*
X97041Y30969D02*
X105503D01*
X96610Y31400D02*
X97041Y30969D01*
X96355Y30528D02*
X105408D01*
X99498Y28920D02*
X102010D01*
X86780D02*
X87481D01*
X88141Y29580D01*
X98838D02*
X99498Y28920D01*
X88141Y29580D02*
X98838D01*
X87450Y30050D02*
X99120D01*
X99930Y29240D01*
X62717Y30866D02*
X64514Y32663D01*
X40026Y30866D02*
X62717D01*
X39371Y30211D02*
X40026Y30866D01*
X94569Y28689D02*
X102358D01*
X110795Y28791D02*
X111487D01*
X102358Y28689D02*
X103249Y29580D01*
X110006D01*
X110795Y28791D01*
X97023Y22978D02*
X99636D01*
X100086Y23428D02*
X108059D01*
X99636Y22978D02*
X100086Y23428D01*
X49243Y19247D02*
X49436Y19440D01*
X36492Y18701D02*
X37038Y19247D01*
X49243D01*
X62595Y19440D02*
X64253Y21099D01*
X69661D01*
X97050Y22718D02*
X106558D01*
X106990Y23150D01*
X98050Y22090D02*
X106694D01*
X107445Y22841D01*
X102895Y15453D02*
X103368Y14980D01*
X97668Y15453D02*
X102895D01*
X97288Y15832D02*
X97668Y15453D01*
X49436Y19440D02*
X62595D01*
X110994Y18911D02*
X111395Y18510D01*
X94309Y18911D02*
X110994D01*
X93930Y19290D02*
X94309Y18911D01*
X99150Y18270D02*
X119405D01*
X99120Y18240D02*
X99150Y18270D01*
X88790Y19290D02*
X93930D01*
X67016Y17010D02*
X68227D01*
X68678Y17461D01*
X95558Y16910D02*
X101824D01*
X95104Y16455D02*
X95558Y16910D01*
X102034Y17120D02*
X102480D01*
X117149Y17461D02*
X117490Y17120D01*
X102480D02*
X102821Y17461D01*
X117149D01*
X97955Y12647D02*
X99470D01*
X99786Y12964D02*
X106719D01*
X99470Y12647D02*
X99786Y12964D01*
X99460Y12464D02*
Y12472D01*
X98946Y11950D02*
X99460Y12464D01*
X97295Y11950D02*
X98946D01*
X96521Y12724D02*
Y13032D01*
Y12724D02*
X97295Y11950D01*
X72740Y6750D02*
X75246D01*
X93730Y6820D02*
X96193D01*
X75246Y6750D02*
X75646Y7150D01*
X93400D01*
X74764Y7140D02*
X75306Y7682D01*
X69220Y7140D02*
X74764D01*
X75306Y7682D02*
X95083D01*
X69080Y7190D02*
X69170D01*
X69220Y7140D01*
X93400Y7150D02*
X93730Y6820D01*
X95625Y7140D02*
X98709D01*
X95083Y7682D02*
X95625Y7140D01*
X72060Y7370D02*
X74282D01*
X75246Y8334D01*
X109462Y6608D02*
X109879D01*
X98076Y6588D02*
X99632D01*
X109089Y6981D02*
X109462Y6608D01*
X99632Y6588D02*
X100025Y6981D01*
X109089D01*
X109700Y6820D02*
X118250D01*
X96324Y6952D02*
X99059D01*
X99547Y7440D02*
X109080D01*
X109700Y6820D01*
X99059Y6952D02*
X99547Y7440D01*
X109970Y7140D02*
X111940D01*
X99579Y8010D02*
X109100D01*
X109970Y7140D01*
X98709D02*
X99579Y8010D01*
X108815Y8875D02*
X110130Y7560D01*
X99487Y8875D02*
X108815D01*
X98946Y8334D02*
X99487Y8875D01*
X75246Y8334D02*
X98946D01*
X107286Y114150D02*
X107744D01*
X100146Y115200D02*
X106236D01*
X107286Y114150D01*
X99590Y115757D02*
X100146Y115200D01*
X98730Y117280D02*
X100480Y115530D01*
X106923D01*
X107137Y115316D01*
X111435D01*
X106310Y149950D02*
X110130D01*
X105839Y149479D02*
X106310Y149950D01*
X102974Y149479D02*
X105839D01*
X102503Y149950D02*
X102974Y149479D01*
X111435Y115316D02*
X111701Y115050D01*
X109772Y114196D02*
X110945D01*
X109626Y114050D02*
X109772Y114196D01*
X108454Y114050D02*
X109626D01*
X108307Y114196D02*
X108454Y114050D01*
X107790Y114196D02*
X108307D01*
X110945D02*
X110991Y114150D01*
X107744D02*
X107790Y114196D01*
X110991Y114150D02*
X113306D01*
X104725Y125077D02*
X104829Y125180D01*
X118990D01*
X84530Y130450D02*
X85440Y131360D01*
X100735D02*
X101383Y130712D01*
X85440Y131360D02*
X100735D01*
X109630Y95833D02*
X109658Y95860D01*
X109630Y94814D02*
Y95833D01*
X109658Y95860D02*
Y96909D01*
X110939Y93505D02*
X111738D01*
X109630Y94814D02*
X110939Y93505D01*
X102669Y83516D02*
X105849D01*
X105907Y83574D01*
X106880Y83100D02*
X107120Y83340D01*
X100070Y82830D02*
X100085Y82845D01*
X107472Y82965D02*
X107647Y83140D01*
X101488Y82640D02*
X101632D01*
X101642Y82630D01*
X107647Y83140D02*
X108257D01*
X106825Y86284D02*
X107120D01*
X106388Y86720D02*
X106825Y86284D01*
X102976Y86720D02*
X106388D01*
X107108Y85388D02*
X107570Y85850D01*
X105682Y85388D02*
X107108D01*
X105510Y85560D02*
X105682Y85388D01*
X106836Y76685D02*
X107541Y75980D01*
X100747Y64620D02*
X100819Y64691D01*
X112147D01*
X107330Y56334D02*
X108090D01*
X104032Y56990D02*
X105469Y55553D01*
X103042Y56990D02*
X104032D01*
X105469Y55553D02*
X106549D01*
X102322Y56495D02*
X103385Y55433D01*
X106944D02*
X107671Y56159D01*
X102608Y55940D02*
X103236Y55312D01*
X106737Y54963D02*
X107773Y55998D01*
X106549Y55553D02*
X107330Y56334D01*
X107671Y56159D02*
X108162D01*
X107773Y55998D02*
X108172D01*
X103620Y55150D02*
X103931Y54839D01*
X102167Y55150D02*
X103620D01*
X101906Y55410D02*
X102167Y55150D01*
X105379Y46017D02*
Y46041D01*
X105517Y43803D02*
Y44657D01*
X109115Y15267D02*
X110329Y16480D01*
X103583Y15267D02*
X109115D01*
X101861Y16067D02*
X102783D01*
X103583Y15267D01*
X101706Y16221D02*
X101861Y16067D01*
X110080Y14980D02*
X110930Y15830D01*
X103368Y14980D02*
X110080D01*
X41529Y123293D02*
X42544Y124307D01*
X39583Y123293D02*
X41529D01*
X29319Y124063D02*
X29904Y123478D01*
X39398D01*
X39583Y123293D01*
X96974Y82793D02*
X97138Y82630D01*
X101478D01*
X101488Y82640D01*
X97998Y82175D02*
X103877D01*
X103908Y82205D01*
X104315D01*
X107396Y79394D02*
X107513Y79277D01*
X107658D01*
X101844Y79394D02*
X107396D01*
X109215Y72792D02*
X109537D01*
X109040Y72617D02*
X109215Y72792D01*
X108092Y72617D02*
X109040D01*
X107407Y73303D02*
X108092Y72617D01*
X48020Y62464D02*
X55338D01*
X47767Y62210D02*
X48020Y62464D01*
X47767Y62190D02*
Y62210D01*
X47580Y62003D02*
X47767Y62190D01*
X47211Y62003D02*
X47580D01*
X47152Y73017D02*
X47261D01*
X48091Y73847D02*
X55776D01*
X47261Y73017D02*
X48091Y73847D01*
X65930Y16781D02*
X66788D01*
X59654Y17190D02*
X65521D01*
X65930Y16781D01*
X47965Y5680D02*
X55771D01*
X47419Y5125D02*
X47965Y5671D01*
Y5680D01*
X48345Y138423D02*
X48474Y138294D01*
X47819Y138423D02*
X48345D01*
X48474Y138294D02*
X51388D01*
X111025Y23126D02*
X111047Y23104D01*
X111694D01*
X109249Y31100D02*
Y31574D01*
X108867Y31955D02*
X109249Y31574D01*
X112298Y31120D02*
X112310D01*
X109263Y32570D02*
X109543Y32290D01*
X108259Y32570D02*
X109263D01*
X108166Y32476D02*
X108259Y32570D01*
X102634Y32476D02*
X108166D01*
X112188Y32290D02*
X114963D01*
X112117Y32322D02*
X112156D01*
X112188Y32290D01*
X112096Y32343D02*
X112117Y32322D01*
X108620Y31605D02*
X108795Y31780D01*
X102486Y32348D02*
X102506D01*
X102634Y32476D01*
X114850Y34640D02*
X116990D01*
X114840Y34650D02*
X114850Y34640D01*
X115418Y36216D02*
X117316D01*
X117400Y36300D01*
X115268Y36096D02*
X115298D01*
X115418Y36216D01*
X114921Y35921D02*
X118502D01*
X114419Y35952D02*
X114890D01*
X118502Y35921D02*
X118530Y35950D01*
X114890Y35952D02*
X114921Y35921D01*
X118530Y35950D02*
X118560D01*
X114931Y35521D02*
X121181D01*
X121190Y35530D01*
X114675Y35777D02*
X114931Y35521D01*
X111326Y35770D02*
X112140D01*
X111300Y35796D02*
X111326Y35770D01*
X114921Y36400D02*
X116940D01*
X114890Y36370D02*
X114921Y36400D01*
X111955Y36370D02*
X114890D01*
X111694Y23104D02*
X111712D01*
X106399Y37355D02*
X106519Y37475D01*
X99351Y37355D02*
X106399D01*
X99176Y37530D02*
X99351Y37355D01*
X109630Y37650D02*
X109900Y37380D01*
X109615Y36553D02*
Y36860D01*
X109950Y37195D01*
X110361D01*
X109615Y36553D02*
X109620Y36548D01*
X109616Y36284D02*
X110205Y36874D01*
X111956D01*
X109630Y33640D02*
X109657Y33667D01*
X109938D01*
X110385Y35796D02*
X111300D01*
X108527Y36280D02*
X108531Y36284D01*
X109616D01*
X103775Y41670D02*
X104844D01*
X105182Y41331D02*
X105341D01*
X104844Y41670D02*
X105182Y41331D01*
X104407Y40321D02*
X105131D01*
X104395Y40309D02*
X104407Y40321D01*
X112096Y39400D02*
X114730D01*
X101752Y40275D02*
X101787Y40309D01*
X104395D01*
X106968Y40384D02*
X107044Y40309D01*
X106580Y40384D02*
X106968D01*
X106906Y33004D02*
X106945Y32965D01*
X107275Y37915D02*
X107330Y37970D01*
X106190Y37915D02*
X107275D01*
X108315Y41506D02*
X108561Y41259D01*
X108152Y41506D02*
X108315D01*
X108841Y41139D02*
X108920Y41060D01*
X109481D01*
X105517Y41470D02*
X105757Y41710D01*
X103023Y41845D02*
X104395D01*
X102540Y41362D02*
X103023Y41845D01*
X104395D02*
X104410Y41830D01*
X96830Y41412D02*
X97501D01*
X97551Y41362D01*
X102540D01*
X105907Y41324D02*
Y41331D01*
X105589Y41295D02*
X105823Y41528D01*
X105378Y41295D02*
X105589D01*
X105341Y41331D02*
X105378Y41295D01*
X101826Y41917D02*
X102069Y42159D01*
X94628Y41917D02*
X101826D01*
X111987Y36905D02*
X112820D01*
X112913Y36812D01*
X111956Y36874D02*
X111987Y36905D01*
X99771Y42347D02*
X109240D01*
X109250Y42337D01*
X98338Y42872D02*
X99632D01*
X98247Y42780D02*
X98338Y42872D01*
X96858Y42883D02*
X96960Y42780D01*
X98247D01*
X105831Y44818D02*
X105835Y44822D01*
X112225Y46400D02*
X114720D01*
X114730Y46410D01*
X109211Y49275D02*
X109221Y49265D01*
X108530Y49275D02*
X109211D01*
X109221Y49265D02*
X109494D01*
X108495Y49240D02*
X108530Y49275D01*
X107697Y49476D02*
X110570D01*
X111010Y49916D01*
X106109Y48215D02*
X106110Y48216D01*
X97422Y48215D02*
X106109D01*
X114755Y48448D02*
X117767D01*
X117995Y48220D01*
X115932Y48045D02*
X116160Y48273D01*
X113695Y48257D02*
X113907Y48045D01*
X115932D01*
X109985Y49805D02*
X110000Y49791D01*
X109985Y49805D02*
Y49916D01*
X106343D02*
X109985D01*
X105521Y49600D02*
X106026D01*
X105517Y49596D02*
X105521Y49600D01*
X106026D02*
X106343Y49916D01*
X106803Y50211D02*
X111266D01*
X106649Y50365D02*
X106803Y50211D01*
X105679Y51180D02*
X107330D01*
X105369Y50870D02*
X105679Y51180D01*
X106520Y51679D02*
X108409D01*
X105171Y51854D02*
X106345D01*
X106520Y51679D01*
X105169Y51856D02*
X105171Y51854D01*
X110297Y51980D02*
X110458Y51819D01*
X109192Y51980D02*
X110297D01*
X110508Y51939D02*
X111826D01*
X110292Y52155D02*
X110508Y51939D01*
X109120Y52155D02*
X110292D01*
X110458Y51819D02*
X115359D01*
X115540Y52001D01*
X111826Y51939D02*
X112014Y52128D01*
X112088Y53075D02*
X112263Y52900D01*
X109341Y53075D02*
X112088D01*
X108991Y52725D02*
X109341Y53075D01*
X105924Y52725D02*
X108991D01*
X105707Y52507D02*
X105924Y52725D01*
X109065Y52100D02*
X109120Y52155D01*
X112014Y52128D02*
X114882D01*
X114934Y52180D02*
X115890D01*
X114882Y52128D02*
X114934Y52180D01*
X108200Y52100D02*
X109065D01*
X113583Y53697D02*
X114151D01*
X114245Y53603D01*
X115533D01*
X115628Y53697D01*
X117255D01*
X113240Y54040D02*
X113583Y53697D01*
X113665Y52835D02*
X115475D01*
X113490Y53010D02*
X113665Y52835D01*
X115475D02*
X115540Y52900D01*
X115570D01*
X117312Y53640D02*
X118970D01*
X117255Y53697D02*
X117312Y53640D01*
X114592Y56216D02*
X114692Y56117D01*
X112392Y56216D02*
X114592D01*
X114692Y56117D02*
X114721D01*
X112042Y56335D02*
X112263D01*
X112247Y57230D02*
X112780D01*
X112147Y57330D02*
X112247Y57230D01*
X111786Y56591D02*
X112042Y56335D01*
X110780Y56591D02*
X111786D01*
X110443Y56254D02*
X110780Y56591D01*
X108172Y55998D02*
X108253Y56079D01*
X108162Y56159D02*
X108258Y56254D01*
X110443D01*
X108842Y56531D02*
X108882Y56570D01*
X109007D02*
X109028Y56591D01*
X108882Y56570D02*
X109007D01*
X113894Y59625D02*
X114069Y59800D01*
X114890D01*
X111659Y59625D02*
X113894D01*
X112297Y60077D02*
X112407D01*
X112428Y60056D01*
X112263Y60110D02*
X112297Y60077D01*
X106964Y59255D02*
X110420D01*
X111397Y59680D02*
X111604D01*
X110420Y59255D02*
X111051Y59886D01*
X111366Y59711D02*
X111397Y59680D01*
X111471Y59886D02*
X111557Y59800D01*
X112000D01*
X111051Y59886D02*
X111471D01*
X111130Y59711D02*
X111366D01*
X111604Y59680D02*
X111659Y59625D01*
X106609Y59610D02*
X106964Y59255D01*
X102060Y59610D02*
X106609D01*
X110752Y64970D02*
X110854Y64868D01*
X111055D01*
X110904Y64357D02*
X111118D01*
X117323Y56327D02*
X117330Y56320D01*
X111850Y68570D02*
X111870Y68590D01*
X110150Y68570D02*
X111850D01*
X111206Y69263D02*
X111253Y69216D01*
X111283D01*
X115155Y71623D02*
X115198Y71580D01*
X116710D01*
X113478Y71428D02*
X113673Y71623D01*
X115155D01*
X113217Y70522D02*
X113349Y70391D01*
Y70284D02*
X113370Y70263D01*
X113349Y70284D02*
Y70391D01*
X111291Y70325D02*
X111489Y70522D01*
X113217D01*
X108209Y70030D02*
X108729Y70550D01*
X110920D01*
X106982Y70902D02*
X110946D01*
X113179Y71428D02*
X113478D01*
X88935Y71165D02*
X110997D01*
X111132Y71030D01*
X111139D01*
X113668Y71315D02*
X113723Y71370D01*
X113638Y71315D02*
X113668D01*
X113723Y71370D02*
X113732D01*
X113744Y71382D01*
X112517Y72330D02*
X119440D01*
X112070Y71883D02*
X112517Y72330D01*
X112070Y71542D02*
Y71883D01*
X112604Y72020D02*
X118400D01*
X112382Y71798D02*
X112604Y72020D01*
X106585Y47495D02*
X106675Y47405D01*
X104670Y47697D02*
X105541D01*
X105744Y47495D01*
X106585D01*
X109963Y73240D02*
X110763D01*
X110904Y73099D01*
X109850Y73126D02*
X109963Y73240D01*
X110904Y73099D02*
X116140D01*
X109850Y73105D02*
Y73126D01*
X109537Y72792D02*
X109850Y73105D01*
X103591Y76685D02*
X106836D01*
X103488Y76788D02*
X103591Y76685D01*
X108278Y77944D02*
X108352Y77870D01*
X102515Y77944D02*
X108278D01*
X102418Y78040D02*
X102515Y77944D01*
X108352Y77870D02*
X110170D01*
X111020Y80479D02*
X114382D01*
X110832Y80426D02*
X110968D01*
X111020Y80479D01*
X110811Y80405D02*
X110832Y80426D01*
X109314Y79959D02*
Y80409D01*
X108509Y78130D02*
Y78159D01*
X108049Y78619D02*
X108509Y78159D01*
X108558Y78510D02*
X108640Y78428D01*
X108328Y78510D02*
X108558D01*
X108640Y78428D02*
X108670D01*
X107804Y79060D02*
X108213Y78650D01*
Y78624D02*
X108328Y78510D01*
X108213Y78624D02*
Y78650D01*
X108049Y78619D02*
Y78645D01*
X108120Y79215D02*
X108395Y78940D01*
X108424D01*
X105127Y80405D02*
X108578D01*
X108829Y79962D02*
Y80154D01*
X108578Y80405D02*
X108829Y80154D01*
Y79962D02*
X108831Y79959D01*
X104952Y80580D02*
X105127Y80405D01*
X101550Y80580D02*
X104952D01*
X109445Y81517D02*
X109771D01*
X109793Y81494D01*
X114413Y80510D02*
X116795D01*
X114382Y80479D02*
X114413Y80510D01*
X109793Y81494D02*
X111505D01*
X111680Y81319D01*
X114007Y83270D02*
X114785Y82492D01*
X111801Y83270D02*
X114007D01*
X111544Y83012D02*
X111801Y83270D01*
X108385Y83012D02*
X111544D01*
X108257Y83140D02*
X108385Y83012D01*
X116233Y82492D02*
X116621Y82880D01*
X114785Y82492D02*
X116233D01*
X111208Y83795D02*
X112503D01*
X112583Y83875D01*
X110760Y83699D02*
X111111D01*
X111208Y83795D01*
X108666Y83396D02*
X111680D01*
X108457Y83187D02*
X108666Y83396D01*
X112583Y83875D02*
X113695D01*
X113820Y84000D01*
X106245Y84825D02*
X106889D01*
X106220Y84850D02*
X106245Y84825D01*
X18690Y123426D02*
X18762D01*
X18680Y123416D02*
X18690Y123426D01*
X18583Y123416D02*
X18680D01*
X17894Y123025D02*
X18191D01*
X17729D02*
X17739Y123015D01*
X18762Y123426D02*
X19720Y124384D01*
X18835Y122832D02*
X18898Y122895D01*
X16944Y123025D02*
X17729D01*
X18191D02*
X18583Y123416D01*
X17806Y122895D02*
X18289D01*
X18352Y122832D01*
X17739Y123015D02*
X17884D01*
X17894Y123025D01*
X17594Y122683D02*
X17806Y122895D01*
X18352Y122832D02*
X18835D01*
X16763Y110589D02*
X17660D01*
X17924D02*
X18398D01*
X17660D02*
X17719Y110530D01*
X16533Y110359D02*
X16763Y110589D01*
X17719Y110530D02*
X17864D01*
X17924Y110589D01*
X104519Y33199D02*
X104529Y33190D01*
X106806D02*
X107256Y33640D01*
X104433Y33220D02*
X104454Y33199D01*
X104519D01*
X104529Y33190D02*
X106806D01*
X115974Y28920D02*
X116660D01*
X74380Y8449D02*
X74439D01*
X74364Y8433D02*
X74380Y8449D01*
X62826Y7054D02*
X64205Y8433D01*
X74439Y8449D02*
X74460Y8470D01*
X64205Y8433D02*
X74364D01*
X63564Y19861D02*
X67738D01*
X62492Y18790D02*
X63564Y19861D01*
X67738D02*
X67879Y19720D01*
X46940Y17202D02*
X47080Y17062D01*
X46500Y17750D02*
X46940Y17310D01*
Y17202D02*
Y17310D01*
X114300Y134784D02*
Y134790D01*
X114267Y134751D02*
X114300Y134784D01*
X113261Y104831D02*
X113471Y105041D01*
X116870Y104955D02*
X116880D01*
X116784Y105041D02*
X116870Y104955D01*
X113471Y105041D02*
X116784D01*
X109630Y85850D02*
X109868Y85613D01*
X108777Y85850D02*
X109630D01*
X107399Y86766D02*
X107550Y86917D01*
X106638Y87049D02*
X106921Y86766D01*
X107399D01*
X106800Y86640D02*
X106802Y86641D01*
X107286D01*
X99463Y84456D02*
X99574Y84567D01*
X98635Y84598D02*
X98776Y84456D01*
X99463D01*
X110000Y66020D02*
X110690D01*
X99255Y64620D02*
X100747D01*
X99130Y64495D02*
X99255Y64620D01*
X39891Y51799D02*
X40482D01*
X39871Y51819D02*
X39891Y51799D01*
X97294Y56490D02*
X97507Y56702D01*
X97792D01*
X18666Y6320D02*
X18929Y6057D01*
X18471Y6333D02*
X18484Y6320D01*
X18666D01*
X18579Y51839D02*
X18627Y51792D01*
X18641D01*
X18550Y51839D02*
X18579D01*
X18774Y62012D02*
X18899Y62137D01*
Y62987D01*
X18736Y63149D02*
X18899Y62987D01*
X18774Y61029D02*
Y62012D01*
Y61029D02*
X18964Y60838D01*
X18571Y63149D02*
X18736D01*
X18550Y63171D02*
X18571Y63149D01*
X97057Y87049D02*
X106638D01*
X97440Y75980D02*
X101250D01*
X97288Y75837D02*
X97298D01*
X97440Y75980D01*
X20770Y118187D02*
X21007Y117950D01*
Y117936D02*
Y117950D01*
X20016Y118008D02*
X20194Y118187D01*
X20770D01*
X21124Y117833D02*
X21220Y117737D01*
X21007Y117936D02*
X21110Y117833D01*
X21124D01*
X22170Y120243D02*
Y120574D01*
X-3219Y106180D02*
X-3122Y106083D01*
X10123D01*
X-3610Y106180D02*
X-3219D01*
X10123Y106083D02*
X10330Y106290D01*
X16170Y116947D02*
X16258Y117035D01*
X16170Y116771D02*
Y116947D01*
X16258Y117035D02*
X17283D01*
X20270Y124961D02*
X20489Y125180D01*
X20167Y124827D02*
X20270Y124929D01*
Y124961D01*
X20135Y124827D02*
X20167D01*
X20489Y125180D02*
X46392D01*
X19720Y124411D02*
X20135Y124827D01*
X16197Y122235D02*
X16344Y122088D01*
X17420D02*
X17560Y122227D01*
X16344Y122088D02*
X17420D01*
X19996Y121365D02*
Y121930D01*
X19699Y122227D02*
X19996Y121930D01*
X17560Y122227D02*
X19699D01*
X19996Y121365D02*
X21472Y119890D01*
X21780D01*
X21487Y121436D02*
X22180Y120743D01*
X22170Y120574D02*
X22180Y120584D01*
Y120743D01*
X17408Y117160D02*
X18487D01*
X18773Y117446D02*
X19034D01*
X18487Y117160D02*
X18773Y117446D01*
X19034D02*
X19596Y118008D01*
X16362Y113215D02*
X24322D01*
X16907Y110289D02*
X17272Y109924D01*
X18400D01*
X21122Y109221D02*
X21964Y108380D01*
X20718Y109221D02*
X21122D01*
X20289Y109650D02*
X20718Y109221D01*
X18522Y110047D02*
X18785D01*
X19258Y109574D01*
X18400Y109924D02*
X18522Y110047D01*
X19967Y109574D02*
X20011Y109530D01*
X19258Y109574D02*
X19575D01*
X20011Y109530D02*
X20117D01*
X19740Y109574D02*
X19967D01*
X19585Y109584D02*
X19730D01*
X20117Y109530D02*
X21747Y107900D01*
X19730Y109584D02*
X19740Y109574D01*
X19575D02*
X19585Y109584D01*
X21747Y107900D02*
X21810D01*
X22503Y108380D02*
X22882Y108001D01*
Y107986D02*
X22985Y107884D01*
X22999D01*
X21964Y108380D02*
X22503D01*
X22999Y107884D02*
X23393Y107490D01*
X22882Y107986D02*
Y108001D01*
X29141Y107080D02*
X30950D01*
X28883Y107338D02*
X29141Y107080D01*
X28334Y107128D02*
X28543Y107338D01*
X22582Y107128D02*
X28334D01*
X21810Y107900D02*
X22582Y107128D01*
X28543Y107338D02*
X28883D01*
X23393Y107490D02*
X29183D01*
X29332Y107640D01*
X25757Y106508D02*
X25909Y106660D01*
X22286Y106508D02*
X25757D01*
X21415Y107380D02*
X21809Y106986D01*
X21821D02*
X21924Y106883D01*
X21809Y106986D02*
X21821D01*
X21924Y106871D02*
X22286Y106508D01*
X21924Y106871D02*
Y106883D01*
X28180Y106660D02*
X28465Y106375D01*
X30015D02*
X30380Y106740D01*
X28465Y106375D02*
X30015D01*
X15989Y104141D02*
X16004Y104125D01*
Y104020D02*
Y104125D01*
X17302Y102723D02*
X17494D01*
X16004Y104020D02*
X17302Y102723D01*
X16149Y103145D02*
X16571Y102723D01*
X16846Y102447D02*
Y102620D01*
Y102447D02*
X17950Y101343D01*
X16744Y102723D02*
X16846Y102620D01*
X16149Y103145D02*
Y103531D01*
X16571Y102723D02*
X16744D01*
X17950Y101070D02*
Y101343D01*
X17494Y102723D02*
X17596Y102620D01*
Y102530D02*
Y102620D01*
X19114Y101778D02*
X19216Y101676D01*
X19114Y101778D02*
Y101792D01*
X19231Y101676D02*
X19336Y101570D01*
X20887D02*
X20957Y101640D01*
X18230Y102723D02*
X18244D01*
X18346Y102560D02*
X19114Y101792D01*
X19336Y101570D02*
X20887D01*
X19216Y101676D02*
X19231D01*
X18244Y102723D02*
X18346Y102620D01*
X16882Y104071D02*
X18230Y102723D01*
X18346Y102560D02*
Y102620D01*
X28589Y101559D02*
X29380Y102350D01*
X22207Y101640D02*
X22224Y101623D01*
X22302Y101559D02*
X28589D01*
X22238Y101623D02*
X22302Y101559D01*
X20957Y101640D02*
X22207D01*
X22224Y101623D02*
X22238D01*
X35769Y84898D02*
X35973Y84694D01*
X36221D01*
X35769Y84898D02*
Y85382D01*
X36006Y73344D02*
X36221D01*
X35935Y73415D02*
Y73866D01*
Y73415D02*
X36006Y73344D01*
X18942Y50896D02*
Y51477D01*
X18641Y51792D02*
X18744Y51689D01*
Y51675D02*
Y51689D01*
X18746Y50701D02*
X18942Y50896D01*
X18744Y51675D02*
X18942Y51477D01*
X35772Y39939D02*
Y40041D01*
Y39939D02*
X35789Y39922D01*
X35707Y40106D02*
X35772Y40041D01*
X35707Y40106D02*
Y40506D01*
X18838Y38816D02*
Y39372D01*
X18539Y40464D02*
X18568D01*
X18623Y40409D01*
X18631D01*
X18838Y38816D02*
X18842Y38813D01*
X18838Y39372D02*
X18931Y39464D01*
X18734Y40292D02*
X18931Y40095D01*
Y39464D02*
Y40095D01*
X18746Y38659D02*
X18842Y38755D01*
Y38813D01*
X18631Y40409D02*
X18734Y40306D01*
Y40292D02*
Y40306D01*
X35984Y16626D02*
X36086Y16524D01*
X36231D01*
X35945Y16667D02*
Y17046D01*
X35984Y16626D02*
Y16629D01*
X35945Y16667D02*
X35984Y16629D01*
X18929Y5654D02*
Y6057D01*
X46875Y5258D02*
X47008Y5125D01*
X47419D01*
X46870Y5799D02*
Y5953D01*
X36456Y6340D02*
X46483D01*
X46870Y5953D01*
Y5799D02*
X47021Y5648D01*
X46712Y5434D02*
X46875Y5272D01*
Y5258D02*
Y5272D01*
X46671Y5818D02*
Y5848D01*
Y5818D02*
X46712Y5777D01*
Y5434D02*
Y5777D01*
X36337Y5289D02*
Y5436D01*
X36275Y5227D02*
X36337Y5289D01*
X36028Y5110D02*
X36172D01*
X36337Y5436D02*
X36749Y5848D01*
X36172Y5110D02*
X36275Y5213D01*
Y5227D01*
X35779Y5218D02*
Y5401D01*
Y5218D02*
X35877Y5120D01*
X36018D01*
X36028Y5110D01*
X35666Y6747D02*
X35849Y6930D01*
X35592Y6023D02*
X35699Y5916D01*
X35592Y6168D02*
X35666Y6242D01*
X35699Y5820D02*
Y5916D01*
X35666Y6242D02*
Y6747D01*
X35849Y6930D02*
Y7627D01*
X35592Y6023D02*
Y6168D01*
X36302Y5831D02*
Y6186D01*
X36456Y6340D01*
X36070Y6614D02*
X36386Y6930D01*
X39729D01*
X39920Y7021D02*
X39954Y7054D01*
X39820Y7021D02*
X39920D01*
X39729Y6930D02*
X39820Y7021D01*
X39954Y7054D02*
X40329D01*
X48492Y18302D02*
X50319D01*
X39942Y18456D02*
X48337D01*
X48492Y18302D01*
X38831Y18454D02*
X39940D01*
X38650Y18272D02*
X38831Y18454D01*
X39940D02*
X39942Y18456D01*
X50319Y18302D02*
X50873Y18856D01*
X46934Y16671D02*
X47068Y16537D01*
X47152D02*
X47225Y16464D01*
X47068Y16537D02*
X47152D01*
X46934Y16671D02*
Y16685D01*
X46751Y17182D02*
X46768Y17166D01*
X46751Y17182D02*
Y17241D01*
X46768Y16851D02*
Y17166D01*
X46730Y17262D02*
X46751Y17241D01*
X46768Y16851D02*
X46934Y16685D01*
X50699Y16579D02*
X50958Y16320D01*
X50873Y18856D02*
X51712D01*
X52590Y18900D02*
X52700Y18790D01*
X51756Y18900D02*
X52590D01*
X51712Y18856D02*
X51756Y18900D01*
X52700Y18790D02*
X53269D01*
X37240Y17256D02*
X46724D01*
X36518Y16534D02*
X37240Y17256D01*
X36241Y16534D02*
X36518D01*
X36231Y16524D02*
X36241Y16534D01*
X36709Y17338D02*
X37121Y17750D01*
X36455Y17338D02*
X36709D01*
X36129Y17012D02*
X36455Y17338D01*
X37121Y17750D02*
X46500D01*
X35715Y17459D02*
X35765Y17408D01*
Y17226D02*
Y17408D01*
X35715Y17604D02*
X35725Y17614D01*
Y17856D01*
X35715Y17459D02*
Y17604D01*
X35725Y17856D02*
X36492Y18622D01*
Y18701D01*
X47452Y27951D02*
X47597D01*
X47402Y28002D02*
X47452Y27951D01*
X47597D02*
X47648Y28002D01*
X47709D02*
X48019Y28312D01*
X47191Y27913D02*
X47279Y28002D01*
X47648D02*
X47709D01*
X47279D02*
X47402D01*
X46740Y28129D02*
Y28607D01*
X47046Y27913D02*
X47191D01*
X47036Y27923D02*
X47046Y27913D01*
X46740Y28129D02*
X46946Y27923D01*
X47036D01*
X36741Y28557D02*
X41701D01*
X36967Y28677D02*
X37225Y28934D01*
X36459Y28677D02*
X36967D01*
X41750Y28607D02*
X46740D01*
X36139Y28357D02*
X36459Y28677D01*
X36365Y28181D02*
X36741Y28557D01*
X41701D02*
X41750Y28607D01*
X36365Y27985D02*
Y28181D01*
X36066Y27482D02*
X36321D01*
X35900Y28079D02*
X35994Y27986D01*
X36365Y27985D02*
X36406Y27944D01*
X36535Y27697D02*
Y27842D01*
X36321Y27482D02*
X36535Y27697D01*
X36406Y27944D02*
X36433D01*
X36535Y27842D01*
X35964Y27585D02*
X36066Y27482D01*
X35994Y27800D02*
Y27986D01*
X35964Y27585D02*
Y27770D01*
X35994Y27800D01*
X37225Y28949D02*
X37327Y29051D01*
X37225Y28934D02*
Y28949D01*
X46535Y29131D02*
X46939Y28728D01*
X37342Y29051D02*
X37421Y29131D01*
X46535D01*
X37327Y29051D02*
X37342D01*
X46939Y28558D02*
Y28728D01*
X41074Y29813D02*
X41084Y29803D01*
X41229D01*
X39714Y29740D02*
X39787Y29813D01*
X40403Y29807D02*
X40548D01*
X40398Y29813D02*
X40403Y29807D01*
X41239Y29813D02*
X41712D01*
X41229Y29803D02*
X41239Y29813D01*
X36390Y29740D02*
X39714D01*
X40554Y29813D02*
X41074D01*
X39787D02*
X40398D01*
X40548Y29807D02*
X40554Y29813D01*
X35628Y28899D02*
Y29328D01*
X36103Y29803D01*
X35628Y28899D02*
X35775Y28752D01*
X36103Y29803D02*
X36229D01*
X37317Y30211D02*
X37327Y30201D01*
X36331Y29922D02*
X36620Y30211D01*
X36229Y29803D02*
X36331Y29905D01*
X37482Y30211D02*
X39371D01*
X37472Y30201D02*
X37482Y30211D01*
X37327Y30201D02*
X37472D01*
X36620Y30211D02*
X37317D01*
X36331Y29905D02*
Y29922D01*
X47292Y38882D02*
X47662Y39252D01*
X51616D02*
X51837Y39030D01*
X47090Y39772D02*
X55816D01*
X55857Y39813D02*
Y39821D01*
X55816Y39772D02*
X55857Y39813D01*
Y39821D02*
X55960Y39924D01*
X36386Y38857D02*
X36660Y39131D01*
X35984Y38857D02*
X36056D01*
X36211Y38847D02*
X36221Y38857D01*
X36660Y39131D02*
Y39576D01*
X36221Y38857D02*
X36386D01*
X36056D02*
X36066Y38847D01*
X36211D01*
X45122Y39852D02*
X46450D01*
X46435Y40037D02*
X46547Y40149D01*
X36607Y40037D02*
X46435D01*
X36139Y39722D02*
X36501Y40085D01*
X46547Y40149D02*
Y40163D01*
X36501Y40085D02*
X36559D01*
X46547Y40163D02*
X46594Y40210D01*
X46450Y39852D02*
X46549Y39951D01*
X46719D02*
X46740Y39972D01*
X36559Y40085D02*
X36607Y40037D01*
X46549Y39951D02*
X46719D01*
X49651Y40547D02*
X49775Y40671D01*
X42222Y40496D02*
X42367D01*
X42418Y40547D01*
X39335Y40662D02*
X39450Y40547D01*
X42418D02*
X49651D01*
X39450D02*
X42171D01*
X42222Y40496D01*
X35799Y50845D02*
X36043Y50601D01*
X37137D01*
X37885Y51349D01*
X37290Y51105D02*
X38003Y51819D01*
X39871D01*
X47260Y50662D02*
X47360Y50762D01*
Y50947D01*
X47462Y51049D01*
X47056Y50662D02*
X47260D01*
X47477Y51049D02*
X47482Y51055D01*
X47462Y51049D02*
X47477D01*
X47046Y50672D02*
X47056Y50662D01*
X46916Y50730D02*
Y51170D01*
Y50730D02*
X46974Y50672D01*
X47046D01*
X44242Y51789D02*
X44827D01*
X44992D02*
X46687D01*
X43492D02*
X44077D01*
X43337Y51799D02*
X43482D01*
X44077Y51789D02*
X44087Y51799D01*
X42587D02*
X42732D01*
X44837D02*
X44982D01*
X41827Y51789D02*
X41837Y51799D01*
X41242Y51789D02*
X41827D01*
X41232Y51799D02*
X41242Y51789D01*
X46949Y51306D02*
Y51528D01*
X41837Y51799D02*
X41982D01*
X41992Y51789D01*
X42577D01*
X44982Y51799D02*
X44992Y51789D01*
X44827D02*
X44837Y51799D01*
X42577Y51789D02*
X42587Y51799D01*
X42742Y51789D02*
X43327D01*
X46687D02*
X46949Y51528D01*
X41077Y51789D02*
X41087Y51799D01*
X43482D02*
X43492Y51789D01*
X42732Y51799D02*
X42742Y51789D01*
X44232Y51799D02*
X44242Y51789D01*
X40482Y51799D02*
X40492Y51789D01*
X41077D01*
X44087Y51799D02*
X44232D01*
X46750Y51335D02*
X46916Y51170D01*
X43327Y51789D02*
X43337Y51799D01*
X46750Y51335D02*
Y51355D01*
X41087Y51799D02*
X41232D01*
X36143Y61912D02*
X36221D01*
X36260Y61874D01*
X36004Y62051D02*
X36143Y61912D01*
X36469Y61874D02*
X36860Y62264D01*
X35965Y62104D02*
X36004Y62065D01*
Y62051D02*
Y62065D01*
X36260Y61874D02*
X36469D01*
X36860Y62279D02*
X36962Y62381D01*
X36860Y62264D02*
Y62279D01*
X47201Y61993D02*
X47211Y62003D01*
X47046D02*
X47056Y61993D01*
X46939Y62003D02*
X47046D01*
X47056Y61993D02*
X47201D01*
X36364Y73354D02*
X36374Y73344D01*
X36519D02*
X36621Y73446D01*
X36374Y73344D02*
X36519D01*
X36621Y73607D02*
X37096Y74082D01*
X36231Y73354D02*
X36364D01*
X37096Y74082D02*
X46720D01*
X36621Y73446D02*
Y73607D01*
X36221Y73344D02*
X36231Y73354D01*
X37245Y74651D02*
X38187D01*
X36780Y74186D02*
X37245Y74651D01*
X36473Y74186D02*
X36547D01*
X36712D02*
X36780D01*
X36557Y74176D02*
X36702D01*
X36712Y74186D01*
X36547D02*
X36557Y74176D01*
X46871Y73053D02*
Y73908D01*
X46918Y73007D02*
X47142D01*
X46871Y73053D02*
X46918Y73007D01*
X47142D02*
X47152Y73017D01*
X41047Y74516D02*
X41057Y74526D01*
X44202D02*
X44212Y74516D01*
X41057Y74526D02*
X41202D01*
X43462Y74516D02*
X44047D01*
X40452Y74526D02*
X40462Y74516D01*
X43307Y74526D02*
X43452D01*
X40307D02*
X40452D01*
X42712Y74516D02*
X43297D01*
X39712D02*
X40297D01*
X42547D02*
X42557Y74526D01*
X39547Y74516D02*
X39557Y74526D01*
X42702D02*
X42712Y74516D01*
X39702Y74526D02*
X39712Y74516D01*
X42557Y74526D02*
X42702D01*
X46919Y74033D02*
Y74268D01*
X40462Y74516D02*
X41047D01*
X43297D02*
X43307Y74526D01*
X46671Y74516D02*
X46919Y74268D01*
X41202Y74526D02*
X41212Y74516D01*
X44057Y74526D02*
X44202D01*
X38322Y74516D02*
X38797D01*
X44047D02*
X44057Y74526D01*
X38952D02*
X38962Y74516D01*
X41807Y74526D02*
X41952D01*
X44962Y74516D02*
X46671D01*
X38962D02*
X39547D01*
X41797D02*
X41807Y74526D01*
X44952D02*
X44962Y74516D01*
X40297D02*
X40307Y74526D01*
X43452D02*
X43462Y74516D01*
X38807Y74526D02*
X38952D01*
X41212Y74516D02*
X41797D01*
X44212D02*
X44797D01*
X38797D02*
X38807Y74526D01*
X41952D02*
X41962Y74516D01*
X44807Y74526D02*
X44952D01*
X44797Y74516D02*
X44807Y74526D01*
X39557D02*
X39702D01*
X46720Y74059D02*
X46871Y73908D01*
X41962Y74516D02*
X42547D01*
X46720Y74059D02*
Y74082D01*
X36221Y84694D02*
X36231Y84704D01*
X36368D02*
X37096Y85432D01*
X46720D01*
X36231Y84704D02*
X36368D01*
X37142Y85920D02*
X46509D01*
X36473Y85536D02*
X36547D01*
X36748Y85526D02*
X37142Y85920D01*
X36547Y85536D02*
X36557Y85526D01*
X36748D01*
X46886Y84810D02*
Y85260D01*
X46103Y115990D02*
X46278Y115815D01*
X38967Y116775D02*
X41918D01*
X38005Y117737D02*
X38967Y116775D01*
X21220Y117737D02*
X38005D01*
X42082Y116775D02*
X44615D01*
X41928Y116765D02*
X42072D01*
X44615Y116775D02*
X44751Y116911D01*
X41918Y116775D02*
X41928Y116765D01*
X42072D02*
X42082Y116775D01*
X42544Y124307D02*
X45018D01*
X45140Y124185D01*
X45154D01*
X45258Y124081D01*
X51388Y138294D02*
X51882Y137800D01*
Y137558D02*
Y137800D01*
X47999Y145815D02*
X48524Y145290D01*
X47989Y146023D02*
X47999Y146013D01*
X47814Y146295D02*
X47989Y146120D01*
X48524Y145290D02*
X77390D01*
X47999Y145815D02*
Y146013D01*
X47989Y146023D02*
Y146120D01*
X49144Y152676D02*
Y152888D01*
X48739Y153293D02*
X49144Y152888D01*
X48509Y153293D02*
X48739D01*
X49144Y152676D02*
X49690Y152130D01*
X48377Y153283D02*
X48499D01*
X47966Y153694D02*
Y154019D01*
Y153694D02*
X48377Y153283D01*
X48499D02*
X48509Y153293D01*
X53281Y136450D02*
X53805D01*
X52791Y136940D02*
X53094Y136638D01*
X53210Y136521D02*
X53281Y136450D01*
X53094Y136623D02*
X53196Y136521D01*
X53210D01*
X53805Y136450D02*
X54031Y136676D01*
X53094Y136623D02*
Y136638D01*
X62913Y136394D02*
X63500D01*
X62631Y136676D02*
X62913Y136394D01*
X63500D02*
X63781Y136676D01*
X62631D02*
Y136690D01*
X62529Y136793D02*
X62631Y136690D01*
X54281Y136926D02*
X62382D01*
X54148Y136793D02*
X54281Y136926D01*
X54031Y136676D02*
Y136690D01*
X62515Y136793D02*
X62529D01*
X54031Y136690D02*
X54134Y136793D01*
X54148D01*
X62382Y136926D02*
X62515Y136793D01*
X17950Y101070D02*
X18740Y100280D01*
X61594Y84764D02*
X64334D01*
X64677Y84093D02*
Y84421D01*
X64334Y84764D02*
X64677Y84421D01*
X51662Y85384D02*
X56085D01*
X51589Y85310D02*
X51662Y85384D01*
X47166Y85310D02*
X51589D01*
X47088Y85232D02*
X47166Y85310D01*
X56085Y85384D02*
X56159Y85310D01*
X47070Y85232D02*
X47088D01*
X52106Y84636D02*
X52251D01*
X52096Y84646D02*
X52106Y84636D01*
X53286D02*
X53431D01*
X53441Y84646D01*
X53691D02*
X53809Y84764D01*
X52251Y84636D02*
X52261Y84646D01*
X53441D02*
X53691D01*
X53809Y84764D02*
X57429D01*
X52261Y84646D02*
X53276D01*
X53286Y84636D01*
X57617Y84951D02*
X58129D01*
X57429Y84764D02*
X57617Y84951D01*
X58871Y84929D02*
X58881Y84939D01*
X59036Y84929D02*
X59105D01*
X58881Y84939D02*
X59026D01*
X59432Y84776D02*
X59577D01*
X59026Y84939D02*
X59036Y84929D01*
X60337Y84786D02*
X60500D01*
X58151Y84929D02*
X58871D01*
X60182Y84776D02*
X60327D01*
X59247Y84786D02*
X59422D01*
X60172D02*
X60182Y84776D01*
X60327D02*
X60337Y84786D01*
X59422D02*
X59432Y84776D01*
X59587Y84786D02*
X60172D01*
X59105Y84929D02*
X59247Y84786D01*
X59577Y84776D02*
X59587Y84786D01*
X60583Y84869D02*
Y84884D01*
X60716Y85016D01*
X62401D02*
X62466Y84951D01*
X60500Y84786D02*
X60583Y84869D01*
X60716Y85016D02*
X62401D01*
X57070Y73684D02*
X57325Y73939D01*
X55940Y73684D02*
X57070D01*
X65033Y73847D02*
X65594Y73286D01*
X57325Y73939D02*
X58454D01*
X58546Y73847D02*
X65033D01*
X55776D02*
X55940Y73684D01*
X58454Y73939D02*
X58546Y73847D01*
X47718Y74530D02*
X55078D01*
X60727Y74645D02*
X63092D01*
X55236Y74689D02*
X60684D01*
X60727Y74645D01*
X55078Y74530D02*
X55236Y74689D01*
X63092Y74645D02*
X63207Y74530D01*
X65550D01*
X65840Y74240D01*
X68350Y74070D02*
X68490Y73930D01*
X64750Y74070D02*
X68350D01*
X64775Y73601D02*
X65365Y73011D01*
X57048Y62217D02*
X57212Y62381D01*
X55338Y62464D02*
X55585Y62217D01*
X57048D01*
X57428Y62582D02*
X62453D01*
X62619Y62416D01*
X57227Y62381D02*
X57428Y62582D01*
X57212Y62381D02*
X57227D01*
X62619Y62416D02*
X66318D01*
X66446Y62289D01*
X66719Y62416D02*
X67013D01*
X66446Y62289D02*
X66591D01*
X66719Y62416D01*
X47525Y51055D02*
X47777Y51307D01*
X66591D01*
X51196Y51790D02*
X51578D01*
X51587Y51799D02*
X53982D01*
X54531Y51790D02*
X54760Y52019D01*
X53982Y51799D02*
X53992Y51790D01*
X51578D02*
X51587Y51799D01*
X51066Y51920D02*
X51196Y51790D01*
X53992D02*
X54531D01*
X47865Y51920D02*
X51066D01*
X56386Y51962D02*
X58231D01*
X60861Y51960D02*
X60919Y52019D01*
X58231Y51962D02*
X58233Y51960D01*
X54760Y52019D02*
X56330D01*
X58233Y51960D02*
X60861D01*
X56330Y52019D02*
X56386Y51962D01*
X60919Y52019D02*
X62188D01*
X66591Y51307D02*
X66694Y51204D01*
Y51190D02*
Y51204D01*
X52126Y39076D02*
X53451D01*
X52080Y39030D02*
X52126Y39076D01*
X51837Y39030D02*
X52080D01*
X53451Y39076D02*
X53497Y39030D01*
X54204D02*
X54477Y39304D01*
X53497Y39030D02*
X54204D01*
X57148Y39745D02*
X58075D01*
X58227Y39593D01*
X56706Y39304D02*
X57148Y39745D01*
X58227Y39581D02*
X58329Y39479D01*
X58227Y39581D02*
Y39593D01*
X58329Y39479D02*
X58474D01*
X58484Y39489D01*
X59141D01*
X59597Y39666D02*
X59607Y39656D01*
X60202Y39666D02*
X60347D01*
X59607Y39656D02*
X60192D01*
X59308D02*
X59442D01*
X59452Y39666D01*
X59597D01*
X60347D02*
X60357Y39656D01*
X59141Y39489D02*
X59308Y39656D01*
X60357D02*
X61323D01*
X60192D02*
X60202Y39666D01*
X55960Y39924D02*
X56105D01*
X56135Y39894D01*
X60706Y40577D02*
X60851D01*
X57755Y40506D02*
X57864Y40615D01*
X60667D01*
X60706Y40577D01*
X60851D02*
X60889Y40615D01*
X53302Y40496D02*
X53447D01*
X53292Y40506D02*
X53302Y40496D01*
X51691Y40506D02*
X53292D01*
X53457D02*
X57755D01*
X53447Y40496D02*
X53457Y40506D01*
X75016Y43084D02*
X75140Y42960D01*
X64904Y42940D02*
X65048Y43084D01*
X75016D01*
X64727Y42972D02*
X64759Y42940D01*
X64535Y43020D02*
X64583Y42972D01*
X64727D01*
X64759Y42940D02*
X64904D01*
X64031Y31711D02*
X64311D01*
X62359Y30039D02*
X64031Y31711D01*
X64311D02*
X64544Y31478D01*
X60973Y30039D02*
X62359D01*
X60847Y30166D02*
X60973Y30039D01*
X44206Y30166D02*
X60847D01*
X44079Y30039D02*
X44206Y30166D01*
X43504Y30039D02*
X44079D01*
X43342Y30201D02*
X43504Y30039D01*
X43225Y30304D02*
X43327Y30201D01*
X43342D01*
X43167Y30376D02*
X43225Y30318D01*
Y30304D02*
Y30318D01*
X58381Y29054D02*
X59333D01*
X47737D02*
X55096D01*
X58221Y29213D02*
X58381Y29054D01*
X55256Y29213D02*
X58221D01*
X59333Y29054D02*
X59737Y28650D01*
X47090Y28407D02*
X47737Y29054D01*
X55096D02*
X55256Y29213D01*
X55376Y28219D02*
X55950D01*
X55960Y28209D01*
X56115Y28219D02*
X57028D01*
X56105Y28209D02*
X56115Y28219D01*
X48019Y28312D02*
X55283D01*
X55376Y28219D01*
X55960Y28209D02*
X56105D01*
X57866Y28113D02*
X58474D01*
X57110Y28301D02*
X57678D01*
X57028Y28219D02*
X57110Y28301D01*
X57678D02*
X57866Y28113D01*
X58474D02*
X58484Y28123D01*
X59114D01*
X59442Y28291D02*
X59452Y28301D01*
X59597D02*
X59607Y28291D01*
X59114Y28123D02*
X59282Y28291D01*
X60202Y28301D02*
X60347D01*
X60192Y28291D02*
X60202Y28301D01*
X59607Y28291D02*
X60192D01*
X60357D02*
X60534D01*
X59452Y28301D02*
X59597D01*
X60347D02*
X60357Y28291D01*
X59282D02*
X59442D01*
X61614Y28288D02*
X61746Y28157D01*
X66828D01*
X52070Y16320D02*
X52116Y16366D01*
X53488Y16320D02*
X53785D01*
X52116Y16366D02*
X53441D01*
X50958Y16320D02*
X52070D01*
X53441Y16366D02*
X53488Y16320D01*
X53785D02*
X54059Y16594D01*
X50212Y17356D02*
X50222Y17366D01*
X53212Y17356D02*
X53222Y17366D01*
X50067Y17356D02*
X50212D01*
X53067D02*
X53212D01*
X49472Y17366D02*
X50057D01*
X52472D02*
X53057D01*
X49462Y17356D02*
X49472Y17366D01*
X52462Y17356D02*
X52472Y17366D01*
X49307D02*
X49317Y17356D01*
X52307Y17366D02*
X52317Y17356D01*
X54722Y17366D02*
X55875D01*
X49317Y17356D02*
X49462D01*
X52317D02*
X52462D01*
X53962D02*
X53972Y17366D01*
X54567Y17356D02*
X54712D01*
X48722Y17366D02*
X49307D01*
X51722D02*
X52307D01*
X48712Y17356D02*
X48722Y17366D01*
X51712Y17356D02*
X51722Y17366D01*
X48557D02*
X48567Y17356D01*
X51557Y17366D02*
X51567Y17356D01*
X53807Y17366D02*
X53817Y17356D01*
X54712D02*
X54722Y17366D01*
X55875D02*
X56083Y17574D01*
X50057Y17366D02*
X50067Y17356D01*
X53057Y17366D02*
X53067Y17356D01*
X53817D02*
X53962D01*
X47384Y17366D02*
X47807D01*
X56083Y17574D02*
X57584D01*
X50222Y17366D02*
X50807D01*
X53222D02*
X53807D01*
X53972D02*
X54557D01*
X47807D02*
X47817Y17356D01*
X50807Y17366D02*
X50817Y17356D01*
X47972Y17366D02*
X48557D01*
X50972D02*
X51557D01*
X47817Y17356D02*
X47962D01*
X50817D02*
X50962D01*
X47962D02*
X47972Y17366D01*
X50962Y17356D02*
X50972Y17366D01*
X48567Y17356D02*
X48712D01*
X51567D02*
X51712D01*
X54557Y17366D02*
X54567Y17356D01*
X60867Y18790D02*
X62492D01*
X53269D02*
X53300Y18821D01*
X60837D02*
X60867Y18790D01*
X53300Y18821D02*
X60837D01*
X69661Y21099D02*
X70537Y20223D01*
X57323Y16606D02*
X57337D01*
X59036Y16769D02*
X59138Y16666D01*
X57500Y16769D02*
X59036D01*
X57337Y16606D02*
X57500Y16769D01*
X57311Y16594D02*
X57323Y16606D01*
X58045Y17869D02*
X58976D01*
X59654Y17190D01*
X57790Y17780D02*
X57956D01*
X58045Y17869D01*
X57584Y17574D02*
X57790Y17780D01*
X59314Y16476D02*
X60370D01*
X59138Y16652D02*
Y16666D01*
X60370Y16476D02*
X60593Y16699D01*
X59138Y16652D02*
X59314Y16476D01*
X60593Y16714D02*
X60696Y16816D01*
X60810Y16916D02*
X65208D01*
X60710Y16816D02*
X60810Y16916D01*
X60696Y16816D02*
X60710D01*
X60593Y16699D02*
Y16714D01*
X66788Y16781D02*
X66875Y16869D01*
X66992Y16985D02*
X67016Y17010D01*
X66875Y16869D02*
Y16883D01*
X66978Y16985D02*
X66992D01*
X66875Y16883D02*
X66978Y16985D01*
X64536Y16594D02*
X64870Y16260D01*
X61390Y16594D02*
X64536D01*
X64870Y16260D02*
X65170D01*
X62280Y7810D02*
X63863Y9393D01*
X65267D02*
X65540Y9120D01*
X63863Y9393D02*
X65267D01*
X53469Y6463D02*
X60627D01*
X52048D02*
X52138Y6373D01*
X53378D01*
X47836Y6463D02*
X52048D01*
X53378Y6373D02*
X53469Y6463D01*
X47021Y5648D02*
X47836Y6463D01*
X60782Y7053D02*
X60784Y7054D01*
X60636D02*
X60637Y7053D01*
X60782D01*
X60784Y7054D02*
X62826D01*
X58733D02*
X60636D01*
X58732Y7053D02*
X58733Y7054D01*
X58586D02*
X58587Y7053D01*
X58732D01*
X58284Y7054D02*
X58586D01*
X58282Y7053D02*
X58284Y7054D01*
X58136D02*
X58137Y7053D01*
X42756Y7054D02*
X42758Y7053D01*
X47654Y7054D02*
X49557D01*
X53384D02*
X53836D01*
X42304D02*
X42756D01*
X47506D02*
X47508Y7053D01*
X53236Y7054D02*
X53237Y7053D01*
X42303D02*
X42304Y7054D01*
X47508Y7053D02*
X47652D01*
X53237D02*
X53382D01*
X58137D02*
X58282D01*
X42158D02*
X42303D01*
X47203D02*
X47204Y7054D01*
X52203Y7053D02*
X52204Y7054D01*
X56332Y7053D02*
X56333Y7054D01*
X41170D02*
X42157D01*
X47057D02*
X47058Y7053D01*
X52057Y7054D02*
X52058Y7053D01*
X56186Y7054D02*
X56187Y7053D01*
X41160Y7044D02*
X41170Y7054D01*
X47058Y7053D02*
X47203D01*
X52058D02*
X52203D01*
X56187D02*
X56332D01*
X41005Y7054D02*
X41015Y7044D01*
X45254Y7054D02*
X47057D01*
X50154D02*
X52057D01*
X55884D02*
X56186D01*
X42758Y7053D02*
X42903D01*
X47652Y7053D02*
X47654Y7054D01*
X53382Y7053D02*
X53384Y7054D01*
X42903Y7053D02*
X42905Y7054D01*
X49558Y7053D02*
X49703D01*
X53837Y7053D02*
X53982D01*
X40335Y7049D02*
X40480D01*
X44658Y7053D02*
X44803D01*
X49703D02*
X49704Y7054D01*
X53982Y7053D02*
X53984Y7054D01*
X40480Y7049D02*
X40485Y7054D01*
X45108Y7053D02*
X45252D01*
X44803D02*
X44804Y7054D01*
X50008Y7053D02*
X50152D01*
X55737D02*
X55882D01*
X41015Y7044D02*
X41160D01*
X45252Y7053D02*
X45254Y7054D01*
X50152Y7053D02*
X50154Y7054D01*
X55882Y7053D02*
X55884Y7054D01*
X42157D02*
X42158Y7053D01*
X47204Y7054D02*
X47506D01*
X52204D02*
X53236D01*
X56333D02*
X58136D01*
X42905D02*
X44657D01*
X49557D02*
X49558Y7053D01*
X53836Y7054D02*
X53837Y7053D01*
X40329Y7054D02*
X40335Y7049D01*
X44657Y7054D02*
X44658Y7053D01*
X49704Y7054D02*
X50006D01*
X53984D02*
X55736D01*
X40485D02*
X41005D01*
X50006D02*
X50008Y7053D01*
X44804Y7054D02*
X45106D01*
X45108Y7053D01*
X55736Y7054D02*
X55737Y7053D01*
X64217Y6634D02*
X66371D01*
X64046Y6463D02*
X64217Y6634D01*
X60637Y6453D02*
X60782D01*
X60627Y6463D02*
X60637Y6453D01*
X60792Y6463D02*
X64046D01*
X60782Y6453D02*
X60792Y6463D01*
X55771Y5680D02*
X55891Y5800D01*
X58311D01*
X58431Y5680D02*
X62466D01*
X58311Y5800D02*
X58431Y5680D01*
X62466D02*
X62752Y5966D01*
X68309Y6269D02*
X70909D01*
X67309Y6634D02*
X67319Y6644D01*
X67534D01*
X67544Y6634D02*
X67622D01*
X66832D02*
X66842Y6644D01*
X67058D02*
X67068Y6634D01*
X66842Y6644D02*
X67058D01*
X67534D02*
X67544Y6634D01*
X67622D02*
X67987Y6269D01*
X68144D01*
X68154Y6259D02*
X68299D01*
X66381Y6644D02*
X66596D01*
X68299Y6259D02*
X68309Y6269D01*
X66371Y6634D02*
X66381Y6644D01*
X67068Y6634D02*
X67309D01*
X68144Y6269D02*
X68154Y6259D01*
X66596Y6644D02*
X66606Y6634D01*
X66832D01*
X95186Y5420D02*
X95196Y5410D01*
X73090Y5140D02*
X92959D01*
X95002Y5410D02*
X95012Y5420D01*
X93298Y5140D02*
X94202D01*
X95012Y5420D02*
X95186D01*
X92959Y5140D02*
X92969Y5130D01*
X93288D02*
X93298Y5140D01*
X95196Y5410D02*
X99963D01*
X94473D02*
X95002D01*
X94202Y5140D02*
X94473Y5410D01*
X92969Y5130D02*
X93288D01*
X96885Y6348D02*
X97295Y6758D01*
X94647Y6348D02*
X96885D01*
X94472Y6523D02*
X94647Y6348D01*
X94328Y6523D02*
X94472D01*
X98062Y6602D02*
X98076Y6588D01*
X97892Y6758D02*
X98048Y6602D01*
X98062D01*
X97295Y6758D02*
X97892D01*
X73790Y6400D02*
X73876Y6486D01*
X94291D01*
X94328Y6523D01*
X96960Y12789D02*
X96974D01*
X96858Y12891D02*
X96960Y12789D01*
X96974D02*
X97180Y12583D01*
X97890D01*
X96858Y12891D02*
Y12905D01*
X96779Y12984D02*
X96858Y12905D01*
X97890Y12583D02*
X97955Y12647D01*
X98951Y17112D02*
X99187Y17347D01*
X94284Y17300D02*
X94472Y17112D01*
X98951D01*
X96192Y16630D02*
X97105D01*
X97155Y16580D01*
X95182Y15620D02*
X96192Y16630D01*
X97155Y16580D02*
X102150D01*
X89631Y17461D02*
X94109D01*
X94270Y17300D01*
X88940Y16770D02*
X89631Y17461D01*
X94270Y17300D02*
X94284D01*
X97780Y22360D02*
X98050Y22090D01*
X96849Y34661D02*
X98583D01*
X96700Y34810D02*
X96849Y34661D01*
X98641Y34719D02*
Y34733D01*
X98583Y34661D02*
X98641Y34719D01*
X98758Y34836D02*
X98842Y34920D01*
X98641Y34733D02*
X98744Y34836D01*
X98758D01*
X98225Y35634D02*
X100389D01*
X100438Y35571D02*
X100540Y35469D01*
X100438Y35571D02*
Y35586D01*
X97561Y34971D02*
X98225Y35634D01*
X100540Y35469D02*
X100554D01*
X100389Y35634D02*
X100438Y35586D01*
X100554Y35469D02*
X100633Y35390D01*
X99632Y42872D02*
X99780Y43020D01*
X96779Y42976D02*
X96858Y42897D01*
Y42883D02*
Y42897D01*
X99935Y43542D02*
X100331Y43146D01*
X98839Y43542D02*
X99935D01*
X97190Y52898D02*
X100500D01*
X96452D02*
X96527Y52823D01*
X93862Y52898D02*
X96452D01*
X97115Y52823D02*
X97190Y52898D01*
X96527Y52823D02*
X97115D01*
X97728Y53765D02*
X97928D01*
X96064Y54013D02*
X96093D01*
X97423Y54070D02*
X97728Y53765D01*
X96151Y54070D02*
X97423D01*
X96093Y54013D02*
X96151Y54070D01*
X97928Y53765D02*
X98138Y53555D01*
X96355Y56162D02*
X98662D01*
X98665Y56159D01*
X97371Y56042D02*
X97403Y56010D01*
X96714Y56042D02*
X97371D01*
X98665Y56159D02*
X100972D01*
X101309Y56495D01*
X96682Y56010D02*
X96714Y56042D01*
X94290Y56010D02*
X96682D01*
X97064Y62706D02*
X98998D01*
X96782Y62988D02*
X96861Y62910D01*
Y62896D02*
X96963Y62793D01*
X96861Y62896D02*
Y62910D01*
X98998Y62706D02*
X99232Y62940D01*
X96963Y62793D02*
X96977D01*
X97064Y62706D01*
X105337Y62580D02*
X105560Y62803D01*
X96524Y62806D02*
X97155Y62175D01*
X98715Y64520D02*
X98741Y64495D01*
X90510Y64520D02*
X98715D01*
X98741Y64495D02*
X99130D01*
X92890Y72260D02*
X92901Y72271D01*
X97758D02*
X97895Y72408D01*
X92901Y72271D02*
X97758D01*
X99310Y76802D02*
X99601Y76511D01*
X98367Y81550D02*
X99870D01*
X98192Y81725D02*
X98367Y81550D01*
X97063Y81725D02*
X98192D01*
X96800Y81462D02*
X97063Y81725D01*
X95583Y81550D02*
X95671Y81462D01*
X96800D01*
X98540Y84695D02*
X98635Y84600D01*
X67811Y84679D02*
X67827Y84695D01*
X65530Y84500D02*
X65709Y84679D01*
X67811D01*
X98635Y84598D02*
Y84600D01*
X94349Y85662D02*
X97361D01*
X94297Y85715D02*
X94349Y85662D01*
X91285Y85715D02*
X94297D01*
X97361Y85662D02*
X97413Y85715D01*
X97799D01*
X98008Y85505D01*
X91150Y85580D02*
X91285Y85715D01*
X55252Y101350D02*
X55518Y101617D01*
X46292Y115815D02*
X47161Y114946D01*
X46278Y115815D02*
X46292D01*
X63898Y136793D02*
X64178Y137073D01*
X63884Y136793D02*
X63898D01*
X76402Y137073D02*
X76902Y136573D01*
X63781Y136690D02*
X63884Y136793D01*
X64178Y137073D02*
X76402D01*
X63781Y136676D02*
Y136690D01*
X76902Y136573D02*
X81518D01*
X81693Y136748D01*
X81708D01*
X81820Y136860D01*
X79860Y143110D02*
X80250Y143500D01*
X108290Y130712D02*
X108478Y130900D01*
X101383Y130712D02*
X108290D01*
X70990Y126050D02*
X71109Y126169D01*
X82818Y101345D02*
X88472D01*
X88602Y101475D01*
X101718D01*
X113149Y104704D02*
X113261Y104817D01*
Y104831D01*
X109600Y104704D02*
X113149D01*
X109350Y104955D02*
X109600Y104704D01*
X109320Y104955D02*
X109350D01*
X81588Y102435D02*
X81732D01*
X67640Y102350D02*
X67766Y102476D01*
X81732Y102435D02*
X81773Y102476D01*
X116859Y102479D02*
X116880Y102500D01*
X81547Y102476D02*
X81588Y102435D01*
X116784Y102476D02*
X116787Y102479D01*
X81773Y102476D02*
X116784D01*
X67766D02*
X81547D01*
X116787Y102479D02*
X116859D01*
X103397Y96895D02*
X104225D01*
X102798Y97494D02*
X103397Y96895D01*
X104225D02*
X104660Y97330D01*
X103914Y89297D02*
X110126D01*
X110248Y89175D01*
X110262D01*
X103739Y89122D02*
X103914Y89297D01*
X110262Y89175D02*
X110365Y89072D01*
Y89058D02*
Y89072D01*
X97501Y86605D02*
X102092D01*
X102899Y86643D02*
X102976Y86720D01*
X102092Y86605D02*
X102131Y86643D01*
X102899D01*
X110544Y85613D02*
X110782Y85850D01*
X109868Y85613D02*
X110544D01*
X116559Y84419D02*
X116910Y84770D01*
X112865Y84419D02*
X116559D01*
X112553Y84730D02*
X112558Y84725D01*
X112675Y84608D02*
X112865Y84419D01*
X112572Y84725D02*
X112675Y84622D01*
X112558Y84725D02*
X112572D01*
X112675Y84608D02*
Y84622D01*
X98125Y85388D02*
X98177Y85336D01*
X98125Y85388D02*
Y85402D01*
X98008Y85505D02*
X98022D01*
X103078Y85336D02*
X103302Y85560D01*
X98177Y85336D02*
X103078D01*
X98022Y85505D02*
X98125Y85402D01*
X99719Y84567D02*
X99781Y84505D01*
X102079D02*
X102424Y84850D01*
X99781Y84505D02*
X102079D01*
X99574Y84567D02*
X99719D01*
X99249Y84240D02*
X99356Y84133D01*
X102051D01*
X99104Y84240D02*
X99249D01*
X88147Y84133D02*
X98997D01*
X102051D02*
X102669Y83516D01*
X98997Y84133D02*
X99104Y84240D01*
X96960Y82793D02*
X96974D01*
X96858Y82896D02*
X96960Y82793D01*
X96858Y82896D02*
Y82910D01*
X96779Y82989D02*
X96858Y82910D01*
X89060Y78040D02*
X94086D01*
X94159Y78114D02*
X97997D01*
X98071Y78040D02*
X102418D01*
X94086D02*
X94159Y78114D01*
X97997D02*
X98071Y78040D01*
X102684Y76511D02*
X102961Y76788D01*
X103488D01*
X99601Y76511D02*
X102684D01*
X100991Y72793D02*
X101097Y72900D01*
X96858Y72896D02*
X96960Y72793D01*
X99646Y73623D02*
X100250Y73020D01*
X101097Y72900D02*
X101706D01*
X96779Y72989D02*
X96858Y72910D01*
X100250Y73020D02*
X100950D01*
X96858Y72896D02*
Y72910D01*
X101706Y72900D02*
X101976Y73170D01*
X100950Y73020D02*
X100960Y73010D01*
X96928Y72645D02*
X101621D01*
X97895Y72422D02*
X97998Y72525D01*
X98142D01*
X97895Y72408D02*
Y72422D01*
X101621Y72645D02*
X101832Y72856D01*
X96798Y72515D02*
X96928Y72645D01*
X96782Y72515D02*
X96798D01*
X98142Y72525D02*
X98197Y72470D01*
X106686Y72856D02*
X106750Y72792D01*
X101832Y72856D02*
X106686D01*
X106750Y72792D02*
X106780D01*
X101976Y73170D02*
X106680D01*
X100192Y65837D02*
X100435Y65594D01*
X100551Y65478D02*
X100699Y65330D01*
X100537Y65478D02*
X100551D01*
X104601Y65330D02*
X104821Y65550D01*
X100435Y65580D02*
X100537Y65478D01*
X100699Y65330D02*
X104601D01*
X100435Y65580D02*
Y65594D01*
X89587Y62197D02*
X93855D01*
X89480Y62090D02*
X89587Y62197D01*
X93855D02*
X94132Y61920D01*
X105786Y59794D02*
X106103Y60110D01*
X99666Y59794D02*
X105786D01*
X99530Y59930D02*
X99666Y59794D01*
X101309Y56495D02*
X102322D01*
X97624Y55940D02*
X102608D01*
X99299Y53384D02*
X99303Y53380D01*
X99154Y53384D02*
X99299D01*
X98255Y53438D02*
X98313Y53380D01*
X98255Y53438D02*
Y53452D01*
X108861Y53380D02*
X109645Y54163D01*
X98138Y53555D02*
X98152D01*
X99303Y53380D02*
X108861D01*
X98313D02*
X99150D01*
X99154Y53384D01*
X98152Y53555D02*
X98255Y53452D01*
X98200Y52507D02*
X105707D01*
X98025Y52682D02*
X98200Y52507D01*
X97061Y44993D02*
X106849D01*
X96982Y44914D02*
X97061Y44993D01*
X96930Y44830D02*
Y44860D01*
X96982Y44912D02*
Y44914D01*
X96930Y44860D02*
X96982Y44912D01*
X102648Y42843D02*
X102760Y42955D01*
X101250Y42843D02*
X102648D01*
X100947Y43146D02*
X101250Y42843D01*
X94560Y41984D02*
X94628Y41917D01*
X96620Y40440D02*
X96765D01*
X96809Y40484D01*
X101597Y40471D02*
X101659D01*
X101680Y40450D01*
X90494Y40484D02*
X96576D01*
X96620Y40440D01*
X101584Y40484D02*
X101597Y40471D01*
X96809Y40484D02*
X101584D01*
X106283Y33004D02*
X106906D01*
X106145Y32896D02*
X106175D01*
X106283Y33004D01*
X106286Y32790D02*
X106580D01*
X106217Y32721D02*
X106286Y32790D01*
X101469Y32570D02*
X101490Y32549D01*
X96527Y33028D02*
X97445Y32110D01*
X93700Y27820D02*
X94569Y28689D01*
X111487Y28791D02*
X111647Y28951D01*
X113733D01*
X101928Y26475D02*
X102068Y26615D01*
X97597Y26576D02*
X97698Y26475D01*
X97023Y26470D02*
X97028Y26475D01*
X97351D02*
X97452Y26576D01*
X97698Y26475D02*
X101928D01*
X97452Y26576D02*
X97597D01*
X97028Y26475D02*
X97351D01*
X102068Y26615D02*
X102082D01*
X102185Y26732D02*
X102243Y26790D01*
X102082Y26615D02*
X102185Y26718D01*
Y26732D01*
X106489Y26790D02*
X106854Y26425D01*
X102243Y26790D02*
X106489D01*
X98820Y25847D02*
X99212Y25456D01*
X100639D02*
X100885Y25702D01*
X99212Y25456D02*
X100639D01*
X101149Y25965D02*
X102543D01*
X100988Y25818D02*
X101002D01*
X100885Y25702D02*
Y25716D01*
X100988Y25818D01*
X101002D02*
X101149Y25965D01*
X108361Y23126D02*
X111025D01*
X108059Y23428D02*
X108361Y23126D01*
X96848Y22906D02*
X96950Y22803D01*
X96848Y22906D02*
Y22920D01*
X96964Y22803D02*
X97050Y22718D01*
X96769Y22999D02*
X96848Y22920D01*
X96950Y22803D02*
X96964D01*
X113454Y20629D02*
X113470Y20645D01*
X113338Y20527D02*
X113440Y20629D01*
X113454D01*
X111196Y20704D02*
X111454Y20446D01*
X113271D01*
X113338Y20513D02*
Y20527D01*
X113271Y20446D02*
X113338Y20513D01*
X108304Y20912D02*
X109325D01*
X109559Y21146D02*
X109617Y21204D01*
X109559Y21132D02*
Y21146D01*
X108097Y21120D02*
X108304Y20912D01*
X109457Y21029D02*
X109559Y21132D01*
X109325Y20912D02*
X109442Y21029D01*
X109457D01*
X108483Y20454D02*
X109839D01*
X101407Y20784D02*
X101417Y20774D01*
X108164D02*
X108483Y20454D01*
X91044Y20774D02*
X101058D01*
X101068Y20784D02*
X101407D01*
X101417Y20774D02*
X108164D01*
X101058D02*
X101068Y20784D01*
X106210Y19956D02*
X106259Y19907D01*
X106180Y19956D02*
X106210D01*
X110676Y19965D02*
X110851Y19790D01*
X111848Y19781D02*
X111993D01*
X110851Y19790D02*
X111839D01*
X112002D02*
X112760D01*
X111993Y19781D02*
X112002Y19790D01*
X110374Y19965D02*
X110676D01*
X106259Y19907D02*
X110317D01*
X111839Y19790D02*
X111848Y19781D01*
X110317Y19907D02*
X110374Y19965D01*
X101824Y16910D02*
X102034Y17120D01*
X97462Y16211D02*
X97607D01*
X97617Y16221D01*
X101706D01*
X97449D02*
X97452D01*
X97462Y16211D01*
X102150Y16580D02*
X102410Y16840D01*
X118280D02*
X118420Y16980D01*
X102410Y16840D02*
X118280D01*
X110329Y16480D02*
X111280D01*
X99236Y13427D02*
X106913D01*
X98772Y12964D02*
X99041Y13233D01*
X99158Y13349D02*
X99236Y13427D01*
X99144Y13349D02*
X99158D01*
X106913Y13427D02*
X107171Y13170D01*
X99041Y13247D02*
X99144Y13349D01*
X99041Y13233D02*
Y13247D01*
X96193Y6820D02*
X96324Y6952D01*
X71988Y6125D02*
X97450D01*
X71426Y6110D02*
X71972D01*
X103380D02*
X103758Y6488D01*
X71356Y6180D02*
X71426Y6110D01*
X71972D02*
X71988Y6125D01*
X71330Y6180D02*
X71356D01*
X97450Y6125D02*
X97466Y6110D01*
X103380D01*
X109907Y6580D02*
X111530D01*
X109879Y6608D02*
X109907Y6580D01*
X109830Y6488D02*
X110011Y6306D01*
X103758Y6488D02*
X109830D01*
X110011Y6306D02*
X114805D01*
X114938Y6440D01*
X118420D01*
X107769Y5521D02*
X108028D01*
X99973Y5400D02*
X107648D01*
X108028Y5521D02*
X108127Y5620D01*
X107648Y5400D02*
X107769Y5521D01*
X99963Y5410D02*
X99973Y5400D01*
X110186Y5225D02*
X117145D01*
X110141Y5270D02*
X110186Y5225D01*
X108176Y4950D02*
X108254Y5028D01*
X108356Y5145D02*
X108370D01*
X108254Y5028D02*
Y5042D01*
X108356Y5145D01*
X108370D02*
X108496Y5270D01*
X117145Y5225D02*
X117250Y5120D01*
X108496Y5270D02*
X110141D01*
X110591Y26425D02*
X110691Y26526D01*
X106854Y26425D02*
X110591D01*
X110194Y20100D02*
X111225D01*
X18905Y16739D02*
Y17514D01*
X18491Y17773D02*
X18512Y17752D01*
X18667D02*
X18905Y17514D01*
X18512Y17752D02*
X18667D01*
X18754Y16587D02*
X18905Y16739D01*
X18754Y15604D02*
Y16587D01*
Y15604D02*
X18944Y15414D01*
X18554Y29077D02*
X18696D01*
X18539Y29093D02*
X18554Y29077D01*
X18764Y26949D02*
X18954Y26758D01*
X18764Y27914D02*
X18844Y27995D01*
X18696Y29077D02*
X18844Y28929D01*
Y27995D02*
Y28929D01*
X18764Y26949D02*
Y27914D01*
X46775Y39152D02*
X47046Y38882D01*
X47292D01*
X46775Y39152D02*
Y39458D01*
X18540Y74552D02*
X18637D01*
X18519Y74574D02*
X18540Y74552D01*
X18744Y73370D02*
X18824Y73450D01*
X18637Y74552D02*
X18824Y74366D01*
Y73450D02*
Y74366D01*
X18744Y72424D02*
Y73370D01*
Y72424D02*
X18934Y72234D01*
X18919Y85212D02*
Y85571D01*
X18602Y85879D02*
X18611D01*
X18919Y85571D01*
X18547Y85933D02*
X18602Y85879D01*
X18518Y85933D02*
X18547D01*
X19596Y118008D02*
X20016D01*
X17444Y122532D02*
X17594Y122683D01*
X17145Y122532D02*
X17444D01*
X17594Y122683D02*
Y122683D01*
X16930Y122747D02*
X17145Y122532D01*
X16764Y122845D02*
X16944Y123025D01*
X16037Y122845D02*
X16764D01*
X19720Y124384D02*
Y124411D01*
X114541Y141295D02*
X115039D01*
X114496Y141250D02*
X114541Y141295D01*
X114029Y141250D02*
X114496D01*
X114576Y128184D02*
X114830Y127930D01*
X114343Y128487D02*
X114576Y128254D01*
Y128184D02*
Y128254D01*
X110782Y85850D02*
X110811D01*
X97298Y54968D02*
X103382D01*
X103430Y54920D01*
X103460D01*
X110760Y84730D02*
X112553D01*
X104981Y4950D02*
X108176D01*
X104940Y4990D02*
X104981Y4950D01*
X107335Y85220D02*
X108450D01*
X107325Y85210D02*
X107335Y85220D01*
X65386Y50897D02*
X66493Y49790D01*
X62700Y50897D02*
X65386D01*
X104510Y51415D02*
X105808D01*
X103306Y50211D02*
X104510Y51415D01*
X18335Y126285D02*
X45265D01*
X45500Y126050D01*
X70990D01*
X46392Y125180D02*
X46792Y124780D01*
X65310Y5130D02*
X70121D01*
X70545Y5554D01*
X72406D01*
X72690Y5270D01*
X65170D02*
X65290Y5150D01*
X65310Y5130D01*
X18765Y5207D02*
Y5491D01*
X18929Y5654D01*
X46509Y85920D02*
X46963Y85466D01*
X47055Y85246D02*
X47070Y85232D01*
X46998Y85432D02*
X47055Y85374D01*
Y85246D02*
Y85374D01*
X46963Y85466D02*
X46998Y85432D01*
X70537Y20223D02*
X71322D01*
X10330Y106290D02*
Y106298D01*
X18669Y4217D02*
Y5111D01*
X18765Y5207D01*
X18669Y4217D02*
X18886Y4000D01*
X18746Y38332D02*
Y38659D01*
Y38332D02*
X18954Y38124D01*
X18746Y49725D02*
Y50701D01*
Y49725D02*
X18964Y49507D01*
X18720Y85014D02*
X18919Y85212D01*
X18720Y83798D02*
Y85014D01*
Y83798D02*
X18934Y83584D01*
X98510Y97494D02*
X102798D01*
X104920Y99420D02*
X105780D01*
X103295Y95895D02*
X103766D01*
X104150Y96279D01*
X111236Y128487D02*
X114343D01*
X113800Y141479D02*
X114029Y141250D01*
X114129Y116820D02*
X116470D01*
X113915Y117034D02*
X114129Y116820D01*
X97033Y82968D02*
X99575D01*
X99706Y83100D01*
X116621Y82880D02*
X118435D01*
X101320Y72010D02*
X101338Y72028D01*
X96967Y72010D02*
X101320D01*
X101338Y73490D02*
X101359Y73511D01*
X101431D01*
X101450Y73530D01*
X105200D01*
X105240Y73490D01*
X112913Y36812D02*
X116309D01*
X116350Y36750D02*
Y36771D01*
X116309Y36812D02*
X116350Y36771D01*
X98923Y62978D02*
X98933Y62988D01*
X97046Y62978D02*
X98923D01*
X97036Y62968D02*
X97046Y62978D01*
X97295Y34971D02*
X97561D01*
X100331Y43146D02*
X100947D01*
X100633Y35390D02*
X106546D01*
X97033Y12964D02*
X98772D01*
X107171Y13170D02*
X116780D01*
X96521Y73037D02*
X96524Y73041D01*
Y73450D01*
X96697Y73623D01*
X99646D01*
X96524Y62806D02*
Y63037D01*
X96531Y52380D02*
X97363D01*
X96511Y23047D02*
X97198Y22360D01*
X97780D01*
X99656Y42337D02*
X99761D01*
X99771Y42347D01*
X95020Y72010D02*
X95030Y72020D01*
X96280D01*
X93340Y23189D02*
X96154D01*
X96225Y23261D01*
X96255D01*
X92450Y13150D02*
X96139D01*
X96235Y13246D01*
X96265D01*
X97043Y56490D02*
X97294D01*
X110691Y26526D02*
X110930D01*
X97044Y16443D02*
X97228D01*
X97449Y16221D01*
X97033Y16455D02*
X97044Y16443D01*
X97292Y65837D02*
X100192D01*
X104821Y65550D02*
X108585D01*
X97278Y25847D02*
X98820D01*
X106675Y47405D02*
X108889D01*
X107256Y33640D02*
X109630D01*
X111407Y50070D02*
X113477D01*
X111266Y50211D02*
X111407Y50070D01*
X113470Y20645D02*
X116052D01*
X70939Y129617D02*
X76623D01*
X77122Y129118D02*
X80219D01*
X76623Y129617D02*
X77122Y129118D01*
X80385Y129284D02*
X84514D01*
X80219Y129118D02*
X80385Y129284D01*
X84910Y129680D02*
X90600D01*
X84514Y129284D02*
X84910Y129680D01*
X91040Y20770D02*
X91044Y20774D01*
X109839Y20454D02*
X110194Y20100D01*
X102424Y84850D02*
X106220D01*
X88130Y84150D02*
X88147Y84133D01*
X65200Y15930D02*
X65202Y15928D01*
Y15735D02*
Y15928D01*
X118420Y16980D02*
X119670D01*
X72710Y6720D02*
X72740Y6750D01*
X65900Y81630D02*
X66860D01*
X65890Y81640D02*
X65900Y81630D01*
X66860D02*
X66940Y81550D01*
X88480Y71190D02*
X88910D01*
X88935Y71165D01*
X83220Y27820D02*
X93700D01*
X119529Y72321D02*
X119550Y72300D01*
X119449Y72321D02*
X119529D01*
X119440Y72330D02*
X119449Y72321D01*
X109617Y21204D02*
X110460D01*
X107600Y21120D02*
X108097D01*
X65070Y83699D02*
X65091Y83720D01*
X64677Y84093D02*
X65070Y83699D01*
X97863Y83750D02*
X98020D01*
X97834Y83720D02*
X97863Y83750D01*
X62390Y73630D02*
X62434D01*
X62463Y73601D02*
X64159D01*
X62434Y73630D02*
X62463Y73601D01*
X62219Y62142D02*
X62312Y62049D01*
X62133Y62114D02*
X62154Y62135D01*
X62212D01*
X62219Y62142D01*
X62910Y39304D02*
X64909D01*
X62883Y39276D02*
X62910Y39304D01*
X103010Y85030D02*
X103190Y85210D01*
X107325D01*
X59737Y28650D02*
X68835D01*
X90780Y28310D02*
X91040Y28570D01*
X103302Y85560D02*
X105510D01*
X116910Y84770D02*
X117300D01*
X73060Y5160D02*
X73070D01*
X73040Y5180D02*
X73060Y5160D01*
X73070D02*
X73090Y5140D01*
X108127Y5620D02*
X115290D01*
X112070Y67122D02*
X112082Y67110D01*
X115500D01*
X47655Y143120D02*
X47665Y143110D01*
X79860D01*
X46720Y85426D02*
Y85432D01*
Y85426D02*
X46886Y85260D01*
X58129Y84951D02*
X58151Y84929D01*
X104591Y78372D02*
X104834Y78130D01*
X104604Y78443D02*
X104625Y78464D01*
X104604Y78385D02*
Y78443D01*
X104591Y78372D02*
X104604Y78385D01*
X35769Y74032D02*
X35935Y73866D01*
X35965Y62104D02*
Y62471D01*
X35799Y62637D02*
X35965Y62471D01*
X44632Y62686D02*
X46750D01*
Y62192D02*
Y62686D01*
Y62192D02*
X46939Y62003D01*
X35799Y50845D02*
Y51305D01*
X46744Y51349D02*
X46750Y51355D01*
X37885Y51349D02*
X46744D01*
X47482Y51055D02*
X47525D01*
X75240Y126670D02*
X87220D01*
X87350Y126800D01*
X35707Y40506D02*
X36192Y40991D01*
X35789Y39052D02*
Y39922D01*
Y39052D02*
X35984Y38857D01*
X36660Y39576D02*
X36884Y39800D01*
X45070D01*
X45122Y39852D01*
X46740Y39493D02*
Y39972D01*
Y39493D02*
X46775Y39458D01*
X54477Y39304D02*
X56706D01*
X61323Y39656D02*
X61326Y39654D01*
X35775Y28571D02*
X35789Y28557D01*
X35775Y28571D02*
Y28752D01*
X35789Y28238D02*
Y28557D01*
Y28238D02*
X35900Y28126D01*
Y28079D02*
Y28126D01*
X60534Y28291D02*
X60537Y28288D01*
X61614D01*
X46724Y17256D02*
X46730Y17262D01*
X54059Y16594D02*
X57311D01*
X99187Y17347D02*
X102010D01*
X80360Y9100D02*
X83800D01*
X80290Y9170D02*
X80360Y9100D01*
X76880Y9170D02*
X80290D01*
X76830Y9120D02*
X76880Y9170D01*
X65540Y9120D02*
X76830D01*
X36032Y7810D02*
X62280D01*
X35849Y7627D02*
X36032Y7810D01*
X35699Y5820D02*
X35720Y5799D01*
Y5460D02*
Y5799D01*
Y5460D02*
X35779Y5401D01*
X36749Y5848D02*
X46671D01*
X62752Y5966D02*
X62769Y5950D01*
X72060D01*
X94630Y93510D02*
X94830Y93310D01*
X102190D01*
X108478Y130900D02*
X113030D01*
X16197Y113380D02*
Y113440D01*
Y113380D02*
X16362Y113215D01*
X16170Y107380D02*
X21415D01*
X25909Y106660D02*
X28180D01*
X66710Y103230D02*
X92670D01*
X29332Y107640D02*
X29680D01*
X29970Y102883D02*
Y102912D01*
Y102883D02*
X30011Y102842D01*
Y102830D02*
Y102842D01*
X88358Y100820D02*
X104150D01*
X22210Y119460D02*
X29030D01*
X21780Y119890D02*
X22210Y119460D01*
X115258Y71382D02*
X115270Y71370D01*
X113744Y71382D02*
X115258D01*
X18029Y125979D02*
X18335Y126285D01*
X17070Y126230D02*
X17439D01*
X17690Y125979D01*
X18029D01*
X106564Y56570D02*
X106602Y56531D01*
X106515Y56570D02*
X106564D01*
X106602Y56531D02*
X108842D01*
X17283Y117035D02*
X17408Y117160D01*
X83780Y56730D02*
X83840Y56670D01*
X94200Y55920D02*
X94290Y56010D01*
X111055Y70325D02*
X111291D01*
X16911Y116552D02*
Y116647D01*
X17033Y116770D01*
X16890Y116531D02*
X16911Y116552D01*
X17033Y116770D02*
X18442D01*
X29380Y102350D02*
X67640D01*
X16879Y104071D02*
X16882D01*
X47520Y126540D02*
X47541Y126519D01*
X47661D01*
X47730Y126450D01*
X74456D01*
X36070Y5599D02*
Y6614D01*
Y5599D02*
X36302Y5831D01*
X70909Y6269D02*
X71040Y6400D01*
X73790D01*
X51882Y137558D02*
X52500Y136940D01*
X52791D01*
X36722Y18272D02*
X38650D01*
X36129Y17679D02*
X36722Y18272D01*
X36129Y17012D02*
Y17679D01*
X47080Y17062D02*
X47384Y17366D01*
X47815Y154170D02*
X47966Y154019D01*
X51526Y40671D02*
X51691Y40506D01*
X49775Y40671D02*
X51526D01*
X36463Y40662D02*
X39335D01*
X36139Y39722D02*
Y40338D01*
X36463Y40662D01*
X46594Y40210D02*
X46880D01*
X47090Y39772D02*
Y40000D01*
X46880Y40210D02*
X47090Y40000D01*
X77390Y145290D02*
X78640Y144040D01*
X42275Y30376D02*
X43167D01*
X41712Y29813D02*
X42275Y30376D01*
X36139Y29489D02*
X36390Y29740D01*
X36139Y28357D02*
Y29489D01*
X46939Y28558D02*
X47090Y28407D01*
X116440Y50520D02*
X116525D01*
X108677Y50535D02*
X116425D01*
X116440Y50520D01*
X105832Y51439D02*
X107773D01*
X108677Y50535D01*
X105808Y51415D02*
X105832Y51439D01*
X47100Y51155D02*
X47865Y51920D01*
X46949Y51306D02*
X47100Y51155D01*
X36149Y51105D02*
X37290D01*
X108912Y80810D02*
X109314Y80409D01*
X104840Y80810D02*
X108912D01*
X92630Y81150D02*
X104500D01*
X104840Y80810D01*
X47070Y73882D02*
X47718Y74530D01*
X38187Y74651D02*
X38322Y74516D01*
X46919Y74033D02*
X47070Y73882D01*
X36119Y73832D02*
X36473Y74186D01*
X36119Y85182D02*
X36473Y85536D01*
X101360Y80770D02*
X101550Y80580D01*
X96779Y12984D02*
Y13244D01*
X96769Y22999D02*
Y23258D01*
X96782Y62988D02*
Y63248D01*
X99232Y62940D02*
X101390D01*
X96779Y72989D02*
Y73248D01*
Y82989D02*
Y83248D01*
Y42976D02*
Y43235D01*
X120700Y101680D02*
X121830D01*
X16017Y110359D02*
X16533D01*
X16000Y116601D02*
X16170Y116771D01*
D11*
X-7049Y78230D02*
Y78730D01*
Y78230D02*
X-6549D01*
Y78730D01*
D16*
X114083Y83660D02*
X114528Y83216D01*
X116732Y83362D02*
X117020Y83650D01*
X115569Y83362D02*
X116732D01*
X115423Y83216D02*
X115569Y83362D01*
X114528Y83216D02*
X115423D01*
X113440Y83660D02*
X114083D01*
X107286Y86641D02*
X107287Y86640D01*
X107570D01*
D253*
X109596Y156290D02*
X113810D01*
X114240Y155860D01*
X109224Y155918D02*
X109596Y156290D01*
X99512Y156918D02*
X105306D01*
X105358Y156970D01*
X118909D01*
X112342Y15016D02*
X113424D01*
X114276Y14164D02*
X119388D01*
X113424Y15016D02*
X114276Y14164D01*
X119041Y156838D02*
X119068D01*
X118909Y156970D02*
X119041Y156838D01*
X99512Y155918D02*
X109224D01*
X114240Y155860D02*
X118380D01*
X115150Y21602D02*
X115162Y21590D01*
X118740D01*
D256*
X68349Y40680D02*
G03*
X68399Y40660I49J50D01*
G01*
X84950Y87600D02*
G03*
X84915Y87585I0J-50D01*
G01*
D260*
X112342Y15016D02*
D03*
X99512Y155918D02*
D03*
Y156918D02*
D03*
D265*
X107455Y126206D02*
D03*
X110951Y36274D02*
D03*
X107920Y63990D02*
D03*
X108908Y62025D02*
D03*
X108935Y61530D02*
D03*
X108957Y61025D02*
D03*
X109065Y55713D02*
D03*
X108090Y55213D02*
D03*
X111010Y58520D02*
D03*
X110216Y55713D02*
D03*
X108660Y48887D02*
D03*
X108200Y48790D02*
D03*
X110130Y47847D02*
D03*
X110642Y47820D02*
D03*
X109187Y45740D02*
D03*
X109656Y46607D02*
D03*
X108660D02*
D03*
X108142D02*
D03*
X107642D02*
D03*
X110142Y44540D02*
D03*
X110642Y44544D02*
D03*
X108120Y45457D02*
D03*
X107330Y42865D02*
D03*
X107642Y43337D02*
D03*
X108642Y43303D02*
D03*
X108142Y43304D02*
D03*
X110116Y41060D02*
D03*
X110630D02*
D03*
X110910Y41914D02*
D03*
X108616Y41984D02*
D03*
X108093Y41060D02*
D03*
X108120Y39860D02*
D03*
X107616Y39962D02*
D03*
X109130Y38710D02*
D03*
X108616Y38900D02*
D03*
X109616Y39783D02*
D03*
X109718Y32586D02*
D03*
X104210Y37530D02*
D03*
X99176D02*
D03*
X108810Y37447D02*
D03*
X108540Y86917D02*
D03*
X110790Y32290D02*
D03*
X72230Y42702D02*
D03*
X89200Y52110D02*
D03*
X86885Y52153D02*
D03*
X80510Y88950D02*
D03*
X100290Y151841D02*
D03*
X69463Y118900D02*
D03*
X75670Y118690D02*
D03*
X90090Y72950D02*
D03*
X107503Y145770D02*
D03*
X101950Y145020D02*
D03*
X42500Y121450D02*
D03*
X114077Y121346D02*
D03*
X123338Y78343D02*
D03*
X96814Y146680D02*
D03*
X69237Y119193D02*
D03*
X75140Y119070D02*
D03*
X109520Y63179D02*
D03*
X112147Y59285D02*
D03*
X124690Y59000D02*
D03*
X123110Y105680D02*
D03*
X107097Y111329D02*
D03*
X122020Y119440D02*
D03*
X100568Y119350D02*
D03*
X121560Y100564D02*
D03*
X112392Y58560D02*
D03*
X122840Y58520D02*
D03*
X105950Y101270D02*
D03*
X89820Y121600D02*
D03*
X76480Y121430D02*
D03*
X72931Y66863D02*
D03*
X108657Y67308D02*
D03*
X116614Y65499D02*
D03*
X116960Y64680D02*
D03*
X73768Y72494D02*
D03*
X68071Y72610D02*
D03*
X68120Y90218D02*
D03*
X60724Y90213D02*
D03*
X70894Y51260D02*
D03*
X71100Y53000D02*
D03*
X69350Y34021D02*
D03*
X73835Y33855D02*
D03*
X42910Y112770D02*
D03*
X115222Y112100D02*
D03*
X114190Y43391D02*
D03*
X121710Y144890D02*
D03*
X73945Y24330D02*
D03*
X118470Y25316D02*
D03*
X115185Y75763D02*
D03*
X112780Y75892D02*
D03*
X86740Y84950D02*
D03*
Y82930D02*
D03*
X82850Y82920D02*
D03*
X119380Y88780D02*
D03*
X120110Y76830D02*
D03*
X107097Y63191D02*
D03*
X119980Y76495D02*
D03*
X86112Y76148D02*
D03*
X86260Y65788D02*
D03*
X91260Y56179D02*
D03*
X91510Y74520D02*
D03*
X119673Y76216D02*
D03*
X91980Y42680D02*
D03*
X93884Y32266D02*
D03*
X93750Y74980D02*
D03*
X118319Y75704D02*
D03*
X120160Y20130D02*
D03*
X118990Y10270D02*
D03*
X75759Y73011D02*
D03*
X89884Y145118D02*
D03*
X65730Y119420D02*
D03*
X45620Y118740D02*
D03*
X97850Y156140D02*
D03*
X83267Y38069D02*
D03*
X82847Y38005D02*
D03*
X78656Y142620D02*
D03*
X48410Y134760D02*
D03*
X47819Y135000D02*
D03*
X47799Y150610D02*
D03*
X48610D02*
D03*
X87570Y150410D02*
D03*
X86570Y132003D02*
D03*
X84250Y132150D02*
D03*
X87430Y133940D02*
D03*
X94610Y141300D02*
D03*
X89825Y146769D02*
D03*
X91420Y145565D02*
D03*
X87630Y145000D02*
D03*
X68490Y68306D02*
D03*
X78252Y81550D02*
D03*
X83000Y143950D02*
D03*
X69600Y87417D02*
D03*
X70050Y62206D02*
D03*
X71919Y20501D02*
D03*
X69918Y85003D02*
D03*
X69980Y80154D02*
D03*
X72200Y77900D02*
D03*
X69600D02*
D03*
X68886Y73011D02*
D03*
X82630Y31910D02*
D03*
X73352Y32493D02*
D03*
X65540Y27460D02*
D03*
X120330Y115050D02*
D03*
X121150Y103390D02*
D03*
X96777Y48528D02*
D03*
X101420D02*
D03*
X69602Y51773D02*
D03*
X79209Y54746D02*
D03*
X63134Y53925D02*
D03*
X83025Y69680D02*
D03*
X83041Y67442D02*
D03*
X90800Y40660D02*
D03*
X90145Y55920D02*
D03*
X92300Y61920D02*
D03*
X85378Y29122D02*
D03*
X85240Y89540D02*
D03*
X99980Y138490D02*
D03*
X84625Y87331D02*
D03*
X84590Y73585D02*
D03*
X86774Y101976D02*
D03*
X86608Y77678D02*
D03*
X85440Y78390D02*
D03*
X86977Y70281D02*
D03*
X86682Y62890D02*
D03*
X16890Y98030D02*
D03*
X31030Y101901D02*
D03*
X97780Y102690D02*
D03*
X120005Y51360D02*
D03*
X41547Y100590D02*
D03*
X109658Y96909D02*
D03*
X111738Y93505D02*
D03*
X105379Y46017D02*
D03*
X109720Y31044D02*
D03*
X112096Y32343D02*
D03*
X110968Y30832D02*
D03*
X116990Y34640D02*
D03*
X114840Y34650D02*
D03*
X117400Y36300D02*
D03*
X115268Y36096D02*
D03*
X121190Y35530D02*
D03*
X114675Y35777D02*
D03*
X118560Y35950D02*
D03*
X114419Y35952D02*
D03*
X112140Y35770D02*
D03*
X111694Y23104D02*
D03*
X109620Y36548D02*
D03*
X109938Y33667D02*
D03*
X109900Y37380D02*
D03*
X109802Y35124D02*
D03*
X108527Y36280D02*
D03*
X107330Y37970D02*
D03*
X106190Y37915D02*
D03*
X105215Y40484D02*
D03*
X105907Y41331D02*
D03*
X109481Y41060D02*
D03*
X106580Y40384D02*
D03*
X113830Y40790D02*
D03*
X109250Y42337D02*
D03*
X96560Y42750D02*
D03*
X114730Y46410D02*
D03*
X108495Y49240D02*
D03*
X109494Y49265D02*
D03*
X114046Y48220D02*
D03*
X116160Y48273D02*
D03*
X113695Y48257D02*
D03*
X110000Y49791D02*
D03*
X105517Y49596D02*
D03*
X106649Y50365D02*
D03*
X105369Y50870D02*
D03*
X115540Y52001D02*
D03*
X109192Y51980D02*
D03*
X113240Y54040D02*
D03*
X113665Y54162D02*
D03*
X115700Y53522D02*
D03*
X115750Y54034D02*
D03*
X108200Y52100D02*
D03*
X115890Y52180D02*
D03*
X112263Y56335D02*
D03*
X112780Y57230D02*
D03*
X108090Y56334D02*
D03*
X109028Y56591D02*
D03*
X113850Y58770D02*
D03*
X112428Y60056D02*
D03*
X112000Y59800D02*
D03*
X111110Y59430D02*
D03*
X114890Y59800D02*
D03*
X111130Y59711D02*
D03*
X112147Y64691D02*
D03*
X111055Y64868D02*
D03*
X111118Y64357D02*
D03*
X112263Y52900D02*
D03*
X114721Y56117D02*
D03*
X115055Y64652D02*
D03*
X113638Y65499D02*
D03*
X112310Y31120D02*
D03*
X111870Y68590D02*
D03*
X110150Y68570D02*
D03*
X113490Y53010D02*
D03*
X115570Y52900D02*
D03*
X113370Y70263D02*
D03*
X112176Y70347D02*
D03*
X110920Y70550D02*
D03*
X110946Y70902D02*
D03*
X113179Y71428D02*
D03*
X111139Y71030D02*
D03*
X113638Y71315D02*
D03*
X112070Y71542D02*
D03*
X112382Y71798D02*
D03*
X109612Y63550D02*
D03*
X111283Y69216D02*
D03*
X107541Y75980D02*
D03*
X108509Y76510D02*
D03*
X108578Y77010D02*
D03*
X107567Y78119D02*
D03*
X114719Y78363D02*
D03*
X110170Y77870D02*
D03*
X110811Y80405D02*
D03*
X109314Y79959D02*
D03*
X108509Y78130D02*
D03*
X108670Y78428D02*
D03*
X108424Y78940D02*
D03*
X108831Y79959D02*
D03*
X109445Y81517D02*
D03*
X113820Y84000D02*
D03*
X110760Y83699D02*
D03*
X111680Y83396D02*
D03*
X108457Y83187D02*
D03*
X107026Y84392D02*
D03*
X106889Y84825D02*
D03*
X108777Y85850D02*
D03*
X110690Y66020D02*
D03*
X105517Y41470D02*
D03*
X18471Y6333D02*
D03*
X18550Y51839D02*
D03*
X18550Y63171D02*
D03*
X97057Y87049D02*
D03*
X101250Y75980D02*
D03*
X107445Y22841D02*
D03*
X111225Y20100D02*
D03*
X111395Y18510D02*
D03*
X119405Y18270D02*
D03*
X117995Y48220D02*
D03*
X118400Y72020D02*
D03*
X105797Y79060D02*
D03*
X18491Y17773D02*
D03*
X18539Y29093D02*
D03*
X18539Y40464D02*
D03*
X18519Y74574D02*
D03*
X18518Y85933D02*
D03*
X18933Y105170D02*
D03*
X18975Y111427D02*
D03*
X16930Y122747D02*
D03*
X115039Y141295D02*
D03*
X114830Y127930D02*
D03*
X110811Y85850D02*
D03*
X96064Y54013D02*
D03*
X97298Y54968D02*
D03*
X103460Y54920D02*
D03*
X109520Y43391D02*
D03*
X114963Y32290D02*
D03*
X114730Y39400D02*
D03*
X106145Y32896D02*
D03*
X111830Y25650D02*
D03*
X97023Y22978D02*
D03*
X108795Y31780D02*
D03*
X113440Y83660D02*
D03*
X117020Y83650D02*
D03*
X104940Y4990D02*
D03*
X117250Y5120D02*
D03*
X106889Y87240D02*
D03*
X110760Y84730D02*
D03*
X108450Y85220D02*
D03*
X107570Y85850D02*
D03*
X107120Y86284D02*
D03*
X107570Y86640D02*
D03*
X62700Y50897D02*
D03*
X111010Y49916D02*
D03*
X43480Y92410D02*
D03*
X72690Y5270D02*
D03*
X90240Y113910D02*
D03*
X87830Y62400D02*
D03*
X71322Y20223D02*
D03*
X70089Y84040D02*
D03*
X10530Y100640D02*
D03*
X10330Y106298D02*
D03*
X-3610Y106180D02*
D03*
X104660Y97330D02*
D03*
X98510Y97494D02*
D03*
X104920Y99420D02*
D03*
X105780D02*
D03*
X106218Y87647D02*
D03*
X99920Y87600D02*
D03*
X103295Y95895D02*
D03*
X104150Y96279D02*
D03*
X116470Y116820D02*
D03*
X116880Y104955D02*
D03*
X118435Y82880D02*
D03*
X117710Y37530D02*
D03*
X96967Y72010D02*
D03*
X101338Y72028D02*
D03*
Y73490D02*
D03*
X116140Y73099D02*
D03*
X116350Y36750D02*
D03*
X98933Y62988D02*
D03*
X96700Y34810D02*
D03*
X102760Y42955D02*
D03*
X102486Y32348D02*
D03*
X97295Y34971D02*
D03*
X116780Y13170D02*
D03*
X116940Y36400D02*
D03*
X100960Y73010D02*
D03*
X109645Y54163D02*
D03*
X105560Y62803D02*
D03*
X96531Y52380D02*
D03*
X97363D02*
D03*
X96930Y44830D02*
D03*
X101490Y32549D02*
D03*
X101573Y43127D02*
D03*
X99460Y12472D02*
D03*
X99656Y42337D02*
D03*
X103775Y41670D02*
D03*
X96280Y72020D02*
D03*
X95020Y72010D02*
D03*
X96830Y41412D02*
D03*
X96157Y40962D02*
D03*
Y39250D02*
D03*
X96002Y40128D02*
D03*
X93340Y23189D02*
D03*
X93370Y38960D02*
D03*
X92450Y13150D02*
D03*
X92470Y38890D02*
D03*
X96782Y72515D02*
D03*
X106780Y72792D02*
D03*
X100900Y56334D02*
D03*
X100998Y32110D02*
D03*
X96610Y31400D02*
D03*
X96920Y31780D02*
D03*
X110930Y26526D02*
D03*
X111280Y16480D02*
D03*
X108585Y65550D02*
D03*
X110930Y15830D02*
D03*
X107330Y51180D02*
D03*
X104670Y47697D02*
D03*
X105517Y44657D02*
D03*
X104433Y33220D02*
D03*
X104510Y47937D02*
D03*
X105831Y44818D02*
D03*
X113477Y50070D02*
D03*
X116052Y20645D02*
D03*
X115985Y89000D02*
D03*
X70939Y129617D02*
D03*
X90600Y129680D02*
D03*
X91040Y20770D02*
D03*
X101080Y157360D02*
D03*
X117770Y157400D02*
D03*
X65530Y84500D02*
D03*
X64775Y73601D02*
D03*
X108985Y82630D02*
D03*
X66329Y61578D02*
D03*
X88130Y84150D02*
D03*
X69350Y40274D02*
D03*
X101680Y40450D02*
D03*
X69960Y29922D02*
D03*
X86780Y29930D02*
D03*
Y28920D02*
D03*
X102010D02*
D03*
X65200Y15930D02*
D03*
X119670Y16980D02*
D03*
X65170Y5270D02*
D03*
X72710Y6720D02*
D03*
X118250Y6820D02*
D03*
X65890Y81640D02*
D03*
X99870Y81550D02*
D03*
X100070Y82830D02*
D03*
X111560D02*
D03*
X64560Y74260D02*
D03*
X68490Y73930D02*
D03*
X69520Y63467D02*
D03*
X84285Y63730D02*
D03*
Y70010D02*
D03*
X69340Y52200D02*
D03*
X69480Y40960D02*
D03*
X88360Y40980D02*
D03*
X88480Y71190D02*
D03*
X116660Y28920D02*
D03*
X116710Y71580D02*
D03*
X70860Y18130D02*
D03*
X119550Y72300D02*
D03*
X71330Y6180D02*
D03*
X118420Y6440D02*
D03*
X112760Y19790D02*
D03*
X106180Y19956D02*
D03*
X107600Y21120D02*
D03*
X61594Y84764D02*
D03*
X107120Y83340D02*
D03*
X106800Y86640D02*
D03*
X62390Y73630D02*
D03*
X62133Y62114D02*
D03*
X62883Y39276D02*
D03*
X63110Y27870D02*
D03*
X91040Y28570D02*
D03*
X91150Y85580D02*
D03*
X61390Y16594D02*
D03*
X117490Y17120D02*
D03*
X117300Y84770D02*
D03*
X73040Y5180D02*
D03*
X115290Y5620D02*
D03*
X115500Y67110D02*
D03*
X112070Y67122D02*
D03*
X47655Y143120D02*
D03*
X108442Y143299D02*
D03*
X110130Y149950D02*
D03*
X111680Y81319D02*
D03*
X114300Y134790D02*
D03*
X48094Y127187D02*
D03*
X108740Y126614D02*
D03*
X70390Y82080D02*
D03*
X104315Y82205D02*
D03*
X104625Y78464D02*
D03*
X69760Y73750D02*
D03*
X69790Y74820D02*
D03*
X89090Y74730D02*
D03*
X89060Y78040D02*
D03*
X100500Y52898D02*
D03*
X100470Y69030D02*
D03*
X87350Y126800D02*
D03*
X75240Y126670D02*
D03*
X75140Y42960D02*
D03*
X91340Y76620D02*
D03*
X48164Y142660D02*
D03*
X99930Y29240D02*
D03*
X100000Y77310D02*
D03*
X102010Y17347D02*
D03*
X102300Y63550D02*
D03*
X48335Y126920D02*
D03*
X83440D02*
D03*
X83800Y9100D02*
D03*
X72060Y5950D02*
D03*
Y7370D02*
D03*
X110130Y7560D02*
D03*
X93040Y86630D02*
D03*
X92890Y72260D02*
D03*
X106780Y72470D02*
D03*
X106802Y64110D02*
D03*
X90530Y75570D02*
D03*
X90510Y64520D02*
D03*
X69320Y64930D02*
D03*
X69350Y31100D02*
D03*
X69073Y86747D02*
D03*
X69113Y75404D02*
D03*
X69115Y52670D02*
D03*
X69179Y41412D02*
D03*
X69103Y18591D02*
D03*
X69080Y7190D02*
D03*
X111940Y7140D02*
D03*
X99530Y59930D02*
D03*
X83940Y143190D02*
D03*
X94630Y93510D02*
D03*
X102190Y93310D02*
D03*
X102060Y59610D02*
D03*
X103530Y102690D02*
D03*
X103100Y59285D02*
D03*
X84071Y154057D02*
D03*
X84091Y138321D02*
D03*
X84530Y130450D02*
D03*
X113030Y130900D02*
D03*
X16197Y113440D02*
D03*
X89100Y113150D02*
D03*
X89480Y62090D02*
D03*
X16170Y107380D02*
D03*
X30380Y106740D02*
D03*
Y103700D02*
D03*
X29680Y107640D02*
D03*
X29970Y102912D02*
D03*
X91320Y104210D02*
D03*
X104150Y100820D02*
D03*
X104960Y61530D02*
D03*
X29030Y119460D02*
D03*
X29319Y124063D02*
D03*
X107390Y124500D02*
D03*
X115270Y71370D02*
D03*
X17070Y126230D02*
D03*
X106350Y78720D02*
D03*
X106515Y56570D02*
D03*
X83780Y56730D02*
D03*
X17000Y113510D02*
D03*
X92240Y98030D02*
D03*
X92300Y55610D02*
D03*
X110000Y66020D02*
D03*
X111055Y70325D02*
D03*
X29860Y119710D02*
D03*
X84950Y57420D02*
D03*
X113306Y114150D02*
D03*
X117330Y56320D02*
D03*
X116880Y102500D02*
D03*
X30950Y107080D02*
D03*
X86650Y56270D02*
D03*
X47520Y126540D02*
D03*
X74456Y126450D02*
D03*
X74460Y8470D02*
D03*
X111530Y6580D02*
D03*
X94830Y136660D02*
D03*
X88720Y17010D02*
D03*
X106490Y52001D02*
D03*
X97440Y152290D02*
D03*
X116795Y80510D02*
D03*
X116525Y50520D02*
D03*
X92630Y81150D02*
D03*
X92710Y74240D02*
D03*
X106719Y12964D02*
D03*
X106680Y46090D02*
D03*
X106990Y23150D02*
D03*
X107330Y46300D02*
D03*
X106580Y32790D02*
D03*
X106437Y46579D02*
D03*
X101390Y62940D02*
D03*
X106680Y73170D02*
D03*
X107440Y82630D02*
D03*
X99780Y43020D02*
D03*
X99656Y47117D02*
D03*
X121810Y53540D02*
D03*
X121830Y101680D02*
D03*
X121170Y54150D02*
D03*
X120715Y53880D02*
D03*
X118970Y53640D02*
D03*
X118990Y125180D02*
D03*
X62733Y40415D02*
D03*
X14350Y90480D02*
D03*
X58474Y89661D02*
D03*
X111196Y20704D02*
D03*
X110460Y21204D02*
D03*
X113800Y141479D02*
D03*
X111236Y128487D02*
D03*
X113915Y117034D02*
D03*
X109320Y104955D02*
D03*
X97023Y26470D02*
D03*
X96255Y23261D02*
D03*
X97278Y25847D02*
D03*
X96769Y23258D02*
D03*
X96511Y23047D02*
D03*
X97033Y12964D02*
D03*
X96779Y13244D02*
D03*
X97033Y16455D02*
D03*
X96521Y13032D02*
D03*
X97288Y15832D02*
D03*
X96265Y13246D02*
D03*
X96785Y33239D02*
D03*
X96527Y33028D02*
D03*
X97033Y46447D02*
D03*
Y42955D02*
D03*
X96779Y43235D02*
D03*
X97043Y56490D02*
D03*
X97292Y65837D02*
D03*
X97036Y62968D02*
D03*
X96782Y63248D02*
D03*
X96524Y63037D02*
D03*
X97288Y75837D02*
D03*
X96779Y73248D02*
D03*
X96521Y73037D02*
D03*
X96779Y83248D02*
D03*
X97033Y82968D02*
D03*
X15989Y104141D02*
D03*
X16017Y110359D02*
D03*
X16287Y111449D02*
D03*
X16197Y122235D02*
D03*
X16879Y104071D02*
D03*
X16907Y110289D02*
D03*
X16149Y103531D02*
D03*
X16259Y105231D02*
D03*
X16000Y116601D02*
D03*
X16037Y122845D02*
D03*
X16890Y116531D02*
D03*
X47819Y138423D02*
D03*
X47814Y146295D02*
D03*
X47815Y154170D02*
D03*
X-7049Y78730D02*
D03*
X-6549D02*
D03*
X-7049Y78230D02*
D03*
X-6549D02*
D03*
X24530Y88364D02*
D03*
X18934Y83584D02*
D03*
X36119Y85182D02*
D03*
X35769Y85382D02*
D03*
X47070Y85232D02*
D03*
X46720Y85432D02*
D03*
X24530Y77014D02*
D03*
X18934Y72234D02*
D03*
X36119Y73832D02*
D03*
X35769Y74032D02*
D03*
X47070Y73882D02*
D03*
X46720Y74082D02*
D03*
X24560Y65618D02*
D03*
X18964Y60838D02*
D03*
X36149Y62437D02*
D03*
X35799Y62637D02*
D03*
X47100Y62486D02*
D03*
X46750Y62686D02*
D03*
X24560Y54287D02*
D03*
X18964Y49507D02*
D03*
X36149Y51105D02*
D03*
X35799Y51305D02*
D03*
X47100Y51155D02*
D03*
X46750Y51355D02*
D03*
X24550Y42904D02*
D03*
X18954Y38124D02*
D03*
X36139Y39722D02*
D03*
X35789Y39922D02*
D03*
X47090Y39772D02*
D03*
X46740Y39972D02*
D03*
X24550Y31538D02*
D03*
X18954Y26758D02*
D03*
X36139Y28357D02*
D03*
X35789Y28557D02*
D03*
X47090Y28407D02*
D03*
X46740Y28607D02*
D03*
X24540Y20194D02*
D03*
X18944Y15414D02*
D03*
X36129Y17012D02*
D03*
X35779Y17212D02*
D03*
X47080Y17062D02*
D03*
X46730Y17262D02*
D03*
X24481Y8780D02*
D03*
X18886Y4000D02*
D03*
X35720Y5799D02*
D03*
X36070Y5599D02*
D03*
X47021Y5648D02*
D03*
X46671Y5848D02*
D03*
D266*
X118380Y155860D02*
D03*
X118740Y21590D02*
D03*
X115150Y21602D02*
D03*
D268*
X119388Y14164D02*
D03*
X119068Y156838D02*
D03*
D278*
X68399Y40660D02*
D03*
M02*
