G04*
G04 #@! TF.GenerationSoftware,Altium Limited,Altium Designer,22.9.1 (49)*
G04*
G04 Layer_Physical_Order=13*
G04 Layer_Color=8421376*
%FSLAX24Y24*%
%MOIN*%
G70*
G04*
G04 #@! TF.SameCoordinates,1003F32D-41C8-4A49-8BB1-F60438683A21*
G04*
G04*
G04 #@! TF.FilePolarity,Negative*
G04*
G01*
G75*
%ADD258C,0.0600*%
%ADD266C,0.0350*%
%ADD269C,0.0400*%
%ADD270C,0.0580*%
%ADD271C,0.0771*%
%ADD272C,0.2700*%
%ADD273C,0.0740*%
%ADD274C,0.1450*%
%ADD275C,0.0280*%
%ADD276C,0.0400*%
%ADD277C,0.0550*%
D258*
X95004Y152695D02*
D03*
X63597Y6848D02*
D03*
X78414Y130172D02*
D03*
Y138042D02*
D03*
X78410Y145914D02*
D03*
X78410Y153789D02*
D03*
X80619Y16543D02*
D03*
X76500Y50687D02*
D03*
X93129Y5515D02*
D03*
X101506Y121103D02*
D03*
X100355Y94674D02*
D03*
X97516Y126875D02*
D03*
X104596Y140259D02*
D03*
X99140Y106962D02*
D03*
X101012Y152415D02*
D03*
X63656Y18262D02*
D03*
X63666Y29607D02*
D03*
Y40972D02*
D03*
X63676Y52355D02*
D03*
Y63687D02*
D03*
X63646Y75082D02*
D03*
X105300Y119271D02*
D03*
X105656Y139359D02*
D03*
X106012Y153875D02*
D03*
X63646Y86432D02*
D03*
X81754Y38774D02*
D03*
X81304Y61217D02*
D03*
X81054Y84044D02*
D03*
X95037Y137260D02*
D03*
D266*
X88920Y154729D02*
D03*
X89006Y135857D02*
D03*
X74814Y62060D02*
D03*
X74649Y85604D02*
D03*
X75410Y40590D02*
D03*
X75394Y16471D02*
D03*
X116370Y93760D02*
D03*
X115890D02*
D03*
X115430D02*
D03*
X115890Y94133D02*
D03*
X115430Y94146D02*
D03*
X112872Y151233D02*
D03*
X112573Y151226D02*
D03*
X112207Y151236D02*
D03*
X111854Y151226D02*
D03*
X112685Y154694D02*
D03*
X112353D02*
D03*
X111957D02*
D03*
X111583D02*
D03*
X68500Y92500D02*
D03*
X69918D02*
D03*
X69418D02*
D03*
X68918D02*
D03*
X93040D02*
D03*
X90490Y92512D02*
D03*
X91000Y92500D02*
D03*
X91500D02*
D03*
X92000D02*
D03*
X92540D02*
D03*
D269*
X0Y47000D02*
Y52000D01*
X-9002D02*
X0D01*
X-9002D02*
Y114750D01*
X0D01*
X-0Y160000D02*
X0Y114750D01*
X-0Y160000D02*
X125780Y160000D01*
X125780Y-0D01*
X-0Y0D02*
X125780Y-0D01*
X-0Y0D02*
X-0Y30500D01*
X5500D01*
Y47000D01*
X0D02*
X5500D01*
D270*
X112342Y14016D02*
D03*
Y15016D02*
D03*
Y16016D02*
D03*
X99512Y155918D02*
D03*
Y156918D02*
D03*
Y157918D02*
D03*
D271*
X-4201Y79340D02*
D03*
X-5000Y58120D02*
D03*
X-4201Y108868D02*
D03*
X-5000Y87648D02*
D03*
D272*
Y113025D02*
D03*
Y53968D02*
D03*
Y83500D02*
D03*
D273*
X-1148Y89106D02*
D03*
X3852D02*
D03*
X-1042Y82528D02*
D03*
X3958D02*
D03*
D274*
X66395Y47140D02*
D03*
X72000Y97000D02*
D03*
X122000Y80000D02*
D03*
Y156000D02*
D03*
X4096Y4050D02*
D03*
X72000D02*
D03*
X34000Y110000D02*
D03*
X95000Y156000D02*
D03*
X4100D02*
D03*
X122000Y4050D02*
D03*
D275*
X66839Y118410D02*
D03*
X66827Y118146D02*
D03*
X17166Y16294D02*
D03*
X17176Y39004D02*
D03*
X30926Y157061D02*
D03*
X105173Y122240D02*
D03*
X102715Y122360D02*
D03*
X107455Y126206D02*
D03*
X77700Y123320D02*
D03*
X102530Y125750D02*
D03*
X95490Y123610D02*
D03*
X108824Y35933D02*
D03*
X109718Y31849D02*
D03*
X110951Y36274D02*
D03*
X112055Y60927D02*
D03*
X107915Y63515D02*
D03*
X108003Y63025D02*
D03*
X107920Y63990D02*
D03*
X108908Y62525D02*
D03*
Y62025D02*
D03*
X108935Y61530D02*
D03*
X108957Y61025D02*
D03*
X109065Y55713D02*
D03*
X108090Y55213D02*
D03*
X107260Y57682D02*
D03*
X108142Y57213D02*
D03*
X109065Y58264D02*
D03*
X109197Y54546D02*
D03*
X111010Y58520D02*
D03*
X110216Y56713D02*
D03*
X111171Y56213D02*
D03*
X110216Y55713D02*
D03*
X111221Y55213D02*
D03*
X109887Y54760D02*
D03*
X108660Y48887D02*
D03*
X108200Y48790D02*
D03*
X110130Y47847D02*
D03*
X110642Y47820D02*
D03*
X111127Y47847D02*
D03*
X107928Y45782D02*
D03*
X109187Y45740D02*
D03*
X109656Y46607D02*
D03*
X108660D02*
D03*
X108142D02*
D03*
X107642D02*
D03*
X109600Y44441D02*
D03*
X110142Y44540D02*
D03*
X110642Y44544D02*
D03*
X111116Y44540D02*
D03*
X108605D02*
D03*
X108120Y45457D02*
D03*
X107330Y42865D02*
D03*
X107642Y43337D02*
D03*
X108642Y43303D02*
D03*
X108142Y43304D02*
D03*
X110116Y41060D02*
D03*
X110630D02*
D03*
X111142D02*
D03*
X110910Y41914D02*
D03*
X108616Y41984D02*
D03*
X108093Y41060D02*
D03*
X108120Y39860D02*
D03*
X107616Y39962D02*
D03*
X109130Y38710D02*
D03*
X108616Y38900D02*
D03*
X109616Y39783D02*
D03*
X110930Y31423D02*
D03*
X108342Y30353D02*
D03*
X109984Y30370D02*
D03*
X109718Y32586D02*
D03*
X104210Y37530D02*
D03*
X99176D02*
D03*
X108810Y37447D02*
D03*
X103480Y105938D02*
D03*
X103234Y104317D02*
D03*
X54606Y116796D02*
D03*
X110623Y76753D02*
D03*
X107597Y76236D02*
D03*
X107494Y77239D02*
D03*
X107514Y78689D02*
D03*
X110687Y79196D02*
D03*
X110692Y81677D02*
D03*
X107585Y81156D02*
D03*
X107647Y83718D02*
D03*
X110767Y84202D02*
D03*
X108540Y86917D02*
D03*
X108460Y86189D02*
D03*
X117373Y148007D02*
D03*
X113900Y34867D02*
D03*
X110790Y32290D02*
D03*
X90519Y147645D02*
D03*
X76910Y72017D02*
D03*
X72230Y42702D02*
D03*
X89200Y52110D02*
D03*
X86885Y52153D02*
D03*
X76553Y75508D02*
D03*
X80510Y88950D02*
D03*
X80891Y72645D02*
D03*
X102946Y88313D02*
D03*
X102673Y50796D02*
D03*
X100290Y151841D02*
D03*
X71980Y125970D02*
D03*
X69463Y118900D02*
D03*
X75670Y118690D02*
D03*
X75710Y96710D02*
D03*
X73597Y75022D02*
D03*
X76489Y123202D02*
D03*
X69463Y123407D02*
D03*
X75995Y66830D02*
D03*
X90090Y72950D02*
D03*
X107400Y123800D02*
D03*
X107503Y145770D02*
D03*
X101950Y145020D02*
D03*
X42500Y121450D02*
D03*
X114077Y121346D02*
D03*
X113857Y78853D02*
D03*
X123338Y78343D02*
D03*
X122575Y122360D02*
D03*
X96814Y146680D02*
D03*
X97780Y119460D02*
D03*
X69237Y119193D02*
D03*
X75140Y119070D02*
D03*
X75160Y97292D02*
D03*
X87692Y147062D02*
D03*
X85726Y88658D02*
D03*
X108876Y87981D02*
D03*
X108847Y67820D02*
D03*
X107730Y73822D02*
D03*
X109520Y63179D02*
D03*
X107366Y73598D02*
D03*
X107614Y73350D02*
D03*
X112147Y59285D02*
D03*
X124690Y59000D02*
D03*
X123110Y105680D02*
D03*
X107097Y111329D02*
D03*
X107049Y94015D02*
D03*
X106350Y59032D02*
D03*
X124280Y58520D02*
D03*
X122020Y119440D02*
D03*
X100568Y119350D02*
D03*
X31420Y115710D02*
D03*
X84023Y117607D02*
D03*
X84760Y121510D02*
D03*
X121560Y100564D02*
D03*
X112392Y58560D02*
D03*
X122840Y58520D02*
D03*
X105950Y101270D02*
D03*
X88172Y118673D02*
D03*
X89820Y121600D02*
D03*
X76480Y121430D02*
D03*
X76460Y96850D02*
D03*
X72931Y66863D02*
D03*
X108657Y67308D02*
D03*
X105990Y67553D02*
D03*
X72370Y67347D02*
D03*
X115046Y77253D02*
D03*
X116614Y65499D02*
D03*
X116540Y74083D02*
D03*
X116960Y64680D02*
D03*
X117020Y76725D02*
D03*
X113820Y77007D02*
D03*
X73768Y72494D02*
D03*
X68071Y72610D02*
D03*
X68120Y90218D02*
D03*
X60724Y90213D02*
D03*
X59540Y117190D02*
D03*
X59310Y115970D02*
D03*
X59970Y90898D02*
D03*
X69234Y90801D02*
D03*
X70894Y51260D02*
D03*
X71100Y53000D02*
D03*
X69350Y34021D02*
D03*
X73835Y33855D02*
D03*
X73801Y27681D02*
D03*
X74121Y30130D02*
D03*
X113190Y111750D02*
D03*
X42806Y113350D02*
D03*
X42910Y112770D02*
D03*
X115222Y112100D02*
D03*
X114190Y43391D02*
D03*
X121710Y144890D02*
D03*
X119830Y26083D02*
D03*
X73376Y68811D02*
D03*
X85877Y68803D02*
D03*
Y71490D02*
D03*
X118700Y73163D02*
D03*
X118623Y25795D02*
D03*
X115089Y28200D02*
D03*
X114865Y26083D02*
D03*
X73945Y24330D02*
D03*
X118470Y25316D02*
D03*
X115185Y75763D02*
D03*
X112780Y75892D02*
D03*
X113092Y71030D02*
D03*
X111360Y68307D02*
D03*
X113480Y68360D02*
D03*
X113869Y65317D02*
D03*
X86740Y84950D02*
D03*
Y82930D02*
D03*
X82850Y82920D02*
D03*
X119380Y88780D02*
D03*
X119596Y76983D02*
D03*
X120110Y76830D02*
D03*
X107097Y63191D02*
D03*
X119980Y76495D02*
D03*
X86112Y76148D02*
D03*
X86260Y65788D02*
D03*
X91260Y56179D02*
D03*
X91510Y74520D02*
D03*
X119673Y76216D02*
D03*
X117695Y75980D02*
D03*
X102381Y75388D02*
D03*
X101855Y69520D02*
D03*
X91510Y69550D02*
D03*
X91980Y42680D02*
D03*
X93884Y32266D02*
D03*
X93750Y74980D02*
D03*
X118319Y75704D02*
D03*
X120160Y20130D02*
D03*
X120005Y53285D02*
D03*
X120299Y75399D02*
D03*
X119720Y75150D02*
D03*
X119040Y20439D02*
D03*
X118990Y10270D02*
D03*
X87772Y144355D02*
D03*
X87570Y117730D02*
D03*
X76099Y27918D02*
D03*
X76286Y28148D02*
D03*
X75726Y27565D02*
D03*
X75569Y72815D02*
D03*
X75759Y73011D02*
D03*
X75196Y72425D02*
D03*
X89720Y144853D02*
D03*
X89302Y144509D02*
D03*
X89884Y145118D02*
D03*
X91604Y146059D02*
D03*
X78170Y29439D02*
D03*
X73427Y72969D02*
D03*
X77336Y74629D02*
D03*
X86910Y145202D02*
D03*
X57223Y116864D02*
D03*
Y115840D02*
D03*
X55760Y116352D02*
D03*
X56346Y114696D02*
D03*
X66848Y122384D02*
D03*
X64600Y122910D02*
D03*
Y94500D02*
D03*
X65232Y118728D02*
D03*
X65479Y93980D02*
D03*
X-6049Y60730D02*
D03*
X-5549Y60240D02*
D03*
X65730Y118900D02*
D03*
X65060Y105620D02*
D03*
X-7049Y106180D02*
D03*
X65730Y119420D02*
D03*
X45620Y118740D02*
D03*
X45630Y91751D02*
D03*
X-5030Y59230D02*
D03*
X66979Y119193D02*
D03*
X66706Y92630D02*
D03*
X-6549Y60240D02*
D03*
X21711Y122425D02*
D03*
X21750Y122949D02*
D03*
X21685Y116177D02*
D03*
Y116683D02*
D03*
Y109891D02*
D03*
X21749Y110425D02*
D03*
X21670Y103760D02*
D03*
X21749Y104251D02*
D03*
X41110Y121550D02*
D03*
X41012Y113350D02*
D03*
X42806Y114350D02*
D03*
Y122900D02*
D03*
X114963Y25060D02*
D03*
X116140D02*
D03*
X117624Y24548D02*
D03*
X117640Y25550D02*
D03*
X42523Y122653D02*
D03*
X118435Y77255D02*
D03*
X115965Y74350D02*
D03*
X115644Y76216D02*
D03*
X97850Y156140D02*
D03*
X96948Y154300D02*
D03*
Y154069D02*
D03*
Y153838D02*
D03*
X97183Y153845D02*
D03*
X97420Y153838D02*
D03*
X96427Y153880D02*
D03*
X96143Y153891D02*
D03*
X96427Y153620D02*
D03*
Y153344D02*
D03*
X99605Y154262D02*
D03*
X96987Y138856D02*
D03*
Y138625D02*
D03*
Y138394D02*
D03*
X97222Y138401D02*
D03*
X97460Y138394D02*
D03*
X96466Y138436D02*
D03*
X96182Y138447D02*
D03*
X96467Y138176D02*
D03*
Y137900D02*
D03*
X99645Y138818D02*
D03*
X82969Y85640D02*
D03*
Y85409D02*
D03*
Y85178D02*
D03*
X83204Y85185D02*
D03*
X83442Y85178D02*
D03*
X82448Y85221D02*
D03*
X82164Y85232D02*
D03*
X82449Y84960D02*
D03*
Y84685D02*
D03*
X82162Y84971D02*
D03*
X85627Y85602D02*
D03*
X85877Y62784D02*
D03*
X86300Y40327D02*
D03*
X82412Y62152D02*
D03*
X82699Y61866D02*
D03*
Y62142D02*
D03*
X82414Y62414D02*
D03*
X82698Y62402D02*
D03*
X83692Y62360D02*
D03*
X83454Y62367D02*
D03*
X83219Y62360D02*
D03*
Y62591D02*
D03*
Y62822D02*
D03*
X82602Y39838D02*
D03*
X82846Y39708D02*
D03*
X83147Y39711D02*
D03*
X82846Y39973D02*
D03*
X83147Y39984D02*
D03*
X84257Y39972D02*
D03*
X84004Y39968D02*
D03*
X83737Y39973D02*
D03*
Y40296D02*
D03*
Y40536D02*
D03*
X83267Y38069D02*
D03*
X82847Y38005D02*
D03*
X85760Y17919D02*
D03*
X78656Y142620D02*
D03*
X48410Y134760D02*
D03*
X47819Y135000D02*
D03*
X47799Y150610D02*
D03*
X48610D02*
D03*
X87570Y150410D02*
D03*
X86570Y132003D02*
D03*
X84250Y132150D02*
D03*
X87430Y133940D02*
D03*
X94610Y141300D02*
D03*
X87498Y146713D02*
D03*
X89615Y147015D02*
D03*
X89825Y146769D02*
D03*
X87904Y144793D02*
D03*
X87009Y145585D02*
D03*
X89088Y142646D02*
D03*
X88824Y144274D02*
D03*
X90991Y144288D02*
D03*
X90969Y144059D02*
D03*
X86362Y146154D02*
D03*
X88444Y147827D02*
D03*
X90403Y148271D02*
D03*
X90454Y146090D02*
D03*
X91420Y145565D02*
D03*
X87630Y145000D02*
D03*
X68490Y68306D02*
D03*
X78422Y78280D02*
D03*
X78252Y81550D02*
D03*
X83000Y143950D02*
D03*
X69600Y87417D02*
D03*
X70050Y62206D02*
D03*
X71919Y20501D02*
D03*
X69918Y85003D02*
D03*
X69980Y80154D02*
D03*
X73402Y74675D02*
D03*
X75519Y74977D02*
D03*
X75729Y74731D02*
D03*
X73807Y72755D02*
D03*
X72912Y73547D02*
D03*
X74992Y70608D02*
D03*
X74728Y72236D02*
D03*
X76895Y72250D02*
D03*
X72505Y73385D02*
D03*
X72266Y74116D02*
D03*
X74348Y75789D02*
D03*
X76307Y76233D02*
D03*
X76358Y74052D02*
D03*
X77324Y73527D02*
D03*
X72200Y77900D02*
D03*
X69600D02*
D03*
X69500Y74470D02*
D03*
X69300Y78300D02*
D03*
X68886Y73011D02*
D03*
X74062Y28065D02*
D03*
X82630Y31910D02*
D03*
X73352Y32493D02*
D03*
X77852Y28631D02*
D03*
X76885Y29156D02*
D03*
X77022Y30820D02*
D03*
X76835Y31336D02*
D03*
X74876Y30892D02*
D03*
X72794Y29219D02*
D03*
X73033Y28488D02*
D03*
X77400Y27124D02*
D03*
X77422Y27353D02*
D03*
X75255Y27339D02*
D03*
X75520Y25711D02*
D03*
X73440Y28651D02*
D03*
X74335Y27858D02*
D03*
X76256Y29834D02*
D03*
X76046Y30080D02*
D03*
X65540Y27460D02*
D03*
X73929Y29779D02*
D03*
X120330Y115050D02*
D03*
X121150Y103390D02*
D03*
X106137Y48578D02*
D03*
X96777Y48528D02*
D03*
X101420D02*
D03*
X82932Y18064D02*
D03*
X82968Y17787D02*
D03*
X69602Y51773D02*
D03*
X79209Y54746D02*
D03*
X63134Y53925D02*
D03*
X66803Y123660D02*
D03*
X71659Y123511D02*
D03*
X73900Y124410D02*
D03*
X70714Y125180D02*
D03*
X83262Y18052D02*
D03*
Y17812D02*
D03*
X83025Y69680D02*
D03*
X83041Y67442D02*
D03*
X44530Y123340D02*
D03*
X43410Y123580D02*
D03*
X58920Y97485D02*
D03*
X81720Y96040D02*
D03*
X42403Y92090D02*
D03*
X90800Y40660D02*
D03*
X90145Y55920D02*
D03*
X92300Y61920D02*
D03*
X17209Y86814D02*
D03*
X17156Y84464D02*
D03*
X21544Y88794D02*
D03*
Y88474D02*
D03*
X17209Y75464D02*
D03*
X17177Y73109D02*
D03*
X21545Y77434D02*
D03*
Y77114D02*
D03*
X17239Y64068D02*
D03*
X17186Y61719D02*
D03*
X21545Y66049D02*
D03*
Y65729D02*
D03*
X17186Y50388D02*
D03*
X17239Y52737D02*
D03*
X21509Y54707D02*
D03*
Y54387D02*
D03*
X17229Y41354D02*
D03*
X21509Y43324D02*
D03*
Y43004D02*
D03*
X17176Y27639D02*
D03*
X17229Y29988D02*
D03*
X21565Y31946D02*
D03*
Y31626D02*
D03*
X17219Y18644D02*
D03*
X21517Y20630D02*
D03*
Y20310D02*
D03*
X17107Y4881D02*
D03*
X17160Y7230D02*
D03*
X21555Y8902D02*
D03*
X21531Y9272D02*
D03*
X85378Y29122D02*
D03*
X85240Y89540D02*
D03*
X99980Y138490D02*
D03*
X85176Y124420D02*
D03*
X86229Y124875D02*
D03*
X84625Y87331D02*
D03*
X84460Y97601D02*
D03*
X84590Y73585D02*
D03*
X65423Y102145D02*
D03*
X86774Y101976D02*
D03*
X87034Y97601D02*
D03*
X86930Y96590D02*
D03*
X86608Y77678D02*
D03*
X85440Y78390D02*
D03*
X86977Y70281D02*
D03*
X86682Y62890D02*
D03*
X86856Y62526D02*
D03*
X82530Y96040D02*
D03*
X81660Y102796D02*
D03*
X47358Y84614D02*
D03*
X47142Y84903D02*
D03*
X19329Y122661D02*
D03*
X19292Y116418D02*
D03*
X19309Y110176D02*
D03*
X19281Y103957D02*
D03*
X16273Y61687D02*
D03*
X16890Y98030D02*
D03*
X31030Y101901D02*
D03*
X73700Y96877D02*
D03*
X97780Y102690D02*
D03*
X67070Y105150D02*
D03*
X114741Y52498D02*
D03*
X120535Y30500D02*
D03*
X120005Y51360D02*
D03*
X41547Y100590D02*
D03*
X106067Y39066D02*
D03*
X113640Y61900D02*
D03*
X120250Y78800D02*
D03*
X108795Y118908D02*
D03*
X105313Y151300D02*
D03*
X109658Y96909D02*
D03*
X111738Y93505D02*
D03*
X111086Y94716D02*
D03*
X115947Y95099D02*
D03*
X110736Y95611D02*
D03*
X113815Y94716D02*
D03*
X105379Y46017D02*
D03*
X115093Y147617D02*
D03*
X68220Y119679D02*
D03*
X68305Y119913D02*
D03*
X66797Y119944D02*
D03*
X66760Y119689D02*
D03*
X66827Y123146D02*
D03*
X66803Y123407D02*
D03*
X69103Y123919D02*
D03*
X68279Y124175D02*
D03*
X110458Y32046D02*
D03*
X110507Y30943D02*
D03*
X109803Y33088D02*
D03*
X109720Y31044D02*
D03*
X112034Y30638D02*
D03*
X110951Y32549D02*
D03*
X110876Y32046D02*
D03*
X112096Y32343D02*
D03*
X110968Y30832D02*
D03*
X112717Y31469D02*
D03*
X107873Y31780D02*
D03*
X107836Y32301D02*
D03*
X116990Y34640D02*
D03*
X114840Y34650D02*
D03*
X117400Y36300D02*
D03*
X115268Y36096D02*
D03*
X121190Y35530D02*
D03*
X114675Y35777D02*
D03*
X118560Y35950D02*
D03*
X114419Y35952D02*
D03*
X115421Y33476D02*
D03*
X115699Y33456D02*
D03*
Y34916D02*
D03*
X115443D02*
D03*
X114190Y34830D02*
D03*
X112140Y35016D02*
D03*
Y35770D02*
D03*
X113000Y32640D02*
D03*
X112973Y36545D02*
D03*
X112740Y36033D02*
D03*
X111694Y23104D02*
D03*
X111934Y36096D02*
D03*
X109620Y36548D02*
D03*
X109938Y33667D02*
D03*
X109803Y36801D02*
D03*
X109900Y37380D02*
D03*
X110744Y34705D02*
D03*
X110941Y35310D02*
D03*
X109802Y35124D02*
D03*
X108667Y35016D02*
D03*
X108527Y36280D02*
D03*
X109796Y34650D02*
D03*
X107836Y36018D02*
D03*
Y36545D02*
D03*
X104760Y40146D02*
D03*
X105282Y38170D02*
D03*
X105043Y39066D02*
D03*
X106307Y40484D02*
D03*
X105555D02*
D03*
X107330Y32790D02*
D03*
Y37970D02*
D03*
X106190Y37915D02*
D03*
X107330Y40484D02*
D03*
X105215D02*
D03*
X105907Y41331D02*
D03*
X107405Y41794D02*
D03*
X109195Y41984D02*
D03*
X109481Y41060D02*
D03*
X106580Y40384D02*
D03*
X113830Y40790D02*
D03*
X114895Y33667D02*
D03*
X108032Y30969D02*
D03*
X109250Y42337D02*
D03*
X96560Y42750D02*
D03*
X109195Y44574D02*
D03*
X107330Y45043D02*
D03*
X115148Y33838D02*
D03*
X114730Y46410D02*
D03*
X108495Y49240D02*
D03*
X109494Y49265D02*
D03*
X107492Y47990D02*
D03*
X114046Y48220D02*
D03*
X116160Y48273D02*
D03*
X113695Y48257D02*
D03*
X113887Y46120D02*
D03*
X113758Y47077D02*
D03*
X113443Y47209D02*
D03*
X114188Y47091D02*
D03*
X114399Y47000D02*
D03*
X114143Y48510D02*
D03*
X114414D02*
D03*
X110000Y49791D02*
D03*
X105517Y49596D02*
D03*
X104857Y48510D02*
D03*
X105110Y49425D02*
D03*
X106403Y49729D02*
D03*
X104857Y50365D02*
D03*
X106649D02*
D03*
X105369Y50870D02*
D03*
X106428D02*
D03*
X105630D02*
D03*
X111497Y52717D02*
D03*
X110478Y52378D02*
D03*
X111375Y52114D02*
D03*
X114556Y51589D02*
D03*
X110889Y53350D02*
D03*
X111271Y51603D02*
D03*
X110478Y51345D02*
D03*
X108660Y51180D02*
D03*
X109028Y51490D02*
D03*
X112428Y53748D02*
D03*
X114046Y52303D02*
D03*
X115540Y52001D02*
D03*
X109192Y51980D02*
D03*
X113237Y52754D02*
D03*
X113240Y54040D02*
D03*
X113665Y54162D02*
D03*
X113576Y53522D02*
D03*
X114741Y53266D02*
D03*
X115700Y53522D02*
D03*
X115750Y54034D02*
D03*
X106310Y55138D02*
D03*
X113954Y55276D02*
D03*
X113333Y55529D02*
D03*
Y56553D02*
D03*
X108200Y52100D02*
D03*
X115890Y52180D02*
D03*
X115925Y55017D02*
D03*
X115570Y56041D02*
D03*
X114741Y55276D02*
D03*
X112263Y56335D02*
D03*
X112780Y57230D02*
D03*
X113721Y56809D02*
D03*
X109711Y52338D02*
D03*
X108115Y54290D02*
D03*
X108090Y56334D02*
D03*
X109028Y56591D02*
D03*
X113346Y59800D02*
D03*
X116200Y52780D02*
D03*
X116160Y58264D02*
D03*
X115750Y55540D02*
D03*
X115700Y58560D02*
D03*
X112089Y58264D02*
D03*
X113850Y58770D02*
D03*
X112690Y60290D02*
D03*
X112428Y60056D02*
D03*
X112000Y59800D02*
D03*
X111110Y59430D02*
D03*
X115169Y61607D02*
D03*
X114890Y59800D02*
D03*
X111130Y59711D02*
D03*
X111118Y62147D02*
D03*
X110070Y52630D02*
D03*
X110150Y62400D02*
D03*
X108450Y60175D02*
D03*
X112089Y64101D02*
D03*
X112147Y64691D02*
D03*
X111055Y64868D02*
D03*
X111118Y64357D02*
D03*
X112263Y52900D02*
D03*
X112109Y65024D02*
D03*
X114046Y59530D02*
D03*
X110852Y65317D02*
D03*
X115145Y52001D02*
D03*
X115055Y64101D02*
D03*
X113860Y55000D02*
D03*
X113869Y64357D02*
D03*
X114721Y56117D02*
D03*
X115055Y64652D02*
D03*
X113333Y66133D02*
D03*
X113638Y65499D02*
D03*
X112310Y31120D02*
D03*
X112300Y65680D02*
D03*
X112109Y65892D02*
D03*
X112540Y66160D02*
D03*
X109884Y67940D02*
D03*
X111497Y52424D02*
D03*
X111360Y67041D02*
D03*
X111870Y68590D02*
D03*
X111755Y55138D02*
D03*
X111627Y67309D02*
D03*
X110351Y67553D02*
D03*
X110150Y68570D02*
D03*
X108467Y67041D02*
D03*
X107366Y68832D02*
D03*
X105740Y69010D02*
D03*
X113490Y53010D02*
D03*
X115570Y52900D02*
D03*
X115270Y69751D02*
D03*
X114556Y55785D02*
D03*
X114910Y70030D02*
D03*
X113370Y70263D02*
D03*
X112000Y69610D02*
D03*
X112264Y69826D02*
D03*
X112176Y70347D02*
D03*
X110920Y70550D02*
D03*
X110946Y70902D02*
D03*
X113179Y71428D02*
D03*
X111139Y71030D02*
D03*
X113244Y71798D02*
D03*
X113638Y71315D02*
D03*
X112070Y71542D02*
D03*
X112382Y71798D02*
D03*
X109250Y47820D02*
D03*
X106310Y47670D02*
D03*
X108594Y73110D02*
D03*
X108509Y72792D02*
D03*
X109914D02*
D03*
X110036Y73065D02*
D03*
X110970Y73280D02*
D03*
X111837Y73633D02*
D03*
X109948Y73894D02*
D03*
X109857Y74257D02*
D03*
X109612Y63550D02*
D03*
X108584Y75757D02*
D03*
X111283Y69216D02*
D03*
X110837Y77007D02*
D03*
X109324Y75980D02*
D03*
X109853Y76290D02*
D03*
X108450Y76235D02*
D03*
X107541Y75980D02*
D03*
X108509Y76510D02*
D03*
X108578Y77010D02*
D03*
X108349Y77255D02*
D03*
X107567Y78119D02*
D03*
X107570Y77516D02*
D03*
X115644Y79144D02*
D03*
X116475Y79400D02*
D03*
X115912Y79656D02*
D03*
X114669Y79912D02*
D03*
X114719Y80154D02*
D03*
X114630Y78606D02*
D03*
X114719Y78363D02*
D03*
X113285Y78377D02*
D03*
X113262Y78606D02*
D03*
X113370Y75720D02*
D03*
X113336Y79196D02*
D03*
X110170Y77870D02*
D03*
X114595Y75960D02*
D03*
X111280Y79432D02*
D03*
Y78172D02*
D03*
X109407Y78428D02*
D03*
X109842Y78685D02*
D03*
X110811Y80405D02*
D03*
X110787Y79452D02*
D03*
X109314Y79959D02*
D03*
X108509Y78130D02*
D03*
X108670Y78428D02*
D03*
X108400Y78685D02*
D03*
X108424Y78940D02*
D03*
X107585Y79452D02*
D03*
X108387Y79707D02*
D03*
X108831Y79959D02*
D03*
X108457Y80580D02*
D03*
X107614Y81421D02*
D03*
X109445Y81517D02*
D03*
X112176Y79645D02*
D03*
X112102Y80654D02*
D03*
X109215Y80909D02*
D03*
X109630Y81170D02*
D03*
X108427Y81165D02*
D03*
X109909Y81677D02*
D03*
X108424Y82189D02*
D03*
X114857Y82667D02*
D03*
Y82923D02*
D03*
X115644Y83182D02*
D03*
X114630Y83396D02*
D03*
X114820Y83660D02*
D03*
X113336Y82667D02*
D03*
X112578Y82920D02*
D03*
X111280Y83620D02*
D03*
X108790Y85300D02*
D03*
X109320Y83650D02*
D03*
X113820Y84000D02*
D03*
X110760Y83699D02*
D03*
X109884Y84202D02*
D03*
X109017Y84979D02*
D03*
X111680Y83396D02*
D03*
X108457Y83187D02*
D03*
X106350Y83354D02*
D03*
X108443Y83718D02*
D03*
X107026Y84392D02*
D03*
X108457Y84725D02*
D03*
X106889Y84825D02*
D03*
X66020Y8204D02*
D03*
X66490D02*
D03*
X66250D02*
D03*
X18727Y15134D02*
D03*
X108777Y85850D02*
D03*
X98810Y84670D02*
D03*
X110690Y66020D02*
D03*
X100610Y64795D02*
D03*
X105517Y41470D02*
D03*
X106307Y29338D02*
D03*
X18669Y3713D02*
D03*
X18471Y6333D02*
D03*
X18491Y6103D02*
D03*
X18440Y6560D02*
D03*
X18730Y26472D02*
D03*
X18737Y37844D02*
D03*
X18526Y39824D02*
D03*
X18737Y49231D02*
D03*
X18559Y51207D02*
D03*
X18550Y51839D02*
D03*
X18518Y52067D02*
D03*
X18569Y51610D02*
D03*
X18761Y60552D02*
D03*
X18518Y63398D02*
D03*
X18559Y62538D02*
D03*
X18550Y63171D02*
D03*
X18569Y62941D02*
D03*
X18720Y71969D02*
D03*
X18710Y83319D02*
D03*
X18529Y85284D02*
D03*
X97057Y87049D02*
D03*
X115039Y147210D02*
D03*
X101250Y75980D02*
D03*
X105282Y28260D02*
D03*
X107445Y22841D02*
D03*
X110271Y21408D02*
D03*
X110264Y20909D02*
D03*
X111083Y24003D02*
D03*
X111225Y20100D02*
D03*
X111395Y18510D02*
D03*
X111970Y23700D02*
D03*
X105215Y31780D02*
D03*
X105545Y30560D02*
D03*
Y31455D02*
D03*
X106307Y30617D02*
D03*
X119405Y18270D02*
D03*
X117995Y48220D02*
D03*
X118400Y72020D02*
D03*
X105797Y79060D02*
D03*
X117100Y101362D02*
D03*
X117400Y146946D02*
D03*
X44566Y5372D02*
D03*
X18491Y17773D02*
D03*
X18498Y18003D02*
D03*
X18601Y17571D02*
D03*
X44625Y16785D02*
D03*
X18539Y29093D02*
D03*
X18508Y29320D02*
D03*
X18545Y28454D02*
D03*
X18650Y28876D02*
D03*
X44635Y28130D02*
D03*
X18508Y40726D02*
D03*
X18539Y40464D02*
D03*
X18559Y40234D02*
D03*
X47241Y39251D02*
D03*
X44646Y50885D02*
D03*
X47150Y50435D02*
D03*
X44645Y62210D02*
D03*
X47119Y61786D02*
D03*
X18488Y74836D02*
D03*
X18519Y74574D02*
D03*
X18591Y74352D02*
D03*
X18527Y73931D02*
D03*
X44636Y73590D02*
D03*
X15871Y118169D02*
D03*
X18539Y85704D02*
D03*
X18486Y86160D02*
D03*
X18518Y85933D02*
D03*
X44615Y84951D02*
D03*
X-4549Y105258D02*
D03*
X-6049Y104258D02*
D03*
X-6549Y61730D02*
D03*
X15860Y105708D02*
D03*
X18744Y103349D02*
D03*
X18933Y105170D02*
D03*
X15887Y111928D02*
D03*
X18975Y111427D02*
D03*
X18772Y109567D02*
D03*
X18962Y117621D02*
D03*
X15908Y124412D02*
D03*
X16930Y122747D02*
D03*
X18984Y123913D02*
D03*
X18792Y122052D02*
D03*
X115039Y141295D02*
D03*
X114830Y127930D02*
D03*
X110811Y85850D02*
D03*
X114820Y84170D02*
D03*
X96064Y54013D02*
D03*
X97298Y54968D02*
D03*
X103460Y54920D02*
D03*
X100750Y43410D02*
D03*
X109520Y43391D02*
D03*
X113669Y30960D02*
D03*
X115880D02*
D03*
X114963Y32290D02*
D03*
X114865Y29152D02*
D03*
X115363Y29062D02*
D03*
X115619Y28260D02*
D03*
X114730Y39400D02*
D03*
X114595Y28260D02*
D03*
X114420Y33530D02*
D03*
X114419Y30411D02*
D03*
X106835Y31010D02*
D03*
X106145Y32896D02*
D03*
X104760Y31777D02*
D03*
Y28260D02*
D03*
X106047Y29130D02*
D03*
X105000D02*
D03*
X97080Y28350D02*
D03*
X111830Y25650D02*
D03*
X97023Y22978D02*
D03*
X114331Y29442D02*
D03*
X108795Y32301D02*
D03*
Y31780D02*
D03*
X112919Y84770D02*
D03*
X111404Y86917D02*
D03*
X115561Y147019D02*
D03*
X115230Y148267D02*
D03*
X114279Y147724D02*
D03*
X116590Y148233D02*
D03*
X115965Y148664D02*
D03*
X113440Y83660D02*
D03*
X117020Y83650D02*
D03*
X104940Y4990D02*
D03*
X117250Y5120D02*
D03*
X117400Y147470D02*
D03*
X116654Y147210D02*
D03*
X116108Y147013D02*
D03*
X114272Y148489D02*
D03*
X115140Y148755D02*
D03*
X110915Y85605D02*
D03*
X109902Y85894D02*
D03*
X112080Y85610D02*
D03*
X112090Y86133D02*
D03*
X109902Y86640D02*
D03*
X106889Y87240D02*
D03*
Y87913D02*
D03*
X110760Y84730D02*
D03*
X108450Y85220D02*
D03*
X108443Y85894D02*
D03*
X107570Y85850D02*
D03*
Y86410D02*
D03*
X107120Y86284D02*
D03*
Y86950D02*
D03*
X108450Y87180D02*
D03*
X107570Y86640D02*
D03*
X107647Y87429D02*
D03*
X62700Y50897D02*
D03*
X111010Y49916D02*
D03*
X47129Y50837D02*
D03*
X96706Y7682D02*
D03*
X96706Y7943D02*
D03*
Y7419D02*
D03*
X97000D02*
D03*
Y7682D02*
D03*
Y7974D02*
D03*
X13105Y153957D02*
D03*
X-3549Y102258D02*
D03*
X13105Y154207D02*
D03*
X-4049Y102258D02*
D03*
X16239Y84437D02*
D03*
Y84687D02*
D03*
X-6049Y69230D02*
D03*
X-6549D02*
D03*
X16259Y39227D02*
D03*
Y38977D02*
D03*
X-6549Y72230D02*
D03*
X-6049D02*
D03*
X16239Y73087D02*
D03*
Y73337D02*
D03*
X-3549Y69730D02*
D03*
X-4049D02*
D03*
X14359Y104281D02*
D03*
Y104531D02*
D03*
X-6549Y101258D02*
D03*
X-6049D02*
D03*
X14387Y110499D02*
D03*
Y110749D02*
D03*
X-4049Y100758D02*
D03*
X-3549D02*
D03*
X13109Y130590D02*
D03*
Y130340D02*
D03*
X-6549Y104258D02*
D03*
X13109Y138460D02*
D03*
Y138210D02*
D03*
X-4049Y103758D02*
D03*
X-3549D02*
D03*
X16269Y61942D02*
D03*
X-6049Y70730D02*
D03*
X-6549D02*
D03*
X16269Y50361D02*
D03*
Y50611D02*
D03*
X-3549Y71230D02*
D03*
X-4049D02*
D03*
X16249Y16517D02*
D03*
Y16267D02*
D03*
X-6549Y73730D02*
D03*
X-6049D02*
D03*
X16190Y5104D02*
D03*
Y4854D02*
D03*
X-4049Y74230D02*
D03*
X-3549D02*
D03*
X14370Y116741D02*
D03*
Y116991D02*
D03*
X-6049Y99758D02*
D03*
X-6549D02*
D03*
X13104Y146333D02*
D03*
Y146083D02*
D03*
X-6549Y102758D02*
D03*
X-6049D02*
D03*
X61160Y91780D02*
D03*
X43480Y92410D02*
D03*
X43138Y91640D02*
D03*
X72690Y5270D02*
D03*
X90240Y113910D02*
D03*
X47383Y27789D02*
D03*
X96308Y73227D02*
D03*
X47632Y154725D02*
D03*
X47581Y146859D02*
D03*
X87830Y62400D02*
D03*
X71322Y20223D02*
D03*
X70089Y84040D02*
D03*
X36466Y84539D02*
D03*
X36446Y73519D02*
D03*
X36360Y27769D02*
D03*
X10530Y100640D02*
D03*
X10330Y106298D02*
D03*
X-3610Y106180D02*
D03*
X104660Y97330D02*
D03*
X98510Y97494D02*
D03*
X104920Y99420D02*
D03*
X105780D02*
D03*
X106218Y87647D02*
D03*
X99920Y87600D02*
D03*
X103295Y95895D02*
D03*
X104150Y96279D02*
D03*
X114410Y152120D02*
D03*
X116470Y116820D02*
D03*
X116880Y104955D02*
D03*
X118435Y82880D02*
D03*
X117710Y37530D02*
D03*
X96967Y72010D02*
D03*
X101338Y72028D02*
D03*
Y73490D02*
D03*
X116140Y73099D02*
D03*
X116350Y36750D02*
D03*
X98933Y62988D02*
D03*
X96692Y40615D02*
D03*
X96700Y34810D02*
D03*
X102760Y42955D02*
D03*
X102486Y32348D02*
D03*
X97295Y34971D02*
D03*
X116780Y13170D02*
D03*
X116940Y36400D02*
D03*
X100960Y73010D02*
D03*
X109645Y54163D02*
D03*
X105560Y62803D02*
D03*
X105907Y45175D02*
D03*
X96531Y52380D02*
D03*
X97363D02*
D03*
X96930Y44830D02*
D03*
X101490Y32549D02*
D03*
X101573Y43127D02*
D03*
X99460Y12472D02*
D03*
X99656Y42337D02*
D03*
X103805Y82350D02*
D03*
X103775Y41670D02*
D03*
X96280Y72020D02*
D03*
X95020Y72010D02*
D03*
X94700Y42092D02*
D03*
X96830Y41412D02*
D03*
X96157Y40962D02*
D03*
Y39250D02*
D03*
X96002Y40128D02*
D03*
X93340Y23189D02*
D03*
X93370Y38960D02*
D03*
X92450Y13150D02*
D03*
X92470Y38890D02*
D03*
X96782Y72515D02*
D03*
X106780Y72792D02*
D03*
X100900Y56334D02*
D03*
X100998Y32110D02*
D03*
X96610Y31400D02*
D03*
X96920Y31780D02*
D03*
X110930Y26526D02*
D03*
X111280Y16480D02*
D03*
X101238Y28052D02*
D03*
X103940Y27280D02*
D03*
X108585Y65550D02*
D03*
X110930Y15830D02*
D03*
X107330Y51180D02*
D03*
X106466Y33385D02*
D03*
X105379Y47485D02*
D03*
X104670Y47697D02*
D03*
X105517Y44657D02*
D03*
X104433Y33220D02*
D03*
X104510Y47937D02*
D03*
X105831Y44818D02*
D03*
X113477Y50070D02*
D03*
X116052Y20645D02*
D03*
X115985Y89000D02*
D03*
X70939Y129617D02*
D03*
X90600Y129680D02*
D03*
X91040Y20770D02*
D03*
X101080Y157360D02*
D03*
X117770Y157400D02*
D03*
X117900Y21040D02*
D03*
X65530Y84500D02*
D03*
X64775Y73601D02*
D03*
X108985Y82630D02*
D03*
X66329Y61578D02*
D03*
X88130Y84150D02*
D03*
X119620Y84550D02*
D03*
X69350Y40274D02*
D03*
X101680Y40450D02*
D03*
X101560Y82465D02*
D03*
X69960Y29922D02*
D03*
X86780Y29930D02*
D03*
Y28920D02*
D03*
X102010D02*
D03*
X102700Y83140D02*
D03*
X65200Y15930D02*
D03*
X119670Y16980D02*
D03*
X119510Y82420D02*
D03*
X65170Y5270D02*
D03*
X72710Y6720D02*
D03*
X118250Y6820D02*
D03*
X118280Y83900D02*
D03*
X65890Y81640D02*
D03*
X99870Y81550D02*
D03*
X100070Y82830D02*
D03*
X111560D02*
D03*
X64560Y74260D02*
D03*
X68490Y73930D02*
D03*
X69520Y63467D02*
D03*
X84285Y63730D02*
D03*
Y70010D02*
D03*
X69340Y52200D02*
D03*
X69480Y40960D02*
D03*
X88360Y40980D02*
D03*
X88480Y71190D02*
D03*
X116660Y28920D02*
D03*
X116710Y71580D02*
D03*
X70860Y18130D02*
D03*
X119550Y72300D02*
D03*
X71330Y6180D02*
D03*
X118420Y6440D02*
D03*
X112760Y19790D02*
D03*
X106180Y19956D02*
D03*
X107600Y21120D02*
D03*
X61594Y84764D02*
D03*
X107120Y83340D02*
D03*
X106800Y86640D02*
D03*
X62390Y73630D02*
D03*
X62133Y62114D02*
D03*
X62883Y39276D02*
D03*
X63110Y27870D02*
D03*
X91040Y28570D02*
D03*
X91150Y85580D02*
D03*
X61390Y16594D02*
D03*
X117490Y17120D02*
D03*
X117300Y84770D02*
D03*
X73040Y5180D02*
D03*
X115290Y5620D02*
D03*
X115500Y67110D02*
D03*
X112070Y67122D02*
D03*
X47655Y143120D02*
D03*
X108442Y143299D02*
D03*
X110130Y149950D02*
D03*
X111680Y81319D02*
D03*
X114590Y81000D02*
D03*
X114300Y134790D02*
D03*
X48094Y127187D02*
D03*
X108740Y126614D02*
D03*
X70390Y82080D02*
D03*
X104315Y82205D02*
D03*
X104625Y78464D02*
D03*
X69760Y73750D02*
D03*
X69790Y74820D02*
D03*
X89090Y74730D02*
D03*
X89060Y78040D02*
D03*
X100500Y52898D02*
D03*
X100470Y69030D02*
D03*
X87350Y126800D02*
D03*
X75240Y126670D02*
D03*
X75140Y42960D02*
D03*
X91340Y76620D02*
D03*
X48164Y142660D02*
D03*
X99930Y29240D02*
D03*
X100000Y77310D02*
D03*
X102010Y17347D02*
D03*
X102300Y63550D02*
D03*
X48335Y126920D02*
D03*
X83440D02*
D03*
X83800Y9100D02*
D03*
X72060Y5950D02*
D03*
Y7370D02*
D03*
X110130Y7560D02*
D03*
X93040Y86630D02*
D03*
X92890Y72260D02*
D03*
X106780Y72470D02*
D03*
X106802Y64110D02*
D03*
X90530Y75570D02*
D03*
X90510Y64520D02*
D03*
X69320Y64930D02*
D03*
X69350Y31100D02*
D03*
X69073Y86747D02*
D03*
X69113Y75404D02*
D03*
X69115Y64009D02*
D03*
Y52670D02*
D03*
X69179Y41412D02*
D03*
X69103Y29922D02*
D03*
Y18591D02*
D03*
X69080Y7190D02*
D03*
X111940Y7140D02*
D03*
X99530Y59930D02*
D03*
X83940Y143190D02*
D03*
X94630Y93510D02*
D03*
X102190Y93310D02*
D03*
X102060Y59610D02*
D03*
X103530Y102690D02*
D03*
X103100Y59285D02*
D03*
X84071Y154057D02*
D03*
Y146182D02*
D03*
X84091Y138321D02*
D03*
X84530Y130450D02*
D03*
X113030Y130900D02*
D03*
X16197Y113440D02*
D03*
X89100Y113150D02*
D03*
X89480Y62090D02*
D03*
X16170Y107380D02*
D03*
X30380Y106740D02*
D03*
Y103700D02*
D03*
X29680Y107640D02*
D03*
X29970Y102912D02*
D03*
X91320Y104210D02*
D03*
X104150Y100820D02*
D03*
X104490Y88149D02*
D03*
X104960Y61530D02*
D03*
X29030Y119460D02*
D03*
X29319Y124063D02*
D03*
X107390Y124500D02*
D03*
X107570Y87729D02*
D03*
X115270Y71370D02*
D03*
X17070Y126230D02*
D03*
X106350Y78720D02*
D03*
X106515Y56570D02*
D03*
X83780Y56730D02*
D03*
X17000Y113510D02*
D03*
X92240Y98030D02*
D03*
X92300Y55610D02*
D03*
X110000Y66020D02*
D03*
X111055Y70325D02*
D03*
X29860Y119710D02*
D03*
X30014Y122901D02*
D03*
X84950Y57420D02*
D03*
X113306Y114150D02*
D03*
X117330Y56320D02*
D03*
X116880Y102500D02*
D03*
X30950Y107080D02*
D03*
X86650Y56270D02*
D03*
X47520Y126540D02*
D03*
X74456Y126450D02*
D03*
X74460Y8470D02*
D03*
X111530Y6580D02*
D03*
X94830Y136660D02*
D03*
X88720Y17010D02*
D03*
X106490Y52001D02*
D03*
X97440Y152290D02*
D03*
X116795Y80510D02*
D03*
X116525Y50520D02*
D03*
X92630Y81150D02*
D03*
X92710Y74240D02*
D03*
X106719Y12964D02*
D03*
X106680Y46090D02*
D03*
X106990Y23150D02*
D03*
X107330Y46300D02*
D03*
X106580Y32790D02*
D03*
X106437Y46579D02*
D03*
X101390Y62940D02*
D03*
X106680Y73170D02*
D03*
X107440Y82630D02*
D03*
X99780Y43020D02*
D03*
X99656Y47117D02*
D03*
X121810Y53540D02*
D03*
X121830Y101680D02*
D03*
X121170Y54150D02*
D03*
X120715Y53880D02*
D03*
X118970Y53640D02*
D03*
X118990Y125180D02*
D03*
X88450Y101570D02*
D03*
Y105010D02*
D03*
X60025Y103815D02*
D03*
X41307Y104110D02*
D03*
X58213Y101130D02*
D03*
X48868Y100930D02*
D03*
X72580Y100900D02*
D03*
X63020Y74470D02*
D03*
X46521Y96840D02*
D03*
X62966Y63129D02*
D03*
X53027Y103400D02*
D03*
X56395Y102650D02*
D03*
X82200Y101310D02*
D03*
X62733Y40415D02*
D03*
X9700Y60880D02*
D03*
X14350Y90480D02*
D03*
X110880Y89920D02*
D03*
X122191Y101362D02*
D03*
X122140Y31690D02*
D03*
X56610Y104140D02*
D03*
X82890Y101520D02*
D03*
X82690Y96720D02*
D03*
X83410Y29750D02*
D03*
X62454Y29049D02*
D03*
X84340Y10480D02*
D03*
X62974Y7787D02*
D03*
X62400Y17692D02*
D03*
X112260Y89143D02*
D03*
X96680Y91480D02*
D03*
X58460Y97500D02*
D03*
X58474Y89661D02*
D03*
X106063Y91070D02*
D03*
X95607Y94171D02*
D03*
X59039Y90855D02*
D03*
X114333Y73490D02*
D03*
X112176D02*
D03*
X121560Y108110D02*
D03*
X120550Y108940D02*
D03*
X59048Y105090D02*
D03*
X111190Y87950D02*
D03*
X111910Y88420D02*
D03*
X110190Y89000D02*
D03*
X114910Y89610D02*
D03*
X120250Y90220D02*
D03*
X110540Y90860D02*
D03*
X114570Y91400D02*
D03*
X115580Y92450D02*
D03*
X115130Y92790D02*
D03*
X116650Y91700D02*
D03*
X96521Y96279D02*
D03*
X116140Y92210D02*
D03*
X96296Y97087D02*
D03*
X119830Y31340D02*
D03*
X119850Y99130D02*
D03*
X96779Y97722D02*
D03*
X119290Y30700D02*
D03*
X119280Y100010D02*
D03*
X96260Y98140D02*
D03*
X118790Y101060D02*
D03*
X95500Y98660D02*
D03*
X118030Y99630D02*
D03*
X117550Y100130D02*
D03*
X116370Y102240D02*
D03*
X11920Y118666D02*
D03*
X12130Y124414D02*
D03*
X-4799Y108370D02*
D03*
X18746Y115805D02*
D03*
X111074Y22831D02*
D03*
Y23422D02*
D03*
X114287Y22831D02*
D03*
X112940Y19341D02*
D03*
X113513Y20454D02*
D03*
X112760Y20704D02*
D03*
Y21204D02*
D03*
X111950Y23150D02*
D03*
X111930Y21954D02*
D03*
X110466Y19341D02*
D03*
X111196Y20704D02*
D03*
X110447Y19790D02*
D03*
X110460Y21204D02*
D03*
X113470Y22040D02*
D03*
X108311Y22050D02*
D03*
X109036D02*
D03*
X109801Y21954D02*
D03*
X108600Y21180D02*
D03*
X109384Y21204D02*
D03*
X110400Y21700D02*
D03*
X113444Y153959D02*
D03*
X109621Y152555D02*
D03*
X114910Y154845D02*
D03*
X112772Y143143D02*
D03*
X108890Y141520D02*
D03*
X113023Y118838D02*
D03*
X110801Y143806D02*
D03*
X111118Y143810D02*
D03*
X111473D02*
D03*
X111750D02*
D03*
X112000Y140410D02*
D03*
X111723D02*
D03*
X111368D02*
D03*
X111051Y140406D02*
D03*
X114267Y144219D02*
D03*
X113800Y141479D02*
D03*
X111236Y128487D02*
D03*
X111340Y130140D02*
D03*
X113769Y128975D02*
D03*
X114496Y119770D02*
D03*
X111178Y119523D02*
D03*
X111482Y119532D02*
D03*
X111908Y119523D02*
D03*
X112218D02*
D03*
X111498Y116168D02*
D03*
X111815Y116171D02*
D03*
X112170D02*
D03*
X112447D02*
D03*
X113915Y117034D02*
D03*
X104774Y98252D02*
D03*
X104778Y96895D02*
D03*
X104678Y98508D02*
D03*
X102757Y96978D02*
D03*
X102759Y96765D02*
D03*
X102754Y96554D02*
D03*
X102756Y97182D02*
D03*
X101968Y95818D02*
D03*
X101713Y95810D02*
D03*
X101462Y95798D02*
D03*
X101218D02*
D03*
Y98827D02*
D03*
X109465Y106650D02*
D03*
X111884Y105097D02*
D03*
X109320Y104955D02*
D03*
X98120Y6777D02*
D03*
X96271Y6651D02*
D03*
X97650Y6488D02*
D03*
X97800Y7550D02*
D03*
X99059Y6763D02*
D03*
X97650Y7741D02*
D03*
X98349Y8605D02*
D03*
X108010Y5270D02*
D03*
X104920Y6290D02*
D03*
X44650Y73358D02*
D03*
X47236D02*
D03*
X36300Y39207D02*
D03*
X44671Y39189D02*
D03*
X44681Y39454D02*
D03*
X44622Y27888D02*
D03*
X18970Y86128D02*
D03*
X18953Y74794D02*
D03*
X18993Y63398D02*
D03*
X18969Y52067D02*
D03*
X18949Y40627D02*
D03*
X18973Y29318D02*
D03*
X19003Y17917D02*
D03*
X18904Y6560D02*
D03*
X16425Y121030D02*
D03*
X16387Y114800D02*
D03*
X16410Y108540D02*
D03*
X16450Y102340D02*
D03*
X98227Y74280D02*
D03*
Y75254D02*
D03*
X98107Y65330D02*
D03*
X98127Y64332D02*
D03*
X98120Y54310D02*
D03*
X98130Y55280D02*
D03*
X98159Y44306D02*
D03*
X98150Y45317D02*
D03*
X98186Y34383D02*
D03*
Y35321D02*
D03*
X98047Y24402D02*
D03*
Y25340D02*
D03*
X97023Y26470D02*
D03*
X96255Y23261D02*
D03*
X97278Y25847D02*
D03*
X96255Y26470D02*
D03*
X97780Y23920D02*
D03*
X97534Y23360D02*
D03*
X96511Y26470D02*
D03*
X96769Y23258D02*
D03*
X96511Y23047D02*
D03*
X97975Y15267D02*
D03*
X97957Y14387D02*
D03*
X97033Y12964D02*
D03*
X97544Y13345D02*
D03*
X96779Y13244D02*
D03*
X97033Y16455D02*
D03*
X96521Y13032D02*
D03*
X97790Y13905D02*
D03*
X96265Y16455D02*
D03*
X97288Y15832D02*
D03*
X96265Y13246D02*
D03*
X96521Y16455D02*
D03*
X101070Y15628D02*
D03*
X102480Y15635D02*
D03*
X100606Y15648D02*
D03*
Y14725D02*
D03*
X99646Y14387D02*
D03*
X98810Y14665D02*
D03*
X98070Y13345D02*
D03*
X94740Y13445D02*
D03*
X95246Y13448D02*
D03*
X95743Y13452D02*
D03*
X97535Y16386D02*
D03*
X94211Y16139D02*
D03*
X101060Y25643D02*
D03*
X102470Y25650D02*
D03*
X100596Y25663D02*
D03*
Y24740D02*
D03*
X99636Y24402D02*
D03*
X98800Y24680D02*
D03*
X98060Y23360D02*
D03*
X94730Y23460D02*
D03*
X95236Y23463D02*
D03*
X95733Y23467D02*
D03*
X97525Y26401D02*
D03*
X94201Y26154D02*
D03*
X101076Y35624D02*
D03*
X102486Y35631D02*
D03*
X100613Y35644D02*
D03*
Y34721D02*
D03*
X99653Y34383D02*
D03*
X98816Y34661D02*
D03*
X98076Y33341D02*
D03*
X97796Y33901D02*
D03*
X94746Y33441D02*
D03*
X97551Y33341D02*
D03*
X95253Y33444D02*
D03*
X95750Y33448D02*
D03*
X97541Y36382D02*
D03*
X96271Y36451D02*
D03*
X96527D02*
D03*
X97039D02*
D03*
X97295Y35828D02*
D03*
X94218Y36135D02*
D03*
X97039Y32959D02*
D03*
X96785Y33239D02*
D03*
X96527Y33028D02*
D03*
X96271Y33241D02*
D03*
X101070Y45620D02*
D03*
X102480Y45627D02*
D03*
X100606Y45640D02*
D03*
Y44717D02*
D03*
X99646Y44379D02*
D03*
X98810Y44657D02*
D03*
X98070Y43337D02*
D03*
X97790Y43897D02*
D03*
X94740Y43437D02*
D03*
X97544Y43337D02*
D03*
X95246Y43440D02*
D03*
X95743Y43444D02*
D03*
X97535Y46378D02*
D03*
X96265Y46447D02*
D03*
X96521D02*
D03*
X97033D02*
D03*
X97288Y45824D02*
D03*
X94211Y46131D02*
D03*
X97033Y42955D02*
D03*
X96779Y43235D02*
D03*
X96265Y43238D02*
D03*
X101080Y55663D02*
D03*
X102490Y55670D02*
D03*
X100616Y55683D02*
D03*
Y54760D02*
D03*
X99656Y54422D02*
D03*
X98820Y54700D02*
D03*
X98080Y53380D02*
D03*
X97800Y53940D02*
D03*
X94750Y53480D02*
D03*
X97554Y53380D02*
D03*
X95256Y53483D02*
D03*
X95753Y53487D02*
D03*
X97545Y56421D02*
D03*
X96275Y56490D02*
D03*
X96531D02*
D03*
X97043D02*
D03*
X97298Y55867D02*
D03*
X94221Y56174D02*
D03*
X97043Y52998D02*
D03*
X96789Y53278D02*
D03*
X96531Y53067D02*
D03*
X96275Y53281D02*
D03*
X101073Y65633D02*
D03*
X102483Y65640D02*
D03*
X100610Y65653D02*
D03*
X99650Y64391D02*
D03*
X98813Y64670D02*
D03*
X98073Y63350D02*
D03*
X97793Y63910D02*
D03*
X94743Y63450D02*
D03*
X97548Y63350D02*
D03*
X95250Y63453D02*
D03*
X95747Y63457D02*
D03*
X97538Y66391D02*
D03*
X96268Y66460D02*
D03*
X96524D02*
D03*
X97036D02*
D03*
X97292Y65837D02*
D03*
X94215Y66144D02*
D03*
X97036Y62968D02*
D03*
X96782Y63248D02*
D03*
X96524Y63037D02*
D03*
X96268Y63250D02*
D03*
X101070Y75633D02*
D03*
X102480Y75640D02*
D03*
X100606Y75653D02*
D03*
Y74730D02*
D03*
X99646Y74392D02*
D03*
X98810Y74670D02*
D03*
X98070Y73350D02*
D03*
X97790Y73910D02*
D03*
X94740Y73450D02*
D03*
X97544Y73350D02*
D03*
X95246Y73453D02*
D03*
X95743Y73457D02*
D03*
X97535Y76391D02*
D03*
X96265Y76460D02*
D03*
X96521D02*
D03*
X97033D02*
D03*
X97288Y75837D02*
D03*
X94211Y76144D02*
D03*
X97033Y72968D02*
D03*
X96779Y73248D02*
D03*
X96521Y73037D02*
D03*
X96265Y83251D02*
D03*
X96521Y83037D02*
D03*
X96779Y83248D02*
D03*
X97033Y82968D02*
D03*
X94211Y86144D02*
D03*
X97288Y85837D02*
D03*
X97033Y86460D02*
D03*
X96521D02*
D03*
X96265D02*
D03*
X97535Y86391D02*
D03*
X97950Y84392D02*
D03*
Y85330D02*
D03*
X95743Y83457D02*
D03*
X95246Y83453D02*
D03*
X97544Y83350D02*
D03*
X94740Y83450D02*
D03*
X97790Y83910D02*
D03*
X98070Y83350D02*
D03*
X99646Y84392D02*
D03*
X100606Y84730D02*
D03*
Y85653D02*
D03*
X102480Y85640D02*
D03*
X101070Y85633D02*
D03*
X16259Y27862D02*
D03*
X-4049Y72730D02*
D03*
X16259Y27612D02*
D03*
X-3549Y72730D02*
D03*
X-4049Y99258D02*
D03*
X-3549D02*
D03*
X85356Y18531D02*
D03*
X81836Y17845D02*
D03*
X82104Y17922D02*
D03*
X83543Y17812D02*
D03*
X83563Y18052D02*
D03*
X82393Y16982D02*
D03*
X82403Y17292D02*
D03*
Y17862D02*
D03*
Y16672D02*
D03*
Y17593D02*
D03*
X14407Y123235D02*
D03*
X15417Y111449D02*
D03*
X15560Y116141D02*
D03*
X15400Y117691D02*
D03*
X15437Y123935D02*
D03*
X15989Y104141D02*
D03*
X16177Y109749D02*
D03*
X16017Y110359D02*
D03*
X16287Y111449D02*
D03*
X16160Y115991D02*
D03*
X16270Y117691D02*
D03*
X16197Y122235D02*
D03*
X16307Y123935D02*
D03*
X16879Y104071D02*
D03*
X16869Y104801D02*
D03*
X16707Y109899D02*
D03*
X16907Y110289D02*
D03*
X16897Y111019D02*
D03*
X16793Y111459D02*
D03*
X16690Y116141D02*
D03*
X16776Y117701D02*
D03*
X16727Y122385D02*
D03*
X16917Y123505D02*
D03*
X16813Y123945D02*
D03*
X18299Y103881D02*
D03*
X18489Y105081D02*
D03*
X18517Y111299D02*
D03*
X18500Y117541D02*
D03*
X18347Y122585D02*
D03*
X19379Y105091D02*
D03*
X19407Y111309D02*
D03*
X19390Y117551D02*
D03*
X29892Y133511D02*
D03*
X29876Y157074D02*
D03*
X30457Y133511D02*
D03*
X30467Y141428D02*
D03*
X30431Y157053D02*
D03*
X48169Y130353D02*
D03*
Y138223D02*
D03*
X50319Y131153D02*
D03*
X50269Y138715D02*
D03*
X50319Y139023D02*
D03*
X50264Y146587D02*
D03*
X50265Y154462D02*
D03*
X69019Y130503D02*
D03*
Y138373D02*
D03*
X69014Y146245D02*
D03*
X70598Y140249D02*
D03*
X70582Y148131D02*
D03*
X70590Y156024D02*
D03*
X80219Y130368D02*
D03*
Y130673D02*
D03*
Y131326D02*
D03*
X79923Y131329D02*
D03*
X80219Y138543D02*
D03*
Y138238D02*
D03*
X79923Y139199D02*
D03*
X80219Y139196D02*
D03*
X80214Y145817D02*
D03*
Y146415D02*
D03*
X79918Y147072D02*
D03*
X80214Y147068D02*
D03*
X80215Y153692D02*
D03*
Y154622D02*
D03*
Y154290D02*
D03*
X81119Y131211D02*
D03*
Y131433D02*
D03*
Y139303D02*
D03*
Y139081D02*
D03*
X81114Y147176D02*
D03*
X81115Y155050D02*
D03*
X81619Y131211D02*
D03*
Y131433D02*
D03*
Y139303D02*
D03*
Y139081D02*
D03*
X81614Y147176D02*
D03*
X81615Y155050D02*
D03*
X83119Y131903D02*
D03*
X83115Y155520D02*
D03*
X14407Y122985D02*
D03*
X15549Y103681D02*
D03*
X15389Y105231D02*
D03*
X16149Y103531D02*
D03*
X16259Y105231D02*
D03*
X16000Y116601D02*
D03*
X16037Y122845D02*
D03*
X16679Y103681D02*
D03*
X16765Y105241D02*
D03*
X16890Y116531D02*
D03*
X16880Y117261D02*
D03*
X18327Y110099D02*
D03*
X18310Y116341D02*
D03*
X18537Y123785D02*
D03*
X19427Y123795D02*
D03*
X29922Y141375D02*
D03*
X29848Y149179D02*
D03*
X30407Y149222D02*
D03*
X48164Y146095D02*
D03*
X48165Y153970D02*
D03*
X50269Y130845D02*
D03*
X50314Y146895D02*
D03*
X50315Y154770D02*
D03*
X69015Y154120D02*
D03*
X70589Y132387D02*
D03*
X80219Y130074D02*
D03*
Y131004D02*
D03*
Y138874D02*
D03*
Y137944D02*
D03*
X80214Y146111D02*
D03*
Y146747D02*
D03*
X79919Y154947D02*
D03*
X80215Y154943D02*
D03*
Y153986D02*
D03*
X81114Y146953D02*
D03*
X81115Y154828D02*
D03*
X81614Y146953D02*
D03*
X81615Y154828D02*
D03*
X83119Y139773D02*
D03*
X83114Y147645D02*
D03*
X15577Y109899D02*
D03*
X15597Y122385D02*
D03*
X30930Y133511D02*
D03*
X47819Y130553D02*
D03*
X47769Y138723D02*
D03*
X47819Y138423D02*
D03*
X47764Y146595D02*
D03*
X47814Y146295D02*
D03*
X47765Y154470D02*
D03*
X79619Y131326D02*
D03*
X83669Y131053D02*
D03*
X81369Y131433D02*
D03*
Y131211D02*
D03*
Y139081D02*
D03*
Y139303D02*
D03*
X81364Y147176D02*
D03*
X83665Y154670D02*
D03*
X81365Y155050D02*
D03*
X30930Y141375D02*
D03*
X30916Y149164D02*
D03*
X47769Y130853D02*
D03*
X47815Y154170D02*
D03*
X83669Y138923D02*
D03*
X81364Y146953D02*
D03*
X83664Y146795D02*
D03*
X81365Y154828D02*
D03*
X-7049Y78730D02*
D03*
X-6549D02*
D03*
X-7049Y78230D02*
D03*
X-6549D02*
D03*
X-6049Y59730D02*
D03*
X-4549D02*
D03*
X-4049Y60230D02*
D03*
X-4549Y60730D02*
D03*
X-3049Y61730D02*
D03*
X-7049D02*
D03*
X-3549D02*
D03*
X-4049D02*
D03*
X-6049D02*
D03*
X-4549D02*
D03*
X-5549D02*
D03*
X-4049Y107758D02*
D03*
X-6049Y107258D02*
D03*
X-4549D02*
D03*
X-4049Y106758D02*
D03*
X-5549D02*
D03*
X-6049Y106258D02*
D03*
X-4549D02*
D03*
X-3049Y105258D02*
D03*
X-7049D02*
D03*
X-3549D02*
D03*
X-6549D02*
D03*
X-4049D02*
D03*
X-6049D02*
D03*
X-5549D02*
D03*
X-7049Y97758D02*
D03*
X-6549D02*
D03*
X-6049D02*
D03*
X-5549D02*
D03*
X65379Y87366D02*
D03*
Y86444D02*
D03*
Y87634D02*
D03*
X66069Y87814D02*
D03*
Y87584D02*
D03*
X65379Y87064D02*
D03*
X65369Y86754D02*
D03*
X66299Y87824D02*
D03*
Y87584D02*
D03*
X66535Y87806D02*
D03*
X66519Y87584D02*
D03*
X65079Y87694D02*
D03*
X64775Y87690D02*
D03*
X18919Y83974D02*
D03*
X68825Y87417D02*
D03*
X24971Y88086D02*
D03*
X24530Y88364D02*
D03*
X24234Y88086D02*
D03*
Y89168D02*
D03*
X24883D02*
D03*
X18529Y82944D02*
D03*
X18934Y83584D02*
D03*
X18479Y83774D02*
D03*
X33667Y84914D02*
D03*
X33647Y84644D02*
D03*
X36119Y84482D02*
D03*
X36149Y84869D02*
D03*
X36119Y85182D02*
D03*
X35769Y85382D02*
D03*
X44599Y84694D02*
D03*
X47070Y84532D02*
D03*
Y85232D02*
D03*
X46720Y85432D02*
D03*
X58577Y85579D02*
D03*
X58129Y85864D02*
D03*
X58382Y85114D02*
D03*
X56409Y86234D02*
D03*
X56391Y84574D02*
D03*
X55543Y84510D02*
D03*
X68275Y88267D02*
D03*
X58939Y85584D02*
D03*
X58549Y84344D02*
D03*
X56009Y86274D02*
D03*
X65379Y76016D02*
D03*
Y75094D02*
D03*
Y76284D02*
D03*
X66069Y76464D02*
D03*
Y76234D02*
D03*
X65379Y75714D02*
D03*
X65369Y75404D02*
D03*
X66299Y76474D02*
D03*
Y76234D02*
D03*
X66535Y76456D02*
D03*
X66519Y76234D02*
D03*
X65079Y76344D02*
D03*
X64775Y76340D02*
D03*
X18919Y72624D02*
D03*
X68825Y76067D02*
D03*
X24971Y76736D02*
D03*
X24530Y77014D02*
D03*
X24234Y76736D02*
D03*
Y77818D02*
D03*
X24883D02*
D03*
X18529Y71594D02*
D03*
X18934Y72234D02*
D03*
X18479Y72424D02*
D03*
X33667Y73564D02*
D03*
X33647Y73294D02*
D03*
X36119Y73132D02*
D03*
X36149Y73519D02*
D03*
X36119Y73832D02*
D03*
X35769Y74032D02*
D03*
X47070Y73182D02*
D03*
X47099Y73564D02*
D03*
X47070Y73882D02*
D03*
X46720Y74082D02*
D03*
X58577Y74229D02*
D03*
X58129Y74514D02*
D03*
X58382Y73764D02*
D03*
X56409Y74884D02*
D03*
X56391Y73224D02*
D03*
X55543Y73160D02*
D03*
X68275Y76917D02*
D03*
X58939Y74234D02*
D03*
X58549Y72994D02*
D03*
X56009Y74924D02*
D03*
X65409Y64620D02*
D03*
Y63699D02*
D03*
Y64889D02*
D03*
X66099Y65069D02*
D03*
Y64839D02*
D03*
X65409Y64319D02*
D03*
X65399Y64009D02*
D03*
X66329Y65079D02*
D03*
Y64839D02*
D03*
X66564Y65059D02*
D03*
X66549Y64839D02*
D03*
X65109Y64949D02*
D03*
X64805Y64945D02*
D03*
X18949Y61228D02*
D03*
X68855Y64672D02*
D03*
X25001Y65341D02*
D03*
X24560Y65618D02*
D03*
X24264Y65341D02*
D03*
Y66422D02*
D03*
X24913D02*
D03*
X18559Y60198D02*
D03*
X18964Y60838D02*
D03*
X18509Y61028D02*
D03*
X33697Y62169D02*
D03*
X33677Y61899D02*
D03*
X36149Y61737D02*
D03*
X36179Y62124D02*
D03*
X36149Y62437D02*
D03*
X35799Y62637D02*
D03*
X44629Y61948D02*
D03*
X47129Y62168D02*
D03*
X47100Y62486D02*
D03*
X46750Y62686D02*
D03*
X58607Y62834D02*
D03*
X58159Y63118D02*
D03*
X58412Y62368D02*
D03*
X56439Y63488D02*
D03*
X56421Y61828D02*
D03*
X55573Y61765D02*
D03*
X68305Y65522D02*
D03*
X58969Y62838D02*
D03*
X58579Y61598D02*
D03*
X56039Y63528D02*
D03*
X65409Y53289D02*
D03*
Y52367D02*
D03*
Y53557D02*
D03*
X66099Y53737D02*
D03*
Y53507D02*
D03*
X65409Y52987D02*
D03*
X65399Y52677D02*
D03*
X66329Y53747D02*
D03*
Y53507D02*
D03*
X66567Y53726D02*
D03*
X66549Y53507D02*
D03*
X65109Y53617D02*
D03*
X64805Y53614D02*
D03*
X18949Y49897D02*
D03*
X68855Y53341D02*
D03*
X25001Y54009D02*
D03*
X24560Y54287D02*
D03*
X24264Y54009D02*
D03*
Y55091D02*
D03*
X24913D02*
D03*
X18559Y48867D02*
D03*
X18964Y49507D02*
D03*
X18509Y49697D02*
D03*
X33697Y50837D02*
D03*
X33677Y50567D02*
D03*
X36149Y50406D02*
D03*
X36179Y50792D02*
D03*
X36149Y51105D02*
D03*
X35799Y51305D02*
D03*
X44629Y50617D02*
D03*
X47100Y51155D02*
D03*
X46750Y51355D02*
D03*
X58607Y51502D02*
D03*
X58159Y51787D02*
D03*
X58412Y51037D02*
D03*
X56439Y52157D02*
D03*
X56421Y50497D02*
D03*
X55573Y50433D02*
D03*
X68305Y54191D02*
D03*
X58969Y51507D02*
D03*
X58579Y50267D02*
D03*
X56039Y52197D02*
D03*
X65399Y41906D02*
D03*
Y40984D02*
D03*
Y42174D02*
D03*
X66089Y42354D02*
D03*
Y42124D02*
D03*
X65399Y41604D02*
D03*
X65389Y41294D02*
D03*
X66319Y42364D02*
D03*
Y42124D02*
D03*
X66556Y42342D02*
D03*
X66539Y42124D02*
D03*
X65099Y42234D02*
D03*
X64795Y42230D02*
D03*
X18939Y38514D02*
D03*
X68845Y41957D02*
D03*
X24991Y42626D02*
D03*
X24550Y42904D02*
D03*
X24254Y42626D02*
D03*
Y43708D02*
D03*
X24903D02*
D03*
X18549Y37484D02*
D03*
X18954Y38124D02*
D03*
X18499Y38314D02*
D03*
X33687Y39454D02*
D03*
X33667Y39184D02*
D03*
X36169Y39409D02*
D03*
X36139Y39722D02*
D03*
X35789Y39922D02*
D03*
X47119Y39454D02*
D03*
X47090Y39772D02*
D03*
X46740Y39972D02*
D03*
X58597Y40119D02*
D03*
X58149Y40404D02*
D03*
X58402Y39654D02*
D03*
X56429Y40774D02*
D03*
X56411Y39114D02*
D03*
X55563Y39050D02*
D03*
X68295Y42807D02*
D03*
X58959Y40124D02*
D03*
X58569Y38884D02*
D03*
X56029Y40814D02*
D03*
X65360Y18627D02*
D03*
X65370Y18937D02*
D03*
Y19506D02*
D03*
Y18317D02*
D03*
Y19238D02*
D03*
X65399Y30541D02*
D03*
Y29619D02*
D03*
Y30809D02*
D03*
X66089Y30989D02*
D03*
Y30759D02*
D03*
X65399Y30239D02*
D03*
X65389Y29929D02*
D03*
X66319Y30999D02*
D03*
Y30759D02*
D03*
X66555Y30981D02*
D03*
X66539Y30759D02*
D03*
X65099Y30869D02*
D03*
X64795Y30865D02*
D03*
X18939Y27148D02*
D03*
X68845Y30592D02*
D03*
X24991Y31261D02*
D03*
X24550Y31538D02*
D03*
X24254Y31261D02*
D03*
Y32343D02*
D03*
X24903D02*
D03*
X18549Y26118D02*
D03*
X18954Y26758D02*
D03*
X18499Y26948D02*
D03*
X33687Y28089D02*
D03*
X33667Y27819D02*
D03*
X36169Y28044D02*
D03*
X36139Y28357D02*
D03*
X35789Y28557D02*
D03*
X47119Y28088D02*
D03*
X47090Y28407D02*
D03*
X46740Y28607D02*
D03*
X58597Y28754D02*
D03*
X58149Y29038D02*
D03*
X58402Y28288D02*
D03*
X56429Y29408D02*
D03*
X56411Y27748D02*
D03*
X55563Y27685D02*
D03*
X68295Y31442D02*
D03*
X58959Y28758D02*
D03*
X58569Y27518D02*
D03*
X56029Y29448D02*
D03*
X66079Y19644D02*
D03*
Y19414D02*
D03*
X66309Y19654D02*
D03*
Y19414D02*
D03*
X66545Y19636D02*
D03*
X66529Y19414D02*
D03*
X65089Y19524D02*
D03*
X64785Y19520D02*
D03*
X18929Y15804D02*
D03*
X68835Y19247D02*
D03*
X18539Y17114D02*
D03*
X24981Y19916D02*
D03*
X24540Y20194D02*
D03*
X24244Y19916D02*
D03*
Y20998D02*
D03*
X24893D02*
D03*
X18539Y14774D02*
D03*
X18944Y15414D02*
D03*
X18489Y15604D02*
D03*
X33677Y16744D02*
D03*
X33657Y16474D02*
D03*
X36159Y16699D02*
D03*
X36129Y17012D02*
D03*
X35779Y17212D02*
D03*
X44609Y16524D02*
D03*
X47109Y16744D02*
D03*
X47080Y17062D02*
D03*
X46730Y17262D02*
D03*
X58587Y17409D02*
D03*
X58139Y17694D02*
D03*
X58392Y16944D02*
D03*
X56419Y18064D02*
D03*
X56401Y16404D02*
D03*
X55553Y16340D02*
D03*
X68285Y20097D02*
D03*
X58949Y17414D02*
D03*
X58559Y16174D02*
D03*
X56019Y18104D02*
D03*
X66470Y8000D02*
D03*
X66250D02*
D03*
X66020D02*
D03*
X65330Y6860D02*
D03*
X65320Y7170D02*
D03*
X65330Y7480D02*
D03*
Y7782D02*
D03*
Y8050D02*
D03*
X68227Y8684D02*
D03*
X64727Y8107D02*
D03*
X65031Y8110D02*
D03*
X68777Y7834D02*
D03*
X24185Y9584D02*
D03*
X24835D02*
D03*
X24481Y8780D02*
D03*
X24923Y8502D02*
D03*
X24185D02*
D03*
X18480Y5700D02*
D03*
X18870Y4390D02*
D03*
X18886Y4000D02*
D03*
X18430Y4190D02*
D03*
X18480Y3360D02*
D03*
X36100Y5285D02*
D03*
X35720Y5799D02*
D03*
X36070Y5599D02*
D03*
X33599Y5061D02*
D03*
X33619Y5331D02*
D03*
X44550Y5110D02*
D03*
X47050Y5330D02*
D03*
X47021Y5648D02*
D03*
X46671Y5848D02*
D03*
X56343Y4990D02*
D03*
X55495Y4927D02*
D03*
X55960Y6690D02*
D03*
X56360Y6650D02*
D03*
X58080Y6280D02*
D03*
X58528Y5995D02*
D03*
X58890Y6000D02*
D03*
X58333Y5530D02*
D03*
X58500Y4760D02*
D03*
D276*
X39156Y71974D02*
D03*
X40583Y97420D02*
D03*
X78040Y52500D02*
D03*
X77000Y52005D02*
D03*
Y52500D02*
D03*
X77594Y52500D02*
D03*
X119500Y51996D02*
D03*
Y51371D02*
D03*
Y50811D02*
D03*
X119507Y50210D02*
D03*
Y49651D02*
D03*
X98920Y152272D02*
D03*
X98490D02*
D03*
X98071Y152260D02*
D03*
X98960Y136828D02*
D03*
X98530D02*
D03*
X98110Y136816D02*
D03*
X84942Y83612D02*
D03*
X84512D02*
D03*
X84092Y83600D02*
D03*
X84342Y60782D02*
D03*
X84762Y60794D02*
D03*
X85192D02*
D03*
X85710Y38289D02*
D03*
X85280D02*
D03*
X84860Y38278D02*
D03*
X83572Y16195D02*
D03*
X84022D02*
D03*
X84500Y16195D02*
D03*
X1572Y85500D02*
D03*
X69712Y154507D02*
D03*
X113521Y104723D02*
D03*
X-358Y85500D02*
D03*
X612D02*
D03*
X39159Y3728D02*
D03*
X39217Y15134D02*
D03*
X39170Y26484D02*
D03*
X39227Y37844D02*
D03*
X39175Y49240D02*
D03*
X39179Y60583D02*
D03*
X39146Y83309D02*
D03*
X100598Y93970D02*
D03*
X100190D02*
D03*
X92910Y4830D02*
D03*
X93400D02*
D03*
X98906Y106238D02*
D03*
X99342Y106246D02*
D03*
X100788Y121290D02*
D03*
X100798Y120850D02*
D03*
X97270Y126170D02*
D03*
X97680Y126157D02*
D03*
X104329Y139535D02*
D03*
X104823D02*
D03*
X118380Y155860D02*
D03*
X118740Y21590D02*
D03*
X115150Y21602D02*
D03*
X109462Y16279D02*
D03*
X101012Y151705D02*
D03*
Y153145D02*
D03*
X87694Y12446D02*
D03*
X87200Y12280D02*
D03*
X90000Y12107D02*
D03*
Y12611D02*
D03*
X90700Y9960D02*
D03*
X90250D02*
D03*
X88900Y8800D02*
D03*
X89283Y9100D02*
D03*
X89390Y22918D02*
D03*
X89400Y21647D02*
D03*
Y22250D02*
D03*
X109711Y4280D02*
D03*
X113854Y104336D02*
D03*
X114421Y104316D02*
D03*
X110921Y155693D02*
D03*
X110443Y155682D02*
D03*
X109951Y155671D02*
D03*
X102824Y143964D02*
D03*
Y144402D02*
D03*
Y144839D02*
D03*
X115749Y127869D02*
D03*
X115437Y128243D02*
D03*
X116337Y127849D02*
D03*
X109571Y120588D02*
D03*
X110471Y120577D02*
D03*
X110040Y120576D02*
D03*
X109359Y4665D02*
D03*
X110259Y4198D02*
D03*
X1000Y92000D02*
D03*
X-486D02*
D03*
X0D02*
D03*
X500D02*
D03*
X-1318Y85500D02*
D03*
X94746Y15325D02*
D03*
X94246Y13455D02*
D03*
X94736Y25340D02*
D03*
X94236Y23470D02*
D03*
X94753Y35321D02*
D03*
X94253Y33451D02*
D03*
X94746Y45317D02*
D03*
X94246Y43447D02*
D03*
X94756Y55360D02*
D03*
X94256Y53490D02*
D03*
X94750Y65330D02*
D03*
X94250Y63459D02*
D03*
X94746Y75330D02*
D03*
X94246Y73460D02*
D03*
Y83460D02*
D03*
X94746Y85330D02*
D03*
X27939Y137773D02*
D03*
X27934Y145645D02*
D03*
X27935Y153520D02*
D03*
X44224Y145785D02*
D03*
X44225Y153660D02*
D03*
X59214Y145745D02*
D03*
X59215Y153620D02*
D03*
X69693Y146658D02*
D03*
X81842Y129603D02*
D03*
Y137473D02*
D03*
X82319Y129603D02*
D03*
Y137473D02*
D03*
X27939Y129903D02*
D03*
X44229Y130043D02*
D03*
Y137913D02*
D03*
X59219Y130003D02*
D03*
Y137873D02*
D03*
X69715Y130907D02*
D03*
X69749Y138786D02*
D03*
X81838Y145345D02*
D03*
X81838Y153220D02*
D03*
X82314Y145345D02*
D03*
X82315Y153220D02*
D03*
X23544Y145855D02*
D03*
X23545Y153730D02*
D03*
X34959Y129563D02*
D03*
X55669Y137773D02*
D03*
X55664Y145645D02*
D03*
X55665Y153520D02*
D03*
X81380Y129603D02*
D03*
Y137473D02*
D03*
X23549Y130113D02*
D03*
Y137983D02*
D03*
X34959Y137433D02*
D03*
X34954Y145305D02*
D03*
X34955Y153180D02*
D03*
X55669Y129903D02*
D03*
X81376Y145345D02*
D03*
X81376Y153220D02*
D03*
X29566Y38091D02*
D03*
X29579Y72153D02*
D03*
X29525Y60877D02*
D03*
X29592Y83586D02*
D03*
X-3049Y78730D02*
D03*
X-3549D02*
D03*
X-4049D02*
D03*
X-4549D02*
D03*
X-5549D02*
D03*
X-3049Y61230D02*
D03*
X-4049D02*
D03*
X-3049Y105758D02*
D03*
X-4049D02*
D03*
X29636Y49533D02*
D03*
X29621Y26823D02*
D03*
X29549Y15444D02*
D03*
Y4056D02*
D03*
X66537Y85967D02*
D03*
X50039Y83264D02*
D03*
X66999Y85967D02*
D03*
X67475D02*
D03*
X66537Y74617D02*
D03*
X50039Y71914D02*
D03*
X66999Y74617D02*
D03*
X67475D02*
D03*
X66567Y63222D02*
D03*
X50069Y60518D02*
D03*
X67029Y63222D02*
D03*
X67505D02*
D03*
X66567Y51891D02*
D03*
X50069Y49187D02*
D03*
X67029Y51891D02*
D03*
X67505D02*
D03*
X66557Y40507D02*
D03*
X50059Y37804D02*
D03*
X67019Y40507D02*
D03*
X67495D02*
D03*
X66557Y29142D02*
D03*
X50059Y26438D02*
D03*
X67019Y29142D02*
D03*
X67495D02*
D03*
X66547Y17797D02*
D03*
X50049Y15094D02*
D03*
X67009Y17797D02*
D03*
X67485D02*
D03*
X67427Y6384D02*
D03*
X66950D02*
D03*
X66488D02*
D03*
X49990Y3680D02*
D03*
D277*
X119388Y14164D02*
D03*
X119068Y156838D02*
D03*
M02*
