M48
;Layer_Color=9474304
;FILE_FORMAT=2:4
INCH,LZ
;TYPE=PLATED
T1F00S00C0.0080
;TYPE=NON_PLATED
%
T01
X065722Y010396
X066002
X066282
X066562
X066842
X067122
X067402
X067682
X067962
X068242
X068522
X068802
X069082
X069362
X06964Y010424
X069906Y010513
X070144Y010661
X070348Y010852
X070546Y01105
X070744Y011248
X070942Y011446
X07114Y011644
X071338Y011842
X071536Y01204
X071734Y012238
X071932Y012436
X07213Y012634
X072328Y012832
X072526Y01303
X072724Y013228
X072922Y013426
X073121Y013623
X073287Y013848
X073392Y014108
X072914Y014105
X072744Y013883
X072546Y013685
X072348Y013487
X07215Y013289
X071952Y013091
X071754Y012893
X071556Y012695
X071358Y012497
X07116Y012299
X070962Y012101
X070764Y011903
X070566Y011705
X070368Y011507
X07017Y011309
X069972Y011111
X06975Y01094
X069484Y010854
X069204Y010844
X068924
X068644
X068364
X068084
X067804
X067524
X067244
X066964
X066684
X066404
X066124
X065844
X065564
X065284
X065004
X064724
X064444
X064164
X063884
X063604
X063324
X063044
X062764
X062484
X062204
X061924
X061644
X061364
X061084
X060804
X060524
X060244
X059964
X059684
X059404
X059124
X058844
X058564
X058284
X058004
X057724
X057444
X057164
X056884
X056604
X056324
X056044
X055764
X055484
X055204
X054924
X054644
X054364
X054084
X053804
X053524
X053244
X052964
X052684
X052404
X052124
X051844
X051564
X051284
X051004
X050724
X050444
X050164
X049884
X050042Y010396
X050322
X050602
X050882
X051162
X051442
X051722
X052002
X052282
X052562
X052842
X053122
X053402
X053682
X053962
X054242
X054522
X054802
X055082
X055362
X055642
X055922
X056202
X056482
X056762
X057042
X057322
X057602
X057882
X058162
X058442
X058722
X059002
X059282
X059562
X059842
X060122
X060402
X060682
X060962
X061242
X061522
X061802
X062082
X062362
X062642
X062922
X063202
X063482
X063762
X064042
X064322
X064602
X064882
X065162
X065442
X049762
X049482
X049202
X048922
X048642
X048362
X048082
X047802
X047522
X047242
X046962
X046682
X046402
X046122
X045842
X045562
X045282
X045002
X044722
X044442
X044162
X043882
X043602
X043322
X043042
X042762
X042482
X042202
X041922
X041642
X041362
X041082
X040802
X040522
X040242
X039962
X039682
X039402
X039122
X038842Y010391
X03857Y010322
X03834Y010162
X038142Y009964
X037944Y009766
X037746Y009568
X037548Y00937
X037351Y009172
X037153Y008974
X036955Y008776
X036757Y008578
X036559Y00838
X036356Y008188
X036122Y008034
X035857Y007942
X035579Y007906
X035299Y007908
X035019
X034739
X034459
X034582Y008357
X034862
X035142
X035422
X035701Y008368
X035965Y008463
X036183Y008639
X036381Y008837
X036579Y009035
X036777Y009233
X036975Y009431
X037173Y009629
X037371Y009827
X037569Y010025
X037767Y010223
X037965Y010421
X038172Y010609
X038417Y010745
X038684Y010827
X038964Y010844
X039244
X039524
X039804
X040084
X040364
X040644
X040924
X041204
X041484
X041764
X042044
X042324
X042604
X042884
X043164
X043444
X043724
X044004
X044284
X044564
X044844
X045124
X045404
X045684
X045964
X046244
X046524
X046804
X047084
X047364
X047644
X047924
X048204
X048484
X048764
X049044
X049324
X049604
X034302Y008357
X034022
X033742
X033462
X033182
X032902
X032622
X032342
X032062
X031782
X031502
X031222
X030943Y008324
X030692Y008202
X030509Y00799
X030466Y007713
Y007433
Y007153
Y006873
Y006593
Y006313
Y006033
Y005753
X030392Y005521
X030946Y005567
X030942Y005856
X030923Y006122
X030928Y006418
X030923Y006703
Y00698
X030927Y00729
X030928Y007564
X0311Y007899
X031379Y007908
X031659
X031939
X032219
X032499
X032779
X033059
X033339
X033619
X033899
X034179
X030908Y005285
X030714Y005067
X028718Y005528
X028359Y00556
X028086Y005496
X027852Y005535
X02758Y00549
X027367Y005308
X027332Y005074
X028378Y004926
X028549Y016382
X028539Y016876
X028083Y016891
X027653Y016799
X027453Y016603
X030445Y01687
X030501Y01712
Y0174
Y01768
Y01796
Y01824
Y01852
Y0188
X03051Y01908
X030592Y019347
X030753Y019576
X030993Y01972
X031272Y019746
X031552
X031832
X032112
X032392
X032672
X032952
X033232
X033512
X033792
X034072
X034088Y019297
X033808
X033528
X033248
X032968
X032688
X032408
X032128
X031848
X031568
X031288
X031026Y019198
X030949Y018929
Y018649
Y018369
Y018089
Y017809
Y017529
Y017249
Y016969
X030927Y01669
X030737Y016484
X030627Y027782
X030853Y027946
X030921Y028218
Y028498
Y028778
Y029058
Y029338
Y029618
X03046Y029597
X030472Y029336
Y029056
Y028776
Y028496
X028723Y028234
X028445Y028266
X028052
X027597Y02817
X027441Y027938
X028442Y027738
X034352Y019746
X034632
X034911Y019772
X035166Y019887
X035373Y020076
X035571Y020274
X035769Y020472
X035985Y02065
X036235Y020776
X036507Y020842
X036787Y020851
X037067
X037347
X037627
X037907
X038187
X038467
X038747
X039027
X039307
X039587
X039867
X040147
X040427
X040707
X040987
X041267
X041547
X041827
X042107
X042387
X042667
X042947
X043227
X043507
X043787
X044067
X044347
X044627
X044907
X045187
X045467
X045747
X046027
X046307
X046587
X046867
X047147
X047427
X047707
X047987
X048267
X048547
X048827
X049107
X049387
X049667
X049683Y020403
X049403
X049123
X048843
X048563
X048283
X048003
X047723
X047443
X047163
X046883
X046603
X046323
X046043
X045763
X045483
X045203
X044923
X044643
X044363
X044083
X043803
X043523
X043243
X042963
X042683
X042403
X042123
X041843
X041563
X041283
X041003
X040723
X040443
X040163
X039883
X039603
X039323
X039043
X038763
X038483
X038203
X037923
X037643
X037363
X037083
X036803
X036523Y02039
X036261Y020292
X036045Y020113
X035847Y019915
X035649Y019718
X03544Y01953
X035196Y019394
X034928Y019313
X034648Y019297
X034368
X049963Y020403
X050243
X050523
X050803
X051083
X051363
X051643
X051923
X052203
X052483
X052763
X053043
X053323
X053603
X053883
X054163
X054443
X054723
X055003
X055283
X055563
X055843
X056123
X056403
X056683
X056963
X057243
X057523
X057803
X058083
X058363
X058643
X058923
X059203
X059483
X059763
X060043
X060322Y020422
X060589Y020505
X060833Y020643
X061039Y020833
X061237Y021031
X061435Y021229
X061633Y021427
X061831Y021625
X062033Y021819
X062238Y022009
X062457Y022184
X062679Y022355
X062912Y02251
X06315Y022657
X063394Y022794
X063647Y022916
X063902Y023031
X064164Y023128
X06443Y023217
X064699Y023293
X064972Y023355
X065247Y02341
X065232Y023862
X064957Y023811
X064682Y023756
X064412Y023681
X064144Y023601
X063881Y023504
X063621Y0234
X063367Y023283
X063118Y023155
X062873Y023018
X062637Y022869
X062404Y022713
X062182Y022542
X061963Y022368
X061758Y022178
X061556Y021984
X061358Y021786
X06116Y021588
X060962Y02139
X060764Y021192
X060558Y021002
X060305Y020882
X060027Y020851
X059747
X059467
X059187
X058907
X058627
X058347
X058067
X057787
X057507
X057227
X056947
X056667
X056387
X056107
X055827
X055547
X055267
X054987
X054707
X054427
X054147
X053867
X053587
X053307
X053027
X052747
X052467
X052187
X051907
X051627
X051347
X051067
X050787
X050507
X050227
X049947
X065525Y023443
X065804Y02347
X066083Y023481
X066363Y023484
X066643
X066923
X067203
X067483
X067763
X068043
X068323
X068603
X068883Y023477
X069163Y023459
X069441Y023426
X069716Y023376
X06999Y023315
X070259Y023239
X070523Y023146
X070783Y023042
X071038Y022925
X071284Y022792
X071524Y022648
X071757Y022493
X071979Y022322
X072193Y022142
X072399Y021952
X072591Y021748
X072777Y021539
X072923Y0213
X072974Y021024
Y020745
Y020464
X072937Y020203
X072951Y019939
X072889Y019683
X072775Y019396
X072691Y019129
X07264Y018692
X072687Y018416
X072478Y018011
X072477Y017814
X072489Y017612
X072492Y017406
X072477Y0172
X072484Y016993
X072683Y016569
X072643Y016291
X072691Y015996
X072771Y015728
X072851Y015501
X072928Y015278
X072957Y014998
X072961Y014677
X072974Y014379
X073422Y014386
X07345Y014685
X073459Y015021
X07345Y015321
X073412Y015565
X073291Y015762
X073224Y016034
X073352Y016545
X073551Y016542
X073752Y016526
X073945Y016553
X074467Y017002
X074464Y017187
X074742Y017134
X075012Y01715
X075288Y017194
X075355Y017643
X075078Y017682
X074792Y017689
X074498Y017661
X074427Y017832
X074476Y018042
X073941Y018514
X073741Y01851
X073542Y018506
X073347Y018505
X073224Y01911
X073308Y019377
X073454Y019656
X073479Y019956
X073451Y020231
X073447Y020507
X073422Y020757
X073424Y021037
X073387Y021315
X073292Y021579
X073137Y021811
X072952Y022022
X072762Y022227
X072558Y022419
X072348Y022604
X072128Y022778
X071899Y022939
X071666Y023094
X071421Y023231
X071173Y023359
X070918Y023476
X070657Y023577
X070393Y023669
X070123Y023745
X069851Y023809
X069576Y023863
X069298Y023897
X069019Y023922
X068739Y023933
X068459Y023933
X068179
X067899
X067619
X067339
X067059
X066779
X066499
X066219
X065865Y023941
X06551Y023895
X07776Y023841
Y024121
X077747Y024415
X077737Y024725
Y025028
X077754Y025281
X07776Y025521
Y025801
Y026081
Y026361
Y026641
Y026921
Y027201
X077725Y027478
X077598Y027728
X078115Y027724
X078194Y027455
X078209Y027175
Y026895
Y026615
Y026335
Y026055
Y025775
Y025495
Y025215
X078219Y024924
X07826Y02468
X078255Y02441
X078209Y024095
Y023815
Y023535
Y023255
Y022975
Y022695
Y022415
Y022135
Y021855
Y021575
Y021295
Y021015
Y020735
Y020455
X078262Y020206
X07827Y019921
X078283Y019627
X078251Y019339
Y019015
X078209Y018739
X078207Y018459
X078213Y017981
X077786Y017832
X07763Y018011
X077472Y018166
X07709Y01804
X076706Y018118
X07685Y017797
X076454Y01768
Y017424
Y017168
X076059Y017052
Y017811
X07567Y017684
X07685Y017052
X077273Y017347
X077677Y017461
X07763Y018547
X077718Y018949
Y019364
X077715Y019676
X077731Y019954
X077734Y020248
X07775Y020516
X07776Y020761
Y021041
Y021321
Y021601
Y021881
Y022161
Y022441
Y022721
Y023001
Y023281
Y023561
X077982Y02797
X077793Y028177
X077556Y028326
X077282Y028386
X077002Y028388
X076838Y027855
X076905Y029799
X077183Y029833
X077463Y029839
X077726Y029934
X077931Y030125
X078091Y030355
X078191Y030616
X078234Y030893
X078236Y031173
Y031453
X078278Y031797
X078287Y03205
X078281Y03234
X078279Y032582
X078281Y032849
X078461Y033064
X078659Y033262
X078857Y03346
X079052Y03366
X079223Y033882
X079359Y034127
X079456Y03439
X07951Y034664
X079519Y034944
X079501Y035224
X079432Y035495
X079314Y035749
X079152Y035978
X078959Y03618
X078761Y036378
X078563Y036576
X078349Y036821
X078243Y037097
X078246Y037401
X078288Y037686
X07826Y038075
X078242Y038355
X078223Y038634
X07779Y037995
X07774Y03772
X077745Y037448
X07774Y037192
X07776Y036917
X07791Y036625
X078092Y036413
X07829Y036215
X078488Y036017
X078686Y035819
X078871Y035609
X079Y03536
X079062Y035087
X079068Y034807
X079025Y03453
X078929Y034267
X078778Y034032
X078588Y033826
X07839Y033628
X078192Y03343
X077997Y033229
X07785Y03299
X07779Y032717
X077744Y032442
X077748Y03217
X077737Y031906
X077787Y031597
Y031317
Y031037
X077764Y030758
X077655Y0305
X077458Y030301
X076626Y030266
X076477Y030029
X072461Y034334
X072648Y034542
X072819Y034764
X072971Y034999
X073105Y035245
X073212Y035504
X073298Y03577
X073362Y036043
X073406Y036319
X073421Y036599
X073457Y036891
Y037189
X073451Y037471
X073442Y03776
X073376Y037995
X073266Y038253
X072733Y038205
X072686Y038489
X072715Y038767
X07273Y039047
X072849Y03795
X072972Y037699
X072951Y037448
X072945Y037181
X072957Y036896
X072969Y036579
X072949Y0363
X072902Y036024
X072824Y035755
X072721Y035494
X072593Y035246
X072441Y03501
X072267Y034791
X072072Y03459
X07186Y034406
X071634Y034242
X071393Y034098
X07114Y033979
X070878Y033881
X070608Y033808
X070332Y033757
X070053Y033732
X069773Y033724
X069493
X069213
X068933
X068653
X068373
X068093
X067813
X067533
X067253
X066973
X066693
X066413
X066133
X065853
X065573
X065462Y033276
X065742
X066022
X066302
X066582
X066862
X067142
X067422
X067702
X067982
X068262
X068542
X068822
X069102
X069382
X069662
X069942Y033275
X070221Y033289
X070499Y033327
X070773Y033385
X071042Y033462
X071305Y033558
X071558Y033678
X071801Y033817
X072033Y033973
X072253Y034146
X072725Y040636
X07268Y040912
X072741Y041186
X072748Y041493
X072947Y041679
X072939Y041984
X072935Y042249
Y04254
X072972Y042793
X072961Y043073
X072906Y043347
X072793Y043603
X072632Y043832
X072446Y044042
X072249Y044241
X072035Y044421
X071805Y044581
X071562Y04472
X071307Y044836
X071043Y044928
X070771Y044996
X070494Y045037
X070215Y045053
X069935Y045055
X069655
X069375
X069095
X068815
X068535
X068255
X067975
X067695
X067415
X067135
X066855
X066575
X066295
X066015
X065735
X071377Y045289
X071636Y045183
X071887Y045057
X072126Y044912
X072352Y044747
X072564Y044563
X072761Y044365
X072947Y044156
X073118Y043934
X073254Y043689
X073352Y043427
X073408Y043152
X073421Y042873
Y042593
X073461Y042364
X073462Y042077
Y041825
X07337Y041477
X073299Y041105
X074805Y039914
X075124Y039912
X075402Y039875
X075326Y039426
X075603Y039384
X07505Y039379
X074762Y039374
X077226Y039785
X065455Y045055
X065175
X064895
X064615
X064335
X064055
X063775
X063495
X063215
X062935
X062655
X062375
X062095
X061815
X061535
X061255
X060975
X060695
X060415
X060135
X059855
X059575
X059295
X059015
X058735
X058455
X058175
X057895
X057615
X057335
X057055
X056775
X056495
X056215
X055935
X055655
X055375
X055095
X054815
X054535
X054255
X053975
X053695
X053415
X053135
X052855
X052575
X052295
X052015
X051735
X051455
X051175
X050895
X050615
X050335
X050055
X050173Y033724
X050453
X050733
X051013
X051293
X051573
X051853
X052133
X052413
X052693
X052973
X053253
X053533
X053813
X054093
X054373
X054653
X054933
X055213
X055493
X055773
X056053
X056333
X056613
X056893
X057173
X057453
X057733
X058013
X058293
X058573
X058853
X059133
X059413
X059693
X059973
X060253
X060533
X060813
X061093
X061373
X061653
X061933
X062213
X062493
X062773
X063053
X063333
X063613
X063893
X064173
X064453
X064733
X065013
X065293
X065182Y033276
X064902
X064622
X064342
X064062
X063782
X063502
X063222
X062942
X062662
X062382
X062102
X061822
X061542
X061262
X060982
X060702
X060422
X060142
X059862
X059582
X059302
X059022
X058742
X058462
X058182
X057902
X057622
X057342
X057062
X056782
X056502
X056222
X055942
X055662
X055382
X055102
X054822
X054542
X054262
X053982
X053702
X053422
X053142
X052862
X052582
X052302
X052022
X051742
X051462
X051182
X050902
X050622
X050342
X050062
X049893Y033724
X049613
X049333
X049053
X048773
X048493
X048213
X047933
X047653
X047373
X047093
X046813
X046533
X046253
X045973
X045693
X045413
X045133
X044853
X044573
X044293
X044013
X043733
X043453
X043173
X042893
X042613
X042333
X042053
X041773
X041493
X041213
X040933
X040653
X040373
X040093
X039813
X039533
X039253
X038973
X038693
X038413
X038133
X037853
X037573Y033716
X037305Y033637
X037074Y033478
X036877Y033279
X036679Y033081
X036481Y032883
X036283Y032685
X036085Y032487
X035887Y032289
X035689Y032091
X035491Y031894
X035293Y031696
X035095Y031498
X034897Y0313
X034688Y031113
X034416Y031047
X034306Y030598
X034585Y030608
X034853Y030691
X035084Y03085
X035281Y031049
X035479Y031247
X035677Y031445
X035875Y031642
X036073Y03184
X036271Y032038
X036469Y032236
X036667Y032434
X036865Y032632
X037063Y03283
X037261Y033028
X037468Y033216
X037742Y033276
X038022
X038302
X038582
X038862
X039142
X039422
X039702
X039982
X040262
X040542
X040822
X041102
X041382
X041662
X041942
X042222
X042502
X042782
X043062
X043342
X043622
X043902
X044182
X044462
X044742
X045022
X045302
X045582
X045862
X046142
X046422
X046702
X046982
X047262
X047542
X047822
X048102
X048382
X048662
X048942
X049222
X049502
X049782
X049775Y045055
X049495
X049215
X048935
X048655
X048375
X048095
X047815
X047535
X047255
X046975
X046695
X046415
X046135
X045855
X045575
X045295
X045015
X044735
X044455
X044175
X043895
X043615
X043335
X043055
X042775
X042495
X042215
X041935
X041655
X041375
X041095
X040815
X040535
X040255
X039975
X039695
X039415
X039135
X038855
X038575Y045053
X038295Y04504
X038017Y045001
X037743Y044944
X037474Y044867
X037211Y044772
X036958Y044652
X036714Y044514
X036481Y044359
X036259Y044188
X036051Y044
X035874Y043784
X035747Y043534
X035678Y043263
X035666Y042983
X035653Y042703
X035559Y04244
X035392Y042215
X035162Y042056
X034894Y041973
X034614Y041964
X034334
X034242Y042412
X034522
X034802Y042417
X03506Y042525
X035205Y042765
X035217Y043045
X035231Y043324
X03529Y043598
X035394Y043858
X03554Y044097
X035722Y04431
X03593Y044498
X036148Y044673
X036376Y044836
X036616Y04498
X036866Y045107
X037122Y045219
X037385Y045314
X033962Y042412
X033682
X033402
X033122
X032842
X032562
X032282
X032002
X031722
X031442
X031162Y042409
X03089Y042345
X030654Y042194
X030496Y041963
X030472Y041684
Y041404
Y041124
Y040844
Y040564
Y040284
Y040004
Y039724
X030921Y039651
Y039931
Y040211
Y040491
Y040771
Y041051
Y041331
Y041611
X030986Y041884
X031254Y041964
X031534
X031814
X032374
X032654
X032934
X033214
X033494
X033774
X034054
X030896Y039372
X030709Y039164
X029048Y039605
X028731Y039562
X028454Y039604
X028189Y039601
X027676Y039489
X027486Y039283
X028564Y039071
X030801Y030922
X031056Y031038
X031336Y031047
X031616
X031896
X032176
X032456
X032736
X033016
X033296
X033576
X033856
X034136
X034026Y030598
X033746
X033466
X033186
X032906
X032626
X032346
X032066
X031786
X031506
X031226
X030989Y03045
X030921Y030178
Y029898
X030472Y029896
Y030176
X030507Y030454
X030617Y030711
X030715Y050676
X030884Y050899
X030954Y05117
X030955Y05145
Y05173
Y05201
Y05229
Y05257
Y05285
Y05313
X031052Y053392
X031326Y053451
X031606
X031886
X032166
X032446
X032726
X033006
X033286
X033566
X033846
X034126
X034166Y0539
X033886
X033606
X033326
X033046
X032766
X032486
X032206
X031926
X031646
X031366
X031086Y053888
X030826Y053786
X030627Y053589
X030519Y053331
X030506Y053051
Y052771
Y052491
Y052211
Y051931
Y051651
Y051371
X028569Y050965
X028132Y050972
X027703Y050895
X027506Y050696
X028613Y05047
X034406Y053451
X034686Y053459
X034959Y053519
X035211Y053643
X035429Y053817
X035627Y054015
X035825Y054213
X036023Y054411
X036221Y054609
X036419Y054807
X036617Y055005
X036815Y055203
X037013Y055401
X037211Y055599
X037409Y055797
X037616Y055986
X037872Y0561
X038151Y056126
X038431
X038711
X038991
X039271
X039551
X039831
X040111
X040391
X040671
X040951
X041231
X041511
X041791
X042071
X042351
X042631
X042911
X043191
X043471
X043751
X044031
X044311
X044591
X044871
X045151
X045431
X045711
X045991
X046271
X046551
X046831
X047111
X047391
X047671
X047951
X048231
X048511
X048791
X049071
X049351
X049631
X04967Y056574
X04939
X04911
X04883
X04855
X04827
X04799
X04771
X04743
X04715
X04687
X04659
X04631
X04603
X04575
X04547
X04519
X04491
X04463
X04435
X04407
X04379
X04351
X04323
X04295
X04267
X04239
X04211
X04183
X04155
X04127
X04099
X04071
X04043
X04015
X03987
X03959
X03931
X03903
X03875
X03847
X03819
X03791Y056565
X037638Y056499
X037388Y056373
X037172Y056195
X036974Y055997
X036776Y055799
X036578Y055601
X03638Y055403
X036182Y055205
X035984Y055007
X035786Y054809
X035589Y054611
X035391Y054413
X035193Y054215
X034984Y054028
X034725Y05392
X034446Y0539
X037656Y045386
X03793Y045444
X038207Y045485
X038642Y045504
X038922
X039202
X039482
X039762
X040042
X040322
X040602
X040882
X041162
X041442
X041722
X042002
X042282
X042562
X042842
X043122
X043402
X043682
X043962
X044242
X044522
X044802
X045082
X045362
X045642
X045922
X046202
X046482
X046762
X047042
X047322
X047602
X047882
X048162
X048442
X048722
X049002
X049282
X049562
X049842
X050122
X050402
X050682
X050962
X051242
X051522
X051802
X052082
X052362
X052642
X052922
X053202
X053482
X053762
X054042
X054322
X054602
X054882
X055162
X055442
X055722
X056002
X056282
X056562
X056842
X057122
X057402
X057682
X057962
X058242
X058522
X058802
X059082
X059362
X059642
X059922
X060202
X060482
X060762
X061042
X061322
X061602
X061882
X062162
X062442
X062722
X063002
X063282
X063562
X063842
X064122
X064402
X064682
X064962
X065242
X065311Y056126
X065031
X064751
X064471
X064191
X063911
X063631
X063351
X063071
X062791
X062511
X062231
X061951
X061671
X061391
X061111
X060831
X060551
X060271
X059991
X059711
X059431
X059151
X058871
X058591
X058311
X058031
X057751
X057471
X057191
X056911
X056631
X056351
X056071
X055791
X055511
X055231
X054951
X054671
X054391
X054111
X053831
X053551
X053271
X052991
X052711
X052431
X052151
X051871
X051591
X051311
X051031
X050751
X050471
X050191
X049911
X04995Y056574
X05023
X05051
X05079
X05107
X05135
X05163
X05191
X05219
X05247
X05275
X05303
X05331
X05359
X05387
X05415
X05443
X05471
X05499
X05527
X05555
X05583
X05611
X05639
X05667
X05695
X05723
X05751
X05779
X05807
X05835
X05863
X05891
X05919
X05947
X05975
X06003
X06031
X06059
X06087
X06115
X06143
X06171
X06199
X06227
X06255
X06283
X06311
X06339
X06367
X06395
X06423
X06451
X06479
X06507
X06535
X06563
X06591
X06619
X06647
X06675
X06703
X06731
X06759
X06787
X06815
X06843
X06871
X06899
X06927
X06955
X06983
X07011
X07039
X070651Y056676
X070849Y056873
X071047Y057071
X071245Y057269
X071443Y057467
X071641Y057665
X071839Y057863
X072037Y058061
X072235Y058259
X072389Y058493
X072394Y058773
Y059053
Y059333
Y059613
Y059893
Y060173
X072394Y06053
X07237Y060812
X072854Y060819
X072846Y06052
X072855Y060255
X072843Y059975
Y059695
Y059415
Y059135
Y058855
Y058575
X072805Y058297
X072665Y058055
X072467Y057857
X072269Y057659
X072071Y057461
X071873Y057263
X071675Y057065
X071477Y056867
X071279Y056669
X071081Y056471
X070879Y056278
X07063Y056149
X070351Y056126
X070071
X069791
X069511
X069231
X068951
X068671
X068391
X068111
X067831
X067551
X067271
X066991
X066711
X066431
X066151
X065871
X065591
X065522Y045504
X065802
X066082
X066362
X066642
X066922
X067202
X067482
X067762
X068042
X068322
X068602
X068882
X069162
X069442
X069722
X070002
X070282Y045501
X070562Y045483
X070839Y045441
X071111Y045375
X072281Y061032
X072193Y06125
X072113Y061518
X072131Y061808
X072132Y062088
X072186Y062363
X072645Y061612
X072652Y061332
X072794Y06109
X074132Y06273
X074423Y062738
X074699Y062783
X074786Y063231
X074509Y063271
X07421Y063276
X0751Y063269
X076652Y062905
X077132Y06446
X077153Y064746
X077148Y065026
X077162Y065313
X077171Y065578
X077186Y065874
X077222Y066142
X07729Y066414
X077387Y066676
X077521Y066922
X077689Y067146
X077857Y06737
X077949Y067635
X077952Y067915
X077874Y068183
X077732Y068425
X077537Y068626
X077344Y068829
X077205Y069072
X077122Y069309
X077115Y06959
X077132Y06989
X077134Y070185
Y070465
Y070745
Y071025
Y071305
Y071585
Y071865
Y072145
Y072425
X077126Y072705
X076966Y072935
X077109Y073381
X077337Y073215
X077502Y072988
X077578Y072719
X077583Y072439
Y072159
Y071879
Y071599
Y071319
Y071039
Y070759
Y070479
Y070199
X077588Y06989
X077608Y06959
X07762Y069341
X077703Y069102
X077903Y068906
X078091Y068698
X078242Y068462
X078349Y068204
X078403Y067929
X078403Y067649
X07835Y067374
X078233Y06712
X078067Y066894
X077896Y066672
X077768Y066423
X077684Y066156
X077642Y065849
X077632Y065543
X077635Y065308
X077642Y065041
X07765Y064761
X077629Y064311
X077625Y064032
X072645Y064375
Y064694
X072722Y064964
X072826Y06521
X072831Y065462
Y065767
X072824Y066068
X072804Y066347
X072679Y066598
X07249Y066805
X07229Y067001
X072085Y067192
X071874Y067376
X071658Y067553
X071435Y067723
X071208Y067886
X070975Y068042
X070737Y06819
X070496Y068332
X070249Y068464
X069999Y06859
X069744Y068705
X069486Y068816
X069224Y068915
X068961Y069009
X068693Y06909
X068424Y069168
X068151Y069232
X067878Y069293
X067602Y069339
X067325Y069383
X067047Y06941
X066768Y069438
X066546Y069462
X066296Y069453
X066016Y069453
X065736Y069443
X065456Y069422
X065492Y068974
X065772Y068993
X066051Y069004
X066331Y069001
X066611Y068992
X066891Y068973
X067169Y068946
X067447Y068908
X067723Y068862
X067997Y068805
X06827Y068742
X068547Y068663
X068807Y068585
X069071Y068491
X069333Y068392
X06959Y06828
X069845Y068165
X070093Y068036
X07034Y067904
X070579Y067758
X070817Y06761
X071046Y067448
X071273Y067285
X07149Y067108
X071706Y06693
X071911Y066739
X072114Y066546
X072306Y066342
X072376Y066071
X07237Y06581
Y065528
X072321Y065246
X072212Y064988
X072113Y064727
Y064266
X072162Y063991
X076198Y072852
X076424Y073411
X076399Y074695
X076678Y074722
X076947Y074799
X077194Y07493
X077402Y075118
X077551Y075355
X077611Y075628
X077613Y075908
Y076188
Y076468
X077154Y076592
X077164Y076317
Y076037
Y075757
X077114Y075481
X076915Y075284
X076104Y07515
X075945Y07492
X065178Y069392
X064902Y069346
X064627Y069294
X064355Y069225
X064086Y069148
X06382Y06906
X063559Y06896
X0633Y068852
X063049Y068729
X0628Y0686
X06256Y068457
X062324Y068306
X062094Y068147
X061872Y067975
X061655Y067799
X061449Y067609
X061248Y067414
X06105Y067216
X060852Y067018
X060654Y06682
X060456Y066622
X060233Y066453
X059953Y066444
X059673
X059393
X059113
X058833
X058553
X058273
X057993
X057713
X057433
X057153
X056873
X056593
X056313
X056033
X055753
X055473
X055193
X054913
X054633
X054353
X054073
X053794Y066417
X053528Y06633
X053289Y066183
X053085Y065992
X052883Y065799
X052639Y06566
X052363Y065614
X052083
X051803
X051523
X051243Y065622
X050975Y065701
X050751Y06587
X050561Y066075
X050352Y066262
X050125Y066426
X049886Y066571
X049895Y066037
X050117Y065867
X050321Y065675
X050515Y065473
X050744Y065312
X051004Y065209
X051281Y065167
X051561Y065166
X051841
X052121
X052401Y065165
X052679Y065203
X052941Y065299
X053174Y065455
X053376Y065649
X053581Y065839
X053833Y065963
X054111Y065996
X054391
X054671
X054951
X055231
X055511
X055791
X056071
X056351
X056631
X056911
X057191
X057471
X057751
X058031
X058311
X058591
X058871
X059151
X059431
X059711
X059991
X060271Y066004
X060536Y066094
X060747Y066278
X060945Y066476
X061143Y066674
X061341Y066872
X061539Y06707
X06174Y067264
X061946Y067454
X062163Y067631
X062384Y067804
X062617Y067959
X062853Y06811
X063097Y068247
X063346Y068374
X063601Y068491
X063861Y068594
X064124Y068691
X064393Y068768
X064663Y06884
X064938Y068895
X065214Y068941
X049635Y066697
X049376Y066801
X049106Y066878
X048831Y06693
X048553Y06696
X048273Y066967
X047993
X047713
X047433
X047153
X046873
X046593Y066959
X046328Y066868
X046117Y066684
X045919Y066486
X045721Y066288
X045523Y06609
X045325Y065892
X045123Y065698
X044854Y065623
X044574
X044294
X044014
X043734
X043458Y065673
X04322Y06582
X043019Y066016
X042813Y066205
X042569Y066342
X042302Y066425
X042022Y066444
X041742
X041462
X041182
X040902
X040622
X040342
X040062
X039782
X039502
X039222
X038942
X038662
X038382
X038102
X037822
X037542Y066438
X037264Y066411
X036989Y066359
X036719Y066281
X03646Y066176
X036211Y066048
X035975Y065898
X035752Y065728
X035546Y065538
X035348Y06534
X035117Y065182
X034845Y065117
X034565Y065113
X034285
X034324Y064664
X034604
X034884Y064669
X03516Y064718
X035416Y064832
X03564Y064999
X035839Y065196
X036045Y065386
X036268Y065554
X036509Y065698
X036764Y065814
X03703Y065902
X037303Y065961
X037582Y065989
X037862Y065996
X038142
X038422
X038702
X038982
X039262
X039542
X039822
X040102
X040382
X040662
X040942
X041222
X041502
X041782
X042062
X042338Y06595
X042581Y065811
X042783Y065617
X042988Y065426
X043228Y065282
X043495Y065197
X043774Y065175
X044054
X044334
X044614
X044894
X045171Y065218
X045415Y065355
X045616Y065549
X045814Y065747
X046012Y065945
X04621Y066143
X046408Y066341
X046632Y06651
X046912Y066519
X047192
X047472
X047752
X048032
X048312
X048591Y066506
X048869Y066467
X04914Y0664
X049404Y066305
X049656Y066184
X035206Y076361
X034983Y076191
X03473Y076071
X034456Y076016
X034301Y076458
X034579Y076498
X035403Y07656
X034021Y076458
X033741
X033461
X033181
X032901
X032621
X032341
X032061
X031781
X031501Y07646
X031225Y076416
X030967Y076306
X030748Y076132
X030592Y075899
X030524Y075628
X030519Y075348
Y075068
Y074788
Y074508
Y074228
Y073948
X030971Y073946
X030968Y073675
X030852Y073412
X030622Y073252
X030968Y074229
X030971Y074488
X030968Y074734
X030973Y075036
X030987Y075315
X031022Y075596
X031142Y075832
X031376Y075992
X031656Y07601
X031936
X032496
X032776
X033056
X033336
X033616
X033896
X034176
X028726Y073681
X028447Y073699
X028053
X027668Y073621
X027456Y073438
X028453Y073171
X03075Y064774
X030603Y064536
X030521Y064268
X030507Y063989
X030491Y063714
X030507Y063429
Y063149
Y062869
Y062589
X030952Y062476
X030955Y062756
Y063036
Y063316
Y063596
Y063876
X03098Y064153
X031075Y064413
X031247Y064622
X031524Y064664
X031804
X031765Y065113
X032045
X032325
X032605
X032885
X033165
X033445
X033725
X034005
X034044Y064664
X033764
X033484
X033204
X032924
X032644
X032364
X031485Y065113
X031206Y065085
X030951Y064969
X030874Y062207
X030695Y061992
X028766Y06229
X028487Y062316
X028093
X027675Y062232
X028473Y061786
X028502Y084497
X028563Y085027
X028842Y085011
X028169Y085027
X027691Y084941
X027472Y084766
X030646Y084552
X030869Y08472
X030973Y084991
X030978Y08525
X030974Y085542
X030981Y085813
X03098Y08608
X030983Y086401
X03097Y086682
X030977Y086952
X030986Y087222
X031192Y087411
X031472
X031752
X032032
X032312
X032592
X032872
X033152
X033432
X033712
X033992
X034026Y087859
X033746
X033466
X033186
X032906
X032626
X032346
X032066
X031786
X031506
X031226
X030948Y087825
X030721Y087661
X030577Y08742
X030525Y087145
X030526Y086865
Y086585
Y086305
Y086025
Y085745
Y085465
Y085185
X034272Y087411
X034552Y087426
X034821Y087502
X035068Y087635
X035277Y087821
X035486Y088007
X035748Y088106
X036028Y088116
X036308
X036588
X036868
X037148
X037428
X037708
X037988
X038268
X038548
X038828
X039108
X039388
X039668
X039948
X040228
X040508
X040788
X041068
X041348
X041628
X041908
X042188
X042468
X042748
X043028
X043308
X043588
X043868
X044148
X044428
X044708
X044988
X045268
X045548
X045828
X046108
X046388
X046668
X046948
X047228
X047508
X047788
X048068
X048348
X048628
X048908
X049188
X049468
X049748
X049782Y088565
X049502
X049222
X048942
X048662
X048382
X048102
X047822
X047542
X047262
X046982
X046702
X046422
X046142
X045862
X045582
X045302
X045022
X044742
X044462
X044182
X043902
X043622
X043342
X043062
X042782
X042502
X042222
X041942
X041662
X041382
X041102
X040822
X040542
X040262
X039982
X039702
X039422
X039142
X038862
X038582
X038302
X038022
X037742
X037462
X037182
X036902
X036622
X036342
X036062
X035782Y088562
X035507Y088509
X035252Y088393
X035037Y088215
X034832Y088023
X034583Y087896
X034306Y087859
X034826Y076629
X03503Y076821
X035228Y077019
X035426Y077217
X035624Y077414
X035834Y0776
X036062Y077763
X036302Y077907
X036552Y078032
X036811Y078138
X03708Y078215
X037355Y07827
X037633Y078304
X037913Y078314
X038193
X038473
X038753
X039033
X039313
X039593
X039873
X040153
X040433
X040713
X040993
X041273
X041553
X041833
X042113
X042393
X042673
X042953
X043233
X043513
X043793
X044073
X044353
X044633
X044913
X045193
X045473
X045753
X046033
X046313
X046593
X046873
X047153
X047433Y078315
X04771Y078279
X047974Y078185
X048207Y078029
X04841Y077836
X04867Y077732
X04895
X04923
X04951
X04979
X049655Y077283
X049375
X049095
X048815
X048535Y07729
X048269Y077376
X048055Y077556
X047844Y077741
X047585Y077848
X047306Y077866
X047026
X046746
X046466
X046186
X045906
X045626
X045346
X045066
X044786
X044506
X044226
X043946
X043666
X043386
X043106
X042826
X042546
X042266
X041986
X041706
X041426
X041146
X040866
X040586
X040306
X040026
X039746
X039466
X039186
X038906
X038626
X038346
X038066
X037786Y077861
X037507Y077839
X037231Y07779
X036962Y077712
X036703Y077607
X036455Y077477
X036221Y077323
X036003Y077148
X035799Y076956
X035601Y076758
X049935Y077283
X050215
X050495Y077281
X050768Y077341
X051Y077498
X0512Y077695
X051443Y077834
X051721Y077866
X052001
X052281
X052561
X052841
X053121
X053401
X053681
X053961
X054241
X054521
X054801
X055081
X055361
X055641
X055921Y077862
X0562Y07784
X056476Y077791
X056745Y077713
X057004Y077607
X057251Y077476
X057485Y077321
X057724Y077176
X057985Y077073
X058258Y077015
X058538Y077003
X058816Y077037
X059085Y077116
X059337Y077238
X059565Y0774
X059768Y077593
X059966Y077791
X060164Y077989
X060362Y078187
X06056Y078385
X060763Y078577
X061008Y078713
X061285Y078756
X061565
X061845
X062125
X062405
X062685
X062965
X063245
X063525
X063805
X064085
X064365
X064645
X064925
X065205
X065339Y079204
X065059
X064779
X064499
X064219
X063939
X063659
X063379
X063099
X062819
X062539
X062259
X061979
X061699
X061419
X061139Y079198
X060864Y079142
X060612Y079021
X06039Y07885
X060193Y078651
X059995Y078453
X059797Y078255
X059599Y078057
X059401Y077859
X059189Y077676
X058942Y077544
X058673Y077466
X058394Y077456
X058118Y077505
X057861Y077617
X057627Y077771
X057387Y077915
X057137Y07804
X056877Y078144
X056608Y078221
X056333Y078274
X056054Y078306
X055775Y078314
X055495
X055215
X054935
X054655
X054375
X054095
X053815
X053535
X053255
X052975
X052695
X052415
X052135
X051855
X051575Y078313
X051299Y078261
X051045Y078145
X050831Y077964
X050627Y077773
X05035Y077732
X05007
X050028Y088116
X050308
X050588
X050868
X051148
X051428
X051708
X051988
X052268
X052548
X052828
X053108
X053388
X053668
X053948
X054228
X054508
X054788
X055068
X055348
X055628
X055908
X056188
X056468
X056748
X057028
X057308
X057588
X057868
X058148
X058428
X058708
X058988
X059268
X059548
X059828
X060108
X060388Y088116
X060665Y088157
X060927Y088256
X061157Y088416
X061358Y088611
X061556Y088809
X061754Y089007
X061952Y089205
X06215Y089403
X062348Y089601
X062546Y089799
X062744Y089997
X062943Y090193
X06315Y090383
X06337Y090555
X063601Y090714
X06384Y090858
X064089Y090988
X064347Y091095
X064612Y091186
X064882Y091261
X065156Y091319
X065434Y091356
X065191Y091778
X064915Y09173
X064642Y091668
X064375Y091584
X064113Y091485
X063856Y091374
X063607Y091245
X063368Y0911
X063136Y090943
X062914Y090773
X062705Y090586
X062504Y090391
X062306Y090193
X062108Y089995
X06191Y089797
X061712Y089599
X061514Y089401
X061316Y089203
X061118Y089005
X06092Y088807
X060692Y088644
X060422Y088571
X060142Y088565
X059862
X059582
X059302
X059022
X058742
X058462
X058182
X057902
X057622
X057342
X057062
X056782
X056502
X056222
X055942
X055662
X055382
X055102
X054822
X054542
X054262
X053982
X053702
X053422
X053142
X052862
X052582
X052302
X052022
X051742
X051462
X051182
X050902
X050622
X050342
X050062
X065713Y091373
X065993Y091378
X066273
X066553
X066833
X067113
X067393
X067673
X067953
X068233
X068513
X068793Y091369
X069072Y091344
X069349Y091302
X069622Y091242
X06989Y091159
X070152Y091061
X070407Y090946
X070655Y090815
X070891Y090665
X071116Y090499
X071331Y09032
X071536Y090128
X071734Y08993
X071932Y089732
X07212Y089525
X072232Y089268
X072256Y088989
Y088709
Y088429
Y088149
Y087869
Y087589
Y08731
X072238Y087023
X072105Y086783
X071996Y086533
X071987Y086253
X071987Y08586
X072015Y085581
X072484Y086236
X072503Y086516
X072652Y086752
X072723Y087025
X072718Y087277
X072724Y087584
X072704Y087867
Y088147
Y088427
Y088707
Y088987
X072692Y089267
X072617Y089537
X072487Y089785
X072303Y089996
X072105Y090194
X071907Y090392
X071706Y090587
X071498Y090774
X071276Y090945
X071044Y091101
X070805Y091247
X070556Y091376
X070299Y091487
X070037Y091585
X06977Y09167
X069497Y091731
X069221Y091779
X068943Y091813
X068663Y091825
X068383Y091827
X068103
X067823
X067543
X067263
X066983
X066703
X066423
X066143
X065863
X065469Y091813
X065619Y079204
X065899
X066179
X066459
X066739
X067019
X067299
X067579
X067859
X068139
X068419
X068699
X068979
X069259
X069539
X069819
X070099
X070379
X070659
X070939
X071216Y079245
X071462Y079377
X071666Y079569
X071864Y079767
X072057Y07997
X072197Y080213
X072243Y080489
Y080769
Y081049
Y081329
Y081609
X072238Y081865
X072235Y082155
X07223Y082444
X072165Y082718
X072037Y082967
X071973Y083239
X07198Y083694
X072015Y083972
X072506Y083248
X072541Y082971
X072675Y082725
X0727Y082404
X072706Y082114
X072703Y08186
X072691Y081605
Y081325
Y081045
Y080765
Y080485
X072662Y080207
X072573Y079941
X072423Y079705
X072231Y079501
X072033Y079303
X071836Y079104
X071613Y078934
X07136Y078816
X071085Y078762
X070805Y078756
X070525
X070245
X069965
X069685
X069405
X069125
X068845
X068565
X068285
X068005
X067725
X067445
X067165
X066885
X066605
X066325
X066045
X065765
X065485
X07749Y078457
X077301Y078251
X077187Y077996
X077164Y077717
Y077437
X07716Y077146
X077153Y076856
X077631Y076747
X077622Y077018
X077621Y07729
X077613Y077588
X077621Y077868
X077771Y078104
X077969Y078302
X078167Y0785
X078365Y078698
X078545Y078913
X078676Y07916
X078756Y079429
X078776Y079708
Y079988
X078772Y080268
X078715Y080542
X078591Y080793
X078406Y081003
X078208Y081201
X07801Y081399
X077812Y081597
X077614Y081795
X077514Y082056
X077512Y082337
Y08261
X077527Y082882
X077524Y083134
X077485Y083411
X077477Y083691
X076997Y083302
X077034Y083004
X076999Y082726
X076997Y08244
X077002Y082159
X077034Y081865
X077166Y081632
X077352Y081422
X07755Y081224
X077748Y081026
X077946Y080828
X078144Y08063
X07829Y080391
X078327Y080114
Y079834
X078318Y079554
X07824Y079285
X078082Y079053
X077886Y078853
X077688Y078655
X07641Y084824
X074839Y084387
X074564Y08444
X074289Y084387
X073995Y08438
X074041Y084916
X074376Y08492
X081163Y134186
X081443
X081723Y134184
X081997Y134127
X082231Y133974
X082431Y133778
X082629Y13358
X082827Y133382
X083027Y133186
X083249Y133016
X083497Y132885
X083762Y132796
X084039Y132752
X084319Y132745
X084599
X084879
X085159
X085439
X085718Y132756
X085992Y132815
X086249Y132925
X086481Y133082
X086681Y133279
X086842Y133508
X086958Y133763
X087037Y134052
X087054Y134317
X087047Y134593
X086996Y134871
X086907Y135137
X086845Y13541
X086352Y135531
X086316Y135253
X086474Y135021
X086552Y134754
X086575Y134475
X08659Y134189
X086536Y133921
X086412Y13367
X086228Y133459
X085996Y133302
X08573Y133214
X085451Y133194
X085171
X084891
X084611
X084331
X084051Y133203
X083776Y133256
X083523Y133376
X0833Y133545
X083101Y133742
X082903Y13394
X082705Y134138
X082504Y134333
X082274Y134493
X082013Y134593
X081736Y134634
X081456Y134634
X081176
X086331Y135884
X086378Y13616
X086355Y137782
X086312Y138059
X086293Y138338
X086314Y138581
X086429Y138836
X086525Y139071
X087021Y138939
X086904Y138715
X086844Y138442
X086845Y138175
X08841Y137071
X088732Y137074
X089008Y137029
X089285Y137071
X088897Y13658
X08862Y136544
X088339Y136531
X090855Y136711
X091339Y138274
X091355Y138598
X09136Y138878
X091854Y13887
X091852Y13859
X091821Y138122
X091819Y137842
X080896Y134634
X080616
X080336
X080056
X079776
X079496
X079216
X078936
X078656
X078376
X078096
X077816
X077536
X077256
X076976
X076696
X076416
X076136
X075856
X075576
X075296
X075016
X074736
X074456
X074176
X073896
X073616
X073336
X073056
X072776
X072496
X072216
X071936
X071656
X071376
X071096
X070816
X070536
X070256
X069976
X069696
X069416
X069136
X068856
X068576
X068296
X068016
X067736
X067456
X067176
X066896
X066616
X066336
X066056
X065776
X065496
X065483Y134186
X065763
X066043
X066323
X066603
X066883
X067163
X067443
X067723
X068003
X068283
X068563
X068843
X069123
X069403
X069683
X069963
X070243
X070523
X070803
X071083
X071363
X071643
X071923
X072203
X072483
X072763
X073043
X073323
X073603
X073883
X074163
X074443
X074723
X075003
X075283
X075563
X075843
X076123
X076403
X076683
X076963
X077243
X077523
X077803
X078083
X078363
X078643
X078923
X079203
X079483
X079763
X080043
X080323
X080603
X080883
X065203
X064923
X064643
X064363
X064083
X063803
X063523
X063243
X062963
X062683
X062403
X062123
X061843
X061563
X061283
X061003
X060723
X060443
X060163
X059883
X059603
X059323
X059043
X058763
X058483
X058203
X057923
X057643
X057363
X057083
X056803
X056523
X056243
X055963
X055683
X055403
X055123
X054843
X054563
X054283
X054003
X053723
X053443
X053163
X052883
X052603
X052323
X052043
X051763
X051483
X051203
X050923
X050643
X050363
X050083
X050096Y134634
X050376
X050656
X050936
X051216
X051496
X051776
X052056
X052336
X052616
X052896
X053176
X053456
X053736
X054016
X054296
X054576
X054856
X055136
X055416
X055696
X055976
X056256
X056536
X056816
X057096
X057376
X057656
X057936
X058216
X058496
X058776
X059056
X059336
X059616
X059896
X060176
X060456
X060736
X061016
X061296
X061576
X061856
X062136
X062416
X062696
X062976
X063256
X063536
X063816
X064096
X064376
X064656
X064936
X065216
X049816
X049536
X049256
X048976
X048696
X048683Y134186
X048403
X048123
X047843
X047563
X047283
X047003
X046723
X046443
X046163
X045883
X045603
X045323
X045043
X044763
X044483
X044203
X043923
X043643
X043363
X043083
X042803
X042523
X042243
X041963
X041683
X041403
X041123
X040843
X040563
X040283
X040003
X039723
X039443
X039163
X038883
X038603
X038323
X038043
X037763
X037483
X037203
X036923
X036643
X036363
X036083
X035803
X035523
X035243
X034963
X034683
X034403
X034416Y134634
X034696
X034976
X035256
X035536
X035816
X036096
X036376
X036656
X036936
X037216
X037496
X037776
X038056
X038336
X038616
X038896
X039176
X039456
X039736
X040016
X040296
X040576
X040856
X041136
X041416
X041696
X041976
X042256
X042536
X042816
X043096
X043376
X043656
X043936
X044216
X044496
X044776
X045056
X045336
X045616
X045896
X046176
X046456
X046736
X047016
X047296
X047576
X047856
X048136
X048963Y134186
X049243
X049523
X049803
X034123
X033843
X033563Y134167
X033311Y134045
X033132Y13383
X033075Y13356
X032653Y134007
X032774Y134288
X033003Y134508
X03329Y134618
X033576Y13463
X033856Y134634
X034136
X031399Y133504
X031097Y132942
X031054Y132666
X031053Y132278
X031585Y132402
X031584Y140443
X031087Y140409
X031062Y140171
X031075Y140689
X031394Y141381
X033056Y141469
X033125Y14174
X033343Y141916
X033623
X033903
X034183
X034156Y142364
X033876
X033596
X033316
X033047Y142296
X032837Y14211
X032686Y141874
X031553Y148244
X03106Y148309
X031053Y148061
X031087Y148587
X031385Y14925
X033056Y149263
Y149543
X033112Y149817
X03338Y149896
X03366
X03394
X033983Y150344
X033703
X033423
X033144Y150332
X032887Y15022
X032699Y150013
X032613Y149746
X03422Y149896
X0345
X03478
X03506
X03534
X03562
X0359
X03618
X03646
X03674
X03702
X0373
X03758
X03786
X03814
X03842
X0387
X03898
X03926
X03954
X03982
X0401
X04038
X04066
X04094
X04122
X0415
X04178
X04206
X04234
X04262
X0429
X04318
X04346
X04374
X04402
X0443
X04458
X04486
X04514
X04542
X0457
X04598
X04626
X04654
X04682
X0471
X04738
X04766
X04794
X04822
X0485
X04878
X04906
X04934
X04962
X049663Y150344
X049383
X049103
X048823
X048543
X048263
X047983
X047703
X047423
X047143
X046863
X046583
X046303
X046023
X045743
X045463
X045183
X044903
X044623
X044343
X044063
X043783
X043503
X043223
X042943
X042663
X042383
X042103
X041823
X041543
X041263
X040983
X040703
X040423
X040143
X039863
X039583
X039303
X039023
X038743
X038463
X038183
X037903
X037623
X037343
X037063
X036783
X036503
X036223
X035943
X035663
X035383
X035103
X034823
X034543
X034263
X034436Y142364
X034716
X034996
X035276
X035556
X035836
X036116
X036396
X036676
X036956
X037236
X037516
X037796
X038076
X038356
X038636
X038916
X039196
X039476
X039756
X040036
X040316
X040596
X040876
X041156
X041436
X041716
X041996
X042276
X042556
X042836
X043116
X043396
X043676
X043956
X044236
X044516
X044796
X045076
X045356
X045636
X045916
X046196
X046476
X046756
X047036
X047316
X047596
X047876
X048156
X048436
X048716
X048996
X049276
X049556
X049583Y141916
X049303
X049023
X048743
X048463
X048183
X047903
X047623
X047343
X047063
X046783
X046503
X046223
X045943
X045663
X045383
X045103
X044823
X044543
X044263
X043983
X043703
X043423
X043143
X042863
X042583
X042303
X042023
X041743
X041463
X041183
X040903
X040623
X040343
X040063
X039783
X039503
X039223
X038943
X038663
X038383
X038103
X037823
X037543
X037263
X036983
X036703
X036423
X036143
X035863
X035583
X035303
X035023
X034743
X034463
X049863
X050143
X050423
X050703
X050983
X051263
X051543
X051823
X052103
X052383
X052663
X052943
X053223
X053503
X053783
X054063
X054343
X054623
X054903
X055183
X055463
X055743
X056023
X056303
X056583
X056863
X057143
X057423
X057703
X057983
X058263
X058543
X058823
X059103
X059383
X059663
X059943
X060223
X060503
X060783
X061063
X061343
X061623
X061903
X062183
X062463
X062743
X063023
X063303
X063583
X063863
X064143
X064423
X064703
X064983
X065263
X065236Y142364
X064956
X064676
X064396
X064116
X063836
X063556
X063276
X062996
X062716
X062436
X062156
X061876
X061596
X061316
X061036
X060756
X060476
X060196
X059916
X059636
X059356
X059076
X058796
X058516
X058236
X057956
X057676
X057396
X057116
X056836
X056556
X056276
X055996
X055716
X055436
X055156
X054876
X054596
X054316
X054036
X053756
X053476
X053196
X052916
X052636
X052356
X052076
X051796
X051516
X051236
X050956
X050676
X050396
X050116
X049836
X0499Y149896
X05018
X05046
X05074
X05102
X0513
X05158
X05186
X05214
X05242
X0527
X05298
X05326
X05354
X05382
X0541
X05438
X05466
X05494
X05522
X0555
X05578
X05606
X05634
X05662
X0569
X05718
X05746
X05774
X05802
X0583
X05858
X05886
X05914
X05942
X0597
X05998
X06026
X06054
X06082
X0611
X06138
X06166
X06194
X06222
X0625
X06278
X06306
X06334
X06362
X0639
X06418
X06446
X06474
X06502
X0653
X065343Y150344
X065063
X064783
X064503
X064223
X063943
X063663
X063383
X063103
X062823
X062543
X062263
X061983
X061703
X061423
X061143
X060863
X060583
X060303
X060023
X059743
X059463
X059183
X058903
X058623
X058343
X058063
X057783
X057503
X057223
X056943
X056663
X056383
X056103
X055823
X055543
X055263
X054983
X054703
X054423
X054143
X053863
X053583
X053303
X053023
X052743
X052463
X052183
X051903
X051623
X051343
X051063
X050783
X050503
X050223
X049943
X065623
X065903
X066183
X066463
X066743
X067023
X067303
X067583
X067863
X068143
X068423
X068703
X068983
X069263
X069543
X069823
X070103
X070383
X070663
X070943
X071223
X071503
X071783
X072063
X072343
X072623
X072903
X073183
X073463
X073743
X074023
X074303
X074583
X074863
X075143
X075423
X075703
X075983
X076263
X076543
X076823
X077103
X077383
X077663
X077943
X078223
X078503
X078783
X079063
X079343
X079623
X079903
X080183
X080463Y150349
X080737Y150407
X08098Y150547
X080965Y150014
X080699Y149927
X08042Y149895
X08014Y149896
X07986
X07958
X0793
X07902
X07874
X07846
X07818
X0779
X07762
X07734
X07706
X07678
X0765
X07622
X07594
X07566
X07538
X0751
X07482
X07454
X07426
X07398
X0737
X07342
X07314
X07286
X07258
X0723
X07202
X07174
X07146
X07118
X0709
X07062
X07034
X07006
X06978
X0695
X06922
X06894
X06866
X06838
X0681
X06782
X06754
X06726
X06698
X0667
X06642
X06614
X06586
X06558
X065516Y142364
X065796
X066076
X066356
X066636
X066916
X067196
X067476
X067756
X068036
X068316
X068596
X068876
X069156
X069436
X069716
X069996
X070276
X070556
X070836
X071116
X071396
X071676
X071956
X072236
X072516
X072796
X073076
X073356
X073636
X073916
X074196
X074476
X074756
X075036
X075316
X075596
X075876
X076156
X076436
X076716
X076996
X077276
X077556
X077836
X078116
X078396
X078668Y142367
X078956Y142364
X079236
X079516
X079796
X080076
X080356
X080636
X080916
X080943Y141916
X080663
X080383
X080103
X079823
X079543
X079263
X078983
X078703
X078423
X078143
X077863
X077583
X077303
X077023
X076743
X076463
X076183
X075903
X075623
X075343
X075063
X074783
X074503
X074223
X073943
X073663
X073383
X073103
X072823
X072543
X072263
X071983
X071703
X071423
X071143
X070863
X070583
X070303
X070023
X069743
X069463
X069183
X068903
X068623
X068343
X068063
X067783
X067503
X067223
X066943
X066663
X066383
X066103
X065823
X065543
X081223
X081503
X081782Y141888
X082036Y14177
X082242Y141581
X08244Y141383
X082638Y141185
X082836Y140987
X083046Y140801
X083293Y140669
X083562Y140593
X083842Y140578
X084122
X084402
X084682
X084962
X085242
X085522
X085802
X08608Y140547
X086318Y1404
X086489Y140178
X086577Y139912
Y139623
Y139311
X087033Y139199
Y139502
X087037Y13981
X087001Y140088
X08691Y140352
X086756Y140586
X086559Y140786
X086324Y140937
X086055Y141016
X085775Y141027
X085495
X085215
X084935
X084655
X084375
X084095
X083815
X083537Y14106
X083287Y141185
X083082Y141376
X082884Y141574
X082686Y141772
X082488Y14197
X082275Y142152
X082027Y142281
X081756Y142353
X081476Y142364
X081196
X081208Y150152
X081416Y150339
X081622Y150529
X081868Y150662
X082137Y150743
X082417Y150754
X08269Y150694
X082936Y150561
X083142Y150371
X08334Y150173
X083558Y149997
X083823Y149905
X084102Y149896
X084382
X084662
X084942
X085222
X085502Y149903
X085779Y149947
X086045Y150033
X086295Y15016
X086522Y150324
X08672Y150522
X086867Y15076
X086975Y151017
X086991Y151275
X086988Y151559
X08689Y151862
X086736Y152096
X086776Y152373
X086243Y152296
X086274Y15254
X086251Y152819
X086286Y153097
X086292Y15202
X086381Y151768
X08647Y151516
X086484Y151256
X086457Y150948
X086293Y150721
X086069Y150552
X085818Y150429
X085547Y150359
X085267Y150344
X084987
X084707
X084427
X084147
X083867Y150354
X083636Y150512
X083438Y15071
X083232Y1509
X082997Y151052
X082736Y151154
X082461Y151202
X082181Y1512
X081905Y15115
X081641Y151056
X081397Y150919
X081178Y150744
X086286Y15473
X088423Y154055
X088689Y154058
X088821Y153565
X088544Y15353
X088251Y153508
X089097Y153518
X090835Y153861
X091275Y15247
X091275Y152212
X091304Y151733
X091312Y151463
X091312Y151167
Y150875
Y150595
Y150315
X091327Y150035
X091426Y149773
X09142Y149473
X091422Y149174
X091418Y148904
X091426Y148653
Y148373
Y148093
X091452Y147814
X091632Y1476
X091893Y147501
X091911Y147221
X091772Y146978
X091493Y146955
X091213
X090933
X091068Y146507
X090788Y146511
X090518Y146583
X090057Y146971
X090207Y147207
X091628Y146507
X091905Y146546
X092139Y1467
X092319Y146915
X092359Y147192
Y147472
X092279Y14774
X09207Y147926
X091874Y148126
Y148406
Y148686
X091897Y148928
X091902Y149174
X091893Y149495
X091874Y149806
X091821Y150081
X09176Y150354
Y150634
Y150914
X091766Y151216
X091769Y151544
X091805Y1518
X091802Y152031
X091797Y152262
X091766Y152541
X091759Y152821
X091426Y145201
X091171Y145328
X091013Y144902
X091233Y144728
X091354Y144476
X091381Y144197
Y143917
Y143637
Y143357
Y143077
Y142797
Y142517
Y142237
X091382Y141945
X091367Y141647
X091365Y141373
X091381Y141117
Y140837
Y140557
Y140277
Y139997
Y139717
Y139417
X091369Y139139
X091849Y139128
X091837Y139393
X09183Y139711
Y139988
Y140268
Y140548
Y140828
Y141108
X091843Y141338
X091844Y141581
X091841Y141904
X09183Y142228
Y142508
Y142788
Y143068
Y143348
Y143628
Y143908
Y144188
X091817Y144468
X091742Y144738
X091611Y144987
X090538Y145371
X086774Y155161
X086771Y155414
X086829Y155688
X086965Y155956
X086988Y15623
X086974Y156498
X08691Y15678
X086816Y157043
X086675Y157285
X08649Y157496
X08627Y157668
X086022Y157798
X085755Y157882
X085477Y157917
X085197Y157917
X084917
X084637
X084357Y157928
X084092Y158017
X083872Y15819
X083674Y158388
X083471Y158581
X083238Y158736
X082974Y158829
X082696Y158865
X082297Y158864
X082017Y158849
X081749Y15877
X081503Y158636
X081294Y158449
X081096Y158251
X081244Y157771
X081445Y157966
X081643Y158164
X081868Y15833
X082137Y158408
X082417Y158416
X082697Y158415
X082972Y158362
X083209Y158213
X08341Y158018
X083607Y157819
X083829Y157649
X084083Y15753
X084357Y157475
X084637Y157469
X084917
X085197
X085477Y157465
X085753Y157419
X086007Y1573
X086224Y157123
X086387Y156896
X086453Y156641
X086476Y156361
X086468Y156064
X086366Y155832
X086244Y15558
X086291Y155304
X086245Y155007
X081014Y157611
X080753Y157511
X080476Y157469
X080196Y157469
X079916
X079636
X079356
X079076
X078797Y157489
X078526Y157562
X078273Y157681
X078029Y157819
X077749Y15782
X077482Y157735
X077244Y157588
X076982Y15749
X076703Y157469
X076423
X076143
X075863
X075583
X075303
X075023
X074743
X074463
X074183
X073903
X073623
X073343
X073063
X072783
X072503
X072223
X071943
X071663
X071383
X071103Y157469
X070823
X070543
X070263
X069983
X069703
X069423
X069143
X068863
X068583
X068303
X068023
X067743
X067463
X067183
X066903
X066623
X066343
X066063
X065783
X065503
X065661Y157917
X065941
X066221
X066501
X066781
X067061
X067341
X067621
X067901
X068181
X068461
X068741
X069021
X069301
X069581
X069861
X070141
X070421
X070701
X070981
X071261Y157917
X071541
X071821
X072101
X072381
X072661
X072941
X073221
X073501
X073781
X074061
X074341
X074621
X074901
X075181
X075461
X075741
X076021
X076301
X076581
X076861Y157927
X077118Y158039
X077363Y158173
X077631Y158256
X07791Y158281
X078187Y158245
X078434Y158111
X078683Y157984
X078957Y157925
X079237Y157917
X079517
X079797
X080077
X080357
X080635Y157945
X080889Y158062
X065381Y157917
X065101
X064821
X064541
X064261
X063981
X063701
X063421
X063141
X062861
X062581
X062301
X062021
X061741
X061461
X061181
X060901
X060621
X060341
X060061
X059781
X059501
X059221
X058941
X058661Y157917
X058381
X058101
X057821
X057541
X057261
X056981
X056701
X056421
X056141
X055861
X055581
X055301
X055021
X054741
X054461
X054181
X053901
X053621
X053341
X053061
X052781
X052501
X052221
X051941
X051661
X051381
X051101
X050821
X050541
X050261
X049981
X050103Y157469
X050383
X050663
X050943
X051223
X051503
X051783
X052063
X052343
X052623
X052903
X053183
X053463
X053743
X054023
X054303
X054583
X054863
X055143
X055423
X055703
X055983
X056263
X056543
X056823
X057103
X057383
X057663
X057943
X058223
X058503
X058783Y157469
X059063
X059343
X059623
X059903
X060183
X060463
X060743
X061023
X061303
X061583
X061863
X062143
X062423
X062703
X062983
X063263
X063543
X063823
X064103
X064383
X064663
X064943
X065223
X049823Y157469
X049543
X049263
X048983
X048703
X048423
X048143
X047863
X047583
X047303
X047023
X046743
X046463
X046183
X045903
X045623Y157469
X045343
X045063
X044783
X044503
X044223
X043943
X043663
X043383
X043103
X042823
X042543
X042263
X041983
X041703
X041423
X041143
X040863
X040583
X040303
X040023
X039743
X039463
X039183
X038903
X038623
X038343
X038063
X037783
X037503
X037223
X036943
X036663
X036383
X036103
X035823
X035543
X035263
X034983
X034703
X034423
X034301Y157917
X034581Y157917
X034861
X035141
X035421
X035701
X035981
X036261
X036541
X036821
X037101
X037381
X037661
X037941
X038221
X038501
X038781
X039061
X039341
X039621
X039901
X040181
X040461
X040741
X041021
X041301
X041581
X041861
X042141
X042421
X042701
X042981
X043261
X043541
X043821
X044101
X044381
X044661
X044941
X045221
X045501
X045781
X046061
X046341
X046621
X046901Y157917
X047181
X047461
X047741
X048021
X048301
X048581
X048861
X049141
X049421
X049701
X034021Y157917
X033741
X033461
X033181
X032901Y157911
X032675Y157746
X032594Y157478
X033044Y157361
X033303Y157469
X033583
X033863
X034143
X031395Y157127
X031089Y156482
X031065Y156203
X031058Y155917
X03156Y156147
M30
