G04*
G04 #@! TF.GenerationSoftware,Altium Limited,Altium Designer,22.9.1 (49)*
G04*
G04 Layer_Color=16711935*
%FSLAX24Y24*%
%MOIN*%
G70*
G04*
G04 #@! TF.SameCoordinates,1003F32D-41C8-4A49-8BB1-F60438683A21*
G04*
G04*
G04 #@! TF.FilePolarity,Negative*
G04*
G01*
G75*
%ADD118R,0.0630X0.0197*%
%ADD150C,0.0660*%
%ADD175R,0.0650X0.0370*%
G04:AMPARAMS|DCode=177|XSize=32.5mil|YSize=32.5mil|CornerRadius=10.1mil|HoleSize=0mil|Usage=FLASHONLY|Rotation=180.000|XOffset=0mil|YOffset=0mil|HoleType=Round|Shape=RoundedRectangle|*
%AMROUNDEDRECTD177*
21,1,0.0325,0.0123,0,0,180.0*
21,1,0.0123,0.0325,0,0,180.0*
1,1,0.0203,-0.0061,0.0061*
1,1,0.0203,0.0061,0.0061*
1,1,0.0203,0.0061,-0.0061*
1,1,0.0203,-0.0061,-0.0061*
%
%ADD177ROUNDEDRECTD177*%
G04:AMPARAMS|DCode=203|XSize=32.5mil|YSize=32.5mil|CornerRadius=10.1mil|HoleSize=0mil|Usage=FLASHONLY|Rotation=270.000|XOffset=0mil|YOffset=0mil|HoleType=Round|Shape=RoundedRectangle|*
%AMROUNDEDRECTD203*
21,1,0.0325,0.0123,0,0,270.0*
21,1,0.0123,0.0325,0,0,270.0*
1,1,0.0203,-0.0061,-0.0061*
1,1,0.0203,-0.0061,0.0061*
1,1,0.0203,0.0061,0.0061*
1,1,0.0203,0.0061,-0.0061*
%
%ADD203ROUNDEDRECTD203*%
%ADD204R,0.0370X0.0260*%
%ADD205R,0.0260X0.0370*%
G04:AMPARAMS|DCode=207|XSize=32.5mil|YSize=32.5mil|CornerRadius=10.1mil|HoleSize=0mil|Usage=FLASHONLY|Rotation=45.000|XOffset=0mil|YOffset=0mil|HoleType=Round|Shape=RoundedRectangle|*
%AMROUNDEDRECTD207*
21,1,0.0325,0.0123,0,0,45.0*
21,1,0.0123,0.0325,0,0,45.0*
1,1,0.0203,0.0087,0.0000*
1,1,0.0203,0.0000,-0.0087*
1,1,0.0203,-0.0087,0.0000*
1,1,0.0203,0.0000,0.0087*
%
%ADD207ROUNDEDRECTD207*%
G04:AMPARAMS|DCode=208|XSize=32.5mil|YSize=32.5mil|CornerRadius=10.1mil|HoleSize=0mil|Usage=FLASHONLY|Rotation=135.000|XOffset=0mil|YOffset=0mil|HoleType=Round|Shape=RoundedRectangle|*
%AMROUNDEDRECTD208*
21,1,0.0325,0.0123,0,0,135.0*
21,1,0.0123,0.0325,0,0,135.0*
1,1,0.0203,0.0000,0.0087*
1,1,0.0203,0.0087,0.0000*
1,1,0.0203,0.0000,-0.0087*
1,1,0.0203,-0.0087,0.0000*
%
%ADD208ROUNDEDRECTD208*%
%ADD232C,0.0730*%
%ADD233C,0.0850*%
%ADD236C,0.0680*%
%ADD238C,0.0700*%
%ADD239C,0.0651*%
%ADD240C,0.3150*%
%ADD241C,0.0880*%
%ADD242C,0.2580*%
%ADD243C,0.0300*%
%ADD244C,0.0330*%
%ADD264C,0.0220*%
%ADD280R,0.0197X0.0630*%
%ADD283C,0.0332*%
G04:AMPARAMS|DCode=284|XSize=26mil|YSize=37mil|CornerRadius=0mil|HoleSize=0mil|Usage=FLASHONLY|Rotation=135.000|XOffset=0mil|YOffset=0mil|HoleType=Round|Shape=Rectangle|*
%AMROTATEDRECTD284*
4,1,4,0.0223,0.0039,-0.0039,-0.0223,-0.0223,-0.0039,0.0039,0.0223,0.0223,0.0039,0.0*
%
%ADD284ROTATEDRECTD284*%

%ADD285C,0.0650*%
D118*
X24970Y10118D02*
D03*
Y9803D02*
D03*
X24970Y7976D02*
D03*
Y8291D02*
D03*
X24070Y7966D02*
D03*
Y8281D02*
D03*
X24090Y10108D02*
D03*
Y9793D02*
D03*
X15349Y105745D02*
D03*
Y105430D02*
D03*
X15547Y103178D02*
D03*
Y103493D02*
D03*
X19451Y105623D02*
D03*
Y105308D02*
D03*
X19633Y103392D02*
D03*
Y103707D02*
D03*
X16751Y105759D02*
D03*
Y105444D02*
D03*
X16673Y103181D02*
D03*
Y103496D02*
D03*
X25029Y21532D02*
D03*
Y21217D02*
D03*
X25029Y19389D02*
D03*
Y19704D02*
D03*
X24129Y19379D02*
D03*
Y19694D02*
D03*
X24149Y21522D02*
D03*
Y21207D02*
D03*
X25039Y32877D02*
D03*
Y32562D02*
D03*
X25039Y30734D02*
D03*
Y31049D02*
D03*
X24139Y30724D02*
D03*
Y31039D02*
D03*
X24159Y32867D02*
D03*
Y32552D02*
D03*
X25039Y44242D02*
D03*
Y43927D02*
D03*
X25039Y42099D02*
D03*
Y42414D02*
D03*
X24139Y42089D02*
D03*
Y42404D02*
D03*
X24159Y44232D02*
D03*
Y43917D02*
D03*
X25049Y55625D02*
D03*
Y55310D02*
D03*
X25049Y53482D02*
D03*
Y53797D02*
D03*
X24149Y53472D02*
D03*
Y53787D02*
D03*
X24169Y55615D02*
D03*
Y55300D02*
D03*
X25049Y66957D02*
D03*
Y66642D02*
D03*
X25049Y64814D02*
D03*
Y65129D02*
D03*
X24149Y64804D02*
D03*
Y65119D02*
D03*
X24169Y66947D02*
D03*
Y66632D02*
D03*
X25019Y78352D02*
D03*
Y78037D02*
D03*
X25019Y76209D02*
D03*
Y76524D02*
D03*
X24119Y76199D02*
D03*
Y76514D02*
D03*
X24139Y78342D02*
D03*
Y78027D02*
D03*
X25019Y89702D02*
D03*
Y89387D02*
D03*
X25019Y87559D02*
D03*
Y87874D02*
D03*
X24119Y87549D02*
D03*
Y87864D02*
D03*
X24139Y89692D02*
D03*
Y89377D02*
D03*
X15377Y111648D02*
D03*
Y111963D02*
D03*
X15576Y109711D02*
D03*
Y109396D02*
D03*
X18269Y109911D02*
D03*
Y109596D02*
D03*
X18508Y111516D02*
D03*
Y111831D02*
D03*
X19479Y111841D02*
D03*
Y111526D02*
D03*
X19661Y109610D02*
D03*
Y109925D02*
D03*
X16779Y111663D02*
D03*
Y111978D02*
D03*
X16701Y109714D02*
D03*
Y109399D02*
D03*
X15360Y117891D02*
D03*
Y118205D02*
D03*
X15558Y115954D02*
D03*
Y115639D02*
D03*
X18251Y115839D02*
D03*
Y116154D02*
D03*
X18491Y118074D02*
D03*
Y117759D02*
D03*
X19462Y118084D02*
D03*
Y117769D02*
D03*
X19644Y115852D02*
D03*
Y116167D02*
D03*
X16762Y118220D02*
D03*
Y117905D02*
D03*
X16684Y115642D02*
D03*
Y115956D02*
D03*
X15397Y124449D02*
D03*
Y124134D02*
D03*
X15596Y121882D02*
D03*
Y122197D02*
D03*
X18289Y122082D02*
D03*
Y122397D02*
D03*
X18528Y124317D02*
D03*
Y124002D02*
D03*
X19499Y124327D02*
D03*
Y124012D02*
D03*
X19681Y122096D02*
D03*
Y122411D02*
D03*
X16799Y124148D02*
D03*
Y124463D02*
D03*
X16721Y122200D02*
D03*
Y121885D02*
D03*
X18240Y103378D02*
D03*
Y103693D02*
D03*
X18480Y105613D02*
D03*
Y105298D02*
D03*
D150*
X17086Y16298D02*
X17162D01*
X17166Y16294D01*
X16400Y16984D02*
X17086Y16298D01*
X17172Y39008D02*
X17176Y39004D01*
X16994Y39167D02*
X17153Y39008D01*
X17172D01*
X16051Y6881D02*
Y7299D01*
X15890Y7460D02*
X16051Y7299D01*
X15890Y6720D02*
X16051Y6881D01*
X16154Y5840D02*
X16248Y5746D01*
Y5689D02*
Y5746D01*
Y5689D02*
X17053Y4885D01*
X15911Y5840D02*
X16154D01*
X18537Y19533D02*
X19232Y18838D01*
X17671Y19186D02*
X18018Y19533D01*
X18537D01*
X18681Y19842D02*
X19275Y19248D01*
X15629Y19254D02*
X16217Y19842D01*
X18681D01*
X17920Y30770D02*
X18110Y30960D01*
X16887Y30770D02*
X17920D01*
X16702Y30955D02*
X16887Y30770D01*
X16448Y30955D02*
X16702D01*
X15959Y30466D02*
X16448Y30955D01*
X15959Y30218D02*
Y30466D01*
X15639Y28940D02*
Y30598D01*
X18110Y30960D02*
X18465D01*
X16268Y31228D02*
X18650D01*
X15639Y30598D02*
X16268Y31228D01*
X18465Y30960D02*
X19171Y30255D01*
X18650Y31228D02*
X19303Y30575D01*
X16653Y42369D02*
X16828Y42194D01*
X17979D02*
X18163Y42378D01*
X16828Y42194D02*
X17979D01*
X16497Y42369D02*
X16653D01*
X15959Y41831D02*
X16497Y42369D01*
X18163Y42378D02*
X18412D01*
X15639Y41964D02*
X16327Y42652D01*
X15959Y41584D02*
Y41831D01*
X15639Y40305D02*
Y41964D01*
X16327Y42652D02*
X18591D01*
X18412Y42378D02*
X19153Y41638D01*
X18591Y42652D02*
X19286Y41958D01*
X19153Y41638D02*
X20490D01*
X19286Y41958D02*
X20357D01*
X16474Y51598D02*
X16694Y51818D01*
X16191Y51598D02*
X16474D01*
X16694Y51818D02*
Y51950D01*
X16529Y52116D02*
X16694Y51950D01*
X15649Y51688D02*
X15994Y51342D01*
X16529Y52388D02*
X16877Y52737D01*
X16196Y51338D02*
X16867Y50667D01*
X15969Y51821D02*
X16191Y51598D01*
X16529Y52116D02*
Y52388D01*
X16877Y52737D02*
X17239D01*
X16083Y51338D02*
X16196D01*
X16079Y51342D02*
X16083Y51338D01*
X15994Y51342D02*
X16079D01*
X15649Y53347D02*
X16257Y53955D01*
X18681D02*
X19306Y53330D01*
X16257Y53955D02*
X18681D01*
X16241Y65271D02*
X18697D01*
X15649Y64678D02*
X16241Y65271D01*
X18697D02*
X19306Y64662D01*
X16873Y76239D02*
X17894D01*
X18157Y76502D01*
X16700Y76412D02*
X16873Y76239D01*
X18378Y76502D02*
X19101Y75780D01*
X18157Y76502D02*
X18378D01*
X19290Y76043D02*
X20319D01*
X18563Y76770D02*
X19290Y76043D01*
X16409Y76412D02*
X16700D01*
X15619Y76074D02*
X16315Y76770D01*
X18563D01*
X19101Y75780D02*
X20427D01*
X15939Y75941D02*
X16409Y76412D01*
X16854Y73394D02*
X16892D01*
X16109Y74053D02*
X16755Y73407D01*
X16841D01*
X16854Y73394D01*
X15980Y74053D02*
X16109D01*
X18577Y64938D02*
X19249Y64267D01*
X20381D02*
X21402Y65288D01*
X19249Y64267D02*
X20381D01*
X17678Y64598D02*
X18019Y64938D01*
X17149Y64598D02*
X17678D01*
X16809Y64938D02*
X17149Y64598D01*
X16149Y62678D02*
X17104Y61723D01*
X15990Y62678D02*
X16149D01*
X16809Y53607D02*
X17050Y53365D01*
X17777D02*
X18019Y53607D01*
X17050Y53365D02*
X17777D01*
X16162Y39781D02*
X16360D01*
X16831Y39310D01*
X15639Y40305D02*
X16162Y39781D01*
X19171Y30255D02*
X20466D01*
X21339Y31127D01*
X20334Y30575D02*
X21019Y31260D01*
X19303Y30575D02*
X20334D01*
X16125Y28454D02*
X16385D01*
X16479Y28297D02*
Y28360D01*
X16385Y28454D02*
X16479Y28360D01*
X15639Y28940D02*
X16125Y28454D01*
X15949Y17727D02*
X16159Y17517D01*
X16453D01*
X16629Y17693D01*
X20332Y18838D02*
X21360Y19866D01*
X19232Y18838D02*
X20332D01*
X17116Y19186D02*
X17671D01*
X16789Y19514D02*
X17116Y19186D01*
X16110Y17114D02*
X16306D01*
X15629Y17595D02*
X16110Y17114D01*
X16400Y16984D02*
Y17020D01*
X16306Y17114D02*
X16400Y17020D01*
X20290Y19248D02*
X21040Y19999D01*
X19275Y19248D02*
X20290D01*
X19083Y7516D02*
X20545D01*
X21323Y8294D01*
Y8759D01*
X16730Y8100D02*
X17057Y7773D01*
X17613D01*
X17940Y8100D01*
X21541Y77110D02*
X21545Y77114D01*
X21338Y77006D02*
X21442Y77110D01*
X21541D01*
X21338Y76691D02*
Y77006D01*
X20427Y75780D02*
X21338Y76691D01*
X16829Y75464D02*
X17209D01*
X15939Y75694D02*
X16139Y75494D01*
X15939Y75694D02*
Y75941D01*
X16499Y74832D02*
Y75133D01*
Y74832D02*
X16627Y74704D01*
X16499Y75133D02*
X16829Y75464D01*
X16627Y74521D02*
Y74704D01*
X16459Y74353D02*
X16627Y74521D01*
X16139Y75154D02*
Y75494D01*
X15939Y74547D02*
Y74954D01*
X16139Y75154D01*
X16133Y74353D02*
X16459D01*
X15939Y74547D02*
X16133Y74353D01*
X21337Y77376D02*
X21482D01*
X21076Y77115D02*
X21337Y77376D01*
X21076Y76800D02*
Y77115D01*
X20319Y76043D02*
X21076Y76800D01*
X15619Y74415D02*
Y76074D01*
Y74415D02*
X15980Y74053D01*
X16892Y73394D02*
X17177Y73109D01*
X21535Y65719D02*
X21545Y65729D01*
X21402Y65622D02*
X21499Y65719D01*
X21535D01*
X21402Y65288D02*
Y65622D01*
X18019Y64938D02*
X18577D01*
X16876Y64068D02*
X17239D01*
X16361Y64938D02*
X16809D01*
X15969Y64546D02*
X16361Y64938D01*
X15969Y64298D02*
X16169Y64098D01*
X15969Y64298D02*
Y64546D01*
X16529Y63437D02*
Y63721D01*
Y63437D02*
X16648Y63318D01*
X16529Y63721D02*
X16876Y64068D01*
X16648Y63117D02*
Y63318D01*
X16494Y62963D02*
X16648Y63117D01*
X16169Y63758D02*
Y64098D01*
X15969Y63152D02*
Y63558D01*
X16169Y63758D01*
X16158Y62963D02*
X16494D01*
X15969Y63152D02*
X16158Y62963D01*
X21539Y66049D02*
X21545D01*
X21516Y66025D02*
X21539Y66049D01*
X21387Y66025D02*
X21516D01*
X21106Y65411D02*
Y65745D01*
X21387Y66025D01*
X20362Y64667D02*
X21106Y65411D01*
X19356Y64667D02*
X20362D01*
X19352Y64662D02*
X19356Y64667D01*
X19306Y64662D02*
X19352D01*
X15649Y63020D02*
Y64678D01*
Y63020D02*
X15990Y62678D01*
X17182Y61723D02*
X17186Y61719D01*
X17104Y61723D02*
X17182D01*
X21365Y54707D02*
X21509D01*
X21068Y54410D02*
X21365Y54707D01*
X21068Y54089D02*
Y54410D01*
X20319Y53340D02*
X21068Y54089D01*
X20071Y53340D02*
X20319D01*
X20066Y53335D02*
X20071Y53340D01*
X19827Y53335D02*
X20066D01*
X19824Y53332D02*
X19827Y53335D01*
X19359Y53332D02*
X19824D01*
X19357Y53330D02*
X19359Y53332D01*
X19306Y53330D02*
X19357D01*
X15649Y51688D02*
Y53347D01*
X16867Y50667D02*
X16907D01*
X17186Y50388D01*
X21499Y54377D02*
X21509Y54387D01*
X21388Y54277D02*
X21488Y54377D01*
X21499D01*
X21388Y53956D02*
Y54277D01*
X19964Y53020D02*
X20452D01*
X21388Y53956D01*
X19957Y53012D02*
X19964Y53020D01*
X18019Y53607D02*
X18577D01*
X19171Y53012D01*
X19957D01*
X16361Y53607D02*
X16809D01*
X15969Y53214D02*
X16361Y53607D01*
X15969Y52967D02*
X16169Y52767D01*
X15969Y52967D02*
Y53214D01*
X16169Y52427D02*
Y52767D01*
X15969Y51821D02*
Y52227D01*
X16169Y52427D01*
X21377Y43324D02*
X21509D01*
X21096Y42696D02*
Y43043D01*
X21377Y43324D01*
X20357Y41958D02*
X21096Y42696D01*
X16994Y39167D02*
Y39181D01*
X16892Y39284D02*
X16994Y39181D01*
X21509Y42998D02*
Y43004D01*
X21416Y42905D02*
X21509Y42998D01*
X21416Y42563D02*
Y42905D01*
X20490Y41638D02*
X21416Y42563D01*
X16856Y41354D02*
X17229D01*
X16159Y41044D02*
Y41384D01*
X15959Y41584D02*
X16159Y41384D01*
X16519Y40722D02*
Y41016D01*
Y40722D02*
X16640Y40600D01*
X16519Y41016D02*
X16856Y41354D01*
X16640Y40404D02*
Y40600D01*
X16504Y40268D02*
X16640Y40404D01*
X15959Y40437D02*
Y40844D01*
X16159Y41044D01*
X16128Y40268D02*
X16504D01*
X15959Y40437D02*
X16128Y40268D01*
X21341Y31946D02*
X21565D01*
X21019Y31624D02*
X21341Y31946D01*
X21019Y31260D02*
Y31624D01*
X16897Y27918D02*
X17176Y27639D01*
X16479Y28297D02*
X16831Y27945D01*
X21561Y31623D02*
X21565Y31626D01*
X21339Y31492D02*
X21470Y31623D01*
X21561D01*
X21339Y31127D02*
Y31492D01*
X16843Y29988D02*
X17229D01*
X16159Y29678D02*
Y30018D01*
X15959Y30218D02*
X16159Y30018D01*
X16519Y29357D02*
X16653Y29223D01*
X16519Y29664D02*
X16843Y29988D01*
X16653Y29052D02*
Y29223D01*
X16508Y28907D02*
X16653Y29052D01*
X16519Y29357D02*
Y29664D01*
X15959Y29072D02*
Y29478D01*
X16159Y29678D01*
X16124Y28907D02*
X16508D01*
X15959Y29072D02*
X16124Y28907D01*
X21356Y20630D02*
X21517D01*
X21040Y19999D02*
Y20314D01*
X21356Y20630D01*
X15629Y17595D02*
Y19254D01*
X21507Y20300D02*
X21517Y20310D01*
X21360Y20181D02*
X21479Y20300D01*
X21507D01*
X21360Y19866D02*
Y20181D01*
X16867Y18644D02*
X17219D01*
X16341Y19514D02*
X16789D01*
X15949Y18874D02*
Y19121D01*
X16341Y19514D01*
X16149Y18334D02*
Y18674D01*
X15949Y18874D02*
X16149Y18674D01*
X16509Y18012D02*
X16629Y17891D01*
X16509Y18285D02*
X16867Y18644D01*
X16629Y17693D02*
Y17891D01*
X16509Y18012D02*
Y18285D01*
X15949Y17727D02*
Y18134D01*
X16149Y18334D01*
X21525Y9197D02*
X21549Y9222D01*
X21343Y9197D02*
X21525D01*
X21027Y8881D02*
X21343Y9197D01*
X21027Y8566D02*
Y8881D01*
X20273Y7812D02*
X21027Y8566D01*
X19239Y7812D02*
X20273D01*
X18631Y8420D02*
X19239Y7812D01*
X16150Y8420D02*
X18631D01*
X15570Y6181D02*
Y7840D01*
X16150Y8420D01*
X15570Y6181D02*
X15911Y5840D01*
X17104Y4885D02*
X17107Y4881D01*
X17053Y4885D02*
X17104D01*
X21551Y8898D02*
X21555Y8902D01*
X21323Y8759D02*
X21462Y8898D01*
X21551D01*
X18499Y8100D02*
X19083Y7516D01*
X17940Y8100D02*
X18499D01*
X16798Y7230D02*
X17160D01*
X16283Y8100D02*
X16730D01*
X15890Y7707D02*
X16283Y8100D01*
X15890Y7460D02*
Y7707D01*
X16450Y6599D02*
X16572Y6476D01*
Y6281D02*
Y6476D01*
X16450Y6882D02*
X16798Y7230D01*
X16451Y6160D02*
X16572Y6281D01*
X16044Y6160D02*
X16451D01*
X16450Y6599D02*
Y6882D01*
X15890Y6314D02*
X16044Y6160D01*
X15890Y6314D02*
Y6720D01*
D175*
X101556Y85653D02*
D03*
Y86753D02*
D03*
X98056Y12958D02*
D03*
Y11858D02*
D03*
X98046Y52993D02*
D03*
Y51893D02*
D03*
X97546Y17888D02*
D03*
Y16788D02*
D03*
X96296Y17908D02*
D03*
Y16808D02*
D03*
X97536Y57923D02*
D03*
Y56823D02*
D03*
X95759Y11988D02*
D03*
Y13088D02*
D03*
X95803Y52013D02*
D03*
Y53113D02*
D03*
X101546Y16728D02*
D03*
Y15628D02*
D03*
X101656Y56763D02*
D03*
Y55663D02*
D03*
X99196Y14608D02*
D03*
Y13508D02*
D03*
X99256Y54643D02*
D03*
Y53543D02*
D03*
X94176Y16498D02*
D03*
Y17598D02*
D03*
X94206Y56503D02*
D03*
Y57603D02*
D03*
X98086Y23013D02*
D03*
Y21913D02*
D03*
X98040Y62963D02*
D03*
Y61863D02*
D03*
X97590Y27923D02*
D03*
Y26823D02*
D03*
X96296Y27903D02*
D03*
Y26803D02*
D03*
X97560Y67853D02*
D03*
Y66753D02*
D03*
X96290Y67883D02*
D03*
Y66783D02*
D03*
X95763Y21973D02*
D03*
Y23073D02*
D03*
X95807Y61983D02*
D03*
Y63083D02*
D03*
X101686Y26743D02*
D03*
Y25643D02*
D03*
X101570Y66703D02*
D03*
Y65603D02*
D03*
X94256Y26543D02*
D03*
Y27643D02*
D03*
X94170Y66463D02*
D03*
Y67563D02*
D03*
X98096Y72963D02*
D03*
Y71863D02*
D03*
X97573Y37864D02*
D03*
Y36764D02*
D03*
X96313Y37904D02*
D03*
Y36804D02*
D03*
X97546Y77893D02*
D03*
Y76793D02*
D03*
X96316Y77913D02*
D03*
Y76813D02*
D03*
X95800Y32024D02*
D03*
Y33124D02*
D03*
X95823Y72023D02*
D03*
Y73123D02*
D03*
X101693Y36724D02*
D03*
Y35624D02*
D03*
X101546Y76733D02*
D03*
Y75633D02*
D03*
X99183Y34624D02*
D03*
Y33524D02*
D03*
X99216Y74613D02*
D03*
Y73513D02*
D03*
X94263Y36454D02*
D03*
Y37554D02*
D03*
X94156Y76503D02*
D03*
Y77603D02*
D03*
X98096Y81863D02*
D03*
Y82963D02*
D03*
X97546Y46670D02*
D03*
Y47770D02*
D03*
X96276Y46730D02*
D03*
Y47830D02*
D03*
X97526Y86793D02*
D03*
Y87893D02*
D03*
X96276Y86813D02*
D03*
Y87913D02*
D03*
X95763Y43090D02*
D03*
Y41990D02*
D03*
X95743Y83083D02*
D03*
Y81983D02*
D03*
X99226Y43500D02*
D03*
Y44600D02*
D03*
X99216Y83513D02*
D03*
Y84613D02*
D03*
X94186Y47530D02*
D03*
Y46430D02*
D03*
X94206Y87583D02*
D03*
Y86483D02*
D03*
X98046Y41890D02*
D03*
Y42990D02*
D03*
X96266Y57923D02*
D03*
Y56823D02*
D03*
X99286Y24623D02*
D03*
Y23523D02*
D03*
X99160Y64633D02*
D03*
Y63533D02*
D03*
X98093Y32954D02*
D03*
Y31854D02*
D03*
X101716Y45620D02*
D03*
Y46720D02*
D03*
D177*
X18140Y6560D02*
D03*
Y6954D02*
D03*
X18222Y5330D02*
D03*
Y5724D02*
D03*
X18203Y4593D02*
D03*
Y4199D02*
D03*
X18202Y3370D02*
D03*
Y2977D02*
D03*
X98127Y54597D02*
D03*
Y54990D02*
D03*
X100666Y15405D02*
D03*
Y15011D02*
D03*
X100676Y55440D02*
D03*
Y55046D02*
D03*
X107405Y41476D02*
D03*
Y41083D02*
D03*
X115323Y29657D02*
D03*
Y29263D02*
D03*
X98047Y24647D02*
D03*
Y25040D02*
D03*
X98107Y64624D02*
D03*
Y65017D02*
D03*
X107330Y44771D02*
D03*
Y44377D02*
D03*
X115420Y32783D02*
D03*
Y33177D02*
D03*
X100656Y25036D02*
D03*
Y25430D02*
D03*
X100680Y65430D02*
D03*
Y65036D02*
D03*
X114527Y47849D02*
D03*
Y48242D02*
D03*
X113954Y47682D02*
D03*
Y47288D02*
D03*
X98186Y34620D02*
D03*
Y35014D02*
D03*
X98220Y74571D02*
D03*
Y74965D02*
D03*
X100693Y35007D02*
D03*
Y35401D02*
D03*
X100646Y75016D02*
D03*
Y75410D02*
D03*
X105000Y29830D02*
D03*
Y29436D02*
D03*
X106030Y29797D02*
D03*
Y29403D02*
D03*
X97937Y85070D02*
D03*
Y84677D02*
D03*
X105043Y39407D02*
D03*
Y39800D02*
D03*
X106310Y40159D02*
D03*
Y39765D02*
D03*
X105555Y40159D02*
D03*
Y39765D02*
D03*
X100606Y85016D02*
D03*
Y85410D02*
D03*
X106349Y50193D02*
D03*
Y50586D02*
D03*
X105630Y50168D02*
D03*
Y50562D02*
D03*
X105111Y49694D02*
D03*
Y50087D02*
D03*
X88675Y148187D02*
D03*
Y147793D02*
D03*
X90250Y146239D02*
D03*
Y145846D02*
D03*
X68305Y120667D02*
D03*
Y120273D02*
D03*
X68220Y119374D02*
D03*
Y118981D02*
D03*
X109692Y73477D02*
D03*
Y73083D02*
D03*
X108880Y73763D02*
D03*
Y73369D02*
D03*
X18199Y18368D02*
D03*
Y17974D02*
D03*
X18281Y17138D02*
D03*
Y16744D02*
D03*
X18262Y16006D02*
D03*
Y15613D02*
D03*
X18261Y14784D02*
D03*
Y14390D02*
D03*
X18209Y29713D02*
D03*
Y29319D02*
D03*
X18291Y28483D02*
D03*
Y28089D02*
D03*
X18272Y27351D02*
D03*
Y26958D02*
D03*
X18271Y26129D02*
D03*
Y25735D02*
D03*
X18209Y41078D02*
D03*
Y40684D02*
D03*
X18291Y39848D02*
D03*
Y39454D02*
D03*
X18272Y38716D02*
D03*
Y38323D02*
D03*
X18271Y37494D02*
D03*
Y37100D02*
D03*
X18219Y52461D02*
D03*
Y52067D02*
D03*
X18301Y51231D02*
D03*
Y50837D02*
D03*
X18281Y48877D02*
D03*
Y48483D02*
D03*
X18219Y63399D02*
D03*
Y63793D02*
D03*
X18301Y62169D02*
D03*
Y62563D02*
D03*
X18282Y61431D02*
D03*
Y61037D02*
D03*
X18281Y60209D02*
D03*
Y59815D02*
D03*
X18189Y75188D02*
D03*
Y74794D02*
D03*
X18271Y73564D02*
D03*
Y73958D02*
D03*
X18252Y72826D02*
D03*
Y72433D02*
D03*
X18251Y71604D02*
D03*
Y71210D02*
D03*
X18189Y86144D02*
D03*
Y86538D02*
D03*
X18271Y84914D02*
D03*
Y85308D02*
D03*
X18252Y84176D02*
D03*
Y83783D02*
D03*
X18251Y82954D02*
D03*
Y82560D02*
D03*
X18702Y6151D02*
D03*
Y6545D02*
D03*
X18689Y4001D02*
D03*
Y4395D02*
D03*
X16134Y102218D02*
D03*
Y102612D02*
D03*
X111380Y32487D02*
D03*
Y32093D02*
D03*
X108342Y30550D02*
D03*
Y30943D02*
D03*
X112140Y35213D02*
D03*
Y35607D02*
D03*
X110941Y34719D02*
D03*
Y35113D02*
D03*
X113162Y15310D02*
D03*
Y15703D02*
D03*
X100412Y157283D02*
D03*
Y156890D02*
D03*
X18761Y17565D02*
D03*
Y17959D02*
D03*
X18747Y15415D02*
D03*
Y15808D02*
D03*
X18771Y28910D02*
D03*
Y29304D02*
D03*
X18757Y26760D02*
D03*
Y27153D02*
D03*
X18771Y40669D02*
D03*
Y40275D02*
D03*
X18757Y38125D02*
D03*
Y38518D02*
D03*
X18781Y51658D02*
D03*
Y52052D02*
D03*
X18767Y49508D02*
D03*
Y49902D02*
D03*
X18781Y62990D02*
D03*
Y63383D02*
D03*
X18767Y61233D02*
D03*
Y60840D02*
D03*
X18751Y74779D02*
D03*
Y74385D02*
D03*
X18737Y72628D02*
D03*
Y72235D02*
D03*
X18751Y86129D02*
D03*
Y85735D02*
D03*
X18737Y83585D02*
D03*
Y83978D02*
D03*
X16162Y108437D02*
D03*
Y108830D02*
D03*
X98150Y44607D02*
D03*
Y45000D02*
D03*
X90738Y145874D02*
D03*
Y146267D02*
D03*
X97957Y14655D02*
D03*
Y15048D02*
D03*
X100666Y45053D02*
D03*
Y45447D02*
D03*
X69103Y123211D02*
D03*
Y123604D02*
D03*
X18282Y50100D02*
D03*
Y49706D02*
D03*
X16145Y115073D02*
D03*
Y114679D02*
D03*
X16182Y120922D02*
D03*
Y121316D02*
D03*
X110150Y68307D02*
D03*
Y67913D02*
D03*
X113530Y65696D02*
D03*
Y66089D02*
D03*
X113441Y71356D02*
D03*
Y71749D02*
D03*
X75110Y30861D02*
D03*
Y31254D02*
D03*
X56200Y116383D02*
D03*
Y116777D02*
D03*
X76681Y28918D02*
D03*
Y29312D02*
D03*
X74562Y76180D02*
D03*
Y75786D02*
D03*
X76165Y74197D02*
D03*
Y73803D02*
D03*
X118150Y76803D02*
D03*
Y77197D02*
D03*
X117330Y25497D02*
D03*
Y25103D02*
D03*
X56872Y116805D02*
D03*
Y116411D02*
D03*
Y115781D02*
D03*
Y115387D02*
D03*
X117258Y24525D02*
D03*
Y24131D02*
D03*
X116528Y25001D02*
D03*
Y24607D02*
D03*
X114342Y53719D02*
D03*
Y53325D02*
D03*
X111025Y79110D02*
D03*
Y78716D02*
D03*
D203*
X109729Y30353D02*
D03*
X109336D02*
D03*
X115937Y28260D02*
D03*
X116331D02*
D03*
X115973Y33456D02*
D03*
X116367D02*
D03*
X107197Y47990D02*
D03*
X106803D02*
D03*
X110064Y34650D02*
D03*
X110458D02*
D03*
X105987Y30746D02*
D03*
X105593D02*
D03*
X67584Y124175D02*
D03*
X67978D02*
D03*
X112984Y52754D02*
D03*
X112590D02*
D03*
X110583Y51720D02*
D03*
X110977D02*
D03*
X113070Y55534D02*
D03*
X112677D02*
D03*
X112397Y58264D02*
D03*
X112790D02*
D03*
X112750Y22008D02*
D03*
X113144D02*
D03*
X108856Y67046D02*
D03*
X109249D02*
D03*
X108760Y60175D02*
D03*
X109154D02*
D03*
X112343Y69550D02*
D03*
X112737D02*
D03*
X113681Y78627D02*
D03*
X114074D02*
D03*
X110993Y76665D02*
D03*
X111387D02*
D03*
X108821Y79645D02*
D03*
X109214D02*
D03*
X108797Y82182D02*
D03*
X109190D02*
D03*
X114136Y83072D02*
D03*
X114530D02*
D03*
X112974Y83095D02*
D03*
X113368D02*
D03*
X109170Y84280D02*
D03*
X108777D02*
D03*
X108747Y86336D02*
D03*
X109140D02*
D03*
X115566Y147470D02*
D03*
X115172D02*
D03*
X55160Y17753D02*
D03*
X55553D02*
D03*
X55170Y29098D02*
D03*
X55563D02*
D03*
X55170Y40463D02*
D03*
X55563D02*
D03*
X55573Y51847D02*
D03*
X55180D02*
D03*
Y63178D02*
D03*
X55573D02*
D03*
X55543Y74573D02*
D03*
X55150D02*
D03*
X55543Y85923D02*
D03*
X55150D02*
D03*
X56360Y6342D02*
D03*
X55966D02*
D03*
X111678Y30638D02*
D03*
X111285D02*
D03*
X110310Y30943D02*
D03*
X109917D02*
D03*
X110261Y32046D02*
D03*
X109868D02*
D03*
X112066Y36664D02*
D03*
X111672D02*
D03*
X109257Y35016D02*
D03*
X108864D02*
D03*
X108273Y36400D02*
D03*
X108667D02*
D03*
X114447Y52500D02*
D03*
X114053D02*
D03*
X114544Y55276D02*
D03*
X114151D02*
D03*
X109310Y76922D02*
D03*
X108917D02*
D03*
X109337Y78792D02*
D03*
X108944D02*
D03*
X108817Y81352D02*
D03*
X109210D02*
D03*
X108827Y83452D02*
D03*
X109220D02*
D03*
X109190Y85526D02*
D03*
X108797D02*
D03*
X116457Y147210D02*
D03*
X116063D02*
D03*
X116170Y148392D02*
D03*
X115777D02*
D03*
X56419Y17756D02*
D03*
X56025D02*
D03*
X56429Y29101D02*
D03*
X56035D02*
D03*
X56429Y40466D02*
D03*
X56035D02*
D03*
X56045Y51849D02*
D03*
X56439D02*
D03*
Y63181D02*
D03*
X56045D02*
D03*
X56015Y74576D02*
D03*
X56409D02*
D03*
Y85926D02*
D03*
X56015D02*
D03*
X55495Y6340D02*
D03*
X55101D02*
D03*
X109690Y51490D02*
D03*
X109297D02*
D03*
X108832Y54290D02*
D03*
X108438D02*
D03*
X112433Y64110D02*
D03*
X112827D02*
D03*
X113946Y80052D02*
D03*
X114340D02*
D03*
X113543Y59800D02*
D03*
X113937D02*
D03*
X113893Y148489D02*
D03*
X113500D02*
D03*
X117682Y148067D02*
D03*
X118076D02*
D03*
X112093Y53778D02*
D03*
X111699D02*
D03*
X113713Y56460D02*
D03*
X114107D02*
D03*
X115981Y55998D02*
D03*
X116374D02*
D03*
X107297Y77239D02*
D03*
X106904D02*
D03*
X107283Y76236D02*
D03*
X106889D02*
D03*
X107317Y78689D02*
D03*
X106923D02*
D03*
X107317Y81156D02*
D03*
X106923D02*
D03*
X110993Y81677D02*
D03*
X111387D02*
D03*
X110964Y84202D02*
D03*
X111358D02*
D03*
X107348Y83722D02*
D03*
X106954D02*
D03*
X108867Y87310D02*
D03*
X109260D02*
D03*
X109510Y86837D02*
D03*
X109117D02*
D03*
D204*
X113443Y46420D02*
D03*
Y47010D02*
D03*
D205*
X42001Y121550D02*
D03*
X41411D02*
D03*
X42001Y113350D02*
D03*
X41411D02*
D03*
D207*
X89735Y144376D02*
D03*
X89457Y144654D02*
D03*
X87308Y147002D02*
D03*
X87030Y147280D02*
D03*
X91452Y144189D02*
D03*
X91174Y144467D02*
D03*
X90587Y148036D02*
D03*
X90865Y147758D02*
D03*
X77609Y27532D02*
D03*
X77888Y27254D02*
D03*
X77300Y30830D02*
D03*
X77022Y31108D02*
D03*
X77072Y72439D02*
D03*
X77350Y72160D02*
D03*
X76777Y75728D02*
D03*
X76498Y76006D02*
D03*
X76164Y27437D02*
D03*
X75886Y27715D02*
D03*
X75506Y27360D02*
D03*
X75784Y27082D02*
D03*
X73740Y30067D02*
D03*
X73461Y30345D02*
D03*
X75353Y72578D02*
D03*
X75632Y72299D02*
D03*
X75268Y71952D02*
D03*
X74989Y72230D02*
D03*
X73212Y74966D02*
D03*
X72933Y75244D02*
D03*
D208*
X86823Y145387D02*
D03*
X86544Y145109D02*
D03*
X87649Y144606D02*
D03*
X87370Y144328D02*
D03*
X89728Y147291D02*
D03*
X90007Y147569D02*
D03*
X73255Y28452D02*
D03*
X72976Y28174D02*
D03*
X76444Y30636D02*
D03*
X76165Y30358D02*
D03*
X73810Y27393D02*
D03*
X74089Y27672D02*
D03*
X72437Y73077D02*
D03*
X72715Y73356D02*
D03*
X75718Y75272D02*
D03*
X75996Y75550D02*
D03*
X73481Y72516D02*
D03*
X73203Y72237D02*
D03*
D232*
X115738Y124354D02*
D03*
X105300Y119271D02*
D03*
X105656Y139359D02*
D03*
X106012Y153875D02*
D03*
X60308Y67737D02*
D03*
X14943Y58448D02*
D03*
X15303Y35408D02*
D03*
X60619Y22068D02*
D03*
X4963Y79708D02*
D03*
X101338Y80227D02*
D03*
X86012Y113662D02*
D03*
X14563Y80188D02*
D03*
X12213Y119788D02*
D03*
X28713Y106928D02*
D03*
X14813Y12838D02*
D03*
X60202Y46000D02*
D03*
X12213Y150098D02*
D03*
X82650Y142924D02*
D03*
X12423Y134278D02*
D03*
X84889Y127641D02*
D03*
X115728Y100564D02*
D03*
X112458Y75074D02*
D03*
X110888Y54040D02*
D03*
X113858Y25534D02*
D03*
X101028Y60334D02*
D03*
X100468Y39604D02*
D03*
X101238Y20374D02*
D03*
D233*
X39706Y120550D02*
D03*
X41706Y122550D02*
D03*
Y120550D02*
D03*
X39706Y122550D02*
D03*
X31981Y11113D02*
D03*
X33981Y9113D02*
D03*
Y11113D02*
D03*
X31981Y9113D02*
D03*
X62028Y2544D02*
D03*
X64028Y4544D02*
D03*
X62028D02*
D03*
X64028Y2544D02*
D03*
X75276Y130867D02*
D03*
X73276Y132867D02*
D03*
X75276D02*
D03*
X73276Y130867D02*
D03*
X75276Y138737D02*
D03*
X73276Y140737D02*
D03*
X75276D02*
D03*
X73276Y138737D02*
D03*
X75272Y146610D02*
D03*
X73272Y148610D02*
D03*
X75272D02*
D03*
X73272Y146610D02*
D03*
X75272Y154485D02*
D03*
X73272Y156485D02*
D03*
X75272D02*
D03*
X73272Y154485D02*
D03*
X26717Y102128D02*
D03*
X24717Y104128D02*
D03*
Y102128D02*
D03*
X26717Y104128D02*
D03*
X106090Y14128D02*
D03*
X104090Y16128D02*
D03*
X106090D02*
D03*
X104090Y14128D02*
D03*
Y54163D02*
D03*
X106090Y56163D02*
D03*
X104090D02*
D03*
X106090Y54163D02*
D03*
X104090Y24143D02*
D03*
X106090Y26143D02*
D03*
X104090D02*
D03*
X106090Y24143D02*
D03*
X104090Y64133D02*
D03*
X106090Y66133D02*
D03*
X104090D02*
D03*
X106090Y64133D02*
D03*
X104090Y34124D02*
D03*
X106090Y36124D02*
D03*
X104090D02*
D03*
X106090Y34124D02*
D03*
X104090Y74133D02*
D03*
X106090Y76133D02*
D03*
X104090D02*
D03*
X106090Y74133D02*
D03*
Y44120D02*
D03*
X104090Y46120D02*
D03*
X106090D02*
D03*
X104090Y44120D02*
D03*
Y84133D02*
D03*
X106090Y86133D02*
D03*
X104090D02*
D03*
X106090Y84133D02*
D03*
X50200Y118377D02*
D03*
X52200Y116377D02*
D03*
Y118377D02*
D03*
X50200Y116377D02*
D03*
X32039Y20527D02*
D03*
X34039Y22527D02*
D03*
Y20527D02*
D03*
X32039Y22527D02*
D03*
X64086Y13957D02*
D03*
X62086Y15957D02*
D03*
X64086D02*
D03*
X62086Y13957D02*
D03*
X32049Y33872D02*
D03*
X34049Y31872D02*
D03*
Y33872D02*
D03*
X32049Y31872D02*
D03*
X64096Y25302D02*
D03*
X62096Y27302D02*
D03*
X64096D02*
D03*
X62096Y25302D02*
D03*
X32049Y45237D02*
D03*
X34049Y43237D02*
D03*
Y45237D02*
D03*
X32049Y43237D02*
D03*
X62096Y36667D02*
D03*
X64096Y38667D02*
D03*
X62096D02*
D03*
X64096Y36667D02*
D03*
X32059Y54620D02*
D03*
X34059Y56620D02*
D03*
Y54620D02*
D03*
X32059Y56620D02*
D03*
X64106Y48051D02*
D03*
X62106Y50051D02*
D03*
X64106D02*
D03*
X62106Y48051D02*
D03*
X32059Y67951D02*
D03*
X34059Y65951D02*
D03*
Y67951D02*
D03*
X32059Y65951D02*
D03*
X62106Y59382D02*
D03*
X64106Y61382D02*
D03*
X62106D02*
D03*
X64106Y59382D02*
D03*
X32029Y77347D02*
D03*
X34029Y79347D02*
D03*
Y77347D02*
D03*
X32029Y79347D02*
D03*
X64076Y70777D02*
D03*
X62076Y72777D02*
D03*
X64076D02*
D03*
X62076Y70777D02*
D03*
X32029Y90697D02*
D03*
X34029Y88697D02*
D03*
Y90697D02*
D03*
X32029Y88697D02*
D03*
X62076Y82127D02*
D03*
X64076Y84127D02*
D03*
X62076D02*
D03*
X64076Y82127D02*
D03*
X26745Y110346D02*
D03*
X24745Y108346D02*
D03*
Y110346D02*
D03*
X26745Y108346D02*
D03*
X26728Y116589D02*
D03*
X24728Y114589D02*
D03*
Y116589D02*
D03*
X26728Y114589D02*
D03*
X26765Y122832D02*
D03*
X24765Y120832D02*
D03*
Y122832D02*
D03*
X26765Y120832D02*
D03*
X39706Y112350D02*
D03*
X41706Y114350D02*
D03*
Y112350D02*
D03*
X39706Y114350D02*
D03*
D236*
X95004Y152695D02*
D03*
X63597Y6848D02*
D03*
X78414Y130172D02*
D03*
Y138042D02*
D03*
X78410Y145914D02*
D03*
X78410Y153789D02*
D03*
X80619Y16543D02*
D03*
X76500Y50687D02*
D03*
X93129Y5515D02*
D03*
X101506Y121103D02*
D03*
X100355Y94674D02*
D03*
X97516Y126875D02*
D03*
X104596Y140259D02*
D03*
X99140Y106962D02*
D03*
X101012Y152415D02*
D03*
X63656Y18262D02*
D03*
X63666Y29607D02*
D03*
Y40972D02*
D03*
X63676Y52355D02*
D03*
Y63687D02*
D03*
X63646Y75082D02*
D03*
Y86432D02*
D03*
X81754Y38774D02*
D03*
X81304Y61217D02*
D03*
X81054Y84044D02*
D03*
X95037Y137260D02*
D03*
D238*
X112342Y14016D02*
D03*
Y15016D02*
D03*
Y16016D02*
D03*
X99512Y155918D02*
D03*
Y156918D02*
D03*
Y157918D02*
D03*
D239*
X-4201Y79340D02*
D03*
X-5000Y58120D02*
D03*
X-4201Y108868D02*
D03*
X-5000Y87648D02*
D03*
D240*
Y113025D02*
D03*
Y53968D02*
D03*
Y83500D02*
D03*
D241*
X-1148Y89106D02*
D03*
X3852D02*
D03*
X-1042Y82528D02*
D03*
X3958D02*
D03*
D242*
X66395Y47140D02*
D03*
X72000Y97000D02*
D03*
X122000Y80000D02*
D03*
Y156000D02*
D03*
X4096Y4050D02*
D03*
X72000D02*
D03*
X34000Y110000D02*
D03*
X95000Y156000D02*
D03*
X4100D02*
D03*
X122000Y4050D02*
D03*
D243*
X45869Y84413D02*
D03*
X34871Y4788D02*
D03*
X45820Y4829D02*
D03*
X49028Y131343D02*
D03*
Y139213D02*
D03*
X49024Y147085D02*
D03*
X49024Y154960D02*
D03*
X34930Y16202D02*
D03*
X45879Y16243D02*
D03*
X34940Y27547D02*
D03*
X45889Y27588D02*
D03*
X34940Y38912D02*
D03*
X45889Y38953D02*
D03*
X34950Y50295D02*
D03*
X45899Y50336D02*
D03*
X34950Y61627D02*
D03*
X45899Y61668D02*
D03*
X34920Y73022D02*
D03*
X45869Y73063D02*
D03*
X34920Y84372D02*
D03*
D244*
X88920Y154729D02*
D03*
X89006Y135857D02*
D03*
X74814Y62060D02*
D03*
X74649Y85604D02*
D03*
X75410Y40590D02*
D03*
X75394Y16471D02*
D03*
D264*
X22980Y83935D02*
D03*
Y83191D02*
D03*
X33093Y83998D02*
D03*
Y83558D02*
D03*
X27874Y8851D02*
D03*
Y9595D02*
D03*
X22931Y4351D02*
D03*
Y3607D02*
D03*
X66112Y132212D02*
D03*
Y131467D02*
D03*
X28152Y130712D02*
D03*
Y131456D02*
D03*
X17302Y131446D02*
D03*
Y130701D02*
D03*
X66112Y139337D02*
D03*
Y140082D02*
D03*
X28152Y139326D02*
D03*
Y138582D02*
D03*
X17302Y138571D02*
D03*
Y139316D02*
D03*
X66108Y147954D02*
D03*
Y147210D02*
D03*
X28148Y146455D02*
D03*
Y147199D02*
D03*
X17298Y147188D02*
D03*
Y146444D02*
D03*
X66108Y155085D02*
D03*
Y155829D02*
D03*
X28148Y155074D02*
D03*
Y154329D02*
D03*
X17298Y154319D02*
D03*
Y155063D02*
D03*
X27933Y20264D02*
D03*
Y21008D02*
D03*
X22990Y15765D02*
D03*
Y15021D02*
D03*
X27943Y31609D02*
D03*
Y32353D02*
D03*
X23000Y27110D02*
D03*
Y26366D02*
D03*
X27943Y42974D02*
D03*
Y43718D02*
D03*
X23000Y38475D02*
D03*
Y37731D02*
D03*
X27953Y54357D02*
D03*
Y55101D02*
D03*
X23010Y49858D02*
D03*
Y49114D02*
D03*
X27953Y65689D02*
D03*
Y66433D02*
D03*
X23010Y61190D02*
D03*
Y60446D02*
D03*
X27923Y77084D02*
D03*
Y77828D02*
D03*
X22980Y72585D02*
D03*
Y71841D02*
D03*
X27923Y88434D02*
D03*
Y89178D02*
D03*
X32990Y3974D02*
D03*
Y4414D02*
D03*
X33113Y15836D02*
D03*
Y15396D02*
D03*
X33143Y26710D02*
D03*
Y27150D02*
D03*
X33113Y38533D02*
D03*
Y38093D02*
D03*
X33147Y49480D02*
D03*
Y49920D02*
D03*
X33135Y61257D02*
D03*
Y60817D02*
D03*
X33109Y72212D02*
D03*
Y72652D02*
D03*
D280*
X111730Y20894D02*
D03*
X111415D02*
D03*
X111421Y19956D02*
D03*
X111736D02*
D03*
D283*
X-3299Y78480D02*
D03*
X-3799D02*
D03*
X-4299D02*
D03*
X-4799D02*
D03*
X-5299D02*
D03*
X-5799D02*
D03*
X-6299D02*
D03*
X-6799D02*
D03*
X-3299Y77980D02*
D03*
X-3799D02*
D03*
X-4299D02*
D03*
X-4799D02*
D03*
X-5299D02*
D03*
X-5799D02*
D03*
X-6299D02*
D03*
X-6799D02*
D03*
X-3299Y77480D02*
D03*
X-3799D02*
D03*
X-4299D02*
D03*
X-4799D02*
D03*
X-5299D02*
D03*
X-5799D02*
D03*
X-6299D02*
D03*
X-6799D02*
D03*
X-3299Y76980D02*
D03*
X-3799D02*
D03*
X-4299D02*
D03*
X-4799D02*
D03*
X-5299D02*
D03*
X-5799D02*
D03*
X-6299D02*
D03*
X-6799D02*
D03*
X-3299Y76480D02*
D03*
X-3799D02*
D03*
X-4299D02*
D03*
X-4799D02*
D03*
X-5299D02*
D03*
X-5799D02*
D03*
X-6299D02*
D03*
X-6799D02*
D03*
X-3299Y75980D02*
D03*
X-3799D02*
D03*
X-4299D02*
D03*
X-4799D02*
D03*
X-5299D02*
D03*
X-5799D02*
D03*
X-6299D02*
D03*
X-6799D02*
D03*
X-3299Y75480D02*
D03*
X-3799D02*
D03*
X-4299D02*
D03*
X-4799D02*
D03*
X-5299D02*
D03*
X-5799D02*
D03*
X-6299D02*
D03*
X-6799D02*
D03*
X-3299Y74980D02*
D03*
X-3799D02*
D03*
X-4299D02*
D03*
X-4799D02*
D03*
X-5299D02*
D03*
X-5799D02*
D03*
X-6299D02*
D03*
X-6799D02*
D03*
X-3299Y74480D02*
D03*
X-3799D02*
D03*
X-4299D02*
D03*
X-4799D02*
D03*
X-5299D02*
D03*
X-5799D02*
D03*
X-6299D02*
D03*
X-6799D02*
D03*
X-3299Y73980D02*
D03*
X-3799D02*
D03*
X-4299D02*
D03*
X-4799D02*
D03*
X-5299D02*
D03*
X-5799D02*
D03*
X-6299D02*
D03*
X-6799D02*
D03*
X-3299Y73480D02*
D03*
X-3799D02*
D03*
X-4299D02*
D03*
X-4799D02*
D03*
X-5299D02*
D03*
X-5799D02*
D03*
X-6299D02*
D03*
X-6799D02*
D03*
X-3299Y72980D02*
D03*
X-3799D02*
D03*
X-4299D02*
D03*
X-4799D02*
D03*
X-5299D02*
D03*
X-5799D02*
D03*
X-6299D02*
D03*
X-6799D02*
D03*
X-3299Y72480D02*
D03*
X-3799D02*
D03*
X-4299D02*
D03*
X-4799D02*
D03*
X-5299D02*
D03*
X-5799D02*
D03*
X-6299D02*
D03*
X-6799D02*
D03*
X-3299Y71980D02*
D03*
X-3799D02*
D03*
X-4299D02*
D03*
X-4799D02*
D03*
X-5299D02*
D03*
X-5799D02*
D03*
X-6299D02*
D03*
X-6799D02*
D03*
X-3299Y71480D02*
D03*
X-3799D02*
D03*
X-4299D02*
D03*
X-4799D02*
D03*
X-5299D02*
D03*
X-5799D02*
D03*
X-6299D02*
D03*
X-6799D02*
D03*
X-3299Y70980D02*
D03*
X-3799D02*
D03*
X-4299D02*
D03*
X-4799D02*
D03*
X-5299D02*
D03*
X-5799D02*
D03*
X-6299D02*
D03*
X-6799D02*
D03*
X-3299Y70480D02*
D03*
X-3799D02*
D03*
X-4299D02*
D03*
X-4799D02*
D03*
X-5299D02*
D03*
X-5799D02*
D03*
X-6299D02*
D03*
X-6799D02*
D03*
X-3299Y69980D02*
D03*
X-3799D02*
D03*
X-4299D02*
D03*
X-4799D02*
D03*
X-5299D02*
D03*
X-5799D02*
D03*
X-6299D02*
D03*
X-6799D02*
D03*
X-3299Y69480D02*
D03*
X-3799D02*
D03*
X-4299D02*
D03*
X-4799D02*
D03*
X-5299D02*
D03*
X-5799D02*
D03*
X-6299D02*
D03*
X-6799D02*
D03*
X-3299Y68980D02*
D03*
X-3799D02*
D03*
X-4299D02*
D03*
X-4799D02*
D03*
X-5299D02*
D03*
X-5799D02*
D03*
X-6299D02*
D03*
X-6799D02*
D03*
X-3299Y68480D02*
D03*
X-3799D02*
D03*
X-4299D02*
D03*
X-4799D02*
D03*
X-5299D02*
D03*
X-5799D02*
D03*
X-6299D02*
D03*
X-6799D02*
D03*
X-3299Y67980D02*
D03*
X-3799D02*
D03*
X-4299D02*
D03*
X-4799D02*
D03*
X-5299D02*
D03*
X-5799D02*
D03*
X-6299D02*
D03*
X-6799D02*
D03*
X-3299Y67480D02*
D03*
X-3799D02*
D03*
X-4299D02*
D03*
X-4799D02*
D03*
X-5299D02*
D03*
X-5799D02*
D03*
X-6299D02*
D03*
X-6799D02*
D03*
X-3299Y66980D02*
D03*
X-3799D02*
D03*
X-4299D02*
D03*
X-4799D02*
D03*
X-5299D02*
D03*
X-5799D02*
D03*
X-6299D02*
D03*
X-6799D02*
D03*
X-3299Y66480D02*
D03*
X-3799D02*
D03*
X-4299D02*
D03*
X-4799D02*
D03*
X-5299D02*
D03*
X-5799D02*
D03*
X-6299D02*
D03*
X-6799D02*
D03*
X-3299Y65980D02*
D03*
X-3799D02*
D03*
X-4299D02*
D03*
X-4799D02*
D03*
X-5299D02*
D03*
X-5799D02*
D03*
X-6299D02*
D03*
X-6799D02*
D03*
X-3299Y65480D02*
D03*
X-3799D02*
D03*
X-4299D02*
D03*
X-4799D02*
D03*
X-5299D02*
D03*
X-5799D02*
D03*
X-6299D02*
D03*
X-6799D02*
D03*
X-3299Y64980D02*
D03*
X-3799D02*
D03*
X-4299D02*
D03*
X-4799D02*
D03*
X-5299D02*
D03*
X-5799D02*
D03*
X-6299D02*
D03*
X-6799D02*
D03*
X-3299Y64480D02*
D03*
X-3799D02*
D03*
X-4299D02*
D03*
X-4799D02*
D03*
X-5299D02*
D03*
X-5799D02*
D03*
X-6299D02*
D03*
X-6799D02*
D03*
X-3299Y63980D02*
D03*
X-3799D02*
D03*
X-4299D02*
D03*
X-4799D02*
D03*
X-5299D02*
D03*
X-5799D02*
D03*
X-6299D02*
D03*
X-6799D02*
D03*
X-3299Y63480D02*
D03*
X-3799D02*
D03*
X-4299D02*
D03*
X-4799D02*
D03*
X-5299D02*
D03*
X-5799D02*
D03*
X-6299D02*
D03*
X-6799D02*
D03*
X-3299Y62980D02*
D03*
X-3799D02*
D03*
X-4299D02*
D03*
X-4799D02*
D03*
X-5299D02*
D03*
X-5799D02*
D03*
X-6299D02*
D03*
X-6799D02*
D03*
X-3299Y62480D02*
D03*
X-3799D02*
D03*
X-4299D02*
D03*
X-4799D02*
D03*
X-5299D02*
D03*
X-5799D02*
D03*
X-6299D02*
D03*
X-6799D02*
D03*
X-3299Y61980D02*
D03*
X-3799D02*
D03*
X-4299D02*
D03*
X-4799D02*
D03*
X-5299D02*
D03*
X-5799D02*
D03*
X-6299D02*
D03*
X-6799D02*
D03*
X-3299Y61480D02*
D03*
X-3799D02*
D03*
X-4299D02*
D03*
X-4799D02*
D03*
X-5299D02*
D03*
X-5799D02*
D03*
X-6299D02*
D03*
X-6799D02*
D03*
X-3299Y60980D02*
D03*
X-3799D02*
D03*
X-4299D02*
D03*
X-4799D02*
D03*
X-5299D02*
D03*
X-5799D02*
D03*
X-6299D02*
D03*
X-6799D02*
D03*
X-3299Y60480D02*
D03*
X-3799D02*
D03*
X-4299D02*
D03*
X-4799D02*
D03*
X-5299D02*
D03*
X-5799D02*
D03*
X-6299D02*
D03*
X-6799D02*
D03*
X-3299Y59980D02*
D03*
X-3799D02*
D03*
X-4299D02*
D03*
X-4799D02*
D03*
X-5299D02*
D03*
X-5799D02*
D03*
X-6299D02*
D03*
X-6799D02*
D03*
X-3299Y59480D02*
D03*
X-3799D02*
D03*
X-4299D02*
D03*
X-4799D02*
D03*
X-5299D02*
D03*
X-5799D02*
D03*
X-6299D02*
D03*
X-6799D02*
D03*
X-3299Y58980D02*
D03*
X-3799D02*
D03*
X-4299D02*
D03*
X-4799D02*
D03*
X-5299D02*
D03*
X-5799D02*
D03*
X-6299D02*
D03*
X-6799D02*
D03*
X-3299Y108008D02*
D03*
X-3799D02*
D03*
X-4299D02*
D03*
X-4799D02*
D03*
X-5299D02*
D03*
X-5799D02*
D03*
X-6299D02*
D03*
X-6799D02*
D03*
X-3299Y107508D02*
D03*
X-3799D02*
D03*
X-4299D02*
D03*
X-4799D02*
D03*
X-5299D02*
D03*
X-5799D02*
D03*
X-6299D02*
D03*
X-6799D02*
D03*
X-3299Y107008D02*
D03*
X-3799D02*
D03*
X-4299D02*
D03*
X-4799D02*
D03*
X-5299D02*
D03*
X-5799D02*
D03*
X-6299D02*
D03*
X-6799D02*
D03*
X-3299Y106508D02*
D03*
X-3799D02*
D03*
X-4299D02*
D03*
X-4799D02*
D03*
X-5299D02*
D03*
X-5799D02*
D03*
X-6299D02*
D03*
X-6799D02*
D03*
X-3299Y106008D02*
D03*
X-3799D02*
D03*
X-4299D02*
D03*
X-4799D02*
D03*
X-5299D02*
D03*
X-5799D02*
D03*
X-6299D02*
D03*
X-6799D02*
D03*
X-3299Y105508D02*
D03*
X-3799D02*
D03*
X-4299D02*
D03*
X-4799D02*
D03*
X-5299D02*
D03*
X-5799D02*
D03*
X-6299D02*
D03*
X-6799D02*
D03*
X-3299Y105008D02*
D03*
X-3799D02*
D03*
X-4299D02*
D03*
X-4799D02*
D03*
X-5299D02*
D03*
X-5799D02*
D03*
X-6299D02*
D03*
X-6799D02*
D03*
X-3299Y104508D02*
D03*
X-3799D02*
D03*
X-4299D02*
D03*
X-4799D02*
D03*
X-5299D02*
D03*
X-5799D02*
D03*
X-6299D02*
D03*
X-6799D02*
D03*
X-3299Y104008D02*
D03*
X-3799D02*
D03*
X-4299D02*
D03*
X-4799D02*
D03*
X-5299D02*
D03*
X-5799D02*
D03*
X-6299D02*
D03*
X-6799D02*
D03*
X-3299Y103508D02*
D03*
X-3799D02*
D03*
X-4299D02*
D03*
X-4799D02*
D03*
X-5299D02*
D03*
X-5799D02*
D03*
X-6299D02*
D03*
X-6799D02*
D03*
X-3299Y103008D02*
D03*
X-3799D02*
D03*
X-4299D02*
D03*
X-4799D02*
D03*
X-5299D02*
D03*
X-5799D02*
D03*
X-6299D02*
D03*
X-6799D02*
D03*
X-3299Y102508D02*
D03*
X-3799D02*
D03*
X-4299D02*
D03*
X-4799D02*
D03*
X-5299D02*
D03*
X-5799D02*
D03*
X-6299D02*
D03*
X-6799D02*
D03*
X-3299Y102008D02*
D03*
X-3799D02*
D03*
X-4299D02*
D03*
X-4799D02*
D03*
X-5299D02*
D03*
X-5799D02*
D03*
X-6299D02*
D03*
X-6799D02*
D03*
X-3299Y101508D02*
D03*
X-3799D02*
D03*
X-4299D02*
D03*
X-4799D02*
D03*
X-5299D02*
D03*
X-5799D02*
D03*
X-6299D02*
D03*
X-6799D02*
D03*
X-3299Y101008D02*
D03*
X-3799D02*
D03*
X-4299D02*
D03*
X-4799D02*
D03*
X-5299D02*
D03*
X-5799D02*
D03*
X-6299D02*
D03*
X-6799D02*
D03*
X-3299Y100508D02*
D03*
X-3799D02*
D03*
X-4299D02*
D03*
X-4799D02*
D03*
X-5299D02*
D03*
X-5799D02*
D03*
X-6299D02*
D03*
X-6799D02*
D03*
X-3299Y100008D02*
D03*
X-3799D02*
D03*
X-4299D02*
D03*
X-4799D02*
D03*
X-5299D02*
D03*
X-5799D02*
D03*
X-6299D02*
D03*
X-6799D02*
D03*
X-3299Y99508D02*
D03*
X-3799D02*
D03*
X-4299D02*
D03*
X-4799D02*
D03*
X-5299D02*
D03*
X-5799D02*
D03*
X-6299D02*
D03*
X-6799D02*
D03*
X-3299Y99008D02*
D03*
X-3799D02*
D03*
X-4299D02*
D03*
X-4799D02*
D03*
X-5299D02*
D03*
X-5799D02*
D03*
X-6299D02*
D03*
X-6799D02*
D03*
X-3299Y98508D02*
D03*
X-3799D02*
D03*
X-4299D02*
D03*
X-4799D02*
D03*
X-5299D02*
D03*
X-5799D02*
D03*
X-6299D02*
D03*
X-6799D02*
D03*
X-3299Y98008D02*
D03*
X-3799D02*
D03*
X-4299D02*
D03*
X-4799D02*
D03*
X-5299D02*
D03*
X-5799D02*
D03*
X-6299D02*
D03*
X-6799D02*
D03*
X-3299Y97508D02*
D03*
X-3799D02*
D03*
X-4299D02*
D03*
X-4799D02*
D03*
X-5299D02*
D03*
X-5799D02*
D03*
X-6299D02*
D03*
X-6799D02*
D03*
X-3299Y97008D02*
D03*
X-3799D02*
D03*
X-4299D02*
D03*
X-4799D02*
D03*
X-5299D02*
D03*
X-5799D02*
D03*
X-6299D02*
D03*
X-6799D02*
D03*
X-3299Y96508D02*
D03*
X-3799D02*
D03*
X-4299D02*
D03*
X-4799D02*
D03*
X-5299D02*
D03*
X-5799D02*
D03*
X-6299D02*
D03*
X-6799D02*
D03*
X-3299Y96008D02*
D03*
X-3799D02*
D03*
X-4299D02*
D03*
X-4799D02*
D03*
X-5299D02*
D03*
X-5799D02*
D03*
X-6299D02*
D03*
X-6799D02*
D03*
X-3299Y95508D02*
D03*
X-3799D02*
D03*
X-4299D02*
D03*
X-4799D02*
D03*
X-5299D02*
D03*
X-5799D02*
D03*
X-6299D02*
D03*
X-6799D02*
D03*
X-3299Y95008D02*
D03*
X-3799D02*
D03*
X-4299D02*
D03*
X-4799D02*
D03*
X-5299D02*
D03*
X-5799D02*
D03*
X-6299D02*
D03*
X-6799D02*
D03*
X-3299Y94508D02*
D03*
X-3799D02*
D03*
X-4299D02*
D03*
X-4799D02*
D03*
X-5299D02*
D03*
X-5799D02*
D03*
X-6299D02*
D03*
X-6799D02*
D03*
X-3299Y94008D02*
D03*
X-3799D02*
D03*
X-4299D02*
D03*
X-4799D02*
D03*
X-5299D02*
D03*
X-5799D02*
D03*
X-6299D02*
D03*
X-6799D02*
D03*
X-3299Y93508D02*
D03*
X-3799D02*
D03*
X-4299D02*
D03*
X-4799D02*
D03*
X-5299D02*
D03*
X-5799D02*
D03*
X-6299D02*
D03*
X-6799D02*
D03*
X-3299Y93008D02*
D03*
X-3799D02*
D03*
X-4299D02*
D03*
X-4799D02*
D03*
X-5299D02*
D03*
X-5799D02*
D03*
X-6299D02*
D03*
X-6799D02*
D03*
X-3299Y92508D02*
D03*
X-3799D02*
D03*
X-4299D02*
D03*
X-4799D02*
D03*
X-5299D02*
D03*
X-5799D02*
D03*
X-6299D02*
D03*
X-6799D02*
D03*
X-3299Y92008D02*
D03*
X-3799D02*
D03*
X-4299D02*
D03*
X-4799D02*
D03*
X-5299D02*
D03*
X-5799D02*
D03*
X-6299D02*
D03*
X-6799D02*
D03*
X-3299Y91508D02*
D03*
X-3799D02*
D03*
X-4299D02*
D03*
X-4799D02*
D03*
X-5299D02*
D03*
X-5799D02*
D03*
X-6299D02*
D03*
X-6799D02*
D03*
X-3299Y91008D02*
D03*
X-3799D02*
D03*
X-4299D02*
D03*
X-4799D02*
D03*
X-5299D02*
D03*
X-5799D02*
D03*
X-6299D02*
D03*
X-6799D02*
D03*
X-3299Y90508D02*
D03*
X-3799D02*
D03*
X-4299D02*
D03*
X-4799D02*
D03*
X-5299D02*
D03*
X-5799D02*
D03*
X-6299D02*
D03*
X-6799D02*
D03*
X-3299Y90008D02*
D03*
X-3799D02*
D03*
X-4299D02*
D03*
X-4799D02*
D03*
X-5299D02*
D03*
X-5799D02*
D03*
X-6299D02*
D03*
X-6799D02*
D03*
X-3299Y89508D02*
D03*
X-3799D02*
D03*
X-4299D02*
D03*
X-4799D02*
D03*
X-5299D02*
D03*
X-5799D02*
D03*
X-6299D02*
D03*
X-6799D02*
D03*
X-3299Y89008D02*
D03*
X-3799D02*
D03*
X-4299D02*
D03*
X-4799D02*
D03*
X-5299D02*
D03*
X-5799D02*
D03*
X-6299D02*
D03*
X-6799D02*
D03*
X-3299Y88508D02*
D03*
X-3799D02*
D03*
X-4299D02*
D03*
X-4799D02*
D03*
X-5299D02*
D03*
X-5799D02*
D03*
X-6299D02*
D03*
X-6799D02*
D03*
D284*
X86648Y145918D02*
D03*
X86230Y146335D02*
D03*
X72662Y29392D02*
D03*
X73079Y28975D02*
D03*
X72135Y74297D02*
D03*
X72552Y73880D02*
D03*
D285*
X16505Y85697D02*
X16682Y85874D01*
X16485Y86196D02*
X16682Y85999D01*
Y85874D02*
Y85999D01*
X16138Y85697D02*
X16505D01*
X15939Y85897D02*
X16138Y85697D01*
X16834Y84765D02*
X16843D01*
X15969Y85414D02*
X16185D01*
X16969Y84630D02*
X17120Y84479D01*
X16843Y84765D02*
X16969Y84639D01*
X16185Y85414D02*
X16834Y84765D01*
X16969Y84630D02*
Y84639D01*
X15619Y85765D02*
X15969Y85414D01*
X19602Y87412D02*
X20237D01*
X20240Y87409D01*
X20292D01*
X18680Y88004D02*
X19275Y87409D01*
X18547Y87684D02*
X19142Y87088D01*
X19732D01*
X20428Y87092D02*
X21361Y88025D01*
X19599Y87409D02*
X19602Y87412D01*
X19732Y87088D02*
X19735Y87092D01*
X20428D01*
X19275Y87409D02*
X19599D01*
X20292D02*
X21041Y88157D01*
X21529Y88459D02*
X21544Y88474D01*
X21361Y88347D02*
X21473Y88459D01*
X21529D01*
X21361Y88025D02*
Y88347D01*
X17989Y87684D02*
X18547D01*
X17773Y87468D02*
X17989Y87684D01*
X16994Y87468D02*
X17773D01*
X16862Y86814D02*
X17209D01*
X16331Y87684D02*
X16779D01*
X16994Y87468D01*
X15939Y87291D02*
X16331Y87684D01*
X15939Y87044D02*
X16139Y86844D01*
X15939Y87044D02*
Y87291D01*
X16485Y86196D02*
Y86437D01*
X16862Y86814D01*
X16139Y86504D02*
Y86844D01*
X15939Y85897D02*
Y86304D01*
X16139Y86504D01*
X21355Y88794D02*
X21544D01*
X21041Y88479D02*
X21355Y88794D01*
X21041Y88157D02*
Y88479D01*
X16199Y88004D02*
X18680D01*
X15619Y85765D02*
Y87424D01*
X16199Y88004D01*
X17148Y84464D02*
X17156D01*
X17120Y84479D02*
X17133D01*
X17148Y84464D01*
M02*
