G04*
G04 #@! TF.GenerationSoftware,Altium Limited,Altium Designer,22.9.1 (49)*
G04*
G04 Layer_Color=255*
%FSLAX24Y24*%
%MOIN*%
G70*
G04*
G04 #@! TF.SameCoordinates,1003F32D-41C8-4A49-8BB1-F60438683A21*
G04*
G04*
G04 #@! TF.FilePolarity,Positive*
G04*
G01*
G75*
%ADD23R,0.0560X0.2160*%
%ADD24R,0.0098X0.0236*%
%ADD25O,0.0098X0.0236*%
%ADD26O,0.0236X0.0098*%
%ADD27O,0.0591X0.0177*%
%ADD28R,0.0591X0.0177*%
%ADD29R,0.4213X0.3386*%
%ADD30R,0.0394X0.1339*%
%ADD31O,0.0689X0.0177*%
%ADD32R,0.0689X0.0177*%
%ADD33R,0.0280X0.0590*%
%ADD34R,0.0360X0.1000*%
%ADD35R,0.0750X0.1250*%
%ADD36R,0.0236X0.0433*%
%ADD37R,0.0157X0.0354*%
%ADD38R,0.0220X0.0430*%
%ADD39R,0.0236X0.0472*%
%ADD40R,0.1378X0.0866*%
%ADD41R,0.0236X0.0866*%
%ADD42R,0.1120X0.0650*%
%ADD43O,0.0165X0.0350*%
%ADD44R,0.0165X0.0350*%
%ADD45O,0.0610X0.0236*%
%ADD46R,0.0610X0.0236*%
%ADD47R,0.0189X0.0157*%
%ADD48R,0.0327X0.0248*%
%ADD49R,0.0480X0.0358*%
%ADD50C,0.0590*%
%ADD51R,0.1299X0.1598*%
%ADD52R,0.0787X0.2480*%
%ADD53R,0.0394X0.1969*%
%ADD54R,0.0394X0.1260*%
%ADD55R,0.0551X0.1142*%
%ADD56R,0.0250X0.0350*%
%ADD57R,0.0410X0.0710*%
%ADD58R,0.0630X0.0350*%
%ADD59R,0.0510X0.0280*%
%ADD60R,0.0260X0.0120*%
G04:AMPARAMS|DCode=61|XSize=24.5mil|YSize=24.5mil|CornerRadius=6.1mil|HoleSize=0mil|Usage=FLASHONLY|Rotation=180.000|XOffset=0mil|YOffset=0mil|HoleType=Round|Shape=RoundedRectangle|*
%AMROUNDEDRECTD61*
21,1,0.0245,0.0123,0,0,180.0*
21,1,0.0123,0.0245,0,0,180.0*
1,1,0.0123,-0.0061,0.0061*
1,1,0.0123,0.0061,0.0061*
1,1,0.0123,0.0061,-0.0061*
1,1,0.0123,-0.0061,-0.0061*
%
%ADD61ROUNDEDRECTD61*%
%ADD62R,0.1400X0.0800*%
%ADD63R,0.0354X0.0276*%
G04:AMPARAMS|DCode=64|XSize=9.8mil|YSize=23.6mil|CornerRadius=0mil|HoleSize=0mil|Usage=FLASHONLY|Rotation=135.000|XOffset=0mil|YOffset=0mil|HoleType=Round|Shape=Round|*
%AMOVALD64*
21,1,0.0138,0.0098,0.0000,0.0000,225.0*
1,1,0.0098,0.0049,0.0049*
1,1,0.0098,-0.0049,-0.0049*
%
%ADD64OVALD64*%

G04:AMPARAMS|DCode=65|XSize=9.8mil|YSize=23.6mil|CornerRadius=0mil|HoleSize=0mil|Usage=FLASHONLY|Rotation=135.000|XOffset=0mil|YOffset=0mil|HoleType=Round|Shape=Rectangle|*
%AMROTATEDRECTD65*
4,1,4,0.0118,0.0049,-0.0049,-0.0118,-0.0118,-0.0049,0.0049,0.0118,0.0118,0.0049,0.0*
%
%ADD65ROTATEDRECTD65*%

G04:AMPARAMS|DCode=66|XSize=9.8mil|YSize=23.6mil|CornerRadius=0mil|HoleSize=0mil|Usage=FLASHONLY|Rotation=45.000|XOffset=0mil|YOffset=0mil|HoleType=Round|Shape=Rectangle|*
%AMROTATEDRECTD66*
4,1,4,0.0049,-0.0118,-0.0118,0.0049,-0.0049,0.0118,0.0118,-0.0049,0.0049,-0.0118,0.0*
%
%ADD66ROTATEDRECTD66*%

%ADD67O,0.0500X0.0120*%
%ADD68R,0.0500X0.0120*%
%ADD69R,0.0787X0.0787*%
%ADD70R,0.1063X0.1063*%
%ADD71R,0.0335X0.0110*%
%ADD72R,0.0110X0.0335*%
%ADD73O,0.0110X0.0335*%
%ADD74R,0.0098X0.0098*%
%ADD75R,0.0236X0.0098*%
%ADD76O,0.0197X0.0098*%
%ADD77R,0.0197X0.0098*%
G04:AMPARAMS|DCode=78|XSize=31.5mil|YSize=11.8mil|CornerRadius=0mil|HoleSize=0mil|Usage=FLASHONLY|Rotation=135.000|XOffset=0mil|YOffset=0mil|HoleType=Round|Shape=Rectangle|*
%AMROTATEDRECTD78*
4,1,4,0.0153,-0.0070,0.0070,-0.0153,-0.0153,0.0070,-0.0070,0.0153,0.0153,-0.0070,0.0*
%
%ADD78ROTATEDRECTD78*%

G04:AMPARAMS|DCode=79|XSize=31.5mil|YSize=11.8mil|CornerRadius=0mil|HoleSize=0mil|Usage=FLASHONLY|Rotation=135.000|XOffset=0mil|YOffset=0mil|HoleType=Round|Shape=Round|*
%AMOVALD79*
21,1,0.0197,0.0118,0.0000,0.0000,135.0*
1,1,0.0118,0.0070,-0.0070*
1,1,0.0118,-0.0070,0.0070*
%
%ADD79OVALD79*%

G04:AMPARAMS|DCode=80|XSize=25.6mil|YSize=49.2mil|CornerRadius=0mil|HoleSize=0mil|Usage=FLASHONLY|Rotation=135.000|XOffset=0mil|YOffset=0mil|HoleType=Round|Shape=Rectangle|*
%AMROTATEDRECTD80*
4,1,4,0.0264,0.0084,-0.0084,-0.0264,-0.0264,-0.0084,0.0084,0.0264,0.0264,0.0084,0.0*
%
%ADD80ROTATEDRECTD80*%

%ADD81R,0.0650X0.1120*%
%ADD82R,0.0350X0.0165*%
%ADD83R,0.0126X0.0118*%
%ADD84R,0.0118X0.0126*%
%ADD85R,0.0980X0.0980*%
%ADD86R,0.0315X0.0551*%
%ADD87O,0.0315X0.0118*%
%ADD88R,0.0315X0.0118*%
%ADD89R,0.0300X0.0500*%
%ADD90R,0.0138X0.0394*%
%ADD91R,0.0492X0.0492*%
%ADD92R,0.0201X0.0098*%
%ADD93R,0.0098X0.0201*%
%ADD94R,0.1000X0.1260*%
%ADD95R,0.0276X0.0098*%
%ADD96R,0.0650X0.0937*%
%ADD97R,0.0300X0.0650*%
%ADD98O,0.0450X0.0300*%
%ADD99R,0.0450X0.0300*%
%ADD100R,0.0701X0.0906*%
%ADD101R,0.0630X0.0157*%
%ADD102O,0.0630X0.0157*%
%ADD103R,0.0866X0.0630*%
%ADD104R,0.0760X0.1100*%
%ADD105R,0.0335X0.0110*%
%ADD106R,0.0148X0.0148*%
%ADD107R,0.0443X0.0443*%
%ADD108O,0.0098X0.0276*%
%ADD109R,0.0098X0.0276*%
%ADD110R,0.0276X0.0098*%
%ADD111R,0.1020X0.1020*%
%ADD112O,0.0276X0.0098*%
%ADD113R,0.0157X0.0394*%
%ADD114O,0.0157X0.0394*%
%ADD115R,0.0600X0.1800*%
%ADD116R,0.1800X0.0600*%
%ADD117R,0.0600X0.0600*%
%ADD118R,0.0630X0.0197*%
G04:AMPARAMS|DCode=119|XSize=24.5mil|YSize=24.5mil|CornerRadius=6.1mil|HoleSize=0mil|Usage=FLASHONLY|Rotation=270.000|XOffset=0mil|YOffset=0mil|HoleType=Round|Shape=RoundedRectangle|*
%AMROUNDEDRECTD119*
21,1,0.0245,0.0123,0,0,270.0*
21,1,0.0123,0.0245,0,0,270.0*
1,1,0.0123,-0.0061,-0.0061*
1,1,0.0123,-0.0061,0.0061*
1,1,0.0123,0.0061,0.0061*
1,1,0.0123,0.0061,-0.0061*
%
%ADD119ROUNDEDRECTD119*%
%ADD120R,0.0350X0.0240*%
%ADD121R,0.0240X0.0350*%
%ADD122R,0.0350X0.0630*%
G04:AMPARAMS|DCode=123|XSize=24.5mil|YSize=24.5mil|CornerRadius=6.1mil|HoleSize=0mil|Usage=FLASHONLY|Rotation=45.000|XOffset=0mil|YOffset=0mil|HoleType=Round|Shape=RoundedRectangle|*
%AMROUNDEDRECTD123*
21,1,0.0245,0.0123,0,0,45.0*
21,1,0.0123,0.0245,0,0,45.0*
1,1,0.0123,0.0087,0.0000*
1,1,0.0123,0.0000,-0.0087*
1,1,0.0123,-0.0087,0.0000*
1,1,0.0123,0.0000,0.0087*
%
%ADD123ROUNDEDRECTD123*%
G04:AMPARAMS|DCode=124|XSize=24.5mil|YSize=24.5mil|CornerRadius=6.1mil|HoleSize=0mil|Usage=FLASHONLY|Rotation=135.000|XOffset=0mil|YOffset=0mil|HoleType=Round|Shape=RoundedRectangle|*
%AMROUNDEDRECTD124*
21,1,0.0245,0.0123,0,0,135.0*
21,1,0.0123,0.0245,0,0,135.0*
1,1,0.0123,0.0000,0.0087*
1,1,0.0123,0.0087,0.0000*
1,1,0.0123,0.0000,-0.0087*
1,1,0.0123,-0.0087,0.0000*
%
%ADD124ROUNDEDRECTD124*%
%ADD125R,0.0280X0.0510*%
%ADD126R,0.0350X0.0250*%
%ADD127R,0.1142X0.0551*%
%ADD128R,0.2480X0.0787*%
%ADD129R,0.1969X0.0394*%
%ADD130R,0.1100X0.0760*%
%ADD131R,0.0787X0.0787*%
%ADD132R,0.1260X0.0394*%
%ADD133R,0.0630X0.0866*%
%ADD134R,0.0472X0.0236*%
%ADD135R,0.0256X0.0492*%
%ADD136O,0.0300X0.0450*%
%ADD137R,0.0300X0.0450*%
%ADD138R,0.0866X0.1378*%
%ADD139R,0.0866X0.0236*%
%ADD140O,0.0236X0.0610*%
%ADD141R,0.0236X0.0610*%
%ADD142R,0.0177X0.0591*%
%ADD143O,0.0177X0.0591*%
G04:AMPARAMS|DCode=144|XSize=25.6mil|YSize=49.2mil|CornerRadius=0mil|HoleSize=0mil|Usage=FLASHONLY|Rotation=225.000|XOffset=0mil|YOffset=0mil|HoleType=Round|Shape=Rectangle|*
%AMROTATEDRECTD144*
4,1,4,-0.0084,0.0264,0.0264,-0.0084,0.0084,-0.0264,-0.0264,0.0084,-0.0084,0.0264,0.0*
%
%ADD144ROTATEDRECTD144*%

G04:AMPARAMS|DCode=145|XSize=31.5mil|YSize=11.8mil|CornerRadius=0mil|HoleSize=0mil|Usage=FLASHONLY|Rotation=225.000|XOffset=0mil|YOffset=0mil|HoleType=Round|Shape=Round|*
%AMOVALD145*
21,1,0.0197,0.0118,0.0000,0.0000,225.0*
1,1,0.0118,0.0070,0.0070*
1,1,0.0118,-0.0070,-0.0070*
%
%ADD145OVALD145*%

G04:AMPARAMS|DCode=146|XSize=31.5mil|YSize=11.8mil|CornerRadius=0mil|HoleSize=0mil|Usage=FLASHONLY|Rotation=225.000|XOffset=0mil|YOffset=0mil|HoleType=Round|Shape=Rectangle|*
%AMROTATEDRECTD146*
4,1,4,0.0070,0.0153,0.0153,0.0070,-0.0070,-0.0153,-0.0153,-0.0070,0.0070,0.0153,0.0*
%
%ADD146ROTATEDRECTD146*%

%ADD147R,0.0350X0.0165*%
%ADD148O,0.0350X0.0165*%
%ADD149R,0.0650X0.1120*%
%ADD202R,0.0669X0.0669*%
%ADD233C,0.0850*%
%ADD234R,0.0240X0.0500*%
%ADD235R,0.0320X0.0280*%
%ADD240C,0.3150*%
%ADD251P,0.2506X4X90.0*%
%ADD257C,0.0650*%
%ADD258C,0.0600*%
%ADD259R,0.0620X0.0620*%
%ADD260C,0.0620*%
%ADD261C,0.0571*%
%ADD262C,0.0800*%
%ADD263C,0.2500*%
%ADD264C,0.0220*%
D23*
X109137Y152384D02*
D03*
X110727D02*
D03*
X108723Y117286D02*
D03*
X110313D02*
D03*
X108381Y141328D02*
D03*
X109971D02*
D03*
D24*
X18764Y122749D02*
D03*
X16430Y123696D02*
D03*
X16233D02*
D03*
X16036D02*
D03*
X15839D02*
D03*
Y122594D02*
D03*
X16036D02*
D03*
X16233D02*
D03*
X16430D02*
D03*
X24677Y9496D02*
D03*
X16382Y103890D02*
D03*
X16185D02*
D03*
X15988D02*
D03*
X15791D02*
D03*
Y104992D02*
D03*
X15988D02*
D03*
X16185D02*
D03*
X16382D02*
D03*
X18715Y104045D02*
D03*
X24736Y20909D02*
D03*
X24746Y32254D02*
D03*
Y43619D02*
D03*
X24756Y55003D02*
D03*
Y66334D02*
D03*
X24726Y77729D02*
D03*
Y89079D02*
D03*
X16410Y111210D02*
D03*
X16213D02*
D03*
X16016D02*
D03*
X15819D02*
D03*
Y110108D02*
D03*
X16016D02*
D03*
X16213D02*
D03*
X16410D02*
D03*
X18744Y110264D02*
D03*
X16392Y116350D02*
D03*
X16196D02*
D03*
X15999D02*
D03*
X15802D02*
D03*
Y117453D02*
D03*
X15999D02*
D03*
X16196D02*
D03*
X16392D02*
D03*
X18726Y116506D02*
D03*
D25*
X18960Y122749D02*
D03*
X19157D02*
D03*
Y123655D02*
D03*
X18960D02*
D03*
X18764D02*
D03*
X24677Y8590D02*
D03*
X24480D02*
D03*
X24283D02*
D03*
Y9496D02*
D03*
X24480D02*
D03*
X18912Y104045D02*
D03*
X19109D02*
D03*
Y104951D02*
D03*
X18912D02*
D03*
X18715D02*
D03*
X24736Y20004D02*
D03*
X24539D02*
D03*
X24342D02*
D03*
Y20909D02*
D03*
X24539D02*
D03*
X24549Y32254D02*
D03*
X24352D02*
D03*
Y31349D02*
D03*
X24549D02*
D03*
X24746D02*
D03*
Y42714D02*
D03*
X24549D02*
D03*
X24352D02*
D03*
Y43619D02*
D03*
X24549D02*
D03*
X24559Y55003D02*
D03*
X24362D02*
D03*
Y54097D02*
D03*
X24559D02*
D03*
X24756D02*
D03*
Y65429D02*
D03*
X24559D02*
D03*
X24362D02*
D03*
Y66334D02*
D03*
X24559D02*
D03*
X24529Y77729D02*
D03*
X24332D02*
D03*
Y76824D02*
D03*
X24529D02*
D03*
X24726D02*
D03*
Y88174D02*
D03*
X24529D02*
D03*
X24332D02*
D03*
Y89079D02*
D03*
X24529D02*
D03*
X18941Y110264D02*
D03*
X19137D02*
D03*
Y111169D02*
D03*
X18941D02*
D03*
X18744D02*
D03*
X18726Y117411D02*
D03*
X18923D02*
D03*
X19120D02*
D03*
Y116506D02*
D03*
X18923D02*
D03*
D26*
X19413Y122907D02*
D03*
Y123104D02*
D03*
Y123300D02*
D03*
Y123497D02*
D03*
X18508D02*
D03*
Y123300D02*
D03*
Y123104D02*
D03*
Y122907D02*
D03*
X16686Y122849D02*
D03*
X24933Y9338D02*
D03*
Y9142D02*
D03*
Y8945D02*
D03*
Y8748D02*
D03*
X24028D02*
D03*
Y8945D02*
D03*
Y9142D02*
D03*
Y9338D02*
D03*
X16638Y104146D02*
D03*
X19365Y104203D02*
D03*
Y104400D02*
D03*
Y104597D02*
D03*
Y104793D02*
D03*
X18460D02*
D03*
Y104597D02*
D03*
Y104400D02*
D03*
Y104203D02*
D03*
X24992Y20752D02*
D03*
Y20555D02*
D03*
Y20358D02*
D03*
Y20161D02*
D03*
X24086D02*
D03*
Y20358D02*
D03*
Y20555D02*
D03*
Y20752D02*
D03*
X24096Y32097D02*
D03*
Y31900D02*
D03*
Y31703D02*
D03*
Y31506D02*
D03*
X25002D02*
D03*
Y31703D02*
D03*
Y31900D02*
D03*
Y32097D02*
D03*
Y43462D02*
D03*
Y43265D02*
D03*
Y43068D02*
D03*
Y42871D02*
D03*
X24096D02*
D03*
Y43068D02*
D03*
Y43265D02*
D03*
Y43462D02*
D03*
X24106Y54845D02*
D03*
Y54648D02*
D03*
Y54452D02*
D03*
Y54255D02*
D03*
X25012D02*
D03*
Y54452D02*
D03*
Y54648D02*
D03*
Y54845D02*
D03*
Y66177D02*
D03*
Y65980D02*
D03*
Y65783D02*
D03*
Y65586D02*
D03*
X24106D02*
D03*
Y65783D02*
D03*
Y65980D02*
D03*
Y66177D02*
D03*
X24076Y77572D02*
D03*
Y77375D02*
D03*
Y77178D02*
D03*
Y76981D02*
D03*
X24982D02*
D03*
Y77178D02*
D03*
Y77375D02*
D03*
Y77572D02*
D03*
Y88922D02*
D03*
Y88725D02*
D03*
Y88528D02*
D03*
Y88331D02*
D03*
X24076D02*
D03*
Y88528D02*
D03*
Y88725D02*
D03*
Y88922D02*
D03*
X16666Y110364D02*
D03*
X19393Y110421D02*
D03*
Y110618D02*
D03*
Y110815D02*
D03*
Y111012D02*
D03*
X18488D02*
D03*
Y110815D02*
D03*
Y110618D02*
D03*
Y110421D02*
D03*
X16648Y116606D02*
D03*
X18470Y116663D02*
D03*
Y116860D02*
D03*
Y117057D02*
D03*
Y117254D02*
D03*
X19376D02*
D03*
Y117057D02*
D03*
Y116860D02*
D03*
Y116663D02*
D03*
D27*
X118018Y24292D02*
D03*
X118018Y24548D02*
D03*
Y24804D02*
D03*
X118018Y25060D02*
D03*
Y25316D02*
D03*
Y25571D02*
D03*
Y25827D02*
D03*
Y26083D02*
D03*
X115735Y24292D02*
D03*
X115735Y24548D02*
D03*
Y24804D02*
D03*
X115735Y25060D02*
D03*
X115735Y25316D02*
D03*
Y25571D02*
D03*
Y25827D02*
D03*
X66387Y123919D02*
D03*
Y123663D02*
D03*
Y123407D02*
D03*
Y123151D02*
D03*
Y122896D02*
D03*
Y122640D02*
D03*
Y122384D02*
D03*
X68670Y124175D02*
D03*
Y123919D02*
D03*
Y123663D02*
D03*
Y123407D02*
D03*
Y123151D02*
D03*
Y122896D02*
D03*
Y122640D02*
D03*
Y122384D02*
D03*
X66387Y119689D02*
D03*
Y119434D02*
D03*
Y119178D02*
D03*
Y118922D02*
D03*
Y118666D02*
D03*
Y118410D02*
D03*
Y118154D02*
D03*
X68670Y119945D02*
D03*
Y119689D02*
D03*
Y119434D02*
D03*
Y119178D02*
D03*
Y118922D02*
D03*
Y118666D02*
D03*
Y118410D02*
D03*
Y118154D02*
D03*
X112862Y54034D02*
D03*
Y53778D02*
D03*
Y53522D02*
D03*
Y53266D02*
D03*
Y53010D02*
D03*
Y52754D02*
D03*
Y52498D02*
D03*
Y52242D02*
D03*
X115145Y54034D02*
D03*
Y53778D02*
D03*
Y53522D02*
D03*
Y53266D02*
D03*
Y53010D02*
D03*
Y52754D02*
D03*
Y52498D02*
D03*
X112878Y56809D02*
D03*
Y56553D02*
D03*
Y56297D02*
D03*
Y56041D02*
D03*
Y55785D02*
D03*
Y55529D02*
D03*
Y55273D02*
D03*
Y55017D02*
D03*
X115162Y56809D02*
D03*
Y56553D02*
D03*
Y56297D02*
D03*
Y56041D02*
D03*
Y55785D02*
D03*
Y55529D02*
D03*
Y55273D02*
D03*
X108608Y53138D02*
D03*
Y52882D02*
D03*
Y52626D02*
D03*
Y52370D02*
D03*
Y52114D02*
D03*
Y51858D02*
D03*
Y51603D02*
D03*
Y51347D02*
D03*
X110891Y53138D02*
D03*
Y52882D02*
D03*
Y52626D02*
D03*
Y52370D02*
D03*
Y52114D02*
D03*
Y51858D02*
D03*
Y51603D02*
D03*
X108076Y74626D02*
D03*
Y74370D02*
D03*
Y74114D02*
D03*
Y73858D02*
D03*
Y73602D02*
D03*
Y73346D02*
D03*
Y73090D02*
D03*
Y72834D02*
D03*
X110359Y74626D02*
D03*
Y74370D02*
D03*
Y74114D02*
D03*
Y73858D02*
D03*
Y73602D02*
D03*
Y73346D02*
D03*
Y73090D02*
D03*
X115097Y78633D02*
D03*
Y78889D02*
D03*
Y79144D02*
D03*
Y79400D02*
D03*
Y79656D02*
D03*
Y79912D02*
D03*
Y80168D02*
D03*
X112813Y78377D02*
D03*
Y78633D02*
D03*
Y78889D02*
D03*
Y79144D02*
D03*
Y79400D02*
D03*
Y79656D02*
D03*
Y79912D02*
D03*
Y80168D02*
D03*
X107978Y77516D02*
D03*
Y77260D02*
D03*
Y77004D02*
D03*
Y76748D02*
D03*
Y76492D02*
D03*
Y76236D02*
D03*
Y75980D02*
D03*
Y75724D02*
D03*
X110262Y77516D02*
D03*
Y77260D02*
D03*
Y77004D02*
D03*
Y76748D02*
D03*
Y76492D02*
D03*
Y76236D02*
D03*
Y75980D02*
D03*
X107996Y79963D02*
D03*
Y79707D02*
D03*
Y79452D02*
D03*
Y79196D02*
D03*
Y78940D02*
D03*
Y78684D02*
D03*
Y78428D02*
D03*
Y78172D02*
D03*
X110279Y79963D02*
D03*
Y79707D02*
D03*
Y79452D02*
D03*
Y79196D02*
D03*
Y78940D02*
D03*
Y78684D02*
D03*
Y78428D02*
D03*
X108031Y82445D02*
D03*
Y82189D02*
D03*
Y81933D02*
D03*
Y81677D02*
D03*
Y81421D02*
D03*
Y81165D02*
D03*
Y80909D02*
D03*
Y80654D02*
D03*
X110314Y82445D02*
D03*
Y82189D02*
D03*
Y81933D02*
D03*
Y81677D02*
D03*
Y81421D02*
D03*
Y81165D02*
D03*
Y80909D02*
D03*
X115235Y82923D02*
D03*
Y83179D02*
D03*
Y83434D02*
D03*
Y83690D02*
D03*
Y83946D02*
D03*
Y84202D02*
D03*
Y84458D02*
D03*
X112952Y82667D02*
D03*
Y82923D02*
D03*
Y83179D02*
D03*
Y83434D02*
D03*
Y83690D02*
D03*
Y83946D02*
D03*
Y84202D02*
D03*
Y84458D02*
D03*
X108013Y84979D02*
D03*
Y84723D02*
D03*
Y84467D02*
D03*
Y84211D02*
D03*
Y83955D02*
D03*
Y83699D02*
D03*
Y83443D02*
D03*
Y83187D02*
D03*
X110297Y84979D02*
D03*
Y84723D02*
D03*
Y84467D02*
D03*
Y84211D02*
D03*
Y83955D02*
D03*
Y83699D02*
D03*
Y83443D02*
D03*
X108031Y87429D02*
D03*
Y87173D02*
D03*
Y86917D02*
D03*
Y86661D02*
D03*
Y86405D02*
D03*
Y86149D02*
D03*
Y85894D02*
D03*
Y85638D02*
D03*
X110314Y87429D02*
D03*
Y87173D02*
D03*
Y86917D02*
D03*
Y86661D02*
D03*
Y86405D02*
D03*
Y86149D02*
D03*
Y85894D02*
D03*
X114683Y148745D02*
D03*
Y148489D02*
D03*
Y148233D02*
D03*
Y147977D02*
D03*
Y147721D02*
D03*
Y147465D02*
D03*
Y147209D02*
D03*
Y146953D02*
D03*
X116967Y148745D02*
D03*
Y148489D02*
D03*
Y148233D02*
D03*
Y147977D02*
D03*
Y147721D02*
D03*
Y147465D02*
D03*
Y147209D02*
D03*
X55337Y117120D02*
D03*
Y116864D02*
D03*
Y116608D02*
D03*
Y116352D02*
D03*
Y116096D02*
D03*
Y115840D02*
D03*
Y115584D02*
D03*
X57620Y117376D02*
D03*
Y117120D02*
D03*
Y116864D02*
D03*
Y116608D02*
D03*
Y116352D02*
D03*
Y116096D02*
D03*
Y115840D02*
D03*
Y115584D02*
D03*
D28*
X115735Y26083D02*
D03*
X66387Y124175D02*
D03*
Y119945D02*
D03*
X115145Y52242D02*
D03*
X115162Y55017D02*
D03*
X110891Y51347D02*
D03*
X110359Y72834D02*
D03*
X115097Y78377D02*
D03*
X110262Y75724D02*
D03*
X110279Y78172D02*
D03*
X110314Y80654D02*
D03*
X115235Y82667D02*
D03*
X110297Y83187D02*
D03*
X110314Y85638D02*
D03*
X116967Y146953D02*
D03*
X55337Y117376D02*
D03*
D29*
X104100Y113795D02*
D03*
D30*
X102761Y117968D02*
D03*
X103431D02*
D03*
X104100D02*
D03*
X104769D02*
D03*
X105439D02*
D03*
D31*
X118974Y74936D02*
D03*
Y75192D02*
D03*
Y75448D02*
D03*
Y75704D02*
D03*
Y75960D02*
D03*
Y76216D02*
D03*
Y76472D02*
D03*
Y76727D02*
D03*
Y76983D02*
D03*
Y77239D02*
D03*
X116139Y74936D02*
D03*
Y75192D02*
D03*
Y75448D02*
D03*
Y75704D02*
D03*
Y75960D02*
D03*
Y76216D02*
D03*
Y76472D02*
D03*
Y76727D02*
D03*
Y76983D02*
D03*
X111649Y60568D02*
D03*
Y60312D02*
D03*
Y60056D02*
D03*
Y59800D02*
D03*
Y59544D02*
D03*
Y59288D02*
D03*
Y59032D02*
D03*
Y58776D02*
D03*
Y58520D02*
D03*
Y58264D02*
D03*
X114484Y60568D02*
D03*
Y60312D02*
D03*
Y60056D02*
D03*
Y59800D02*
D03*
Y59544D02*
D03*
Y59288D02*
D03*
Y59032D02*
D03*
Y58776D02*
D03*
Y58520D02*
D03*
X108003Y69344D02*
D03*
Y69088D02*
D03*
Y68832D02*
D03*
Y68576D02*
D03*
Y68320D02*
D03*
Y68065D02*
D03*
Y67809D02*
D03*
Y67553D02*
D03*
Y67297D02*
D03*
Y67041D02*
D03*
X110837Y69344D02*
D03*
Y69088D02*
D03*
Y68832D02*
D03*
Y68576D02*
D03*
Y68320D02*
D03*
Y68065D02*
D03*
Y67809D02*
D03*
Y67553D02*
D03*
Y67297D02*
D03*
X111601Y66404D02*
D03*
Y66148D02*
D03*
Y65892D02*
D03*
Y65636D02*
D03*
Y65380D02*
D03*
Y65124D02*
D03*
Y64868D02*
D03*
Y64613D02*
D03*
Y64357D02*
D03*
Y64101D02*
D03*
X114436Y66404D02*
D03*
Y66148D02*
D03*
Y65892D02*
D03*
Y65636D02*
D03*
Y65380D02*
D03*
Y65124D02*
D03*
Y64868D02*
D03*
Y64613D02*
D03*
Y64357D02*
D03*
X111598Y72054D02*
D03*
Y71798D02*
D03*
Y71542D02*
D03*
Y71286D02*
D03*
Y71030D02*
D03*
Y70774D02*
D03*
Y70518D02*
D03*
Y70263D02*
D03*
Y70007D02*
D03*
Y69751D02*
D03*
X114433Y72054D02*
D03*
Y71798D02*
D03*
Y71542D02*
D03*
Y71286D02*
D03*
Y71030D02*
D03*
Y70774D02*
D03*
Y70518D02*
D03*
Y70263D02*
D03*
Y70007D02*
D03*
D32*
X116139Y77239D02*
D03*
X114484Y58264D02*
D03*
X110837Y67041D02*
D03*
X114436Y64101D02*
D03*
X114433Y69751D02*
D03*
D33*
X37323Y155271D02*
D03*
X36142D02*
D03*
X59976Y131837D02*
D03*
X61157D02*
D03*
X57537Y131848D02*
D03*
X56356D02*
D03*
X45017Y131843D02*
D03*
X46198D02*
D03*
X37327Y131653D02*
D03*
X36146D02*
D03*
X59976Y139707D02*
D03*
X61157D02*
D03*
X57537Y139718D02*
D03*
X56356D02*
D03*
X45017Y139713D02*
D03*
X46198D02*
D03*
X37327Y139523D02*
D03*
X36146D02*
D03*
X59972Y147580D02*
D03*
X61153D02*
D03*
X57533Y147591D02*
D03*
X56352D02*
D03*
X45012Y147586D02*
D03*
X46193D02*
D03*
X37323Y147396D02*
D03*
X36142D02*
D03*
X59972Y155455D02*
D03*
X61153D02*
D03*
X57533Y155465D02*
D03*
X56352D02*
D03*
X45013Y155461D02*
D03*
X46194D02*
D03*
D34*
X36733Y155070D02*
D03*
X60567Y131637D02*
D03*
X56947Y131648D02*
D03*
X45607Y131643D02*
D03*
X36737Y131453D02*
D03*
X60567Y139507D02*
D03*
X56947Y139518D02*
D03*
X45607Y139513D02*
D03*
X36737Y139323D02*
D03*
X60563Y147380D02*
D03*
X56943Y147391D02*
D03*
X45603Y147386D02*
D03*
X36732Y147196D02*
D03*
X60563Y155255D02*
D03*
X56943Y155265D02*
D03*
X45603Y155261D02*
D03*
D35*
X36742Y154089D02*
D03*
X60576Y130656D02*
D03*
X56956Y130667D02*
D03*
X45617Y130662D02*
D03*
X36746Y130472D02*
D03*
X60576Y138526D02*
D03*
X56956Y138537D02*
D03*
X45617Y138532D02*
D03*
X36746Y138342D02*
D03*
X60572Y146398D02*
D03*
X56952Y146409D02*
D03*
X45612Y146405D02*
D03*
X36742Y146214D02*
D03*
X60572Y154273D02*
D03*
X56952Y154284D02*
D03*
X45613Y154280D02*
D03*
D36*
X56391Y85904D02*
D03*
X56017D02*
D03*
X55643D02*
D03*
X56391Y84881D02*
D03*
X56017D02*
D03*
X55643D02*
D03*
X56343Y6321D02*
D03*
X55969D02*
D03*
X55595D02*
D03*
X56343Y5297D02*
D03*
X55969D02*
D03*
X55595D02*
D03*
X55653Y16711D02*
D03*
X56027D02*
D03*
X56401D02*
D03*
X55653Y17734D02*
D03*
X56027D02*
D03*
X56401D02*
D03*
X56411Y29079D02*
D03*
X56037D02*
D03*
X55663D02*
D03*
X56411Y28056D02*
D03*
X56037D02*
D03*
X55663D02*
D03*
X56411Y40444D02*
D03*
X56037D02*
D03*
X55663D02*
D03*
X56411Y39421D02*
D03*
X56037D02*
D03*
X55663D02*
D03*
X55673Y50804D02*
D03*
X56047D02*
D03*
X56421D02*
D03*
X55673Y51828D02*
D03*
X56047D02*
D03*
X56421D02*
D03*
Y63159D02*
D03*
X56047D02*
D03*
X55673D02*
D03*
X56421Y62136D02*
D03*
X56047D02*
D03*
X55673D02*
D03*
X56391Y74554D02*
D03*
X56017D02*
D03*
X55643D02*
D03*
X56391Y73531D02*
D03*
X56017D02*
D03*
X55643D02*
D03*
D37*
X58382Y84829D02*
D03*
X57862D02*
D03*
Y85579D02*
D03*
X58122D02*
D03*
X58382D02*
D03*
X58333Y5995D02*
D03*
X58073D02*
D03*
X57813D02*
D03*
Y5245D02*
D03*
X58333D02*
D03*
X58392Y16659D02*
D03*
X57872D02*
D03*
Y17409D02*
D03*
X58132D02*
D03*
X58392D02*
D03*
X58402Y28754D02*
D03*
X58142D02*
D03*
X57882D02*
D03*
Y28004D02*
D03*
X58402D02*
D03*
Y39369D02*
D03*
X57882D02*
D03*
Y40119D02*
D03*
X58142D02*
D03*
X58402D02*
D03*
X58412Y51502D02*
D03*
X58152D02*
D03*
X57892D02*
D03*
Y50752D02*
D03*
X58412D02*
D03*
Y62084D02*
D03*
X57892D02*
D03*
Y62834D02*
D03*
X58152D02*
D03*
X58412D02*
D03*
X58382Y73479D02*
D03*
X57862D02*
D03*
Y74229D02*
D03*
X58122D02*
D03*
X58382D02*
D03*
D38*
X20782Y154694D02*
D03*
X21152D02*
D03*
X21522D02*
D03*
Y155644D02*
D03*
X21152D02*
D03*
X20782D02*
D03*
X25118Y132022D02*
D03*
X25488D02*
D03*
X25858D02*
D03*
Y131072D02*
D03*
X25488D02*
D03*
X25118D02*
D03*
X20786Y132027D02*
D03*
X21156D02*
D03*
X21526D02*
D03*
Y131077D02*
D03*
X21156D02*
D03*
X20786D02*
D03*
X25118Y138942D02*
D03*
X25488D02*
D03*
X25858D02*
D03*
Y139892D02*
D03*
X25488D02*
D03*
X25118D02*
D03*
X20786Y138947D02*
D03*
X21156D02*
D03*
X21526D02*
D03*
Y139897D02*
D03*
X21156D02*
D03*
X20786D02*
D03*
X25113Y146814D02*
D03*
X25483D02*
D03*
X25853D02*
D03*
Y147764D02*
D03*
X25483D02*
D03*
X25113D02*
D03*
X20782Y146819D02*
D03*
X21152D02*
D03*
X21522D02*
D03*
Y147769D02*
D03*
X21152D02*
D03*
X20782D02*
D03*
X25114Y155639D02*
D03*
X25484D02*
D03*
X25854D02*
D03*
Y154689D02*
D03*
X25484D02*
D03*
X25114D02*
D03*
D39*
X80186Y73051D02*
D03*
X80934D02*
D03*
X80560Y73917D02*
D03*
X70070Y155580D02*
D03*
X69963Y129617D02*
D03*
X70711D02*
D03*
X70337Y130484D02*
D03*
X70070Y131922D02*
D03*
Y139792D02*
D03*
Y147665D02*
D03*
D40*
X104306Y149478D02*
D03*
D41*
X103806Y151919D02*
D03*
X104306D02*
D03*
X104806D02*
D03*
X105306D02*
D03*
X103306D02*
D03*
D42*
X67691Y87093D02*
D03*
X67643Y7509D02*
D03*
X82479Y130777D02*
D03*
Y138647D02*
D03*
X82475Y146519D02*
D03*
X82475Y154394D02*
D03*
X84758Y17421D02*
D03*
X85500Y39500D02*
D03*
X85050Y61952D02*
D03*
X84800Y84770D02*
D03*
X98783Y137985D02*
D03*
X98750Y153421D02*
D03*
X67701Y18923D02*
D03*
X67711Y30268D02*
D03*
Y41633D02*
D03*
X67721Y53016D02*
D03*
Y64348D02*
D03*
X67691Y75743D02*
D03*
D43*
X68331Y87922D02*
D03*
X68075D02*
D03*
X67819D02*
D03*
X67563D02*
D03*
X67307D02*
D03*
X67051D02*
D03*
X68331Y86264D02*
D03*
X68075D02*
D03*
X67819D02*
D03*
X67563D02*
D03*
X67307D02*
D03*
X67259Y6681D02*
D03*
X67515D02*
D03*
X67770D02*
D03*
X68026D02*
D03*
X68282D02*
D03*
X67003Y8338D02*
D03*
X67259D02*
D03*
X67515D02*
D03*
X67770D02*
D03*
X68026D02*
D03*
X68282D02*
D03*
X83119Y131605D02*
D03*
X82863D02*
D03*
X82607D02*
D03*
X82351D02*
D03*
X82095D02*
D03*
X81839D02*
D03*
X83119Y129948D02*
D03*
X82863D02*
D03*
X82607D02*
D03*
X82351D02*
D03*
X82095D02*
D03*
Y137818D02*
D03*
X82351D02*
D03*
X82607D02*
D03*
X82863D02*
D03*
X83119D02*
D03*
X81839Y139475D02*
D03*
X82095D02*
D03*
X82351D02*
D03*
X82607D02*
D03*
X82863D02*
D03*
X83119D02*
D03*
X82091Y145690D02*
D03*
X82347D02*
D03*
X82602D02*
D03*
X82858D02*
D03*
X83114D02*
D03*
X81835Y147348D02*
D03*
X82091D02*
D03*
X82347D02*
D03*
X82602D02*
D03*
X82858D02*
D03*
X83114D02*
D03*
X83115Y155223D02*
D03*
X82859D02*
D03*
X82603D02*
D03*
X82347D02*
D03*
X82091D02*
D03*
X81835D02*
D03*
X83115Y153565D02*
D03*
X82859D02*
D03*
X82603D02*
D03*
X82347D02*
D03*
X82091D02*
D03*
X85397Y18249D02*
D03*
X85141Y18249D02*
D03*
X84885D02*
D03*
X84630Y18249D02*
D03*
X84374Y18249D02*
D03*
X84118Y18249D02*
D03*
X85397Y16592D02*
D03*
X85141Y16592D02*
D03*
X84885D02*
D03*
X84630D02*
D03*
X84374D02*
D03*
X85116Y38671D02*
D03*
X85372D02*
D03*
X85628D02*
D03*
X85884D02*
D03*
X86140D02*
D03*
X84860Y40329D02*
D03*
X85116D02*
D03*
X85372D02*
D03*
X85628D02*
D03*
X85884D02*
D03*
X86140D02*
D03*
X85690Y62780D02*
D03*
X85434D02*
D03*
X85178D02*
D03*
X84922D02*
D03*
X84666D02*
D03*
X84410D02*
D03*
X85690Y61123D02*
D03*
X85434D02*
D03*
X85178D02*
D03*
X84922D02*
D03*
X84666D02*
D03*
X85440Y85599D02*
D03*
X85184Y85599D02*
D03*
X84928D02*
D03*
X84672Y85599D02*
D03*
X84416Y85599D02*
D03*
X84160Y85599D02*
D03*
X85440Y83941D02*
D03*
X85184D02*
D03*
X84928D02*
D03*
X84672D02*
D03*
X84416D02*
D03*
X99423Y138814D02*
D03*
X99167D02*
D03*
X98911D02*
D03*
X98655D02*
D03*
X98399D02*
D03*
X98143D02*
D03*
X99423Y137157D02*
D03*
X99167Y137157D02*
D03*
X98911D02*
D03*
X98655D02*
D03*
X98399D02*
D03*
X99390Y154249D02*
D03*
X99134Y154249D02*
D03*
X98878D02*
D03*
X98622D02*
D03*
X98366D02*
D03*
X98110Y154249D02*
D03*
X99390Y152592D02*
D03*
X99134D02*
D03*
X98878D02*
D03*
X98622D02*
D03*
X98366D02*
D03*
X67317Y18094D02*
D03*
X67573D02*
D03*
X67829D02*
D03*
X68085D02*
D03*
X68341D02*
D03*
X67061Y19752D02*
D03*
X67317D02*
D03*
X67573D02*
D03*
X67829D02*
D03*
X68085D02*
D03*
X68341D02*
D03*
X68351Y31097D02*
D03*
X68095D02*
D03*
X67839D02*
D03*
X67583D02*
D03*
X67327D02*
D03*
X67071D02*
D03*
X68351Y29439D02*
D03*
X68095D02*
D03*
X67839D02*
D03*
X67583D02*
D03*
X67327D02*
D03*
Y40804D02*
D03*
X67583D02*
D03*
X67839D02*
D03*
X68095D02*
D03*
X68351D02*
D03*
X67071Y42462D02*
D03*
X67327D02*
D03*
X67583D02*
D03*
X67839D02*
D03*
X68095D02*
D03*
X68351D02*
D03*
X68361Y53845D02*
D03*
X68105D02*
D03*
X67849D02*
D03*
X67593D02*
D03*
X67337D02*
D03*
X67081D02*
D03*
X68361Y52187D02*
D03*
X68105D02*
D03*
X67849D02*
D03*
X67593D02*
D03*
X67337D02*
D03*
X68361Y65177D02*
D03*
X68105D02*
D03*
X67849D02*
D03*
X67593D02*
D03*
X67337D02*
D03*
X67081D02*
D03*
X68361Y63519D02*
D03*
X68105D02*
D03*
X67849D02*
D03*
X67593D02*
D03*
X67337D02*
D03*
X68331Y76572D02*
D03*
X68075D02*
D03*
X67819D02*
D03*
X67563D02*
D03*
X67307D02*
D03*
X67051D02*
D03*
X68331Y74914D02*
D03*
X68075D02*
D03*
X67819D02*
D03*
X67563D02*
D03*
X67307D02*
D03*
D44*
X67051Y86264D02*
D03*
X67003Y6681D02*
D03*
X81839Y129948D02*
D03*
Y137818D02*
D03*
X81835Y145690D02*
D03*
X81835Y153565D02*
D03*
X84118Y16592D02*
D03*
X84860Y38671D02*
D03*
X84410Y61123D02*
D03*
X84160Y83941D02*
D03*
X98143Y137157D02*
D03*
X98110Y152592D02*
D03*
X67061Y18094D02*
D03*
X67071Y29439D02*
D03*
Y40804D02*
D03*
X67081Y52187D02*
D03*
Y63519D02*
D03*
X67051Y74914D02*
D03*
D45*
X108430Y64025D02*
D03*
Y63525D02*
D03*
Y63025D02*
D03*
Y62525D02*
D03*
Y62025D02*
D03*
Y61525D02*
D03*
Y61025D02*
D03*
Y60525D02*
D03*
X110556Y64025D02*
D03*
Y63525D02*
D03*
Y63025D02*
D03*
Y62525D02*
D03*
Y62025D02*
D03*
Y61525D02*
D03*
Y61025D02*
D03*
X109277Y33923D02*
D03*
Y33423D02*
D03*
Y32923D02*
D03*
Y32423D02*
D03*
Y31923D02*
D03*
Y31423D02*
D03*
Y30923D02*
D03*
Y30423D02*
D03*
X111403Y33923D02*
D03*
Y33423D02*
D03*
Y32923D02*
D03*
Y32423D02*
D03*
Y31923D02*
D03*
Y31423D02*
D03*
Y30923D02*
D03*
X109277Y38167D02*
D03*
Y37667D02*
D03*
Y37167D02*
D03*
Y36667D02*
D03*
Y36167D02*
D03*
Y35667D02*
D03*
Y35167D02*
D03*
Y34667D02*
D03*
X111403Y38167D02*
D03*
Y37667D02*
D03*
Y37167D02*
D03*
Y36667D02*
D03*
Y36167D02*
D03*
Y35667D02*
D03*
Y35167D02*
D03*
X108582Y58213D02*
D03*
Y57713D02*
D03*
Y57213D02*
D03*
Y56713D02*
D03*
Y56213D02*
D03*
Y55713D02*
D03*
Y55213D02*
D03*
Y54713D02*
D03*
X110708Y58213D02*
D03*
Y57713D02*
D03*
Y57213D02*
D03*
Y56713D02*
D03*
Y56213D02*
D03*
Y55713D02*
D03*
Y55213D02*
D03*
D46*
X110556Y60525D02*
D03*
X111403Y30423D02*
D03*
Y34667D02*
D03*
X110708Y54713D02*
D03*
D47*
X4233Y90194D02*
D03*
X4942D02*
D03*
D48*
X97369Y5622D02*
D03*
Y6488D02*
D03*
D49*
X57181Y84434D02*
D03*
Y85722D02*
D03*
X57132Y6138D02*
D03*
Y4851D02*
D03*
X57191Y17552D02*
D03*
Y16264D02*
D03*
X57201Y27609D02*
D03*
Y28897D02*
D03*
Y38974D02*
D03*
Y40262D02*
D03*
X57211Y50358D02*
D03*
Y51645D02*
D03*
Y61689D02*
D03*
Y62977D02*
D03*
X57181Y73084D02*
D03*
Y74372D02*
D03*
D50*
X40706Y121550D02*
D03*
X32981Y10113D02*
D03*
X63028Y3544D02*
D03*
X74276Y131867D02*
D03*
Y139737D02*
D03*
X74272Y147610D02*
D03*
X74272Y155485D02*
D03*
X25717Y103128D02*
D03*
X105090Y15128D02*
D03*
Y55163D02*
D03*
Y25143D02*
D03*
Y65133D02*
D03*
Y35124D02*
D03*
Y75133D02*
D03*
Y45120D02*
D03*
Y85133D02*
D03*
X51200Y117377D02*
D03*
X33039Y21527D02*
D03*
X63086Y14957D02*
D03*
X33049Y32872D02*
D03*
X63096Y26302D02*
D03*
X33049Y44237D02*
D03*
X63096Y37667D02*
D03*
X33059Y55620D02*
D03*
X63106Y49051D02*
D03*
X33059Y66951D02*
D03*
X63106Y60382D02*
D03*
X33029Y78347D02*
D03*
X63076Y71777D02*
D03*
X33029Y89697D02*
D03*
X63076Y83127D02*
D03*
X25745Y109346D02*
D03*
X25728Y115589D02*
D03*
X25765Y121832D02*
D03*
X40706Y113350D02*
D03*
D51*
X105770Y144089D02*
D03*
X109621D02*
D03*
D52*
X100168Y108852D02*
D03*
X97412D02*
D03*
D53*
X86601Y22240D02*
D03*
X88845D02*
D03*
X89535Y15930D02*
D03*
X87291D02*
D03*
D54*
X1460Y90871D02*
D03*
X3231D02*
D03*
X4257Y84558D02*
D03*
X2486D02*
D03*
D55*
X104467Y141599D02*
D03*
X105884D02*
D03*
D56*
X97207Y153352D02*
D03*
Y154452D02*
D03*
X97567Y153352D02*
D03*
Y154452D02*
D03*
X66082Y7441D02*
D03*
Y8541D02*
D03*
X66442Y7441D02*
D03*
Y8541D02*
D03*
X81306Y131823D02*
D03*
Y130723D02*
D03*
X80946Y131823D02*
D03*
Y130723D02*
D03*
Y138593D02*
D03*
Y139693D02*
D03*
X81306Y138593D02*
D03*
Y139693D02*
D03*
X81302Y147565D02*
D03*
Y146465D02*
D03*
X80942Y147565D02*
D03*
Y146465D02*
D03*
X80942Y154340D02*
D03*
Y155440D02*
D03*
X81302Y154340D02*
D03*
Y155440D02*
D03*
X83522Y18391D02*
D03*
Y17291D02*
D03*
X83162Y18391D02*
D03*
Y17291D02*
D03*
X84317Y40523D02*
D03*
Y39423D02*
D03*
X83957Y40523D02*
D03*
Y39423D02*
D03*
X83257Y84670D02*
D03*
Y85770D02*
D03*
X83617Y84670D02*
D03*
Y85770D02*
D03*
X102050Y127780D02*
D03*
Y128880D02*
D03*
X102410Y127780D02*
D03*
Y128880D02*
D03*
X66140Y18854D02*
D03*
Y19954D02*
D03*
X66500Y18854D02*
D03*
Y19954D02*
D03*
X66510Y31299D02*
D03*
Y30199D02*
D03*
X66150Y31299D02*
D03*
Y30199D02*
D03*
Y41564D02*
D03*
Y42664D02*
D03*
X66510Y41564D02*
D03*
Y42664D02*
D03*
X66520Y54048D02*
D03*
Y52948D02*
D03*
X66160Y54048D02*
D03*
Y52948D02*
D03*
Y64279D02*
D03*
Y65379D02*
D03*
X66520Y64279D02*
D03*
Y65379D02*
D03*
X66490Y76774D02*
D03*
Y75674D02*
D03*
X66130Y76774D02*
D03*
Y75674D02*
D03*
Y87024D02*
D03*
Y88124D02*
D03*
X66490Y87024D02*
D03*
Y88124D02*
D03*
X97240Y137886D02*
D03*
Y138986D02*
D03*
X97600Y137886D02*
D03*
Y138986D02*
D03*
X83507Y61886D02*
D03*
Y62986D02*
D03*
X83867Y61886D02*
D03*
Y62986D02*
D03*
D57*
X23620Y83563D02*
D03*
X22340D02*
D03*
X27234Y9223D02*
D03*
X28514D02*
D03*
X23571Y3979D02*
D03*
X22291D02*
D03*
X66752Y131839D02*
D03*
X65472D02*
D03*
X27512Y131084D02*
D03*
X28792D02*
D03*
X17942Y131074D02*
D03*
X16662D02*
D03*
X65472Y139709D02*
D03*
X66752D02*
D03*
X28792Y138954D02*
D03*
X27512D02*
D03*
X16662Y138944D02*
D03*
X17942D02*
D03*
X66747Y147582D02*
D03*
X65468D02*
D03*
X27508Y146827D02*
D03*
X28788D02*
D03*
X17938Y146816D02*
D03*
X16658D02*
D03*
X65468Y155457D02*
D03*
X66748D02*
D03*
X28788Y154701D02*
D03*
X27508D02*
D03*
X16658Y154691D02*
D03*
X17938D02*
D03*
X27293Y20636D02*
D03*
X28573D02*
D03*
X23630Y15393D02*
D03*
X22350D02*
D03*
X27303Y31981D02*
D03*
X28583D02*
D03*
X23640Y26738D02*
D03*
X22360D02*
D03*
X27303Y43346D02*
D03*
X28583D02*
D03*
X23640Y38103D02*
D03*
X22360D02*
D03*
X27313Y54729D02*
D03*
X28593D02*
D03*
X23650Y49486D02*
D03*
X22370D02*
D03*
X27313Y66061D02*
D03*
X28593D02*
D03*
X23650Y60818D02*
D03*
X22370D02*
D03*
X27283Y77456D02*
D03*
X28563D02*
D03*
X23620Y72213D02*
D03*
X22340D02*
D03*
X27283Y88806D02*
D03*
X28563D02*
D03*
D58*
X514Y90482D02*
D03*
Y91582D02*
D03*
X99059Y7328D02*
D03*
Y8428D02*
D03*
X110259Y4585D02*
D03*
Y5685D02*
D03*
X108429Y5765D02*
D03*
Y4665D02*
D03*
X100929Y7505D02*
D03*
Y8605D02*
D03*
X99979Y6988D02*
D03*
Y8088D02*
D03*
X104243Y119331D02*
D03*
Y120431D02*
D03*
X114525Y94287D02*
D03*
Y95387D02*
D03*
X108205Y96694D02*
D03*
Y97794D02*
D03*
X106335Y97588D02*
D03*
Y98688D02*
D03*
X105325Y98674D02*
D03*
Y97574D02*
D03*
X116326Y128245D02*
D03*
Y129345D02*
D03*
X114496Y129425D02*
D03*
Y128325D02*
D03*
X106996Y131165D02*
D03*
Y132265D02*
D03*
X103596Y144399D02*
D03*
Y143299D02*
D03*
X111746Y143539D02*
D03*
Y144639D02*
D03*
X111956Y140749D02*
D03*
Y139649D02*
D03*
X114410Y105812D02*
D03*
Y104712D02*
D03*
X112580Y104792D02*
D03*
Y105892D02*
D03*
X105080Y108732D02*
D03*
Y107632D02*
D03*
X104792Y154425D02*
D03*
Y153325D02*
D03*
X102712Y154415D02*
D03*
Y153315D02*
D03*
X-1318Y85082D02*
D03*
Y83982D02*
D03*
X-368Y85082D02*
D03*
Y83982D02*
D03*
X602Y85082D02*
D03*
Y83982D02*
D03*
X1572Y85062D02*
D03*
Y83962D02*
D03*
X-486Y90482D02*
D03*
Y91582D02*
D03*
D59*
X103300Y128607D02*
D03*
Y127857D02*
D03*
X64763Y8007D02*
D03*
Y8757D02*
D03*
X79680Y131777D02*
D03*
Y131027D02*
D03*
Y138897D02*
D03*
Y139647D02*
D03*
X79676Y154644D02*
D03*
Y155394D02*
D03*
X81569Y18136D02*
D03*
Y17386D02*
D03*
X82727Y40309D02*
D03*
Y39559D02*
D03*
X82277Y62024D02*
D03*
Y62774D02*
D03*
X82027Y84833D02*
D03*
Y85583D02*
D03*
X96010Y138048D02*
D03*
Y138798D02*
D03*
X95099Y5700D02*
D03*
Y4950D02*
D03*
X108028Y119881D02*
D03*
Y120631D02*
D03*
X112078Y119941D02*
D03*
Y119191D02*
D03*
X111548Y115711D02*
D03*
Y116461D02*
D03*
X111228Y119201D02*
D03*
Y119951D02*
D03*
X112358Y116481D02*
D03*
Y115731D02*
D03*
X107024Y119725D02*
D03*
Y118975D02*
D03*
X106200D02*
D03*
Y119725D02*
D03*
X102724Y119345D02*
D03*
Y120095D02*
D03*
X100790Y127741D02*
D03*
Y128491D02*
D03*
X111026Y140734D02*
D03*
Y139984D02*
D03*
X106956Y142274D02*
D03*
Y141524D02*
D03*
X100430Y105697D02*
D03*
Y104947D02*
D03*
X108442Y154980D02*
D03*
Y155730D02*
D03*
X112492Y155040D02*
D03*
Y154290D02*
D03*
X111962Y150810D02*
D03*
Y151560D02*
D03*
X111642Y154300D02*
D03*
Y155050D02*
D03*
X112772Y151580D02*
D03*
Y150830D02*
D03*
X108092Y151270D02*
D03*
Y152020D02*
D03*
X108075Y152740D02*
D03*
Y153490D02*
D03*
X64821Y19420D02*
D03*
Y20170D02*
D03*
X64831Y30765D02*
D03*
Y31515D02*
D03*
Y42130D02*
D03*
Y42880D02*
D03*
X64841Y53513D02*
D03*
Y54263D02*
D03*
Y64845D02*
D03*
Y65595D02*
D03*
X64811Y76240D02*
D03*
Y76990D02*
D03*
Y87590D02*
D03*
Y88340D02*
D03*
X109359Y4970D02*
D03*
Y5720D02*
D03*
X100989Y6860D02*
D03*
Y6110D02*
D03*
X115465Y95372D02*
D03*
Y94622D02*
D03*
X107255Y96679D02*
D03*
Y97429D02*
D03*
X115426Y128630D02*
D03*
Y129380D02*
D03*
X107056Y129770D02*
D03*
Y130520D02*
D03*
X113510Y105097D02*
D03*
Y105847D02*
D03*
X105140Y106987D02*
D03*
Y106237D02*
D03*
X26869Y129340D02*
D03*
Y130090D02*
D03*
X22474Y129347D02*
D03*
Y130097D02*
D03*
X26869Y137210D02*
D03*
Y137960D02*
D03*
X22474Y137217D02*
D03*
Y137967D02*
D03*
X26865Y145083D02*
D03*
Y145833D02*
D03*
X22470Y145089D02*
D03*
Y145839D02*
D03*
X26865Y152958D02*
D03*
Y153708D02*
D03*
X22470Y152964D02*
D03*
Y153714D02*
D03*
X87333Y13545D02*
D03*
Y14295D02*
D03*
X90083Y10625D02*
D03*
Y11375D02*
D03*
X88153Y13545D02*
D03*
Y14295D02*
D03*
X86223Y9945D02*
D03*
Y9195D02*
D03*
X88983Y13535D02*
D03*
Y14285D02*
D03*
X87043Y9945D02*
D03*
Y9195D02*
D03*
X79676Y147519D02*
D03*
Y146769D02*
D03*
X114525Y98883D02*
D03*
Y98133D02*
D03*
X110886Y143504D02*
D03*
Y144254D02*
D03*
X106956Y140914D02*
D03*
Y140164D02*
D03*
X95977Y153496D02*
D03*
Y154246D02*
D03*
D60*
X33473Y83778D02*
D03*
X32713D02*
D03*
X32610Y4194D02*
D03*
X33370D02*
D03*
X33493Y15616D02*
D03*
X32733D02*
D03*
X32763Y26930D02*
D03*
X33523D02*
D03*
X33493Y38313D02*
D03*
X32733D02*
D03*
X32767Y49700D02*
D03*
X33527D02*
D03*
X33515Y61037D02*
D03*
X32755D02*
D03*
X32729Y72432D02*
D03*
X33489D02*
D03*
D61*
X54029Y117385D02*
D03*
Y117779D02*
D03*
X32125Y4187D02*
D03*
Y3793D02*
D03*
X67604Y5614D02*
D03*
Y6007D02*
D03*
X67014Y5594D02*
D03*
Y5987D02*
D03*
X81757Y129305D02*
D03*
Y128911D02*
D03*
X82331Y129312D02*
D03*
Y128919D02*
D03*
X68770Y130907D02*
D03*
Y130513D02*
D03*
X27622Y129504D02*
D03*
Y129897D02*
D03*
X34363Y129832D02*
D03*
Y129438D02*
D03*
X23193Y129727D02*
D03*
Y130120D02*
D03*
X81757Y137175D02*
D03*
Y136781D02*
D03*
X82331Y137182D02*
D03*
Y136789D02*
D03*
X78987Y138976D02*
D03*
Y139370D02*
D03*
X68770Y138777D02*
D03*
Y138383D02*
D03*
X58620Y138715D02*
D03*
Y138321D02*
D03*
X55139Y138641D02*
D03*
Y138247D02*
D03*
X27622Y137374D02*
D03*
Y137767D02*
D03*
X43633Y138384D02*
D03*
Y138778D02*
D03*
X35513Y137944D02*
D03*
Y138338D02*
D03*
X34363Y137702D02*
D03*
Y137308D02*
D03*
X23193Y137597D02*
D03*
Y137990D02*
D03*
X81752Y145047D02*
D03*
Y144654D02*
D03*
X82327Y144661D02*
D03*
Y145055D02*
D03*
X78983Y147242D02*
D03*
Y146848D02*
D03*
X68770Y146263D02*
D03*
Y146657D02*
D03*
X58616Y146587D02*
D03*
Y146194D02*
D03*
X27617Y145246D02*
D03*
Y145640D02*
D03*
X43628Y146257D02*
D03*
Y146650D02*
D03*
X35509Y145817D02*
D03*
Y146211D02*
D03*
X34358Y145574D02*
D03*
Y145181D02*
D03*
X23189Y145469D02*
D03*
Y145863D02*
D03*
X81752Y152922D02*
D03*
Y152528D02*
D03*
X82327Y152930D02*
D03*
Y152536D02*
D03*
X78983Y155117D02*
D03*
Y154723D02*
D03*
X68770Y154507D02*
D03*
Y154113D02*
D03*
X58616Y154068D02*
D03*
Y154462D02*
D03*
X55135Y153995D02*
D03*
Y154388D02*
D03*
X27618Y153121D02*
D03*
Y153515D02*
D03*
X43629Y154132D02*
D03*
Y154525D02*
D03*
X35509Y153692D02*
D03*
Y154085D02*
D03*
X34359Y153449D02*
D03*
Y153056D02*
D03*
X23189Y153344D02*
D03*
Y153738D02*
D03*
X89823Y9947D02*
D03*
Y9553D02*
D03*
X95786Y52786D02*
D03*
Y53180D02*
D03*
X98066Y13005D02*
D03*
Y12611D02*
D03*
X98076Y53040D02*
D03*
Y52646D02*
D03*
X97536Y16731D02*
D03*
Y17125D02*
D03*
X96296Y17135D02*
D03*
Y16741D02*
D03*
X97546Y56766D02*
D03*
Y57160D02*
D03*
X96306Y57170D02*
D03*
Y56776D02*
D03*
X102246Y15631D02*
D03*
Y16025D02*
D03*
X102256Y56060D02*
D03*
Y55666D02*
D03*
X99176Y14271D02*
D03*
Y14665D02*
D03*
X99186Y54700D02*
D03*
Y54306D02*
D03*
X94211Y16849D02*
D03*
Y16455D02*
D03*
X94221Y56490D02*
D03*
Y56884D02*
D03*
X95766Y23160D02*
D03*
Y22766D02*
D03*
X95780Y62756D02*
D03*
Y63150D02*
D03*
X98056Y23020D02*
D03*
Y22626D02*
D03*
X97540Y66736D02*
D03*
Y67130D02*
D03*
X96300Y67140D02*
D03*
Y66746D02*
D03*
X102236Y25646D02*
D03*
Y26040D02*
D03*
X99180Y64670D02*
D03*
Y64276D02*
D03*
X94201Y26864D02*
D03*
Y26470D02*
D03*
X94215Y66460D02*
D03*
Y66853D02*
D03*
X95776Y72756D02*
D03*
Y73150D02*
D03*
X98073Y32607D02*
D03*
Y33001D02*
D03*
X98066Y72616D02*
D03*
Y73010D02*
D03*
X97543Y36727D02*
D03*
Y37121D02*
D03*
X96303Y37131D02*
D03*
Y36737D02*
D03*
X97536Y76736D02*
D03*
Y77130D02*
D03*
X96296Y77140D02*
D03*
Y76746D02*
D03*
X102253Y36021D02*
D03*
Y35627D02*
D03*
X102246Y76030D02*
D03*
Y75636D02*
D03*
X99183Y34267D02*
D03*
Y34661D02*
D03*
X99176Y74276D02*
D03*
Y74670D02*
D03*
X94218Y36845D02*
D03*
Y36451D02*
D03*
X94211Y76854D02*
D03*
Y76460D02*
D03*
X98066Y42603D02*
D03*
Y42997D02*
D03*
Y83010D02*
D03*
Y82616D02*
D03*
X97536Y46723D02*
D03*
Y47117D02*
D03*
X96296Y47127D02*
D03*
Y46733D02*
D03*
X97536Y86736D02*
D03*
Y87130D02*
D03*
X102246Y46017D02*
D03*
Y45623D02*
D03*
Y85636D02*
D03*
Y86030D02*
D03*
X99176Y44657D02*
D03*
Y44263D02*
D03*
X94211Y46841D02*
D03*
Y46447D02*
D03*
Y86460D02*
D03*
Y86854D02*
D03*
X84758Y15857D02*
D03*
Y15464D02*
D03*
X84208Y15857D02*
D03*
Y15464D02*
D03*
X80899Y17957D02*
D03*
Y17564D02*
D03*
X30447Y133243D02*
D03*
Y132849D02*
D03*
X31319Y132737D02*
D03*
Y132343D02*
D03*
X28842Y4371D02*
D03*
Y3977D02*
D03*
X31329Y140564D02*
D03*
Y140171D02*
D03*
X85372Y37457D02*
D03*
Y37851D02*
D03*
X85884D02*
D03*
Y37457D02*
D03*
X82057Y40130D02*
D03*
Y39737D02*
D03*
X86578Y135744D02*
D03*
Y135350D02*
D03*
X91605Y138338D02*
D03*
Y138732D02*
D03*
X86578Y138509D02*
D03*
Y138116D02*
D03*
X30424Y148593D02*
D03*
Y148986D02*
D03*
X28910Y15761D02*
D03*
Y15367D02*
D03*
X85434Y60480D02*
D03*
Y60087D02*
D03*
X84922D02*
D03*
Y60480D02*
D03*
X84672Y83299D02*
D03*
Y82905D02*
D03*
X31325Y155921D02*
D03*
Y156314D02*
D03*
X81607Y62596D02*
D03*
Y62203D02*
D03*
X30431Y156470D02*
D03*
Y156864D02*
D03*
X28962Y49446D02*
D03*
Y49839D02*
D03*
X28973Y38062D02*
D03*
Y38456D02*
D03*
X81357Y84981D02*
D03*
Y85375D02*
D03*
X86510Y152314D02*
D03*
Y152708D02*
D03*
X28893Y60765D02*
D03*
Y61158D02*
D03*
X91536Y152366D02*
D03*
Y151972D02*
D03*
X86508Y155102D02*
D03*
Y155496D02*
D03*
X98655Y136121D02*
D03*
Y136514D02*
D03*
X98620Y151950D02*
D03*
Y151556D02*
D03*
X28871Y72172D02*
D03*
Y72566D02*
D03*
X99134Y151950D02*
D03*
Y151556D02*
D03*
X28953Y83486D02*
D03*
Y83880D02*
D03*
X95340Y138620D02*
D03*
Y138226D02*
D03*
X95809Y5338D02*
D03*
Y5732D02*
D03*
X108805Y121043D02*
D03*
Y120649D02*
D03*
X108801Y119770D02*
D03*
Y120164D02*
D03*
X100329Y6042D02*
D03*
Y6435D02*
D03*
X99829Y6042D02*
D03*
Y6435D02*
D03*
X103431Y119720D02*
D03*
Y119326D02*
D03*
X106209Y4198D02*
D03*
Y4592D02*
D03*
X101375Y129420D02*
D03*
Y129026D02*
D03*
X106565Y96954D02*
D03*
Y96561D02*
D03*
X106045Y96541D02*
D03*
Y96934D02*
D03*
X110615Y94154D02*
D03*
Y93760D02*
D03*
X112745Y93764D02*
D03*
Y93370D02*
D03*
X112276Y128252D02*
D03*
Y127858D02*
D03*
X112786Y128232D02*
D03*
Y127838D02*
D03*
X110666Y128232D02*
D03*
Y127838D02*
D03*
X113296Y127332D02*
D03*
Y126938D02*
D03*
X104366Y144182D02*
D03*
Y144576D02*
D03*
X104376Y143302D02*
D03*
Y143696D02*
D03*
X104490Y106239D02*
D03*
Y105845D02*
D03*
X103990Y106239D02*
D03*
Y105845D02*
D03*
X110360Y104719D02*
D03*
Y104326D02*
D03*
X110870Y104699D02*
D03*
Y104305D02*
D03*
X108750Y104699D02*
D03*
Y104305D02*
D03*
X111380Y103799D02*
D03*
Y103406D02*
D03*
X109232Y155828D02*
D03*
Y156222D02*
D03*
X109212Y155212D02*
D03*
Y154818D02*
D03*
X32303Y15614D02*
D03*
Y15221D02*
D03*
X58963Y17206D02*
D03*
Y16813D02*
D03*
X67662Y17027D02*
D03*
Y17421D02*
D03*
X67072Y17007D02*
D03*
Y17401D02*
D03*
X64130Y19891D02*
D03*
Y19497D02*
D03*
X32327Y26913D02*
D03*
Y26520D02*
D03*
X58973Y28551D02*
D03*
Y28158D02*
D03*
X67672Y28372D02*
D03*
Y28766D02*
D03*
X67082Y28352D02*
D03*
Y28746D02*
D03*
X64140Y31236D02*
D03*
Y30842D02*
D03*
X32269Y38301D02*
D03*
Y37908D02*
D03*
X58973Y39917D02*
D03*
Y39523D02*
D03*
X67672Y39737D02*
D03*
Y40131D02*
D03*
X67082Y39717D02*
D03*
Y40111D02*
D03*
X64140Y42601D02*
D03*
Y42207D02*
D03*
X32325Y49698D02*
D03*
Y49304D02*
D03*
X58983Y50906D02*
D03*
Y51300D02*
D03*
X67682Y51120D02*
D03*
Y51514D02*
D03*
X67092Y51100D02*
D03*
Y51494D02*
D03*
X64150Y53984D02*
D03*
Y53591D02*
D03*
X32266Y61030D02*
D03*
Y60636D02*
D03*
X58983Y62238D02*
D03*
Y62631D02*
D03*
X67682Y62846D02*
D03*
Y62452D02*
D03*
X67092Y62432D02*
D03*
Y62826D02*
D03*
X64150Y65316D02*
D03*
Y64922D02*
D03*
X32275Y72424D02*
D03*
Y72031D02*
D03*
X58953Y74026D02*
D03*
Y73633D02*
D03*
X67652Y73847D02*
D03*
Y74241D02*
D03*
X67062Y73827D02*
D03*
Y74221D02*
D03*
X64120Y76711D02*
D03*
Y76318D02*
D03*
X32293Y83783D02*
D03*
Y83389D02*
D03*
X58953Y85377D02*
D03*
Y84983D02*
D03*
X67652Y85197D02*
D03*
Y85591D02*
D03*
X67062Y85177D02*
D03*
Y85571D02*
D03*
X64120Y87668D02*
D03*
Y88061D02*
D03*
X39356Y4311D02*
D03*
Y3918D02*
D03*
X50238Y4336D02*
D03*
Y3942D02*
D03*
X37366Y3919D02*
D03*
Y4313D02*
D03*
X48236Y3953D02*
D03*
Y4346D02*
D03*
X69330Y131433D02*
D03*
Y131827D02*
D03*
X59227Y131453D02*
D03*
Y131846D02*
D03*
X55521Y131445D02*
D03*
Y131838D02*
D03*
X44189Y131436D02*
D03*
Y131829D02*
D03*
X69330Y139303D02*
D03*
Y139697D02*
D03*
X59227Y139323D02*
D03*
Y139716D02*
D03*
X55521Y139315D02*
D03*
Y139708D02*
D03*
X44189Y139306D02*
D03*
Y139699D02*
D03*
X69330Y147176D02*
D03*
Y147569D02*
D03*
X59223Y147195D02*
D03*
Y147589D02*
D03*
X55517Y147581D02*
D03*
Y147187D02*
D03*
X44184Y147178D02*
D03*
Y147572D02*
D03*
X69330Y155088D02*
D03*
Y155482D02*
D03*
X59223Y155070D02*
D03*
Y155464D02*
D03*
X55517Y155062D02*
D03*
Y155456D02*
D03*
X44185Y155053D02*
D03*
Y155447D02*
D03*
X28823Y4849D02*
D03*
Y5242D02*
D03*
X28904Y16237D02*
D03*
Y16631D02*
D03*
X89151Y154178D02*
D03*
Y153784D02*
D03*
X75595Y17027D02*
D03*
Y17421D02*
D03*
X28873Y27596D02*
D03*
Y27990D02*
D03*
X28973Y39341D02*
D03*
Y38947D02*
D03*
X28962Y50708D02*
D03*
Y50315D02*
D03*
X28901Y62040D02*
D03*
Y61646D02*
D03*
X75641Y39650D02*
D03*
Y40044D02*
D03*
X75025Y62611D02*
D03*
Y63005D02*
D03*
X28871Y73041D02*
D03*
Y73435D02*
D03*
X28958Y84359D02*
D03*
Y84753D02*
D03*
X39414Y15725D02*
D03*
Y15331D02*
D03*
X50297Y15749D02*
D03*
Y15356D02*
D03*
X37424Y15333D02*
D03*
Y15726D02*
D03*
X48294Y15760D02*
D03*
Y15366D02*
D03*
X39424Y27070D02*
D03*
Y26676D02*
D03*
X50307Y27094D02*
D03*
Y26701D02*
D03*
X37434Y27071D02*
D03*
Y26678D02*
D03*
X48304Y26711D02*
D03*
Y27105D02*
D03*
X39424Y38041D02*
D03*
Y38435D02*
D03*
X50307Y38066D02*
D03*
Y38459D02*
D03*
X37434Y38043D02*
D03*
Y38436D02*
D03*
X48304Y38076D02*
D03*
Y38470D02*
D03*
X39434Y49818D02*
D03*
Y49424D02*
D03*
X50317Y49843D02*
D03*
Y49449D02*
D03*
X37444Y49426D02*
D03*
Y49820D02*
D03*
X48314Y49460D02*
D03*
Y49853D02*
D03*
X39434Y61150D02*
D03*
Y60756D02*
D03*
X50317Y61174D02*
D03*
Y60781D02*
D03*
X37444Y60758D02*
D03*
Y61151D02*
D03*
X48314Y60791D02*
D03*
Y61185D02*
D03*
X39404Y72545D02*
D03*
Y72151D02*
D03*
X50287Y72569D02*
D03*
Y72176D02*
D03*
X37414Y72153D02*
D03*
Y72546D02*
D03*
X48284Y72186D02*
D03*
Y72580D02*
D03*
X39404Y83895D02*
D03*
Y83501D02*
D03*
X50287Y83919D02*
D03*
Y83526D02*
D03*
X37414Y83503D02*
D03*
Y83896D02*
D03*
X48284Y83536D02*
D03*
Y83930D02*
D03*
X23230Y8426D02*
D03*
Y8820D02*
D03*
X23230Y9718D02*
D03*
Y9324D02*
D03*
X68808Y7571D02*
D03*
Y7178D02*
D03*
X83689Y130439D02*
D03*
Y130833D02*
D03*
X69330Y130907D02*
D03*
Y130513D02*
D03*
X83689Y138309D02*
D03*
Y138703D02*
D03*
X69330Y138777D02*
D03*
Y138383D02*
D03*
X83685Y146182D02*
D03*
Y146575D02*
D03*
X69330Y146657D02*
D03*
Y146263D02*
D03*
X83685Y154450D02*
D03*
Y154057D02*
D03*
X69330Y154507D02*
D03*
Y154113D02*
D03*
X20396Y105135D02*
D03*
Y104741D02*
D03*
X22700Y104747D02*
D03*
Y105141D02*
D03*
X20393Y104245D02*
D03*
Y103851D02*
D03*
X20918Y104222D02*
D03*
Y103828D02*
D03*
X56090Y115089D02*
D03*
Y114696D02*
D03*
X58250Y116214D02*
D03*
Y116608D02*
D03*
X109038Y20904D02*
D03*
Y20510D02*
D03*
X109028Y21784D02*
D03*
Y21390D02*
D03*
X108301Y20932D02*
D03*
Y20538D02*
D03*
X108311Y21809D02*
D03*
Y21415D02*
D03*
X109791Y20508D02*
D03*
Y20902D02*
D03*
X109801Y21378D02*
D03*
Y21772D02*
D03*
X110747Y19351D02*
D03*
Y19744D02*
D03*
X113190Y19341D02*
D03*
Y19734D02*
D03*
X114287Y22121D02*
D03*
Y22514D02*
D03*
X115233Y85175D02*
D03*
Y84782D02*
D03*
X98349Y7998D02*
D03*
Y8392D02*
D03*
X107741Y5660D02*
D03*
Y5267D02*
D03*
X98829Y6742D02*
D03*
Y6348D02*
D03*
X97839Y8392D02*
D03*
Y7998D02*
D03*
X105720Y4576D02*
D03*
Y4182D02*
D03*
X98330Y6763D02*
D03*
Y6369D02*
D03*
X107249Y4188D02*
D03*
Y4582D02*
D03*
X94619Y7288D02*
D03*
Y7682D02*
D03*
X115028Y117330D02*
D03*
Y117723D02*
D03*
X104059Y4188D02*
D03*
Y4582D02*
D03*
X113815Y95010D02*
D03*
Y95404D02*
D03*
X111745Y94178D02*
D03*
Y93784D02*
D03*
X102175Y99221D02*
D03*
Y98827D02*
D03*
X101625Y96877D02*
D03*
Y97271D02*
D03*
X100870Y129420D02*
D03*
Y129026D02*
D03*
X110098Y93760D02*
D03*
Y94154D02*
D03*
X113758Y129612D02*
D03*
Y129218D02*
D03*
X113306Y127848D02*
D03*
Y128242D02*
D03*
X110126Y127848D02*
D03*
Y128242D02*
D03*
X114746Y141642D02*
D03*
Y142036D02*
D03*
X102885Y104169D02*
D03*
Y104562D02*
D03*
X99750Y105729D02*
D03*
Y105336D02*
D03*
X111884Y105406D02*
D03*
Y105799D02*
D03*
X99740Y104819D02*
D03*
Y104425D02*
D03*
X109860Y104719D02*
D03*
Y104326D02*
D03*
X111400Y104709D02*
D03*
Y104316D02*
D03*
X108210Y104709D02*
D03*
Y104316D02*
D03*
X115562Y152408D02*
D03*
Y152802D02*
D03*
X23289Y19840D02*
D03*
Y20234D02*
D03*
X23289Y21131D02*
D03*
Y20738D02*
D03*
X68866Y18985D02*
D03*
Y18591D02*
D03*
X23299Y31579D02*
D03*
Y31185D02*
D03*
X23299Y32476D02*
D03*
Y32083D02*
D03*
X68876Y29936D02*
D03*
Y30330D02*
D03*
X23299Y42944D02*
D03*
Y42550D02*
D03*
X23299Y43841D02*
D03*
Y43448D02*
D03*
X68876Y41695D02*
D03*
Y41301D02*
D03*
X23309Y53933D02*
D03*
Y54327D02*
D03*
X23309Y55225D02*
D03*
Y54831D02*
D03*
X68886Y53078D02*
D03*
Y52684D02*
D03*
X23309Y65658D02*
D03*
Y65265D02*
D03*
X23309Y66556D02*
D03*
Y66162D02*
D03*
X68886Y64016D02*
D03*
Y64410D02*
D03*
X23279Y76660D02*
D03*
Y77054D02*
D03*
X23279Y77951D02*
D03*
Y77558D02*
D03*
X68856Y75411D02*
D03*
Y75805D02*
D03*
X23279Y88010D02*
D03*
Y88404D02*
D03*
X23279Y88908D02*
D03*
Y89301D02*
D03*
X68856Y87155D02*
D03*
Y86761D02*
D03*
X20424Y110959D02*
D03*
Y111353D02*
D03*
X22724Y110982D02*
D03*
Y111375D02*
D03*
X20421Y110069D02*
D03*
Y110463D02*
D03*
X58905Y5399D02*
D03*
Y5793D02*
D03*
X64072Y8478D02*
D03*
Y8084D02*
D03*
X98070Y63010D02*
D03*
Y62616D02*
D03*
X97526Y27140D02*
D03*
Y26746D02*
D03*
X96286Y26756D02*
D03*
Y27150D02*
D03*
X102250Y66030D02*
D03*
Y65636D02*
D03*
X95776Y42743D02*
D03*
Y43137D02*
D03*
Y82756D02*
D03*
Y83150D02*
D03*
X30457Y141140D02*
D03*
Y140746D02*
D03*
X99167Y136514D02*
D03*
Y136121D02*
D03*
X106719Y4178D02*
D03*
Y4572D02*
D03*
X104599Y4178D02*
D03*
Y4572D02*
D03*
X107229Y3278D02*
D03*
Y3672D02*
D03*
X78987Y131500D02*
D03*
Y131106D02*
D03*
X58620Y130451D02*
D03*
Y130845D02*
D03*
X55139Y130377D02*
D03*
Y130771D02*
D03*
X43633Y130514D02*
D03*
Y130908D02*
D03*
X35513Y130074D02*
D03*
Y130468D02*
D03*
X55135Y146120D02*
D03*
Y146513D02*
D03*
X95776Y13145D02*
D03*
Y12751D02*
D03*
X99166Y24286D02*
D03*
Y24680D02*
D03*
X95783Y33141D02*
D03*
Y32747D02*
D03*
X96296Y86746D02*
D03*
Y87140D02*
D03*
X99176Y84670D02*
D03*
Y84276D02*
D03*
X31320Y148022D02*
D03*
Y148415D02*
D03*
X28873Y26712D02*
D03*
Y27106D02*
D03*
X85184Y82905D02*
D03*
Y83299D02*
D03*
X113255Y93774D02*
D03*
Y93380D02*
D03*
X20946Y110440D02*
D03*
Y110047D02*
D03*
X20406Y117595D02*
D03*
Y117202D02*
D03*
X22680Y117607D02*
D03*
Y117213D02*
D03*
X20404Y116705D02*
D03*
Y116312D02*
D03*
X20928Y116683D02*
D03*
Y116289D02*
D03*
X20444Y123445D02*
D03*
Y123839D02*
D03*
X22729Y123446D02*
D03*
Y123840D02*
D03*
X20441Y122949D02*
D03*
Y122555D02*
D03*
X20966Y122926D02*
D03*
Y122532D02*
D03*
X18947Y103145D02*
D03*
Y103539D02*
D03*
X16057Y105918D02*
D03*
Y105525D02*
D03*
X18975Y109757D02*
D03*
Y109363D02*
D03*
X16085Y111743D02*
D03*
Y112137D02*
D03*
X18958Y115606D02*
D03*
Y115999D02*
D03*
X16068Y118379D02*
D03*
Y117985D02*
D03*
X18995Y121849D02*
D03*
Y122243D02*
D03*
X16105Y124622D02*
D03*
Y124229D02*
D03*
X105775Y152163D02*
D03*
Y151769D02*
D03*
X58250Y117513D02*
D03*
Y117120D02*
D03*
X103180Y15134D02*
D03*
Y14740D02*
D03*
X103196Y55136D02*
D03*
Y54743D02*
D03*
Y25116D02*
D03*
Y24723D02*
D03*
Y65106D02*
D03*
Y64712D02*
D03*
Y35097D02*
D03*
Y34704D02*
D03*
Y75106D02*
D03*
Y74713D02*
D03*
Y45131D02*
D03*
Y44737D02*
D03*
Y85106D02*
D03*
Y84713D02*
D03*
X95307Y154055D02*
D03*
X95307Y153662D02*
D03*
X89207Y136413D02*
D03*
Y136807D02*
D03*
X21820Y8789D02*
D03*
Y8395D02*
D03*
Y9310D02*
D03*
Y9703D02*
D03*
X21896Y20212D02*
D03*
Y19819D02*
D03*
X21869Y20723D02*
D03*
Y21117D02*
D03*
X21890Y31555D02*
D03*
Y31162D02*
D03*
Y32068D02*
D03*
Y32462D02*
D03*
X21904Y42929D02*
D03*
Y42535D02*
D03*
X21879Y43433D02*
D03*
Y43827D02*
D03*
X21907Y54318D02*
D03*
Y53925D02*
D03*
X21879Y54835D02*
D03*
Y55229D02*
D03*
X21919Y65640D02*
D03*
Y65246D02*
D03*
X21889Y66156D02*
D03*
Y66550D02*
D03*
X21883Y77030D02*
D03*
Y76636D02*
D03*
X21870Y77563D02*
D03*
Y77957D02*
D03*
X21882Y88378D02*
D03*
Y87984D02*
D03*
X21864Y88900D02*
D03*
Y89294D02*
D03*
X72958Y15974D02*
D03*
Y16368D02*
D03*
X77985Y18956D02*
D03*
Y19350D02*
D03*
X72958Y19117D02*
D03*
Y18724D02*
D03*
X73000Y38587D02*
D03*
Y38193D02*
D03*
X78003Y38193D02*
D03*
Y37800D02*
D03*
X72998Y40963D02*
D03*
Y41357D02*
D03*
X72379Y61553D02*
D03*
Y61946D02*
D03*
X77398Y64498D02*
D03*
Y64892D02*
D03*
X72379Y64709D02*
D03*
Y64316D02*
D03*
X72239Y83189D02*
D03*
Y83583D02*
D03*
X77261Y83217D02*
D03*
Y82823D02*
D03*
X72239Y86383D02*
D03*
Y85989D02*
D03*
X74885Y84654D02*
D03*
Y85047D02*
D03*
X114992Y25730D02*
D03*
Y25337D02*
D03*
X20918Y103347D02*
D03*
Y102954D02*
D03*
X20957Y109543D02*
D03*
Y109149D02*
D03*
X20916Y115785D02*
D03*
Y115392D02*
D03*
X20964Y121635D02*
D03*
Y122029D02*
D03*
X54606Y116993D02*
D03*
Y117387D02*
D03*
D62*
X109462Y15411D02*
D03*
Y13911D02*
D03*
D63*
X22748Y122689D02*
D03*
X22000Y122433D02*
D03*
Y122945D02*
D03*
X22743Y104010D02*
D03*
X21995Y103754D02*
D03*
Y104266D02*
D03*
X21986Y110410D02*
D03*
Y109898D02*
D03*
X22734Y110154D02*
D03*
X22699Y116438D02*
D03*
X21951Y116182D02*
D03*
Y116694D02*
D03*
D64*
X73129Y73736D02*
D03*
X87225Y145774D02*
D03*
X73656Y28839D02*
D03*
D65*
X73268Y73596D02*
D03*
X73407Y73457D02*
D03*
X73546Y73318D02*
D03*
X73686Y73179D02*
D03*
X73825Y73040D02*
D03*
X73964Y72901D02*
D03*
X74103Y72761D02*
D03*
X74242Y72622D02*
D03*
X74382Y72483D02*
D03*
X75996Y74098D02*
D03*
X75857Y74237D02*
D03*
X75718Y74376D02*
D03*
X75579Y74515D02*
D03*
X75439Y74654D02*
D03*
X75300Y74794D02*
D03*
X75161Y74933D02*
D03*
X75022Y75072D02*
D03*
X74883Y75211D02*
D03*
X74743Y75350D02*
D03*
X87364Y145635D02*
D03*
X87503Y145495D02*
D03*
X87642Y145356D02*
D03*
X87782Y145217D02*
D03*
X87921Y145078D02*
D03*
X88060Y144939D02*
D03*
X88199Y144799D02*
D03*
X88338Y144660D02*
D03*
X88478Y144521D02*
D03*
X90092Y146136D02*
D03*
X89953Y146275D02*
D03*
X89814Y146414D02*
D03*
X89675Y146553D02*
D03*
X89536Y146692D02*
D03*
X89396Y146832D02*
D03*
X89257Y146971D02*
D03*
X89118Y147110D02*
D03*
X88979Y147249D02*
D03*
X88840Y147388D02*
D03*
X75271Y30454D02*
D03*
X75410Y30315D02*
D03*
X75549Y30175D02*
D03*
X75689Y30036D02*
D03*
X75828Y29897D02*
D03*
X75967Y29758D02*
D03*
X76106Y29619D02*
D03*
X76245Y29479D02*
D03*
X76385Y29340D02*
D03*
X76524Y29201D02*
D03*
X74909Y27586D02*
D03*
X74770Y27726D02*
D03*
X74631Y27865D02*
D03*
X74491Y28004D02*
D03*
X74352Y28143D02*
D03*
X74213Y28282D02*
D03*
X74074Y28421D02*
D03*
X73935Y28561D02*
D03*
X73795Y28700D02*
D03*
D66*
X74743Y72483D02*
D03*
X74883Y72622D02*
D03*
X75022Y72761D02*
D03*
X75161Y72901D02*
D03*
X75300Y73040D02*
D03*
X75439Y73179D02*
D03*
X75579Y73318D02*
D03*
X75718Y73457D02*
D03*
X75857Y73596D02*
D03*
X75996Y73736D02*
D03*
X74382Y75350D02*
D03*
X74242Y75211D02*
D03*
X74103Y75072D02*
D03*
X73964Y74933D02*
D03*
X73825Y74794D02*
D03*
X73686Y74654D02*
D03*
X73546Y74515D02*
D03*
X73407Y74376D02*
D03*
X73268Y74237D02*
D03*
X73129Y74098D02*
D03*
X88840Y144521D02*
D03*
X88979Y144660D02*
D03*
X89118Y144799D02*
D03*
X89257Y144939D02*
D03*
X89396Y145078D02*
D03*
X89536Y145217D02*
D03*
X89675Y145356D02*
D03*
X89814Y145495D02*
D03*
X89953Y145635D02*
D03*
X90092Y145774D02*
D03*
X88478Y147388D02*
D03*
X88338Y147249D02*
D03*
X88199Y147110D02*
D03*
X88060Y146971D02*
D03*
X87921Y146832D02*
D03*
X87782Y146692D02*
D03*
X87642Y146553D02*
D03*
X87503Y146414D02*
D03*
X87364Y146275D02*
D03*
X87225Y146136D02*
D03*
X73656Y29201D02*
D03*
X73795Y29340D02*
D03*
X73935Y29479D02*
D03*
X74074Y29619D02*
D03*
X74213Y29758D02*
D03*
X74352Y29897D02*
D03*
X74491Y30036D02*
D03*
X74631Y30175D02*
D03*
X74770Y30315D02*
D03*
X74909Y30454D02*
D03*
X76524Y28839D02*
D03*
X76385Y28700D02*
D03*
X76245Y28561D02*
D03*
X76106Y28421D02*
D03*
X75967Y28282D02*
D03*
X75828Y28143D02*
D03*
X75689Y28004D02*
D03*
X75549Y27865D02*
D03*
X75410Y27726D02*
D03*
X75271Y27586D02*
D03*
D67*
X113187Y20204D02*
D03*
Y20454D02*
D03*
Y20704D02*
D03*
Y20954D02*
D03*
Y21204D02*
D03*
Y21454D02*
D03*
Y21704D02*
D03*
Y21954D02*
D03*
X110807Y20204D02*
D03*
Y20454D02*
D03*
Y20704D02*
D03*
Y20954D02*
D03*
Y21204D02*
D03*
Y21454D02*
D03*
Y21704D02*
D03*
D68*
Y21954D02*
D03*
D69*
X96004Y152695D02*
D03*
X64597Y6848D02*
D03*
X79414Y130172D02*
D03*
Y138042D02*
D03*
X79410Y145914D02*
D03*
X79410Y153789D02*
D03*
X81619Y16543D02*
D03*
X77500Y50687D02*
D03*
X94129Y5515D02*
D03*
X101355Y94674D02*
D03*
X98516Y126875D02*
D03*
X105596Y140259D02*
D03*
X100140Y106962D02*
D03*
X102012Y152415D02*
D03*
X64656Y18262D02*
D03*
X64666Y29607D02*
D03*
Y40972D02*
D03*
X64676Y52355D02*
D03*
Y63687D02*
D03*
X64646Y75082D02*
D03*
Y86432D02*
D03*
X82754Y38774D02*
D03*
X82304Y61217D02*
D03*
X82054Y84044D02*
D03*
X96037Y137260D02*
D03*
D70*
X17472Y83381D02*
D03*
X17413Y6158D02*
D03*
X17423Y3798D02*
D03*
X17472Y17571D02*
D03*
X17482Y15211D02*
D03*
Y28916D02*
D03*
X17492Y26556D02*
D03*
X17482Y40281D02*
D03*
X17492Y37921D02*
D03*
Y51665D02*
D03*
X17502Y49305D02*
D03*
X17492Y62996D02*
D03*
X17502Y60636D02*
D03*
X17462Y74391D02*
D03*
X17472Y72031D02*
D03*
X17462Y85741D02*
D03*
D71*
X18249Y83775D02*
D03*
Y83578D02*
D03*
Y83381D02*
D03*
Y83185D02*
D03*
Y82988D02*
D03*
X16694D02*
D03*
Y83185D02*
D03*
Y83381D02*
D03*
Y83578D02*
D03*
Y83775D02*
D03*
X55454Y83375D02*
D03*
Y83572D02*
D03*
Y83769D02*
D03*
Y83966D02*
D03*
X56616D02*
D03*
Y83769D02*
D03*
Y83572D02*
D03*
Y83375D02*
D03*
X16636Y6552D02*
D03*
Y6355D02*
D03*
Y6158D02*
D03*
Y5961D02*
D03*
Y5764D02*
D03*
X18191D02*
D03*
Y5961D02*
D03*
Y6158D02*
D03*
Y6355D02*
D03*
Y6552D02*
D03*
X18201Y4192D02*
D03*
Y3995D02*
D03*
Y3798D02*
D03*
Y3601D02*
D03*
Y3404D02*
D03*
X16646D02*
D03*
Y3601D02*
D03*
Y3798D02*
D03*
Y3995D02*
D03*
Y4192D02*
D03*
X56567Y3791D02*
D03*
Y3988D02*
D03*
Y4185D02*
D03*
Y4382D02*
D03*
X55406D02*
D03*
Y4185D02*
D03*
Y3988D02*
D03*
Y3791D02*
D03*
X16694Y17965D02*
D03*
Y17768D02*
D03*
Y17571D02*
D03*
Y17375D02*
D03*
Y17178D02*
D03*
X18249D02*
D03*
Y17375D02*
D03*
Y17571D02*
D03*
Y17768D02*
D03*
Y17965D02*
D03*
X18259Y15605D02*
D03*
Y15408D02*
D03*
Y15211D02*
D03*
Y15015D02*
D03*
Y14818D02*
D03*
X16704D02*
D03*
Y15015D02*
D03*
Y15211D02*
D03*
Y15408D02*
D03*
Y15605D02*
D03*
X55464Y15205D02*
D03*
Y15402D02*
D03*
Y15599D02*
D03*
Y15796D02*
D03*
X56626D02*
D03*
Y15599D02*
D03*
Y15402D02*
D03*
Y15205D02*
D03*
X16704Y29310D02*
D03*
Y29113D02*
D03*
Y28916D02*
D03*
Y28720D02*
D03*
Y28523D02*
D03*
X18259D02*
D03*
Y28720D02*
D03*
Y28916D02*
D03*
Y29113D02*
D03*
Y29310D02*
D03*
X18269Y26950D02*
D03*
Y26753D02*
D03*
Y26556D02*
D03*
Y26360D02*
D03*
Y26163D02*
D03*
X16714D02*
D03*
Y26360D02*
D03*
Y26556D02*
D03*
Y26753D02*
D03*
Y26950D02*
D03*
X56636Y26550D02*
D03*
Y26747D02*
D03*
Y26944D02*
D03*
Y27140D02*
D03*
X55474D02*
D03*
Y26944D02*
D03*
Y26747D02*
D03*
Y26550D02*
D03*
X16704Y40675D02*
D03*
Y40478D02*
D03*
Y40281D02*
D03*
Y40085D02*
D03*
Y39888D02*
D03*
X18259D02*
D03*
Y40085D02*
D03*
Y40281D02*
D03*
Y40478D02*
D03*
Y40675D02*
D03*
X18269Y38315D02*
D03*
Y38118D02*
D03*
Y37921D02*
D03*
Y37725D02*
D03*
Y37528D02*
D03*
X16714D02*
D03*
Y37725D02*
D03*
Y37921D02*
D03*
Y38118D02*
D03*
Y38315D02*
D03*
X55474Y37915D02*
D03*
Y38112D02*
D03*
Y38309D02*
D03*
Y38506D02*
D03*
X56636D02*
D03*
Y38309D02*
D03*
Y38112D02*
D03*
Y37915D02*
D03*
X16714Y52058D02*
D03*
Y51862D02*
D03*
Y51665D02*
D03*
Y51468D02*
D03*
Y51271D02*
D03*
X18269D02*
D03*
Y51468D02*
D03*
Y51665D02*
D03*
Y51862D02*
D03*
Y52058D02*
D03*
X18279Y49698D02*
D03*
Y49502D02*
D03*
Y49305D02*
D03*
Y49108D02*
D03*
Y48911D02*
D03*
X16724D02*
D03*
Y49108D02*
D03*
Y49305D02*
D03*
Y49502D02*
D03*
Y49698D02*
D03*
X56646Y49298D02*
D03*
Y49495D02*
D03*
Y49692D02*
D03*
Y49889D02*
D03*
X55484D02*
D03*
Y49692D02*
D03*
Y49495D02*
D03*
Y49298D02*
D03*
X16714Y63390D02*
D03*
Y63193D02*
D03*
Y62996D02*
D03*
Y62799D02*
D03*
Y62603D02*
D03*
X18269D02*
D03*
Y62799D02*
D03*
Y62996D02*
D03*
Y63193D02*
D03*
Y63390D02*
D03*
X18279Y61030D02*
D03*
Y60833D02*
D03*
Y60636D02*
D03*
Y60439D02*
D03*
Y60243D02*
D03*
X16724D02*
D03*
Y60439D02*
D03*
Y60636D02*
D03*
Y60833D02*
D03*
Y61030D02*
D03*
X55484Y60630D02*
D03*
Y60827D02*
D03*
Y61024D02*
D03*
Y61220D02*
D03*
X56646D02*
D03*
Y61024D02*
D03*
Y60827D02*
D03*
Y60630D02*
D03*
X16684Y74785D02*
D03*
Y74588D02*
D03*
Y74391D02*
D03*
Y74195D02*
D03*
Y73998D02*
D03*
X18239D02*
D03*
Y74195D02*
D03*
Y74391D02*
D03*
Y74588D02*
D03*
Y74785D02*
D03*
X18249Y72425D02*
D03*
Y72228D02*
D03*
Y72031D02*
D03*
Y71835D02*
D03*
Y71638D02*
D03*
X16694D02*
D03*
Y71835D02*
D03*
Y72031D02*
D03*
Y72228D02*
D03*
Y72425D02*
D03*
X56616Y72025D02*
D03*
Y72222D02*
D03*
Y72419D02*
D03*
Y72616D02*
D03*
X55454D02*
D03*
Y72419D02*
D03*
Y72222D02*
D03*
Y72025D02*
D03*
X16684Y86135D02*
D03*
Y85938D02*
D03*
Y85741D02*
D03*
Y85545D02*
D03*
Y85348D02*
D03*
X18239D02*
D03*
Y85545D02*
D03*
Y85741D02*
D03*
Y85938D02*
D03*
Y86135D02*
D03*
D72*
X17866Y82604D02*
D03*
X17669D02*
D03*
X17472D02*
D03*
X17275D02*
D03*
X17078D02*
D03*
Y84159D02*
D03*
X17275D02*
D03*
X17472D02*
D03*
X17669D02*
D03*
X45180Y85387D02*
D03*
X45377D02*
D03*
X45573D02*
D03*
X45770D02*
D03*
X45967D02*
D03*
X46164D02*
D03*
X46361D02*
D03*
X46558D02*
D03*
Y83439D02*
D03*
X46361D02*
D03*
X46164D02*
D03*
X45967D02*
D03*
X45770D02*
D03*
X45573D02*
D03*
X45377D02*
D03*
X45180D02*
D03*
X55740Y84251D02*
D03*
X55937D02*
D03*
X56134D02*
D03*
X56330D02*
D03*
Y83090D02*
D03*
X56134D02*
D03*
X55937D02*
D03*
X17610Y6935D02*
D03*
X17413D02*
D03*
X17217D02*
D03*
X17020D02*
D03*
Y5380D02*
D03*
X17217D02*
D03*
X17413D02*
D03*
X17610D02*
D03*
X17807D02*
D03*
X17817Y3020D02*
D03*
X17620D02*
D03*
X17423D02*
D03*
X17227D02*
D03*
X17030D02*
D03*
Y4575D02*
D03*
X17227D02*
D03*
X17423D02*
D03*
X17620D02*
D03*
X34182Y3814D02*
D03*
X34379D02*
D03*
X34576D02*
D03*
X34773D02*
D03*
X34969D02*
D03*
X35166D02*
D03*
X35363D02*
D03*
X35560D02*
D03*
Y5763D02*
D03*
X35363D02*
D03*
X35166D02*
D03*
X34969D02*
D03*
X34773D02*
D03*
X34576D02*
D03*
X34379D02*
D03*
X34182D02*
D03*
X45131Y5804D02*
D03*
X45328D02*
D03*
X45525D02*
D03*
X45722D02*
D03*
X45919D02*
D03*
X46115D02*
D03*
X46312D02*
D03*
X46509D02*
D03*
Y3855D02*
D03*
X46312D02*
D03*
X46115D02*
D03*
X45919D02*
D03*
X45722D02*
D03*
X45525D02*
D03*
X45328D02*
D03*
X45131D02*
D03*
X55888Y3506D02*
D03*
X56085D02*
D03*
X56282D02*
D03*
Y4667D02*
D03*
X56085D02*
D03*
X55888D02*
D03*
X55691D02*
D03*
X49717Y132317D02*
D03*
X49520D02*
D03*
X49324D02*
D03*
X49127D02*
D03*
X48930D02*
D03*
X48733D02*
D03*
X48536D02*
D03*
X48339D02*
D03*
Y130368D02*
D03*
X48536D02*
D03*
X48733D02*
D03*
X48930D02*
D03*
X49127D02*
D03*
X49324D02*
D03*
X49520D02*
D03*
X49717D02*
D03*
Y138238D02*
D03*
X49520D02*
D03*
X49324D02*
D03*
X49127D02*
D03*
X48930D02*
D03*
X48733D02*
D03*
X48536D02*
D03*
X48339D02*
D03*
Y140187D02*
D03*
X48536D02*
D03*
X48733D02*
D03*
X48930D02*
D03*
X49127D02*
D03*
X49324D02*
D03*
X49520D02*
D03*
X49717D02*
D03*
X49713Y148060D02*
D03*
X49516D02*
D03*
X49319D02*
D03*
X49122D02*
D03*
X48925D02*
D03*
X48729D02*
D03*
X48532D02*
D03*
X48335D02*
D03*
Y146111D02*
D03*
X48532D02*
D03*
X48729D02*
D03*
X48925D02*
D03*
X49122D02*
D03*
X49319D02*
D03*
X49516D02*
D03*
X49713D02*
D03*
X49713Y153986D02*
D03*
X49516D02*
D03*
X49319D02*
D03*
X49123D02*
D03*
X48926D02*
D03*
X48729D02*
D03*
X48532D02*
D03*
X48335D02*
D03*
Y155935D02*
D03*
X48532D02*
D03*
X48729D02*
D03*
X48926D02*
D03*
X49123D02*
D03*
X49319D02*
D03*
X49516D02*
D03*
X49713D02*
D03*
X17669Y18349D02*
D03*
X17472D02*
D03*
X17275D02*
D03*
X17078D02*
D03*
Y16794D02*
D03*
X17275D02*
D03*
X17472D02*
D03*
X17669D02*
D03*
X17866D02*
D03*
X17876Y14434D02*
D03*
X17679D02*
D03*
X17482D02*
D03*
X17285D02*
D03*
X17088D02*
D03*
Y15989D02*
D03*
X17285D02*
D03*
X17482D02*
D03*
X17679D02*
D03*
X34241Y15227D02*
D03*
X34437D02*
D03*
X34634D02*
D03*
X34831D02*
D03*
X35028D02*
D03*
X35225D02*
D03*
X35422D02*
D03*
X35619D02*
D03*
Y17176D02*
D03*
X35422D02*
D03*
X35225D02*
D03*
X35028D02*
D03*
X34831D02*
D03*
X34634D02*
D03*
X34437D02*
D03*
X34241D02*
D03*
X45190Y17217D02*
D03*
X45387D02*
D03*
X45583D02*
D03*
X45780D02*
D03*
X45977D02*
D03*
X46174D02*
D03*
X46371D02*
D03*
X46568D02*
D03*
Y15269D02*
D03*
X46371D02*
D03*
X46174D02*
D03*
X45977D02*
D03*
X45780D02*
D03*
X45583D02*
D03*
X45387D02*
D03*
X45190D02*
D03*
X55750Y16081D02*
D03*
X55947D02*
D03*
X56144D02*
D03*
X56340D02*
D03*
Y14920D02*
D03*
X56144D02*
D03*
X55947D02*
D03*
X17679Y29694D02*
D03*
X17482D02*
D03*
X17285D02*
D03*
X17088D02*
D03*
Y28139D02*
D03*
X17285D02*
D03*
X17482D02*
D03*
X17679D02*
D03*
X17876D02*
D03*
X17886Y25779D02*
D03*
X17689D02*
D03*
X17492D02*
D03*
X17295D02*
D03*
X17098D02*
D03*
Y27334D02*
D03*
X17295D02*
D03*
X17492D02*
D03*
X17689D02*
D03*
X34251Y26572D02*
D03*
X34447D02*
D03*
X34644D02*
D03*
X34841D02*
D03*
X35038D02*
D03*
X35235D02*
D03*
X35432D02*
D03*
X35629D02*
D03*
Y28521D02*
D03*
X35432D02*
D03*
X35235D02*
D03*
X35038D02*
D03*
X34841D02*
D03*
X34644D02*
D03*
X34447D02*
D03*
X34251D02*
D03*
X45200Y28562D02*
D03*
X45397D02*
D03*
X45593D02*
D03*
X45790D02*
D03*
X45987D02*
D03*
X46184D02*
D03*
X46381D02*
D03*
X46578D02*
D03*
Y26614D02*
D03*
X46381D02*
D03*
X46184D02*
D03*
X45987D02*
D03*
X45790D02*
D03*
X45593D02*
D03*
X45397D02*
D03*
X45200D02*
D03*
X55957Y26265D02*
D03*
X56154D02*
D03*
X56350D02*
D03*
Y27426D02*
D03*
X56154D02*
D03*
X55957D02*
D03*
X55760D02*
D03*
X17679Y41059D02*
D03*
X17482D02*
D03*
X17285D02*
D03*
X17088D02*
D03*
Y39504D02*
D03*
X17285D02*
D03*
X17482D02*
D03*
X17679D02*
D03*
X17876D02*
D03*
X17886Y37144D02*
D03*
X17689D02*
D03*
X17492D02*
D03*
X17295D02*
D03*
X17098D02*
D03*
Y38699D02*
D03*
X17295D02*
D03*
X17492D02*
D03*
X17689D02*
D03*
X34251Y37937D02*
D03*
X34447D02*
D03*
X34644D02*
D03*
X34841D02*
D03*
X35038D02*
D03*
X35235D02*
D03*
X35432D02*
D03*
X35629D02*
D03*
Y39886D02*
D03*
X35432D02*
D03*
X35235D02*
D03*
X35038D02*
D03*
X34841D02*
D03*
X34644D02*
D03*
X34447D02*
D03*
X34251D02*
D03*
X45200Y39927D02*
D03*
X45397D02*
D03*
X45593D02*
D03*
X45790D02*
D03*
X45987D02*
D03*
X46184D02*
D03*
X46381D02*
D03*
X46578D02*
D03*
Y37979D02*
D03*
X46381D02*
D03*
X46184D02*
D03*
X45987D02*
D03*
X45790D02*
D03*
X45593D02*
D03*
X45397D02*
D03*
X45200D02*
D03*
X55760Y38791D02*
D03*
X55957D02*
D03*
X56154D02*
D03*
X56350D02*
D03*
Y37630D02*
D03*
X56154D02*
D03*
X55957D02*
D03*
X17689Y52442D02*
D03*
X17492D02*
D03*
X17295D02*
D03*
X17098D02*
D03*
Y50887D02*
D03*
X17295D02*
D03*
X17492D02*
D03*
X17689D02*
D03*
X17886D02*
D03*
X17896Y48527D02*
D03*
X17699D02*
D03*
X17502D02*
D03*
X17305D02*
D03*
X17108D02*
D03*
Y50082D02*
D03*
X17305D02*
D03*
X17502D02*
D03*
X17699D02*
D03*
X34261Y49321D02*
D03*
X34457D02*
D03*
X34654D02*
D03*
X34851D02*
D03*
X35048D02*
D03*
X35245D02*
D03*
X35442D02*
D03*
X35639D02*
D03*
Y51269D02*
D03*
X35442D02*
D03*
X35245D02*
D03*
X35048D02*
D03*
X34851D02*
D03*
X34654D02*
D03*
X34457D02*
D03*
X34261D02*
D03*
X45210Y51311D02*
D03*
X45407D02*
D03*
X45603D02*
D03*
X45800D02*
D03*
X45997D02*
D03*
X46194D02*
D03*
X46391D02*
D03*
X46588D02*
D03*
Y49362D02*
D03*
X46391D02*
D03*
X46194D02*
D03*
X45997D02*
D03*
X45800D02*
D03*
X45603D02*
D03*
X45407D02*
D03*
X45210D02*
D03*
X55967Y49013D02*
D03*
X56164D02*
D03*
X56360D02*
D03*
Y50174D02*
D03*
X56164D02*
D03*
X55967D02*
D03*
X55770D02*
D03*
X17689Y63774D02*
D03*
X17492D02*
D03*
X17295D02*
D03*
X17098D02*
D03*
Y62219D02*
D03*
X17295D02*
D03*
X17492D02*
D03*
X17689D02*
D03*
X17886D02*
D03*
X17896Y59859D02*
D03*
X17699D02*
D03*
X17502D02*
D03*
X17305D02*
D03*
X17108D02*
D03*
Y61414D02*
D03*
X17305D02*
D03*
X17502D02*
D03*
X17699D02*
D03*
X34261Y60652D02*
D03*
X34457D02*
D03*
X34654D02*
D03*
X34851D02*
D03*
X35048D02*
D03*
X35245D02*
D03*
X35442D02*
D03*
X35639D02*
D03*
Y62601D02*
D03*
X35442D02*
D03*
X35245D02*
D03*
X35048D02*
D03*
X34851D02*
D03*
X34654D02*
D03*
X34457D02*
D03*
X34261D02*
D03*
X45210Y62642D02*
D03*
X45407D02*
D03*
X45603D02*
D03*
X45800D02*
D03*
X45997D02*
D03*
X46194D02*
D03*
X46391D02*
D03*
X46588D02*
D03*
Y60693D02*
D03*
X46391D02*
D03*
X46194D02*
D03*
X45997D02*
D03*
X45800D02*
D03*
X45603D02*
D03*
X45407D02*
D03*
X45210D02*
D03*
X55770Y61506D02*
D03*
X55967D02*
D03*
X56164D02*
D03*
X56360D02*
D03*
Y60344D02*
D03*
X56164D02*
D03*
X55967D02*
D03*
X17659Y75169D02*
D03*
X17462D02*
D03*
X17265D02*
D03*
X17068D02*
D03*
Y73614D02*
D03*
X17265D02*
D03*
X17462D02*
D03*
X17659D02*
D03*
X17856D02*
D03*
X17866Y71254D02*
D03*
X17669D02*
D03*
X17472D02*
D03*
X17275D02*
D03*
X17078D02*
D03*
Y72809D02*
D03*
X17275D02*
D03*
X17472D02*
D03*
X17669D02*
D03*
X34231Y72047D02*
D03*
X34427D02*
D03*
X34624D02*
D03*
X34821D02*
D03*
X35018D02*
D03*
X35215D02*
D03*
X35412D02*
D03*
X35609D02*
D03*
Y73996D02*
D03*
X35412D02*
D03*
X35215D02*
D03*
X35018D02*
D03*
X34821D02*
D03*
X34624D02*
D03*
X34427D02*
D03*
X34231D02*
D03*
X45180Y74037D02*
D03*
X45377D02*
D03*
X45573D02*
D03*
X45770D02*
D03*
X45967D02*
D03*
X46164D02*
D03*
X46361D02*
D03*
X46558D02*
D03*
Y72089D02*
D03*
X46361D02*
D03*
X46164D02*
D03*
X45967D02*
D03*
X45770D02*
D03*
X45573D02*
D03*
X45377D02*
D03*
X45180D02*
D03*
X55937Y71740D02*
D03*
X56134D02*
D03*
X56330D02*
D03*
Y72901D02*
D03*
X56134D02*
D03*
X55937D02*
D03*
X55740D02*
D03*
X17659Y86519D02*
D03*
X17462D02*
D03*
X17265D02*
D03*
X17068D02*
D03*
Y84964D02*
D03*
X17265D02*
D03*
X17462D02*
D03*
X17659D02*
D03*
X17856D02*
D03*
X34231Y83397D02*
D03*
X34427D02*
D03*
X34624D02*
D03*
X34821D02*
D03*
X35018D02*
D03*
X35215D02*
D03*
X35412D02*
D03*
X35609D02*
D03*
Y85346D02*
D03*
X35412D02*
D03*
X35215D02*
D03*
X35018D02*
D03*
X34821D02*
D03*
X34624D02*
D03*
X34427D02*
D03*
X34231D02*
D03*
D73*
X17866Y84159D02*
D03*
X55740Y83090D02*
D03*
X17807Y6935D02*
D03*
X17817Y4575D02*
D03*
X55691Y3506D02*
D03*
X17866Y18349D02*
D03*
X17876Y15989D02*
D03*
X55750Y14920D02*
D03*
X17876Y29694D02*
D03*
X17886Y27334D02*
D03*
X55760Y26265D02*
D03*
X17876Y41059D02*
D03*
X17886Y38699D02*
D03*
X55760Y37630D02*
D03*
X17886Y52442D02*
D03*
X17896Y50082D02*
D03*
X55770Y49013D02*
D03*
X17886Y63774D02*
D03*
X17896Y61414D02*
D03*
X55770Y60344D02*
D03*
X17856Y75169D02*
D03*
X17866Y72809D02*
D03*
X55740Y71740D02*
D03*
X17856Y86519D02*
D03*
D74*
X15642Y122653D02*
D03*
X15642Y123637D02*
D03*
X16627D02*
D03*
Y122653D02*
D03*
X16579Y103949D02*
D03*
Y104933D02*
D03*
X15594D02*
D03*
X15594Y103949D02*
D03*
X15623Y110167D02*
D03*
X15623Y111151D02*
D03*
X16607D02*
D03*
Y110167D02*
D03*
X16589Y116409D02*
D03*
Y117394D02*
D03*
X15605D02*
D03*
X15605Y116409D02*
D03*
D75*
X16686Y123046D02*
D03*
Y123243D02*
D03*
Y123440D02*
D03*
X15583D02*
D03*
Y123243D02*
D03*
Y123046D02*
D03*
Y122849D02*
D03*
X15535Y104146D02*
D03*
Y104342D02*
D03*
Y104539D02*
D03*
Y104736D02*
D03*
X16638D02*
D03*
Y104539D02*
D03*
Y104342D02*
D03*
X16666Y110561D02*
D03*
Y110758D02*
D03*
Y110954D02*
D03*
X15563D02*
D03*
Y110758D02*
D03*
Y110561D02*
D03*
Y110364D02*
D03*
X15546Y116606D02*
D03*
Y116803D02*
D03*
Y117000D02*
D03*
Y117197D02*
D03*
X16648D02*
D03*
Y117000D02*
D03*
Y116803D02*
D03*
D76*
X69716Y155875D02*
D03*
Y155678D02*
D03*
Y155482D02*
D03*
Y155285D02*
D03*
X70424Y155875D02*
D03*
Y155678D02*
D03*
Y155482D02*
D03*
X69716Y132218D02*
D03*
Y132021D02*
D03*
Y131824D02*
D03*
Y131627D02*
D03*
X70424Y132218D02*
D03*
Y132021D02*
D03*
Y131824D02*
D03*
Y139694D02*
D03*
Y139891D02*
D03*
Y140088D02*
D03*
X69716Y139497D02*
D03*
Y139694D02*
D03*
Y139891D02*
D03*
Y140088D02*
D03*
X70424Y147566D02*
D03*
Y147763D02*
D03*
Y147960D02*
D03*
X69716Y147369D02*
D03*
Y147566D02*
D03*
Y147763D02*
D03*
Y147960D02*
D03*
D77*
X70424Y155285D02*
D03*
Y131627D02*
D03*
Y139497D02*
D03*
Y147369D02*
D03*
D78*
X76940Y83647D02*
D03*
X91234Y152784D02*
D03*
X77690Y38593D02*
D03*
D79*
X77121Y83828D02*
D03*
X77302Y84009D02*
D03*
X76411Y84176D02*
D03*
X76592Y84357D02*
D03*
X76773Y84538D02*
D03*
X91067Y153674D02*
D03*
X90886Y153493D02*
D03*
X90705Y153313D02*
D03*
X91596Y153146D02*
D03*
X91415Y152965D02*
D03*
X77523Y39484D02*
D03*
X77342Y39303D02*
D03*
X77161Y39122D02*
D03*
X78052Y38955D02*
D03*
X77871Y38774D02*
D03*
D80*
X76856Y84093D02*
D03*
X91150Y153229D02*
D03*
X77607Y39038D02*
D03*
D81*
X104926Y128171D02*
D03*
D82*
X105781Y128810D02*
D03*
Y128555D02*
D03*
Y128299D02*
D03*
Y128043D02*
D03*
Y127787D02*
D03*
Y127531D02*
D03*
X104072D02*
D03*
Y127787D02*
D03*
Y128810D02*
D03*
Y128555D02*
D03*
Y128299D02*
D03*
Y128043D02*
D03*
D83*
X28215Y83963D02*
D03*
Y83766D02*
D03*
Y83569D02*
D03*
Y83372D02*
D03*
Y83176D02*
D03*
Y82979D02*
D03*
X26869D02*
D03*
Y83176D02*
D03*
Y83372D02*
D03*
Y83569D02*
D03*
Y83766D02*
D03*
Y83963D02*
D03*
X26820Y4379D02*
D03*
Y4183D02*
D03*
Y3986D02*
D03*
Y3789D02*
D03*
Y3592D02*
D03*
Y3395D02*
D03*
X28167D02*
D03*
Y3592D02*
D03*
Y3789D02*
D03*
Y3986D02*
D03*
Y4183D02*
D03*
Y4379D02*
D03*
X30552Y131496D02*
D03*
Y131300D02*
D03*
Y131103D02*
D03*
Y130906D02*
D03*
Y130709D02*
D03*
Y130512D02*
D03*
X31899D02*
D03*
Y130709D02*
D03*
Y130906D02*
D03*
Y131103D02*
D03*
Y131300D02*
D03*
Y131496D02*
D03*
Y139366D02*
D03*
Y139170D02*
D03*
Y138973D02*
D03*
Y138776D02*
D03*
Y138579D02*
D03*
Y138382D02*
D03*
X30552D02*
D03*
Y138579D02*
D03*
Y138776D02*
D03*
Y138973D02*
D03*
Y139170D02*
D03*
Y139366D02*
D03*
X30548Y147239D02*
D03*
Y147042D02*
D03*
Y146845D02*
D03*
Y146648D02*
D03*
Y146451D02*
D03*
Y146255D02*
D03*
X31894D02*
D03*
Y146451D02*
D03*
Y146648D02*
D03*
Y146845D02*
D03*
Y147042D02*
D03*
Y147239D02*
D03*
X31895Y155114D02*
D03*
Y154917D02*
D03*
Y154720D02*
D03*
Y154523D02*
D03*
Y154326D02*
D03*
Y154130D02*
D03*
X30548D02*
D03*
Y154326D02*
D03*
Y154523D02*
D03*
Y154720D02*
D03*
Y154917D02*
D03*
Y155114D02*
D03*
X28225Y15793D02*
D03*
Y15596D02*
D03*
Y15399D02*
D03*
Y15202D02*
D03*
Y15006D02*
D03*
Y14809D02*
D03*
X26879D02*
D03*
Y15006D02*
D03*
Y15202D02*
D03*
Y15399D02*
D03*
Y15596D02*
D03*
Y15793D02*
D03*
X26889Y27138D02*
D03*
Y26941D02*
D03*
Y26744D02*
D03*
Y26547D02*
D03*
Y26350D02*
D03*
Y26154D02*
D03*
X28235D02*
D03*
Y26350D02*
D03*
Y26547D02*
D03*
Y26744D02*
D03*
Y26941D02*
D03*
Y27138D02*
D03*
Y38503D02*
D03*
Y38306D02*
D03*
Y38109D02*
D03*
Y37912D02*
D03*
Y37716D02*
D03*
Y37519D02*
D03*
X26889D02*
D03*
Y37716D02*
D03*
Y37912D02*
D03*
Y38109D02*
D03*
Y38306D02*
D03*
Y38503D02*
D03*
X26899Y49886D02*
D03*
Y49689D02*
D03*
Y49493D02*
D03*
Y49296D02*
D03*
Y49099D02*
D03*
Y48902D02*
D03*
X28245D02*
D03*
Y49099D02*
D03*
Y49296D02*
D03*
Y49493D02*
D03*
Y49689D02*
D03*
Y49886D02*
D03*
Y61218D02*
D03*
Y61021D02*
D03*
Y60824D02*
D03*
Y60627D02*
D03*
Y60430D02*
D03*
Y60234D02*
D03*
X26899D02*
D03*
Y60430D02*
D03*
Y60627D02*
D03*
Y60824D02*
D03*
Y61021D02*
D03*
Y61218D02*
D03*
X26869Y72613D02*
D03*
Y72416D02*
D03*
Y72219D02*
D03*
Y72022D02*
D03*
Y71826D02*
D03*
Y71629D02*
D03*
X28215D02*
D03*
Y71826D02*
D03*
Y72022D02*
D03*
Y72219D02*
D03*
Y72416D02*
D03*
Y72613D02*
D03*
D84*
X28034Y82798D02*
D03*
X27837D02*
D03*
X27640D02*
D03*
X27443D02*
D03*
X27247D02*
D03*
X27050D02*
D03*
Y84144D02*
D03*
X27247D02*
D03*
X27443D02*
D03*
X27640D02*
D03*
X27837D02*
D03*
X28034D02*
D03*
X27985Y4561D02*
D03*
X27789D02*
D03*
X27592D02*
D03*
X27395D02*
D03*
X27198D02*
D03*
X27001D02*
D03*
Y3214D02*
D03*
X27198D02*
D03*
X27395D02*
D03*
X27592D02*
D03*
X27789D02*
D03*
X27985D02*
D03*
X31718Y131678D02*
D03*
X31521D02*
D03*
X31324D02*
D03*
X31127D02*
D03*
X30930D02*
D03*
X30733D02*
D03*
Y130331D02*
D03*
X30930D02*
D03*
X31127D02*
D03*
X31324D02*
D03*
X31521D02*
D03*
X31718D02*
D03*
Y138201D02*
D03*
X31521D02*
D03*
X31324D02*
D03*
X31127D02*
D03*
X30930D02*
D03*
X30733D02*
D03*
Y139548D02*
D03*
X30930D02*
D03*
X31127D02*
D03*
X31324D02*
D03*
X31521D02*
D03*
X31718D02*
D03*
X31713Y147420D02*
D03*
X31517D02*
D03*
X31320D02*
D03*
X31123D02*
D03*
X30926D02*
D03*
X30729D02*
D03*
Y146074D02*
D03*
X30926D02*
D03*
X31123D02*
D03*
X31320D02*
D03*
X31517D02*
D03*
X31713D02*
D03*
X31714Y153948D02*
D03*
X31517D02*
D03*
X31320D02*
D03*
X31123D02*
D03*
X30926D02*
D03*
X30729D02*
D03*
Y155295D02*
D03*
X30926D02*
D03*
X31123D02*
D03*
X31320D02*
D03*
X31517D02*
D03*
X31714D02*
D03*
X28044Y14628D02*
D03*
X27847D02*
D03*
X27650D02*
D03*
X27453D02*
D03*
X27257D02*
D03*
X27060D02*
D03*
Y15974D02*
D03*
X27257D02*
D03*
X27453D02*
D03*
X27650D02*
D03*
X27847D02*
D03*
X28044D02*
D03*
X28054Y27319D02*
D03*
X27857D02*
D03*
X27660D02*
D03*
X27463D02*
D03*
X27267D02*
D03*
X27070D02*
D03*
Y25973D02*
D03*
X27267D02*
D03*
X27463D02*
D03*
X27660D02*
D03*
X27857D02*
D03*
X28054D02*
D03*
Y37338D02*
D03*
X27857D02*
D03*
X27660D02*
D03*
X27463D02*
D03*
X27267D02*
D03*
X27070D02*
D03*
Y38684D02*
D03*
X27267D02*
D03*
X27463D02*
D03*
X27660D02*
D03*
X27857D02*
D03*
X28054D02*
D03*
X28064Y50067D02*
D03*
X27867D02*
D03*
X27670D02*
D03*
X27473D02*
D03*
X27277D02*
D03*
X27080D02*
D03*
Y48721D02*
D03*
X27277D02*
D03*
X27473D02*
D03*
X27670D02*
D03*
X27867D02*
D03*
X28064D02*
D03*
Y60052D02*
D03*
X27867D02*
D03*
X27670D02*
D03*
X27473D02*
D03*
X27277D02*
D03*
X27080D02*
D03*
Y61399D02*
D03*
X27277D02*
D03*
X27473D02*
D03*
X27670D02*
D03*
X27867D02*
D03*
X28064D02*
D03*
X28034Y72794D02*
D03*
X27837D02*
D03*
X27640D02*
D03*
X27443D02*
D03*
X27247D02*
D03*
X27050D02*
D03*
Y71448D02*
D03*
X27247D02*
D03*
X27443D02*
D03*
X27640D02*
D03*
X27837D02*
D03*
X28034D02*
D03*
D85*
X27542Y83471D02*
D03*
X27493Y3887D02*
D03*
X31226Y131004D02*
D03*
Y138874D02*
D03*
X31221Y146747D02*
D03*
X31221Y154622D02*
D03*
X27552Y15301D02*
D03*
X27562Y26646D02*
D03*
Y38011D02*
D03*
X27572Y49394D02*
D03*
Y60726D02*
D03*
X27542Y72121D02*
D03*
D86*
X75736Y84668D02*
D03*
X32140Y133240D02*
D03*
X29670Y5250D02*
D03*
X32146Y141121D02*
D03*
X29740Y16633D02*
D03*
X32109Y148986D02*
D03*
X29693Y27994D02*
D03*
X32133Y156864D02*
D03*
X29780Y39342D02*
D03*
X90006Y153792D02*
D03*
X29800Y50726D02*
D03*
X29730Y62057D02*
D03*
X29700Y73452D02*
D03*
X29784Y84763D02*
D03*
X90066Y136811D02*
D03*
X76454Y17424D02*
D03*
X76496Y39654D02*
D03*
X75874Y63013D02*
D03*
D87*
X75342Y84923D02*
D03*
Y84668D02*
D03*
Y84412D02*
D03*
X76130Y84923D02*
D03*
Y84668D02*
D03*
X25488Y3986D02*
D03*
Y3730D02*
D03*
X26236Y4242D02*
D03*
Y3986D02*
D03*
Y3730D02*
D03*
X39103Y132059D02*
D03*
Y131803D02*
D03*
Y131547D02*
D03*
X39851Y132059D02*
D03*
Y131803D02*
D03*
X22933Y131326D02*
D03*
Y131070D02*
D03*
Y130814D02*
D03*
X23681Y131326D02*
D03*
Y131070D02*
D03*
X18628Y131329D02*
D03*
Y131074D02*
D03*
Y130818D02*
D03*
X19376Y131329D02*
D03*
Y131074D02*
D03*
X39103Y139929D02*
D03*
Y139673D02*
D03*
Y139417D02*
D03*
X39851Y139929D02*
D03*
Y139673D02*
D03*
X23681Y138940D02*
D03*
Y139196D02*
D03*
X22933Y138684D02*
D03*
Y138940D02*
D03*
Y139196D02*
D03*
X19376Y138944D02*
D03*
Y139199D02*
D03*
X18628Y138688D02*
D03*
Y138944D02*
D03*
Y139199D02*
D03*
X39847Y147545D02*
D03*
Y147801D02*
D03*
X39098Y147289D02*
D03*
Y147545D02*
D03*
Y147801D02*
D03*
X23677Y146812D02*
D03*
Y147068D02*
D03*
X22928Y146556D02*
D03*
Y146812D02*
D03*
Y147068D02*
D03*
X18623Y147072D02*
D03*
Y146816D02*
D03*
Y146560D02*
D03*
X19372Y147072D02*
D03*
Y146816D02*
D03*
X39099Y155676D02*
D03*
Y155420D02*
D03*
Y155164D02*
D03*
X39847Y155676D02*
D03*
Y155420D02*
D03*
X22929Y154943D02*
D03*
Y154687D02*
D03*
Y154431D02*
D03*
X23677Y154943D02*
D03*
Y154687D02*
D03*
X19372Y154691D02*
D03*
Y154947D02*
D03*
X18624Y154435D02*
D03*
Y154691D02*
D03*
Y154947D02*
D03*
X31746Y133496D02*
D03*
Y133240D02*
D03*
Y132984D02*
D03*
X32534Y133496D02*
D03*
Y133240D02*
D03*
X29276Y5506D02*
D03*
Y5250D02*
D03*
Y4994D02*
D03*
X30063Y5506D02*
D03*
Y5250D02*
D03*
X31752Y141377D02*
D03*
Y141121D02*
D03*
Y140865D02*
D03*
X32540Y141377D02*
D03*
Y141121D02*
D03*
X29346Y16889D02*
D03*
Y16633D02*
D03*
Y16377D02*
D03*
X30133Y16889D02*
D03*
Y16633D02*
D03*
X32502Y148986D02*
D03*
Y149242D02*
D03*
X31715Y148730D02*
D03*
Y148986D02*
D03*
Y149242D02*
D03*
X30087Y27994D02*
D03*
Y28250D02*
D03*
X29299Y27739D02*
D03*
Y27994D02*
D03*
Y28250D02*
D03*
X32527Y156864D02*
D03*
Y157120D02*
D03*
X31740Y156608D02*
D03*
Y156864D02*
D03*
Y157120D02*
D03*
X30174Y39342D02*
D03*
Y39598D02*
D03*
X29386Y39087D02*
D03*
Y39342D02*
D03*
Y39598D02*
D03*
X90400Y153792D02*
D03*
Y154048D02*
D03*
X89613Y153537D02*
D03*
Y153792D02*
D03*
Y154048D02*
D03*
X30194Y50726D02*
D03*
Y50982D02*
D03*
X29406Y50470D02*
D03*
Y50726D02*
D03*
Y50982D02*
D03*
X30124Y62057D02*
D03*
Y62313D02*
D03*
X29336Y61801D02*
D03*
Y62057D02*
D03*
Y62313D02*
D03*
X30094Y73452D02*
D03*
Y73708D02*
D03*
X29306Y73197D02*
D03*
Y73452D02*
D03*
Y73708D02*
D03*
X30178Y84763D02*
D03*
Y85019D02*
D03*
X29391Y84507D02*
D03*
Y84763D02*
D03*
Y85019D02*
D03*
X26294Y15144D02*
D03*
Y15400D02*
D03*
Y15656D02*
D03*
X25546Y15144D02*
D03*
Y15400D02*
D03*
X25556Y26745D02*
D03*
Y26489D02*
D03*
X26304Y27001D02*
D03*
Y26745D02*
D03*
Y26489D02*
D03*
Y37854D02*
D03*
Y38110D02*
D03*
Y38366D02*
D03*
X25556Y37854D02*
D03*
Y38110D02*
D03*
X25566Y49493D02*
D03*
Y49237D02*
D03*
X26314Y49749D02*
D03*
Y49493D02*
D03*
Y49237D02*
D03*
Y60569D02*
D03*
Y60825D02*
D03*
Y61081D02*
D03*
X25566Y60569D02*
D03*
Y60825D02*
D03*
X26284Y71964D02*
D03*
Y72220D02*
D03*
Y72476D02*
D03*
X25536Y71964D02*
D03*
Y72220D02*
D03*
X26284Y83314D02*
D03*
Y83570D02*
D03*
Y83826D02*
D03*
X25536Y83314D02*
D03*
Y83570D02*
D03*
X90460Y136811D02*
D03*
Y137067D02*
D03*
X89673Y136555D02*
D03*
Y136811D02*
D03*
Y137067D02*
D03*
X76848Y17424D02*
D03*
Y17680D02*
D03*
X76061Y17168D02*
D03*
Y17424D02*
D03*
Y17680D02*
D03*
X76890Y39654D02*
D03*
Y39910D02*
D03*
X76103Y39398D02*
D03*
Y39654D02*
D03*
Y39910D02*
D03*
X75481Y63269D02*
D03*
Y63013D02*
D03*
Y62757D02*
D03*
X76268Y63269D02*
D03*
Y63013D02*
D03*
D88*
X76130Y84412D02*
D03*
X25488Y4242D02*
D03*
X39851Y131547D02*
D03*
X23681Y130814D02*
D03*
X19376Y130818D02*
D03*
X39851Y139417D02*
D03*
X23681Y138684D02*
D03*
X19376Y138688D02*
D03*
X39847Y147289D02*
D03*
X23677Y146556D02*
D03*
X19372Y146560D02*
D03*
X39847Y155164D02*
D03*
X23677Y154431D02*
D03*
X19372Y154435D02*
D03*
X32534Y132984D02*
D03*
X30063Y4994D02*
D03*
X32540Y140865D02*
D03*
X30133Y16377D02*
D03*
X32502Y148730D02*
D03*
X30087Y27739D02*
D03*
X32527Y156608D02*
D03*
X30174Y39087D02*
D03*
X90400Y153537D02*
D03*
X30194Y50470D02*
D03*
X30124Y61801D02*
D03*
X30094Y73197D02*
D03*
X30178Y84507D02*
D03*
X25546Y15656D02*
D03*
X25556Y27001D02*
D03*
Y38366D02*
D03*
X25566Y49749D02*
D03*
Y61081D02*
D03*
X25536Y72476D02*
D03*
Y83826D02*
D03*
X90460Y136555D02*
D03*
X76848Y17168D02*
D03*
X76890Y39398D02*
D03*
X76268Y62757D02*
D03*
D89*
X20777Y154039D02*
D03*
X21777D02*
D03*
Y152939D02*
D03*
X20777D02*
D03*
X25125Y130417D02*
D03*
X26125D02*
D03*
Y129317D02*
D03*
X25125D02*
D03*
X20781Y130422D02*
D03*
X21781D02*
D03*
Y129322D02*
D03*
X20781D02*
D03*
X25125Y137187D02*
D03*
X26125D02*
D03*
Y138287D02*
D03*
X25125D02*
D03*
X20781Y137192D02*
D03*
X21781D02*
D03*
Y138292D02*
D03*
X20781D02*
D03*
X25121Y145059D02*
D03*
X26121D02*
D03*
Y146159D02*
D03*
X25121D02*
D03*
X20777Y146164D02*
D03*
X21777D02*
D03*
Y145064D02*
D03*
X20777D02*
D03*
X25121Y152934D02*
D03*
X26121D02*
D03*
Y154034D02*
D03*
X25121D02*
D03*
D90*
X67888Y155465D02*
D03*
X67632D02*
D03*
X67376D02*
D03*
X67888Y154756D02*
D03*
X67632D02*
D03*
X67376D02*
D03*
X67372Y131118D02*
D03*
X67628D02*
D03*
X67884D02*
D03*
X67372Y131827D02*
D03*
X67628D02*
D03*
X67884D02*
D03*
X67339Y138991D02*
D03*
X67595D02*
D03*
X67850D02*
D03*
X67339Y139700D02*
D03*
X67595D02*
D03*
X67850D02*
D03*
X67887Y147572D02*
D03*
X67631D02*
D03*
X67376D02*
D03*
X67887Y146864D02*
D03*
X67631D02*
D03*
X67376D02*
D03*
D91*
X49294Y83920D02*
D03*
X38411Y4314D02*
D03*
X49263Y4338D02*
D03*
X38479Y15726D02*
D03*
X49331Y15756D02*
D03*
X38483Y27076D02*
D03*
X49387Y27094D02*
D03*
X38449Y38435D02*
D03*
X49333Y38466D02*
D03*
X38470Y49807D02*
D03*
X49351Y49844D02*
D03*
X38470Y61155D02*
D03*
X49376Y61181D02*
D03*
X38473Y72545D02*
D03*
X49347Y72577D02*
D03*
X38473Y83901D02*
D03*
D92*
X48761Y84120D02*
D03*
Y83920D02*
D03*
Y83719D02*
D03*
X49828D02*
D03*
Y83920D02*
D03*
Y84120D02*
D03*
X38944Y4515D02*
D03*
Y4314D02*
D03*
Y4113D02*
D03*
X37877D02*
D03*
Y4314D02*
D03*
Y4515D02*
D03*
X48730Y4539D02*
D03*
Y4338D02*
D03*
Y4138D02*
D03*
X49797D02*
D03*
Y4338D02*
D03*
Y4539D02*
D03*
X39013Y15927D02*
D03*
Y15726D02*
D03*
Y15525D02*
D03*
X37946D02*
D03*
Y15726D02*
D03*
Y15927D02*
D03*
X48798Y15957D02*
D03*
Y15756D02*
D03*
Y15556D02*
D03*
X49865D02*
D03*
Y15756D02*
D03*
Y15957D02*
D03*
X39016Y27277D02*
D03*
Y27076D02*
D03*
Y26875D02*
D03*
X37949D02*
D03*
Y27076D02*
D03*
Y27277D02*
D03*
X48853Y27295D02*
D03*
Y27094D02*
D03*
Y26893D02*
D03*
X49920D02*
D03*
Y27094D02*
D03*
Y27295D02*
D03*
X38982Y38636D02*
D03*
Y38435D02*
D03*
Y38234D02*
D03*
X37916D02*
D03*
Y38435D02*
D03*
Y38636D02*
D03*
X48800Y38667D02*
D03*
Y38466D02*
D03*
Y38266D02*
D03*
X49867D02*
D03*
Y38466D02*
D03*
Y38667D02*
D03*
X39004Y50008D02*
D03*
Y49807D02*
D03*
Y49606D02*
D03*
X37937D02*
D03*
Y49807D02*
D03*
Y50008D02*
D03*
X48817Y50045D02*
D03*
Y49844D02*
D03*
Y49643D02*
D03*
X49884D02*
D03*
Y49844D02*
D03*
Y50045D02*
D03*
X39004Y61356D02*
D03*
Y61155D02*
D03*
Y60954D02*
D03*
X37937D02*
D03*
Y61155D02*
D03*
Y61356D02*
D03*
X48842Y61382D02*
D03*
Y61181D02*
D03*
Y60981D02*
D03*
X49909D02*
D03*
Y61181D02*
D03*
Y61382D02*
D03*
X39006Y72746D02*
D03*
Y72545D02*
D03*
Y72344D02*
D03*
X37939D02*
D03*
Y72545D02*
D03*
Y72746D02*
D03*
X48814Y72778D02*
D03*
Y72577D02*
D03*
Y72376D02*
D03*
X49881D02*
D03*
Y72577D02*
D03*
Y72778D02*
D03*
X39006Y84102D02*
D03*
Y83901D02*
D03*
Y83700D02*
D03*
X37939D02*
D03*
Y83901D02*
D03*
Y84102D02*
D03*
D93*
X49094Y83386D02*
D03*
X49294D02*
D03*
X49495D02*
D03*
Y84453D02*
D03*
X49294D02*
D03*
X49094D02*
D03*
X38210Y4848D02*
D03*
X38411D02*
D03*
X38611D02*
D03*
Y3781D02*
D03*
X38411D02*
D03*
X38210D02*
D03*
X49063Y3805D02*
D03*
X49263D02*
D03*
X49464D02*
D03*
Y4872D02*
D03*
X49263D02*
D03*
X49063D02*
D03*
X38278Y16260D02*
D03*
X38479D02*
D03*
X38680D02*
D03*
Y15193D02*
D03*
X38479D02*
D03*
X38278D02*
D03*
X49131Y15223D02*
D03*
X49331D02*
D03*
X49532D02*
D03*
Y16290D02*
D03*
X49331D02*
D03*
X49131D02*
D03*
X38282Y27609D02*
D03*
X38483D02*
D03*
X38683D02*
D03*
Y26542D02*
D03*
X38483D02*
D03*
X38282D02*
D03*
X49186Y26561D02*
D03*
X49387D02*
D03*
X49588D02*
D03*
Y27628D02*
D03*
X49387D02*
D03*
X49186D02*
D03*
X38248Y38968D02*
D03*
X38449D02*
D03*
X38650D02*
D03*
Y37901D02*
D03*
X38449D02*
D03*
X38248D02*
D03*
X49133Y37933D02*
D03*
X49333D02*
D03*
X49534D02*
D03*
Y39000D02*
D03*
X49333D02*
D03*
X49133D02*
D03*
X38270Y50340D02*
D03*
X38470D02*
D03*
X38671D02*
D03*
Y49273D02*
D03*
X38470D02*
D03*
X38270D02*
D03*
X49150Y49311D02*
D03*
X49351D02*
D03*
X49552D02*
D03*
Y50378D02*
D03*
X49351D02*
D03*
X49150D02*
D03*
X38270Y61688D02*
D03*
X38470D02*
D03*
X38671D02*
D03*
Y60621D02*
D03*
X38470D02*
D03*
X38270D02*
D03*
X49175Y60648D02*
D03*
X49376D02*
D03*
X49576D02*
D03*
Y61715D02*
D03*
X49376D02*
D03*
X49175D02*
D03*
X38272Y73078D02*
D03*
X38473D02*
D03*
X38674D02*
D03*
Y72011D02*
D03*
X38473D02*
D03*
X38272D02*
D03*
X49146Y72043D02*
D03*
X49347D02*
D03*
X49548D02*
D03*
Y73110D02*
D03*
X49347D02*
D03*
X49146D02*
D03*
X38272Y84434D02*
D03*
X38473D02*
D03*
X38674D02*
D03*
Y83367D02*
D03*
X38473D02*
D03*
X38272D02*
D03*
D94*
X8237Y83628D02*
D03*
X5787D02*
D03*
D95*
X97374Y7212D02*
D03*
Y7389D02*
D03*
Y7567D02*
D03*
Y7744D02*
D03*
Y7921D02*
D03*
Y8098D02*
D03*
X96271Y7212D02*
D03*
Y7389D02*
D03*
Y7567D02*
D03*
Y7744D02*
D03*
Y7921D02*
D03*
Y8098D02*
D03*
D96*
X96823Y7655D02*
D03*
D97*
X21252Y82839D02*
D03*
X20752D02*
D03*
X20252D02*
D03*
X21252Y84089D02*
D03*
X20752D02*
D03*
X20252D02*
D03*
X20203Y4506D02*
D03*
X20703D02*
D03*
X21203D02*
D03*
X20203Y3256D02*
D03*
X20703D02*
D03*
X21203D02*
D03*
X15699Y129836D02*
D03*
X15199D02*
D03*
X14699D02*
D03*
X15699Y131086D02*
D03*
X15199D02*
D03*
X14699D02*
D03*
Y138956D02*
D03*
X15199D02*
D03*
X15699D02*
D03*
X14699Y137706D02*
D03*
X15199D02*
D03*
X15699D02*
D03*
X14695Y146829D02*
D03*
X15195D02*
D03*
X15695D02*
D03*
X14695Y145579D02*
D03*
X15195D02*
D03*
X15695D02*
D03*
X15695Y153454D02*
D03*
X15195D02*
D03*
X14695D02*
D03*
X15695Y154704D02*
D03*
X15195D02*
D03*
X14695D02*
D03*
X21262Y14669D02*
D03*
X20762D02*
D03*
X20262D02*
D03*
X21262Y15919D02*
D03*
X20762D02*
D03*
X20262D02*
D03*
X20272Y27264D02*
D03*
X20772D02*
D03*
X21272D02*
D03*
X20272Y26014D02*
D03*
X20772D02*
D03*
X21272D02*
D03*
Y37379D02*
D03*
X20772D02*
D03*
X20272D02*
D03*
X21272Y38629D02*
D03*
X20772D02*
D03*
X20272D02*
D03*
X20282Y50013D02*
D03*
X20782D02*
D03*
X21282D02*
D03*
X20282Y48763D02*
D03*
X20782D02*
D03*
X21282D02*
D03*
Y60094D02*
D03*
X20782D02*
D03*
X20282D02*
D03*
X21282Y61344D02*
D03*
X20782D02*
D03*
X20282D02*
D03*
X21252Y71489D02*
D03*
X20752D02*
D03*
X20252D02*
D03*
X21252Y72739D02*
D03*
X20752D02*
D03*
X20252D02*
D03*
D98*
X101646Y84633D02*
D03*
Y85133D02*
D03*
Y85633D02*
D03*
Y86133D02*
D03*
X99646Y84633D02*
D03*
Y85133D02*
D03*
Y85633D02*
D03*
X101646Y14628D02*
D03*
Y15128D02*
D03*
Y15628D02*
D03*
Y16128D02*
D03*
X99646Y14628D02*
D03*
Y15128D02*
D03*
Y15628D02*
D03*
X99656Y55663D02*
D03*
Y55163D02*
D03*
Y54663D02*
D03*
X101656Y56163D02*
D03*
Y55663D02*
D03*
Y55163D02*
D03*
Y54663D02*
D03*
X101636Y24643D02*
D03*
Y25143D02*
D03*
Y25643D02*
D03*
Y26143D02*
D03*
X99636Y24643D02*
D03*
Y25143D02*
D03*
Y25643D02*
D03*
X99650Y65633D02*
D03*
Y65133D02*
D03*
Y64633D02*
D03*
X101650Y66133D02*
D03*
Y65633D02*
D03*
Y65133D02*
D03*
Y64633D02*
D03*
X99653Y35624D02*
D03*
Y35124D02*
D03*
Y34624D02*
D03*
X101653Y36124D02*
D03*
Y35624D02*
D03*
Y35124D02*
D03*
Y34624D02*
D03*
X99646Y75633D02*
D03*
Y75133D02*
D03*
Y74633D02*
D03*
X101646Y76133D02*
D03*
Y75633D02*
D03*
Y75133D02*
D03*
Y74633D02*
D03*
Y44620D02*
D03*
Y45120D02*
D03*
Y45620D02*
D03*
Y46120D02*
D03*
X99646Y44620D02*
D03*
Y45120D02*
D03*
Y45620D02*
D03*
D99*
Y86133D02*
D03*
Y16128D02*
D03*
X99656Y56163D02*
D03*
X99636Y26143D02*
D03*
X99650Y66133D02*
D03*
X99653Y36124D02*
D03*
X99646Y76133D02*
D03*
Y46120D02*
D03*
D100*
X110250Y106032D02*
D03*
X106099Y5905D02*
D03*
X112265Y95227D02*
D03*
X112166Y129565D02*
D03*
X102023Y105367D02*
D03*
D101*
X111077Y105648D02*
D03*
X106926Y5521D02*
D03*
X113092Y94843D02*
D03*
X112992Y129181D02*
D03*
X101197Y105750D02*
D03*
D102*
X111077Y105904D02*
D03*
Y106160D02*
D03*
Y106416D02*
D03*
X109423Y105648D02*
D03*
Y105904D02*
D03*
Y106160D02*
D03*
Y106416D02*
D03*
X105272Y6289D02*
D03*
Y6033D02*
D03*
Y5777D02*
D03*
Y5521D02*
D03*
X106926Y6289D02*
D03*
Y6033D02*
D03*
Y5777D02*
D03*
X111438Y95611D02*
D03*
Y95355D02*
D03*
Y95099D02*
D03*
Y94843D02*
D03*
X113092Y95611D02*
D03*
Y95355D02*
D03*
Y95099D02*
D03*
X111339Y129949D02*
D03*
Y129693D02*
D03*
Y129437D02*
D03*
Y129181D02*
D03*
X112992Y129949D02*
D03*
Y129693D02*
D03*
Y129437D02*
D03*
X102850Y104983D02*
D03*
Y105239D02*
D03*
Y105494D02*
D03*
Y105750D02*
D03*
X101197Y104983D02*
D03*
Y105239D02*
D03*
Y105494D02*
D03*
D103*
X112215Y96404D02*
D03*
Y98924D02*
D03*
X103099Y5955D02*
D03*
Y8475D02*
D03*
X116650Y98924D02*
D03*
Y96404D02*
D03*
X109166Y129615D02*
D03*
Y132135D02*
D03*
X107250Y106083D02*
D03*
Y108602D02*
D03*
D104*
X109430Y108532D02*
D03*
X111030D02*
D03*
X106879Y8405D02*
D03*
X105279D02*
D03*
X112946Y132065D02*
D03*
X111346D02*
D03*
D105*
X46843Y85102D02*
D03*
Y84905D02*
D03*
Y84708D02*
D03*
Y84511D02*
D03*
Y84315D02*
D03*
Y84118D02*
D03*
Y83921D02*
D03*
Y83724D02*
D03*
X44894D02*
D03*
Y83921D02*
D03*
Y84118D02*
D03*
Y84315D02*
D03*
Y84511D02*
D03*
Y84708D02*
D03*
Y84905D02*
D03*
Y85102D02*
D03*
X33897Y5477D02*
D03*
Y5280D02*
D03*
Y5083D02*
D03*
Y4887D02*
D03*
Y4690D02*
D03*
Y4493D02*
D03*
Y4296D02*
D03*
Y4099D02*
D03*
X35845D02*
D03*
Y4296D02*
D03*
Y4493D02*
D03*
Y4690D02*
D03*
Y4887D02*
D03*
Y5083D02*
D03*
Y5280D02*
D03*
Y5477D02*
D03*
X46795Y5518D02*
D03*
Y5322D02*
D03*
Y5125D02*
D03*
Y4928D02*
D03*
Y4731D02*
D03*
Y4534D02*
D03*
Y4337D02*
D03*
Y4140D02*
D03*
X44846D02*
D03*
Y4337D02*
D03*
Y4534D02*
D03*
Y4731D02*
D03*
Y4928D02*
D03*
Y5125D02*
D03*
Y5322D02*
D03*
Y5518D02*
D03*
X50003Y130654D02*
D03*
Y130851D02*
D03*
Y131048D02*
D03*
Y131244D02*
D03*
Y131441D02*
D03*
Y131638D02*
D03*
Y131835D02*
D03*
Y132032D02*
D03*
X48054D02*
D03*
Y131835D02*
D03*
Y131638D02*
D03*
Y131441D02*
D03*
Y131244D02*
D03*
Y131048D02*
D03*
Y130851D02*
D03*
Y130654D02*
D03*
Y138524D02*
D03*
Y138721D02*
D03*
Y138918D02*
D03*
Y139114D02*
D03*
Y139311D02*
D03*
Y139508D02*
D03*
Y139705D02*
D03*
Y139902D02*
D03*
X50003D02*
D03*
Y139705D02*
D03*
Y139508D02*
D03*
Y139311D02*
D03*
Y139114D02*
D03*
Y138918D02*
D03*
Y138721D02*
D03*
Y138524D02*
D03*
X49998Y146396D02*
D03*
Y146593D02*
D03*
Y146790D02*
D03*
Y146987D02*
D03*
Y147184D02*
D03*
Y147381D02*
D03*
Y147577D02*
D03*
Y147774D02*
D03*
X48050D02*
D03*
Y147577D02*
D03*
Y147381D02*
D03*
Y147184D02*
D03*
Y146987D02*
D03*
Y146790D02*
D03*
Y146593D02*
D03*
Y146396D02*
D03*
X48050Y154271D02*
D03*
Y154468D02*
D03*
Y154665D02*
D03*
Y154862D02*
D03*
Y155059D02*
D03*
Y155255D02*
D03*
Y155452D02*
D03*
Y155649D02*
D03*
X49999D02*
D03*
Y155452D02*
D03*
Y155255D02*
D03*
Y155059D02*
D03*
Y154862D02*
D03*
Y154665D02*
D03*
Y154468D02*
D03*
Y154271D02*
D03*
X33955Y16891D02*
D03*
Y16694D02*
D03*
Y16497D02*
D03*
Y16300D02*
D03*
Y16103D02*
D03*
Y15906D02*
D03*
Y15710D02*
D03*
Y15513D02*
D03*
X35904D02*
D03*
Y15710D02*
D03*
Y15906D02*
D03*
Y16103D02*
D03*
Y16300D02*
D03*
Y16497D02*
D03*
Y16694D02*
D03*
Y16891D02*
D03*
X46853Y16932D02*
D03*
Y16735D02*
D03*
Y16538D02*
D03*
Y16341D02*
D03*
Y16145D02*
D03*
Y15948D02*
D03*
Y15751D02*
D03*
Y15554D02*
D03*
X44904D02*
D03*
Y15751D02*
D03*
Y15948D02*
D03*
Y16145D02*
D03*
Y16341D02*
D03*
Y16538D02*
D03*
Y16735D02*
D03*
Y16932D02*
D03*
X33965Y28236D02*
D03*
Y28039D02*
D03*
Y27842D02*
D03*
Y27645D02*
D03*
Y27448D02*
D03*
Y27251D02*
D03*
Y27055D02*
D03*
Y26858D02*
D03*
X35914D02*
D03*
Y27055D02*
D03*
Y27251D02*
D03*
Y27448D02*
D03*
Y27645D02*
D03*
Y27842D02*
D03*
Y28039D02*
D03*
Y28236D02*
D03*
X46863Y28277D02*
D03*
Y28080D02*
D03*
Y27883D02*
D03*
Y27686D02*
D03*
Y27490D02*
D03*
Y27293D02*
D03*
Y27096D02*
D03*
Y26899D02*
D03*
X44914D02*
D03*
Y27096D02*
D03*
Y27293D02*
D03*
Y27490D02*
D03*
Y27686D02*
D03*
Y27883D02*
D03*
Y28080D02*
D03*
Y28277D02*
D03*
X33965Y39601D02*
D03*
Y39404D02*
D03*
Y39207D02*
D03*
Y39010D02*
D03*
Y38813D02*
D03*
Y38616D02*
D03*
Y38420D02*
D03*
Y38223D02*
D03*
X35914D02*
D03*
Y38420D02*
D03*
Y38616D02*
D03*
Y38813D02*
D03*
Y39010D02*
D03*
Y39207D02*
D03*
Y39404D02*
D03*
Y39601D02*
D03*
X46863Y39642D02*
D03*
Y39445D02*
D03*
Y39248D02*
D03*
Y39051D02*
D03*
Y38855D02*
D03*
Y38658D02*
D03*
Y38461D02*
D03*
Y38264D02*
D03*
X44914D02*
D03*
Y38461D02*
D03*
Y38658D02*
D03*
Y38855D02*
D03*
Y39051D02*
D03*
Y39248D02*
D03*
Y39445D02*
D03*
Y39642D02*
D03*
X33975Y50984D02*
D03*
Y50787D02*
D03*
Y50590D02*
D03*
Y50393D02*
D03*
Y50197D02*
D03*
Y50000D02*
D03*
Y49803D02*
D03*
Y49606D02*
D03*
X35924D02*
D03*
Y49803D02*
D03*
Y50000D02*
D03*
Y50197D02*
D03*
Y50393D02*
D03*
Y50590D02*
D03*
Y50787D02*
D03*
Y50984D02*
D03*
X46873Y51025D02*
D03*
Y50828D02*
D03*
Y50632D02*
D03*
Y50435D02*
D03*
Y50238D02*
D03*
Y50041D02*
D03*
Y49844D02*
D03*
Y49647D02*
D03*
X44924D02*
D03*
Y49844D02*
D03*
Y50041D02*
D03*
Y50238D02*
D03*
Y50435D02*
D03*
Y50632D02*
D03*
Y50828D02*
D03*
Y51025D02*
D03*
X33975Y62316D02*
D03*
Y62119D02*
D03*
Y61922D02*
D03*
Y61725D02*
D03*
Y61528D02*
D03*
Y61331D02*
D03*
Y61134D02*
D03*
Y60938D02*
D03*
X35924D02*
D03*
Y61134D02*
D03*
Y61331D02*
D03*
Y61528D02*
D03*
Y61725D02*
D03*
Y61922D02*
D03*
Y62119D02*
D03*
Y62316D02*
D03*
X46873Y62357D02*
D03*
Y62160D02*
D03*
Y61963D02*
D03*
Y61766D02*
D03*
Y61569D02*
D03*
Y61373D02*
D03*
Y61176D02*
D03*
Y60979D02*
D03*
X44924D02*
D03*
Y61176D02*
D03*
Y61373D02*
D03*
Y61569D02*
D03*
Y61766D02*
D03*
Y61963D02*
D03*
Y62160D02*
D03*
Y62357D02*
D03*
X33945Y73711D02*
D03*
Y73514D02*
D03*
Y73317D02*
D03*
Y73120D02*
D03*
Y72923D02*
D03*
Y72726D02*
D03*
Y72530D02*
D03*
Y72333D02*
D03*
X35894D02*
D03*
Y72530D02*
D03*
Y72726D02*
D03*
Y72923D02*
D03*
Y73120D02*
D03*
Y73317D02*
D03*
Y73514D02*
D03*
Y73711D02*
D03*
X46843Y73752D02*
D03*
Y73555D02*
D03*
Y73358D02*
D03*
Y73161D02*
D03*
Y72965D02*
D03*
Y72768D02*
D03*
Y72571D02*
D03*
Y72374D02*
D03*
X44894D02*
D03*
Y72571D02*
D03*
Y72768D02*
D03*
Y72965D02*
D03*
Y73161D02*
D03*
Y73358D02*
D03*
Y73555D02*
D03*
Y73752D02*
D03*
X33945Y85061D02*
D03*
Y84864D02*
D03*
Y84667D02*
D03*
Y84470D02*
D03*
Y84273D02*
D03*
Y84076D02*
D03*
Y83880D02*
D03*
Y83683D02*
D03*
X35894D02*
D03*
Y83880D02*
D03*
Y84076D02*
D03*
Y84273D02*
D03*
Y84470D02*
D03*
Y84667D02*
D03*
Y84864D02*
D03*
Y85061D02*
D03*
D106*
X113574Y153685D02*
D03*
Y152265D02*
D03*
X112144Y152255D02*
D03*
X112154Y153685D02*
D03*
X113160Y118586D02*
D03*
Y117166D02*
D03*
X111730Y117156D02*
D03*
X111740Y118586D02*
D03*
X111408Y142869D02*
D03*
X111398Y141439D02*
D03*
X112828Y141449D02*
D03*
Y142869D02*
D03*
D107*
X113154Y153273D02*
D03*
X113174Y152703D02*
D03*
X112604Y152693D02*
D03*
X112584Y153273D02*
D03*
X112740Y118174D02*
D03*
X112760Y117604D02*
D03*
X112190Y117594D02*
D03*
X112170Y118174D02*
D03*
X111838Y142457D02*
D03*
X111858Y141877D02*
D03*
X112428Y141887D02*
D03*
X112408Y142457D02*
D03*
D108*
X113354Y153723D02*
D03*
X112940Y118624D02*
D03*
X112608Y142907D02*
D03*
D109*
X113157Y153723D02*
D03*
X112960D02*
D03*
X112763D02*
D03*
X112566D02*
D03*
X112369D02*
D03*
Y152227D02*
D03*
X112566D02*
D03*
X112763D02*
D03*
X112960D02*
D03*
X113157D02*
D03*
X113354D02*
D03*
X73224Y85510D02*
D03*
X73027D02*
D03*
X72830D02*
D03*
X72633D02*
D03*
X72436D02*
D03*
X72239D02*
D03*
Y84014D02*
D03*
X72436D02*
D03*
X72633D02*
D03*
X72830D02*
D03*
X73027D02*
D03*
X73224D02*
D03*
X87554Y137654D02*
D03*
X87357D02*
D03*
X87160D02*
D03*
X86963D02*
D03*
X86767D02*
D03*
X86570D02*
D03*
Y136157D02*
D03*
X86767D02*
D03*
X86963D02*
D03*
X87160D02*
D03*
X87357D02*
D03*
X87554D02*
D03*
X87494Y153139D02*
D03*
X87297D02*
D03*
X87100D02*
D03*
X86904D02*
D03*
X86707D02*
D03*
X86510D02*
D03*
Y154635D02*
D03*
X86707D02*
D03*
X86904D02*
D03*
X87100D02*
D03*
X87297D02*
D03*
X87494D02*
D03*
X73942Y18267D02*
D03*
X73745D02*
D03*
X73548D02*
D03*
X73352D02*
D03*
X73155D02*
D03*
X72958D02*
D03*
Y16771D02*
D03*
X73155D02*
D03*
X73352D02*
D03*
X73548D02*
D03*
X73745D02*
D03*
X73942D02*
D03*
X112743Y118624D02*
D03*
X112546D02*
D03*
X112350D02*
D03*
X112153D02*
D03*
X111956D02*
D03*
Y117128D02*
D03*
X112153D02*
D03*
X112350D02*
D03*
X112546D02*
D03*
X112743D02*
D03*
X112940D02*
D03*
X112608Y141411D02*
D03*
X112411D02*
D03*
X112214D02*
D03*
X112017D02*
D03*
X111820D02*
D03*
X111623D02*
D03*
Y142907D02*
D03*
X111820D02*
D03*
X112017D02*
D03*
X112214D02*
D03*
X112411D02*
D03*
X73984Y39001D02*
D03*
X73787D02*
D03*
X73590D02*
D03*
X73394D02*
D03*
X73197D02*
D03*
X73000D02*
D03*
Y40497D02*
D03*
X73197D02*
D03*
X73394D02*
D03*
X73590D02*
D03*
X73787D02*
D03*
X73984D02*
D03*
X73362Y63856D02*
D03*
X73165D02*
D03*
X72968D02*
D03*
X72772D02*
D03*
X72575D02*
D03*
X72378D02*
D03*
Y62360D02*
D03*
X72575D02*
D03*
X72772D02*
D03*
X72968D02*
D03*
X73165D02*
D03*
X73362D02*
D03*
D110*
X112114Y153467D02*
D03*
Y153270D02*
D03*
Y153073D02*
D03*
Y152876D02*
D03*
Y152679D02*
D03*
Y152483D02*
D03*
X113610D02*
D03*
Y152679D02*
D03*
Y152876D02*
D03*
Y153073D02*
D03*
Y153270D02*
D03*
Y153467D02*
D03*
X73479Y84467D02*
D03*
Y84664D02*
D03*
Y84861D02*
D03*
Y85058D02*
D03*
Y85255D02*
D03*
X71983D02*
D03*
Y85058D02*
D03*
Y84861D02*
D03*
Y84664D02*
D03*
Y84467D02*
D03*
Y84270D02*
D03*
X87810Y136610D02*
D03*
Y136807D02*
D03*
Y137004D02*
D03*
Y137201D02*
D03*
Y137398D02*
D03*
X86314D02*
D03*
Y137201D02*
D03*
Y137004D02*
D03*
Y136807D02*
D03*
Y136610D02*
D03*
Y136413D02*
D03*
X86254Y153395D02*
D03*
Y153592D02*
D03*
Y153789D02*
D03*
Y153986D02*
D03*
Y154183D02*
D03*
Y154379D02*
D03*
X87750D02*
D03*
Y154183D02*
D03*
Y153986D02*
D03*
Y153789D02*
D03*
Y153592D02*
D03*
X74198Y17224D02*
D03*
Y17421D02*
D03*
Y17617D02*
D03*
Y17814D02*
D03*
Y18011D02*
D03*
X72702D02*
D03*
Y17814D02*
D03*
Y17617D02*
D03*
Y17421D02*
D03*
Y17224D02*
D03*
Y17027D02*
D03*
X111700Y118369D02*
D03*
Y118172D02*
D03*
Y117975D02*
D03*
Y117778D02*
D03*
Y117581D02*
D03*
Y117384D02*
D03*
X113196D02*
D03*
Y117581D02*
D03*
Y117778D02*
D03*
Y117975D02*
D03*
Y118172D02*
D03*
Y118369D02*
D03*
X112864Y142651D02*
D03*
Y142454D02*
D03*
Y142257D02*
D03*
Y142060D02*
D03*
Y141864D02*
D03*
Y141667D02*
D03*
X111368D02*
D03*
Y141864D02*
D03*
Y142060D02*
D03*
Y142257D02*
D03*
Y142454D02*
D03*
Y142651D02*
D03*
X72744Y39257D02*
D03*
Y39453D02*
D03*
Y39650D02*
D03*
Y39847D02*
D03*
Y40044D02*
D03*
Y40241D02*
D03*
X74240D02*
D03*
Y40044D02*
D03*
Y39847D02*
D03*
Y39650D02*
D03*
Y39453D02*
D03*
X73618Y62813D02*
D03*
Y63010D02*
D03*
Y63206D02*
D03*
Y63403D02*
D03*
Y63600D02*
D03*
X72122D02*
D03*
Y63403D02*
D03*
Y63206D02*
D03*
Y63010D02*
D03*
Y62813D02*
D03*
Y62616D02*
D03*
D111*
X72731Y84762D02*
D03*
X87062Y136905D02*
D03*
X87002Y153887D02*
D03*
X73450Y17519D02*
D03*
X73492Y39749D02*
D03*
X72870Y63108D02*
D03*
D112*
X73479Y84270D02*
D03*
X87810Y136413D02*
D03*
X87750Y153395D02*
D03*
X74198Y17027D02*
D03*
X74240Y39257D02*
D03*
X73618Y62616D02*
D03*
D113*
X98568Y86143D02*
D03*
Y16138D02*
D03*
X98578Y56173D02*
D03*
X98558Y26153D02*
D03*
X98571Y66143D02*
D03*
X98574Y36134D02*
D03*
X98568Y76143D02*
D03*
Y46130D02*
D03*
D114*
X98312Y86143D02*
D03*
X98056D02*
D03*
X97800D02*
D03*
X97544D02*
D03*
X97288D02*
D03*
X97033D02*
D03*
X96777D02*
D03*
X96521D02*
D03*
X96265D02*
D03*
X98568Y83623D02*
D03*
X98312D02*
D03*
X98056D02*
D03*
X97800D02*
D03*
X97544D02*
D03*
X97288D02*
D03*
X97033D02*
D03*
X96777D02*
D03*
X96521D02*
D03*
X96265D02*
D03*
Y13618D02*
D03*
X96521D02*
D03*
X96777D02*
D03*
X97033D02*
D03*
X97288D02*
D03*
X97544D02*
D03*
X97800D02*
D03*
X98056D02*
D03*
X98312D02*
D03*
X98568D02*
D03*
X96265Y16138D02*
D03*
X96521D02*
D03*
X96777D02*
D03*
X97033D02*
D03*
X97288D02*
D03*
X97544D02*
D03*
X97800D02*
D03*
X98056D02*
D03*
X98312D02*
D03*
X96275Y53653D02*
D03*
X96531D02*
D03*
X96787D02*
D03*
X97043D02*
D03*
X97298D02*
D03*
X97554D02*
D03*
X97810D02*
D03*
X98066D02*
D03*
X98322D02*
D03*
X98578D02*
D03*
X96275Y56173D02*
D03*
X96531D02*
D03*
X96787D02*
D03*
X97043D02*
D03*
X97298D02*
D03*
X97554D02*
D03*
X97810D02*
D03*
X98066D02*
D03*
X98322D02*
D03*
X98302Y26153D02*
D03*
X98046D02*
D03*
X97790D02*
D03*
X97534D02*
D03*
X97278D02*
D03*
X97023D02*
D03*
X96767D02*
D03*
X96511D02*
D03*
X96255D02*
D03*
X98558Y23633D02*
D03*
X98302D02*
D03*
X98046D02*
D03*
X97790D02*
D03*
X97534D02*
D03*
X97278D02*
D03*
X97023D02*
D03*
X96767D02*
D03*
X96511D02*
D03*
X96255D02*
D03*
X96268Y63623D02*
D03*
X96524D02*
D03*
X96780D02*
D03*
X97036D02*
D03*
X97292D02*
D03*
X97548D02*
D03*
X97803D02*
D03*
X98059D02*
D03*
X98315D02*
D03*
X98571D02*
D03*
X96268Y66143D02*
D03*
X96524D02*
D03*
X96780D02*
D03*
X97036D02*
D03*
X97292D02*
D03*
X97548D02*
D03*
X97803D02*
D03*
X98059D02*
D03*
X98315D02*
D03*
X96271Y33614D02*
D03*
X96527D02*
D03*
X96783D02*
D03*
X97039D02*
D03*
X97295D02*
D03*
X97551D02*
D03*
X97807D02*
D03*
X98063D02*
D03*
X98318D02*
D03*
X98574D02*
D03*
X96271Y36134D02*
D03*
X96527D02*
D03*
X96783D02*
D03*
X97039D02*
D03*
X97295D02*
D03*
X97551D02*
D03*
X97807D02*
D03*
X98063D02*
D03*
X98318D02*
D03*
X96265Y73623D02*
D03*
X96521D02*
D03*
X96777D02*
D03*
X97033D02*
D03*
X97288D02*
D03*
X97544D02*
D03*
X97800D02*
D03*
X98056D02*
D03*
X98312D02*
D03*
X98568D02*
D03*
X96265Y76143D02*
D03*
X96521D02*
D03*
X96777D02*
D03*
X97033D02*
D03*
X97288D02*
D03*
X97544D02*
D03*
X97800D02*
D03*
X98056D02*
D03*
X98312D02*
D03*
Y46130D02*
D03*
X98056D02*
D03*
X97800D02*
D03*
X97544D02*
D03*
X97288D02*
D03*
X97033D02*
D03*
X96777D02*
D03*
X96521D02*
D03*
X96265D02*
D03*
X98568Y43610D02*
D03*
X98312D02*
D03*
X98056D02*
D03*
X97800D02*
D03*
X97544D02*
D03*
X97288D02*
D03*
X97033D02*
D03*
X96777D02*
D03*
X96521D02*
D03*
X96265D02*
D03*
D115*
X84847Y147840D02*
D03*
Y145440D02*
D03*
Y143040D02*
D03*
X95997D02*
D03*
Y145440D02*
D03*
Y147840D02*
D03*
X30030Y88451D02*
D03*
X20130D02*
D03*
X92882Y136857D02*
D03*
X85482D02*
D03*
X13751Y104320D02*
D03*
X23651D02*
D03*
X23680Y110539D02*
D03*
X13780D02*
D03*
X13762Y116781D02*
D03*
X23662D02*
D03*
X13799Y123024D02*
D03*
X23699D02*
D03*
X71881Y130623D02*
D03*
X64481D02*
D03*
X33271D02*
D03*
X40671D02*
D03*
X53301D02*
D03*
X63201D02*
D03*
X42131D02*
D03*
X52031D02*
D03*
X71881Y138493D02*
D03*
X64481D02*
D03*
X33271D02*
D03*
X40671D02*
D03*
X53301D02*
D03*
X63201D02*
D03*
X52031D02*
D03*
X42131D02*
D03*
X71877Y146365D02*
D03*
X64477D02*
D03*
X33267D02*
D03*
X40667D02*
D03*
X63197D02*
D03*
X53297D02*
D03*
X42127D02*
D03*
X52027D02*
D03*
X71877Y154240D02*
D03*
X64477D02*
D03*
X33267D02*
D03*
X40667D02*
D03*
X53297D02*
D03*
X63197D02*
D03*
X52027D02*
D03*
X42127D02*
D03*
X60710Y4778D02*
D03*
X53310D02*
D03*
X42230D02*
D03*
X52130D02*
D03*
X31330Y4769D02*
D03*
X41230D02*
D03*
X20060Y8868D02*
D03*
X29960D02*
D03*
X53368Y16192D02*
D03*
X60768D02*
D03*
X52189D02*
D03*
X42289D02*
D03*
X41290Y16183D02*
D03*
X31390D02*
D03*
X30020Y20282D02*
D03*
X20120D02*
D03*
X60778Y27536D02*
D03*
X53378D02*
D03*
X42299D02*
D03*
X52199D02*
D03*
X31400Y27528D02*
D03*
X41300D02*
D03*
X20130Y31626D02*
D03*
X30030D02*
D03*
X53378Y38902D02*
D03*
X60778D02*
D03*
X52199D02*
D03*
X42299D02*
D03*
X41300Y38893D02*
D03*
X31400D02*
D03*
X30030Y42991D02*
D03*
X20130D02*
D03*
X60788Y50285D02*
D03*
X53388D02*
D03*
X42309D02*
D03*
X52209D02*
D03*
X31400Y50276D02*
D03*
X41300D02*
D03*
X20130Y54375D02*
D03*
X30030D02*
D03*
X53388Y61616D02*
D03*
X60788D02*
D03*
X52209D02*
D03*
X42309D02*
D03*
X41300Y61608D02*
D03*
X31400D02*
D03*
X30030Y65706D02*
D03*
X20130D02*
D03*
X60758Y73011D02*
D03*
X53358D02*
D03*
X42279D02*
D03*
X52179D02*
D03*
X31400Y73003D02*
D03*
X41300D02*
D03*
X20130Y77101D02*
D03*
X30030D02*
D03*
X53358Y84361D02*
D03*
X60758D02*
D03*
X52179D02*
D03*
X42279D02*
D03*
X31400Y84353D02*
D03*
X41300D02*
D03*
X78690Y63060D02*
D03*
X71290D02*
D03*
X79270Y17471D02*
D03*
X71870D02*
D03*
X92822Y153839D02*
D03*
X85422D02*
D03*
X71220Y30870D02*
D03*
Y28470D02*
D03*
Y26070D02*
D03*
X82370D02*
D03*
Y28470D02*
D03*
Y30870D02*
D03*
X81745Y75650D02*
D03*
Y73250D02*
D03*
Y70850D02*
D03*
X70595D02*
D03*
Y73250D02*
D03*
Y75650D02*
D03*
X71152Y84714D02*
D03*
X78552D02*
D03*
X79312Y39700D02*
D03*
X71912D02*
D03*
D116*
X85617Y149140D02*
D03*
X88017D02*
D03*
X90417Y149140D02*
D03*
X92817Y149140D02*
D03*
X95217D02*
D03*
Y141740D02*
D03*
X92817D02*
D03*
X88017D02*
D03*
X90417Y141740D02*
D03*
X85617Y141740D02*
D03*
X22630Y86002D02*
D03*
X25030D02*
D03*
X27530D02*
D03*
Y90901D02*
D03*
X25030D02*
D03*
X22630D02*
D03*
X87982Y134407D02*
D03*
X90382D02*
D03*
Y139307D02*
D03*
X87982D02*
D03*
X16251Y106770D02*
D03*
X18651D02*
D03*
X21151D02*
D03*
Y101870D02*
D03*
X18651D02*
D03*
X16251D02*
D03*
X16280Y108089D02*
D03*
X18680D02*
D03*
X21180D02*
D03*
Y112989D02*
D03*
X18680D02*
D03*
X16280D02*
D03*
X16262Y119231D02*
D03*
X18662D02*
D03*
X21162D02*
D03*
Y114331D02*
D03*
X18662D02*
D03*
X16262D02*
D03*
X16299Y125474D02*
D03*
X18699D02*
D03*
X21199D02*
D03*
Y120574D02*
D03*
X18699D02*
D03*
X16299D02*
D03*
X66981Y128173D02*
D03*
X69381D02*
D03*
Y133073D02*
D03*
X66981D02*
D03*
X35771D02*
D03*
X38171D02*
D03*
Y128173D02*
D03*
X35771D02*
D03*
X55801Y133073D02*
D03*
X58201D02*
D03*
X60701D02*
D03*
Y128173D02*
D03*
X58201D02*
D03*
X55801D02*
D03*
X44631Y133073D02*
D03*
X47031D02*
D03*
X49531D02*
D03*
Y128173D02*
D03*
X47031D02*
D03*
X44631D02*
D03*
X66981Y136043D02*
D03*
X69381D02*
D03*
Y140943D02*
D03*
X66981D02*
D03*
X35771D02*
D03*
X38171D02*
D03*
Y136043D02*
D03*
X35771D02*
D03*
X55801Y140943D02*
D03*
X58201D02*
D03*
X60701D02*
D03*
Y136043D02*
D03*
X58201D02*
D03*
X55801D02*
D03*
X44631D02*
D03*
X47031D02*
D03*
X49531D02*
D03*
Y140943D02*
D03*
X47031D02*
D03*
X44631D02*
D03*
X66977Y143915D02*
D03*
X69377D02*
D03*
Y148815D02*
D03*
X66977D02*
D03*
X35767D02*
D03*
X38167D02*
D03*
Y143915D02*
D03*
X35767D02*
D03*
X55797D02*
D03*
X58197D02*
D03*
X60697D02*
D03*
Y148815D02*
D03*
X58197D02*
D03*
X55797D02*
D03*
X44627D02*
D03*
X47027D02*
D03*
X49527D02*
D03*
Y143915D02*
D03*
X47027D02*
D03*
X44627D02*
D03*
X66977Y151790D02*
D03*
X69377D02*
D03*
Y156690D02*
D03*
X66977D02*
D03*
X35767D02*
D03*
X38167D02*
D03*
Y151790D02*
D03*
X35767D02*
D03*
X55797Y156690D02*
D03*
X58197D02*
D03*
X60697D02*
D03*
Y151790D02*
D03*
X58197D02*
D03*
X55797D02*
D03*
X44627D02*
D03*
X47027D02*
D03*
X49527D02*
D03*
Y156690D02*
D03*
X47027D02*
D03*
X44627D02*
D03*
X55810Y2328D02*
D03*
X58210D02*
D03*
Y7228D02*
D03*
X55810D02*
D03*
X44730D02*
D03*
X47130D02*
D03*
X49630D02*
D03*
Y2328D02*
D03*
X47130D02*
D03*
X44730D02*
D03*
X33830Y7219D02*
D03*
X36230D02*
D03*
X38730D02*
D03*
Y2319D02*
D03*
X36230D02*
D03*
X33830D02*
D03*
X22560Y11318D02*
D03*
X24960D02*
D03*
X27460D02*
D03*
Y6418D02*
D03*
X24960D02*
D03*
X22560D02*
D03*
X55868Y18642D02*
D03*
X58268D02*
D03*
Y13742D02*
D03*
X55868D02*
D03*
X44789D02*
D03*
X47189D02*
D03*
X49689D02*
D03*
Y18642D02*
D03*
X47189D02*
D03*
X44789D02*
D03*
X33890Y13733D02*
D03*
X36290D02*
D03*
X38790D02*
D03*
Y18633D02*
D03*
X36290D02*
D03*
X33890D02*
D03*
X22620Y17831D02*
D03*
X25020D02*
D03*
X27520D02*
D03*
Y22731D02*
D03*
X25020D02*
D03*
X22620D02*
D03*
X55878Y25086D02*
D03*
X58278D02*
D03*
Y29986D02*
D03*
X55878D02*
D03*
X44799D02*
D03*
X47199D02*
D03*
X49699D02*
D03*
Y25086D02*
D03*
X47199D02*
D03*
X44799D02*
D03*
X33900Y29978D02*
D03*
X36300D02*
D03*
X38800D02*
D03*
Y25078D02*
D03*
X36300D02*
D03*
X33900D02*
D03*
X22630Y34076D02*
D03*
X25030D02*
D03*
X27530D02*
D03*
Y29176D02*
D03*
X25030D02*
D03*
X22630D02*
D03*
X55878Y41351D02*
D03*
X58278D02*
D03*
Y36451D02*
D03*
X55878D02*
D03*
X44799D02*
D03*
X47199D02*
D03*
X49699D02*
D03*
Y41351D02*
D03*
X47199D02*
D03*
X44799D02*
D03*
X33900Y36443D02*
D03*
X36300D02*
D03*
X38800D02*
D03*
Y41343D02*
D03*
X36300D02*
D03*
X33900D02*
D03*
X22630Y40542D02*
D03*
X25030D02*
D03*
X27530D02*
D03*
Y45441D02*
D03*
X25030D02*
D03*
X22630D02*
D03*
X55888Y47835D02*
D03*
X58288D02*
D03*
Y52735D02*
D03*
X55888D02*
D03*
X44809D02*
D03*
X47209D02*
D03*
X49709D02*
D03*
Y47835D02*
D03*
X47209D02*
D03*
X44809D02*
D03*
X33900Y52726D02*
D03*
X36300D02*
D03*
X38800D02*
D03*
Y47826D02*
D03*
X36300D02*
D03*
X33900D02*
D03*
X22630Y56825D02*
D03*
X25030D02*
D03*
X27530D02*
D03*
Y51925D02*
D03*
X25030D02*
D03*
X22630D02*
D03*
X55888Y64066D02*
D03*
X58288D02*
D03*
Y59166D02*
D03*
X55888D02*
D03*
X44809D02*
D03*
X47209D02*
D03*
X49709D02*
D03*
Y64066D02*
D03*
X47209D02*
D03*
X44809D02*
D03*
X33900Y59158D02*
D03*
X36300D02*
D03*
X38800D02*
D03*
Y64058D02*
D03*
X36300D02*
D03*
X33900D02*
D03*
X22630Y63256D02*
D03*
X25030D02*
D03*
X27530D02*
D03*
Y68156D02*
D03*
X25030D02*
D03*
X22630D02*
D03*
X55858Y70561D02*
D03*
X58258D02*
D03*
Y75462D02*
D03*
X55858D02*
D03*
X44779D02*
D03*
X47179D02*
D03*
X49679D02*
D03*
Y70561D02*
D03*
X47179D02*
D03*
X44779D02*
D03*
X33900Y75453D02*
D03*
X36300D02*
D03*
X38800D02*
D03*
Y70553D02*
D03*
X36300D02*
D03*
X33900D02*
D03*
X22630Y79552D02*
D03*
X25030D02*
D03*
X27530D02*
D03*
Y74651D02*
D03*
X25030D02*
D03*
X22630D02*
D03*
X55858Y86812D02*
D03*
X58258D02*
D03*
Y81911D02*
D03*
X55858D02*
D03*
X44779D02*
D03*
X47179D02*
D03*
X49679D02*
D03*
Y86812D02*
D03*
X47179D02*
D03*
X44779D02*
D03*
X33900Y86803D02*
D03*
X36300D02*
D03*
X38800D02*
D03*
Y81903D02*
D03*
X36300D02*
D03*
X33900D02*
D03*
X73790Y60610D02*
D03*
X76190D02*
D03*
Y65510D02*
D03*
X73790D02*
D03*
X74370Y15021D02*
D03*
X76770D02*
D03*
Y19921D02*
D03*
X74370D02*
D03*
X87922Y151389D02*
D03*
X90322D02*
D03*
Y156289D02*
D03*
X87922D02*
D03*
X71990Y32170D02*
D03*
X74390D02*
D03*
X76790D02*
D03*
X79190D02*
D03*
X81590D02*
D03*
Y24770D02*
D03*
X79190D02*
D03*
X74390D02*
D03*
X76790D02*
D03*
X71990D02*
D03*
X71365Y69550D02*
D03*
X76165D02*
D03*
X73765D02*
D03*
X78565D02*
D03*
X80965D02*
D03*
Y76950D02*
D03*
X78565D02*
D03*
X76165D02*
D03*
X73765D02*
D03*
X71365D02*
D03*
X73652Y87164D02*
D03*
X76052D02*
D03*
Y82264D02*
D03*
X73652D02*
D03*
X74412Y37250D02*
D03*
X76812D02*
D03*
Y42150D02*
D03*
X74412D02*
D03*
D117*
X20130Y90901D02*
D03*
X30030D02*
D03*
Y86002D02*
D03*
X20130D02*
D03*
X85482Y139307D02*
D03*
X92882D02*
D03*
Y134407D02*
D03*
X85482D02*
D03*
X13751Y101870D02*
D03*
X23651D02*
D03*
Y106770D02*
D03*
X13751D02*
D03*
X13780Y112989D02*
D03*
X23680D02*
D03*
Y108089D02*
D03*
X13780D02*
D03*
X13762Y114331D02*
D03*
X23662D02*
D03*
Y119231D02*
D03*
X13762D02*
D03*
X13799Y120574D02*
D03*
X23699D02*
D03*
Y125474D02*
D03*
X13799D02*
D03*
X64481Y133073D02*
D03*
X71881D02*
D03*
Y128173D02*
D03*
X64481D02*
D03*
X33271D02*
D03*
X40671D02*
D03*
Y133073D02*
D03*
X33271D02*
D03*
X53301Y128173D02*
D03*
X63201D02*
D03*
Y133073D02*
D03*
X53301D02*
D03*
X42131Y128173D02*
D03*
X52031D02*
D03*
Y133073D02*
D03*
X42131D02*
D03*
X64481Y140943D02*
D03*
X71881D02*
D03*
Y136043D02*
D03*
X64481D02*
D03*
X33271D02*
D03*
X40671D02*
D03*
Y140943D02*
D03*
X33271D02*
D03*
X53301Y136043D02*
D03*
X63201D02*
D03*
Y140943D02*
D03*
X53301D02*
D03*
X42131D02*
D03*
X52031D02*
D03*
Y136043D02*
D03*
X42131D02*
D03*
X64477Y148815D02*
D03*
X71877D02*
D03*
Y143915D02*
D03*
X64477D02*
D03*
X33267D02*
D03*
X40667D02*
D03*
Y148815D02*
D03*
X33267D02*
D03*
X53297D02*
D03*
X63197D02*
D03*
Y143915D02*
D03*
X53297D02*
D03*
X42127D02*
D03*
X52027D02*
D03*
Y148815D02*
D03*
X42127D02*
D03*
X64477Y156690D02*
D03*
X71877D02*
D03*
Y151790D02*
D03*
X64477D02*
D03*
X33267D02*
D03*
X40667D02*
D03*
Y156690D02*
D03*
X33267D02*
D03*
X53297Y151790D02*
D03*
X63197D02*
D03*
Y156690D02*
D03*
X53297D02*
D03*
X42127D02*
D03*
X52027D02*
D03*
Y151790D02*
D03*
X42127D02*
D03*
X53310Y7228D02*
D03*
X60710D02*
D03*
Y2328D02*
D03*
X53310D02*
D03*
X42230D02*
D03*
X52130D02*
D03*
Y7228D02*
D03*
X42230D02*
D03*
X31330Y2319D02*
D03*
X41230D02*
D03*
Y7219D02*
D03*
X31330D02*
D03*
X20060Y6418D02*
D03*
X29960D02*
D03*
Y11318D02*
D03*
X20060D02*
D03*
X53368Y13742D02*
D03*
X60768D02*
D03*
Y18642D02*
D03*
X53368D02*
D03*
X42289D02*
D03*
X52189D02*
D03*
Y13742D02*
D03*
X42289D02*
D03*
X31390Y18633D02*
D03*
X41290D02*
D03*
Y13733D02*
D03*
X31390D02*
D03*
X20120Y22731D02*
D03*
X30020D02*
D03*
Y17831D02*
D03*
X20120D02*
D03*
X53378Y29986D02*
D03*
X60778D02*
D03*
Y25086D02*
D03*
X53378D02*
D03*
X42299D02*
D03*
X52199D02*
D03*
Y29986D02*
D03*
X42299D02*
D03*
X31400Y25078D02*
D03*
X41300D02*
D03*
Y29978D02*
D03*
X31400D02*
D03*
X20130Y29176D02*
D03*
X30030D02*
D03*
Y34076D02*
D03*
X20130D02*
D03*
X53378Y36451D02*
D03*
X60778D02*
D03*
Y41351D02*
D03*
X53378D02*
D03*
X42299D02*
D03*
X52199D02*
D03*
Y36451D02*
D03*
X42299D02*
D03*
X31400Y41343D02*
D03*
X41300D02*
D03*
Y36443D02*
D03*
X31400D02*
D03*
X20130Y45441D02*
D03*
X30030D02*
D03*
Y40542D02*
D03*
X20130D02*
D03*
X53388Y52735D02*
D03*
X60788D02*
D03*
Y47835D02*
D03*
X53388D02*
D03*
X42309D02*
D03*
X52209D02*
D03*
Y52735D02*
D03*
X42309D02*
D03*
X31400Y47826D02*
D03*
X41300D02*
D03*
Y52726D02*
D03*
X31400D02*
D03*
X20130Y51925D02*
D03*
X30030D02*
D03*
Y56825D02*
D03*
X20130D02*
D03*
X53388Y59166D02*
D03*
X60788D02*
D03*
Y64066D02*
D03*
X53388D02*
D03*
X42309D02*
D03*
X52209D02*
D03*
Y59166D02*
D03*
X42309D02*
D03*
X31400Y64058D02*
D03*
X41300D02*
D03*
Y59158D02*
D03*
X31400D02*
D03*
X20130Y68156D02*
D03*
X30030D02*
D03*
Y63256D02*
D03*
X20130D02*
D03*
X53358Y75462D02*
D03*
X60758D02*
D03*
Y70561D02*
D03*
X53358D02*
D03*
X42279D02*
D03*
X52179D02*
D03*
Y75462D02*
D03*
X42279D02*
D03*
X31400Y70553D02*
D03*
X41300D02*
D03*
Y75453D02*
D03*
X31400D02*
D03*
X20130Y74651D02*
D03*
X30030D02*
D03*
Y79552D02*
D03*
X20130D02*
D03*
X53358Y81911D02*
D03*
X60758D02*
D03*
Y86812D02*
D03*
X53358D02*
D03*
X42279D02*
D03*
X52179D02*
D03*
Y81911D02*
D03*
X42279D02*
D03*
X31400Y81903D02*
D03*
X41300D02*
D03*
Y86803D02*
D03*
X31400D02*
D03*
X71290Y65510D02*
D03*
X78690D02*
D03*
Y60610D02*
D03*
X71290D02*
D03*
X71870Y19921D02*
D03*
X79270D02*
D03*
Y15021D02*
D03*
X71870D02*
D03*
X85422Y156289D02*
D03*
X92822D02*
D03*
Y151389D02*
D03*
X85422D02*
D03*
X71152Y82264D02*
D03*
X78552D02*
D03*
Y87164D02*
D03*
X71152D02*
D03*
X71912Y42150D02*
D03*
X79312D02*
D03*
Y37250D02*
D03*
X71912D02*
D03*
D118*
X24950Y10128D02*
D03*
Y9813D02*
D03*
X24950Y8315D02*
D03*
Y8001D02*
D03*
X24078Y8281D02*
D03*
Y7966D02*
D03*
X24090Y10108D02*
D03*
Y9793D02*
D03*
X15551Y103178D02*
D03*
Y103493D02*
D03*
X18243Y103383D02*
D03*
Y103698D02*
D03*
X18481Y105612D02*
D03*
Y105297D02*
D03*
X19443Y105624D02*
D03*
Y105309D02*
D03*
X19630Y103388D02*
D03*
Y103703D02*
D03*
X16676Y103180D02*
D03*
Y103495D02*
D03*
X25009Y21227D02*
D03*
Y21542D02*
D03*
X25009Y19729D02*
D03*
Y19414D02*
D03*
X24136Y19694D02*
D03*
Y19379D02*
D03*
X24149Y21207D02*
D03*
Y21522D02*
D03*
X25019Y32572D02*
D03*
Y32887D02*
D03*
X25019Y31074D02*
D03*
Y30759D02*
D03*
X24146Y31039D02*
D03*
Y30724D02*
D03*
X24159Y32552D02*
D03*
Y32867D02*
D03*
X25019Y43937D02*
D03*
Y44252D02*
D03*
X25019Y42439D02*
D03*
Y42124D02*
D03*
X24146Y42404D02*
D03*
Y42089D02*
D03*
X24159Y43917D02*
D03*
Y44232D02*
D03*
X25029Y55320D02*
D03*
Y55635D02*
D03*
X25029Y53822D02*
D03*
Y53507D02*
D03*
X24156Y53787D02*
D03*
Y53472D02*
D03*
X24169Y55300D02*
D03*
Y55615D02*
D03*
X25029Y66967D02*
D03*
Y66652D02*
D03*
X25029Y64839D02*
D03*
Y65154D02*
D03*
X24156Y65119D02*
D03*
Y64804D02*
D03*
X24169Y66632D02*
D03*
Y66947D02*
D03*
X24999Y78362D02*
D03*
Y78047D02*
D03*
X24999Y76234D02*
D03*
Y76549D02*
D03*
X24126Y76514D02*
D03*
Y76199D02*
D03*
X24139Y78342D02*
D03*
Y78027D02*
D03*
X24999Y89712D02*
D03*
Y89397D02*
D03*
X24999Y87584D02*
D03*
Y87899D02*
D03*
X24126Y87864D02*
D03*
Y87549D02*
D03*
X24139Y89377D02*
D03*
Y89692D02*
D03*
X15380Y111648D02*
D03*
Y111963D02*
D03*
X15579Y109711D02*
D03*
Y109396D02*
D03*
X18271Y109916D02*
D03*
Y109601D02*
D03*
X18509Y111516D02*
D03*
Y111831D02*
D03*
X19471Y111842D02*
D03*
Y111527D02*
D03*
X19659Y109606D02*
D03*
Y109921D02*
D03*
X16783Y111981D02*
D03*
Y111666D02*
D03*
X16704Y109713D02*
D03*
Y109398D02*
D03*
X15362Y118205D02*
D03*
Y117891D02*
D03*
X15562Y115639D02*
D03*
Y115954D02*
D03*
X18254Y115843D02*
D03*
Y116158D02*
D03*
X18492Y118073D02*
D03*
Y117758D02*
D03*
X19454Y118084D02*
D03*
Y117769D02*
D03*
X19641Y115849D02*
D03*
Y116164D02*
D03*
X16765Y118224D02*
D03*
Y117909D02*
D03*
X16687Y115641D02*
D03*
Y115955D02*
D03*
X15400Y124449D02*
D03*
Y124134D02*
D03*
X15599Y121882D02*
D03*
Y122197D02*
D03*
X18291Y122086D02*
D03*
Y122401D02*
D03*
X18529Y124316D02*
D03*
Y124001D02*
D03*
X19491Y124328D02*
D03*
Y124013D02*
D03*
X19679Y122092D02*
D03*
Y122407D02*
D03*
X16803Y124467D02*
D03*
Y124152D02*
D03*
X16724Y121884D02*
D03*
Y122199D02*
D03*
X15352Y105745D02*
D03*
Y105430D02*
D03*
X16755Y105763D02*
D03*
Y105448D02*
D03*
D119*
X32980Y5288D02*
D03*
X33374D02*
D03*
X43976Y5009D02*
D03*
X44369D02*
D03*
X32990Y4808D02*
D03*
X33384D02*
D03*
X43976Y5476D02*
D03*
X44369D02*
D03*
X38934Y3447D02*
D03*
X38540D02*
D03*
X39812Y3436D02*
D03*
X39418D02*
D03*
X50288Y3427D02*
D03*
X50681D02*
D03*
X49379Y3423D02*
D03*
X49772D02*
D03*
X19357Y4867D02*
D03*
X19751D02*
D03*
X24770Y3977D02*
D03*
X24376D02*
D03*
X36873Y4313D02*
D03*
X36479D02*
D03*
X44394Y4330D02*
D03*
X44000D02*
D03*
X47733Y4344D02*
D03*
X47339D02*
D03*
X51157Y4334D02*
D03*
X50763D02*
D03*
X19376Y2936D02*
D03*
X19770D02*
D03*
X50564Y130867D02*
D03*
X50958D02*
D03*
X50564Y131349D02*
D03*
X50958D02*
D03*
X71237Y131834D02*
D03*
X70843D02*
D03*
X68797Y131838D02*
D03*
X68403D02*
D03*
X62202Y131833D02*
D03*
X61808D02*
D03*
X58607Y131855D02*
D03*
X58213D02*
D03*
X54939Y131842D02*
D03*
X54545D02*
D03*
X47237Y131844D02*
D03*
X46844D02*
D03*
X43620Y131820D02*
D03*
X43226D02*
D03*
X38424Y131797D02*
D03*
X38030D02*
D03*
X29927Y131095D02*
D03*
X29533D02*
D03*
X26817Y131082D02*
D03*
X26423D02*
D03*
X24552Y131065D02*
D03*
X24158D02*
D03*
X13917Y130717D02*
D03*
X13523D02*
D03*
X22457Y131076D02*
D03*
X22063D02*
D03*
X20217Y131079D02*
D03*
X19823D02*
D03*
X13918Y130214D02*
D03*
X13524D02*
D03*
X50958Y138737D02*
D03*
X50564D02*
D03*
X50958Y139219D02*
D03*
X50564D02*
D03*
X71237Y139704D02*
D03*
X70843D02*
D03*
X68797Y139708D02*
D03*
X68403D02*
D03*
X62202Y139703D02*
D03*
X61808D02*
D03*
X58607Y139725D02*
D03*
X58213D02*
D03*
X54939Y139712D02*
D03*
X54545D02*
D03*
X47237Y139714D02*
D03*
X46844D02*
D03*
X43620Y139690D02*
D03*
X43226D02*
D03*
X38424Y139667D02*
D03*
X38030D02*
D03*
X29927Y138965D02*
D03*
X29533D02*
D03*
X26817Y138952D02*
D03*
X26423D02*
D03*
X24552Y138935D02*
D03*
X24158D02*
D03*
X13918Y138084D02*
D03*
X13524D02*
D03*
X50560Y146609D02*
D03*
X50954D02*
D03*
X50560Y147091D02*
D03*
X50954D02*
D03*
X71237Y147577D02*
D03*
X70843D02*
D03*
X68797Y147580D02*
D03*
X68403D02*
D03*
X61804Y147575D02*
D03*
X62197D02*
D03*
X58602Y147597D02*
D03*
X58209D02*
D03*
X43616Y147562D02*
D03*
X43222D02*
D03*
X38419Y147539D02*
D03*
X38026D02*
D03*
X24547Y146807D02*
D03*
X24154D02*
D03*
X13519Y146460D02*
D03*
X13912D02*
D03*
X22452Y146819D02*
D03*
X22059D02*
D03*
X20212Y146821D02*
D03*
X19819D02*
D03*
X13520Y145956D02*
D03*
X13913D02*
D03*
X50560Y154484D02*
D03*
X50954D02*
D03*
X50560Y154966D02*
D03*
X50954D02*
D03*
X71237Y155468D02*
D03*
X70843D02*
D03*
X68797D02*
D03*
X68403D02*
D03*
X62198Y155450D02*
D03*
X61804D02*
D03*
X58603Y155472D02*
D03*
X58209D02*
D03*
X54935Y155460D02*
D03*
X54541D02*
D03*
X47233Y155461D02*
D03*
X46840D02*
D03*
X43616Y155437D02*
D03*
X43222D02*
D03*
X38420Y155414D02*
D03*
X38026D02*
D03*
X29923Y154712D02*
D03*
X29529D02*
D03*
X26813Y154699D02*
D03*
X26419D02*
D03*
X24548Y154682D02*
D03*
X24154D02*
D03*
X13913Y154334D02*
D03*
X13519D02*
D03*
X22453Y154694D02*
D03*
X22059D02*
D03*
X20213Y154696D02*
D03*
X19819D02*
D03*
X13914Y153831D02*
D03*
X13520D02*
D03*
X86806Y11930D02*
D03*
X87200D02*
D03*
X88810Y20770D02*
D03*
X88416D02*
D03*
X88330Y17390D02*
D03*
X87936D02*
D03*
X100883Y14060D02*
D03*
X100490D02*
D03*
X100500Y54095D02*
D03*
X100893D02*
D03*
X100480Y24075D02*
D03*
X100873D02*
D03*
X100886Y64065D02*
D03*
X100493D02*
D03*
X100496Y34056D02*
D03*
X100890D02*
D03*
X100490Y74065D02*
D03*
X100883D02*
D03*
X100490Y44052D02*
D03*
X100883D02*
D03*
X100490Y84065D02*
D03*
X100883D02*
D03*
X27918Y5242D02*
D03*
X28312D02*
D03*
X28402Y16627D02*
D03*
X28008D02*
D03*
X58017Y118290D02*
D03*
X57623D02*
D03*
X28370Y28002D02*
D03*
X27977D02*
D03*
X28508Y39337D02*
D03*
X28114D02*
D03*
X53497Y117377D02*
D03*
X53103D02*
D03*
X28057Y50708D02*
D03*
X28451D02*
D03*
X89151Y154737D02*
D03*
X89544D02*
D03*
X28018Y62052D02*
D03*
X28412D02*
D03*
X88221Y153794D02*
D03*
X88614D02*
D03*
X27978Y73435D02*
D03*
X28372D02*
D03*
X113831Y119746D02*
D03*
X114225D02*
D03*
X114175Y117576D02*
D03*
X113781D02*
D03*
X102522Y95404D02*
D03*
X102128D02*
D03*
X106598Y128157D02*
D03*
X106991D02*
D03*
X113989Y142049D02*
D03*
X113596D02*
D03*
X114245Y154845D02*
D03*
X114638D02*
D03*
X114588Y152675D02*
D03*
X114195D02*
D03*
X33039Y16701D02*
D03*
X33432D02*
D03*
X44034Y16423D02*
D03*
X44428D02*
D03*
X33049Y16221D02*
D03*
X33442D02*
D03*
X44034Y16889D02*
D03*
X44428D02*
D03*
X38993Y14860D02*
D03*
X38599D02*
D03*
X39870Y14849D02*
D03*
X39476D02*
D03*
X50346Y14841D02*
D03*
X50740D02*
D03*
X49437Y14836D02*
D03*
X49831D02*
D03*
X19416Y16280D02*
D03*
X19810D02*
D03*
X24829Y15391D02*
D03*
X24435D02*
D03*
X36931Y15726D02*
D03*
X36538D02*
D03*
X44453Y15744D02*
D03*
X44059D02*
D03*
X47791Y15758D02*
D03*
X47398D02*
D03*
X51215Y15748D02*
D03*
X50821D02*
D03*
X19435Y14349D02*
D03*
X19828D02*
D03*
X57908Y16162D02*
D03*
X58302D02*
D03*
X33049Y28046D02*
D03*
X33442D02*
D03*
X44044Y27768D02*
D03*
X44438D02*
D03*
X33059Y27566D02*
D03*
X33452D02*
D03*
X44044Y28234D02*
D03*
X44438D02*
D03*
X39003Y26205D02*
D03*
X38609D02*
D03*
X39880Y26194D02*
D03*
X39486D02*
D03*
X50356Y26186D02*
D03*
X50750D02*
D03*
X49447Y26181D02*
D03*
X49841D02*
D03*
X19426Y27625D02*
D03*
X19820D02*
D03*
X24839Y26736D02*
D03*
X24445D02*
D03*
X36941Y27071D02*
D03*
X36548D02*
D03*
X44463Y27089D02*
D03*
X44069D02*
D03*
X47801Y27102D02*
D03*
X47408D02*
D03*
X51225Y27093D02*
D03*
X50831D02*
D03*
X19445Y25694D02*
D03*
X19838D02*
D03*
X57918Y27507D02*
D03*
X58312D02*
D03*
X33049Y39411D02*
D03*
X33442D02*
D03*
X44044Y39133D02*
D03*
X44438D02*
D03*
X33059Y38931D02*
D03*
X33452D02*
D03*
X44044Y39599D02*
D03*
X44438D02*
D03*
X39003Y37570D02*
D03*
X38609D02*
D03*
X39880Y37559D02*
D03*
X39486D02*
D03*
X50356Y37551D02*
D03*
X50750D02*
D03*
X49447Y37546D02*
D03*
X49841D02*
D03*
X19426Y38990D02*
D03*
X19820D02*
D03*
X24839Y38101D02*
D03*
X24445D02*
D03*
X36941Y38436D02*
D03*
X36548D02*
D03*
X44463Y38454D02*
D03*
X44069D02*
D03*
X47801Y38468D02*
D03*
X47408D02*
D03*
X51225Y38458D02*
D03*
X50831D02*
D03*
X19445Y37059D02*
D03*
X19838D02*
D03*
X57918Y38872D02*
D03*
X58312D02*
D03*
X33452Y50795D02*
D03*
X33059D02*
D03*
X44054Y50516D02*
D03*
X44448D02*
D03*
X33069Y50315D02*
D03*
X33462D02*
D03*
X44054Y50983D02*
D03*
X44448D02*
D03*
X39013Y48953D02*
D03*
X38619D02*
D03*
X39890Y48942D02*
D03*
X39496D02*
D03*
X50760Y48934D02*
D03*
X50366D02*
D03*
X49457Y48930D02*
D03*
X49851D02*
D03*
X19436Y50373D02*
D03*
X19830D02*
D03*
X24848Y49484D02*
D03*
X24455D02*
D03*
X36951Y49819D02*
D03*
X36558D02*
D03*
X44473Y49837D02*
D03*
X44079D02*
D03*
X47811Y49851D02*
D03*
X47418D02*
D03*
X51235Y49841D02*
D03*
X50841D02*
D03*
X19455Y48442D02*
D03*
X19848D02*
D03*
X57928Y50255D02*
D03*
X58322D02*
D03*
X33452Y62126D02*
D03*
X33059D02*
D03*
X44054Y61848D02*
D03*
X44448D02*
D03*
X33069Y61646D02*
D03*
X33462D02*
D03*
X44054Y62314D02*
D03*
X44448D02*
D03*
X39013Y60285D02*
D03*
X38619D02*
D03*
X39890Y60274D02*
D03*
X39496D02*
D03*
X50366Y60266D02*
D03*
X50760D02*
D03*
X49457Y60261D02*
D03*
X49851D02*
D03*
X19436Y61705D02*
D03*
X19830D02*
D03*
X24455Y60816D02*
D03*
X24848D02*
D03*
X36558Y61151D02*
D03*
X36951D02*
D03*
X44473Y61169D02*
D03*
X44079D02*
D03*
X47418Y61182D02*
D03*
X47811D02*
D03*
X51235Y61173D02*
D03*
X50841D02*
D03*
X19455Y59774D02*
D03*
X19848D02*
D03*
X57928Y61587D02*
D03*
X58322D02*
D03*
X33422Y73521D02*
D03*
X33029D02*
D03*
X44024Y73243D02*
D03*
X44418D02*
D03*
X33039Y73041D02*
D03*
X33432D02*
D03*
X44024Y73709D02*
D03*
X44418D02*
D03*
X38983Y71680D02*
D03*
X38589D02*
D03*
X39860Y71669D02*
D03*
X39466D02*
D03*
X50336Y71661D02*
D03*
X50730D02*
D03*
X49427Y71656D02*
D03*
X49821D02*
D03*
X19406Y73100D02*
D03*
X19800D02*
D03*
X24818Y72211D02*
D03*
X24425D02*
D03*
X36528Y72546D02*
D03*
X36921D02*
D03*
X44443Y72564D02*
D03*
X44049D02*
D03*
X47781Y72578D02*
D03*
X47388D02*
D03*
X51205Y72568D02*
D03*
X50811D02*
D03*
X19818Y71169D02*
D03*
X19425D02*
D03*
X57898Y72982D02*
D03*
X58292D02*
D03*
X33422Y84871D02*
D03*
X33029D02*
D03*
X44024Y84593D02*
D03*
X44418D02*
D03*
X33039Y84391D02*
D03*
X33432D02*
D03*
X44024Y85059D02*
D03*
X44418D02*
D03*
X38983Y83030D02*
D03*
X38589D02*
D03*
X39860Y83019D02*
D03*
X39466D02*
D03*
X50730Y83011D02*
D03*
X50336D02*
D03*
X49427Y83006D02*
D03*
X49821D02*
D03*
X19406Y84450D02*
D03*
X19800D02*
D03*
X24818Y83561D02*
D03*
X24425D02*
D03*
X36921Y83896D02*
D03*
X36528D02*
D03*
X44443Y83914D02*
D03*
X44049D02*
D03*
X47781Y83928D02*
D03*
X47388D02*
D03*
X51205Y83918D02*
D03*
X50811D02*
D03*
X19425Y82519D02*
D03*
X19818D02*
D03*
X57898Y84332D02*
D03*
X58292D02*
D03*
X34757Y130952D02*
D03*
X34363D02*
D03*
Y138822D02*
D03*
X34757D02*
D03*
X34359Y146694D02*
D03*
X34752D02*
D03*
X34359Y154569D02*
D03*
X34752D02*
D03*
X31324Y133240D02*
D03*
X30930D02*
D03*
X30925Y141118D02*
D03*
X31319D02*
D03*
X31310Y148986D02*
D03*
X30917D02*
D03*
X30926Y156864D02*
D03*
X31320D02*
D03*
X22711Y8801D02*
D03*
X22317D02*
D03*
X26445Y9219D02*
D03*
X26051D02*
D03*
X22686Y9322D02*
D03*
X22292D02*
D03*
X26420Y8658D02*
D03*
X26026D02*
D03*
X26028Y8169D02*
D03*
X26422D02*
D03*
X57565Y4208D02*
D03*
X57171D02*
D03*
X66055Y9214D02*
D03*
X66449D02*
D03*
X81348Y132448D02*
D03*
X80954D02*
D03*
X81348Y140318D02*
D03*
X80954D02*
D03*
X81343Y148190D02*
D03*
X80950D02*
D03*
X80950Y156065D02*
D03*
X81344D02*
D03*
X21300Y104739D02*
D03*
X20907D02*
D03*
X17960Y104207D02*
D03*
X17567D02*
D03*
X15070Y104150D02*
D03*
X14677D02*
D03*
X17960Y104698D02*
D03*
X17567D02*
D03*
X15063Y104635D02*
D03*
X14669D02*
D03*
X112520Y31469D02*
D03*
X112126D02*
D03*
X108464Y31780D02*
D03*
X108070D02*
D03*
X108426Y32343D02*
D03*
X108032D02*
D03*
X83975Y41173D02*
D03*
X84369D02*
D03*
X112543Y36033D02*
D03*
X112150D02*
D03*
X108053Y36018D02*
D03*
X108447D02*
D03*
X108426Y36545D02*
D03*
X108032D02*
D03*
X112197Y49240D02*
D03*
X111803D02*
D03*
X112072Y48510D02*
D03*
X111678D02*
D03*
X83141Y19031D02*
D03*
X83534D02*
D03*
X57223Y117820D02*
D03*
X57617D02*
D03*
X92135Y145971D02*
D03*
X92529D02*
D03*
X83884Y63625D02*
D03*
X83490Y63625D02*
D03*
X83634Y86443D02*
D03*
X83240D02*
D03*
X97258Y139659D02*
D03*
X97652D02*
D03*
X97603Y155092D02*
D03*
X97209D02*
D03*
X112612Y22831D02*
D03*
X112218D02*
D03*
X111742Y22841D02*
D03*
X111348D02*
D03*
X111532Y74800D02*
D03*
X111139D02*
D03*
X112217Y23428D02*
D03*
X112611D02*
D03*
X111337D02*
D03*
X111731D02*
D03*
X112212Y24003D02*
D03*
X112606D02*
D03*
X111332D02*
D03*
X111726D02*
D03*
X115185Y75960D02*
D03*
X114792D02*
D03*
X113791Y118176D02*
D03*
X114185D02*
D03*
X114205Y119246D02*
D03*
X113811D02*
D03*
X101218Y98535D02*
D03*
X101611D02*
D03*
X112902Y94276D02*
D03*
X113296D02*
D03*
X113589Y142569D02*
D03*
X113982D02*
D03*
X114205Y153275D02*
D03*
X114598D02*
D03*
X114618Y154345D02*
D03*
X114225D02*
D03*
X22770Y20215D02*
D03*
X22376D02*
D03*
X26503Y20633D02*
D03*
X26109D02*
D03*
X22744Y20736D02*
D03*
X22351D02*
D03*
X26478Y20072D02*
D03*
X26084D02*
D03*
X26087Y19583D02*
D03*
X26480D02*
D03*
X57230Y15621D02*
D03*
X57623D02*
D03*
X66113Y20627D02*
D03*
X66507D02*
D03*
X22386Y31560D02*
D03*
X22780D02*
D03*
X26513Y31978D02*
D03*
X26119D02*
D03*
X22754Y32081D02*
D03*
X22361D02*
D03*
X26488Y31417D02*
D03*
X26094D02*
D03*
X26097Y30927D02*
D03*
X26490D02*
D03*
X57240Y26966D02*
D03*
X57633D02*
D03*
X66123Y31972D02*
D03*
X66517D02*
D03*
X22780Y42925D02*
D03*
X22386D02*
D03*
X26513Y43343D02*
D03*
X26119D02*
D03*
X22754Y43446D02*
D03*
X22361D02*
D03*
X26488Y42782D02*
D03*
X26094D02*
D03*
X26097Y42293D02*
D03*
X26490D02*
D03*
X57240Y38331D02*
D03*
X57633D02*
D03*
X66517Y43337D02*
D03*
X66123D02*
D03*
X22790Y54308D02*
D03*
X22396D02*
D03*
X26129Y54726D02*
D03*
X26523D02*
D03*
X22764Y54829D02*
D03*
X22371D02*
D03*
X26498Y54165D02*
D03*
X26104D02*
D03*
X26107Y53676D02*
D03*
X26500D02*
D03*
X57643Y49715D02*
D03*
X57250D02*
D03*
X66133Y54720D02*
D03*
X66527D02*
D03*
X22396Y65640D02*
D03*
X22790D02*
D03*
X26523Y66058D02*
D03*
X26129D02*
D03*
X22764Y66160D02*
D03*
X22371D02*
D03*
X26104Y65497D02*
D03*
X26498D02*
D03*
X26500Y65007D02*
D03*
X26107D02*
D03*
X57250Y61046D02*
D03*
X57643D02*
D03*
X66133Y66052D02*
D03*
X66527D02*
D03*
X22760Y77035D02*
D03*
X22366D02*
D03*
X26493Y77453D02*
D03*
X26099D02*
D03*
X22734Y77556D02*
D03*
X22341D02*
D03*
X26074Y76892D02*
D03*
X26468D02*
D03*
X26470Y76403D02*
D03*
X26077D02*
D03*
X57613Y72441D02*
D03*
X57220D02*
D03*
X66497Y77447D02*
D03*
X66103D02*
D03*
X22366Y88385D02*
D03*
X22760D02*
D03*
X26099Y88803D02*
D03*
X26493D02*
D03*
X22734Y88906D02*
D03*
X22341D02*
D03*
X26468Y88242D02*
D03*
X26074D02*
D03*
X26077Y87753D02*
D03*
X26470D02*
D03*
X57613Y83791D02*
D03*
X57220D02*
D03*
X66103Y88797D02*
D03*
X66497D02*
D03*
X21329Y110958D02*
D03*
X20935D02*
D03*
X17595Y110425D02*
D03*
X17989D02*
D03*
X14705Y110369D02*
D03*
X15099D02*
D03*
X17989Y110917D02*
D03*
X17595D02*
D03*
X58243Y4748D02*
D03*
X57850D02*
D03*
X13917Y138587D02*
D03*
X13523D02*
D03*
X22457Y138946D02*
D03*
X22063D02*
D03*
X20217Y138949D02*
D03*
X19823D02*
D03*
X28094Y84763D02*
D03*
X28488D02*
D03*
X54934Y147585D02*
D03*
X54541D02*
D03*
X47233Y147586D02*
D03*
X46839D02*
D03*
X29922Y146838D02*
D03*
X29529D02*
D03*
X26812Y146824D02*
D03*
X26419D02*
D03*
X90717Y145770D02*
D03*
X91111D02*
D03*
X107001Y127674D02*
D03*
X106607D02*
D03*
X113599Y144219D02*
D03*
X113992D02*
D03*
X15091Y110853D02*
D03*
X14697D02*
D03*
X20917Y117200D02*
D03*
X21311D02*
D03*
X17577Y116667D02*
D03*
X17971D02*
D03*
X14687Y116611D02*
D03*
X15081D02*
D03*
X17971Y117159D02*
D03*
X17577D02*
D03*
X15074Y117095D02*
D03*
X14680D02*
D03*
X20955Y123443D02*
D03*
X21348D02*
D03*
X18008Y122911D02*
D03*
X17615D02*
D03*
X15118Y122854D02*
D03*
X14725D02*
D03*
X18008Y123402D02*
D03*
X17615D02*
D03*
X15111Y123339D02*
D03*
X14717D02*
D03*
X78366Y29037D02*
D03*
X78760D02*
D03*
X102263Y15138D02*
D03*
X102657D02*
D03*
X102283Y55136D02*
D03*
X102677D02*
D03*
X102236Y25116D02*
D03*
X102630D02*
D03*
X102256Y65106D02*
D03*
X102650D02*
D03*
X102273Y35097D02*
D03*
X102667D02*
D03*
X102246Y75106D02*
D03*
X102640D02*
D03*
X102246Y45120D02*
D03*
X102640D02*
D03*
X102235Y85106D02*
D03*
X102629D02*
D03*
X89207Y135857D02*
D03*
X89600D02*
D03*
X88657Y136811D02*
D03*
X88263D02*
D03*
X75605Y16471D02*
D03*
X75999D02*
D03*
X74651Y17416D02*
D03*
X75044D02*
D03*
X59190Y116608D02*
D03*
X58796D02*
D03*
X77149Y28839D02*
D03*
X77543D02*
D03*
X75641Y40598D02*
D03*
X76034D02*
D03*
X75087Y39646D02*
D03*
X74693D02*
D03*
X75419Y62060D02*
D03*
X75025D02*
D03*
X74072Y63005D02*
D03*
X74466D02*
D03*
X59196Y117120D02*
D03*
X58803D02*
D03*
X77084Y73826D02*
D03*
X76691D02*
D03*
X75274Y85612D02*
D03*
X74880D02*
D03*
X73938Y84654D02*
D03*
X74332D02*
D03*
X77870Y73847D02*
D03*
X78264D02*
D03*
X116547Y74350D02*
D03*
X116153D02*
D03*
X43457Y112410D02*
D03*
X43063D02*
D03*
X43397Y114350D02*
D03*
X43003D02*
D03*
X43153Y120550D02*
D03*
X42760D02*
D03*
X43153Y122592D02*
D03*
X42760D02*
D03*
X22193Y104747D02*
D03*
X21800D02*
D03*
X22219Y110959D02*
D03*
X21825D02*
D03*
X22182Y117202D02*
D03*
X21789D02*
D03*
X22230Y123446D02*
D03*
X21836D02*
D03*
X90933Y146246D02*
D03*
X91326D02*
D03*
X77473Y29339D02*
D03*
X77866D02*
D03*
X76936Y74283D02*
D03*
X77329D02*
D03*
D120*
X66443Y6007D02*
D03*
Y5417D02*
D03*
X81173Y128731D02*
D03*
Y129321D02*
D03*
Y137191D02*
D03*
Y136601D02*
D03*
X81169Y145064D02*
D03*
Y144474D02*
D03*
X81169Y152938D02*
D03*
Y152348D02*
D03*
X83598Y15346D02*
D03*
Y15936D02*
D03*
X29885Y132669D02*
D03*
Y133259D02*
D03*
X84860Y37270D02*
D03*
Y37860D02*
D03*
X84410Y60489D02*
D03*
Y59899D02*
D03*
X84160Y83308D02*
D03*
Y82718D02*
D03*
X29881Y156313D02*
D03*
Y156903D02*
D03*
X98110Y151959D02*
D03*
Y151369D02*
D03*
X95169Y7810D02*
D03*
Y7220D02*
D03*
X115708Y117731D02*
D03*
Y117141D02*
D03*
X115048Y116661D02*
D03*
Y116071D02*
D03*
X101475Y128342D02*
D03*
Y127752D02*
D03*
X115396Y142074D02*
D03*
Y141484D02*
D03*
X114756Y141004D02*
D03*
Y140414D02*
D03*
X116122Y152830D02*
D03*
Y152240D02*
D03*
X115462Y151760D02*
D03*
Y151170D02*
D03*
X66501Y17420D02*
D03*
Y16830D02*
D03*
X66511Y28765D02*
D03*
Y28175D02*
D03*
Y40130D02*
D03*
Y39540D02*
D03*
X66521Y50923D02*
D03*
Y51513D02*
D03*
Y62255D02*
D03*
Y62845D02*
D03*
X66491Y73650D02*
D03*
Y74240D02*
D03*
Y85000D02*
D03*
Y85590D02*
D03*
X59243Y130290D02*
D03*
Y130880D02*
D03*
X55697Y130805D02*
D03*
Y130215D02*
D03*
X44240Y130338D02*
D03*
Y130928D02*
D03*
X34973Y130453D02*
D03*
Y129863D02*
D03*
X59243Y138750D02*
D03*
Y138160D02*
D03*
X55697Y138675D02*
D03*
Y138085D02*
D03*
X44240Y138798D02*
D03*
Y138208D02*
D03*
X34973Y138323D02*
D03*
Y137733D02*
D03*
X59239Y146623D02*
D03*
Y146033D02*
D03*
X55693Y146548D02*
D03*
Y145958D02*
D03*
X44236Y146670D02*
D03*
Y146080D02*
D03*
X34968Y146195D02*
D03*
Y145605D02*
D03*
X59239Y153908D02*
D03*
Y154498D02*
D03*
X55693Y154423D02*
D03*
Y153833D02*
D03*
X44236Y154545D02*
D03*
Y153955D02*
D03*
X34969Y154070D02*
D03*
Y153480D02*
D03*
X112878Y49775D02*
D03*
Y50365D02*
D03*
X113485Y49775D02*
D03*
Y50365D02*
D03*
X113100Y45325D02*
D03*
Y45915D02*
D03*
X115890Y83965D02*
D03*
Y84555D02*
D03*
X112260Y84497D02*
D03*
Y83907D02*
D03*
X102098Y118819D02*
D03*
Y118229D02*
D03*
X105169Y4600D02*
D03*
Y4010D02*
D03*
X96249Y8510D02*
D03*
Y9100D02*
D03*
X97319Y8520D02*
D03*
Y9110D02*
D03*
X111185Y94192D02*
D03*
Y93602D02*
D03*
X111776Y128350D02*
D03*
Y127760D02*
D03*
X111236Y128260D02*
D03*
Y127670D02*
D03*
X109320Y104137D02*
D03*
Y104727D02*
D03*
X29922Y140570D02*
D03*
Y141160D02*
D03*
X29881Y149004D02*
D03*
Y148414D02*
D03*
X98143Y136523D02*
D03*
Y135933D02*
D03*
X101085Y96869D02*
D03*
Y97459D02*
D03*
X104485Y96889D02*
D03*
Y96299D02*
D03*
D121*
X66571Y9790D02*
D03*
X65981D02*
D03*
X80873Y133010D02*
D03*
X81463D02*
D03*
Y140880D02*
D03*
X80873D02*
D03*
X80869Y148752D02*
D03*
X81459D02*
D03*
X80869Y156627D02*
D03*
X81459D02*
D03*
X83133Y19631D02*
D03*
X83723D02*
D03*
X29926Y4448D02*
D03*
X29336D02*
D03*
X83877Y41773D02*
D03*
X84467D02*
D03*
X29384Y15859D02*
D03*
X29974D02*
D03*
X29939Y27204D02*
D03*
X29349D02*
D03*
X30025Y49924D02*
D03*
X29435D02*
D03*
X30025Y38564D02*
D03*
X29435D02*
D03*
X89157Y155311D02*
D03*
X89747D02*
D03*
X29369Y61353D02*
D03*
X29959D02*
D03*
X83982Y64225D02*
D03*
X83392D02*
D03*
X83732Y87043D02*
D03*
X83142D02*
D03*
X29931Y72726D02*
D03*
X29341D02*
D03*
X30015Y83954D02*
D03*
X29425D02*
D03*
X101325Y106762D02*
D03*
X101915D02*
D03*
X66630Y21204D02*
D03*
X66040D02*
D03*
X66640Y32549D02*
D03*
X66050D02*
D03*
X66640Y43914D02*
D03*
X66050D02*
D03*
X66060Y55297D02*
D03*
X66650D02*
D03*
X66060Y66629D02*
D03*
X66650D02*
D03*
X66030Y78024D02*
D03*
X66620D02*
D03*
X66030Y89374D02*
D03*
X66620D02*
D03*
X111975Y74142D02*
D03*
X111385D02*
D03*
X106925Y74100D02*
D03*
X107515D02*
D03*
X114363Y118726D02*
D03*
X113773D02*
D03*
X113693Y117036D02*
D03*
X114283D02*
D03*
X114171Y143109D02*
D03*
X113581D02*
D03*
X113580Y143669D02*
D03*
X114170D02*
D03*
X113571Y141479D02*
D03*
X114161D02*
D03*
X114777Y153825D02*
D03*
X114187D02*
D03*
X114106Y152135D02*
D03*
X114696D02*
D03*
X97711Y155703D02*
D03*
X97121D02*
D03*
X102036Y117656D02*
D03*
X101446D02*
D03*
X89180Y135285D02*
D03*
X89770D02*
D03*
X97160Y140259D02*
D03*
X97750D02*
D03*
X75606Y15921D02*
D03*
X76196D02*
D03*
X75646Y41172D02*
D03*
X76236D02*
D03*
X75631Y61517D02*
D03*
X75041D02*
D03*
X75476Y86186D02*
D03*
X74886D02*
D03*
D122*
X76403Y49500D02*
D03*
X77503D02*
D03*
X117430Y94387D02*
D03*
X116330D02*
D03*
X103110Y106982D02*
D03*
X104210D02*
D03*
X76494Y51886D02*
D03*
X77594D02*
D03*
X106157Y129880D02*
D03*
X105057D02*
D03*
D123*
X90960Y143771D02*
D03*
X90681Y144050D02*
D03*
X89976Y144046D02*
D03*
X89698Y144324D02*
D03*
X87554Y147202D02*
D03*
X87275Y147480D02*
D03*
X90866Y147766D02*
D03*
X90587Y148044D02*
D03*
X89312Y143398D02*
D03*
X89590Y143120D02*
D03*
X86556Y146790D02*
D03*
X86835Y146511D02*
D03*
X86891Y147141D02*
D03*
X87169Y146862D02*
D03*
X87921Y147545D02*
D03*
X87642Y147823D02*
D03*
X90580Y143411D02*
D03*
X90302Y143689D02*
D03*
X90441Y145078D02*
D03*
X90719Y144799D02*
D03*
X88963Y143063D02*
D03*
X89241Y142785D02*
D03*
X76733Y26750D02*
D03*
X77011Y26472D02*
D03*
X76872Y28143D02*
D03*
X77151Y27865D02*
D03*
X75394Y26115D02*
D03*
X75673Y25837D02*
D03*
X76208Y71652D02*
D03*
X76486Y71374D02*
D03*
X76634Y72794D02*
D03*
X76355Y73072D02*
D03*
X77113Y27115D02*
D03*
X77391Y26837D02*
D03*
X76404Y27119D02*
D03*
X76125Y27397D02*
D03*
X73985Y30273D02*
D03*
X73707Y30551D02*
D03*
X77300Y30830D02*
D03*
X77022Y31108D02*
D03*
X76023Y26182D02*
D03*
X75745Y26461D02*
D03*
X73267Y29576D02*
D03*
X72988Y29854D02*
D03*
X73600Y29928D02*
D03*
X73322Y30206D02*
D03*
X74352Y30614D02*
D03*
X74074Y30892D02*
D03*
X76591Y72012D02*
D03*
X76870Y71733D02*
D03*
X75603Y72294D02*
D03*
X75881Y72016D02*
D03*
X73184Y75444D02*
D03*
X73462Y75166D02*
D03*
X76494Y76006D02*
D03*
X76773Y75728D02*
D03*
X75214Y71368D02*
D03*
X75492Y71090D02*
D03*
X72459Y74760D02*
D03*
X72737Y74482D02*
D03*
X72794Y75103D02*
D03*
X73073Y74824D02*
D03*
X73546Y75786D02*
D03*
X73825Y75508D02*
D03*
X74867Y71025D02*
D03*
X75145Y70747D02*
D03*
X90033Y144676D02*
D03*
X90311Y144398D02*
D03*
X76721Y27438D02*
D03*
X76443Y27716D02*
D03*
X75923Y72638D02*
D03*
X76202Y72360D02*
D03*
D124*
X88116Y144290D02*
D03*
X87837Y144012D02*
D03*
X89402Y147688D02*
D03*
X89681Y147966D02*
D03*
X90022Y147625D02*
D03*
X89744Y147347D02*
D03*
X88108Y143632D02*
D03*
X88387Y143910D02*
D03*
X86880Y144804D02*
D03*
X87159Y145083D02*
D03*
X88683Y143480D02*
D03*
X88961Y143758D02*
D03*
X87414Y143700D02*
D03*
X87136Y143422D02*
D03*
X90642Y147266D02*
D03*
X90364Y146988D02*
D03*
X89987Y142825D02*
D03*
X89708Y142546D02*
D03*
X73846Y26769D02*
D03*
X73567Y26491D02*
D03*
X76794Y30057D02*
D03*
X77072Y30335D02*
D03*
X76420Y25889D02*
D03*
X76141Y25611D02*
D03*
X76553Y75223D02*
D03*
X76275Y74944D02*
D03*
X73040Y71384D02*
D03*
X73318Y71662D02*
D03*
X74208Y27131D02*
D03*
X74486Y27409D02*
D03*
X75828Y30753D02*
D03*
X76106Y31031D02*
D03*
X76172Y30412D02*
D03*
X76451Y30690D02*
D03*
X74818Y26976D02*
D03*
X74540Y26697D02*
D03*
X73591Y28143D02*
D03*
X73313Y27865D02*
D03*
X75389Y26816D02*
D03*
X75110Y26538D02*
D03*
X73964Y72310D02*
D03*
X73686Y72032D02*
D03*
X75580Y75927D02*
D03*
X75302Y75648D02*
D03*
X75922Y75587D02*
D03*
X75643Y75309D02*
D03*
X74009Y71594D02*
D03*
X74287Y71872D02*
D03*
X72789Y72761D02*
D03*
X73067Y73040D02*
D03*
X74580Y71442D02*
D03*
X74858Y71720D02*
D03*
X75892Y70780D02*
D03*
X75614Y70502D02*
D03*
D125*
X107244Y6955D02*
D03*
X106494D02*
D03*
X102860Y94674D02*
D03*
X102110D02*
D03*
X113311Y130615D02*
D03*
X112561D02*
D03*
X101815Y107492D02*
D03*
X101065D02*
D03*
X110645Y107082D02*
D03*
X111395D02*
D03*
X104334Y104983D02*
D03*
X103584D02*
D03*
X88868Y9210D02*
D03*
X88118D02*
D03*
X89538Y12660D02*
D03*
X88788D02*
D03*
X113853Y116326D02*
D03*
X113103D02*
D03*
X113651Y140719D02*
D03*
X112901D02*
D03*
X114267Y151425D02*
D03*
X113517D02*
D03*
D126*
X94689Y6685D02*
D03*
X95789D02*
D03*
X94689Y6325D02*
D03*
X95789D02*
D03*
X102235Y96944D02*
D03*
X103335D02*
D03*
X102235Y96584D02*
D03*
X103335D02*
D03*
D127*
X107268Y116059D02*
D03*
Y117477D02*
D03*
X106802Y151386D02*
D03*
Y152803D02*
D03*
D128*
X98930Y130758D02*
D03*
Y128002D02*
D03*
D129*
X105387Y130738D02*
D03*
Y132982D02*
D03*
X103440Y110084D02*
D03*
Y107840D02*
D03*
D130*
X109663Y97196D02*
D03*
Y98796D02*
D03*
D131*
X101506Y120103D02*
D03*
D132*
X110018Y119271D02*
D03*
Y121042D02*
D03*
X110432Y156141D02*
D03*
Y154369D02*
D03*
D133*
X108489Y7795D02*
D03*
X111009D02*
D03*
X114556Y131455D02*
D03*
X117075D02*
D03*
X112640Y107922D02*
D03*
X115160D02*
D03*
D134*
X115150Y21228D02*
D03*
X114284Y20854D02*
D03*
Y21602D02*
D03*
X115150Y19848D02*
D03*
X114284Y19474D02*
D03*
Y20222D02*
D03*
D135*
X25862Y3986D02*
D03*
X39477Y131803D02*
D03*
X23307Y131070D02*
D03*
X19002Y131074D02*
D03*
X39477Y139673D02*
D03*
X23307Y138940D02*
D03*
X19002Y138944D02*
D03*
X39472Y147545D02*
D03*
X23303Y146812D02*
D03*
X18997Y146816D02*
D03*
X39473Y155420D02*
D03*
X23303Y154687D02*
D03*
X18998Y154691D02*
D03*
X25920Y15400D02*
D03*
X25930Y26745D02*
D03*
Y38110D02*
D03*
X25940Y49493D02*
D03*
Y60825D02*
D03*
X25910Y72220D02*
D03*
Y83570D02*
D03*
D136*
X87823Y18070D02*
D03*
X88323D02*
D03*
X88823D02*
D03*
X89323D02*
D03*
X87823Y20070D02*
D03*
X88323D02*
D03*
X88823D02*
D03*
X87783Y9950D02*
D03*
X88283D02*
D03*
X88783D02*
D03*
X89283D02*
D03*
X87783Y11950D02*
D03*
X88283D02*
D03*
X88783D02*
D03*
X94246Y13808D02*
D03*
X94746D02*
D03*
X95246D02*
D03*
X95746D02*
D03*
X94246Y15808D02*
D03*
X94746D02*
D03*
X95246D02*
D03*
X95256Y55843D02*
D03*
X94756D02*
D03*
X94256D02*
D03*
X95756Y53843D02*
D03*
X95256D02*
D03*
X94756D02*
D03*
X94256D02*
D03*
X94236Y23823D02*
D03*
X94736D02*
D03*
X95236D02*
D03*
X95736D02*
D03*
X94236Y25823D02*
D03*
X94736D02*
D03*
X95236D02*
D03*
X95250Y65813D02*
D03*
X94750D02*
D03*
X94250D02*
D03*
X95750Y63813D02*
D03*
X95250D02*
D03*
X94750D02*
D03*
X94250D02*
D03*
X95253Y35804D02*
D03*
X94753D02*
D03*
X94253D02*
D03*
X95753Y33804D02*
D03*
X95253D02*
D03*
X94753D02*
D03*
X94253D02*
D03*
X95246Y75813D02*
D03*
X94746D02*
D03*
X94246D02*
D03*
X95746Y73813D02*
D03*
X95246D02*
D03*
X94746D02*
D03*
X94246D02*
D03*
Y43800D02*
D03*
X94746D02*
D03*
X95246D02*
D03*
X95746D02*
D03*
X94246Y45800D02*
D03*
X94746D02*
D03*
X95246D02*
D03*
X94246Y83813D02*
D03*
X94746D02*
D03*
X95246D02*
D03*
X95746D02*
D03*
X94246Y85813D02*
D03*
X94746D02*
D03*
X95246D02*
D03*
D137*
X89323Y20070D02*
D03*
X89283Y11950D02*
D03*
X95746Y15808D02*
D03*
X95756Y55843D02*
D03*
X95736Y25823D02*
D03*
X95750Y65813D02*
D03*
X95753Y35804D02*
D03*
X95746Y75813D02*
D03*
Y45800D02*
D03*
Y85813D02*
D03*
D138*
X80954Y50886D02*
D03*
D139*
X78513Y50386D02*
D03*
Y50886D02*
D03*
Y51386D02*
D03*
Y51886D02*
D03*
Y49886D02*
D03*
D140*
X111116Y41476D02*
D03*
X110616D02*
D03*
X110116D02*
D03*
X109616D02*
D03*
X109116D02*
D03*
X108616D02*
D03*
X108116D02*
D03*
X107616D02*
D03*
X111116Y39350D02*
D03*
X110616D02*
D03*
X110116D02*
D03*
X109616D02*
D03*
X109116D02*
D03*
X108616D02*
D03*
X108116D02*
D03*
X111116Y44991D02*
D03*
X110616D02*
D03*
X110116D02*
D03*
X109616D02*
D03*
X109116D02*
D03*
X108616D02*
D03*
X108116D02*
D03*
X107616D02*
D03*
X111116Y42865D02*
D03*
X110616D02*
D03*
X110116D02*
D03*
X109616D02*
D03*
X109116D02*
D03*
X108616D02*
D03*
X108116D02*
D03*
X111142Y48321D02*
D03*
X110642D02*
D03*
X110142D02*
D03*
X109642D02*
D03*
X109142D02*
D03*
X108642D02*
D03*
X108142D02*
D03*
X107642D02*
D03*
X111142Y46195D02*
D03*
X110642D02*
D03*
X110142D02*
D03*
X109642D02*
D03*
X109142D02*
D03*
X108642D02*
D03*
X108142D02*
D03*
D141*
X107616Y39350D02*
D03*
X107616Y42865D02*
D03*
X107642Y46195D02*
D03*
D142*
X115619Y30965D02*
D03*
X115699Y35345D02*
D03*
X114399Y48887D02*
D03*
X106551Y31017D02*
D03*
X106579Y40900D02*
D03*
X106649Y51274D02*
D03*
D143*
X115363Y30965D02*
D03*
X115107D02*
D03*
X114851D02*
D03*
X114595D02*
D03*
X114339D02*
D03*
X114083D02*
D03*
X113828D02*
D03*
X115619Y28682D02*
D03*
X115363D02*
D03*
X115107D02*
D03*
X114851D02*
D03*
X114595D02*
D03*
X114339D02*
D03*
X114083D02*
D03*
X113828D02*
D03*
X115443Y35345D02*
D03*
X115187D02*
D03*
X114931D02*
D03*
X114675D02*
D03*
X114419D02*
D03*
X114163D02*
D03*
X113908D02*
D03*
X115699Y33062D02*
D03*
X115443D02*
D03*
X115187D02*
D03*
X114931D02*
D03*
X114675D02*
D03*
X114419D02*
D03*
X114163D02*
D03*
X113908D02*
D03*
X112608Y46603D02*
D03*
X112864D02*
D03*
X113119D02*
D03*
X113375D02*
D03*
X113631D02*
D03*
X113887D02*
D03*
X114143D02*
D03*
X114399D02*
D03*
X112608Y48887D02*
D03*
X112864D02*
D03*
X113119D02*
D03*
X113375D02*
D03*
X113631D02*
D03*
X113887D02*
D03*
X114143D02*
D03*
X104760Y28733D02*
D03*
X105016D02*
D03*
X105272D02*
D03*
X105528D02*
D03*
X105784D02*
D03*
X106039D02*
D03*
X106295D02*
D03*
X106551D02*
D03*
X104760Y31017D02*
D03*
X105016D02*
D03*
X105272D02*
D03*
X105528D02*
D03*
X105784D02*
D03*
X106039D02*
D03*
X106295D02*
D03*
X104787Y38617D02*
D03*
X105043D02*
D03*
X105299D02*
D03*
X105555D02*
D03*
X105811D02*
D03*
X106067D02*
D03*
X106323D02*
D03*
X106579D02*
D03*
X104787Y40900D02*
D03*
X105043D02*
D03*
X105299D02*
D03*
X105555D02*
D03*
X105811D02*
D03*
X106067D02*
D03*
X106323D02*
D03*
X104857Y48991D02*
D03*
X105113D02*
D03*
X105369D02*
D03*
X105625D02*
D03*
X105881D02*
D03*
X106137D02*
D03*
X106393D02*
D03*
X106649D02*
D03*
X104857Y51274D02*
D03*
X105113D02*
D03*
X105369D02*
D03*
X105625D02*
D03*
X105881D02*
D03*
X106137D02*
D03*
X106393D02*
D03*
D144*
X91210Y137375D02*
D03*
X77630Y18011D02*
D03*
X77020Y63560D02*
D03*
D145*
X90765Y137292D02*
D03*
X90946Y137111D02*
D03*
X91126Y136930D02*
D03*
X91294Y137821D02*
D03*
X91474Y137640D02*
D03*
X77185Y17928D02*
D03*
X77365Y17747D02*
D03*
X77546Y17566D02*
D03*
X77713Y18457D02*
D03*
X77894Y18276D02*
D03*
X77284Y63824D02*
D03*
X77104Y64005D02*
D03*
X76936Y63115D02*
D03*
X76756Y63296D02*
D03*
X76575Y63476D02*
D03*
D146*
X91655Y137459D02*
D03*
X78075Y18095D02*
D03*
X77465Y63644D02*
D03*
D147*
X104414Y97484D02*
D03*
D148*
Y97740D02*
D03*
Y97996D02*
D03*
Y98252D02*
D03*
Y98508D02*
D03*
Y98764D02*
D03*
X102756Y97484D02*
D03*
Y97740D02*
D03*
Y97996D02*
D03*
Y98252D02*
D03*
Y98508D02*
D03*
Y98764D02*
D03*
D149*
X103585Y98124D02*
D03*
D202*
X56035Y83670D02*
D03*
X55987Y4087D02*
D03*
X56045Y15500D02*
D03*
X56055Y26845D02*
D03*
Y38210D02*
D03*
X56065Y49594D02*
D03*
Y60925D02*
D03*
X56035Y72320D02*
D03*
D233*
X39706Y120550D02*
D03*
X41706Y122550D02*
D03*
Y120550D02*
D03*
X39706Y122550D02*
D03*
X31981Y11113D02*
D03*
X33981Y9113D02*
D03*
Y11113D02*
D03*
X31981Y9113D02*
D03*
X62028Y2544D02*
D03*
X64028Y4544D02*
D03*
X62028D02*
D03*
X64028Y2544D02*
D03*
X75276Y130867D02*
D03*
X73276Y132867D02*
D03*
X75276D02*
D03*
X73276Y130867D02*
D03*
X75276Y138737D02*
D03*
X73276Y140737D02*
D03*
X75276D02*
D03*
X73276Y138737D02*
D03*
X75272Y146610D02*
D03*
X73272Y148610D02*
D03*
X75272D02*
D03*
X73272Y146610D02*
D03*
X75272Y154485D02*
D03*
X73272Y156485D02*
D03*
X75272D02*
D03*
X73272Y154485D02*
D03*
X26717Y102128D02*
D03*
X24717Y104128D02*
D03*
Y102128D02*
D03*
X26717Y104128D02*
D03*
X106090Y14128D02*
D03*
X104090Y16128D02*
D03*
X106090D02*
D03*
X104090Y14128D02*
D03*
Y54163D02*
D03*
X106090Y56163D02*
D03*
X104090D02*
D03*
X106090Y54163D02*
D03*
X104090Y24143D02*
D03*
X106090Y26143D02*
D03*
X104090D02*
D03*
X106090Y24143D02*
D03*
X104090Y64133D02*
D03*
X106090Y66133D02*
D03*
X104090D02*
D03*
X106090Y64133D02*
D03*
X104090Y34124D02*
D03*
X106090Y36124D02*
D03*
X104090D02*
D03*
X106090Y34124D02*
D03*
X104090Y74133D02*
D03*
X106090Y76133D02*
D03*
X104090D02*
D03*
X106090Y74133D02*
D03*
Y44120D02*
D03*
X104090Y46120D02*
D03*
X106090D02*
D03*
X104090Y44120D02*
D03*
Y84133D02*
D03*
X106090Y86133D02*
D03*
X104090D02*
D03*
X106090Y84133D02*
D03*
X50200Y118377D02*
D03*
X52200Y116377D02*
D03*
Y118377D02*
D03*
X50200Y116377D02*
D03*
X32039Y20527D02*
D03*
X34039Y22527D02*
D03*
Y20527D02*
D03*
X32039Y22527D02*
D03*
X64086Y13957D02*
D03*
X62086Y15957D02*
D03*
X64086D02*
D03*
X62086Y13957D02*
D03*
X32049Y33872D02*
D03*
X34049Y31872D02*
D03*
Y33872D02*
D03*
X32049Y31872D02*
D03*
X64096Y25302D02*
D03*
X62096Y27302D02*
D03*
X64096D02*
D03*
X62096Y25302D02*
D03*
X32049Y45237D02*
D03*
X34049Y43237D02*
D03*
Y45237D02*
D03*
X32049Y43237D02*
D03*
X62096Y36667D02*
D03*
X64096Y38667D02*
D03*
X62096D02*
D03*
X64096Y36667D02*
D03*
X32059Y54620D02*
D03*
X34059Y56620D02*
D03*
Y54620D02*
D03*
X32059Y56620D02*
D03*
X64106Y48051D02*
D03*
X62106Y50051D02*
D03*
X64106D02*
D03*
X62106Y48051D02*
D03*
X32059Y67951D02*
D03*
X34059Y65951D02*
D03*
Y67951D02*
D03*
X32059Y65951D02*
D03*
X62106Y59382D02*
D03*
X64106Y61382D02*
D03*
X62106D02*
D03*
X64106Y59382D02*
D03*
X32029Y77347D02*
D03*
X34029Y79347D02*
D03*
Y77347D02*
D03*
X32029Y79347D02*
D03*
X64076Y70777D02*
D03*
X62076Y72777D02*
D03*
X64076D02*
D03*
X62076Y70777D02*
D03*
X32029Y90697D02*
D03*
X34029Y88697D02*
D03*
Y90697D02*
D03*
X32029Y88697D02*
D03*
X62076Y82127D02*
D03*
X64076Y84127D02*
D03*
X62076D02*
D03*
X64076Y82127D02*
D03*
X26745Y110346D02*
D03*
X24745Y108346D02*
D03*
Y110346D02*
D03*
X26745Y108346D02*
D03*
X26728Y116589D02*
D03*
X24728Y114589D02*
D03*
Y116589D02*
D03*
X26728Y114589D02*
D03*
X26765Y122832D02*
D03*
X24765Y120832D02*
D03*
Y122832D02*
D03*
X26765Y120832D02*
D03*
X39706Y112350D02*
D03*
X41706Y114350D02*
D03*
Y112350D02*
D03*
X39706Y114350D02*
D03*
D234*
X22980Y83935D02*
D03*
Y83191D02*
D03*
X27874Y8851D02*
D03*
Y9595D02*
D03*
X22931Y4351D02*
D03*
Y3607D02*
D03*
X66112Y132212D02*
D03*
Y131467D02*
D03*
X28152Y130712D02*
D03*
Y131456D02*
D03*
X17302Y131446D02*
D03*
Y130701D02*
D03*
X66112Y139337D02*
D03*
Y140082D02*
D03*
X28152Y139326D02*
D03*
Y138582D02*
D03*
X17302Y138571D02*
D03*
Y139316D02*
D03*
X66108Y147954D02*
D03*
Y147210D02*
D03*
X28148Y146455D02*
D03*
Y147199D02*
D03*
X17298Y147188D02*
D03*
Y146444D02*
D03*
X66108Y155085D02*
D03*
Y155829D02*
D03*
X28148Y155074D02*
D03*
Y154329D02*
D03*
X17298Y154319D02*
D03*
Y155063D02*
D03*
X27933Y20264D02*
D03*
Y21008D02*
D03*
X22990Y15765D02*
D03*
Y15021D02*
D03*
X27943Y31609D02*
D03*
Y32353D02*
D03*
X23000Y27110D02*
D03*
Y26366D02*
D03*
X27943Y42974D02*
D03*
Y43718D02*
D03*
X23000Y38475D02*
D03*
Y37731D02*
D03*
X27953Y54357D02*
D03*
Y55101D02*
D03*
X23010Y49858D02*
D03*
Y49114D02*
D03*
X27953Y65689D02*
D03*
Y66433D02*
D03*
X23010Y61190D02*
D03*
Y60446D02*
D03*
X27923Y77084D02*
D03*
Y77828D02*
D03*
X22980Y72585D02*
D03*
Y71841D02*
D03*
X27923Y88434D02*
D03*
Y89178D02*
D03*
D235*
X33093Y83998D02*
D03*
Y83558D02*
D03*
X32990Y3974D02*
D03*
Y4414D02*
D03*
X33113Y15836D02*
D03*
Y15396D02*
D03*
X33143Y26710D02*
D03*
Y27150D02*
D03*
X33113Y38533D02*
D03*
Y38093D02*
D03*
X33147Y49480D02*
D03*
Y49920D02*
D03*
X33135Y61257D02*
D03*
Y60817D02*
D03*
X33109Y72212D02*
D03*
Y72652D02*
D03*
D240*
X-5000Y113025D02*
D03*
Y53968D02*
D03*
Y83500D02*
D03*
D251*
X74562Y73917D02*
D03*
X88659Y145955D02*
D03*
X75090Y29020D02*
D03*
D257*
X115738Y124354D02*
D03*
X105300Y119271D02*
D03*
X105656Y139359D02*
D03*
X106012Y153875D02*
D03*
X60308Y67737D02*
D03*
X14943Y58448D02*
D03*
X15303Y35408D02*
D03*
X60619Y22068D02*
D03*
X4963Y79708D02*
D03*
X101338Y80227D02*
D03*
X86012Y113662D02*
D03*
X14563Y80188D02*
D03*
X12213Y119788D02*
D03*
X28713Y106928D02*
D03*
X14813Y12838D02*
D03*
X60202Y46000D02*
D03*
X12213Y150098D02*
D03*
X82650Y142924D02*
D03*
X12423Y134278D02*
D03*
X84889Y127641D02*
D03*
X115728Y100564D02*
D03*
X112458Y75074D02*
D03*
X110888Y54040D02*
D03*
X113858Y25534D02*
D03*
X101028Y60334D02*
D03*
X100468Y39604D02*
D03*
X101238Y20374D02*
D03*
D258*
X95004Y152695D02*
D03*
X63597Y6848D02*
D03*
X78414Y130172D02*
D03*
Y138042D02*
D03*
X78410Y145914D02*
D03*
X78410Y153789D02*
D03*
X80619Y16543D02*
D03*
X76500Y50687D02*
D03*
X93129Y5515D02*
D03*
X101506Y121103D02*
D03*
X100355Y94674D02*
D03*
X97516Y126875D02*
D03*
X104596Y140259D02*
D03*
X99140Y106962D02*
D03*
X101012Y152415D02*
D03*
X63656Y18262D02*
D03*
X63666Y29607D02*
D03*
Y40972D02*
D03*
X63676Y52355D02*
D03*
Y63687D02*
D03*
X63646Y75082D02*
D03*
Y86432D02*
D03*
X81754Y38774D02*
D03*
X81304Y61217D02*
D03*
X81054Y84044D02*
D03*
X95037Y137260D02*
D03*
D259*
X112342Y14016D02*
D03*
X99512Y155918D02*
D03*
D260*
X112342Y15016D02*
D03*
Y16016D02*
D03*
X99512Y156918D02*
D03*
Y157918D02*
D03*
D261*
X-4201Y79340D02*
D03*
X-5000Y58120D02*
D03*
X-4201Y108868D02*
D03*
X-5000Y87648D02*
D03*
D262*
X-1148Y89106D02*
D03*
X3852D02*
D03*
X-1042Y82528D02*
D03*
X3958D02*
D03*
D263*
X66395Y47140D02*
D03*
X72000Y97000D02*
D03*
X122000Y80000D02*
D03*
Y156000D02*
D03*
X4096Y4050D02*
D03*
X72000D02*
D03*
X34000Y110000D02*
D03*
X95000Y156000D02*
D03*
X4100D02*
D03*
X122000Y4050D02*
D03*
D264*
X45869Y84413D02*
D03*
X34871Y4788D02*
D03*
X45820Y4829D02*
D03*
X49028Y131343D02*
D03*
Y139213D02*
D03*
X49024Y147085D02*
D03*
X49024Y154960D02*
D03*
X34930Y16202D02*
D03*
X45879Y16243D02*
D03*
X34940Y27547D02*
D03*
X45889Y27588D02*
D03*
X34940Y38912D02*
D03*
X45889Y38953D02*
D03*
X34950Y50295D02*
D03*
X45899Y50336D02*
D03*
X34950Y61627D02*
D03*
X45899Y61668D02*
D03*
X34920Y73022D02*
D03*
X45869Y73063D02*
D03*
X34920Y84372D02*
D03*
M02*
