G04*
G04 #@! TF.GenerationSoftware,Altium Limited,Altium Designer,22.9.1 (49)*
G04*
G04 Layer_Physical_Order=8*
G04 Layer_Color=8388736*
%FSLAX24Y24*%
%MOIN*%
G70*
G04*
G04 #@! TF.SameCoordinates,1003F32D-41C8-4A49-8BB1-F60438683A21*
G04*
G04*
G04 #@! TF.FilePolarity,Positive*
G04*
G01*
G75*
%ADD10C,0.0060*%
%ADD16C,0.0080*%
%ADD253C,0.0250*%
%ADD265C,0.0180*%
%ADD266C,0.0350*%
%ADD267C,0.0250*%
%ADD279C,0.0060*%
G36*
X97865Y7674D02*
X97818Y7640D01*
X97782D01*
X97749Y7626D01*
X97724Y7601D01*
X97710Y7568D01*
Y7532D01*
X97724Y7499D01*
X97749Y7474D01*
X97782Y7460D01*
X97818D01*
X97865Y7426D01*
Y6884D01*
X95779Y6882D01*
X95743Y6917D01*
Y7702D01*
X95793Y7712D01*
X95803Y7690D01*
X95828Y7665D01*
X95861Y7651D01*
X95897D01*
X95930Y7665D01*
X95955Y7690D01*
X95969Y7723D01*
Y7759D01*
X95955Y7792D01*
X95930Y7817D01*
X95897Y7831D01*
X95861D01*
X95828Y7817D01*
X95803Y7792D01*
X95793Y7770D01*
X95743Y7780D01*
Y8477D01*
X97865D01*
Y7674D01*
D02*
G37*
G36*
X83190Y67527D02*
X83218Y67454D01*
X83092D01*
X83120Y67527D01*
X83190D01*
D02*
G37*
G36*
X83120Y69543D02*
X83092Y69616D01*
X83218D01*
X83190Y69543D01*
X83120D01*
D02*
G37*
G36*
X65578Y126250D02*
X70250D01*
Y92000D01*
X68000D01*
Y117937D01*
X66721D01*
Y118846D01*
X66935Y119060D01*
X66951Y119053D01*
X67007D01*
X67059Y119074D01*
X67098Y119113D01*
X67119Y119165D01*
Y119221D01*
X67098Y119272D01*
X67059Y119311D01*
X67007Y119333D01*
X66951D01*
X66900Y119311D01*
X66861Y119272D01*
X66839Y119221D01*
Y119195D01*
X66582Y118937D01*
X66564Y118911D01*
X66558Y118880D01*
X66558Y118880D01*
Y117937D01*
X65456D01*
Y126306D01*
X65503Y126325D01*
X65578Y126250D01*
D02*
G37*
%LPC*%
G36*
X97668Y7831D02*
X97632D01*
X97599Y7817D01*
X97574Y7792D01*
X97560Y7759D01*
Y7723D01*
X97574Y7690D01*
X97599Y7665D01*
X97632Y7651D01*
X97668D01*
X97701Y7665D01*
X97726Y7690D01*
X97740Y7723D01*
Y7759D01*
X97726Y7792D01*
X97701Y7817D01*
X97668Y7831D01*
D02*
G37*
G36*
X67405Y124265D02*
X67369D01*
X67336Y124251D01*
X67311Y124226D01*
X67297Y124193D01*
Y124157D01*
X67311Y124124D01*
X67336Y124099D01*
X67369Y124085D01*
X67405D01*
X67438Y124099D01*
X67464Y124124D01*
X67477Y124157D01*
Y124193D01*
X67464Y124226D01*
X67438Y124251D01*
X67405Y124265D01*
D02*
G37*
G36*
X66048D02*
X66012D01*
X65979Y124251D01*
X65954Y124226D01*
X65940Y124193D01*
Y124157D01*
X65954Y124124D01*
X65979Y124099D01*
X66012Y124085D01*
X66048D01*
X66081Y124099D01*
X66106Y124124D01*
X66120Y124157D01*
Y124193D01*
X66106Y124226D01*
X66081Y124251D01*
X66048Y124265D01*
D02*
G37*
G36*
X69121Y124009D02*
X69085D01*
X69052Y123995D01*
X69027Y123970D01*
X69013Y123937D01*
Y123901D01*
X69027Y123868D01*
X69052Y123843D01*
X69085Y123829D01*
X69121D01*
X69154Y123843D01*
X69180Y123868D01*
X69193Y123901D01*
Y123937D01*
X69180Y123970D01*
X69154Y123995D01*
X69121Y124009D01*
D02*
G37*
G36*
X66821D02*
X66785D01*
X66752Y123995D01*
X66727Y123970D01*
X66713Y123937D01*
Y123901D01*
X66727Y123868D01*
X66752Y123843D01*
X66785Y123829D01*
X66821D01*
X66854Y123843D01*
X66879Y123868D01*
X66893Y123901D01*
Y123937D01*
X66879Y123970D01*
X66854Y123995D01*
X66821Y124009D01*
D02*
G37*
G36*
Y123750D02*
X66785D01*
X66752Y123736D01*
X66727Y123711D01*
X66713Y123678D01*
Y123642D01*
X66727Y123609D01*
X66752Y123583D01*
X66785Y123570D01*
X66821D01*
X66854Y123583D01*
X66879Y123609D01*
X66893Y123642D01*
Y123678D01*
X66879Y123711D01*
X66854Y123736D01*
X66821Y123750D01*
D02*
G37*
G36*
X69480Y123497D02*
X69445D01*
X69412Y123484D01*
X69386Y123458D01*
X69373Y123425D01*
Y123389D01*
X69386Y123356D01*
X69412Y123331D01*
X69445Y123317D01*
X69480D01*
X69514Y123331D01*
X69539Y123356D01*
X69553Y123389D01*
Y123425D01*
X69539Y123458D01*
X69514Y123484D01*
X69480Y123497D01*
D02*
G37*
G36*
X66821D02*
X66785D01*
X66752Y123484D01*
X66727Y123458D01*
X66713Y123425D01*
Y123389D01*
X66727Y123356D01*
X66752Y123331D01*
X66785Y123317D01*
X66821D01*
X66854Y123331D01*
X66879Y123356D01*
X66893Y123389D01*
Y123425D01*
X66879Y123458D01*
X66854Y123484D01*
X66821Y123497D01*
D02*
G37*
G36*
X69255Y123353D02*
X69219D01*
X69186Y123339D01*
X69161Y123314D01*
X69147Y123281D01*
Y123245D01*
X69161Y123212D01*
X69186Y123186D01*
X69219Y123173D01*
X69255D01*
X69288Y123186D01*
X69314Y123212D01*
X69327Y123245D01*
Y123281D01*
X69314Y123314D01*
X69288Y123339D01*
X69255Y123353D01*
D02*
G37*
G36*
X66845Y123236D02*
X66809D01*
X66776Y123222D01*
X66751Y123197D01*
X66737Y123164D01*
Y123128D01*
X66751Y123095D01*
X66776Y123069D01*
X66809Y123056D01*
X66845D01*
X66878Y123069D01*
X66904Y123095D01*
X66917Y123128D01*
Y123164D01*
X66904Y123197D01*
X66878Y123222D01*
X66845Y123236D01*
D02*
G37*
G36*
X68297Y122730D02*
X68261D01*
X68228Y122716D01*
X68202Y122691D01*
X68189Y122658D01*
Y122622D01*
X68202Y122589D01*
X68228Y122563D01*
X68261Y122550D01*
X68297D01*
X68330Y122563D01*
X68355Y122589D01*
X68369Y122622D01*
Y122658D01*
X68355Y122691D01*
X68330Y122716D01*
X68297Y122730D01*
D02*
G37*
G36*
X66865D02*
X66830D01*
X66797Y122716D01*
X66771Y122691D01*
X66758Y122658D01*
Y122622D01*
X66771Y122589D01*
X66797Y122563D01*
X66830Y122550D01*
X66865D01*
X66898Y122563D01*
X66924Y122589D01*
X66938Y122622D01*
Y122658D01*
X66924Y122691D01*
X66898Y122716D01*
X66865Y122730D01*
D02*
G37*
G36*
X68323Y122445D02*
X68287D01*
X68254Y122431D01*
X68229Y122406D01*
X68215Y122373D01*
Y122337D01*
X68229Y122304D01*
X68254Y122278D01*
X68287Y122265D01*
X68323D01*
X68356Y122278D01*
X68381Y122304D01*
X68395Y122337D01*
Y122373D01*
X68381Y122406D01*
X68356Y122431D01*
X68323Y122445D01*
D02*
G37*
G36*
Y120954D02*
X68287D01*
X68254Y120940D01*
X68229Y120915D01*
X68215Y120882D01*
Y120846D01*
X68229Y120813D01*
X68254Y120787D01*
X68287Y120774D01*
X68323D01*
X68356Y120787D01*
X68381Y120813D01*
X68395Y120846D01*
Y120882D01*
X68381Y120915D01*
X68356Y120940D01*
X68323Y120954D01*
D02*
G37*
G36*
X67723Y120243D02*
X67688D01*
X67655Y120229D01*
X67629Y120204D01*
X67616Y120171D01*
Y120135D01*
X67629Y120102D01*
X67655Y120077D01*
X67688Y120063D01*
X67723D01*
X67756Y120077D01*
X67782Y120102D01*
X67796Y120135D01*
Y120171D01*
X67782Y120204D01*
X67756Y120229D01*
X67723Y120243D01*
D02*
G37*
G36*
X68238Y119769D02*
X68202D01*
X68169Y119755D01*
X68143Y119730D01*
X68130Y119697D01*
Y119661D01*
X68143Y119628D01*
X68169Y119602D01*
X68202Y119589D01*
X68238D01*
X68271Y119602D01*
X68296Y119628D01*
X68310Y119661D01*
Y119697D01*
X68296Y119730D01*
X68271Y119755D01*
X68238Y119769D01*
D02*
G37*
G36*
X67863Y119738D02*
X67827D01*
X67794Y119724D01*
X67769Y119699D01*
X67755Y119665D01*
Y119630D01*
X67769Y119597D01*
X67794Y119571D01*
X67827Y119558D01*
X67863D01*
X67896Y119571D01*
X67921Y119597D01*
X67935Y119630D01*
Y119665D01*
X67921Y119699D01*
X67896Y119724D01*
X67863Y119738D01*
D02*
G37*
G36*
X65748Y119510D02*
X65712D01*
X65679Y119496D01*
X65654Y119471D01*
X65640Y119438D01*
Y119402D01*
X65654Y119369D01*
X65679Y119344D01*
X65712Y119330D01*
X65748D01*
X65781Y119344D01*
X65806Y119369D01*
X65820Y119402D01*
Y119438D01*
X65806Y119471D01*
X65781Y119496D01*
X65748Y119510D01*
D02*
G37*
G36*
X69255Y119283D02*
X69219D01*
X69186Y119269D01*
X69161Y119244D01*
X69147Y119211D01*
Y119175D01*
X69161Y119142D01*
X69186Y119116D01*
X69219Y119103D01*
X69255D01*
X69288Y119116D01*
X69314Y119142D01*
X69327Y119175D01*
Y119211D01*
X69314Y119244D01*
X69288Y119269D01*
X69255Y119283D01*
D02*
G37*
G36*
X68018Y119074D02*
X67982D01*
X67949Y119061D01*
X67924Y119035D01*
X67910Y119002D01*
Y118967D01*
X67924Y118933D01*
X67949Y118908D01*
X67982Y118894D01*
X68018D01*
X68051Y118908D01*
X68076Y118933D01*
X68090Y118967D01*
Y119002D01*
X68076Y119035D01*
X68051Y119061D01*
X68018Y119074D01*
D02*
G37*
G36*
X69480Y118990D02*
X69445D01*
X69412Y118976D01*
X69386Y118951D01*
X69373Y118918D01*
Y118882D01*
X69386Y118849D01*
X69412Y118824D01*
X69445Y118810D01*
X69480D01*
X69514Y118824D01*
X69539Y118849D01*
X69553Y118882D01*
Y118918D01*
X69539Y118951D01*
X69514Y118976D01*
X69480Y118990D01*
D02*
G37*
G36*
X65748D02*
X65712D01*
X65679Y118976D01*
X65654Y118951D01*
X65640Y118918D01*
Y118882D01*
X65654Y118849D01*
X65679Y118824D01*
X65712Y118810D01*
X65748D01*
X65781Y118824D01*
X65806Y118849D01*
X65820Y118882D01*
Y118918D01*
X65806Y118951D01*
X65781Y118976D01*
X65748Y118990D01*
D02*
G37*
G36*
X68242Y118500D02*
X68206D01*
X68173Y118486D01*
X68147Y118461D01*
X68134Y118428D01*
Y118392D01*
X68147Y118359D01*
X68173Y118334D01*
X68206Y118320D01*
X68242D01*
X68275Y118334D01*
X68300Y118359D01*
X68314Y118392D01*
Y118428D01*
X68300Y118461D01*
X68275Y118486D01*
X68242Y118500D01*
D02*
G37*
G36*
X68698Y118027D02*
X68663D01*
X68629Y118014D01*
X68604Y117988D01*
X68590Y117955D01*
Y117919D01*
X68604Y117886D01*
X68629Y117861D01*
X68663Y117847D01*
X68698D01*
X68731Y117861D01*
X68757Y117886D01*
X68770Y117919D01*
Y117955D01*
X68757Y117988D01*
X68731Y118014D01*
X68698Y118027D01*
D02*
G37*
%LPD*%
D10*
X82158Y40473D02*
G03*
X82171Y40453I56J22D01*
G01*
X82168Y40198D02*
G03*
X82151Y40156I42J-42D01*
G01*
X82154Y40496D02*
G03*
X82158Y40473I60J-0D01*
G01*
X66640Y115189D02*
Y118880D01*
Y115189D02*
X66810Y115019D01*
X66640Y118880D02*
X66953Y119193D01*
X107934Y127525D02*
Y129489D01*
X107680Y127271D02*
X107934Y127525D01*
X107680Y129743D02*
X107934Y129489D01*
X108144Y128310D02*
X108556Y128723D01*
X107680Y129743D02*
Y134370D01*
Y124080D02*
Y127271D01*
X102715Y122360D02*
Y124472D01*
X105173Y121278D02*
Y122240D01*
Y121278D02*
X105202Y121249D01*
Y119919D02*
Y121249D01*
X105020Y119736D02*
X105202Y119919D01*
X106390Y124200D02*
X107455Y125265D01*
Y126206D01*
X106390Y109386D02*
Y124200D01*
X77700Y77292D02*
Y123320D01*
X102740Y124498D02*
Y126611D01*
X102337Y127014D02*
X102740Y126611D01*
X102715Y124472D02*
X102740Y124498D01*
X105020Y116230D02*
Y119736D01*
Y116230D02*
X106200Y115050D01*
X77700Y77292D02*
X77849Y77144D01*
X95490Y123610D02*
Y136000D01*
X82168Y40198D02*
X82227Y40257D01*
X82168Y40198D02*
X82168Y40198D01*
X82154Y40496D02*
X82154Y40497D01*
X82158Y40473D02*
X82158Y40473D01*
X82143Y39257D02*
X82151Y40156D01*
X18490Y6110D02*
X19620D01*
X18601Y17571D02*
X20616D01*
X18596D02*
X18601D01*
X18569Y51617D02*
X19710D01*
X18569Y62948D02*
X18575D01*
X18539Y85694D02*
X19450D01*
X121620Y100564D02*
Y100609D01*
X108817Y35940D02*
Y37440D01*
X108810Y37447D02*
X108817Y37440D01*
Y35940D02*
X108824Y35933D01*
X109060Y32896D02*
X109718Y32239D01*
Y31849D02*
Y32239D01*
X112055Y60927D02*
X112540Y61412D01*
Y65709D01*
X111535Y61197D02*
Y61635D01*
X112603Y53676D02*
Y60128D01*
X111535Y61197D02*
X112603Y60128D01*
X108123Y62650D02*
Y71993D01*
X107915Y62443D02*
X108123Y62650D01*
X107444Y72671D02*
X108123Y71993D01*
X107915Y55769D02*
Y62443D01*
Y55769D02*
X108375Y55309D01*
Y49596D02*
Y55309D01*
Y49596D02*
X108495Y49476D01*
X107464Y53385D02*
Y57719D01*
X106802Y58380D02*
X107464Y57719D01*
X106802Y58380D02*
Y63532D01*
X107464Y53385D02*
X107940Y52908D01*
X109197Y55724D02*
X109481Y56008D01*
X109197Y54546D02*
Y55724D01*
X109481Y56008D02*
Y57033D01*
X110000Y57552D01*
Y66020D01*
X111010Y56609D02*
Y58520D01*
Y56609D02*
X111171Y56448D01*
X109717Y54830D02*
X109915Y55028D01*
X110430Y56422D02*
Y56856D01*
X109915Y55028D02*
Y55907D01*
X110430Y56422D01*
X109607Y54441D02*
Y54760D01*
X109492Y55864D02*
X109607Y55979D01*
X109492Y54875D02*
Y55864D01*
X109607Y55979D02*
Y56555D01*
X109492Y54875D02*
X109607Y54760D01*
X109766Y56713D02*
X110216D01*
X109607Y56555D02*
X109766Y56713D01*
X110170Y57116D02*
X110430Y56856D01*
X110170Y61654D02*
X110325Y61809D01*
X110170Y57116D02*
Y61654D01*
X110325Y61809D02*
Y62596D01*
X110391Y62662D01*
X110660Y55774D02*
X111221Y55213D01*
X110680Y64897D02*
X111130Y65347D01*
X110660Y57935D02*
X110680Y57955D01*
X110660Y55774D02*
Y57935D01*
X110680Y57955D02*
Y64897D01*
X111171Y56213D02*
Y56448D01*
X109925Y53019D02*
Y54279D01*
X109717Y54487D02*
Y54830D01*
Y54487D02*
X109925Y54279D01*
X109887Y54472D02*
X110478Y53881D01*
X109895Y52989D02*
X109925Y53019D01*
X109607Y54441D02*
X109815Y54234D01*
X109887Y54472D02*
Y54760D01*
X109815Y53354D02*
Y54234D01*
X109711Y53250D02*
X109815Y53354D01*
X110478Y52378D02*
Y53881D01*
X109711Y52338D02*
Y53250D01*
X109895Y52382D02*
Y52989D01*
X108927Y46649D02*
Y47706D01*
X107940Y48693D02*
X108927Y47706D01*
X107940Y48693D02*
Y52908D01*
X110250Y46591D02*
X111116Y45725D01*
X110000Y49791D02*
X110250Y49540D01*
Y46591D02*
Y49540D01*
X109481Y45504D02*
X109494Y45491D01*
X109481Y45504D02*
Y47867D01*
X108551Y46273D02*
X108927Y46649D01*
X108551Y45165D02*
Y46273D01*
X111116Y44540D02*
Y45725D01*
X109600Y44441D02*
Y44930D01*
X109494Y45036D02*
Y45491D01*
Y45036D02*
X109600Y44930D01*
X110653Y49796D02*
X111286Y49163D01*
Y41500D02*
Y49163D01*
Y41500D02*
X111413Y41372D01*
X108551Y45165D02*
X109020Y44695D01*
Y43666D02*
Y44695D01*
X107330Y45445D02*
Y46300D01*
Y43270D02*
Y44754D01*
X107598Y45022D01*
Y45177D01*
X107330Y45445D02*
X107598Y45177D01*
X106246Y41002D02*
Y42750D01*
X106190Y42806D02*
Y43130D01*
Y42806D02*
X106246Y42750D01*
X107537Y40396D02*
Y42657D01*
X107330Y42865D02*
X107537Y42657D01*
X111413Y40172D02*
X111565Y40020D01*
X111413Y40172D02*
Y41372D01*
X108760Y41478D02*
Y42107D01*
Y41478D02*
X108985Y41252D01*
X108760Y42107D02*
X109161Y42508D01*
X107450Y22846D02*
Y40309D01*
X107537Y40396D01*
X108810Y38269D02*
Y40010D01*
Y38269D02*
X109060Y38019D01*
X108985Y40185D02*
Y41252D01*
X108810Y40010D02*
X108985Y40185D01*
X107445Y22841D02*
X107450Y22846D01*
X109060Y32896D02*
Y38019D01*
X111565Y34360D02*
Y40020D01*
X111258Y34053D02*
X111565Y34360D01*
X104210Y37530D02*
Y37777D01*
X104868Y38436D01*
X103404Y104246D02*
Y104466D01*
X103295Y100633D02*
Y104138D01*
X103404Y104246D01*
X103295Y104575D02*
X103404Y104466D01*
X116525Y71240D02*
X116814Y70951D01*
Y50809D02*
Y70951D01*
X116525Y50520D02*
X116814Y50809D01*
X111559Y79830D02*
X111927Y80198D01*
X111554Y74938D02*
X111559Y74943D01*
Y79830D01*
X107324Y79015D02*
X107415Y79106D01*
X107324Y76027D02*
X107536Y75816D01*
X107324Y76027D02*
Y79015D01*
X107415Y79106D02*
Y81226D01*
X106246Y73170D02*
X106520Y73444D01*
X106452Y78858D02*
Y82982D01*
X106800Y83330D01*
X106452Y78858D02*
X106520Y78790D01*
Y73444D02*
Y78790D01*
X107440Y81251D02*
Y82630D01*
X107415Y81226D02*
X107440Y81251D01*
X106587Y83787D02*
Y86616D01*
Y83787D02*
X106800Y83574D01*
X106570Y86633D02*
X106587Y86616D01*
X111384Y84015D02*
X111927Y83473D01*
X111384Y86310D02*
X111404Y86330D01*
X111384Y84015D02*
Y86310D01*
X74990Y76657D02*
Y87584D01*
X75880Y88474D01*
Y114420D01*
X75840Y114460D02*
X75880Y114420D01*
X75840Y114460D02*
Y120050D01*
X75255Y120635D02*
X75840Y120050D01*
X83200Y73161D02*
Y83967D01*
X83147Y63078D02*
Y65372D01*
X83200Y73161D02*
X83454Y72907D01*
Y65679D02*
Y72907D01*
X83147Y65372D02*
X83454Y65679D01*
X82850Y62707D02*
Y63925D01*
X82412Y82482D02*
X82850Y82920D01*
X82412Y64363D02*
Y82482D01*
Y64363D02*
X82850Y63925D01*
X82043Y63517D02*
Y74599D01*
X81947Y63421D02*
X82043Y63517D01*
X82042Y74600D02*
X82043Y74599D01*
X82042Y74600D02*
Y85683D01*
X81947Y40966D02*
Y63421D01*
X82355Y89395D02*
Y101218D01*
X82200Y89240D02*
X82355Y89395D01*
X82200Y85841D02*
Y89240D01*
X82042Y85683D02*
X82200Y85841D01*
X88060Y63470D02*
X88130Y63540D01*
Y84150D01*
X87830Y62400D02*
X88060Y62630D01*
Y63470D01*
X96359Y57785D02*
Y62655D01*
X97036Y63332D01*
Y66460D01*
X90738Y62724D02*
X91340Y63326D01*
X90558Y39482D02*
Y57943D01*
X90738Y58123D02*
Y62724D01*
X90558Y57943D02*
X90738Y58123D01*
X91239Y62822D02*
X91510Y63093D01*
X90940Y54910D02*
Y57420D01*
X91239Y57719D02*
Y62822D01*
X90940Y57420D02*
X91239Y57719D01*
X91828Y62988D02*
X91860Y63020D01*
X91430Y55190D02*
Y56670D01*
X91828Y57068D02*
Y62988D01*
X91430Y56670D02*
X91828Y57068D01*
X90940Y54910D02*
X91340Y54510D01*
Y43320D02*
Y54510D01*
Y43320D02*
X91980Y42680D01*
X90320Y55190D02*
Y63891D01*
X89920Y54790D02*
X90320Y55190D01*
X89920Y27100D02*
Y54790D01*
X82952Y61362D02*
Y62605D01*
X82445Y60855D02*
X82952Y61362D01*
X82445Y39725D02*
Y60855D01*
X86229Y124875D02*
X87447Y126093D01*
Y126657D01*
X113869Y69211D02*
Y76952D01*
Y69211D02*
X114046Y69034D01*
X116350Y49729D02*
Y52683D01*
Y36750D02*
Y38617D01*
X116695Y38962D01*
Y49384D01*
X116350Y49729D02*
X116695Y49384D01*
Y33572D02*
Y37970D01*
X116930Y55769D02*
Y56261D01*
X116695Y37970D02*
X117330Y38605D01*
Y55369D01*
X116930Y55769D02*
X117330Y55369D01*
X117680Y51834D02*
Y56087D01*
Y51834D02*
X118440Y51074D01*
X117505Y56262D02*
X117680Y56087D01*
X118160Y53023D02*
Y63532D01*
X118400Y63772D01*
Y72020D01*
X122860Y58540D02*
Y99589D01*
X121776Y100674D02*
X122860Y99589D01*
X122840Y58520D02*
X122860Y58540D01*
X123603Y81437D02*
Y100120D01*
X123700Y55430D02*
Y81340D01*
X122493Y104955D02*
X124270Y103178D01*
Y58530D02*
X124280Y58520D01*
X123603Y81437D02*
X123700Y81340D01*
X124690Y59000D02*
X124720Y59030D01*
Y104070D01*
X124270Y58530D02*
Y103178D01*
X123110Y105680D02*
X124720Y104070D01*
X122189Y101534D02*
X123603Y100120D01*
X121150Y81157D02*
Y103390D01*
X120380Y80387D02*
X121150Y81157D01*
X121560Y100564D02*
X121620D01*
X121684Y100674D02*
X121776D01*
X121620Y100609D02*
X121684Y100674D01*
X121976Y101534D02*
X122189D01*
X121830Y101680D02*
X121976Y101534D01*
X122493Y104955D02*
Y118967D01*
X107400Y123800D02*
X107680Y124080D01*
X74642Y37403D02*
X74713Y37474D01*
X74571Y33118D02*
Y36571D01*
X74642Y36642D02*
Y37403D01*
X74571Y36571D02*
X74642Y36642D01*
X74322Y61078D02*
Y63660D01*
X74111Y60868D02*
X74322Y61078D01*
X74111Y54971D02*
Y60868D01*
X83147Y43443D02*
Y62084D01*
X83069Y62163D02*
Y62999D01*
Y62163D02*
X83147Y62084D01*
X83069Y62999D02*
X83147Y63078D01*
X76909Y73942D02*
X77324Y73527D01*
X76909Y73942D02*
Y82280D01*
X76517Y82672D02*
X76909Y82280D01*
X72230Y42702D02*
Y50904D01*
X98442Y146317D02*
Y150168D01*
X98920Y150646D01*
Y151435D01*
X98697Y151659D02*
X98920Y151435D01*
X98697Y151659D02*
Y153308D01*
X98680Y153324D02*
X98697Y153308D01*
X103256Y116125D02*
Y126120D01*
X103170Y126206D02*
Y135890D01*
Y126206D02*
X103256Y126120D01*
X83200Y86443D02*
Y126680D01*
X83531Y85259D02*
X83562Y85228D01*
Y84329D02*
Y85228D01*
X83200Y83967D02*
X83562Y84329D01*
X83531Y85259D02*
Y86112D01*
X83200Y86443D02*
X83531Y86112D01*
X84590Y85877D02*
Y87231D01*
Y73585D02*
Y82089D01*
X84332Y82347D02*
Y84275D01*
X84434Y84376D01*
Y85721D01*
X84332Y82347D02*
X84590Y82089D01*
X84434Y85721D02*
X84590Y85877D01*
X84967Y60447D02*
Y81717D01*
X85012Y87600D02*
Y121058D01*
X84967Y81717D02*
X85358Y82108D01*
Y83939D02*
X85440Y84021D01*
X85358Y82108D02*
Y83939D01*
X85012Y87600D02*
X85440Y87172D01*
Y84021D02*
Y87172D01*
X82847Y38005D02*
Y39324D01*
X82445Y39725D02*
X82847Y39324D01*
X83490Y38692D02*
Y43100D01*
X83147Y43443D02*
X83490Y43100D01*
X83050Y38252D02*
X83490Y38692D01*
X82154Y40497D02*
X82156Y40757D01*
X81947Y40966D02*
X82156Y40757D01*
X83800Y18759D02*
Y32815D01*
Y9100D02*
Y16677D01*
X84212Y17090D01*
Y18347D01*
X83800Y18759D02*
X84212Y18347D01*
X74713Y43625D02*
X75820Y44732D01*
X74713Y37474D02*
Y43625D01*
X72248Y29446D02*
Y38320D01*
X71232Y39336D02*
Y47605D01*
Y39336D02*
X72248Y38320D01*
X71322Y32663D02*
Y36278D01*
X70500Y37100D02*
X71322Y36278D01*
X70500Y37100D02*
Y50022D01*
X74571Y18418D02*
Y24027D01*
X75314Y24770D01*
Y26978D01*
X75425Y27089D01*
Y27740D01*
X76230Y28545D01*
Y29300D01*
X75545Y29985D02*
X76230Y29300D01*
X75545Y29985D02*
Y32278D01*
X75159Y32663D02*
X75545Y32278D01*
X75026Y32663D02*
X75159D01*
X74571Y33118D02*
X75026Y32663D01*
X73668Y31910D02*
Y32630D01*
X73131Y31201D02*
X73353Y30980D01*
Y29491D02*
Y30980D01*
X73270Y29408D02*
X73353Y29491D01*
X73270Y28483D02*
Y29408D01*
Y28483D02*
X73801Y27952D01*
Y27681D02*
Y27952D01*
X73131Y31373D02*
X73668Y31910D01*
X73131Y31201D02*
Y31373D01*
X71322Y20223D02*
Y24030D01*
X70972Y24380D02*
X71322Y24030D01*
X70972Y24380D02*
Y32313D01*
X71322Y32663D01*
X119670Y31427D02*
Y48920D01*
X119790Y49040D01*
Y51393D01*
X118160Y53023D02*
X119790Y51393D01*
X81961Y32770D02*
X82126Y38344D01*
X82143Y39159D02*
Y39257D01*
X82307Y38525D02*
Y38995D01*
X82126Y38344D02*
X82307Y38525D01*
X82143Y39159D02*
X82307Y38995D01*
X76639Y51344D02*
Y54512D01*
Y44459D02*
Y49900D01*
X76880Y50141D02*
Y51102D01*
X76639Y49900D02*
X76880Y50141D01*
X76639Y51344D02*
X76880Y51102D01*
X80419Y88859D02*
X80510Y88950D01*
X80419Y77256D02*
X80891Y76783D01*
X80419Y77256D02*
Y88859D01*
X80891Y72645D02*
Y76783D01*
X102963Y88330D02*
Y95564D01*
X103295Y95895D01*
X102946Y88313D02*
X102963Y88330D01*
X73220Y70880D02*
Y74886D01*
X73737Y75403D01*
Y76193D01*
X76517Y82672D02*
Y86827D01*
X76717Y87027D01*
X76489Y121661D02*
X76717Y121434D01*
Y87027D02*
Y121434D01*
X76489Y121661D02*
Y123202D01*
X77849Y52437D02*
X77950Y52336D01*
Y34015D02*
Y52336D01*
X77852Y33917D02*
X77950Y34015D01*
X77849Y52437D02*
Y77144D01*
X77852Y28631D02*
Y33917D01*
X76784Y33400D02*
Y36525D01*
X76420Y33036D02*
X76784Y33400D01*
X76420Y29911D02*
Y33036D01*
X76426Y28289D02*
Y29905D01*
X76420Y29911D02*
X76426Y29905D01*
X76286Y28148D02*
X76426Y28289D01*
X76642Y36667D02*
X76784Y36525D01*
X76642Y36667D02*
Y38368D01*
X77242Y38968D01*
X77111Y42163D02*
X77242Y42032D01*
X77111Y42163D02*
Y51486D01*
X77242Y38968D02*
Y42032D01*
X77180Y51555D02*
Y54792D01*
X77111Y51486D02*
X77180Y51555D01*
X75995Y63775D02*
X76044Y63726D01*
Y62145D02*
Y63726D01*
X76020Y62121D02*
X76044Y62145D01*
X76020Y55952D02*
Y62121D01*
Y55952D02*
X77180Y54792D01*
X75995Y63775D02*
Y66830D01*
X76360Y51486D02*
Y53795D01*
X75036Y56115D02*
Y70100D01*
X76049Y54012D02*
X76143D01*
X75036Y56115D02*
X76639Y54512D01*
X76143Y54012D02*
X76360Y53795D01*
X74666Y55395D02*
X76049Y54012D01*
X76046Y50122D02*
Y51171D01*
X76360Y51486D01*
X74666Y55395D02*
Y61049D01*
X90265Y72973D02*
X90277Y72985D01*
X90113Y72973D02*
X90265D01*
X90090Y72950D02*
X90113Y72973D01*
X89920Y102900D02*
X89940Y102920D01*
X90277Y72985D02*
Y77089D01*
X89920Y56145D02*
X90145Y55920D01*
X89920Y56145D02*
Y102900D01*
X90277Y77089D02*
X90430Y77241D01*
Y81380D01*
X90335Y81475D02*
Y94587D01*
Y81475D02*
X90430Y81380D01*
X90335Y94587D02*
X90350Y94602D01*
Y111690D01*
X90410Y111750D01*
X90130Y115652D02*
X90410Y115372D01*
Y111750D02*
Y115372D01*
X90130Y115652D02*
Y119310D01*
X89940Y113610D02*
X90240Y113910D01*
X90248Y119428D02*
Y131503D01*
X90130Y119310D02*
X90248Y119428D01*
X90212Y131539D02*
X90248Y131503D01*
X90212Y136460D02*
X90236Y136484D01*
Y139136D01*
X90212Y131539D02*
Y136460D01*
X90170Y139202D02*
X90236Y139136D01*
X90170Y139202D02*
Y144832D01*
X89884Y145118D02*
X90170Y144832D01*
X89855Y142652D02*
Y144719D01*
X89720Y144853D02*
X89855Y144719D01*
X89501Y142298D02*
X89855Y142652D01*
X107230Y121491D02*
X107487Y121234D01*
X107230Y121491D02*
Y124340D01*
X107390Y124500D01*
X107503Y134547D02*
Y145770D01*
Y134547D02*
X107680Y134370D01*
X107487Y120234D02*
Y121234D01*
Y120234D02*
X107633Y120087D01*
X108392Y104346D02*
Y114667D01*
X108144Y119332D02*
Y128310D01*
X108392Y104346D02*
X108556Y104181D01*
X108099Y118369D02*
Y119287D01*
X108322Y114736D02*
X108392Y114667D01*
X108322Y114736D02*
Y118145D01*
X108099Y118369D02*
X108322Y118145D01*
X108099Y119287D02*
X108144Y119332D01*
X108556Y93897D02*
Y104181D01*
X108630Y119488D02*
Y122981D01*
Y119488D02*
X109212Y118906D01*
X108630Y122981D02*
X108740Y123091D01*
X108556Y128723D02*
Y132154D01*
X101950Y137420D02*
Y145020D01*
X102422Y136898D02*
Y136948D01*
X101950Y137420D02*
X102422Y136948D01*
X102337Y136813D02*
X102422Y136898D01*
X102337Y127014D02*
Y136813D01*
X102072Y114941D02*
X103256Y116125D01*
X114247Y121276D02*
Y126997D01*
X114243Y121272D02*
X114247Y121276D01*
X114243Y117527D02*
Y121272D01*
X114247Y116426D02*
X114264Y116409D01*
X114247Y116426D02*
Y117523D01*
X114243Y117527D02*
X114247Y117523D01*
Y126997D02*
X114296Y127045D01*
X113687Y77380D02*
Y83212D01*
Y77380D02*
X114033Y77035D01*
X113645Y83254D02*
X113687Y83212D01*
X113645Y83254D02*
Y86622D01*
X113594Y86672D02*
X113645Y86622D01*
X96814Y146680D02*
X96830Y146663D01*
Y126120D02*
Y146663D01*
Y126120D02*
X97780Y125170D01*
Y119460D02*
Y125170D01*
Y114412D02*
X97950Y114582D01*
Y125270D02*
X98270Y125590D01*
X97950Y114582D02*
Y125270D01*
X74990Y76657D02*
X75386Y76261D01*
X87080Y138253D02*
Y142452D01*
X87281Y142654D02*
Y144704D01*
X87080Y142452D02*
X87281Y142654D01*
X87179Y144806D02*
Y145656D01*
Y144806D02*
X87281Y144704D01*
X86192Y148622D02*
X87570Y150000D01*
X85625Y134007D02*
X85795Y134177D01*
Y144627D01*
X86753Y145585D01*
X87009D01*
X86406Y145870D02*
X86965D01*
X86192Y146083D02*
X86406Y145870D01*
X86192Y146083D02*
Y148622D01*
X86965Y145870D02*
X87179Y145656D01*
X86476Y135151D02*
Y137649D01*
X87080Y138253D01*
X85625Y125625D02*
Y134007D01*
X85006Y125006D02*
X85625Y125625D01*
X85006Y123795D02*
Y125006D01*
Y123795D02*
X85890Y122911D01*
Y115220D02*
Y122911D01*
X85176Y124420D02*
X86570Y125814D01*
Y132003D01*
X87557Y117743D02*
Y125580D01*
X88665Y139198D02*
X88764Y139297D01*
X88704Y126571D02*
Y136969D01*
X88172Y118673D02*
Y126040D01*
X88704Y126571D01*
X88665Y137007D02*
X88704Y136969D01*
X88665Y137007D02*
Y139198D01*
X88200Y126223D02*
Y135857D01*
X88764Y139297D02*
Y143350D01*
X88654Y144344D02*
X89163Y144853D01*
X87557Y125580D02*
X88200Y126223D01*
X87557Y117743D02*
X87570Y117730D01*
X88200Y135857D02*
X88463Y136120D01*
X85726Y115056D02*
X85890Y115220D01*
X85726Y88658D02*
Y115056D01*
X107444Y73435D02*
X107536Y73527D01*
Y75816D01*
X107444Y72671D02*
Y73435D01*
X121810Y53540D02*
X123700Y55430D01*
X107049Y111275D02*
X107097Y111323D01*
Y111329D01*
X107049Y94015D02*
Y111275D01*
X107570Y87729D02*
Y100820D01*
X107738Y100988D01*
X108270Y93611D02*
X108556Y93897D01*
X106418Y87799D02*
X106570Y87647D01*
X106418Y87799D02*
Y96381D01*
X99530Y59930D02*
Y64264D01*
X99380Y83263D02*
X99391Y83252D01*
X99540Y105675D02*
X99740Y105876D01*
X99475Y64319D02*
X99530Y64264D01*
X99380Y64427D02*
Y73096D01*
Y83263D02*
Y101268D01*
X99475Y64319D02*
Y64333D01*
X99380Y101268D02*
X99540Y101427D01*
Y105675D01*
X99380Y64427D02*
X99475Y64333D01*
X99380Y73096D02*
X99391Y73107D01*
Y83252D01*
X106180Y57851D02*
X106515Y57516D01*
X106180Y57851D02*
Y63316D01*
X105410Y64086D02*
X106180Y63316D01*
X122020Y119440D02*
X122493Y118967D01*
X84023Y117583D02*
Y117607D01*
Y117583D02*
X84035Y117570D01*
Y86548D02*
Y117570D01*
X83707Y74653D02*
Y86220D01*
X84035Y86548D01*
X83707Y74653D02*
X83840Y74520D01*
X83780Y56730D02*
Y62279D01*
X83840Y62339D01*
Y74520D01*
X84760Y121310D02*
X85012Y121058D01*
X84760Y121310D02*
Y121510D01*
X105920Y101300D02*
X105950Y101270D01*
X106538Y98323D02*
X106649Y98434D01*
Y109126D01*
X106390Y109386D02*
X106649Y109126D01*
X105920Y101300D02*
Y112121D01*
X106200Y112401D01*
Y115050D01*
X88654Y143460D02*
X88764Y143350D01*
X88654Y143460D02*
Y144344D01*
X89163Y144853D02*
X89720D01*
X89501Y130396D02*
Y142298D01*
Y130396D02*
X89820Y130077D01*
Y121600D02*
Y130077D01*
X72540Y63968D02*
Y71832D01*
X71917Y72455D02*
X72540Y71832D01*
X72200Y63628D02*
X72540Y63968D01*
X115043Y77253D02*
X115046D01*
X114994Y77204D02*
X115043Y77253D01*
X114994Y70347D02*
Y77204D01*
Y70347D02*
X115033Y70309D01*
Y65037D02*
Y70309D01*
X114935Y64478D02*
X115055Y64358D01*
X114935Y64478D02*
Y64939D01*
X115055Y64101D02*
Y64358D01*
X114935Y64939D02*
X115033Y65037D01*
X116710Y71580D02*
X117130Y71160D01*
Y56461D02*
Y71160D01*
X116930Y56261D02*
X117130Y56461D01*
X113820Y77002D02*
Y77007D01*
X114033Y73621D02*
Y77035D01*
X113820Y77002D02*
X113869Y76952D01*
X114033Y73621D02*
X114252Y73401D01*
Y67555D02*
Y73401D01*
X114046Y66317D02*
Y69034D01*
X114252Y67555D02*
X114403Y67405D01*
Y60315D02*
Y67405D01*
X113869Y65317D02*
Y67661D01*
X113480Y68050D02*
X113869Y67661D01*
X114046Y66317D02*
X114142Y66220D01*
Y64630D02*
Y66220D01*
X113869Y64357D02*
X114142Y64630D01*
X68071Y72610D02*
Y74293D01*
X69850Y48406D02*
Y53815D01*
X69830Y53835D02*
X69850Y53815D01*
X69700Y79026D02*
X70070Y78656D01*
Y70469D02*
Y78656D01*
X70050Y70449D02*
X70070Y70469D01*
X69600Y69473D02*
Y73080D01*
X69918Y73398D02*
Y73668D01*
X69600Y73080D02*
X69918Y73398D01*
Y73668D02*
X69960Y73710D01*
X69600Y69473D02*
X69830Y69243D01*
Y53835D02*
Y69243D01*
X69960Y73710D02*
Y76617D01*
X70050Y62206D02*
Y70449D01*
X68490Y68306D02*
Y73930D01*
X68071Y74293D02*
X68420Y74642D01*
Y89918D01*
X68120Y90218D02*
X68420Y89918D01*
X69274Y83763D02*
Y90766D01*
X69238Y90801D02*
X69274Y90766D01*
X69234Y90801D02*
X69238D01*
X69500Y78831D02*
Y83536D01*
X69274Y83763D02*
X69500Y83536D01*
Y78831D02*
X69790Y78541D01*
Y76787D02*
Y78541D01*
Y76787D02*
X69960Y76617D01*
X69760Y73750D02*
X69790Y73780D01*
Y74820D01*
X69500Y74470D02*
Y77800D01*
X69600Y77900D01*
X70915Y51281D02*
X71049D01*
X70894Y51260D02*
X70915Y51281D01*
X70714Y50237D02*
Y68800D01*
X70300Y69214D02*
X70714Y68800D01*
X70500Y50022D02*
X70714Y50237D01*
X71049Y51281D02*
X71100Y51332D01*
Y53000D01*
X63637Y50687D02*
X68515D01*
X69602Y51773D01*
X69500Y43691D02*
Y48056D01*
X69850Y48406D01*
X69500Y43691D02*
X69710Y43481D01*
Y39749D02*
Y43481D01*
X69350Y39389D02*
X69710Y39749D01*
X69350Y34021D02*
Y39389D01*
X73835Y33833D02*
Y33855D01*
X73796Y32758D02*
Y33794D01*
X73835Y33833D01*
X73668Y32630D02*
X73796Y32758D01*
X74062Y25048D02*
Y28065D01*
Y25048D02*
X74170Y24940D01*
X42806Y113350D02*
X42910Y113246D01*
Y112770D02*
Y113246D01*
X42806Y122900D02*
X43080Y122626D01*
X41547Y100590D02*
X43080Y102123D01*
Y122626D01*
X114919Y28959D02*
X115135Y29175D01*
X114695Y26632D02*
X114919Y26857D01*
Y28959D01*
X114695Y21615D02*
Y26632D01*
Y21615D02*
X114958Y21352D01*
X74170Y24555D02*
Y24940D01*
X73945Y24330D02*
X74170Y24555D01*
X117470Y24678D02*
Y34866D01*
X116815Y35521D02*
X117470Y34866D01*
X116922Y24130D02*
X117470Y24678D01*
X113480Y68050D02*
Y68360D01*
X113635Y58331D02*
Y59547D01*
X109720Y68471D02*
X110265Y69016D01*
X109720Y67255D02*
Y68471D01*
X113635Y59547D02*
X114403Y60315D01*
X86740Y82930D02*
Y84950D01*
X119550Y85434D02*
Y124620D01*
Y85434D02*
X119934Y85049D01*
X118990Y125180D02*
X119550Y124620D01*
X119810Y76319D02*
Y80275D01*
X120670Y81135D01*
X119810Y76319D02*
X120511Y75617D01*
Y54084D02*
Y75617D01*
X86080Y67960D02*
Y76116D01*
X86112Y76148D01*
X86260Y65788D02*
Y67780D01*
X86080Y67960D02*
X86260Y67780D01*
X91430Y55190D02*
X92300Y54320D01*
X117525Y56282D02*
Y76705D01*
X117505Y56262D02*
X117525Y56282D01*
Y76705D02*
X117720Y76900D01*
X102065Y76362D02*
X102393Y76691D01*
X102188Y66862D02*
X102198Y66852D01*
X102065Y71282D02*
X102188Y71158D01*
Y66862D02*
Y71158D01*
X102065Y71282D02*
Y76362D01*
X101384Y73691D02*
Y75838D01*
X101250Y75972D02*
Y75980D01*
X101384Y73691D02*
X101513Y73562D01*
X101250Y75972D02*
X101384Y75838D01*
X91510Y63093D02*
Y69550D01*
X91340Y71240D02*
X91860Y70720D01*
Y63020D02*
Y70720D01*
X91340Y71240D02*
Y76620D01*
Y63326D02*
Y70466D01*
X91080Y70726D02*
X91340Y70466D01*
X91080Y70726D02*
Y76510D01*
X90320Y63891D02*
X90820Y64391D01*
X90540Y76820D02*
X90820Y76540D01*
Y64391D02*
Y76540D01*
X90530Y75550D02*
Y75570D01*
X90510Y75530D02*
X90530Y75550D01*
X90510Y64520D02*
Y75530D01*
X91300Y40660D02*
X92300Y41660D01*
Y54320D01*
X93877Y32273D02*
Y74853D01*
Y32273D02*
X93884Y32266D01*
X93750Y74980D02*
Y74980D01*
Y74980D02*
X93877Y74853D01*
X93070Y74050D02*
Y86600D01*
X92890Y73870D02*
X93070Y74050D01*
X93040Y86630D02*
X93070Y86600D01*
X119550Y53981D02*
X121420Y52111D01*
X119550Y53981D02*
Y72300D01*
X121420Y20285D02*
Y52111D01*
X118990Y20379D02*
X119040Y20429D01*
Y20439D01*
X118990Y10270D02*
Y20379D01*
X118425Y22270D02*
X119465Y23310D01*
Y31222D01*
X118400Y72020D02*
X118400Y72020D01*
X118425Y6445D02*
Y22270D01*
X87772Y144355D02*
X88071Y144056D01*
X88254D01*
X88296Y139123D02*
Y144014D01*
X88254Y144056D02*
X88296Y144014D01*
Y139123D02*
X88463Y138956D01*
Y136120D02*
Y138956D01*
X87520Y126730D02*
Y130274D01*
X87430Y130364D02*
X87520Y130274D01*
X87430Y130364D02*
Y133940D01*
X87447Y126657D02*
X87520Y126730D01*
X104935Y44167D02*
X105907Y43195D01*
Y41331D02*
Y43195D01*
X73900Y66954D02*
Y69008D01*
Y66954D02*
X74045Y66808D01*
X74111Y54971D02*
X75302Y53781D01*
Y45300D02*
Y53781D01*
X73984Y42878D02*
Y43983D01*
X73352Y32493D02*
Y38168D01*
X72779Y41673D02*
X73984Y42878D01*
X72779Y38741D02*
Y41673D01*
Y38741D02*
X73352Y38168D01*
X85681Y29425D02*
Y37842D01*
X85378Y29122D02*
X85681Y29425D01*
X85798Y40157D02*
Y58129D01*
X85991Y38153D02*
Y39964D01*
X85798Y40157D02*
X85991Y39964D01*
X85681Y37842D02*
X85991Y38153D01*
X74444Y61271D02*
Y63198D01*
Y61271D02*
X74666Y61049D01*
X76267Y46966D02*
Y49900D01*
X76046Y50122D02*
X76267Y49900D01*
X74456Y8474D02*
Y14483D01*
X74684Y14711D01*
Y15480D01*
X74828Y15624D01*
X75609Y73371D02*
Y74449D01*
X75399Y73161D02*
X75609Y73371D01*
X75399Y72388D02*
Y73161D01*
X74666Y71654D02*
X75399Y72388D01*
X74666Y75393D02*
X75609Y74449D01*
X75759Y72440D02*
X75929Y72611D01*
X75711Y74998D02*
X75929Y74780D01*
Y72611D02*
Y74780D01*
X74666Y63420D02*
Y71654D01*
X99600Y107315D02*
Y138110D01*
X99980Y138490D01*
X99600Y107315D02*
X99740Y107174D01*
X64600Y94500D02*
Y122910D01*
X65230Y117910D02*
Y118726D01*
X65232Y118728D01*
X65479Y98072D02*
X65543Y98136D01*
Y117597D01*
X65230Y117910D02*
X65543Y117597D01*
X65479Y93980D02*
Y98072D01*
X66953Y119193D02*
X66979D01*
X66810Y102311D02*
Y115019D01*
X66706Y102207D02*
X66810Y102311D01*
X66706Y92630D02*
Y102207D01*
X115970Y64931D02*
X116007Y64893D01*
X116052Y20645D02*
Y22863D01*
X116040Y48323D02*
X116045Y48328D01*
X115970Y22945D02*
Y30880D01*
Y22945D02*
X116052Y22863D01*
X116040Y30950D02*
Y48323D01*
X115970Y30880D02*
X116040Y30950D01*
X116007Y58247D02*
X116045Y58210D01*
Y48328D02*
Y58210D01*
X116007Y58247D02*
Y64893D01*
X117300Y82035D02*
X117720Y81615D01*
Y76900D02*
Y81615D01*
X118040Y52387D02*
Y82485D01*
Y52387D02*
X119100Y51327D01*
X118040Y82485D02*
X118435Y82880D01*
X116087Y75503D02*
X116135Y75455D01*
Y73334D02*
Y75455D01*
X115970Y73169D02*
X116135Y73334D01*
X115970Y64931D02*
Y73169D01*
X116525Y72349D02*
X116795Y72619D01*
X116795Y80015D02*
X116795Y80015D01*
Y72619D02*
Y80015D01*
X98680Y153324D02*
Y155310D01*
X97850Y156140D02*
X98680Y155310D01*
X98442Y146317D02*
X98560Y146200D01*
Y139195D02*
Y146200D01*
X82850Y62707D02*
X82952Y62605D01*
X84967Y60447D02*
X85092Y60322D01*
Y57562D02*
Y60322D01*
X84950Y57420D02*
X85092Y57562D01*
X85681Y58247D02*
Y78149D01*
Y58247D02*
X85798Y58129D01*
X85440Y78390D02*
X85681Y78149D01*
X82171Y40453D02*
X82227Y40398D01*
Y40257D02*
Y40398D01*
X83147Y33467D02*
Y37593D01*
X83050Y37691D02*
Y38252D01*
Y37691D02*
X83147Y37593D01*
Y33467D02*
X83800Y32815D01*
X78656Y142620D02*
X78799Y142476D01*
X48279Y136793D02*
X48410Y136662D01*
Y134760D02*
Y136662D01*
X47819Y135000D02*
Y135888D01*
X47901Y135970D01*
X47799Y150610D02*
Y150842D01*
X47557Y151085D02*
X47799Y150842D01*
X47557Y151085D02*
Y151708D01*
X48610Y150610D02*
Y151705D01*
X48746Y151841D01*
X87570Y150000D02*
Y150410D01*
X84250Y132150D02*
Y140100D01*
X86476Y135151D02*
X87104Y134524D01*
X94610Y132101D02*
Y141300D01*
X94548Y132039D02*
X94610Y132101D01*
X73220Y70880D02*
X74000Y70100D01*
X71917Y72455D02*
Y75227D01*
X72600Y75910D01*
X74000Y76456D02*
Y77181D01*
X73737Y76193D02*
X74000Y76456D01*
X74828Y15624D02*
Y18161D01*
X74571Y18418D02*
X74828Y18161D01*
X78252Y78450D02*
Y81550D01*
Y78450D02*
X78422Y78280D01*
X73900Y86549D02*
Y124410D01*
Y77281D02*
Y83379D01*
X74000Y83479D01*
X73900Y86549D02*
X74000Y86449D01*
Y83479D02*
Y86449D01*
X74198Y83856D02*
X74666Y83388D01*
X74198Y83856D02*
Y86241D01*
X74805Y86847D01*
Y111520D01*
X72600Y75910D02*
Y78050D01*
X72370Y78280D02*
Y82992D01*
Y78280D02*
X72600Y78050D01*
X71983Y83379D02*
X72370Y82992D01*
X71983Y83379D02*
Y85554D01*
X71220Y77600D02*
Y81250D01*
X70900Y64926D02*
X71050Y65076D01*
Y77430D01*
X71220Y77600D01*
X71750Y50770D02*
Y58100D01*
X70900Y58950D02*
X71750Y58100D01*
X70900Y58950D02*
Y64926D01*
X74666Y75393D02*
Y83388D01*
X75036Y70100D02*
X75759Y70823D01*
Y72440D01*
X75711Y74998D02*
Y75148D01*
X75386Y75473D02*
X75711Y75148D01*
X75386Y75473D02*
Y76261D01*
X74000Y69108D02*
Y70100D01*
X72370Y85941D02*
Y94760D01*
X71983Y85554D02*
X72370Y85941D01*
X71220Y81250D02*
X71400Y81430D01*
Y88077D01*
X71500Y88177D02*
Y89150D01*
X71400Y88077D02*
X71500Y88177D01*
Y89150D02*
X71858Y89508D01*
X83636Y140714D02*
Y143314D01*
X83000Y143950D02*
X83636Y143314D01*
Y140714D02*
X84250Y140100D01*
X94548Y122495D02*
Y132039D01*
Y122495D02*
X94717Y122326D01*
X74444Y63198D02*
X74666Y63420D01*
X74045Y63936D02*
Y66808D01*
Y63936D02*
X74322Y63660D01*
X72200Y61200D02*
Y63628D01*
X72370Y51044D02*
Y61030D01*
X72200Y61200D02*
X72370Y61030D01*
X69700Y79026D02*
Y87285D01*
X69600Y87385D02*
Y87417D01*
Y87385D02*
X69700Y87285D01*
X69980Y80154D02*
Y82564D01*
X69918Y82626D02*
X69980Y82564D01*
X69918Y82626D02*
Y85003D01*
X71919Y20501D02*
X72353Y20935D01*
Y29341D01*
X73900Y69008D02*
X74000Y69108D01*
X73900Y77281D02*
X74000Y77181D01*
X70714Y77400D02*
Y125180D01*
X70300Y69214D02*
Y76986D01*
X70714Y77400D01*
X72230Y50904D02*
X72370Y51044D01*
Y94760D02*
X73460Y95850D01*
X69250Y75954D02*
Y78250D01*
X69300Y78300D01*
X68886Y75590D02*
X69250Y75954D01*
X68886Y73011D02*
Y75590D01*
X82630Y31910D02*
Y32101D01*
X81961Y32770D02*
X82630Y32101D01*
X72248Y29446D02*
X72353Y29341D01*
X65049Y27951D02*
X65540Y27460D01*
X120330Y90699D02*
Y115050D01*
X101420Y48528D02*
Y60146D01*
X96777Y48528D02*
Y48909D01*
X87370Y52638D02*
Y69791D01*
X86885Y52153D02*
X87370Y52638D01*
X71220Y103009D02*
X71553Y103342D01*
Y111148D01*
X71659Y123484D02*
Y123511D01*
X71534Y123359D02*
X71659Y123484D01*
X71534Y111167D02*
Y123359D01*
Y111167D02*
X71553Y111148D01*
X74630Y111695D02*
X74805Y111520D01*
X74630Y111695D02*
Y126276D01*
X73984Y43983D02*
X75302Y45300D01*
X75820Y44732D02*
Y46519D01*
X76267Y46966D01*
X71750Y50770D02*
X71808Y50712D01*
Y48182D02*
Y50712D01*
X71232Y47605D02*
X71808Y48182D01*
X96783Y48915D02*
Y53272D01*
X96777Y48909D02*
X96783Y48915D01*
X75240Y126670D02*
X75255Y126655D01*
Y120635D02*
Y126655D01*
X74456Y126450D02*
X74630Y126276D01*
X83200Y126680D02*
X83440Y126920D01*
X83025Y69680D02*
X83041Y67442D01*
X90432Y115505D02*
X91097Y114840D01*
X90432Y124210D02*
X91097Y124875D01*
X90432Y115505D02*
Y124210D01*
X78821Y116139D02*
X82470Y112490D01*
X78821Y116139D02*
Y131825D01*
X71220Y94111D02*
Y103009D01*
Y94111D02*
X71858Y93473D01*
Y89508D02*
Y93473D01*
X90800Y40660D02*
X91300D01*
X90558Y39482D02*
X92450Y37590D01*
X89920Y27100D02*
X91040Y25980D01*
X92660Y62280D02*
Y71186D01*
X92300Y61920D02*
X92660Y62280D01*
X84604Y87245D02*
Y87310D01*
X84625Y87331D01*
X84590Y87231D02*
X84604Y87245D01*
X87209Y71311D02*
Y101541D01*
X86774Y101976D02*
X87209Y101541D01*
X86802Y70904D02*
X87209Y71311D01*
X86682Y62890D02*
Y62919D01*
X86608Y62993D02*
Y77678D01*
Y62993D02*
X86682Y62919D01*
X86977Y70252D02*
X87091Y70138D01*
X86977Y70252D02*
Y70281D01*
X87091Y70070D02*
X87370Y69791D01*
X86802Y69826D02*
Y70904D01*
Y69826D02*
X87150Y69478D01*
X87091Y70070D02*
Y70138D01*
X86650Y61316D02*
X87150Y61816D01*
Y69478D01*
X86650Y56270D02*
Y61316D01*
X82355Y101218D02*
X82470Y101333D01*
Y112490D01*
X16890Y98030D02*
Y99930D01*
X31021Y107039D02*
X31030D01*
X30950Y107080D02*
X30980D01*
X31021Y107039D01*
X31030Y101901D02*
Y107039D01*
X97780Y102690D02*
Y114412D01*
X116922Y13312D02*
Y24130D01*
X116815Y35521D02*
Y36249D01*
X117225Y35777D02*
Y37530D01*
Y17385D02*
Y21030D01*
X118230Y22035D02*
Y34772D01*
X117225Y21030D02*
X118230Y22035D01*
X117225Y35777D02*
X118230Y34772D01*
X47281Y127976D02*
X47666Y128361D01*
X47281Y127249D02*
Y127976D01*
Y127249D02*
X47520Y127011D01*
Y126540D02*
Y127011D01*
X51156Y40490D02*
X53962D01*
X47566Y40814D02*
X47728Y40652D01*
X50994D02*
X51156Y40490D01*
X47728Y40652D02*
X50994D01*
X44150Y29110D02*
X47390D01*
X36169Y28049D02*
X36796Y28677D01*
X43717D02*
X44150Y29110D01*
X36796Y28677D02*
X43717D01*
X50639Y6373D02*
X53378D01*
X41087D02*
X42596D01*
X42843Y6619D02*
X50392D01*
X42596Y6373D02*
X42843Y6619D01*
X50392D02*
X50639Y6373D01*
X62789Y6261D02*
X64228D01*
X53462Y6456D02*
X62593D01*
X62789Y6261D01*
X92450Y29980D02*
Y37590D01*
X90540Y76820D02*
Y84800D01*
X91040Y28570D02*
X92450Y29980D01*
X75140Y42960D02*
X76639Y44459D01*
X91760Y72086D02*
Y103840D01*
Y72086D02*
X92660Y71186D01*
X92300Y72338D02*
Y97989D01*
Y72338D02*
X93530Y71108D01*
Y56840D02*
Y71108D01*
X92300Y55610D02*
X93530Y56840D01*
X97131Y129170D02*
Y137766D01*
X98560Y139195D01*
X116890Y146607D02*
Y147990D01*
Y104965D02*
Y119350D01*
Y146607D02*
X117350Y146147D01*
Y119810D02*
Y146147D01*
X116890Y119350D02*
X117350Y119810D01*
X114870Y123440D02*
Y126050D01*
X102533Y58977D02*
Y63317D01*
X102300Y63550D02*
X102533Y63317D01*
X101323Y32629D02*
Y47117D01*
X102355Y48150D02*
Y50730D01*
X101323Y47117D02*
X102355Y48150D01*
X102315Y50771D02*
Y55742D01*
Y50771D02*
X102355Y50730D01*
X102300Y57158D02*
Y57943D01*
Y57158D02*
X102425Y57033D01*
Y55852D02*
Y57033D01*
X102315Y55742D02*
X102425Y55852D01*
X101680Y58563D02*
X102300Y57943D01*
X101680Y58563D02*
Y62630D01*
X102490Y45884D02*
Y46607D01*
X103021Y47138D02*
Y58488D01*
X102490Y46607D02*
X103021Y47138D01*
X102533Y58977D02*
X103021Y58488D01*
X105200Y66866D02*
X105560Y67226D01*
Y73307D01*
X105320Y73547D02*
X105560Y73307D01*
X105517Y52974D02*
Y56405D01*
X105200Y63800D02*
X105367Y63633D01*
Y56555D02*
X105517Y56405D01*
X105367Y56555D02*
Y63633D01*
X106780Y72792D02*
X107541Y72031D01*
X106802Y63532D02*
X107470Y64200D01*
X107541Y66655D02*
Y72031D01*
X107470Y66584D02*
X107541Y66655D01*
X107470Y64200D02*
Y66584D01*
X111535Y66020D02*
Y67113D01*
Y66020D02*
X111830Y65725D01*
Y61930D02*
Y65725D01*
X111535Y61635D02*
X111830Y61930D01*
X111870Y66379D02*
Y68590D01*
Y66379D02*
X112540Y65709D01*
X109494Y54012D02*
X109645Y54163D01*
X109494Y53830D02*
Y54012D01*
Y53830D02*
X109536Y53788D01*
X111360Y60521D02*
Y67041D01*
X111755Y56441D02*
X111930Y56266D01*
Y52856D02*
Y56266D01*
X111497Y52424D02*
X111930Y52856D01*
X111755Y56441D02*
Y57642D01*
X111735Y57661D02*
X111755Y57642D01*
X111360Y60521D02*
X111735Y60146D01*
Y57661D02*
Y60146D01*
X112570Y51476D02*
Y53642D01*
X112603Y53676D01*
X111010Y49916D02*
X112570Y51476D01*
X118970Y53640D02*
X119170Y53840D01*
Y72430D01*
X119290Y72550D01*
Y80290D01*
X119720Y80720D01*
X118440Y38745D02*
Y51074D01*
X119100Y38920D02*
Y51327D01*
X116525Y71240D02*
Y72349D01*
X115865Y58068D02*
Y58387D01*
X115198Y54833D02*
Y57500D01*
X115765Y58068D01*
X115865D01*
X115055Y53415D02*
X115570Y52900D01*
X115055Y53415D02*
Y54839D01*
X114994Y54899D02*
X115055Y54839D01*
X114910Y56084D02*
Y58133D01*
Y56084D02*
X114994Y56000D01*
Y54899D02*
Y56000D01*
X114910Y58133D02*
X115395Y58618D01*
X114768Y52224D02*
X114923D01*
X114180Y52812D02*
X114768Y52224D01*
X114923D02*
X115145Y52001D01*
X114180Y52812D02*
Y58842D01*
X115065Y59727D02*
Y59832D01*
X114180Y58842D02*
X115065Y59727D01*
Y59832D02*
X115085Y59852D01*
X117225Y37530D02*
X118440Y38745D01*
X117710Y37530D02*
X119100Y38920D01*
X119465Y31222D02*
X119670Y31427D01*
X119405Y18270D02*
X121420Y20285D01*
X113638Y61902D02*
Y65499D01*
Y61902D02*
X113640Y61900D01*
X103100Y105282D02*
Y111300D01*
X102072Y112328D02*
X103100Y111300D01*
X102072Y112328D02*
Y114941D01*
X107738Y100988D02*
Y116450D01*
X107487Y116701D02*
X107738Y116450D01*
X107487Y116701D02*
Y117013D01*
X107633Y117159D01*
Y120087D01*
X105306Y151293D02*
X105313Y151300D01*
X105306Y150096D02*
Y151293D01*
X103310Y136030D02*
Y148100D01*
X105306Y150096D01*
X109212Y110577D02*
Y118906D01*
X109175Y110541D02*
X109212Y110577D01*
X109175Y106488D02*
Y110541D01*
X97131Y129170D02*
X98270Y128031D01*
Y125590D02*
Y128031D01*
X115947Y95099D02*
X116140Y95293D01*
Y122170D01*
X105850Y32622D02*
X106412D01*
X106580Y32790D01*
X103240Y35521D02*
Y36893D01*
X103558Y33357D02*
X103877Y33038D01*
X103240Y35521D02*
X103590Y35171D01*
Y34661D02*
Y35171D01*
X103558Y33357D02*
Y34629D01*
X103590Y34661D01*
X103385Y82523D02*
Y86535D01*
Y82523D02*
X103800Y82107D01*
X103385Y86535D02*
X103630Y86780D01*
X106570Y86633D02*
Y87647D01*
X106800Y83330D02*
Y83574D01*
X107201Y83957D02*
Y85813D01*
X107120Y83340D02*
Y83877D01*
X107201Y83957D01*
X106800Y86213D02*
X107201Y85813D01*
X106800Y86213D02*
Y86640D01*
X103630Y86780D02*
Y89652D01*
X103371Y74078D02*
Y77087D01*
X103800Y77516D01*
X103371Y74078D02*
X103560Y73890D01*
X106246Y67507D02*
Y73170D01*
X106011Y77691D02*
Y78381D01*
X105320Y73547D02*
Y76999D01*
X106011Y77691D01*
X104860Y78123D02*
X105797Y79060D01*
X104330Y67209D02*
Y73170D01*
X104860Y73700D02*
Y78123D01*
X104330Y73170D02*
X104860Y73700D01*
X103800Y77516D02*
Y82107D01*
X103021Y67139D02*
X103560Y67677D01*
X103021Y62655D02*
Y67139D01*
Y62655D02*
X103100Y62577D01*
X105410Y64086D02*
Y66671D01*
X106246Y67507D01*
X105200Y63800D02*
Y66866D01*
X104330Y56825D02*
Y63250D01*
X104751Y63671D01*
X104330Y67209D02*
X104751Y66788D01*
Y63671D02*
Y66788D01*
X103560Y67677D02*
Y73890D01*
X105517Y52974D02*
X106490Y52001D01*
X106515Y56570D02*
Y57516D01*
X104330Y49774D02*
Y53211D01*
X104751Y53631D01*
Y56405D01*
X104330Y56825D02*
X104751Y56405D01*
X103877Y47485D02*
Y53138D01*
X103460Y53555D02*
X103877Y53138D01*
X103460Y53555D02*
Y54920D01*
X104433Y46660D02*
Y47841D01*
Y38417D02*
Y43238D01*
X104601Y43406D02*
Y46491D01*
X104433Y43238D02*
X104601Y43406D01*
X104433Y46660D02*
X104601Y46491D01*
X104799Y43679D02*
X105110Y43368D01*
X104799Y43679D02*
Y46274D01*
X104857Y46333D01*
Y48510D01*
X103877Y41816D02*
Y43391D01*
X103380Y43888D02*
X103877Y43391D01*
X103380Y43888D02*
Y46989D01*
X103877Y47485D01*
X105112Y44208D02*
X106190Y43130D01*
X105112Y44208D02*
Y46045D01*
X104935Y44167D02*
Y46182D01*
X105112Y46045D02*
X105788Y46722D01*
X106294D01*
X106437Y46579D01*
X106800Y43071D02*
X106973Y43244D01*
Y45797D01*
X106680Y46090D02*
X106973Y45797D01*
X106920Y33191D02*
Y42860D01*
X107330Y43270D01*
X105962Y47209D02*
Y48728D01*
X104935Y46182D02*
X105962Y47209D01*
X105797Y36893D02*
Y38061D01*
X105517Y32954D02*
X105850Y32622D01*
X105517Y32954D02*
Y36613D01*
X105797Y36893D01*
X105677Y37186D02*
Y38111D01*
X105215Y36724D02*
X105677Y37186D01*
X104760Y31777D02*
Y36219D01*
X103877Y37530D02*
Y41524D01*
Y27373D02*
Y33038D01*
X103240Y36893D02*
X103877Y37530D01*
X105215Y27576D02*
X105559Y27920D01*
X105215Y24005D02*
Y27576D01*
X88480Y41412D02*
Y71190D01*
X88360Y41292D02*
X88480Y41412D01*
X88360Y40980D02*
Y41292D01*
X104035Y36944D02*
X104760Y36219D01*
X105112Y48992D02*
X105698D01*
X105962Y48728D01*
X104330Y49774D02*
X105112Y48992D01*
X95973Y61192D02*
Y68250D01*
X96034Y68311D01*
X113594Y86672D02*
Y104029D01*
X113125Y104498D02*
X113594Y104029D01*
X113125Y104498D02*
Y105875D01*
X113630Y106380D01*
X104625Y78464D02*
Y81272D01*
X104315Y81582D02*
X104625Y81272D01*
X104315Y81582D02*
Y82205D01*
X116795Y80015D02*
Y80510D01*
X111519Y19021D02*
Y25182D01*
X111555Y25218D02*
Y31379D01*
X111258Y31676D02*
X111555Y31379D01*
X111258Y31676D02*
Y34053D01*
X111519Y25182D02*
X111555Y25218D01*
X111519Y19021D02*
X111570Y18970D01*
X116739Y31279D02*
Y33529D01*
X116660Y31200D02*
X116739Y31279D01*
X116695Y33572D02*
X116739Y33529D01*
X116660Y28920D02*
Y31200D01*
X116815Y36249D02*
X116940Y36374D01*
Y36400D01*
X116780Y13170D02*
X116922Y13312D01*
X117225Y17385D02*
X117490Y17120D01*
X115148Y33838D02*
Y35969D01*
X115093Y36024D02*
X115148Y35969D01*
Y33838D02*
X115148Y33838D01*
X115093Y41022D02*
X115106Y41035D01*
X115443Y36024D02*
Y50582D01*
X115268Y34844D02*
Y35849D01*
X114730Y46410D02*
X115106Y46034D01*
X115268Y34844D02*
X115323Y34788D01*
Y33626D02*
Y34788D01*
X115268Y35849D02*
X115443Y36024D01*
X115093D02*
Y41022D01*
X115106Y41035D02*
Y46034D01*
X115443Y50582D02*
X115715Y50855D01*
X118420Y6440D02*
X118425Y6445D01*
X115246Y32782D02*
Y33548D01*
X115011Y32547D02*
X115246Y32782D01*
Y33548D02*
X115323Y33626D01*
X111570Y14815D02*
Y18970D01*
X111530Y6580D02*
Y14775D01*
X111570Y14815D01*
X104868Y39294D02*
X105022Y39447D01*
Y40538D01*
X105110Y40627D01*
X105600Y40978D02*
X106006Y40572D01*
X105750Y39333D02*
X106006Y39589D01*
X105600Y40978D02*
Y41429D01*
X106006Y39589D02*
Y40572D01*
X105110Y40627D02*
Y43368D01*
X104868Y38436D02*
Y39294D01*
X105797Y38061D02*
X106242Y38506D01*
X105677Y38111D02*
X105750Y38184D01*
X106242Y38506D02*
Y39496D01*
X105750Y38184D02*
Y39333D01*
X106132Y40888D02*
X106246Y41002D01*
X106132Y39606D02*
Y40888D01*
Y39606D02*
X106242Y39496D01*
X109161Y42508D02*
Y43525D01*
X109020Y43666D02*
X109161Y43525D01*
X115011Y32489D02*
Y32547D01*
X115138Y29965D02*
Y32362D01*
X115011Y32489D02*
X115138Y32362D01*
X96604Y42954D02*
Y43531D01*
X97790Y44717D01*
X96655Y42041D02*
X96735Y42121D01*
X96655Y41340D02*
Y42041D01*
X96604Y42954D02*
X96735Y42822D01*
Y42121D02*
Y42822D01*
X115715Y52074D02*
X115715Y52074D01*
Y50855D02*
Y52074D01*
X115715Y52798D02*
X115925Y53008D01*
X109481Y47867D02*
X109669Y48055D01*
Y49337D01*
X108495Y49240D02*
Y49476D01*
X109536Y49470D02*
X109669Y49337D01*
X109536Y49470D02*
Y53788D01*
X106076Y31263D02*
X106800Y31987D01*
Y43071D01*
X106920Y33191D02*
X107073Y33038D01*
X104035Y38020D02*
X104433Y38417D01*
X104035Y36944D02*
Y38020D01*
X109895Y52382D02*
X110653Y51624D01*
Y49796D02*
Y51624D01*
X115715Y52074D02*
Y52798D01*
X115925Y53008D02*
Y54106D01*
X115198Y54833D02*
X115925Y54106D01*
X115745Y58785D02*
X115875Y58655D01*
X115395Y58618D02*
Y61629D01*
X115270Y61754D02*
X115395Y61629D01*
X113704Y56825D02*
X113721Y56809D01*
X113704Y56825D02*
Y58261D01*
X111452Y67742D02*
X111554Y67844D01*
X109720Y67255D02*
X110391Y66584D01*
X116350Y52683D02*
X116375Y52708D01*
X115985Y84328D02*
X116087Y84226D01*
X116375Y52708D02*
Y72864D01*
X116140Y73099D02*
X116375Y72864D01*
X116087Y75503D02*
Y84226D01*
X115865Y58387D02*
X115875Y58397D01*
Y58655D01*
X115745Y58785D02*
Y66865D01*
X115500Y67110D02*
X115745Y66865D01*
X114994Y60960D02*
X115085Y60869D01*
X114994Y60960D02*
Y61977D01*
X115085Y59852D02*
Y60869D01*
X115055Y62038D02*
Y64101D01*
X114994Y61977D02*
X115055Y62038D01*
X115270Y61754D02*
Y69751D01*
X111118Y61211D02*
X111185Y61144D01*
X111118Y61211D02*
Y62147D01*
X111185Y59766D02*
Y61144D01*
X111130Y59711D02*
X111185Y59766D01*
X111554Y67844D02*
Y74938D01*
X111452Y67196D02*
X111535Y67113D01*
X110391Y62662D02*
Y66584D01*
X113635Y58331D02*
X113704Y58261D01*
X111130Y65347D02*
Y67557D01*
X110265Y69016D02*
Y71338D01*
X110345Y71418D01*
Y78384D01*
X111452Y67196D02*
Y67742D01*
X110044Y78685D02*
X110345Y78384D01*
X111108Y67579D02*
X111130Y67557D01*
X111108Y67579D02*
Y68772D01*
X110940Y68940D02*
X111108Y68772D01*
X110526Y67553D02*
X110690Y67388D01*
X110351Y67553D02*
X110526D01*
X109842Y78685D02*
X110044D01*
X106011Y78381D02*
X106350Y78720D01*
X111825Y70895D02*
X112245Y71315D01*
X111825Y68997D02*
X112070Y68752D01*
X111825Y68997D02*
Y70895D01*
X112070Y67122D02*
Y68752D01*
X112207Y71726D02*
X112245Y71688D01*
X112207Y71726D02*
Y73211D01*
X112245Y71315D02*
Y71688D01*
X112001Y73418D02*
X112207Y73211D01*
X112012Y73560D02*
Y79093D01*
X112001Y73549D02*
X112012Y73560D01*
X112001Y73418D02*
Y73549D01*
X112012Y79093D02*
X112351Y79432D01*
X107570Y78053D02*
X107572Y78055D01*
Y78113D01*
X107567Y78119D02*
X107572Y78113D01*
X107570Y77516D02*
Y78053D01*
X115985Y84328D02*
Y89000D01*
X111280Y78172D02*
Y79432D01*
X110798Y79635D02*
Y80392D01*
X110811Y80405D01*
X110787Y79452D02*
Y79624D01*
X110798Y79635D01*
X108249Y82056D02*
Y82920D01*
X107614Y81421D02*
X108249Y82056D01*
X112351Y79432D02*
Y82191D01*
X112277Y82265D02*
X112351Y82191D01*
X112277Y82265D02*
Y85023D01*
X111927Y80198D02*
Y83473D01*
X112080Y85220D02*
X112277Y85023D01*
X109630Y81501D02*
X109656Y81526D01*
X109630Y81170D02*
Y81501D01*
X109656Y81526D02*
Y81671D01*
X110193Y82208D02*
Y87123D01*
X109656Y81671D02*
X110193Y82208D01*
X108133Y83036D02*
X108249Y82920D01*
X114455Y81141D02*
X114590Y81006D01*
Y81000D02*
Y81006D01*
X114455Y81141D02*
Y83913D01*
X114254Y84114D02*
X114455Y83913D01*
X111105Y81894D02*
Y87500D01*
X110881Y87724D02*
X111105Y87500D01*
Y81894D02*
X111680Y81319D01*
X57594Y74572D02*
X57751Y74730D01*
X47836Y74884D02*
X48148Y74572D01*
X57594D01*
X36396Y63054D02*
X36599Y63257D01*
X36396Y62341D02*
Y63054D01*
X36599Y63257D02*
X39819D01*
X51502Y18064D02*
X51645Y18207D01*
X43166Y18064D02*
X51502D01*
X51645Y18207D02*
X52106D01*
X18727Y15134D02*
Y16107D01*
X18356Y16479D02*
X18727Y16107D01*
X110690Y66020D02*
Y67388D01*
X105588Y41429D02*
X105600D01*
X105547Y41470D02*
X105588Y41429D01*
X105517Y41470D02*
X105547D01*
X18669Y3713D02*
Y4509D01*
X18253Y4924D02*
X18669Y4509D01*
X18253Y5873D02*
X18483Y6103D01*
X18491D01*
X18370Y27794D02*
X18730Y27435D01*
Y26472D02*
Y27435D01*
X18334Y38136D02*
X18519Y37951D01*
X18708Y37844D02*
X18737D01*
X18519Y37951D02*
X18601D01*
X18708Y37844D01*
X18737Y49231D02*
Y50588D01*
X18394Y50931D02*
X18737Y50588D01*
X18384Y51279D02*
X18394Y51289D01*
Y50931D02*
Y51124D01*
X18384Y51134D02*
Y51279D01*
Y51134D02*
X18394Y51124D01*
X18562Y51610D02*
X18569D01*
X18394Y51442D02*
X18562Y51610D01*
X18731Y60552D02*
X18761D01*
X18644Y60639D02*
X18731Y60552D01*
X18531Y60639D02*
X18644D01*
X18344Y60827D02*
X18531Y60639D01*
X18575Y62948D02*
X18834Y63208D01*
X18561Y62941D02*
X18569D01*
X18305Y62685D02*
X18561Y62941D01*
X18834Y63208D02*
X19727D01*
X18490Y72065D02*
X18595D01*
X18690Y71969D02*
X18720D01*
X18314Y72241D02*
X18490Y72065D01*
X18595D02*
X18690Y71969D01*
X18710Y83319D02*
Y84734D01*
X18364Y85080D02*
X18710Y84734D01*
X18354Y85356D02*
X18364Y85366D01*
Y85080D02*
Y85201D01*
X18354Y85211D02*
Y85356D01*
Y85211D02*
X18364Y85201D01*
X97292Y35831D02*
X97295Y35828D01*
X97045Y87037D02*
X97057Y87049D01*
X97033Y86460D02*
X97045Y86473D01*
Y87037D01*
X18253Y4924D02*
Y5873D01*
X20776Y5807D02*
X21323Y6354D01*
X22087D02*
X22198Y6243D01*
X22212D02*
X22392Y6063D01*
X21323Y6354D02*
X22087D01*
X22198Y6243D02*
X22212D01*
X19620Y6110D02*
X19923Y5807D01*
X20776D01*
X23487Y6063D02*
X23695Y6271D01*
X22392Y6063D02*
X23487D01*
X24140Y6271D02*
X24167Y6243D01*
X23695Y6271D02*
X24140D01*
X24612Y6243D02*
X24697Y6158D01*
X24167Y6243D02*
X24612D01*
X31124Y6200D02*
X31195Y6271D01*
X29445Y6261D02*
X29505Y6200D01*
X31124D01*
X28553Y6261D02*
X28935D01*
X28945Y6271D02*
X29090D01*
X29100Y6261D01*
X28476Y6183D02*
X28553Y6261D01*
X28935D02*
X28945Y6271D01*
X28118Y6158D02*
X28143Y6183D01*
X28476D01*
X29100Y6261D02*
X29445D01*
X18356Y16479D02*
Y17331D01*
X18596Y17571D01*
X20877Y17311D02*
X24415D01*
X20616Y17571D02*
X20877Y17311D01*
X24415D02*
X24556Y17452D01*
X34556Y17277D02*
X34701D01*
X35651Y17409D02*
Y17768D01*
X34311Y17287D02*
X34546D01*
X28370D02*
X34146D01*
X35529D02*
X35651Y17409D01*
X34156Y17277D02*
X34301D01*
X34546Y17287D02*
X34556Y17277D01*
X34146Y17287D02*
X34156Y17277D01*
X34301D02*
X34311Y17287D01*
X34701Y17277D02*
X34711Y17287D01*
X35529D01*
X35741Y17858D02*
X41218D01*
X35651Y17768D02*
X35741Y17858D01*
X18811Y29088D02*
X19967D01*
X20113Y29235D01*
X18770Y29026D02*
Y29047D01*
X18811Y29088D01*
X18650Y28906D02*
X18770Y29026D01*
X18324Y38241D02*
X18334Y38231D01*
X18324Y38386D02*
X18334Y38396D01*
Y38858D01*
X18324Y38241D02*
Y38386D01*
X18334Y38136D02*
Y38231D01*
X18559Y40204D02*
Y40234D01*
X18509Y40147D02*
Y40154D01*
X18288Y39784D02*
X18467Y39605D01*
X18288Y39784D02*
Y39926D01*
X18509Y40154D02*
X18559Y40204D01*
X18288Y39926D02*
X18509Y40147D01*
X20886Y40702D02*
X20896Y40712D01*
X21041D02*
X21051Y40702D01*
X21865D01*
X20448Y40377D02*
X20773Y40702D01*
X20371Y40377D02*
X20448D01*
X20216Y40367D02*
X20361D01*
X20206Y40377D02*
X20216Y40367D01*
X20896Y40712D02*
X21041D01*
X20361Y40367D02*
X20371Y40377D01*
X18701D02*
X20206D01*
X20773Y40702D02*
X20886D01*
X21865D02*
X22299Y40268D01*
X23296D02*
X23604Y40575D01*
X22299Y40268D02*
X23296D01*
X23604Y40575D02*
X24472D01*
X24564Y40469D02*
X24666Y40367D01*
X24564Y40469D02*
Y40483D01*
X24681Y40367D02*
X24831Y40216D01*
X24472Y40575D02*
X24564Y40483D01*
X24666Y40367D02*
X24681D01*
X29151Y40524D02*
X29374Y40302D01*
X28281Y40362D02*
X28443Y40524D01*
X29151D01*
X28267Y40362D02*
X28281D01*
X24831Y40216D02*
X28122D01*
X28267Y40362D01*
X31213Y40302D02*
X31327Y40416D01*
X31342D02*
X31395Y40470D01*
X31327Y40416D02*
X31342D01*
X29374Y40302D02*
X31213D01*
X18394Y51289D02*
Y51442D01*
X19710Y51617D02*
X19982Y51344D01*
X20951D02*
X21814Y52207D01*
X19982Y51344D02*
X20951D01*
X21814Y52207D02*
Y52443D01*
X22320Y52949D01*
X22482D01*
X22585Y53052D01*
X18334Y60956D02*
X18344Y60946D01*
X18334Y61101D02*
X18344Y61111D01*
X18334Y60956D02*
Y61101D01*
X18344Y61111D02*
Y61517D01*
Y60827D02*
Y60946D01*
X18305Y62422D02*
Y62685D01*
Y62422D02*
X18499Y62228D01*
X19727Y63208D02*
X19949Y63430D01*
X20373D02*
X20526D01*
X20226Y63431D02*
X20371D01*
X20526Y63430D02*
X21144Y64048D01*
X20224Y63430D02*
X20226Y63431D01*
X19949Y63430D02*
X20224D01*
X20371Y63431D02*
X20373Y63430D01*
X26892Y64889D02*
X63341D01*
X21144Y64048D02*
X26051D01*
X26892Y64889D01*
X30241Y74476D02*
X30251Y74486D01*
X30086D02*
X30096Y74476D01*
X30251Y74486D02*
X30951D01*
X30096Y74476D02*
X30241D01*
X29496Y74477D02*
X29641D01*
X29651Y74486D02*
X30086D01*
X30951D02*
X31057Y74592D01*
X43327D01*
X43618Y74884D01*
X29279Y74486D02*
X29487D01*
X29641Y74477D02*
X29651Y74486D01*
X29487D02*
X29496Y74477D01*
X28261Y74472D02*
X28467Y74678D01*
X29088D02*
X29279Y74486D01*
X28467Y74678D02*
X29088D01*
X24787Y74336D02*
X28111D01*
X24497Y74626D02*
X24787Y74336D01*
X28111D02*
X28247Y74472D01*
X28261D01*
X23525Y74626D02*
X24497D01*
X23149Y74250D02*
X23525Y74626D01*
X22407Y74250D02*
X23149D01*
X21845Y74812D02*
X22407Y74250D01*
X20860Y74822D02*
X21021D01*
X21031Y74812D02*
X21845D01*
X21021Y74822D02*
X21031Y74812D01*
X18731Y74486D02*
X20186D01*
X20196Y74476D02*
X20341D01*
X20186Y74486D02*
X20196Y74476D01*
X20341D02*
X20351Y74486D01*
X20524D02*
X20860Y74822D01*
X20351Y74486D02*
X20524D01*
X18304Y72351D02*
X18314Y72341D01*
X18304Y72496D02*
X18314Y72506D01*
X18304Y72351D02*
Y72496D01*
X18314Y72241D02*
Y72341D01*
Y72506D02*
Y73017D01*
X18364Y85366D02*
Y85519D01*
X21021Y86172D02*
X21031Y86162D01*
X20876Y86172D02*
X21021D01*
X21031Y86162D02*
X21925D01*
X20866D02*
X20876Y86172D01*
X20223Y85741D02*
X20309Y85827D01*
X20341D02*
X20443Y85929D01*
X20309Y85827D02*
X20341D01*
X20644Y86162D02*
X20866D01*
X19498Y85741D02*
X20223D01*
X20443Y85961D02*
X20644Y86162D01*
X20443Y85929D02*
Y85961D01*
X21925Y86162D02*
X22144Y85943D01*
X22261Y85827D02*
X22350Y85737D01*
X22144Y85929D02*
X22246Y85827D01*
X22144Y85929D02*
Y85943D01*
X22350Y85737D02*
X23668D01*
X23807Y85876D01*
X22246Y85827D02*
X22261D01*
X24177Y85652D02*
X28527D01*
X28752Y85876D01*
X23952D02*
X24177Y85652D01*
X29202Y85876D02*
X29307Y85771D01*
X31203D01*
X31307Y85876D01*
X31322D01*
X31405Y85959D01*
X28752Y85876D02*
X29202D01*
X23807D02*
X23952D01*
X10330Y101778D02*
Y106298D01*
X10530Y100640D02*
Y101578D01*
X10330Y101778D02*
X10530Y101578D01*
X16704Y104143D02*
X16714Y104153D01*
X16704Y103998D02*
X16806Y103896D01*
X16714Y104153D02*
Y104646D01*
X16806Y103896D02*
X16915D01*
X17019Y101943D02*
Y103792D01*
X16915Y103896D02*
X17019Y103792D01*
Y100059D02*
Y101778D01*
X16704Y103998D02*
Y104143D01*
X17019Y101943D02*
X17029Y101933D01*
Y101788D02*
Y101933D01*
X17019Y101778D02*
X17029Y101788D01*
X16966Y111534D02*
X16968Y111531D01*
X16897Y111049D02*
X16968Y111120D01*
X16966Y111534D02*
Y112251D01*
X16968Y111120D02*
Y111531D01*
X16031Y107894D02*
X16170Y107756D01*
X16031Y109573D02*
X16177Y109719D01*
X16031Y107894D02*
Y109573D01*
X17000Y113049D02*
X17008Y113041D01*
Y112896D02*
Y113041D01*
X17000Y113049D02*
Y113510D01*
X16900Y112443D02*
X16910Y112433D01*
X17000Y112889D02*
X17008Y112896D01*
X16900Y112588D02*
X16910Y112598D01*
X17000Y112825D02*
Y112889D01*
X16910Y112307D02*
X16966Y112251D01*
X16900Y112443D02*
Y112588D01*
X16910Y112598D02*
Y112735D01*
X17000Y112825D01*
X16910Y112307D02*
Y112433D01*
X16014Y115816D02*
X16160Y115961D01*
X16014Y114067D02*
X16197Y113884D01*
X16014Y114067D02*
Y115816D01*
X16986Y124019D02*
X16988Y124017D01*
X16917Y123534D02*
X16988Y123605D01*
Y124017D01*
X16986Y124019D02*
Y124737D01*
X16920Y124929D02*
X16930Y124919D01*
X16920Y125074D02*
X16930Y125084D01*
X16920Y124929D02*
Y125074D01*
X16930Y125199D02*
X17070Y125340D01*
X16930Y125084D02*
Y125199D01*
Y124793D02*
Y124919D01*
Y124793D02*
X16986Y124737D01*
X17070Y125340D02*
Y126230D01*
X48168Y153836D02*
X48460Y153545D01*
X48168Y153836D02*
Y153966D01*
X48746Y151841D02*
Y153035D01*
Y153200D02*
Y153260D01*
X48165Y153970D02*
X48168Y153966D01*
X48746Y153035D02*
X48756Y153045D01*
X48746Y153200D02*
X48756Y153190D01*
Y153045D02*
Y153190D01*
X48460Y153545D02*
X48461D01*
X48746Y153260D01*
X47638Y152316D02*
Y154314D01*
X47621Y152298D02*
X47638Y152316D01*
Y154314D02*
X47765Y154440D01*
X47621Y152078D02*
Y152298D01*
X47557Y151873D02*
Y152014D01*
X47547Y151718D02*
Y151863D01*
X47557Y152014D02*
X47621Y152078D01*
X47547Y151863D02*
X47557Y151873D01*
X47547Y151718D02*
X47557Y151708D01*
X47556Y143998D02*
Y144510D01*
X47638Y144591D02*
Y146439D01*
X47546Y143988D02*
X47556Y143998D01*
X47546Y143843D02*
X47556Y143833D01*
X47638Y146439D02*
X47764Y146565D01*
X47556Y144510D02*
X47638Y144591D01*
X47556Y143616D02*
Y143833D01*
X47546Y143843D02*
Y143988D01*
X48034Y143135D02*
X48164Y143005D01*
X48034Y143135D02*
Y145935D01*
X48164Y146065D01*
Y142660D02*
Y143005D01*
X47644Y138568D02*
X47769Y138693D01*
X47654Y137122D02*
X47891Y136885D01*
Y136125D02*
X47901Y136115D01*
X47644Y138350D02*
X47654Y138340D01*
X47644Y138350D02*
Y138568D01*
X47654Y137122D02*
Y138340D01*
X47891Y136125D02*
Y136885D01*
X47901Y135970D02*
Y136115D01*
X48265Y136793D02*
X48279D01*
X48169Y136889D02*
X48265Y136793D01*
X47769Y130853D02*
Y130853D01*
Y130853D02*
X47994Y130628D01*
Y129953D02*
Y130628D01*
X48381Y127545D02*
Y129386D01*
X48339Y127502D02*
X48381Y127545D01*
X48169Y129599D02*
X48381Y129386D01*
X48335Y126920D02*
X48339Y126924D01*
Y127502D01*
X48169Y129599D02*
Y130353D01*
X48021Y127570D02*
X48048Y127543D01*
X48094Y127187D02*
Y127217D01*
X48048Y127262D02*
Y127543D01*
Y127262D02*
X48094Y127217D01*
X47656Y129795D02*
Y129940D01*
X47666Y128361D02*
Y129785D01*
X47656Y129940D02*
X47666Y129950D01*
X47656Y129795D02*
X47666Y129785D01*
Y129950D02*
Y130401D01*
X47994Y129953D02*
X48021Y129926D01*
Y127570D02*
Y129926D01*
X42199Y85959D02*
X42202Y85956D01*
X42350Y85959D02*
X43152D01*
X31405D02*
X42199D01*
X42347Y85956D02*
X42350Y85959D01*
X43152D02*
X43396Y86203D01*
X42202Y85956D02*
X42347D01*
X43960Y85891D02*
X46053D01*
X43589Y85520D02*
X43960Y85891D01*
X46053D02*
X46177Y85767D01*
X46792Y85257D02*
X46802Y85267D01*
X46637D02*
X46647Y85257D01*
X46802Y85267D02*
X46833D01*
X46187Y85537D02*
Y85599D01*
X46458Y85267D02*
X46637D01*
X46187Y85537D02*
X46458Y85267D01*
X46177Y85609D02*
Y85767D01*
X46647Y85257D02*
X46792D01*
X46177Y85609D02*
X46187Y85599D01*
X50047Y85866D02*
X50057Y85876D01*
X53807D02*
X53952D01*
X50057D02*
X50202D01*
X53212Y85866D02*
X53797D01*
X49462D02*
X50047D01*
X53047D02*
X53057Y85876D01*
X49297Y85866D02*
X49307Y85876D01*
X53202D02*
X53212Y85866D01*
X49452Y85876D02*
X49462Y85866D01*
X53057Y85876D02*
X53202D01*
X49307D02*
X49452D01*
X52462Y85866D02*
X53047D01*
X48547D02*
X48557Y85876D01*
X52452D02*
X52462Y85866D01*
X48702Y85876D02*
X48712Y85866D01*
X52307Y85876D02*
X52452D01*
X47807D02*
X47952D01*
X50807D02*
X50952D01*
X53797Y85866D02*
X53807Y85876D01*
X47797Y85866D02*
X47807Y85876D01*
X50797Y85866D02*
X50807Y85876D01*
X58211Y86029D02*
X58934D01*
X48557Y85876D02*
X48702D01*
X51557D02*
X51702D01*
X51712Y85866D02*
X52297D01*
X58201Y86039D02*
X58211Y86029D01*
X48712Y85866D02*
X49297D01*
X51547D02*
X51557Y85876D01*
X52297Y85866D02*
X52307Y85876D01*
X54067Y85866D02*
X54229Y86029D01*
X50202Y85876D02*
X50212Y85866D01*
X53962D02*
X54067D01*
X47737D02*
X47797D01*
X50212D02*
X50797D01*
X51702Y85876D02*
X51712Y85866D01*
X53952Y85876D02*
X53962Y85866D01*
X47952Y85876D02*
X47962Y85866D01*
X50952Y85876D02*
X50962Y85866D01*
X54229Y86029D02*
X58046D01*
X58056Y86039D01*
X47962Y85866D02*
X48547D01*
X50962D02*
X51547D01*
X58056Y86039D02*
X58201D01*
X56240Y85432D02*
X56362Y85310D01*
X64720D01*
X46998Y85432D02*
X56240D01*
X47025Y74082D02*
X55569D01*
X55716Y74229D02*
X56956D01*
X55569Y74082D02*
X55716Y74229D01*
X61097Y74687D02*
X61191Y74781D01*
X62154D01*
X60642Y74730D02*
X60686Y74687D01*
X61097D01*
X57751Y74730D02*
X60642D01*
X40107Y63531D02*
X40199Y63623D01*
X41083D02*
X41093Y63633D01*
X41238D02*
X41248Y63623D01*
X41093Y63633D02*
X41238D01*
X39819Y63257D02*
X40093Y63531D01*
X41248Y63623D02*
X42539D01*
X42704Y63458D01*
X47307D02*
X47574Y63190D01*
X42704Y63458D02*
X47307D01*
X40093Y63531D02*
X40107D01*
X40199Y63623D02*
X41083D01*
X56491Y63190D02*
X56730Y63430D01*
X47574Y63190D02*
X56491D01*
X59643Y63430D02*
X59851Y63222D01*
X56730Y63430D02*
X59643D01*
X65336Y63524D02*
X65749D01*
X66045Y63820D02*
X68516D01*
X65749Y63524D02*
X66045Y63820D01*
X63341Y64889D02*
X64696Y63534D01*
X65326D01*
X65336Y63524D01*
X44221Y52559D02*
X60861D01*
X42992Y52570D02*
X44210D01*
X60871D02*
X61754D01*
X63637Y50687D01*
X60861Y52559D02*
X60871Y52570D01*
X44210D02*
X44221Y52559D01*
X24128Y53498D02*
X25118D01*
X23959Y53329D02*
X24128Y53498D01*
X25287Y53329D02*
X62121D01*
X25118Y53498D02*
X25287Y53329D01*
X22585Y53052D02*
Y53066D01*
X22848Y53329D01*
X62121D02*
X63990Y51460D01*
X22848Y53329D02*
X23959D01*
X38148Y52547D02*
X39960D01*
X39964Y52551D02*
X42973D01*
X42992Y52570D01*
X37825D02*
X38125D01*
X37180Y51925D02*
X37825Y52570D01*
X38125D02*
X38148Y52547D01*
X39960D02*
X39964Y52551D01*
X46499Y40569D02*
X47096Y39972D01*
X44058Y40569D02*
X46499D01*
X47096Y39972D02*
X48380D01*
X61746Y39823D02*
X62041Y40119D01*
X58480Y39823D02*
X61746D01*
X58474Y39829D02*
X58480Y39823D01*
X57230Y40010D02*
X57417Y39823D01*
X58324D01*
X58329Y39829D02*
X58474D01*
X58324Y39823D02*
X58329Y39829D01*
X66432Y40960D02*
X69480D01*
X66030Y40557D02*
X66432Y40960D01*
X63893Y40557D02*
X66030D01*
X63506Y40587D02*
X63864D01*
X63893Y40557D01*
X61410D02*
X61582Y40729D01*
X63364D01*
X63506Y40587D01*
X53962Y40490D02*
X54041Y40569D01*
X58066D01*
X58231D02*
X59739D01*
X58076Y40579D02*
X58221D01*
X58231Y40569D01*
X58066D02*
X58076Y40579D01*
X43500Y40010D02*
X44058Y40569D01*
X36770Y40010D02*
X43500D01*
X20316Y29451D02*
X30347D01*
X31324Y29472D02*
X31452Y29345D01*
X39991D02*
X40200Y29554D01*
X30369Y29472D02*
X31324D01*
X31452Y29345D02*
X39991D01*
X20113Y29235D02*
Y29249D01*
X30347Y29451D02*
X30369Y29472D01*
X20113Y29249D02*
X20316Y29451D01*
X42683Y29721D02*
X42952Y29451D01*
X40200Y29554D02*
Y29568D01*
X40353Y29721D02*
X42683D01*
X40200Y29568D02*
X40353Y29721D01*
X58566Y28524D02*
X58706Y28384D01*
X56139Y28524D02*
X58566D01*
X56105Y28559D02*
X56139Y28524D01*
X55925D02*
X55960Y28559D01*
X47976Y28524D02*
X55925D01*
X47390Y29110D02*
X47976Y28524D01*
X55960Y28559D02*
X56105D01*
X51771Y29396D02*
X51937Y29562D01*
X43022Y29396D02*
X51771D01*
X42967Y29451D02*
X43022Y29396D01*
X42952Y29451D02*
X42967D01*
X52530Y29461D02*
X52692D01*
X52847Y29451D02*
X52857Y29461D01*
X51937Y29562D02*
X52429D01*
X52692Y29461D02*
X52702Y29451D01*
X52857Y29461D02*
X52921D01*
X52702Y29451D02*
X52847D01*
X52429Y29562D02*
X52530Y29461D01*
X54041Y29283D02*
X55946D01*
X52931Y29471D02*
X53292D01*
X53302Y29481D02*
X53447D01*
X53292Y29471D02*
X53302Y29481D01*
X53853Y29471D02*
X54041Y29283D01*
X53457Y29471D02*
X53853D01*
X53447Y29481D02*
X53457Y29471D01*
X56229Y29401D02*
Y29456D01*
X56101Y29273D02*
X56229Y29401D01*
X56501Y29583D02*
X56511Y29573D01*
X58207D01*
X55946Y29283D02*
X55956Y29273D01*
X56101D01*
X56357Y29583D02*
X56501D01*
X56229Y29456D02*
X56357Y29583D01*
X60572Y29562D02*
X60851D01*
X60459Y29448D02*
X60572Y29562D01*
X62626Y29499D02*
X63236Y28888D01*
X58332Y29448D02*
X60459D01*
X60913Y29499D02*
X62626D01*
X60851Y29562D02*
X60913Y29499D01*
X41662Y18302D02*
X42453D01*
X41218Y17858D02*
X41662Y18302D01*
X42453D02*
X42722Y18033D01*
X40989Y17738D02*
X41268D01*
X41268Y17738D02*
X46496D01*
X40538Y17287D02*
X40989Y17738D01*
X41268D02*
X41268Y17738D01*
X46496D02*
X46797Y17437D01*
X53106Y17960D02*
X53272Y18126D01*
X52669Y17960D02*
X53106D01*
X52422Y18207D02*
X52669Y17960D01*
X52261Y18217D02*
X52271Y18207D01*
X52422D01*
X52116Y18217D02*
X52261D01*
X52106Y18207D02*
X52116Y18217D01*
X60851Y18207D02*
X61198D01*
X60345Y17899D02*
X60663Y18217D01*
X60841D02*
X60851Y18207D01*
X60663Y18217D02*
X60841D01*
X56501Y17899D02*
X60345D01*
X56336D02*
X56347Y17889D01*
X56491D02*
X56501Y17899D01*
X56347Y17889D02*
X56491D01*
X53447Y18126D02*
X53899D01*
X54127Y17899D01*
X53437Y18136D02*
X53447Y18126D01*
X54127Y17899D02*
X56336D01*
X53282Y18126D02*
X53292Y18136D01*
X53272Y18126D02*
X53282D01*
X53292Y18136D02*
X53437D01*
X56468Y17130D02*
X64000D01*
X56338Y17259D02*
X56468Y17130D01*
X46905Y17329D02*
X46974Y17259D01*
X46802Y17437D02*
X46905Y17334D01*
X46797Y17437D02*
X46802D01*
X46974Y17259D02*
X56338D01*
X46905Y17329D02*
Y17334D01*
X41003Y6456D02*
X41087Y6373D01*
X31459Y6456D02*
X41003D01*
X31195Y6271D02*
X31273D01*
X31459Y6456D01*
X53378Y6373D02*
X53462Y6456D01*
X46705Y6063D02*
X46842Y5926D01*
X46369Y5848D02*
X46584Y6063D01*
X46705D01*
X46842Y5926D02*
X46939D01*
X46945Y5921D02*
X47267D01*
X46939Y5926D02*
X46945Y5921D01*
X47267D02*
X47364Y5824D01*
X48135D01*
X54887Y5648D02*
X55190Y5345D01*
X56624D02*
X56904Y5625D01*
X55190Y5345D02*
X56624D01*
X57929Y5807D02*
X59766D01*
X57748Y5625D02*
X57929Y5807D01*
X59766D02*
X59947Y5625D01*
X64579Y5909D02*
X68595D01*
X64228Y6261D02*
X64579Y5909D01*
X68595D02*
X68866Y6180D01*
X89090Y17380D02*
Y34490D01*
X88720Y17010D02*
X89090Y17380D01*
X66296Y18130D02*
X70860D01*
X62016Y17887D02*
X63486D01*
X63496Y17877D02*
X63815D01*
X63825Y17887D01*
X66053D02*
X66296Y18130D01*
X63825Y17887D02*
X66053D01*
X63486D02*
X63496Y17877D01*
X65589Y26789D02*
X68440D01*
X69960Y28309D02*
Y29922D01*
X68440Y26789D02*
X69960Y28309D01*
X96511Y35943D02*
X96702Y36134D01*
Y36523D01*
X96511Y33798D02*
Y35943D01*
X96765Y32986D02*
X96843Y33064D01*
X96858D02*
X96960Y33167D01*
X96765Y32550D02*
X96920Y32396D01*
X96765Y32550D02*
Y32986D01*
X96960Y33181D02*
X97039Y33260D01*
X96843Y33064D02*
X96858D01*
X96960Y33167D02*
Y33181D01*
X96920Y31780D02*
Y32396D01*
X95980Y32030D02*
X96610Y31400D01*
X95980Y33267D02*
X96511Y33798D01*
X95980Y32030D02*
Y33267D01*
X96372Y37789D02*
Y43098D01*
X96692Y36533D02*
X96702Y36523D01*
X96372Y37789D02*
X96692Y37469D01*
Y36533D02*
Y37469D01*
X96252Y39346D02*
Y40538D01*
X96157Y39251D02*
X96252Y39346D01*
X96372Y43098D02*
X96440Y43165D01*
X95911Y40879D02*
X96252Y40538D01*
X96157Y39250D02*
Y39251D01*
X95951Y41585D02*
Y42537D01*
X95911Y42883D02*
X96265Y43238D01*
X95911Y40879D02*
Y41544D01*
X95951Y41585D01*
X95911Y42578D02*
X95951Y42537D01*
X95911Y42578D02*
Y42883D01*
X96655Y41340D02*
X96692Y41303D01*
Y40615D02*
Y41303D01*
X96356Y43394D02*
Y45785D01*
Y43394D02*
X96440Y43310D01*
X96064Y46077D02*
X96356Y45785D01*
X96440Y43165D02*
Y43310D01*
Y55687D02*
Y55754D01*
X96064Y46077D02*
Y53480D01*
X96290Y53706D01*
Y55537D01*
X96440Y55687D01*
X96612Y55940D02*
X96696Y56024D01*
Y56573D02*
X96706Y56563D01*
Y56418D02*
Y56563D01*
X96696Y56408D02*
X96706Y56418D01*
X96612Y55926D02*
Y55940D01*
X96440Y55754D02*
X96612Y55926D01*
X96359Y57785D02*
X96696Y57448D01*
Y56024D02*
Y56408D01*
Y56573D02*
Y57448D01*
X95973Y61192D02*
X96064Y61101D01*
Y54013D02*
Y61101D01*
X96782Y72515D02*
Y72985D01*
X97033Y73235D02*
Y76460D01*
X96782Y72985D02*
X97033Y73235D01*
X78795Y137878D02*
X78799Y137882D01*
X78795Y137856D02*
X78795Y137878D01*
X78795Y137856D02*
X78870Y135234D01*
X78799Y137882D02*
Y142476D01*
X78821Y131825D02*
X78870Y131874D01*
Y135234D01*
X116375Y147938D02*
X116474Y147838D01*
X116258Y148345D02*
X116272D01*
X116375Y148242D01*
Y147938D02*
Y148242D01*
X115965Y148638D02*
X116258Y148345D01*
X116474Y145936D02*
X116714Y145696D01*
X116474Y145936D02*
Y147838D01*
X115560Y142407D02*
Y147018D01*
Y142407D02*
X115999Y141969D01*
Y127987D02*
Y141969D01*
X114296Y128840D02*
Y134786D01*
X114286Y128830D02*
X114296Y128840D01*
X114286Y128656D02*
Y128830D01*
Y128656D02*
X114296Y128646D01*
Y127045D02*
Y128646D01*
X116480Y125700D02*
X116714Y125934D01*
Y145696D01*
X114870Y126050D02*
X115999Y127179D01*
X116009Y127761D02*
Y127977D01*
X115999Y127987D02*
X116009Y127977D01*
X115999Y127179D02*
Y127751D01*
X116009Y127761D01*
X114870Y123440D02*
X116140Y122170D01*
X110927Y109487D02*
Y127099D01*
X110607Y127418D02*
X110927Y127099D01*
X110491Y127521D02*
Y127535D01*
X110593Y127418D02*
X110607D01*
X110491Y127521D02*
X110593Y127418D01*
X110927Y109487D02*
X111080Y109334D01*
X110130Y127896D02*
X110491Y127535D01*
X114264Y105660D02*
Y116409D01*
X114161Y105558D02*
X114264Y105660D01*
X109720Y98042D02*
Y105943D01*
X109175Y106488D02*
X109720Y105943D01*
X103100Y104993D02*
X103295Y104798D01*
X103100Y104993D02*
Y105118D01*
X103090Y105272D02*
X103100Y105282D01*
X103090Y105128D02*
Y105272D01*
Y105128D02*
X103100Y105118D01*
X103295Y104575D02*
Y104798D01*
X108740Y123091D02*
Y126614D01*
X108390Y132320D02*
X108556Y132154D01*
X109720Y98042D02*
X110269Y97493D01*
X109887Y89231D02*
X110269Y89613D01*
Y97493D01*
X110911Y90136D02*
X111055Y89992D01*
X110911Y99315D02*
X111080Y99483D01*
X110911Y90136D02*
Y99315D01*
X110952Y89745D02*
X111055Y89848D01*
Y89992D01*
X120670Y81135D02*
Y90359D01*
X120330Y90699D02*
X120670Y90359D01*
X106418Y96381D02*
X106538Y96500D01*
Y98323D01*
X104672Y99027D02*
Y100298D01*
X104603Y96968D02*
X104835Y97201D01*
Y97863D01*
X104503Y98196D02*
Y98858D01*
X104603Y88261D02*
Y96968D01*
X104490Y88149D02*
X104603Y88261D01*
X104503Y98858D02*
X104672Y99027D01*
X104150Y100820D02*
X104672Y100298D01*
X104503Y98196D02*
X104835Y97863D01*
X102190Y93310D02*
X102393Y93107D01*
X102065Y86362D02*
X102393Y86691D01*
Y93107D01*
X109887Y87443D02*
X110077Y87252D01*
X109887Y87443D02*
Y89231D01*
X110881Y89687D02*
X110938Y89745D01*
X110881Y87724D02*
Y89687D01*
X110938Y89745D02*
X110952D01*
X110077Y87238D02*
Y87252D01*
Y87238D02*
X110193Y87123D01*
X112080Y85220D02*
Y85610D01*
X114161Y104209D02*
Y105558D01*
Y104209D02*
X114254Y104116D01*
Y84114D02*
Y104116D01*
X116855Y81129D02*
Y83568D01*
X116845Y83722D02*
X116855Y83732D01*
X116845Y83578D02*
X116855Y83568D01*
X117330Y56320D02*
Y80654D01*
X116855Y83732D02*
Y93003D01*
Y81129D02*
X117330Y80654D01*
X116845Y83578D02*
Y83722D01*
X119720Y82997D02*
X119934Y83211D01*
Y85049D01*
X103850Y89872D02*
Y97246D01*
X103630Y89652D02*
X103850Y89872D01*
Y97246D02*
X103910Y97306D01*
X102065Y86348D02*
Y86362D01*
X101980Y81685D02*
X102393Y81272D01*
X101980Y81685D02*
Y86263D01*
X102065Y86348D01*
X102393Y76691D02*
Y81272D01*
X101384Y67136D02*
Y71826D01*
X101513Y71955D02*
Y73562D01*
X101384Y67136D02*
X101720Y66800D01*
X101338Y72028D02*
Y73490D01*
X101384Y71826D02*
X101513Y71955D01*
X102060Y66407D02*
X102188Y66535D01*
X102198Y66707D02*
Y66852D01*
X102060Y59610D02*
Y66407D01*
X102188Y66535D02*
Y66697D01*
X102198Y66707D01*
X100361Y53022D02*
X100486Y52898D01*
X100361Y53022D02*
Y66735D01*
X100470Y66843D01*
X101390Y62940D02*
X101411Y62919D01*
X101438Y60164D02*
Y60503D01*
X101420Y60146D02*
X101438Y60164D01*
X101420Y60521D02*
X101438Y60503D01*
X101411Y62853D02*
X101420Y62844D01*
X101411Y62853D02*
Y62919D01*
X101420Y60521D02*
Y62844D01*
X102305Y45699D02*
X102490Y45884D01*
X100791Y50948D02*
Y56225D01*
X100781Y50938D02*
X100791Y50948D01*
X100781Y45661D02*
Y50938D01*
Y45661D02*
X100925Y45518D01*
X100791Y56225D02*
X100900Y56334D01*
X97288Y46255D02*
Y52339D01*
Y46255D02*
X97453Y46090D01*
Y45353D02*
Y45742D01*
Y45907D02*
Y46090D01*
Y45742D02*
X97463Y45752D01*
Y45897D01*
X97453Y45907D02*
X97463Y45897D01*
X97554Y48062D02*
X97790Y47827D01*
Y44717D02*
Y47827D01*
X98490Y63801D02*
Y63946D01*
X98490Y63801D02*
X98490Y63801D01*
X98490Y53824D02*
X98497Y53831D01*
X98490Y44246D02*
Y53824D01*
Y53983D02*
X98497Y53976D01*
X98490Y63946D02*
X98490Y63946D01*
X98280Y44036D02*
X98490Y44246D01*
Y63946D02*
Y97474D01*
X98137Y43788D02*
Y43933D01*
Y43788D02*
X98147Y43778D01*
Y43507D02*
Y43778D01*
X98137Y43933D02*
X98240Y44036D01*
X98497Y53831D02*
Y53976D01*
X98490Y53983D02*
Y63801D01*
X98240Y44036D02*
X98280D01*
X99780Y43020D02*
Y44265D01*
X99821Y44306D01*
X99656Y45776D02*
X99780Y45653D01*
Y44493D02*
Y45653D01*
X99821Y44306D02*
Y44451D01*
X99780Y44493D02*
X99821Y44451D01*
X104510Y47919D02*
Y47937D01*
X104433Y47841D02*
X104510Y47919D01*
X102249Y45630D02*
X102305Y45685D01*
X102249Y41068D02*
Y45630D01*
Y41068D02*
X102405Y40912D01*
X102305Y45685D02*
Y45699D01*
X102311Y35558D02*
Y35966D01*
X102421Y36076D02*
Y36353D01*
X102311Y35966D02*
X102421Y36076D01*
X102405Y36370D02*
X102421Y36353D01*
X102405Y36370D02*
Y40912D01*
X99656Y38391D02*
X99730Y38318D01*
Y33146D02*
Y34212D01*
Y34553D02*
Y38318D01*
X99828Y34310D02*
Y34455D01*
X99636Y33052D02*
X99730Y33146D01*
Y34212D02*
X99828Y34310D01*
X99730Y34553D02*
X99828Y34455D01*
X98245Y43395D02*
Y43409D01*
X98147Y43507D02*
X98245Y43409D01*
Y43395D02*
X98294Y43346D01*
Y41610D02*
Y43346D01*
X98153Y33947D02*
Y34048D01*
X98361Y34255D01*
X98143Y33792D02*
Y33937D01*
Y33792D02*
X98153Y33782D01*
Y33511D02*
Y33782D01*
X98143Y33937D02*
X98153Y33947D01*
X98294Y41610D02*
X98361Y41543D01*
Y34255D02*
Y41543D01*
X115135Y29175D02*
Y29962D01*
X115138Y29965D01*
X106990Y27135D02*
X107073Y27217D01*
Y33038D01*
X106990Y23150D02*
Y27135D01*
X105559Y28891D02*
X105695Y29027D01*
X105559Y27920D02*
Y28891D01*
X105695Y30089D02*
X106076Y30470D01*
X105705Y29073D02*
Y29218D01*
X105695Y29228D02*
X105705Y29218D01*
X106076Y30470D02*
Y31263D01*
X105695Y29027D02*
Y29063D01*
Y29228D02*
Y30089D01*
Y29063D02*
X105705Y29073D01*
X103877Y41524D02*
X103950Y41597D01*
X103877Y41816D02*
X103950Y41742D01*
X103940Y27280D02*
Y27310D01*
X103877Y27373D02*
X103940Y27310D01*
X103950Y41597D02*
Y41742D01*
X102010Y25423D02*
X102295Y25708D01*
X102412Y25825D02*
X102454Y25868D01*
X102398Y25825D02*
X102412D01*
X102378Y30946D02*
X102454Y30869D01*
Y25868D02*
Y30869D01*
X102295Y25722D02*
X102398Y25825D01*
X102295Y25708D02*
Y25722D01*
X102378Y30946D02*
Y31268D01*
X102321Y31324D02*
X102378Y31268D01*
X102321Y32431D02*
Y35548D01*
X102311Y32276D02*
Y32421D01*
X102321Y32431D01*
Y31324D02*
Y32266D01*
X102311Y32276D02*
X102321Y32266D01*
X102311Y35558D02*
X102321Y35548D01*
X101505Y40378D02*
X101573Y40310D01*
X101505Y40522D02*
X101573Y40590D01*
X101505Y40378D02*
Y40522D01*
X101573Y32645D02*
Y40310D01*
Y40590D02*
Y43127D01*
X101490Y32549D02*
Y32563D01*
X101573Y32645D01*
X100901Y32207D02*
Y40530D01*
Y32207D02*
X100998Y32110D01*
X101323Y28148D02*
Y32469D01*
X101315Y32477D02*
Y32622D01*
X101323Y32629D01*
X101315Y32477D02*
X101323Y32469D01*
X101238Y28052D02*
Y28063D01*
X101323Y28148D01*
X97621Y33828D02*
X97716Y33734D01*
X97621Y33828D02*
Y33842D01*
X97295Y34169D02*
X97621Y33842D01*
X97716Y33197D02*
Y33258D01*
X97478Y32959D02*
X97716Y33197D01*
X97726Y33268D02*
Y33413D01*
X97716Y33423D02*
X97726Y33413D01*
X97039Y32959D02*
X97478D01*
X97716Y33258D02*
X97726Y33268D01*
X97716Y33423D02*
Y33734D01*
X98186Y31216D02*
X98356Y31386D01*
X98251Y33399D02*
Y33413D01*
X98356Y31386D02*
Y33295D01*
X98251Y33399D02*
X98356Y33295D01*
X98153Y33511D02*
X98251Y33413D01*
X98186Y30929D02*
X98294Y30820D01*
Y24402D02*
Y30820D01*
X98119Y24227D02*
X98294Y24402D01*
X98137Y13797D02*
X98386Y13547D01*
X98120Y9127D02*
X98386Y9394D01*
Y13547D01*
X98105Y24227D02*
X98119D01*
X98019Y23648D02*
X98235Y23432D01*
X98019Y23648D02*
Y24141D01*
X98105Y24227D01*
X98137Y13797D02*
Y13941D01*
X98285Y14089D01*
Y17788D02*
X98493Y17997D01*
X98285Y14089D02*
Y17788D01*
X98493Y17997D02*
Y23160D01*
X98235Y23418D02*
X98493Y23160D01*
X98235Y23418D02*
Y23432D01*
X99992Y19872D02*
Y25922D01*
X99636Y26277D02*
X99992Y25922D01*
X99470Y19350D02*
X99992Y19872D01*
X114958Y21352D02*
X114958D01*
X115290Y5620D02*
X115305Y5635D01*
X114958Y21352D02*
X115305Y21005D01*
Y5635D02*
Y21005D01*
X105215Y31780D02*
Y36724D01*
X18370Y27794D02*
Y28597D01*
X18650Y28876D01*
Y28906D01*
X18559Y40234D02*
X18701Y40377D01*
X18352Y74113D02*
X18591Y74352D01*
X18352Y73649D02*
Y74113D01*
X18591Y74352D02*
X18596D01*
X18731Y74486D01*
X18352Y73649D02*
X18431Y73570D01*
Y73135D02*
Y73570D01*
X18539Y85694D02*
Y85704D01*
X18364Y85519D02*
X18539Y85694D01*
X115009Y141295D02*
X115039D01*
X114805Y141415D02*
X114889D01*
X115009Y141295D01*
X114740Y141480D02*
X114805Y141415D01*
X110740Y84750D02*
Y85677D01*
X110790Y85728D01*
Y85829D02*
X110811Y85850D01*
X110790Y85728D02*
Y85829D01*
X110740Y84750D02*
X110760Y84730D01*
X96034Y68311D02*
Y82551D01*
X97298Y54968D02*
Y55867D01*
X97298Y55867D01*
X100901Y40530D02*
X100925Y40553D01*
Y45518D01*
X105215Y24005D02*
X106750Y22470D01*
X111404Y86330D02*
Y86917D01*
X111080Y99483D02*
Y109334D01*
X115560Y147018D02*
X115561Y147019D01*
X114740Y141480D02*
Y147070D01*
X116833Y147990D02*
X116890D01*
X116590Y148233D02*
X116833Y147990D01*
X115965Y148638D02*
Y148664D01*
X116855Y93003D02*
X116880Y93028D01*
Y102500D01*
X108133Y86137D02*
X108185Y86190D01*
X108133Y83036D02*
Y86137D01*
X70390Y82080D02*
Y83739D01*
X70089Y84040D02*
X70390Y83739D01*
X87104Y127046D02*
Y134524D01*
Y127046D02*
X87350Y126800D01*
X106750Y12995D02*
Y22470D01*
X121170Y54150D02*
Y66780D01*
X121210Y66820D01*
Y78283D01*
X120380Y79113D02*
X121210Y78283D01*
X72230Y100060D02*
Y125100D01*
Y100060D02*
X73460Y98830D01*
Y95850D02*
Y98830D01*
X120380Y79113D02*
Y80387D01*
X72700Y6710D02*
X72710Y6720D01*
X72700Y5280D02*
Y6710D01*
X72690Y5270D02*
X72700Y5280D01*
X120511Y54084D02*
X120715Y53880D01*
X91097Y107255D02*
Y114840D01*
Y124875D02*
Y129183D01*
X89940Y102920D02*
Y113610D01*
X94830Y136660D02*
X95490Y136000D01*
X94717Y105502D02*
Y122326D01*
X94630Y105414D02*
X94717Y105502D01*
X94630Y93510D02*
Y105414D01*
X90700Y84960D02*
Y106858D01*
X91097Y107255D01*
X90600Y129680D02*
X91097Y129183D01*
X96294Y72034D02*
Y73213D01*
X96308Y73227D01*
X96280Y72020D02*
X96294Y72034D01*
X99740Y105876D02*
Y107174D01*
X119720Y80720D02*
Y82997D01*
X98490Y97474D02*
X98510Y97494D01*
X98186Y30929D02*
Y31216D01*
X98120Y6777D02*
Y9127D01*
X104920Y98398D02*
Y99420D01*
X104774Y98252D02*
X104920Y98398D01*
X105830Y88035D02*
Y99379D01*
X105789Y99420D02*
X105830Y99379D01*
X105780Y99420D02*
X105789D01*
X105830Y88035D02*
X106218Y87647D01*
X103265Y95926D02*
X103295Y95895D01*
X103265Y100602D02*
X103295Y100633D01*
X103265Y95926D02*
Y100602D01*
X103170Y135890D02*
X103310Y136030D01*
X116480Y116830D02*
Y125700D01*
X116470Y116820D02*
X116480Y116830D01*
X116880Y104955D02*
X116890Y104965D01*
X96967Y72010D02*
Y72874D01*
X97033Y72939D01*
Y72968D01*
X97043Y52998D02*
X97376D01*
X97554Y52821D01*
Y48062D02*
Y52821D01*
X97295Y34169D02*
Y34971D01*
X96034Y82551D02*
X96521Y83037D01*
X96531Y52380D02*
Y53067D01*
X97334Y52380D02*
X97363D01*
X97293Y52339D02*
X97334Y52380D01*
X97288Y52339D02*
X97293D01*
X96930Y44830D02*
X97453Y45353D01*
X99460Y12472D02*
X99470Y12482D01*
Y19350D01*
X99656Y38391D02*
Y42337D01*
X99636Y26277D02*
Y33052D01*
X97039Y33260D02*
Y36451D01*
X101720Y62670D02*
Y66800D01*
X101680Y62630D02*
X101720Y62670D01*
X90540Y84800D02*
X90700Y84960D01*
X91040Y20770D02*
Y25980D01*
X36149Y84869D02*
X36498D01*
X37060Y85432D01*
X37380D01*
X37468Y85520D01*
X43589D01*
X46833Y85267D02*
X46998Y85432D01*
X43396Y86203D02*
X47400D01*
X47737Y85866D01*
X64720Y85310D02*
X65530Y84500D01*
X36149Y73519D02*
X36711Y74082D01*
X43500D01*
X44035Y74616D02*
X46490D01*
X43500Y74082D02*
X44035Y74616D01*
X46490D02*
X47025Y74082D01*
X43618Y74884D02*
X47836D01*
X56956Y74229D02*
X57150Y74035D01*
X64341D01*
X64775Y73601D01*
X36179Y62124D02*
X36396Y62341D01*
X62281Y63222D02*
X62670Y62834D01*
X59851Y63222D02*
X62281D01*
X65073Y62834D02*
X66329Y61578D01*
X62670Y62834D02*
X65073D01*
X37180Y51794D02*
Y51925D01*
X36179Y50792D02*
X37180Y51794D01*
X36169Y39409D02*
X36770Y40010D01*
X31395Y40470D02*
X43308D01*
X43651Y40814D02*
X47566D01*
X43308Y40470D02*
X43651Y40814D01*
X48418Y40010D02*
X57230D01*
X48380Y39972D02*
X48418Y40010D01*
X62041Y40119D02*
X66253D01*
X66332Y40040D02*
X68150D01*
X66253Y40119D02*
X66332Y40040D01*
X68384Y40274D02*
X69350D01*
X68150Y40040D02*
X68384Y40274D01*
X36169Y28044D02*
Y28049D01*
X58706Y28384D02*
X63994D01*
X65589Y26789D01*
X63298Y28950D02*
X64550D01*
X63236Y28888D02*
X63298Y28950D01*
X65049Y27951D02*
Y28451D01*
X64550Y28950D02*
X65049Y28451D01*
X86780Y28920D02*
Y29930D01*
X36159Y16699D02*
X36747Y17287D01*
X40538D01*
X42722Y18033D02*
X43135D01*
X43166Y18064D01*
X64000Y17130D02*
X65200Y15930D01*
X36100Y5285D02*
X36663Y5848D01*
X46369D01*
X48135Y5824D02*
X48311Y5648D01*
X54887D01*
X56904Y5625D02*
X57748D01*
X59947D02*
X61560D01*
X61915Y5270D02*
X65170D01*
X61560Y5625D02*
X61915Y5270D01*
X19450Y85694D02*
X19498Y85741D01*
X58934Y86029D02*
X58996Y85967D01*
X64691D02*
X65890Y84768D01*
X58996Y85967D02*
X64691D01*
X65890Y81640D02*
Y84768D01*
X100070Y81490D02*
Y82830D01*
X99870Y81550D02*
X99891Y81529D01*
X99981D01*
X100020Y81490D01*
X100070D01*
X18314Y73017D02*
X18431Y73135D01*
X62675Y74260D02*
X64560D01*
X62154Y74781D02*
X62675Y74260D01*
X18344Y61517D02*
X18499Y61672D01*
Y62228D01*
X68516Y63820D02*
X68870Y63467D01*
X69520D01*
X84285Y63730D02*
Y63760D01*
X84230Y63815D02*
X84285Y63760D01*
X84230Y63815D02*
Y63860D01*
X84285Y63915D01*
Y70010D01*
X63990Y51460D02*
X68600D01*
X69340Y52200D01*
X18334Y38858D02*
X18467Y38992D01*
Y39605D01*
X59739Y40569D02*
X59751Y40557D01*
X61410D01*
X52921Y29461D02*
X52931Y29471D01*
X58207Y29573D02*
X58332Y29448D01*
X24556Y17452D02*
X28205D01*
X28370Y17287D01*
X61198Y18207D02*
X61341Y18064D01*
X61840D01*
X62016Y17887D01*
X24697Y6158D02*
X28118D01*
X68866Y6180D02*
X71330D01*
X91150Y76580D02*
Y85580D01*
X91080Y76510D02*
X91150Y76580D01*
X117300Y82035D02*
Y84770D01*
X47764Y146565D02*
Y146595D01*
X47655Y143120D02*
Y143518D01*
X47556Y143616D02*
X47655Y143518D01*
X108390Y132320D02*
Y143258D01*
X108431Y143299D01*
X108442D01*
X108270Y89780D02*
Y93611D01*
X108185Y89695D02*
X108270Y89780D01*
X108185Y86190D02*
Y89695D01*
X47765Y154440D02*
Y154470D01*
X110130Y127896D02*
Y149950D01*
X114296Y134786D02*
X114300Y134790D01*
X47769Y138693D02*
Y138723D01*
X89080Y74740D02*
X89090Y74730D01*
X89080Y74740D02*
Y78020D01*
X89060Y78040D02*
X89080Y78020D01*
X100486Y52898D02*
X100500D01*
X100470Y66843D02*
Y69030D01*
X48164Y146065D02*
Y146095D01*
X100000Y29310D02*
Y77310D01*
X99930Y29240D02*
X100000Y29310D01*
X48169Y136889D02*
Y138223D01*
X102010Y17347D02*
Y25423D01*
X72060Y5950D02*
Y7370D01*
X92890Y72260D02*
Y73870D01*
X106802Y64110D02*
Y72448D01*
X106780Y72470D02*
X106802Y72448D01*
X69115Y64725D02*
X69320Y64930D01*
X69115Y64009D02*
Y64725D01*
X69103Y30853D02*
X69350Y31100D01*
X69103Y29922D02*
Y30853D01*
X83940Y143190D02*
Y146037D01*
X84071Y146169D01*
Y146182D01*
X103530Y102660D02*
Y102690D01*
Y102660D02*
X103630Y102560D01*
Y99340D02*
Y102560D01*
X103910Y97306D02*
Y99060D01*
X103630Y99340D02*
X103910Y99060D01*
X103100Y59285D02*
Y62577D01*
X16197Y113440D02*
Y113884D01*
X16160Y115961D02*
Y115991D01*
X89480Y62090D02*
Y112770D01*
X89100Y113150D02*
X89480Y112770D01*
X16170Y107380D02*
Y107756D01*
X16177Y109719D02*
Y109749D01*
X30380Y103700D02*
Y106740D01*
X29970Y102912D02*
Y107350D01*
X29680Y107640D02*
X29970Y107350D01*
X91320Y104210D02*
X91501Y104029D01*
X91571D01*
X91760Y103840D01*
X29030Y119460D02*
Y120250D01*
X29060Y120280D01*
Y123804D02*
X29319Y124063D01*
X29060Y120280D02*
Y123804D01*
X16917Y123505D02*
Y123534D01*
X16897Y111019D02*
Y111049D01*
X16714Y104646D02*
X16869Y104801D01*
X16890Y99930D02*
X17019Y100059D01*
X92240Y98030D02*
X92259D01*
X92300Y97989D01*
X110940Y68940D02*
Y70210D01*
X111055Y70325D01*
X29910Y119710D02*
X30014Y119814D01*
X29860Y119710D02*
X29910D01*
X30014Y119814D02*
Y122901D01*
X113630Y106380D02*
Y113826D01*
X113306Y114150D02*
X113630Y113826D01*
X47666Y130401D02*
X47819Y130553D01*
X74456Y8474D02*
X74460Y8470D01*
X89090Y34490D02*
X89200Y34600D01*
Y52110D01*
X71980Y125350D02*
Y125970D01*
Y125350D02*
X72230Y125100D01*
X92630Y80170D02*
Y81150D01*
Y80170D02*
X92710Y80090D01*
Y74240D02*
Y80090D01*
X106719Y12964D02*
X106750Y12995D01*
X99656Y45776D02*
Y47117D01*
X96783Y53272D02*
X96789Y53278D01*
D16*
X107570Y86667D02*
X107647Y86744D01*
Y87429D01*
X107570Y86640D02*
Y86667D01*
X114740Y147070D02*
Y147263D01*
X114279Y147724D02*
X114740Y147263D01*
X106889Y87240D02*
Y87913D01*
X107120Y86284D02*
Y86950D01*
D253*
X118705Y53530D02*
X120270Y51965D01*
X118575Y146385D02*
X119000Y146810D01*
X118575Y100971D02*
Y146385D01*
Y100971D02*
X118965Y100581D01*
Y63532D02*
Y100581D01*
X118705Y63272D02*
X118965Y63532D01*
X118705Y53530D02*
Y63272D01*
X120270Y23120D02*
Y51965D01*
X118740Y21590D02*
X120270Y23120D01*
X118380Y148669D02*
X119000Y148049D01*
X118380Y148669D02*
Y155860D01*
X119000Y146810D02*
Y148049D01*
D265*
X66839Y118410D02*
D03*
X66827Y118146D02*
D03*
X105173Y122240D02*
D03*
X102715Y122360D02*
D03*
X107455Y126206D02*
D03*
X77700Y123320D02*
D03*
X95490Y123610D02*
D03*
X108824Y35933D02*
D03*
X109718Y31849D02*
D03*
X112055Y60927D02*
D03*
X109197Y54546D02*
D03*
X111010Y58520D02*
D03*
X110216Y56713D02*
D03*
X111171Y56213D02*
D03*
X111221Y55213D02*
D03*
X109887Y54760D02*
D03*
X109600Y44441D02*
D03*
X111116Y44540D02*
D03*
X107330Y42865D02*
D03*
X104210Y37530D02*
D03*
X108810Y37447D02*
D03*
X72230Y42702D02*
D03*
X89200Y52110D02*
D03*
X86885Y52153D02*
D03*
X80510Y88950D02*
D03*
X80891Y72645D02*
D03*
X102946Y88313D02*
D03*
X71980Y125970D02*
D03*
X76489Y123202D02*
D03*
X75995Y66830D02*
D03*
X90090Y72950D02*
D03*
X107400Y123800D02*
D03*
X107503Y145770D02*
D03*
X101950Y145020D02*
D03*
X96814Y146680D02*
D03*
X97780Y119460D02*
D03*
X85726Y88658D02*
D03*
X124690Y59000D02*
D03*
X123110Y105680D02*
D03*
X107097Y111329D02*
D03*
X107049Y94015D02*
D03*
X124280Y58520D02*
D03*
X122020Y119440D02*
D03*
X84023Y117607D02*
D03*
X84760Y121510D02*
D03*
X121560Y100564D02*
D03*
X122840Y58520D02*
D03*
X105950Y101270D02*
D03*
X88172Y118673D02*
D03*
X89820Y121600D02*
D03*
X115046Y77253D02*
D03*
X113820Y77007D02*
D03*
X68071Y72610D02*
D03*
X68120Y90218D02*
D03*
X69234Y90801D02*
D03*
X70894Y51260D02*
D03*
X71100Y53000D02*
D03*
X69350Y34021D02*
D03*
X73835Y33855D02*
D03*
X73801Y27681D02*
D03*
X42806Y113350D02*
D03*
X42910Y112770D02*
D03*
X73945Y24330D02*
D03*
X113480Y68360D02*
D03*
X113869Y65317D02*
D03*
X86740Y84950D02*
D03*
Y82930D02*
D03*
X82850Y82920D02*
D03*
X86112Y76148D02*
D03*
X86260Y65788D02*
D03*
X91510Y69550D02*
D03*
X91980Y42680D02*
D03*
X93884Y32266D02*
D03*
X93750Y74980D02*
D03*
X119040Y20439D02*
D03*
X118990Y10270D02*
D03*
X87772Y144355D02*
D03*
X87570Y117730D02*
D03*
X76286Y28148D02*
D03*
X89720Y144853D02*
D03*
X89884Y145118D02*
D03*
X66848Y122384D02*
D03*
X64600Y122910D02*
D03*
Y94500D02*
D03*
X65232Y118728D02*
D03*
X65479Y93980D02*
D03*
X66979Y119193D02*
D03*
X66706Y92630D02*
D03*
X42806Y122900D02*
D03*
X97850Y156140D02*
D03*
X82847Y38005D02*
D03*
X78656Y142620D02*
D03*
X48410Y134760D02*
D03*
X47819Y135000D02*
D03*
X47799Y150610D02*
D03*
X48610D02*
D03*
X87570Y150410D02*
D03*
X86570Y132003D02*
D03*
X84250Y132150D02*
D03*
X87430Y133940D02*
D03*
X94610Y141300D02*
D03*
X87009Y145585D02*
D03*
X68490Y68306D02*
D03*
X78422Y78280D02*
D03*
X78252Y81550D02*
D03*
X83000Y143950D02*
D03*
X69600Y87417D02*
D03*
X70050Y62206D02*
D03*
X71919Y20501D02*
D03*
X69918Y85003D02*
D03*
X69980Y80154D02*
D03*
X77324Y73527D02*
D03*
X69600Y77900D02*
D03*
X69500Y74470D02*
D03*
X69300Y78300D02*
D03*
X68886Y73011D02*
D03*
X74062Y28065D02*
D03*
X82630Y31910D02*
D03*
X73352Y32493D02*
D03*
X77852Y28631D02*
D03*
X65540Y27460D02*
D03*
X120330Y115050D02*
D03*
X121150Y103390D02*
D03*
X96777Y48528D02*
D03*
X101420D02*
D03*
X69602Y51773D02*
D03*
X71659Y123511D02*
D03*
X73900Y124410D02*
D03*
X70714Y125180D02*
D03*
X83025Y69680D02*
D03*
X83041Y67442D02*
D03*
X90800Y40660D02*
D03*
X90145Y55920D02*
D03*
X92300Y61920D02*
D03*
X85378Y29122D02*
D03*
X99980Y138490D02*
D03*
X85176Y124420D02*
D03*
X86229Y124875D02*
D03*
X84625Y87331D02*
D03*
X84590Y73585D02*
D03*
X86774Y101976D02*
D03*
X86608Y77678D02*
D03*
X85440Y78390D02*
D03*
X86977Y70281D02*
D03*
X86682Y62890D02*
D03*
X16890Y98030D02*
D03*
X31030Y101901D02*
D03*
X97780Y102690D02*
D03*
X41547Y100590D02*
D03*
X113640Y61900D02*
D03*
X105313Y151300D02*
D03*
X115947Y95099D02*
D03*
X68305Y119913D02*
D03*
X66797Y119944D02*
D03*
X66760Y119689D02*
D03*
X68279Y124175D02*
D03*
X105907Y41331D02*
D03*
X115148Y33838D02*
D03*
X114730Y46410D02*
D03*
X108495Y49240D02*
D03*
X110000Y49791D02*
D03*
X104857Y48510D02*
D03*
X110478Y52378D02*
D03*
X113721Y56809D02*
D03*
X109711Y52338D02*
D03*
X111130Y59711D02*
D03*
X111118Y62147D02*
D03*
X115145Y52001D02*
D03*
X115055Y64101D02*
D03*
X113869Y64357D02*
D03*
X113638Y65499D02*
D03*
X111497Y52424D02*
D03*
X111360Y67041D02*
D03*
X111870Y68590D02*
D03*
X110351Y67553D02*
D03*
X115570Y52900D02*
D03*
X115270Y69751D02*
D03*
X107567Y78119D02*
D03*
X107570Y77516D02*
D03*
X111280Y79432D02*
D03*
Y78172D02*
D03*
X109842Y78685D02*
D03*
X110811Y80405D02*
D03*
X110787Y79452D02*
D03*
X107614Y81421D02*
D03*
X109630Y81170D02*
D03*
X18727Y15134D02*
D03*
X110690Y66020D02*
D03*
X105517Y41470D02*
D03*
X18669Y3713D02*
D03*
X18491Y6103D02*
D03*
X18730Y26472D02*
D03*
X18737Y37844D02*
D03*
X18737Y49231D02*
D03*
X18569Y51610D02*
D03*
X18761Y60552D02*
D03*
X18569Y62941D02*
D03*
X18720Y71969D02*
D03*
X18710Y83319D02*
D03*
X97057Y87049D02*
D03*
X101250Y75980D02*
D03*
X107445Y22841D02*
D03*
X105215Y31780D02*
D03*
X119405Y18270D02*
D03*
X118400Y72020D02*
D03*
X105797Y79060D02*
D03*
X18601Y17571D02*
D03*
X18650Y28876D02*
D03*
X18559Y40234D02*
D03*
X18591Y74352D02*
D03*
X18539Y85704D02*
D03*
X115039Y141295D02*
D03*
X110811Y85850D02*
D03*
X96064Y54013D02*
D03*
X97298Y54968D02*
D03*
X103460Y54920D02*
D03*
X104760Y31777D02*
D03*
X111404Y86917D02*
D03*
X115561Y147019D02*
D03*
X114279Y147724D02*
D03*
X116590Y148233D02*
D03*
X115965Y148664D02*
D03*
X112080Y85610D02*
D03*
X106889Y87240D02*
D03*
Y87913D02*
D03*
X110760Y84730D02*
D03*
X107120Y86284D02*
D03*
Y86950D02*
D03*
X107570Y86640D02*
D03*
X107647Y87429D02*
D03*
X111010Y49916D02*
D03*
X96706Y7682D02*
D03*
X96706Y7943D02*
D03*
Y7419D02*
D03*
X97000D02*
D03*
Y7682D02*
D03*
Y7974D02*
D03*
X72690Y5270D02*
D03*
X90240Y113910D02*
D03*
X96308Y73227D02*
D03*
X87830Y62400D02*
D03*
X71322Y20223D02*
D03*
X70089Y84040D02*
D03*
X10530Y100640D02*
D03*
X10330Y106298D02*
D03*
X98510Y97494D02*
D03*
X104920Y99420D02*
D03*
X105780D02*
D03*
X106218Y87647D02*
D03*
X103295Y95895D02*
D03*
X116470Y116820D02*
D03*
X116880Y104955D02*
D03*
X118435Y82880D02*
D03*
X117710Y37530D02*
D03*
X96967Y72010D02*
D03*
X101338Y72028D02*
D03*
Y73490D02*
D03*
X116140Y73099D02*
D03*
X116350Y36750D02*
D03*
X96692Y40615D02*
D03*
X97295Y34971D02*
D03*
X116780Y13170D02*
D03*
X116940Y36400D02*
D03*
X109645Y54163D02*
D03*
X96531Y52380D02*
D03*
X97363D02*
D03*
X96930Y44830D02*
D03*
X101490Y32549D02*
D03*
X101573Y43127D02*
D03*
X99460Y12472D02*
D03*
X99656Y42337D02*
D03*
X96280Y72020D02*
D03*
X96157Y39250D02*
D03*
X96782Y72515D02*
D03*
X106780Y72792D02*
D03*
X100900Y56334D02*
D03*
X100998Y32110D02*
D03*
X96610Y31400D02*
D03*
X96920Y31780D02*
D03*
X101238Y28052D02*
D03*
X103940Y27280D02*
D03*
X104510Y47937D02*
D03*
X116052Y20645D02*
D03*
X115985Y89000D02*
D03*
X90600Y129680D02*
D03*
X91040Y20770D02*
D03*
X65530Y84500D02*
D03*
X64775Y73601D02*
D03*
X66329Y61578D02*
D03*
X88130Y84150D02*
D03*
X69350Y40274D02*
D03*
X69960Y29922D02*
D03*
X86780Y29930D02*
D03*
Y28920D02*
D03*
X65200Y15930D02*
D03*
X65170Y5270D02*
D03*
X72710Y6720D02*
D03*
X65890Y81640D02*
D03*
X99870Y81550D02*
D03*
X100070Y82830D02*
D03*
X64560Y74260D02*
D03*
X68490Y73930D02*
D03*
X69520Y63467D02*
D03*
X84285Y63730D02*
D03*
Y70010D02*
D03*
X69340Y52200D02*
D03*
X69480Y40960D02*
D03*
X88360Y40980D02*
D03*
X88480Y71190D02*
D03*
X116660Y28920D02*
D03*
X116710Y71580D02*
D03*
X70860Y18130D02*
D03*
X119550Y72300D02*
D03*
X71330Y6180D02*
D03*
X118420Y6440D02*
D03*
X107120Y83340D02*
D03*
X106800Y86640D02*
D03*
X91040Y28570D02*
D03*
X91150Y85580D02*
D03*
X117490Y17120D02*
D03*
X117300Y84770D02*
D03*
X115290Y5620D02*
D03*
X115500Y67110D02*
D03*
X112070Y67122D02*
D03*
X47655Y143120D02*
D03*
X108442Y143299D02*
D03*
X110130Y149950D02*
D03*
X111680Y81319D02*
D03*
X114590Y81000D02*
D03*
X114300Y134790D02*
D03*
X48094Y127187D02*
D03*
X108740Y126614D02*
D03*
X70390Y82080D02*
D03*
X104315Y82205D02*
D03*
X104625Y78464D02*
D03*
X69760Y73750D02*
D03*
X69790Y74820D02*
D03*
X89090Y74730D02*
D03*
X89060Y78040D02*
D03*
X100500Y52898D02*
D03*
X100470Y69030D02*
D03*
X87350Y126800D02*
D03*
X75240Y126670D02*
D03*
X75140Y42960D02*
D03*
X91340Y76620D02*
D03*
X48164Y142660D02*
D03*
X99930Y29240D02*
D03*
X100000Y77310D02*
D03*
X102010Y17347D02*
D03*
X102300Y63550D02*
D03*
X48335Y126920D02*
D03*
X83440D02*
D03*
X83800Y9100D02*
D03*
X72060Y5950D02*
D03*
Y7370D02*
D03*
X93040Y86630D02*
D03*
X92890Y72260D02*
D03*
X106780Y72470D02*
D03*
X106802Y64110D02*
D03*
X90530Y75570D02*
D03*
X90510Y64520D02*
D03*
X69320Y64930D02*
D03*
X69350Y31100D02*
D03*
X69115Y64009D02*
D03*
X69103Y29922D02*
D03*
X99530Y59930D02*
D03*
X83940Y143190D02*
D03*
X94630Y93510D02*
D03*
X102190Y93310D02*
D03*
X102060Y59610D02*
D03*
X103530Y102690D02*
D03*
X103100Y59285D02*
D03*
X84071Y146182D02*
D03*
X16197Y113440D02*
D03*
X89100Y113150D02*
D03*
X89480Y62090D02*
D03*
X16170Y107380D02*
D03*
X30380Y106740D02*
D03*
Y103700D02*
D03*
X29680Y107640D02*
D03*
X29970Y102912D02*
D03*
X91320Y104210D02*
D03*
X104150Y100820D02*
D03*
X104490Y88149D02*
D03*
X29030Y119460D02*
D03*
X29319Y124063D02*
D03*
X107390Y124500D02*
D03*
X107570Y87729D02*
D03*
X17070Y126230D02*
D03*
X106350Y78720D02*
D03*
X106515Y56570D02*
D03*
X83780Y56730D02*
D03*
X17000Y113510D02*
D03*
X92240Y98030D02*
D03*
X92300Y55610D02*
D03*
X110000Y66020D02*
D03*
X111055Y70325D02*
D03*
X29860Y119710D02*
D03*
X30014Y122901D02*
D03*
X84950Y57420D02*
D03*
X113306Y114150D02*
D03*
X117330Y56320D02*
D03*
X116880Y102500D02*
D03*
X30950Y107080D02*
D03*
X86650Y56270D02*
D03*
X47520Y126540D02*
D03*
X74456Y126450D02*
D03*
X74460Y8470D02*
D03*
X111530Y6580D02*
D03*
X94830Y136660D02*
D03*
X88720Y17010D02*
D03*
X106490Y52001D02*
D03*
X116795Y80510D02*
D03*
X116525Y50520D02*
D03*
X92630Y81150D02*
D03*
X92710Y74240D02*
D03*
X106719Y12964D02*
D03*
X106680Y46090D02*
D03*
X106990Y23150D02*
D03*
X107330Y46300D02*
D03*
X106580Y32790D02*
D03*
X106437Y46579D02*
D03*
X101390Y62940D02*
D03*
X107440Y82630D02*
D03*
X99780Y43020D02*
D03*
X99656Y47117D02*
D03*
X121810Y53540D02*
D03*
X121830Y101680D02*
D03*
X121170Y54150D02*
D03*
X120715Y53880D02*
D03*
X118970Y53640D02*
D03*
X118990Y125180D02*
D03*
X104774Y98252D02*
D03*
X98120Y6777D02*
D03*
X97039Y36451D02*
D03*
X97295Y35828D02*
D03*
X97039Y32959D02*
D03*
X96265Y43238D02*
D03*
X97298Y55867D02*
D03*
X97043Y52998D02*
D03*
X96789Y53278D02*
D03*
X96531Y53067D02*
D03*
X97036Y66460D02*
D03*
X97033Y76460D02*
D03*
Y72968D02*
D03*
X96521Y83037D02*
D03*
X97033Y86460D02*
D03*
X16177Y109749D02*
D03*
X16160Y115991D02*
D03*
X16869Y104801D02*
D03*
X16897Y111019D02*
D03*
X16917Y123505D02*
D03*
X48169Y130353D02*
D03*
Y138223D02*
D03*
X48164Y146095D02*
D03*
X48165Y153970D02*
D03*
X47819Y130553D02*
D03*
X47769Y138723D02*
D03*
X47764Y146595D02*
D03*
X47765Y154470D02*
D03*
X47769Y130853D02*
D03*
X36149Y84869D02*
D03*
Y73519D02*
D03*
X36179Y62124D02*
D03*
Y50792D02*
D03*
X36169Y39409D02*
D03*
Y28044D02*
D03*
X36159Y16699D02*
D03*
X36100Y5285D02*
D03*
D266*
X118380Y155860D02*
D03*
X118740Y21590D02*
D03*
D267*
X68500Y92500D02*
D03*
X69918D02*
D03*
X69418D02*
D03*
X68918D02*
D03*
D279*
X82168Y40198D02*
D03*
M02*
